<svg width="646" height="414" viewBox="0 0 646 414" fill="none" xmlns="http://www.w3.org/2000/svg">
    <path d="M208.2 298.611H177V338.811H119.1V298.611H8.1V259.911L102.3 128.811H163.8L78.3 251.511H120.9V215.811H177V251.511H208.2V298.611Z" fill="white"/>
    <path d="M380.418 154.854C376.036 158.613 369.227 156.219 368.163 150.545L350.174 54.6649C349.109 48.9904 354.586 44.2913 360.033 46.2066L452.062 78.5674C457.508 80.4826 458.839 87.5758 454.457 91.335L380.418 154.854Z" fill="#D60C0C" stroke="white"/>
    <g clip-path="url(#clip0)">
        <path d="M415.341 101.069C417.774 97.0909 416.503 91.8891 412.501 89.4507C408.5 87.0124 403.284 88.2608 400.851 92.2393C398.418 96.2177 399.689 101.42 403.69 103.858C407.691 106.296 412.907 105.048 415.341 101.069Z" fill="white"/>
        <path d="M389.149 91.0573C391.863 87.2641 390.97 81.9861 387.153 79.2686C383.337 76.5511 378.043 77.4231 375.329 81.2163C372.615 85.0095 373.509 90.2874 377.325 93.0049C381.142 95.7225 386.435 94.8504 389.149 91.0573Z" fill="white"/>
        <path d="M389.431 81.7028C389.734 83.2616 389.605 84.9078 388.962 86.4881C387.204 90.8086 382.263 92.8767 377.92 91.1096C376.188 90.4044 374.819 89.1894 373.904 87.7164C374.433 90.4321 376.285 92.8244 379.049 93.9493C383.391 95.7164 388.332 93.6483 390.091 89.3279C391.147 86.7315 390.81 83.9267 389.431 81.7028Z" fill="#EFEFEF"/>
        <path d="M415.287 92.2257C415.591 93.7846 415.462 95.4307 414.818 97.0111C413.06 101.332 408.119 103.4 403.777 101.633C402.044 100.927 400.675 99.7124 399.76 98.2394C400.29 100.955 402.141 103.347 404.905 104.472C409.248 106.239 414.189 104.171 415.947 99.8508C417.004 97.2544 416.666 94.4497 415.287 92.2257Z" fill="#EFEFEF"/>
        <path d="M378.913 94.313C374.386 92.4704 372.188 87.2938 374.022 82.7887C375.855 78.2835 381.043 76.1123 385.571 77.9549C390.098 79.7976 392.296 84.9742 390.462 89.4793C388.629 93.9845 383.451 96.1599 378.913 94.313ZM385.278 78.6733C381.142 76.9901 376.419 78.9673 374.744 83.0825C373.069 87.1977 375.07 91.9115 379.206 93.5947C383.342 95.2778 388.065 93.3007 389.74 89.1855C391.415 85.0703 389.414 80.3565 385.278 78.6733Z" fill="#231F20"/>
        <path d="M384.402 86.4042C383.55 88.4978 381.159 89.4985 379.055 88.6422C376.951 87.7859 375.939 85.4001 376.791 83.3066C377.643 81.2131 380.034 80.2123 382.138 81.0686C384.242 81.9249 385.25 84.321 384.402 86.4042Z" fill="#231F20"/>
        <path d="M381.505 84.4237C381.158 85.2755 380.173 85.6879 379.317 85.3395C378.461 84.9911 378.043 84.0078 378.39 83.1561C378.737 82.3043 379.722 81.8919 380.578 82.2403C381.434 82.5886 381.852 83.5719 381.505 84.4237Z" fill="white"/>
        <path d="M404.77 104.836C400.242 102.993 398.045 97.8165 399.878 93.3114C401.712 88.8062 406.899 86.635 411.427 88.4777C415.955 90.3203 418.152 95.4969 416.319 100.002C414.485 104.507 409.298 106.678 404.77 104.836ZM411.135 89.196C406.999 87.5129 402.275 89.49 400.6 93.6052C398.926 97.7204 400.926 102.434 405.062 104.117C409.198 105.801 413.922 103.823 415.597 99.7082C417.271 95.593 415.271 90.8792 411.135 89.196Z" fill="#231F20"/>
        <path d="M409.829 97.6915C411.107 95.8294 410.624 93.2823 408.751 92.0024C406.878 90.7225 404.323 91.1945 403.045 93.0566C401.767 94.9187 402.25 97.4658 404.123 98.7457C405.996 100.026 408.551 99.5536 409.829 97.6915Z" fill="#231F20"/>
        <path d="M407.341 94.9383C406.994 95.7901 406.009 96.2025 405.153 95.8541C404.297 95.5057 403.88 94.5225 404.226 93.6707C404.573 92.8189 405.558 92.4065 406.414 92.7549C407.27 93.1033 407.688 94.0865 407.341 94.9383Z" fill="white"/>
        <path d="M379.387 66.6223C380.561 68.4638 382.269 65.7139 386.81 65.4566C390.59 65.2367 392.614 67.4121 393.45 66.1255C394.286 64.839 391.654 62.4756 386.132 62.5133C382.022 62.5393 378.02 64.487 379.387 66.6223Z" fill="#231F20"/>
        <path d="M425.16 85.1907C422.897 85.7291 423.572 82.3556 420.232 78.8071C417.447 75.8434 414.276 76.0125 414.568 74.4088C414.86 72.8051 418.643 72.9331 422.917 77.053C426.109 80.1104 427.795 84.5645 425.16 85.1907Z" fill="#231F20"/>
        <path d="M398.845 116.707C398.669 116.636 398.542 116.476 398.501 116.28C398.495 116.266 398.213 114.656 396.998 112.618C395.886 110.742 393.722 108.115 389.775 106.233C382.196 102.611 375.104 106.746 375.037 106.791C374.77 106.945 374.429 106.866 374.273 106.6C374.118 106.333 374.195 105.994 374.463 105.839C374.544 105.788 376.408 104.693 379.287 104.058C381.951 103.48 386.016 103.209 390.254 105.232C394.482 107.252 396.792 110.082 397.986 112.111C399.289 114.316 399.585 116.039 399.591 116.114C399.635 116.419 399.438 116.697 399.127 116.75C399.043 116.752 398.937 116.745 398.845 116.707Z" fill="#231F20"/>
        <path d="M373.809 103.516C372.464 104.487 371.635 106.112 371.646 107.767C371.648 107.911 371.734 108.054 371.895 108.072C372.031 108.091 372.207 107.984 372.2 107.825C372.194 106.303 372.921 104.841 374.148 103.953C374.436 103.747 374.101 103.3 373.809 103.516Z" fill="#231F20"/>
        <path d="M400.565 114.871C401.161 116.214 400.927 117.853 399.998 118.983C399.766 119.259 400.217 119.598 400.439 119.318C401.5 118.039 401.752 116.18 401.077 114.649C400.942 114.331 400.42 114.549 400.565 114.871Z" fill="#231F20"/>
    </g>
    <g filter="url(#filter0_d)">
        <circle cx="316.519" cy="230.329" r="129.519" fill="#6B90FF"/>
        <g filter="url(#filter1_i)">
            <circle cx="281.489" cy="157.504" r="29.9598" fill="#5680FF"/>
        </g>
        <g filter="url(#filter2_i)">
            <circle cx="257.06" cy="243.696" r="12.9058" fill="#5680FF"/>
        </g>
        <g filter="url(#filter3_i)">
            <circle cx="334.955" cy="312.373" r="17.9759" fill="#5680FF"/>
        </g>
        <g filter="url(#filter4_i)">
            <circle cx="215.577" cy="196.682" r="9.21841" fill="#5680FF"/>
        </g>
        <g filter="url(#filter5_i)">
            <circle cx="316.98" cy="240.009" r="9.21841" fill="#5680FF"/>
        </g>
        <g opacity="0.4" filter="url(#filter6_f)">
            <path d="M445.115 217.885C393.124 393.772 264.281 344.945 206.359 298.546C223.874 325.894 277.525 375.611 352.009 355.7C439.4 322.882 450.493 250.149 445.115 217.885Z" fill="#4E7AFF"/>
        </g>
        <g filter="url(#filter7_i)">
            <circle cx="380.126" cy="203.596" r="40.1001" fill="#5680FF"/>
        </g>
    </g>
    <g filter="url(#filter8_d)">
        <path d="M630.2 298.611H599V338.811H541.1V298.611H430.1V259.911L524.3 128.811H585.8L500.3 251.511H542.9V215.811H599V251.511H630.2V298.611Z" fill="white"/>
    </g>
    <g clip-path="url(#clip1)">
        <path d="M329.136 104.625C329.965 104.626 330.639 105.781 330.708 106.491C330.797 107.276 329.948 107.807 329.37 108.144C328.154 108.814 326.527 109.088 325.125 109.14C323.362 109.207 321.567 108.778 319.994 107.965C319.166 107.519 318.411 106.892 317.914 106.094C317.666 105.695 317.103 104.349 317.225 103.749C317.393 103.846 317.574 103.919 317.742 104.016C319.151 104.67 320.547 105.348 322.03 105.821C324.166 106.544 326.254 105.802 328.188 104.94C328.391 104.865 328.659 104.733 328.954 104.552C328.978 104.566 329.036 104.632 329.136 104.625Z" fill="#D60C0C"/>
        <path d="M329.903 102.356C329.889 102.379 329.913 102.393 329.899 102.417C330.193 103.512 328.218 104.223 327.428 104.597C325.58 105.477 323.675 105.845 321.672 105.168C319.961 104.595 318.116 103.753 316.537 102.841C315.555 102.274 314.927 101.593 314.871 100.475C314.868 100.314 314.96 98.1645 315.193 98.2032C315.217 98.217 315.254 98.2069 315.268 98.183C315.374 98.276 315.48 98.3691 315.586 98.4621C316.471 99.1963 317.504 99.7289 318.471 100.32C319.726 101.076 320.96 101.98 322.37 102.411C323.819 102.832 327.383 103.071 329.903 102.356Z" fill="#D60C0C"/>
        <path d="M321.1 91.3998C321.124 91.4136 321.147 91.4275 321.185 91.4173C321.119 91.6982 321.039 92.003 320.996 92.2976C320.852 93.0444 321.068 93.7756 321.024 94.516C320.473 94.1981 319.977 94.0074 319.703 94.0404C319.665 94.0505 319.665 94.0505 319.651 94.0745C320.528 94.3252 321.362 94.8706 321.9 95.5965C322.557 96.0074 323.024 96.4689 322.807 96.7902C322.436 96.9908 322.089 97.2053 321.704 97.4299C321.906 97.3553 322.133 97.2946 322.322 97.244C323.19 97.0113 324.076 96.693 324.971 96.6353C325.297 96.5682 325.647 96.5149 326.045 96.4892C328.161 96.3066 330.347 96.6112 331.734 98.4654C333.49 100.787 329.73 101.936 328.132 102.162C326.121 102.438 323.694 102.441 321.78 101.719C320.836 101.365 319.923 100.679 319.052 100.144C318.251 99.6499 317.424 99.2039 316.637 98.6861C314.768 97.447 313.206 95.3966 314.741 93.3463C315.548 92.2802 316.826 91.8368 318.122 91.6917C318.733 91.6293 319.33 91.5908 319.926 91.5523C320.129 91.4778 320.87 91.2994 321.1 91.3998Z" fill="#D60C0C"/>
        <path d="M323.937 86.4308L323.726 86.8516C323.702 86.8378 323.664 86.8479 323.626 86.858C322.611 87.6763 321.94 88.9487 321.534 90.1503C321.416 90.4652 321.336 90.77 321.242 91.0987C321.218 91.0849 321.218 91.0849 321.194 91.0711C321.146 91.0435 321.098 91.0158 321.036 91.0121C320.992 90.9228 320.92 90.8813 320.835 90.8638C319.848 90.8045 318.934 90.3411 317.958 90.0967C316.787 89.8035 315.605 89.4725 314.438 89.1176C312.408 88.488 310.399 87.7111 308.455 86.8762C306.635 86.0486 304.887 85.0397 303.563 83.5733C302.356 82.2376 301.057 79.7324 302.295 78.0854C303.195 76.9134 304.682 77.9315 305.598 78.5561C306.586 79.2222 307.574 79.8883 308.6 80.5443C310.569 81.7771 312.649 82.8183 314.774 83.726C316.851 84.6061 318.997 85.3665 321.196 85.87C321.601 85.9438 323.021 86.413 323.937 86.4308Z" fill="#D60C0C"/>
        <path d="M324.221 86.4355C324.245 86.4494 324.245 86.4494 324.269 86.4632C324.726 86.8869 324.343 87.4955 324.184 87.8822C323.664 89.1142 323.256 89.9318 323.531 91.3353C323.899 93.2397 325.323 94.6998 327.195 95.2704C327.219 95.2842 327.219 95.2842 327.257 95.2741L327.124 95.8358C326.257 95.8456 325.368 96.0028 324.579 96.1536C324.016 96.2436 323.522 96.4369 323.061 96.6817C323.132 96.1163 322.145 95.2273 321.178 94.6367C321.265 94.2086 321.24 93.8107 321.204 93.3752C321.112 92.4285 321.401 91.5418 321.675 90.679C322.145 89.2583 322.934 88.2778 323.844 87.1436C323.923 87.0616 323.835 86.883 323.749 86.8654L323.96 86.4447C324.036 86.4244 324.135 86.418 324.221 86.4355Z" fill="#D60C0C"/>
        <path d="M321.861 75.2102C322.642 74.576 323.135 75.4353 323.448 75.999C323.952 76.8961 324.177 77.8879 324.643 78.7951C325.084 79.6885 325.657 80.4659 326.305 81.2231C327.871 82.9889 329.817 83.985 331.98 84.8826C334.3 85.8392 336.274 87.6171 337.214 89.915C338.065 92.0342 337.96 94.8142 336.396 96.5284C336.368 96.5763 336.426 96.6417 336.453 96.5938C337.535 95.4946 338.1 94.1291 338.25 92.6521L338.288 92.642C338.415 92.5877 338.563 92.6089 338.754 92.7195C339.329 93.0512 340.147 94.0663 340.269 94.2965C340.947 95.3898 341.05 96.7582 340.928 97.9645C340.813 99.2703 340.365 100.544 339.62 101.614C338.943 102.564 337.76 103.508 336.513 103.235C337.227 101.445 336.31 99.6068 335.649 97.821C335.503 97.577 335.343 97.3568 335.169 97.1606C335.155 97.1846 335.141 97.2085 335.151 97.2463C335.488 99.2603 336.94 101.279 336.112 103.322C336.066 103.456 335.997 103.576 335.928 103.695C335.314 104.649 334.102 105.035 333.003 105.39C332.385 105.576 331.672 105.483 331.082 105.621C330.79 104.91 330.207 104.318 329.47 104.212C330.206 103.711 330.83 103.018 330.291 102.292L330.267 102.278C331.998 101.713 333.141 100.618 332.522 98.7602C331.957 97.0297 329.599 96.0833 327.964 95.8737C327.694 95.8451 327.409 95.8404 327.124 95.8357L327.257 95.274C327.333 95.2538 327.302 95.1405 327.231 95.099C325 94.0982 323.508 91.9282 324.273 89.4973C324.628 88.3298 325.599 87.1993 324.781 86.1842C324.809 86.1363 324.789 86.0608 324.731 85.9954C324.707 85.9816 324.696 85.9439 324.673 85.93C324.615 85.8646 324.553 85.8609 324.501 85.895C324.453 85.8673 324.443 85.8296 324.395 85.8019C323.675 85.2262 322.974 84.7259 322.36 84.0203C321.398 82.9223 320.879 81.6652 320.604 80.2617C320.38 79.047 320.307 77.7918 320.761 76.6179C320.966 76.0977 321.379 75.6024 321.861 75.2102Z" fill="#D60C0C"/>
        <path d="M322.759 74.2608C323.598 74.5217 323.987 75.672 324.265 76.4069C324.807 77.9007 325.301 79.3669 326.403 80.6095C327.553 81.8798 328.936 82.9659 330.559 83.5834C331.842 84.0691 333.257 84.4388 334.398 85.2256C336.278 86.5025 337.932 88.447 338.203 90.7419C338.259 91.253 338.291 91.7503 338.262 92.2439C338.461 92.231 338.666 92.3177 338.881 92.4421L338.729 92.7054C338.538 92.5948 338.391 92.5736 338.263 92.6279C338.25 92.6518 338.226 92.638 338.226 92.638C338.075 94.115 337.51 95.4805 336.429 96.5797C336.401 96.6275 336.343 96.5621 336.371 96.5143C337.921 94.824 338.04 92.02 337.189 89.9008C336.263 87.579 334.275 85.8251 331.955 84.8685C329.792 83.9708 327.846 82.9748 326.28 81.209C325.632 80.4518 325.06 79.6744 324.618 78.781C324.152 77.8738 323.903 76.8681 323.423 75.9849C323.111 75.4212 322.641 74.5757 321.836 75.1961C321.354 75.5882 320.941 76.0835 320.732 76.6655C320.254 77.8256 320.351 79.0946 320.576 80.3093C320.827 81.6989 321.369 82.9699 322.331 84.0679C322.945 84.7735 323.622 85.2599 324.367 85.8495C324.415 85.8772 324.425 85.9149 324.473 85.9426C324.524 85.9085 324.586 85.9122 324.644 85.9776C324.668 85.9914 324.678 86.0292 324.702 86.043C324.736 86.0946 324.756 86.1701 324.753 86.2318C325.595 87.2607 324.623 88.3912 324.244 89.5449C323.479 91.9758 324.971 94.1458 327.202 95.1466C327.274 95.188 327.28 95.2875 327.229 95.3216C327.229 95.3216 327.191 95.3317 327.167 95.3179C325.294 94.7472 323.871 93.2872 323.502 91.3827C323.251 89.9931 323.673 89.1515 324.155 87.9297C324.315 87.543 324.698 86.9344 324.241 86.5107C324.217 86.4968 324.217 86.4968 324.193 86.483C324.093 86.4894 324.032 86.4857 323.932 86.4921C322.993 86.4605 321.572 85.9914 321.206 85.9074C319.007 85.4039 316.86 84.6435 314.783 83.7634C312.658 82.8557 310.578 81.8145 308.609 80.5817C307.593 79.9635 306.619 79.2734 305.607 78.5935C304.691 77.9689 303.205 76.9508 302.304 78.1228C301.066 79.7698 302.365 82.275 303.573 83.6107C304.886 85.0394 306.634 86.0483 308.43 86.862C310.398 87.7107 312.369 88.4978 314.413 89.1034C315.581 89.4583 316.762 89.7893 317.933 90.0825C318.885 90.313 319.823 90.7904 320.81 90.8496C320.909 90.8432 320.991 90.9224 321.011 90.9979C321.073 91.0016 321.121 91.0293 321.169 91.0569C321.193 91.0707 321.193 91.0707 321.217 91.0846C321.297 90.7798 321.391 90.4511 321.509 90.1362C321.939 88.9484 322.6 87.6382 323.601 86.8438C323.639 86.8337 323.677 86.8236 323.701 86.8374C323.81 86.8687 323.875 87.0336 323.796 87.1155C322.885 88.2497 322.072 89.2164 321.627 90.651C321.338 91.5377 321.087 92.4143 321.155 93.3471C321.191 93.7827 321.193 94.1667 321.129 94.6087C322.073 95.1855 323.084 96.0882 323.013 96.6536C323.497 96.4226 323.992 96.2294 324.53 96.1255C325.32 95.9748 326.208 95.8176 327.076 95.8077C327.36 95.8124 327.645 95.8171 327.916 95.8458C329.55 96.0553 331.908 97.0018 332.473 98.7323C333.092 100.59 331.949 101.685 330.218 102.25L330.242 102.264C330.767 103.014 330.157 103.683 329.421 104.184C330.144 104.314 330.728 104.906 331.033 105.593C331.624 105.455 332.36 105.561 332.954 105.362C334.053 105.007 335.303 104.611 335.879 103.667L336.143 103.819C335.076 105.502 333.148 106.463 331.134 105.971C331.276 106.499 331.243 107.055 331.018 107.499C330.247 109.001 327.66 109.391 326.14 109.535C323.674 109.771 320.982 109.238 318.914 107.788C318.094 107.219 317.377 106.359 317.114 105.377C317.003 104.962 316.627 104.01 316.841 103.528C316.133 103.151 315.505 102.692 314.945 102.114C314.061 101.157 314.178 98.7983 314.868 97.8242L314.882 97.8003C313.81 96.6709 313.022 95.1623 313.793 93.6606C314.55 92.1829 316.029 91.2809 317.685 91.1203C318.196 91.0643 318.731 91.0221 319.253 91.0038C318.766 90.8508 318.294 90.6738 317.794 90.5448C316.489 90.2064 315.161 89.8542 313.887 89.4062C311.799 88.7112 309.666 87.9269 307.668 86.9649C305.814 86.0858 304.122 84.9811 302.819 83.3673C301.851 82.1699 300.96 80.5065 301.176 78.9715C301.388 77.4982 302.548 76.5399 304.082 76.9787C305.116 77.2885 306.167 78.3423 307.06 78.9531C308.153 79.7123 309.285 80.4613 310.448 81.1007C312.917 82.4626 315.511 83.609 318.195 84.4883C319.434 84.8847 320.687 85.2571 321.948 85.5062C322.157 85.5311 322.698 85.5884 323.226 85.6696C322.905 85.4522 322.611 85.1868 322.331 84.8976C320.492 82.942 319.669 80.5521 319.715 77.9295C319.824 76.7471 320.938 73.6561 322.759 74.2608ZM321.161 91.4032C321.137 91.3893 321.123 91.4133 321.075 91.3856C320.846 91.2852 320.142 91.4535 319.905 91.4764C319.309 91.5149 318.712 91.5534 318.101 91.6158C316.805 91.7609 315.503 92.1905 314.72 93.2705C313.185 95.3207 314.747 97.3711 316.616 98.6103C317.403 99.128 318.217 99.5979 319.031 100.068C319.902 100.603 320.791 101.276 321.759 101.643C323.687 102.341 326.1 102.362 328.111 102.087C329.709 101.861 333.455 100.735 331.713 98.3895C330.326 96.5353 328.14 96.2308 326.024 96.4133C325.65 96.4528 325.3 96.5061 324.95 96.5594C324.031 96.6033 323.169 96.9355 322.301 97.1682C322.088 97.2049 321.885 97.2795 321.683 97.354C322.068 97.1294 322.415 96.915 322.786 96.7143C323.003 96.393 322.536 95.9315 321.879 95.5206C321.327 94.8187 320.507 94.2494 319.63 93.9986C319.644 93.9747 319.668 93.9885 319.682 93.9645C319.932 93.9177 320.452 94.1223 321.003 94.4401C321.047 93.6998 320.845 92.9446 320.975 92.2218C321.038 92.0026 321.08 91.7079 321.161 91.4032ZM329.913 102.393C329.902 102.355 329.902 102.355 329.916 102.331C327.397 103.047 323.832 102.808 322.421 102.377C321.011 101.945 319.777 101.041 318.522 100.285C317.555 99.6944 316.521 99.1618 315.637 98.4276C315.531 98.3346 315.425 98.2415 315.319 98.1485C315.305 98.1724 315.281 98.1586 315.244 98.1687C315.011 98.13 314.919 100.279 314.921 100.44C314.978 101.558 315.63 102.254 316.588 102.807C318.167 103.719 320.012 104.56 321.723 105.133C323.726 105.811 325.631 105.442 327.479 104.563C328.231 104.199 330.216 103.526 329.913 102.393ZM330.707 106.49C330.638 105.78 329.964 104.625 329.135 104.625C329.035 104.631 329.001 104.58 328.943 104.514C328.661 104.671 328.369 104.789 328.177 104.902C326.257 105.74 324.169 106.482 322.019 105.783C320.55 105.286 319.154 104.608 317.731 103.977C317.549 103.905 317.382 103.808 317.214 103.711C317.092 104.311 317.655 105.657 317.903 106.056C318.4 106.854 319.141 107.505 319.983 107.927C321.556 108.74 323.351 109.169 325.114 109.102C326.516 109.05 328.129 108.8 329.359 108.106C329.947 107.807 330.782 107.3 330.707 106.49Z" fill="white"/>
        <path d="M338.624 101.598C339.974 100.514 341.022 99.1874 341.801 97.6801C341.985 97.958 342.28 98.1882 342.615 98.3795C343.122 98.6685 343.771 98.8963 344.431 99.0761C345.584 99.3902 346.809 99.5674 347.447 99.6597C347.538 99.673 347.617 99.6844 347.683 99.6943C348.17 99.7898 348.67 99.7714 349.144 99.7532C350.289 99.9525 351.469 100.018 352.615 100.062C353.478 100.095 354.48 100.086 355.31 99.6282L355.339 99.6124L355.361 99.5883C355.453 99.4881 355.459 99.3513 355.416 99.2532C355.394 99.2017 355.349 99.1421 355.274 99.1106C355.202 99.0801 355.127 99.0874 355.065 99.1153C354.611 99.2635 354.102 99.2949 353.572 99.275C353.195 99.2608 352.82 99.2217 352.45 99.1831C352.326 99.1701 352.201 99.1571 352.078 99.1452C353.048 98.8292 353.973 98.4236 354.78 98.0633L354.78 98.0633L354.782 98.0622C355.755 97.6119 356.622 96.941 357.467 96.2871C357.707 96.1014 357.945 95.917 358.184 95.7394C359.274 94.9278 360.382 94.2431 361.746 94.0952L361.747 94.0951C362.309 94.0316 362.69 94.129 362.942 94.3019C363.193 94.4738 363.344 94.7393 363.412 95.0694C363.549 95.7417 363.325 96.6296 362.952 97.2811C362.26 98.4815 361.141 99.3446 359.965 100.117L359.964 100.117C357.816 101.536 355.434 102.568 352.854 103.038L352.854 103.038L352.852 103.039C348.168 103.942 343.279 102.929 338.624 101.598Z" fill="#D60C0C" stroke="white" stroke-width="0.4"/>
    </g>
    <g clip-path="url(#clip2)">
        <path d="M417.257 143.94C416.705 142.531 415.877 141.307 414.83 140.257C415.107 140.169 415.372 139.985 415.614 139.761C415.997 139.408 416.365 138.918 416.696 138.406C417.272 137.513 417.752 136.522 418.001 136.007C418.037 135.934 418.068 135.87 418.093 135.817C418.306 135.429 418.425 134.999 418.537 134.594C419.013 133.677 419.386 132.695 419.731 131.737C419.99 131.016 420.254 130.159 420.088 129.326L420.082 129.294L420.066 129.266C420 129.152 419.877 129.107 419.775 129.118C419.721 129.124 419.653 129.147 419.601 129.208C419.552 129.266 419.537 129.337 419.544 129.402C419.547 129.822 419.438 130.258 419.279 130.701C419.166 131.015 419.033 131.321 418.901 131.623C418.871 131.693 418.84 131.763 418.81 131.832C418.797 130.961 418.706 130.107 418.621 129.357L418.621 129.357L418.621 129.354C418.5 128.408 418.164 127.49 417.837 126.598C417.744 126.345 417.653 126.095 417.567 125.846C417.172 124.706 416.892 123.588 417.132 122.4L417.132 122.399C417.229 121.909 417.411 121.619 417.62 121.456C417.827 121.294 418.087 121.238 418.38 121.269C418.979 121.332 419.666 121.757 420.115 122.245C420.942 123.149 421.371 124.324 421.709 125.527L421.709 125.527C422.333 127.725 422.566 130.016 422.272 132.324L422.272 132.324L422.272 132.326C421.78 136.515 419.625 140.367 417.257 143.94Z" fill="#D60C0C" stroke="white" stroke-width="0.4"/>
        <path d="M406.643 166.013C406.028 166.711 405.017 167.175 404.158 166.689C402.141 165.601 402.978 163.365 404.178 161.814L404.424 161.99C403.855 162.719 403.383 163.565 403.359 164.384C403.339 165.058 403.577 165.929 404.215 166.282C405.305 166.867 406.319 166.055 406.726 165.044C407.691 162.678 408.836 160.525 410.613 158.614C412.377 156.681 414.562 154.824 415.695 152.447C416.021 151.8 416.109 151.145 416.107 150.484L416.41 150.454C416.488 151.705 416.081 152.715 415.375 153.811C413.515 156.691 410.703 158.821 408.868 161.744C408.389 162.479 408.048 163.25 407.697 164.056C407.372 164.703 407.143 165.467 406.643 166.013Z" fill="white"/>
        <path d="M406.726 165.044C406.307 166.033 405.305 166.867 404.215 166.283C403.577 165.929 403.339 165.058 403.359 164.384C403.383 163.565 403.843 162.697 404.424 161.99C404.677 161.672 404.964 161.363 405.22 161.101C405.242 161.089 405.251 161.055 405.261 161.02C406.368 160.472 407.379 159.806 408.172 158.862C408.744 158.189 409.35 157.525 409.862 156.799C410.375 156.073 410.844 155.373 411.521 154.783C411.565 154.758 411.506 154.706 411.462 154.731C410.529 155.381 409.913 156.281 409.217 157.14C408.308 158.237 407.284 159.285 406.051 160.02C404.828 160.722 403.472 161.24 402.159 161.734C401.033 162.149 398.891 162.917 397.839 161.994C399.224 161.575 400.697 160.298 401.552 159.664C402.017 159.311 402.495 158.98 402.938 158.639L402.947 158.605C403.644 157.947 404.374 157.298 404.965 156.556C405.586 155.768 406.046 154.9 406.494 154.01C407.066 152.934 407.474 151.722 408.161 150.694C408.139 150.707 408.096 150.732 408.074 150.744C407.021 152.096 406.341 153.695 405.497 155.157C404.465 156.9 403.104 157.968 401.479 159.131C400.58 159.79 399.715 160.458 398.73 160.966C397.669 161.545 395.64 161.903 395.712 160.106C395.761 158.926 397.044 157.874 397.896 157.184C399.223 156.107 400.658 155.169 401.711 153.817C402.786 152.452 403.643 150.81 404.3 149.224C404.529 148.661 405.214 147.578 404.822 146.996C404.81 146.974 404.81 146.974 404.797 146.953C404.913 146.8 404.994 146.638 405.11 146.486C405.119 146.452 405.129 146.417 405.116 146.396C404.91 146.543 404.732 146.789 404.573 146.966C404.489 147.072 404.37 147.169 404.273 147.253C403.77 148.146 402.765 148.924 401.985 149.487C401.573 149.78 401.17 150.04 400.721 150.269C400.041 150.803 399.186 151.235 398.35 151.599C398.219 151.674 398.088 151.749 397.957 151.825C397.913 151.85 397.879 151.84 397.854 151.797C397.358 151.995 396.884 152.181 396.432 152.353C395.02 152.876 393.687 153.639 392.174 153.126C391.302 152.82 390.572 152.001 390.411 151.114C390.285 150.438 390.794 149.858 391.266 149.415C392.336 148.399 393.774 147.92 395.161 147.556C396.614 147.155 397.89 146.394 399.26 145.695C400.563 145.034 401.628 144.309 402.21 142.997C402.238 142.894 402.266 142.791 402.295 142.689C402.465 141.872 402.426 140.944 402.157 140.12C402.079 139.934 401.98 139.761 401.924 139.563C401.862 139.454 401.812 139.368 401.75 139.259C401.848 140.038 402.087 140.707 402.02 141.551C402.013 141.641 401.994 141.71 401.988 141.8C401.336 140.562 400.382 139.353 399.09 138.77C397.372 137.999 395.399 137.95 393.64 137.261C391.616 136.464 390.093 134.718 390.297 132.443C390.39 131.44 391.077 130.614 392.139 130.897C392.811 131.058 393.39 131.561 393.919 131.978C395.129 132.924 396.355 133.747 397.775 134.401C399.552 135.224 401.297 135.432 403.256 135.662C405.34 135.906 407.533 136.491 409.354 137.49C410.281 137.995 411.109 138.729 411.836 139.492C412.564 140.255 413.085 141.165 413.866 141.868C413.913 141.899 413.978 141.861 413.953 141.818C413.291 141.018 412.87 140.079 412.186 139.292C411.778 138.834 411.327 138.402 410.845 138.017C411.063 138.093 411.278 138.114 411.537 138.109C412.406 138.158 413.029 138.434 413.719 138.93C415.051 139.836 416.139 141.025 416.891 142.437C417.856 144.272 418.615 147.722 416.204 148.932C415.908 147.605 415.452 146.255 415.561 144.926C415.571 144.892 415.514 144.895 415.505 144.929C415.231 146.324 415.724 147.74 415.979 149.147C415.961 149.216 415.964 149.271 416.001 149.336C416.078 149.724 416.111 150.136 416.132 150.527C416.134 151.188 416.046 151.844 415.72 152.491C414.553 154.858 412.402 156.724 410.638 158.657C408.848 160.547 407.691 162.678 406.726 165.044ZM409.934 149.332C409.974 149.453 410.233 149.449 410.18 149.306C409.995 148.578 409.766 147.875 409.187 147.372C409.115 147.298 408.941 147.398 409.034 147.459C409.603 147.996 409.739 148.638 409.934 149.332ZM407.218 144.241C407.271 144.383 407.526 144.323 407.53 144.177C407.493 143.709 407.391 143.278 407.112 142.892C406.879 142.536 406.277 142.449 406.154 142.031C406.138 141.953 406.017 141.994 405.998 142.062C406.038 142.385 406.33 142.591 406.566 142.801C407.005 143.212 407.02 143.693 407.218 144.241Z" fill="#D60C0C"/>
        <path d="M404.424 161.99L404.178 161.814C404.316 161.649 404.431 161.496 404.559 161.365C404.537 161.378 404.537 161.378 404.515 161.391C402.7 162.172 398.907 164.059 397.307 162.128C396.77 162.205 396.247 162.102 395.812 161.747C393.762 160.044 396.365 157.803 397.86 156.716C398.812 155.997 399.901 155.316 400.744 154.458C401.534 153.66 402.09 152.707 402.659 151.777C403.166 150.939 403.57 150.075 403.995 149.197C404.239 148.712 404.905 147.697 404.694 147.127L404.782 147.077C405.173 147.659 404.501 148.764 404.26 149.305C403.615 150.912 402.767 152.521 401.67 153.898C400.617 155.25 399.182 156.188 397.856 157.265C397.004 157.955 395.721 159.007 395.672 160.187C395.599 161.984 397.616 161.605 398.689 161.047C399.662 160.518 400.527 159.849 401.438 159.212C403.064 158.049 404.447 156.969 405.457 155.238C406.301 153.776 406.981 152.177 408.033 150.825C408.043 150.791 408.086 150.766 408.121 150.775C407.446 151.824 407.026 153.015 406.453 154.091C406.006 154.981 405.546 155.849 404.924 156.637C404.334 157.379 403.603 158.028 402.907 158.686C402.885 158.699 402.885 158.699 402.898 158.72C402.454 159.061 401.977 159.392 401.512 159.745C400.679 160.367 399.183 161.656 397.799 162.075C398.85 162.998 400.971 162.243 402.118 161.815C403.431 161.321 404.8 160.824 406.011 160.101C407.255 159.388 408.267 158.318 409.176 157.222C409.895 156.349 410.489 155.462 411.422 154.812C411.465 154.787 411.524 154.839 411.481 154.864C410.803 155.454 410.335 156.154 409.822 156.88C409.309 157.606 408.704 158.27 408.132 158.943C407.317 159.9 406.306 160.566 405.22 161.102C405.211 161.136 405.223 161.157 405.18 161.182C404.942 161.376 404.677 161.672 404.424 161.99Z" fill="white"/>
        <path d="M410.18 149.306C410.211 149.461 409.974 149.453 409.934 149.332C409.739 148.638 409.591 147.974 409.034 147.459C408.95 147.363 409.115 147.297 409.187 147.371C409.765 147.874 410.016 148.565 410.18 149.306Z" fill="white"/>
        <path d="M401.325 150.411C399.911 151.539 398.081 152.243 396.419 152.937C395.174 153.449 393.88 154.076 392.518 153.878C391.316 153.704 389.975 152.631 389.753 151.434C389.276 148.628 393.307 147.612 395.284 147.112C396.316 146.837 397.146 146.361 398.109 145.866C398.942 145.446 399.822 145.057 400.484 144.389C401.04 143.84 401.502 143.23 401.768 142.53C401.225 141.431 400.654 140.233 399.603 139.512C398.538 138.77 397.367 138.549 396.106 138.322C394.309 137.971 392.038 137.402 390.92 135.856C390.059 134.709 389.374 132.857 390.187 131.441C390.775 130.442 391.75 130.372 392.722 130.851C394.076 131.543 395.158 132.62 396.502 133.346C397.638 133.961 398.89 134.625 400.198 134.882C401.313 135.106 402.45 135.116 403.553 135.319C405.621 135.687 407.771 136.095 409.573 137.163C409.921 137.366 410.248 137.582 410.553 137.81C410.575 137.798 410.596 137.785 410.609 137.807C410.643 137.816 410.69 137.847 410.746 137.843L410.764 137.977C411.247 138.362 411.697 138.794 412.105 139.252C412.789 140.04 413.232 140.965 413.873 141.778C413.897 141.822 413.832 141.859 413.785 141.828C413.005 141.125 412.483 140.215 411.755 139.452C411.028 138.689 410.213 137.976 409.273 137.45C407.452 136.451 405.26 135.866 403.175 135.622C401.253 135.457 399.53 135.236 397.731 134.426C396.311 133.772 395.085 132.95 393.875 132.003C393.346 131.587 392.758 131.118 392.095 130.922C391.033 130.639 390.346 131.465 390.253 132.468C390.049 134.743 391.594 136.477 393.596 137.286C395.356 137.975 397.328 138.025 399.046 138.795C400.338 139.378 401.292 140.587 401.944 141.825C401.951 141.735 401.97 141.667 401.976 141.576C402.034 140.766 401.783 140.075 401.706 139.285C401.756 139.371 401.818 139.479 401.88 139.588C401.936 139.786 402.035 139.959 402.113 140.145C402.382 140.969 402.421 141.897 402.251 142.714C402.223 142.817 402.194 142.919 402.166 143.022C401.584 144.334 400.52 145.059 399.216 145.721C397.868 146.407 396.592 147.167 395.118 147.581C393.743 147.966 392.293 148.424 391.222 149.441C390.75 149.884 390.276 150.472 390.368 151.139C390.528 152.026 391.259 152.845 392.13 153.151C393.634 153.699 394.988 152.922 396.389 152.379C396.841 152.206 397.315 152.02 397.811 151.822C397.823 151.844 397.87 151.875 397.913 151.85C398.044 151.775 398.175 151.699 398.306 151.624C399.142 151.26 399.985 150.806 400.677 150.294C401.105 150.077 401.529 149.805 401.941 149.512C402.743 148.937 403.726 148.171 404.23 147.278C404.326 147.194 404.433 147.076 404.529 146.991C404.689 146.814 404.857 146.602 405.073 146.421C405.085 146.442 405.076 146.477 405.066 146.511C404.985 146.673 404.869 146.825 404.754 146.978C404.766 147 404.766 147 404.779 147.021L404.691 147.071C403.804 148.357 402.502 149.478 401.325 150.411Z" fill="white"/>
        <path d="M407.508 144.19C407.517 144.357 407.261 144.417 407.196 144.253C406.998 143.705 407.005 143.212 406.523 142.826C406.299 142.638 405.994 142.41 405.954 142.087C405.939 142.01 406.073 141.99 406.11 142.055C406.256 142.461 406.835 142.561 407.068 142.916C407.357 143.269 407.459 143.7 407.508 144.19Z" fill="white"/>
    </g>
    <defs>
        <filter id="filter0_d" x="179" y="100.811" width="267.246" height="267.476" filterUnits="userSpaceOnUse" color-interpolation-filters="sRGB">
            <feFlood flood-opacity="0" result="BackgroundImageFix"/>
            <feColorMatrix in="SourceAlpha" type="matrix" values="0 0 0 0 0 0 0 0 0 0 0 0 0 0 0 0 0 0 127 0"/>
            <feOffset dx="-4" dy="4"/>
            <feGaussianBlur stdDeviation="2"/>
            <feColorMatrix type="matrix" values="0 0 0 0 0 0 0 0 0 0 0 0 0 0 0 0 0 0 0.25 0"/>
            <feBlend mode="normal" in2="BackgroundImageFix" result="effect1_dropShadow"/>
            <feBlend mode="normal" in="SourceGraphic" in2="effect1_dropShadow" result="shape"/>
        </filter>
        <filter id="filter1_i" x="251.529" y="127.544" width="59.9196" height="60.9196" filterUnits="userSpaceOnUse" color-interpolation-filters="sRGB">
            <feFlood flood-opacity="0" result="BackgroundImageFix"/>
            <feBlend mode="normal" in="SourceGraphic" in2="BackgroundImageFix" result="shape"/>
            <feColorMatrix in="SourceAlpha" type="matrix" values="0 0 0 0 0 0 0 0 0 0 0 0 0 0 0 0 0 0 127 0" result="hardAlpha"/>
            <feOffset dy="1"/>
            <feGaussianBlur stdDeviation="10"/>
            <feComposite in2="hardAlpha" operator="arithmetic" k2="-1" k3="1"/>
            <feColorMatrix type="matrix" values="0 0 0 0 0 0 0 0 0 0 0 0 0 0 0 0 0 0 0.25 0"/>
            <feBlend mode="normal" in2="shape" result="effect1_innerShadow"/>
        </filter>
        <filter id="filter2_i" x="244.154" y="230.79" width="25.8115" height="26.8115" filterUnits="userSpaceOnUse" color-interpolation-filters="sRGB">
            <feFlood flood-opacity="0" result="BackgroundImageFix"/>
            <feBlend mode="normal" in="SourceGraphic" in2="BackgroundImageFix" result="shape"/>
            <feColorMatrix in="SourceAlpha" type="matrix" values="0 0 0 0 0 0 0 0 0 0 0 0 0 0 0 0 0 0 127 0" result="hardAlpha"/>
            <feOffset dy="1"/>
            <feGaussianBlur stdDeviation="10"/>
            <feComposite in2="hardAlpha" operator="arithmetic" k2="-1" k3="1"/>
            <feColorMatrix type="matrix" values="0 0 0 0 0 0 0 0 0 0 0 0 0 0 0 0 0 0 0.25 0"/>
            <feBlend mode="normal" in2="shape" result="effect1_innerShadow"/>
        </filter>
        <filter id="filter3_i" x="316.979" y="294.397" width="35.9518" height="36.9518" filterUnits="userSpaceOnUse" color-interpolation-filters="sRGB">
            <feFlood flood-opacity="0" result="BackgroundImageFix"/>
            <feBlend mode="normal" in="SourceGraphic" in2="BackgroundImageFix" result="shape"/>
            <feColorMatrix in="SourceAlpha" type="matrix" values="0 0 0 0 0 0 0 0 0 0 0 0 0 0 0 0 0 0 127 0" result="hardAlpha"/>
            <feOffset dy="1"/>
            <feGaussianBlur stdDeviation="10"/>
            <feComposite in2="hardAlpha" operator="arithmetic" k2="-1" k3="1"/>
            <feColorMatrix type="matrix" values="0 0 0 0 0 0 0 0 0 0 0 0 0 0 0 0 0 0 0.25 0"/>
            <feBlend mode="normal" in2="shape" result="effect1_innerShadow"/>
        </filter>
        <filter id="filter4_i" x="206.359" y="187.464" width="18.4368" height="19.4368" filterUnits="userSpaceOnUse" color-interpolation-filters="sRGB">
            <feFlood flood-opacity="0" result="BackgroundImageFix"/>
            <feBlend mode="normal" in="SourceGraphic" in2="BackgroundImageFix" result="shape"/>
            <feColorMatrix in="SourceAlpha" type="matrix" values="0 0 0 0 0 0 0 0 0 0 0 0 0 0 0 0 0 0 127 0" result="hardAlpha"/>
            <feOffset dy="1"/>
            <feGaussianBlur stdDeviation="10"/>
            <feComposite in2="hardAlpha" operator="arithmetic" k2="-1" k3="1"/>
            <feColorMatrix type="matrix" values="0 0 0 0 0 0 0 0 0 0 0 0 0 0 0 0 0 0 0.25 0"/>
            <feBlend mode="normal" in2="shape" result="effect1_innerShadow"/>
        </filter>
        <filter id="filter5_i" x="307.761" y="230.79" width="18.4368" height="19.4368" filterUnits="userSpaceOnUse" color-interpolation-filters="sRGB">
            <feFlood flood-opacity="0" result="BackgroundImageFix"/>
            <feBlend mode="normal" in="SourceGraphic" in2="BackgroundImageFix" result="shape"/>
            <feColorMatrix in="SourceAlpha" type="matrix" values="0 0 0 0 0 0 0 0 0 0 0 0 0 0 0 0 0 0 127 0" result="hardAlpha"/>
            <feOffset dy="1"/>
            <feGaussianBlur stdDeviation="10"/>
            <feComposite in2="hardAlpha" operator="arithmetic" k2="-1" k3="1"/>
            <feColorMatrix type="matrix" values="0 0 0 0 0 0 0 0 0 0 0 0 0 0 0 0 0 0 0.25 0"/>
            <feBlend mode="normal" in2="shape" result="effect1_innerShadow"/>
        </filter>
        <filter id="filter6_f" x="202.359" y="213.885" width="247.888" height="150.402" filterUnits="userSpaceOnUse" color-interpolation-filters="sRGB">
            <feFlood flood-opacity="0" result="BackgroundImageFix"/>
            <feBlend mode="normal" in="SourceGraphic" in2="BackgroundImageFix" result="shape"/>
            <feGaussianBlur stdDeviation="2" result="effect1_foregroundBlur"/>
        </filter>
        <filter id="filter7_i" x="340.026" y="163.496" width="80.2001" height="81.2001" filterUnits="userSpaceOnUse" color-interpolation-filters="sRGB">
            <feFlood flood-opacity="0" result="BackgroundImageFix"/>
            <feBlend mode="normal" in="SourceGraphic" in2="BackgroundImageFix" result="shape"/>
            <feColorMatrix in="SourceAlpha" type="matrix" values="0 0 0 0 0 0 0 0 0 0 0 0 0 0 0 0 0 0 127 0" result="hardAlpha"/>
            <feOffset dy="1"/>
            <feGaussianBlur stdDeviation="10"/>
            <feComposite in2="hardAlpha" operator="arithmetic" k2="-1" k3="1"/>
            <feColorMatrix type="matrix" values="0 0 0 0 0 0 0 0 0 0 0 0 0 0 0 0 0 0 0.25 0"/>
            <feBlend mode="normal" in2="shape" result="effect1_innerShadow"/>
        </filter>
        <filter id="filter8_d" x="405.1" y="112.811" width="240.1" height="250" filterUnits="userSpaceOnUse" color-interpolation-filters="sRGB">
            <feFlood flood-opacity="0" result="BackgroundImageFix"/>
            <feColorMatrix in="SourceAlpha" type="matrix" values="0 0 0 0 0 0 0 0 0 0 0 0 0 0 0 0 0 0 127 0"/>
            <feOffset dx="-5" dy="4"/>
            <feGaussianBlur stdDeviation="10"/>
            <feColorMatrix type="matrix" values="0 0 0 0 0 0 0 0 0 0 0 0 0 0 0 0 0 0 0.25 0"/>
            <feBlend mode="normal" in2="BackgroundImageFix" result="effect1_dropShadow"/>
            <feBlend mode="normal" in="SourceGraphic" in2="effect1_dropShadow" result="shape"/>
        </filter>
        <clipPath id="clip0">
            <rect width="50.7874" height="49.1491" fill="white" transform="translate(381.744 59.0288) rotate(22.1449)"/>
        </clipPath>
        <clipPath id="clip1">
            <rect width="31.0136" height="75.4334" fill="white" transform="translate(293 92.8586) rotate(-60)"/>
        </clipPath>
        <clipPath id="clip2">
            <rect width="38.577" height="41.4346" fill="white" transform="translate(416.945 115.811) rotate(60.1717)"/>
        </clipPath>
    </defs>
</svg>
