<svg width="1920" height="850" viewBox="0 0 1920 850" fill="none" xmlns="http://www.w3.org/2000/svg">
    <g opacity="0.5">
        <path opacity="0.6" d="M8.79528 1L-14 35.5V848.462H1920V314.154H1894.81L1885.21 229.231H1864.81L1849.21 183.231H1821.62L1808.42 314.154H1756.83L1741.24 356.615H1718.44L1702.84 314.154H1654.85L1633.26 356.615L1610.46 314.154H1479.69V100.077H1455.7V53.1923H1437.7L1424.5 3.65385H1206.15L1174.95 57.6154V450.385H1153.36L1137.76 400.846H863.019L851.021 364.577H818.628L806.63 318.577H793.433V277H755.041L735.845 177.923L717.849 270.808H695.053L681.856 183.231H647.063V102.731H626.667V50.5385H570.279L549.883 3.65385H518.69L501.893 50.5385H483.897L455.103 102.731H347.125L326.73 50.5385H299.135L279.939 92.1154H194.757L170.762 50.5385H158.764L133.569 122.192H116.773V1H8.79528Z" stroke="url(#paint0_linear)" stroke-width="1.76923"/>
        <path opacity="0.3" d="M8.79528 1L-14 35.5V848.462H1920V314.154H1894.81L1885.21 229.231H1864.81L1849.21 183.231H1821.62L1808.42 314.154H1756.83L1741.24 356.615H1718.44L1702.84 314.154H1654.85L1633.26 356.615L1610.46 314.154H1479.69V100.077H1455.7V53.1923H1437.7L1424.5 3.65385H1206.15L1174.95 57.6154V450.385H1153.36L1137.76 400.846H863.019L851.021 364.577H818.628L806.63 318.577H793.433V277H755.041L735.845 177.923L717.849 270.808H695.053L681.856 183.231H647.063V102.731H626.667V50.5385H570.279L549.883 3.65385H518.69L501.893 50.5385H483.897L455.103 102.731H347.125L326.73 50.5385H299.135L279.939 92.1154H194.757L170.762 50.5385H158.764L133.569 122.192H116.773V1H8.79528Z" fill="url(#paint1_linear)"/>
    </g>
    <defs>
        <linearGradient id="paint0_linear" x1="953" y1="1" x2="953" y2="848" gradientUnits="userSpaceOnUse">
            <stop stop-color="#3069F3"/>
            <stop offset="1" stop-color="#3069F3" stop-opacity="0"/>
        </linearGradient>
        <linearGradient id="paint1_linear" x1="953" y1="1" x2="953" y2="848.462" gradientUnits="userSpaceOnUse">
            <stop stop-color="#3069F3" stop-opacity="0.11"/>
            <stop offset="1" stop-color="#3069F3" stop-opacity="0"/>
        </linearGradient>
    </defs>
</svg>
