<svg width="229" height="76" viewBox="0 0 229 76" fill="none" xmlns="http://www.w3.org/2000/svg">
    <path d="M155.599 36.4819V40.8349H152.87V43.6895H155.599V53.389C155.599 56.701 157.097 58.0258 160.867 58.0258C161.529 58.0258 162.16 57.9469 162.712 57.8523V55.0292C162.239 55.0765 161.939 55.108 161.419 55.108C159.731 55.108 158.99 54.3195 158.99 52.5215V43.6895H162.712V40.8349H158.99V36.4819H155.599Z" fill="white"/>
    <path d="M172.314 58.2623C177.329 58.2623 180.405 54.903 180.405 49.3357C180.405 43.7999 177.314 40.4248 172.314 40.4248C167.299 40.4248 164.208 43.7999 164.208 49.3357C164.208 54.903 167.283 58.2623 172.314 58.2623ZM172.314 55.25C169.365 55.25 167.709 53.0893 167.709 49.3357C167.709 45.6136 169.365 43.4372 172.314 43.4372C175.248 43.4372 176.919 45.6136 176.919 49.3357C176.919 53.0735 175.248 55.25 172.314 55.25Z" fill="white"/>
    <path d="M183.036 57.9311H186.427V47.7901C186.427 45.377 188.241 43.7526 190.812 43.7526C191.411 43.7526 192.42 43.863 192.704 43.9576V40.6141C192.341 40.5194 191.695 40.4721 191.19 40.4721C188.951 40.4721 187.042 41.7023 186.553 43.3898H186.301V40.756H183.036V57.9311Z" fill="white"/>
    <path d="M201.124 43.311C203.631 43.311 205.271 45.0616 205.35 47.7585H196.676C196.865 45.0774 198.616 43.311 201.124 43.311ZM205.335 53.2943C204.704 54.6349 203.3 55.3762 201.25 55.3762C198.537 55.3762 196.786 53.4678 196.676 50.4555V50.2662H208.804V49.0833C208.804 43.6895 205.918 40.4248 201.139 40.4248C196.298 40.4248 193.222 43.9103 193.222 49.3988C193.222 54.8872 196.234 58.2623 201.155 58.2623C205.082 58.2623 207.826 56.3698 208.599 53.2943H205.335Z" fill="white"/>
    <path d="M133.362 51.5886C133.624 55.8061 137.138 58.5033 142.369 58.5033C147.96 58.5033 151.458 55.6753 151.458 51.1636C151.458 47.6164 149.464 45.6548 144.625 44.5269L142.026 43.8893C138.953 43.1701 137.71 42.2056 137.71 40.5219C137.71 38.3969 139.639 37.0074 142.533 37.0074C145.279 37.0074 147.175 38.3642 147.518 40.5383H151.082C150.869 36.566 147.371 33.7708 142.582 33.7708C137.432 33.7708 134 36.566 134 40.7671C134 44.2326 135.945 46.2923 140.211 47.2895L143.252 48.0251C146.374 48.7607 147.747 49.8395 147.747 51.6377C147.747 53.73 145.589 55.2503 142.647 55.2503C139.492 55.2503 137.302 53.8281 136.991 51.5886H133.362Z" fill="white"/>
    <path d="M98.2362 40.4721C95.902 40.4721 93.8832 41.6392 92.8423 43.5949H92.59V40.756H89.3253V63.6404H92.7161V55.3289H92.9842C93.8832 57.1426 95.8231 58.215 98.2677 58.215C102.605 58.215 105.365 54.7926 105.365 49.3357C105.365 43.8788 102.605 40.4721 98.2362 40.4721ZM97.2741 55.1711C94.4352 55.1711 92.653 52.9316 92.653 49.3515C92.653 45.7556 94.4352 43.516 97.2899 43.516C100.16 43.516 101.879 45.7082 101.879 49.3357C101.879 52.9789 100.16 55.1711 97.2741 55.1711Z" fill="white"/>
    <path d="M117.23 40.4721C114.896 40.4721 112.877 41.6392 111.836 43.5949H111.584V40.756H108.319V63.6404H111.71V55.3289H111.978C112.877 57.1426 114.817 58.215 117.262 58.215C121.599 58.215 124.359 54.7926 124.359 49.3357C124.359 43.8788 121.599 40.4721 117.23 40.4721ZM116.268 55.1711C113.429 55.1711 111.647 52.9316 111.647 49.3515C111.647 45.7556 113.429 43.516 116.284 43.516C119.154 43.516 120.873 45.7082 120.873 49.3357C120.873 52.9789 119.154 55.1711 116.268 55.1711Z" fill="white"/>
    <path d="M83.2415 57.9311H87.132L78.6153 34.3429H74.6758L66.1592 57.9311H69.9189L72.093 51.6704H81.0837L83.2415 57.9311ZM76.4576 38.6257H76.7355L80.1519 48.5972H73.0248L76.4576 38.6257Z" fill="white"/>
    <path d="M68.438 16.5507V27.9299H72.5465C75.9373 27.9299 77.9009 25.8401 77.9009 22.2048C77.9009 18.6247 75.9216 16.5507 72.5465 16.5507H68.438ZM70.2044 18.1594H72.3493C74.7072 18.1594 76.1029 19.6577 76.1029 22.2285C76.1029 24.8386 74.7308 26.3212 72.3493 26.3212H70.2044V18.1594Z" fill="white"/>
    <path d="M83.9145 28.0955C86.4222 28.0955 87.9599 26.4158 87.9599 23.6321C87.9599 20.8642 86.4143 19.1767 83.9145 19.1767C81.4069 19.1767 79.8613 20.8642 79.8613 23.6321C79.8613 26.4158 81.399 28.0955 83.9145 28.0955ZM83.9145 26.5893C82.4399 26.5893 81.6119 25.5089 81.6119 23.6321C81.6119 21.7711 82.4399 20.6829 83.9145 20.6829C85.3813 20.6829 86.2172 21.7711 86.2172 23.6321C86.2172 25.501 85.3813 26.5893 83.9145 26.5893Z" fill="white"/>
    <path d="M101.055 19.3423H99.3596L97.8297 25.8953H97.6957L95.9293 19.3423H94.3048L92.5384 25.8953H92.4122L90.8745 19.3423H89.1554L91.5211 27.9299H93.2639L95.0303 21.6055H95.1643L96.9386 27.9299H98.6972L101.055 19.3423Z" fill="white"/>
    <path d="M103.008 27.9299H104.703V22.9066C104.703 21.5661 105.499 20.7302 106.753 20.7302C108.007 20.7302 108.606 21.4162 108.606 22.7962V27.9299H110.302V22.3704C110.302 20.328 109.245 19.1767 107.329 19.1767C106.036 19.1767 105.184 19.7523 104.766 20.7065H104.64V19.3423H103.008V27.9299Z" fill="white"/>
    <path d="M112.972 27.9299H114.667V15.9908H112.972V27.9299Z" fill="white"/>
    <path d="M121.044 28.0955C123.551 28.0955 125.089 26.4158 125.089 23.6321C125.089 20.8642 123.544 19.1767 121.044 19.1767C118.536 19.1767 116.991 20.8642 116.991 23.6321C116.991 26.4158 118.528 28.0955 121.044 28.0955ZM121.044 26.5893C119.569 26.5893 118.741 25.5089 118.741 23.6321C118.741 21.7711 119.569 20.6829 121.044 20.6829C122.511 20.6829 123.346 21.7711 123.346 23.6321C123.346 25.501 122.511 26.5893 121.044 26.5893Z" fill="white"/>
    <path d="M130.141 26.6445C129.218 26.6445 128.548 26.195 128.548 25.4222C128.548 24.6652 129.084 24.263 130.267 24.1841L132.365 24.0501V24.7677C132.365 25.8323 131.418 26.6445 130.141 26.6445ZM129.707 28.0718C130.835 28.0718 131.773 27.5829 132.286 26.7233H132.42V27.9299H134.052V22.0629C134.052 20.2491 132.838 19.1767 130.685 19.1767C128.737 19.1767 127.349 20.123 127.176 21.5976H128.816C129.005 20.9904 129.66 20.6434 130.606 20.6434C131.765 20.6434 132.365 21.156 132.365 22.0629V22.8041L130.038 22.9382C127.996 23.0644 126.845 23.9554 126.845 25.501C126.845 27.0703 128.051 28.0718 129.707 28.0718Z" fill="white"/>
    <path d="M139.806 28.0718C140.988 28.0718 141.99 27.5119 142.502 26.5735H142.637V27.9299H144.261V15.9908H142.566V20.7065H142.439C141.974 19.7602 140.981 19.2003 139.806 19.2003C137.637 19.2003 136.241 20.9194 136.241 23.6321C136.241 26.3527 137.621 28.0718 139.806 28.0718ZM140.287 20.7223C141.706 20.7223 142.597 21.85 142.597 23.64C142.597 25.438 141.714 26.5499 140.287 26.5499C138.851 26.5499 137.992 25.4537 137.992 23.6321C137.992 21.8263 138.859 20.7223 140.287 20.7223Z" fill="white"/>
    <path d="M155.255 28.0955C157.763 28.0955 159.301 26.4158 159.301 23.6321C159.301 20.8642 157.755 19.1767 155.255 19.1767C152.748 19.1767 151.202 20.8642 151.202 23.6321C151.202 26.4158 152.74 28.0955 155.255 28.0955ZM155.255 26.5893C153.781 26.5893 152.953 25.5089 152.953 23.6321C152.953 21.7711 153.781 20.6829 155.255 20.6829C156.722 20.6829 157.558 21.7711 157.558 23.6321C157.558 25.501 156.722 26.5893 155.255 26.5893Z" fill="white"/>
    <path d="M161.545 27.9299H163.24V22.9066C163.24 21.5661 164.037 20.7302 165.291 20.7302C166.545 20.7302 167.144 21.4162 167.144 22.7962V27.9299H168.839V22.3704C168.839 20.328 167.783 19.1767 165.866 19.1767C164.573 19.1767 163.721 19.7523 163.303 20.7065H163.177V19.3423H161.545V27.9299Z" fill="white"/>
    <path d="M176.648 17.2052V19.3817H175.283V20.809H176.648V25.6588C176.648 27.3148 177.397 27.9772 179.282 27.9772C179.613 27.9772 179.928 27.9377 180.204 27.8904V26.4789C179.968 26.5025 179.818 26.5183 179.558 26.5183C178.714 26.5183 178.343 26.124 178.343 25.225V20.809H180.204V19.3817H178.343V17.2052H176.648Z" fill="white"/>
    <path d="M182.48 27.9299H184.175V22.9145C184.175 21.6134 184.948 20.7381 186.336 20.7381C187.535 20.7381 188.174 21.432 188.174 22.8041V27.9299H189.869V22.3862C189.869 20.3438 188.741 19.1846 186.912 19.1846C185.619 19.1846 184.712 19.7602 184.294 20.7223H184.16V15.9908H182.48V27.9299Z" fill="white"/>
    <path d="M195.985 20.6198C197.239 20.6198 198.059 21.4951 198.099 22.8436H193.761C193.856 21.503 194.731 20.6198 195.985 20.6198ZM198.091 25.6115C197.775 26.2817 197.073 26.6524 196.048 26.6524C194.692 26.6524 193.817 25.6982 193.761 24.192V24.0974H199.825V23.506C199.825 20.809 198.382 19.1767 195.993 19.1767C193.572 19.1767 192.034 20.9194 192.034 23.6637C192.034 26.4079 193.541 28.0955 196.001 28.0955C197.964 28.0955 199.337 27.1492 199.723 25.6115H198.091Z" fill="white"/>
    <path d="M47.7614 38.5715C47.8025 35.3776 49.5178 32.3555 52.2388 30.6826C50.5222 28.231 47.647 26.6766 44.6556 26.583C41.4651 26.2481 38.372 28.4922 36.7461 28.4922C35.0888 28.4922 32.5856 26.6163 29.89 26.6717C26.3764 26.7853 23.1009 28.7829 21.3914 31.8547C17.7168 38.2167 20.4578 47.5667 23.9777 52.7092C25.7388 55.2274 27.7971 58.0403 30.4902 57.9405C33.1256 57.8312 34.1099 56.26 37.2911 56.26C40.4427 56.26 41.3662 57.9405 44.114 57.8771C46.9419 57.8312 48.7236 55.3477 50.4229 52.8057C51.6883 51.0114 52.662 49.0284 53.3079 46.93C49.9846 45.5243 47.7653 42.1799 47.7614 38.5715Z" fill="white"/>
    <path d="M42.5712 23.201C44.1131 21.35 44.8728 18.9709 44.6888 16.5688C42.3331 16.8163 40.1571 17.9421 38.5944 19.7221C37.0663 21.4612 36.271 23.7985 36.4214 26.1087C38.7779 26.133 41.0945 25.0377 42.5712 23.201Z" fill="white"/>
    <path d="M1.7126 67.7897L3.46797 67.0626L1.7126 67.7897ZM227.688 67.7897L225.932 67.0626L227.688 67.7897ZM220.49 74.9876L219.763 73.2322L220.49 74.9876ZM220.49 1.0124L219.763 2.76777L220.49 1.0124ZM227.688 8.21031L229.443 7.48321L227.688 8.21031ZM8.91051 1.0124L9.6376 2.76777L8.91051 1.0124ZM20.6502 1.9H208.75V-1.9H20.6502V1.9ZM226.8 19.95V56.05H230.6V19.95H226.8ZM208.75 74.1H20.6502V77.9H208.75V74.1ZM2.6002 56.05V19.95H-1.1998V56.05H2.6002ZM20.6502 74.1C17.5257 74.1 15.2775 74.099 13.5024 73.9779C11.7443 73.8579 10.5896 73.6265 9.6376 73.2322L8.18341 76.743C9.67558 77.361 11.2922 77.6359 13.2437 77.769C15.1781 77.901 17.5777 77.9 20.6502 77.9V74.1ZM-1.1998 56.05C-1.1998 59.1225 -1.20083 61.5221 -1.06885 63.4565C-0.935697 65.408 -0.660853 67.0246 -0.0427735 68.5168L3.46797 67.0626C3.07365 66.1106 2.84229 64.9559 2.72234 63.1978C2.60122 61.4227 2.6002 59.1745 2.6002 56.05H-1.1998ZM9.6376 73.2322C6.84428 72.0752 4.625 69.8559 3.46797 67.0626L-0.0427735 68.5168C1.49993 72.2412 4.45898 75.2003 8.18341 76.743L9.6376 73.2322ZM226.8 56.05C226.8 59.1745 226.799 61.4227 226.678 63.1978C226.558 64.9559 226.327 66.1106 225.932 67.0626L229.443 68.5168C230.061 67.0246 230.336 65.408 230.469 63.4565C230.601 61.5221 230.6 59.1225 230.6 56.05H226.8ZM208.75 77.9C211.823 77.9 214.222 77.901 216.157 77.769C218.108 77.6359 219.725 77.361 221.217 76.743L219.763 73.2322C218.811 73.6265 217.656 73.8579 215.898 73.9779C214.123 74.099 211.875 74.1 208.75 74.1V77.9ZM225.932 67.0626C224.775 69.8559 222.556 72.0752 219.763 73.2322L221.217 76.743C224.941 75.2003 227.9 72.2412 229.443 68.5168L225.932 67.0626ZM208.75 1.9C211.875 1.9 214.123 1.90103 215.898 2.02214C217.656 2.14209 218.811 2.37345 219.763 2.76777L221.217 -0.742969C219.725 -1.36105 218.108 -1.63589 216.157 -1.76904C214.222 -1.90103 211.823 -1.9 208.75 -1.9V1.9ZM230.6 19.95C230.6 16.8775 230.601 14.4779 230.469 12.5435C230.336 10.592 230.061 8.97539 229.443 7.48321L225.932 8.93741C226.327 9.88939 226.558 11.0441 226.678 12.8022C226.799 14.5773 226.8 16.8255 226.8 19.95H230.6ZM219.763 2.76777C222.556 3.9248 224.775 6.14409 225.932 8.93741L229.443 7.48321C227.9 3.75879 224.941 0.799739 221.217 -0.742969L219.763 2.76777ZM20.6502 -1.9C17.5777 -1.9 15.1781 -1.90103 13.2437 -1.76904C11.2922 -1.63589 9.67558 -1.36105 8.18341 -0.742969L9.6376 2.76777C10.5896 2.37345 11.7443 2.14209 13.5024 2.02214C15.2775 1.90103 17.5257 1.9 20.6502 1.9V-1.9ZM2.6002 19.95C2.6002 16.8255 2.60122 14.5773 2.72234 12.8022C2.84229 11.0441 3.07365 9.88939 3.46797 8.93741L-0.0427735 7.48321C-0.660853 8.97539 -0.935697 10.592 -1.06885 12.5435C-1.20083 14.4779 -1.1998 16.8775 -1.1998 19.95H2.6002ZM8.18341 -0.742969C4.45898 0.799739 1.49993 3.75879 -0.0427735 7.48321L3.46797 8.93741C4.625 6.14409 6.84428 3.9248 9.6376 2.76777L8.18341 -0.742969Z" fill="white"/>
</svg>
