<svg width="34" height="40" viewBox="0 0 34 40" fill="none" xmlns="http://www.w3.org/2000/svg">
    <path d="M17.4377 28.3389C17.2447 28.669 16.7676 28.669 16.5745 28.3389L0.715876 1.22307C0.477736 0.815894 0.884127 0.335708 1.32508 0.503253L17.0061 6.46152L32.6872 0.503256C33.1281 0.335712 33.5345 0.815897 33.2964 1.22308L17.4377 28.3389Z" fill="#D64730"/>
    <ellipse rx="3.23077" ry="3.27273" transform="matrix(4.42791e-08 -1 -1 -4.3151e-08 16.364 35.5385)" fill="#D64730"/>
    <ellipse rx="3.23077" ry="3.27273" transform="matrix(4.42791e-08 -1 -1 -4.3151e-08 3.2722 35.5385)" fill="#D64730"/>
    <path d="M25.9321 35.5385C25.9321 33.6131 27.5123 32.0577 29.4548 32.0577C31.3973 32.0577 32.9775 33.6131 32.9775 35.5385C32.9775 37.4639 31.3973 39.0193 29.4548 39.0193C27.5123 39.0193 25.9321 37.4639 25.9321 35.5385Z" stroke="#8F939B" stroke-width="0.5"/>
</svg>
