<svg width="33" height="39" viewBox="0 0 33 39" fill="none" xmlns="http://www.w3.org/2000/svg">
    <path d="M17.0628 28.4854C16.8712 28.8226 16.3852 28.8226 16.1935 28.4854L0.697657 1.22639C0.464884 0.816916 0.875689 0.342124 1.31438 0.513614L16.6282 6.5L31.942 0.513616C32.3807 0.342127 32.7915 0.816923 32.5587 1.2264L17.0628 28.4854Z" fill="#D64730"/>
    <ellipse rx="3.25" ry="3.2" transform="matrix(4.30389e-08 -1 -1 -4.43944e-08 16.0002 35.75)" fill="#D64730"/>
    <ellipse rx="3.25" ry="3.2" transform="matrix(4.30389e-08 -1 -1 -4.43944e-08 3.20039 35.75)" fill="#D64730"/>
    <ellipse rx="3.25" ry="3.2" transform="matrix(4.30389e-08 -1 -1 -4.43944e-08 28.8 35.75)" fill="#D64730"/>
</svg>
