<svg width="34" height="41" viewBox="0 0 34 41" fill="none" xmlns="http://www.w3.org/2000/svg">
    <path d="M17.4403 29.0093C17.2484 29.3453 16.7639 29.3453 16.572 29.0093L0.700789 1.22586C0.467101 0.816771 0.877143 0.341056 1.31622 0.511861L17.0061 6.61544L32.6961 0.511865C33.1351 0.341061 33.5452 0.816774 33.3115 1.22586L17.4403 29.0093Z" fill="#D64730"/>
    <path d="M12.8413 36.3847C12.8413 34.4223 14.4159 32.827 16.364 32.827C18.312 32.827 19.8867 34.4223 19.8867 36.3847C19.8867 38.347 18.312 39.9424 16.364 39.9424C14.4159 39.9424 12.8413 38.347 12.8413 36.3847Z" stroke="#8F939B" stroke-width="0.5"/>
    <ellipse rx="3.30769" ry="3.27273" transform="matrix(4.32493e-08 -1 -1 -4.41784e-08 3.2722 36.3847)" fill="#D64730"/>
    <path d="M25.9321 36.3847C25.9321 34.4223 27.5068 32.827 29.4548 32.827C31.4029 32.827 32.9775 34.4223 32.9775 36.3847C32.9775 38.347 31.4029 39.9424 29.4548 39.9424C27.5068 39.9424 25.9321 38.347 25.9321 36.3847Z" stroke="#8F939B" stroke-width="0.5"/>
</svg>
