<svg width="42" height="47" viewBox="0 0 42 47" fill="none" xmlns="http://www.w3.org/2000/svg">
    <path d="M21.0247 0.755659C21.2169 0.420822 21.6999 0.420823 21.892 0.755661L41.2429 34.4748C41.4775 34.8835 41.0681 35.36 40.6287 35.1899L21.4584 27.7667L2.28807 35.1899C1.84863 35.36 1.4393 34.8835 1.67386 34.4747L21.0247 0.755659Z" fill="#1BC53C"/>
    <ellipse rx="3.96667" ry="3.94286" transform="matrix(4.3449e-08 -1 -1 -4.39753e-08 19.3726 42.9332)" fill="#1BC53C"/>
    <ellipse rx="3.96667" ry="3.94286" transform="matrix(4.3449e-08 -1 -1 -4.39753e-08 4.91457 42.9332)" fill="#1BC53C"/>
    <ellipse rx="3.96667" ry="3.94286" transform="matrix(4.3449e-08 -1 -1 -4.39753e-08 33.8277 42.9332)" fill="#1BC53C"/>
</svg>
