<svg width="50" height="41" viewBox="0 0 50 41" fill="none" xmlns="http://www.w3.org/2000/svg">
    <path d="M48.396 17.2435C48.0978 15.5532 46.2749 11.0458 45.9434 10.6812C45.6783 10.3895 43.3583 10.1177 42.2314 10.0183C27.1711 -6.31471 12.8443 3.21288 7.56351 10.0183C6.59131 10.0735 4.5077 10.2768 3.9509 10.648C3.39409 11.0192 2.2164 15.1555 1.69715 17.1773M48.7938 25.3305C49.1252 23.2756 49.0059 20.2397 48.7938 19.4973M1.33258 19.1659C1.07848 21.0108 0.802284 23.8788 1.2 25.2311M2.09488 29.0757C3.42061 32.2906 6.76145 39.0319 9.51898 40.2781L13.1647 39.6816M14.1922 39.0518L17.4071 37.6267C18.556 38.1791 21.3379 39.2838 23.2734 39.2838M47.932 29.0757C47.0703 31.694 44.3857 37.6002 40.5411 40.2781C39.591 40.1787 37.5118 39.9268 36.7959 39.7147M35.7685 39.0518L32.5536 37.5935C31.2057 38.157 27.9732 39.2838 25.8255 39.2838" stroke="#00FCFC" stroke-width="1.32573" stroke-linecap="round" stroke-linejoin="round"/>
</svg>
