<svg width="30" height="30" viewBox="0 0 30 30" fill="none" xmlns="http://www.w3.org/2000/svg">
    <path fill-rule="evenodd" clip-rule="evenodd" d="M6.99918 3.75H23.0004C24.7929 3.75 26.2504 5.3075 26.2504 7.22125V22.7787C26.2504 24.6925 24.7929 26.25 23.0004 26.25H21.2504C20.5592 26.25 20.0004 25.6912 20.0004 25C20.0004 24.3088 20.5592 23.75 21.2504 23.75H23.0004C23.4067 23.75 23.7504 23.305 23.7504 22.7787V7.22125C23.7504 6.695 23.4067 6.25 23.0004 6.25H6.99918C6.59293 6.25 6.25043 6.695 6.25043 7.22125V8.75C6.25043 9.44125 5.69043 10 5.00043 10C4.30918 10 3.75043 9.44125 3.75043 8.75V7.22125C3.75043 5.3075 5.20793 3.75 6.99918 3.75ZM3.76155 18.9626C3.66655 18.2788 4.1453 17.6476 4.82905 17.5538C6.60405 17.3113 8.33655 17.8926 9.59655 19.1513C11.2678 20.8251 11.7216 23.3876 10.7228 25.5288C10.5103 25.9826 10.0603 26.2501 9.58905 26.2501C9.41155 26.2501 9.23155 26.2126 9.06155 26.1326C8.43655 25.8413 8.1653 25.0976 8.45655 24.4713C9.0128 23.2801 8.76155 21.8513 7.82905 20.9201C7.12655 20.2188 6.15905 19.8976 5.1703 20.0288C4.47905 20.1276 3.8553 19.6463 3.76155 18.9626ZM4.8278 12.5964C4.14405 12.6914 3.66655 13.3226 3.76155 14.0064C3.85655 14.6889 4.4853 15.1676 5.17155 15.0714C7.5353 14.7489 9.85655 15.5214 11.5428 17.2064C13.4878 19.1526 14.2191 22.0051 13.4491 24.6514C13.2566 25.3139 13.6378 26.0076 14.3003 26.2001C14.4178 26.2339 14.5353 26.2501 14.6491 26.2501C15.1916 26.2501 15.6903 25.8964 15.8491 25.3489C16.8741 21.8289 15.9003 18.0314 13.3103 15.4389C11.0666 13.1951 7.9803 12.1576 4.8278 12.5964ZM3.74993 23.75C3.74993 23.0588 4.30868 22.5 4.99993 22.5C5.69118 22.5 6.24993 23.0588 6.24993 23.75C6.24993 24.4412 5.69118 25 4.99993 25C4.30868 25 3.74993 24.4412 3.74993 23.75Z" fill="#00FCFC"/>
</svg>
