<svg width="284" height="145" viewBox="0 0 284 145" fill="none" xmlns="http://www.w3.org/2000/svg">
    <g clip-path="url(#clip0)">
        <rect width="283.095" height="145" rx="4.0831" fill="#191E2C"/>
        <path d="M33.8845 28.4916C35.0445 28.8589 35.9532 29.4776 36.6105 30.3476C37.2679 31.1983 37.5965 32.2519 37.5965 33.5086C37.5965 35.2873 36.9005 36.6599 35.5085 37.6266C34.1359 38.5739 32.1252 39.0476 29.4765 39.0476H18.9785V18.7476H28.8965C31.3712 18.7476 33.2659 19.2213 34.5805 20.1686C35.9145 21.1159 36.5815 22.4016 36.5815 24.0256C36.5815 25.0116 36.3399 25.8913 35.8565 26.6646C35.3925 27.4379 34.7352 28.0469 33.8845 28.4916ZM23.6475 22.2856V27.0706H28.3165C29.4765 27.0706 30.3562 26.8676 30.9555 26.4616C31.5549 26.0556 31.8545 25.4563 31.8545 24.6636C31.8545 23.8709 31.5549 23.2813 30.9555 22.8946C30.3562 22.4886 29.4765 22.2856 28.3165 22.2856H23.6475ZM29.1285 35.5096C30.3659 35.5096 31.2939 35.3066 31.9125 34.9006C32.5505 34.4946 32.8695 33.8663 32.8695 33.0156C32.8695 31.3336 31.6225 30.4926 29.1285 30.4926H23.6475V35.5096H29.1285ZM44.4951 22.5756H37.9991V18.7476H55.6891V22.5756H49.1931V39.0476H44.4951V22.5756ZM67.0687 39.3956C65 39.3956 63.1247 38.9509 61.4427 38.0616C59.78 37.1529 58.4654 35.9059 57.4987 34.3206C56.5514 32.7159 56.0777 30.9083 56.0777 28.8976C56.0777 26.8869 56.5514 25.0889 57.4987 23.5036C58.4654 21.8989 59.78 20.6519 61.4427 19.7626C63.1247 18.8539 65.0097 18.3996 67.0977 18.3996C68.857 18.3996 70.4424 18.7089 71.8537 19.3276C73.2844 19.9463 74.483 20.8356 75.4497 21.9956L72.4337 24.7796C71.061 23.1943 69.3597 22.4016 67.3297 22.4016C66.073 22.4016 64.9517 22.6819 63.9657 23.2426C62.9797 23.7839 62.2064 24.5476 61.6457 25.5336C61.1044 26.5196 60.8337 27.6409 60.8337 28.8976C60.8337 30.1543 61.1044 31.2756 61.6457 32.2616C62.2064 33.2476 62.9797 34.0209 63.9657 34.5816C64.9517 35.1229 66.073 35.3936 67.3297 35.3936C69.3597 35.3936 71.061 34.5913 72.4337 32.9866L75.4497 35.7706C74.483 36.9499 73.2844 37.8489 71.8537 38.4676C70.423 39.0863 68.828 39.3956 67.0687 39.3956ZM86.8913 39.3956C83.9913 39.3956 81.7293 38.5933 80.1053 36.9886C78.5007 35.3839 77.6983 33.0929 77.6983 30.1156V18.7476H82.3963V29.9416C82.3963 33.5763 83.9043 35.3936 86.9203 35.3936C88.3897 35.3936 89.511 34.9586 90.2843 34.0886C91.0577 33.1993 91.4443 31.8169 91.4443 29.9416V18.7476H96.0843V30.1156C96.0843 33.0929 95.2723 35.3839 93.6483 36.9886C92.0437 38.5933 89.7913 39.3956 86.8913 39.3956ZM106.817 39.3956C105.212 39.3956 103.656 39.1829 102.148 38.7576C100.659 38.3129 99.4605 37.7426 98.5518 37.0466L100.147 33.5086C101.017 34.1466 102.051 34.6589 103.25 35.0456C104.448 35.4323 105.647 35.6256 106.846 35.6256C108.18 35.6256 109.166 35.4323 109.804 35.0456C110.442 34.6396 110.761 34.1079 110.761 33.4506C110.761 32.9673 110.567 32.5709 110.181 32.2616C109.813 31.9329 109.33 31.6719 108.731 31.4786C108.151 31.2853 107.358 31.0726 106.353 30.8406C104.806 30.4733 103.54 30.1059 102.554 29.7386C101.568 29.3713 100.717 28.7816 100.002 27.9696C99.3058 27.1576 98.9578 26.0749 98.9578 24.7216C98.9578 23.5423 99.2768 22.4789 99.9148 21.5316C100.553 20.5649 101.51 19.8013 102.786 19.2406C104.081 18.6799 105.657 18.3996 107.513 18.3996C108.808 18.3996 110.074 18.5543 111.312 18.8636C112.549 19.1729 113.632 19.6176 114.56 20.1976L113.11 23.7646C111.234 22.7013 109.359 22.1696 107.484 22.1696C106.169 22.1696 105.193 22.3823 104.555 22.8076C103.936 23.2329 103.627 23.7936 103.627 24.4896C103.627 25.1856 103.984 25.7076 104.7 26.0556C105.434 26.3843 106.546 26.7129 108.035 27.0416C109.581 27.4089 110.848 27.7763 111.834 28.1436C112.82 28.5109 113.661 29.0909 114.357 29.8836C115.072 30.6763 115.43 31.7493 115.43 33.1026C115.43 34.2626 115.101 35.3259 114.444 36.2926C113.806 37.2399 112.839 37.9939 111.544 38.5546C110.248 39.1153 108.673 39.3956 106.817 39.3956ZM118.06 18.7476H127.282C129.486 18.7476 131.429 19.1729 133.111 20.0236C134.812 20.8549 136.127 22.0343 137.055 23.5616C138.002 25.0889 138.476 26.8676 138.476 28.8976C138.476 30.9276 138.002 32.7063 137.055 34.2336C136.127 35.7609 134.812 36.9499 133.111 37.8006C131.429 38.6319 129.486 39.0476 127.282 39.0476H118.06V18.7476ZM127.05 35.1906C129.08 35.1906 130.694 34.6299 131.893 33.5086C133.111 32.3679 133.72 30.8309 133.72 28.8976C133.72 26.9643 133.111 25.4369 131.893 24.3156C130.694 23.1749 129.08 22.6046 127.05 22.6046H122.758V35.1906H127.05Z" fill="white"/>
        <path d="M278.952 140.561C278.952 141.324 278.334 141.942 277.571 141.942L236.978 141.942C236.215 141.942 235.597 141.324 235.597 140.561C235.597 139.798 236.215 139.18 236.978 139.18L277.571 139.18C278.334 139.18 278.952 139.798 278.952 140.561Z" fill="#D5CE41"/>
        <path d="M232.385 140.561C232.385 141.324 231.767 141.942 231.004 141.942L190.411 141.942C189.648 141.942 189.03 141.324 189.03 140.561C189.03 139.798 189.648 139.18 190.411 139.18L231.004 139.18C231.767 139.18 232.385 139.798 232.385 140.561Z" fill="#D5CE41"/>
        <rect x="185.818" y="141.942" width="43.3555" height="2.7619" rx="1.38095" transform="rotate(180 185.818 141.942)" fill="#D5CE41"/>
        <rect x="139.25" y="141.942" width="43.3555" height="2.7619" rx="1.38095" transform="rotate(180 139.25 141.942)" fill="#D5CE41"/>
        <rect x="92.6838" y="141.942" width="43.3555" height="2.7619" rx="1.38095" transform="rotate(180 92.6838 141.942)" fill="#D64730"/>
        <path d="M46.1174 140.561C46.1174 141.324 45.4992 141.942 44.7365 141.942L4.14289 141.942C3.38021 141.942 2.76194 141.324 2.76194 140.561C2.76194 139.798 3.38021 139.18 4.14289 139.18L44.7365 139.18C45.4992 139.18 46.1174 139.798 46.1174 140.561Z" fill="#D64730"/>
        <rect x="227.434" y="30.381" width="5.35119" height="6.90476" rx="2.6756" fill="white"/>
        <rect x="236.798" y="27.619" width="5.35119" height="9.66667" rx="2.6756" fill="white"/>
        <rect x="246.163" y="24.8572" width="5.35119" height="12.4286" rx="2.6756" fill="white"/>
        <rect x="255.527" y="22.0952" width="5.35119" height="15.1905" rx="2.6756" fill="white"/>
        <rect x="264.892" y="19.3334" width="5.35119" height="17.9524" rx="2.6756" fill="white"/>
        <path opacity="0.5" d="M48.5349 114.462V125.095H46.5601V116.118H44.312V114.462H48.5349ZM54.3203 114.462V125.095H52.3456V116.118H50.0974V114.462H54.3203ZM57.6145 119.414C57.2702 119.414 56.9765 119.297 56.7335 119.064C56.4904 118.821 56.3689 118.518 56.3689 118.153C56.3689 117.778 56.4854 117.475 56.7183 117.242C56.9613 117.009 57.2601 116.892 57.6145 116.892C57.969 116.892 58.2627 117.009 58.4956 117.242C58.7386 117.475 58.8602 117.778 58.8602 118.153C58.8602 118.518 58.7386 118.821 58.4956 119.064C58.2525 119.297 57.9589 119.414 57.6145 119.414ZM57.6145 125.201C57.2702 125.201 56.9765 125.085 56.7335 124.852C56.4904 124.609 56.3689 124.305 56.3689 123.941C56.3689 123.566 56.4854 123.262 56.7183 123.029C56.9613 122.796 57.2601 122.68 57.6145 122.68C57.969 122.68 58.2627 122.796 58.4956 123.029C58.7386 123.262 58.8602 123.566 58.8602 123.941C58.8602 124.305 58.7386 124.609 58.4956 124.852C58.2525 125.085 57.9589 125.201 57.6145 125.201ZM63.465 118.578C64.9638 118.578 66.0727 118.872 66.7917 119.459C67.5107 120.037 67.8702 120.827 67.8702 121.829C67.8702 122.467 67.7133 123.044 67.3993 123.561C67.0854 124.077 66.6145 124.487 65.9866 124.791C65.3588 125.095 64.584 125.247 63.6625 125.247C62.903 125.247 62.1688 125.141 61.4599 124.928C60.751 124.705 60.1535 124.401 59.6674 124.017L60.5029 122.482C60.8978 122.806 61.3687 123.065 61.9156 123.257C62.4726 123.439 63.0447 123.53 63.6321 123.53C64.3309 123.53 64.8777 123.389 65.2727 123.105C65.6778 122.811 65.8803 122.411 65.8803 121.905C65.8803 121.358 65.6626 120.948 65.2271 120.675C64.8018 120.391 64.0676 120.249 63.0245 120.249H60.4573L61.0042 114.462H67.2474V116.118H62.6751L62.4472 118.578H63.465ZM73.4619 118.852C74.4442 118.973 75.1936 119.308 75.7101 119.854C76.2266 120.401 76.4848 121.085 76.4848 121.905C76.4848 122.523 76.3278 123.085 76.0139 123.591C75.6999 124.098 75.224 124.503 74.586 124.806C73.9581 125.1 73.1885 125.247 72.277 125.247C71.5175 125.247 70.7833 125.141 70.0744 124.928C69.3756 124.705 68.7782 124.401 68.2819 124.017L69.1326 122.482C69.5174 122.806 69.9833 123.065 70.5301 123.257C71.0871 123.439 71.6593 123.53 72.2466 123.53C72.9454 123.53 73.4923 123.389 73.8872 123.105C74.2923 122.811 74.4948 122.417 74.4948 121.92C74.4948 121.424 74.3024 121.039 73.9176 120.766C73.5429 120.482 72.9657 120.34 72.1859 120.34H71.2137V118.989L73.629 116.118H68.7984V114.462H76.0443V115.783L73.4619 118.852Z" fill="white"/>
        <g opacity="0.5">
            <path fill-rule="evenodd" clip-rule="evenodd" d="M27.6143 111.417C22.85 111.417 18.9919 115.283 18.9919 120.048C18.9919 124.812 22.85 128.679 27.6143 128.679C32.3872 128.679 36.2538 124.812 36.2538 120.048C36.2538 115.283 32.3872 111.417 27.6143 111.417ZM27.6228 126.952C23.808 126.952 20.7181 123.863 20.7181 120.048C20.7181 116.233 23.808 113.143 27.6228 113.143C31.4377 113.143 34.5276 116.233 34.5276 120.048C34.5276 123.863 31.4377 126.952 27.6228 126.952ZM26.7598 115.732H28.0544V120.264L31.9383 122.568L31.291 123.63L26.7598 120.911V115.732Z" fill="white"/>
        </g>
        <path opacity="0.5" d="M135.186 118.579C136.684 118.579 137.793 118.872 138.512 119.46C139.231 120.037 139.591 120.827 139.591 121.829C139.591 122.467 139.434 123.045 139.12 123.561C138.806 124.077 138.335 124.488 137.707 124.791C137.079 125.095 136.305 125.247 135.383 125.247C134.623 125.247 133.889 125.141 133.18 124.928C132.471 124.705 131.874 124.402 131.388 124.017L132.223 122.482C132.618 122.807 133.089 123.065 133.636 123.257C134.193 123.439 134.765 123.531 135.353 123.531C136.051 123.531 136.598 123.389 136.993 123.105C137.398 122.812 137.601 122.412 137.601 121.905C137.601 121.358 137.383 120.948 136.948 120.675C136.522 120.391 135.788 120.249 134.745 120.249H132.178L132.725 114.462H138.968V116.118H134.396L134.168 118.579H135.186ZM155.744 116.892C156.766 116.892 157.577 117.191 158.174 117.789C158.772 118.376 159.07 119.262 159.07 120.447V125.095H157.171V120.69C157.171 119.981 157.015 119.449 156.701 119.095C156.387 118.73 155.936 118.548 155.349 118.548C154.711 118.548 154.199 118.761 153.814 119.186C153.43 119.601 153.237 120.199 153.237 120.979V125.095H151.338V120.69C151.338 119.981 151.181 119.449 150.867 119.095C150.553 118.73 150.103 118.548 149.515 118.548C148.867 118.548 148.351 118.756 147.966 119.171C147.591 119.586 147.404 120.189 147.404 120.979V125.095H145.505V116.984H147.313V118.016C147.617 117.652 147.996 117.373 148.452 117.181C148.908 116.989 149.414 116.892 149.971 116.892C150.579 116.892 151.116 117.009 151.581 117.242C152.057 117.465 152.432 117.799 152.705 118.244C153.04 117.819 153.47 117.49 153.997 117.257C154.523 117.014 155.106 116.892 155.744 116.892ZM161.497 116.984H163.396V125.095H161.497V116.984ZM162.454 115.647C162.109 115.647 161.821 115.54 161.588 115.328C161.355 115.105 161.238 114.832 161.238 114.507C161.238 114.183 161.355 113.915 161.588 113.702C161.821 113.48 162.109 113.368 162.454 113.368C162.798 113.368 163.087 113.475 163.32 113.687C163.553 113.89 163.669 114.148 163.669 114.462C163.669 114.796 163.553 115.08 163.32 115.313C163.097 115.535 162.808 115.647 162.454 115.647ZM170.49 116.892C171.513 116.892 172.334 117.191 172.951 117.789C173.569 118.386 173.878 119.272 173.878 120.447V125.095H171.979V120.69C171.979 119.981 171.812 119.449 171.478 119.095C171.144 118.73 170.668 118.548 170.05 118.548C169.351 118.548 168.799 118.761 168.394 119.186C167.989 119.601 167.787 120.204 167.787 120.994V125.095H165.888V116.984H167.695V118.032C168.009 117.657 168.404 117.373 168.88 117.181C169.356 116.989 169.893 116.892 170.49 116.892Z" fill="white"/>
        <g opacity="0.5">
            <path fill-rule="evenodd" clip-rule="evenodd" d="M115.796 126.358C115.738 126.358 115.679 126.355 115.619 126.349C114.859 126.274 114.264 125.738 114.1 124.983L111.784 114.287L109.399 119.795C109.262 120.111 108.951 120.316 108.607 120.316H106.018C105.541 120.316 105.155 119.929 105.155 119.453C105.155 118.976 105.541 118.59 106.018 118.59H108.041L110.204 113.593C110.51 112.889 111.185 112.479 111.953 112.556C112.712 112.631 113.308 113.167 113.472 113.922L115.787 124.618L118.172 119.109C118.309 118.793 118.62 118.59 118.964 118.59H121.554C122.031 118.59 122.417 118.976 122.417 119.453C122.417 119.929 122.031 120.316 121.554 120.316H119.531L117.368 125.312C117.085 125.961 116.48 126.358 115.796 126.358Z" fill="#F2F2F2"/>
        </g>
        <g opacity="0.5">
            <path fill-rule="evenodd" clip-rule="evenodd" d="M217.642 120.048L213.672 124.018L214.88 125.226L220.058 120.048L214.88 114.869L213.672 116.077L217.642 120.048ZM205.213 120.048L209.184 124.018L207.975 125.226L202.797 120.048L207.975 114.869L209.184 116.078L205.213 120.048Z" fill="white"/>
        </g>
        <path opacity="0.5" d="M233.66 114.462C234.581 114.462 235.382 114.614 236.06 114.917C236.749 115.221 237.275 115.657 237.64 116.224C238.004 116.791 238.187 117.464 238.187 118.244C238.187 119.014 238.004 119.687 237.64 120.265C237.275 120.832 236.749 121.267 236.06 121.571C235.382 121.875 234.581 122.027 233.66 122.027H231.26V125.095H229.285V114.462H233.66ZM233.569 120.356C234.43 120.356 235.083 120.173 235.528 119.809C235.974 119.444 236.197 118.923 236.197 118.244C236.197 117.566 235.974 117.044 235.528 116.68C235.083 116.315 234.43 116.133 233.569 116.133H231.26V120.356H233.569ZM243.603 125.247C242.783 125.247 241.988 125.131 241.219 124.898C240.459 124.665 239.856 124.356 239.411 123.971L240.094 122.437C240.53 122.781 241.062 123.065 241.689 123.287C242.327 123.5 242.965 123.606 243.603 123.606C244.393 123.606 244.981 123.48 245.366 123.227C245.76 122.973 245.958 122.639 245.958 122.224C245.958 121.92 245.847 121.672 245.624 121.48C245.411 121.277 245.138 121.12 244.803 121.009C244.469 120.897 244.014 120.771 243.436 120.629C242.626 120.437 241.968 120.244 241.462 120.052C240.965 119.859 240.535 119.561 240.17 119.156C239.816 118.74 239.639 118.183 239.639 117.485C239.639 116.897 239.796 116.366 240.11 115.89C240.434 115.404 240.915 115.019 241.553 114.735C242.201 114.452 242.991 114.31 243.922 114.31C244.571 114.31 245.209 114.391 245.836 114.553C246.464 114.715 247.006 114.948 247.462 115.252L246.839 116.786C246.373 116.512 245.887 116.305 245.381 116.163C244.874 116.021 244.383 115.95 243.907 115.95C243.127 115.95 242.545 116.082 242.16 116.345C241.786 116.609 241.598 116.958 241.598 117.394C241.598 117.697 241.705 117.945 241.917 118.138C242.14 118.33 242.419 118.482 242.753 118.594C243.087 118.705 243.543 118.832 244.12 118.973C244.91 119.156 245.558 119.348 246.064 119.551C246.571 119.743 247.001 120.042 247.355 120.447C247.72 120.852 247.902 121.399 247.902 122.087C247.902 122.675 247.74 123.206 247.416 123.682C247.102 124.158 246.621 124.538 245.973 124.822C245.325 125.105 244.535 125.247 243.603 125.247ZM256.757 122.634H251.44L250.392 125.095H248.357L253.142 114.462H255.086L259.886 125.095H257.82L256.757 122.634ZM256.104 121.085L254.099 116.437L252.109 121.085H256.104ZM268.196 125.095L266.023 121.981C265.932 121.991 265.796 121.996 265.613 121.996H263.213V125.095H261.238V114.462H265.613C266.535 114.462 267.335 114.614 268.013 114.917C268.702 115.221 269.229 115.657 269.593 116.224C269.958 116.791 270.14 117.464 270.14 118.244C270.14 119.044 269.943 119.733 269.548 120.31C269.163 120.887 268.606 121.318 267.877 121.601L270.322 125.095H268.196ZM268.15 118.244C268.15 117.566 267.927 117.044 267.482 116.68C267.036 116.315 266.383 116.133 265.522 116.133H263.213V120.371H265.522C266.383 120.371 267.036 120.189 267.482 119.824C267.927 119.449 268.15 118.923 268.15 118.244Z" fill="white"/>
        <path d="M197.319 85.9836C195.638 85.9836 194.007 85.7608 192.427 85.3152C190.868 84.8494 189.612 84.2519 188.66 83.5227L190.331 79.8163C191.243 80.4846 192.326 81.0214 193.582 81.4264C194.838 81.8315 196.093 82.0341 197.349 82.0341C198.747 82.0341 199.78 81.8315 200.448 81.4264C201.116 81.0011 201.451 80.4441 201.451 79.7555C201.451 79.2491 201.248 78.8339 200.843 78.5099C200.458 78.1656 199.952 77.8921 199.324 77.6896C198.716 77.4871 197.886 77.2643 196.833 77.0212C195.212 76.6364 193.886 76.2516 192.853 75.8667C191.82 75.4819 190.929 74.8642 190.179 74.0135C189.45 73.1628 189.086 72.0286 189.086 70.6108C189.086 69.3753 189.42 68.2614 190.088 67.2689C190.757 66.2562 191.759 65.4562 193.096 64.8688C194.453 64.2815 196.104 63.9878 198.048 63.9878C199.405 63.9878 200.732 64.1498 202.028 64.4739C203.324 64.7979 204.458 65.2638 205.431 65.8714L203.911 69.6083C201.947 68.4943 199.982 67.9373 198.018 67.9373C196.64 67.9373 195.617 68.1601 194.949 68.6057C194.301 69.0513 193.977 69.6386 193.977 70.3678C193.977 71.0969 194.352 71.6438 195.101 72.0084C195.871 72.3527 197.035 72.697 198.595 73.0413C200.215 73.4261 201.542 73.811 202.575 74.1958C203.608 74.5806 204.489 75.1882 205.218 76.0186C205.967 76.8491 206.342 77.9731 206.342 79.3909C206.342 80.6062 205.998 81.7201 205.309 82.7328C204.641 83.7253 203.628 84.5152 202.271 85.1025C200.914 85.6899 199.263 85.9836 197.319 85.9836ZM226.171 81.6695V85.619H209.705V64.3524H225.777V68.3019H214.596V72.9198H224.47V76.7478H214.596V81.6695H226.171ZM230.088 64.3524H235.009V81.6087H245.673V85.619H230.088V64.3524ZM248.423 64.3524H253.345V81.6087H264.008V85.619H248.423V64.3524Z" fill="#FF665A"/>
        <rect x="19.3333" y="46.9524" width="124.286" height="23.4762" rx="3.82969" fill="#D64730" fill-opacity="0.37"/>
        <path fill-rule="evenodd" clip-rule="evenodd" d="M32.7386 52.4762H43.858C44.2177 52.4762 44.5126 52.771 44.5126 53.1308V53.2026C44.5126 53.5623 44.2177 53.8571 43.858 53.8571H32.7386C32.3788 53.8571 32.084 53.5623 32.084 53.2026V53.1308C32.084 52.771 32.3788 52.4762 32.7386 52.4762ZM38.816 56.7321L38.816 62.1787C38.816 62.5384 38.5211 62.8332 38.1614 62.8332H38.0896C37.7299 62.8332 37.435 62.5384 37.435 62.1787V56.7321L36.5422 57.6249C36.2723 57.8949 35.8359 57.8949 35.5659 57.6249C35.4313 57.4903 35.3636 57.3135 35.3636 57.1367C35.3636 56.96 35.4313 56.7839 35.5659 56.6486L37.6373 54.5771C37.9073 54.3078 38.3437 54.3078 38.6137 54.5771L40.6851 56.6486C40.9551 56.9185 40.9551 57.3556 40.6851 57.6249C40.4151 57.8949 39.9787 57.8949 39.7088 57.6249L38.816 56.7321Z" fill="white"/>
        <path d="M59.3237 57.4665C60.3401 57.6322 61.1189 58.0133 61.6603 58.6099C62.2016 59.1954 62.4723 59.9246 62.4723 60.7973C62.4723 61.4712 62.2955 62.0954 61.942 62.6699C61.5884 63.2333 61.0471 63.6863 60.318 64.0288C59.5999 64.3712 58.7161 64.5425 57.6665 64.5425C56.849 64.5425 56.0425 64.4375 55.2471 64.2276C54.4627 64.0067 53.7944 63.6973 53.242 63.2996L54.286 61.2448C54.7279 61.5762 55.2361 61.8358 55.8105 62.0236C56.3961 62.2004 56.9926 62.2888 57.6003 62.2888C58.2742 62.2888 58.8044 62.1617 59.1911 61.9076C59.5778 61.6425 59.7711 61.2724 59.7711 60.7973C59.7711 59.8472 59.0475 59.3722 57.6003 59.3722H56.374V57.5991L58.7603 54.8979H53.822V52.7436H61.942V54.4836L59.3237 57.4665ZM67.5271 57.1019C69.1621 57.1019 70.3663 57.4278 71.1396 58.0796C71.924 58.7314 72.3162 59.6042 72.3162 60.6979C72.3162 61.405 72.1394 62.0512 71.7859 62.6368C71.4324 63.2112 70.8911 63.6752 70.1619 64.0288C69.4438 64.3712 68.5545 64.5425 67.4939 64.5425C66.6764 64.5425 65.8699 64.4375 65.0745 64.2276C64.2901 64.0067 63.6217 63.6973 63.0693 63.2996L64.1299 61.2448C64.5718 61.5762 65.08 61.8358 65.6545 62.0236C66.229 62.2004 66.82 62.2888 67.4276 62.2888C68.1015 62.2888 68.6318 62.1562 69.0185 61.8911C69.4052 61.6259 69.5985 61.2558 69.5985 60.7808C69.5985 60.2836 69.3941 59.908 68.9853 59.6539C68.5876 59.3998 67.8916 59.2728 66.8973 59.2728H63.9311L64.5276 52.7436H71.6036V54.8979H66.7648L66.5825 57.1019H67.5271ZM81.9913 62.1562V64.3436H73.225V62.6036L77.6993 58.3779C78.1744 57.925 78.4948 57.5383 78.6605 57.2179C78.8262 56.8865 78.909 56.5606 78.909 56.2402C78.909 55.7762 78.7489 55.4227 78.4285 55.1796C78.1191 54.9255 77.6607 54.7985 77.053 54.7985C76.5449 54.7985 76.0864 54.8979 75.6776 55.0968C75.2689 55.2846 74.9264 55.5718 74.6502 55.9585L72.6948 54.6991C73.1477 54.0252 73.7719 53.5004 74.5673 53.1248C75.3628 52.7381 76.2742 52.5448 77.3016 52.5448C78.1633 52.5448 78.9146 52.6884 79.5553 52.9756C80.2071 53.2518 80.7098 53.6495 81.0633 54.1688C81.4279 54.677 81.6102 55.2791 81.6102 55.9751C81.6102 56.6048 81.4776 57.1958 81.2125 57.7482C80.9473 58.3006 80.4336 58.9303 79.6713 59.6373L77.0033 62.1562H81.9913ZM87.1756 52.5448C88.7996 52.5448 90.0701 53.0419 90.987 54.0362C91.904 55.0194 92.3625 56.4391 92.3625 58.2951C92.3625 59.6097 92.1139 60.7366 91.6167 61.6756C91.1306 62.6147 90.4402 63.3272 89.5453 63.8133C88.6505 64.2994 87.6175 64.5425 86.4465 64.5425C85.8278 64.5425 85.2367 64.4762 84.6733 64.3436C84.1099 64.2 83.6293 64.0012 83.2316 63.7471L84.2259 61.7751C84.7893 62.1617 85.5129 62.3551 86.3967 62.3551C87.38 62.3551 88.1588 62.0678 88.7333 61.4933C89.3078 60.9078 89.6171 60.0682 89.6613 58.9745C88.9653 59.6705 88.0042 60.0185 86.7779 60.0185C86.0377 60.0185 85.3638 59.8693 84.7562 59.5711C84.1485 59.2728 83.668 58.853 83.3145 58.3116C82.9609 57.7592 82.7842 57.124 82.7842 56.4059C82.7842 55.6326 82.9775 54.9532 83.3642 54.3676C83.7508 53.7821 84.2756 53.3347 84.9385 53.0253C85.6124 52.705 86.3581 52.5448 87.1756 52.5448ZM87.3745 58.0133C87.96 58.0133 88.435 57.8532 88.7996 57.5328C89.1752 57.2013 89.363 56.7815 89.363 56.2733C89.363 55.7652 89.1807 55.3509 88.8162 55.0305C88.4626 54.7101 87.971 54.5499 87.3413 54.5499C86.7668 54.5499 86.2973 54.7046 85.9327 55.0139C85.5792 55.3232 85.4025 55.7431 85.4025 56.2733C85.4025 56.8036 85.5792 57.229 85.9327 57.5493C86.2973 57.8587 86.7779 58.0133 87.3745 58.0133ZM101.588 58.2453C102.163 58.5326 102.599 58.9082 102.897 59.3722C103.207 59.8362 103.361 60.372 103.361 60.9796C103.361 61.6977 103.157 62.3274 102.748 62.8688C102.339 63.3991 101.765 63.8133 101.025 64.1116C100.284 64.3989 99.4283 64.5425 98.4561 64.5425C97.4839 64.5425 96.6277 64.3989 95.8875 64.1116C95.1584 63.8133 94.5894 63.3991 94.1807 62.8688C93.7829 62.3274 93.5841 61.6977 93.5841 60.9796C93.5841 60.372 93.7332 59.8362 94.0315 59.3722C94.3408 58.9082 94.7772 58.5326 95.3407 58.2453C94.9098 57.9802 94.5784 57.6488 94.3464 57.2511C94.1144 56.8423 93.9984 56.3783 93.9984 55.8591C93.9984 55.1852 94.1862 54.5996 94.5618 54.1025C94.9374 53.6053 95.4622 53.2242 96.1361 52.9591C96.81 52.6829 97.5833 52.5448 98.4561 52.5448C99.3399 52.5448 100.119 52.6829 100.793 52.9591C101.478 53.2242 102.008 53.6053 102.384 54.1025C102.759 54.5996 102.947 55.1852 102.947 55.8591C102.947 56.3783 102.831 56.8423 102.599 57.2511C102.367 57.6488 102.03 57.9802 101.588 58.2453ZM98.4561 54.5168C97.9147 54.5168 97.4784 54.6493 97.1469 54.9145C96.8266 55.1686 96.6664 55.5221 96.6664 55.9751C96.6664 56.417 96.8266 56.765 97.1469 57.0191C97.4673 57.2732 97.9037 57.4002 98.4561 57.4002C99.0085 57.4002 99.4504 57.2732 99.7818 57.0191C100.113 56.765 100.279 56.417 100.279 55.9751C100.279 55.5221 100.113 55.1686 99.7818 54.9145C99.4504 54.6493 99.0085 54.5168 98.4561 54.5168ZM98.4561 62.5705C99.13 62.5705 99.6603 62.4213 100.047 62.1231C100.445 61.8137 100.644 61.405 100.644 60.8968C100.644 60.3886 100.445 59.9853 100.047 59.6871C99.6603 59.3888 99.13 59.2396 98.4561 59.2396C97.7932 59.2396 97.2685 59.3888 96.8818 59.6871C96.4951 59.9853 96.3018 60.3886 96.3018 60.8968C96.3018 61.416 96.4951 61.8248 96.8818 62.1231C97.2685 62.4213 97.7932 62.5705 98.4561 62.5705ZM106.277 64.4762C105.824 64.4762 105.442 64.3215 105.133 64.0122C104.824 63.7029 104.669 63.3162 104.669 62.8522C104.669 62.3772 104.824 61.996 105.133 61.7088C105.442 61.4105 105.824 61.2613 106.277 61.2613C106.729 61.2613 107.111 61.4105 107.42 61.7088C107.729 61.996 107.884 62.3772 107.884 62.8522C107.884 63.3162 107.729 63.7029 107.42 64.0122C107.111 64.3215 106.729 64.4762 106.277 64.4762ZM113.85 64.5425C112.889 64.5425 112.033 64.305 111.281 63.8299C110.53 63.3549 109.939 62.6699 109.508 61.7751C109.089 60.8692 108.879 59.792 108.879 58.5436C108.879 57.2952 109.089 56.2236 109.508 55.3288C109.939 54.4229 110.53 53.7324 111.281 53.2573C112.033 52.7823 112.889 52.5448 113.85 52.5448C114.811 52.5448 115.667 52.7823 116.419 53.2573C117.17 53.7324 117.755 54.4229 118.175 55.3288C118.606 56.2236 118.821 57.2952 118.821 58.5436C118.821 59.792 118.606 60.8692 118.175 61.7751C117.755 62.6699 117.17 63.3549 116.419 63.8299C115.667 64.305 114.811 64.5425 113.85 64.5425ZM113.85 62.2722C114.557 62.2722 115.109 61.9684 115.507 61.3608C115.916 60.7532 116.12 59.8141 116.12 58.5436C116.12 57.2732 115.916 56.3341 115.507 55.7265C115.109 55.1189 114.557 54.8151 113.85 54.8151C113.154 54.8151 112.602 55.1189 112.193 55.7265C111.795 56.3341 111.596 57.2732 111.596 58.5436C111.596 59.8141 111.795 60.7532 112.193 61.3608C112.602 61.9684 113.154 62.2722 113.85 62.2722Z" fill="white"/>
        <rect x="19.3333" y="75.9524" width="124.286" height="23.4762" rx="3.82969" fill="#1BC53C" fill-opacity="0.57"/>
        <path fill-rule="evenodd" clip-rule="evenodd" d="M32.7386 93.9048H43.858C44.2177 93.9048 44.5126 93.61 44.5126 93.2502V93.1784C44.5126 92.8187 44.2177 92.5238 43.858 92.5238H32.7386C32.3788 92.5238 32.084 92.8187 32.084 93.1784V93.2502C32.084 93.61 32.3788 93.9048 32.7386 93.9048ZM38.816 89.6488L38.816 84.2023C38.816 83.8425 38.5211 83.5477 38.1614 83.5477H38.0896C37.7299 83.5477 37.435 83.8425 37.435 84.2023V89.6488L36.5422 88.7561C36.2723 88.4861 35.8359 88.4861 35.5659 88.7561C35.4313 88.8907 35.3636 89.0675 35.3636 89.2442C35.3636 89.421 35.4313 89.5971 35.5659 89.7324L37.6373 91.8038C37.9073 92.0731 38.3437 92.0731 38.6137 91.8038L40.6851 89.7324C40.9551 89.4624 40.9551 89.0253 40.6851 88.7561C40.4151 88.4861 39.9787 88.4861 39.7088 88.7561L38.816 89.6488Z" fill="white"/>
        <path d="M59.3237 86.4665C60.3401 86.6322 61.1189 87.0133 61.6603 87.6099C62.2016 88.1954 62.4723 88.9246 62.4723 89.7973C62.4723 90.4712 62.2955 91.0954 61.942 91.6699C61.5884 92.2333 61.0471 92.6863 60.318 93.0288C59.5999 93.3712 58.7161 93.5425 57.6665 93.5425C56.849 93.5425 56.0425 93.4375 55.2471 93.2276C54.4627 93.0067 53.7944 92.6973 53.242 92.2996L54.286 90.2448C54.7279 90.5762 55.2361 90.8358 55.8105 91.0236C56.3961 91.2004 56.9926 91.2888 57.6003 91.2888C58.2742 91.2888 58.8044 91.1617 59.1911 90.9076C59.5778 90.6425 59.7711 90.2724 59.7711 89.7973C59.7711 88.8472 59.0475 88.3722 57.6003 88.3722H56.374V86.5991L58.7603 83.8979H53.822V81.7436H61.942V83.4836L59.3237 86.4665ZM69.2963 86.0688C70.0365 86.0688 70.7104 86.2179 71.318 86.5162C71.9257 86.8145 72.4062 87.2398 72.7598 87.7922C73.1133 88.3335 73.29 88.9632 73.29 89.6813C73.29 90.4547 73.0967 91.1341 72.71 91.7196C72.3234 92.3052 71.7931 92.7581 71.1192 93.0785C70.4563 93.3878 69.7161 93.5425 68.8986 93.5425C67.2746 93.5425 66.0041 93.0453 65.0872 92.0511C64.1702 91.0568 63.7117 89.6372 63.7117 87.7922C63.7117 86.4775 63.9603 85.3507 64.4575 84.4116C64.9546 83.4726 65.6451 82.76 66.5289 82.2739C67.4237 81.7878 68.4567 81.5448 69.6278 81.5448C70.2464 81.5448 70.8375 81.6166 71.4009 81.7602C71.9754 81.8928 72.4615 82.0861 72.8592 82.3402L71.8649 84.3122C71.2904 83.9255 70.5668 83.7322 69.694 83.7322C68.7108 83.7322 67.9319 84.0194 67.3575 84.5939C66.783 85.1684 66.4737 86.0025 66.4295 87.0962C67.1144 86.4112 68.07 86.0688 69.2963 86.0688ZM68.7495 91.5373C69.3239 91.5373 69.7879 91.3827 70.1415 91.0733C70.506 90.764 70.6883 90.3442 70.6883 89.8139C70.6883 89.2836 70.506 88.8638 70.1415 88.5545C69.7879 88.2341 69.3129 88.0739 68.7163 88.0739C68.1308 88.0739 67.6502 88.2396 67.2746 88.5711C66.899 88.8914 66.7112 89.3057 66.7112 89.8139C66.7112 90.3221 66.8935 90.7364 67.258 91.0568C67.6226 91.3772 68.1197 91.5373 68.7495 91.5373ZM78.3397 81.5448C79.9637 81.5448 81.2341 82.0419 82.1511 83.0362C83.068 84.0194 83.5265 85.4391 83.5265 87.2951C83.5265 88.6097 83.2779 89.7366 82.7808 90.6756C82.2947 91.6147 81.6042 92.3272 80.7094 92.8133C79.8145 93.2994 78.7816 93.5425 77.6105 93.5425C76.9918 93.5425 76.4008 93.4762 75.8374 93.3436C75.2739 93.2 74.7934 93.0012 74.3957 92.7471L75.3899 90.7751C75.9534 91.1617 76.677 91.3551 77.5608 91.3551C78.544 91.3551 79.3229 91.0678 79.8974 90.4933C80.4719 89.9078 80.7812 89.0682 80.8254 87.9745C80.1294 88.6705 79.1682 89.0185 77.9419 89.0185C77.2018 89.0185 76.5278 88.8693 75.9202 88.5711C75.3126 88.2728 74.832 87.853 74.4785 87.3116C74.125 86.7592 73.9482 86.124 73.9482 85.4059C73.9482 84.6326 74.1416 83.9532 74.5282 83.3676C74.9149 82.7821 75.4397 82.3347 76.1025 82.0253C76.7764 81.705 77.5221 81.5448 78.3397 81.5448ZM78.5385 87.0133C79.124 87.0133 79.5991 86.8532 79.9637 86.5328C80.3393 86.2013 80.5271 85.7815 80.5271 85.2733C80.5271 84.7652 80.3448 84.3509 79.9802 84.0305C79.6267 83.7101 79.1351 83.5499 78.5054 83.5499C77.9309 83.5499 77.4614 83.7046 77.0968 84.0139C76.7433 84.3232 76.5665 84.7431 76.5665 85.2733C76.5665 85.8036 76.7433 86.229 77.0968 86.5493C77.4614 86.8587 77.9419 87.0133 78.5385 87.0133ZM92.7521 87.2453C93.3266 87.5326 93.763 87.9082 94.0613 88.3722C94.3706 88.8362 94.5253 89.372 94.5253 89.9796C94.5253 90.6977 94.3209 91.3274 93.9121 91.8688C93.5034 92.3991 92.9289 92.8133 92.1887 93.1116C91.4485 93.3989 90.5923 93.5425 89.6201 93.5425C88.648 93.5425 87.7918 93.3989 87.0516 93.1116C86.3224 92.8133 85.7535 92.3991 85.3447 91.8688C84.947 91.3274 84.7481 90.6977 84.7481 89.9796C84.7481 89.372 84.8973 88.8362 85.1956 88.3722C85.5049 87.9082 85.9413 87.5326 86.5047 87.2453C86.0739 86.9802 85.7424 86.6488 85.5104 86.2511C85.2784 85.8423 85.1624 85.3783 85.1624 84.8591C85.1624 84.1852 85.3502 83.5996 85.7259 83.1025C86.1015 82.6053 86.6262 82.2242 87.3001 81.9591C87.974 81.6829 88.7474 81.5448 89.6201 81.5448C90.504 81.5448 91.2828 81.6829 91.9567 81.9591C92.6417 82.2242 93.172 82.6053 93.5476 83.1025C93.9232 83.5996 94.111 84.1852 94.111 84.8591C94.111 85.3783 93.995 85.8423 93.763 86.2511C93.531 86.6488 93.194 86.9802 92.7521 87.2453ZM89.6201 83.5168C89.0788 83.5168 88.6424 83.6493 88.311 83.9145C87.9906 84.1686 87.8304 84.5221 87.8304 84.9751C87.8304 85.417 87.9906 85.765 88.311 86.0191C88.6314 86.2732 89.0678 86.4002 89.6201 86.4002C90.1725 86.4002 90.6144 86.2732 90.9459 86.0191C91.2773 85.765 91.443 85.417 91.443 84.9751C91.443 84.5221 91.2773 84.1686 90.9459 83.9145C90.6144 83.6493 90.1725 83.5168 89.6201 83.5168ZM89.6201 91.5705C90.294 91.5705 90.8243 91.4213 91.211 91.1231C91.6087 90.8137 91.8076 90.405 91.8076 89.8968C91.8076 89.3886 91.6087 88.9853 91.211 88.6871C90.8243 88.3888 90.294 88.2396 89.6201 88.2396C88.9573 88.2396 88.4325 88.3888 88.0459 88.6871C87.6592 88.9853 87.4659 89.3886 87.4659 89.8968C87.4659 90.416 87.6592 90.8248 88.0459 91.1231C88.4325 91.4213 88.9573 91.5705 89.6201 91.5705ZM104.835 81.7436V83.4836L100.527 93.3436H97.6102L101.77 83.9311H97.925V85.8202H95.5387V81.7436H104.835ZM106.746 93.4762C106.293 93.4762 105.912 93.3215 105.602 93.0122C105.293 92.7029 105.138 92.3162 105.138 91.8522C105.138 91.3772 105.293 90.996 105.602 90.7088C105.912 90.4105 106.293 90.2613 106.746 90.2613C107.199 90.2613 107.58 90.4105 107.889 90.7088C108.199 90.996 108.353 91.3772 108.353 91.8522C108.353 92.3162 108.199 92.7029 107.889 93.0122C107.58 93.3215 107.199 93.4762 106.746 93.4762ZM113.774 81.7436V93.3436H111.089V83.8979H108.769V81.7436H113.774Z" fill="white"/>
        <g filter="url(#filter0_d)">
            <path d="M146.381 22.0909C146.381 19.8053 148.234 17.9524 150.519 17.9524H167.095V38.6667H150.519C148.234 38.6667 146.381 36.8138 146.381 34.5281V22.0909Z" fill="#C4C4C4" fill-opacity="0.12"/>
            <path fill-rule="evenodd" clip-rule="evenodd" d="M157.67 31.5262C157.643 31.5262 157.615 31.525 157.588 31.5221C157.233 31.4871 156.955 31.237 156.879 30.8845L155.798 25.8933L154.685 28.4638C154.621 28.6113 154.476 28.7067 154.315 28.7067H153.107C152.884 28.7067 152.704 28.5263 152.704 28.3039C152.704 28.0812 152.884 27.9012 153.107 27.9012H154.051L155.061 25.5695C155.204 25.2408 155.519 25.0495 155.877 25.0853C156.231 25.1204 156.509 25.3705 156.586 25.7229L157.666 30.7142L158.779 28.1436C158.843 27.9962 158.988 27.9012 159.149 27.9012H160.357C160.58 27.9012 160.76 28.0812 160.76 28.3039C160.76 28.5263 160.58 28.7067 160.357 28.7067H159.413L158.404 31.038C158.272 31.3413 157.99 31.5262 157.67 31.5262Z" fill="white"/>
        </g>
        <g filter="url(#filter1_d)">
            <path d="M168.453 17.9524H185.029C187.314 17.9524 189.167 19.8053 189.167 22.0909V34.5281C189.167 36.8138 187.314 38.6667 185.029 38.6667H168.453V17.9524Z" fill="#C4C4C4" fill-opacity="0.12"/>
            <path fill-rule="evenodd" clip-rule="evenodd" d="M175.928 30.9147C176.13 30.8188 176.215 30.5787 176.118 30.3779C175.531 29.1481 175.785 27.6739 176.748 26.7101C178.005 25.4539 180.049 25.4536 181.305 26.7101C182.269 27.6739 182.523 29.1481 181.935 30.3779C181.839 30.5784 181.924 30.8188 182.125 30.9147C182.325 31.0104 182.566 30.9258 182.662 30.7248C183.396 29.1877 183.08 27.3455 181.875 26.1405C180.304 24.5701 177.749 24.5701 176.179 26.1405C174.974 27.3455 174.657 29.1874 175.392 30.7251C175.488 30.9256 175.728 31.0107 175.928 30.9147ZM179.028 30.1278L180.717 31.8164C179.72 32.5629 178.337 32.5632 177.34 31.8164L179.028 30.1278ZM181.591 32.1214C181.749 31.9642 181.749 31.7093 181.591 31.5518L179.313 29.2734C179.156 29.1159 178.901 29.1162 178.743 29.2734L176.465 31.5518C176.308 31.709 176.307 31.9639 176.465 32.1214C177.878 33.5349 180.178 33.5346 181.591 32.1214Z" fill="white"/>
        </g>
        <g filter="url(#filter2_f)">
            <rect x="13.5" y="13.5" width="129" height="30" rx="4.5" stroke="#00FCFC"/>
        </g>
        <rect x="13.5" y="13.5" width="129" height="30" rx="4.5" stroke="#00FCFC"/>
    </g>
    <defs>
        <filter id="filter0_d" x="118.791" y="-4.11985" width="75.8949" height="75.8949" filterUnits="userSpaceOnUse" color-interpolation-filters="sRGB">
            <feFlood flood-opacity="0" result="BackgroundImageFix"/>
            <feColorMatrix in="SourceAlpha" type="matrix" values="0 0 0 0 0 0 0 0 0 0 0 0 0 0 0 0 0 0 127 0" result="hardAlpha"/>
            <feOffset dy="5.51806"/>
            <feGaussianBlur stdDeviation="13.7951"/>
            <feColorMatrix type="matrix" values="0 0 0 0 0 0 0 0 0 0 0 0 0 0 0 0 0 0 0.25 0"/>
            <feBlend mode="normal" in2="BackgroundImageFix" result="effect1_dropShadow"/>
            <feBlend mode="normal" in="SourceGraphic" in2="effect1_dropShadow" result="shape"/>
        </filter>
        <filter id="filter1_d" x="140.863" y="-4.11985" width="75.8949" height="75.8949" filterUnits="userSpaceOnUse" color-interpolation-filters="sRGB">
            <feFlood flood-opacity="0" result="BackgroundImageFix"/>
            <feColorMatrix in="SourceAlpha" type="matrix" values="0 0 0 0 0 0 0 0 0 0 0 0 0 0 0 0 0 0 127 0" result="hardAlpha"/>
            <feOffset dy="5.51806"/>
            <feGaussianBlur stdDeviation="13.7951"/>
            <feColorMatrix type="matrix" values="0 0 0 0 0 0 0 0 0 0 0 0 0 0 0 0 0 0 0.25 0"/>
            <feBlend mode="normal" in2="BackgroundImageFix" result="effect1_dropShadow"/>
            <feBlend mode="normal" in="SourceGraphic" in2="effect1_dropShadow" result="shape"/>
        </filter>
        <filter id="filter2_f" x="9" y="9" width="138" height="39" filterUnits="userSpaceOnUse" color-interpolation-filters="sRGB">
            <feFlood flood-opacity="0" result="BackgroundImageFix"/>
            <feBlend mode="normal" in="SourceGraphic" in2="BackgroundImageFix" result="shape"/>
            <feGaussianBlur stdDeviation="2" result="effect1_foregroundBlur"/>
        </filter>
        <clipPath id="clip0">
            <rect width="283.095" height="145" fill="white"/>
        </clipPath>
    </defs>
</svg>
