<svg width="280" height="145" viewBox="0 0 280 145" fill="none" xmlns="http://www.w3.org/2000/svg">
    <g clip-path="url(#clip0)">
        <rect width="280" height="145" rx="4.02679" fill="#191E2C"/>
        <path d="M34.2656 35.3296V39.0476H18.7644V19.0276H33.8938V22.7456H23.369V27.0928H32.664V30.6964H23.369V35.3296H34.2656ZM46.2747 39.3908C43.4147 39.3908 41.1839 38.5995 39.5823 37.017C37.9998 35.4345 37.2085 33.1751 37.2085 30.2388V19.0276H41.8417V30.0672C41.8417 33.6517 43.3289 35.444 46.3033 35.444C47.7524 35.444 48.8583 35.015 49.6209 34.157C50.3836 33.2799 50.7649 31.9167 50.7649 30.0672V19.0276H55.3409V30.2388C55.3409 33.1751 54.5401 35.4345 52.9385 37.017C51.356 38.5995 49.1347 39.3908 46.2747 39.3908ZM72.103 39.0476L68.242 33.4706H68.0132H63.9806V39.0476H59.3474V19.0276H68.0132C69.7864 19.0276 71.3212 19.3231 72.6178 19.9142C73.9334 20.5053 74.9439 21.3442 75.6494 22.431C76.3548 23.5178 76.7076 24.8048 76.7076 26.292C76.7076 27.7792 76.3453 29.0662 75.6208 30.153C74.9153 31.2207 73.9048 32.0406 72.5892 32.6126L77.0794 39.0476H72.103ZM72.0172 26.292C72.0172 25.1671 71.6549 24.3091 70.9304 23.718C70.2058 23.1079 69.1476 22.8028 67.7558 22.8028H63.9806V29.7812H67.7558C69.1476 29.7812 70.2058 29.4761 70.9304 28.866C71.6549 28.2559 72.0172 27.3979 72.0172 26.292ZM88.701 39.3908C85.841 39.3908 83.6102 38.5995 82.0086 37.017C80.4261 35.4345 79.6348 33.1751 79.6348 30.2388V19.0276H84.268V30.0672C84.268 33.6517 85.7552 35.444 88.7296 35.444C90.1787 35.444 91.2846 35.015 92.0472 34.157C92.8099 33.2799 93.1912 31.9167 93.1912 30.0672V19.0276H97.7672V30.2388C97.7672 33.1751 96.9664 35.4345 95.3648 37.017C93.7823 38.5995 91.561 39.3908 88.701 39.3908ZM108.352 39.3908C106.769 39.3908 105.234 39.1811 103.747 38.7616C102.279 38.3231 101.097 37.7606 100.201 37.0742L101.774 33.585C102.632 34.2142 103.652 34.7195 104.834 35.1008C106.016 35.4821 107.198 35.6728 108.38 35.6728C109.696 35.6728 110.668 35.4821 111.297 35.1008C111.927 34.7004 112.241 34.1761 112.241 33.5278C112.241 33.0511 112.051 32.6603 111.669 32.3552C111.307 32.0311 110.83 31.7737 110.239 31.583C109.667 31.3923 108.886 31.1826 107.894 30.9538C106.369 30.5915 105.12 30.2293 104.147 29.867C103.175 29.5047 102.336 28.9232 101.631 28.1224C100.944 27.3216 100.601 26.2539 100.601 24.9192C100.601 23.7561 100.916 22.7075 101.545 21.7732C102.174 20.8199 103.118 20.0667 104.376 19.5138C105.654 18.9609 107.208 18.6844 109.038 18.6844C110.316 18.6844 111.564 18.8369 112.785 19.142C114.005 19.4471 115.073 19.8856 115.988 20.4576L114.558 23.9754C112.708 22.9267 110.859 22.4024 109.009 22.4024C107.713 22.4024 106.75 22.6121 106.121 23.0316C105.511 23.4511 105.206 24.004 105.206 24.6904C105.206 25.3768 105.558 25.8916 106.264 26.2348C106.988 26.5589 108.085 26.8831 109.553 27.2072C111.078 27.5695 112.327 27.9317 113.299 28.294C114.272 28.6563 115.101 29.2283 115.788 30.01C116.493 30.7917 116.846 31.8499 116.846 33.1846C116.846 34.3286 116.522 35.3773 115.873 36.3306C115.244 37.2649 114.291 38.0085 113.013 38.5614C111.736 39.1143 110.182 39.3908 108.352 39.3908ZM119.44 19.0276H128.535C130.708 19.0276 132.624 19.4471 134.283 20.286C135.961 21.1059 137.258 22.2689 138.173 23.7752C139.107 25.2815 139.574 27.0356 139.574 29.0376C139.574 31.0396 139.107 32.7937 138.173 34.3C137.258 35.8063 135.961 36.9789 134.283 37.8178C132.624 38.6377 130.708 39.0476 128.535 39.0476H119.44V19.0276ZM128.306 35.2438C130.308 35.2438 131.9 34.6909 133.082 33.585C134.283 32.4601 134.884 30.9443 134.884 29.0376C134.884 27.1309 134.283 25.6247 133.082 24.5188C131.9 23.3939 130.308 22.8314 128.306 22.8314H124.073V35.2438H128.306Z" fill="white"/>
        <path d="M275.902 140.561C275.902 141.324 275.284 141.942 274.521 141.942L234.402 141.942C233.639 141.942 233.021 141.324 233.021 140.561C233.021 139.798 233.639 139.18 234.402 139.18L274.521 139.18C275.284 139.18 275.902 139.798 275.902 140.561Z" fill="#1BC53C"/>
        <path d="M229.846 140.561C229.846 141.324 229.227 141.942 228.465 141.942L188.345 141.942C187.583 141.942 186.964 141.324 186.964 140.561C186.964 139.798 187.583 139.18 188.345 139.18L228.465 139.18C229.227 139.18 229.846 139.798 229.846 140.561Z" fill="#AEE03E"/>
        <rect x="183.787" y="141.942" width="42.8815" height="2.7619" rx="1.38095" transform="rotate(180 183.787 141.942)" fill="#CDDE69"/>
        <rect x="137.729" y="141.942" width="42.8815" height="2.7619" rx="1.38095" transform="rotate(180 137.729 141.942)" fill="#D5CE41"/>
        <rect x="91.6719" y="141.942" width="42.8815" height="2.7619" rx="1.38095" transform="rotate(180 91.6719 141.942)" fill="#D64730"/>
        <path d="M45.6133 140.561C45.6133 141.324 44.995 141.942 44.2323 141.942L4.11277 141.942C3.35009 141.942 2.73182 141.324 2.73182 140.561C2.73182 139.798 3.35009 139.18 4.11277 139.18L44.2323 139.18C44.995 139.18 45.6133 139.798 45.6133 140.561Z" fill="#D64730"/>
        <rect x="224.947" y="30.381" width="5.29268" height="6.90476" rx="2.64634" fill="white"/>
        <rect x="234.209" y="27.6191" width="5.29268" height="9.66667" rx="2.64634" fill="white"/>
        <rect x="243.471" y="24.8572" width="5.29268" height="12.4286" rx="2.64634" fill="white"/>
        <rect x="252.734" y="22.0953" width="5.29268" height="15.1905" rx="2.64634" fill="white"/>
        <rect x="261.996" y="19.3334" width="5.29268" height="17.9524" rx="2.64634" fill="white"/>
        <path opacity="0.5" d="M47.8646 113.104V123.59H45.9171V114.737H43.6999V113.104H47.8646ZM53.5703 113.104V123.59H51.6227V114.737H49.4056V113.104H53.5703ZM56.819 117.988C56.4795 117.988 56.1898 117.873 55.9501 117.643C55.7104 117.403 55.5906 117.104 55.5906 116.744C55.5906 116.375 55.7054 116.075 55.9352 115.845C56.1748 115.616 56.4695 115.501 56.819 115.501C57.1686 115.501 57.4582 115.616 57.6879 115.845C57.9276 116.075 58.0475 116.375 58.0475 116.744C58.0475 117.104 57.9276 117.403 57.6879 117.643C57.4482 117.873 57.1586 117.988 56.819 117.988ZM56.819 123.695C56.4795 123.695 56.1898 123.58 55.9501 123.351C55.7104 123.111 55.5906 122.811 55.5906 122.452C55.5906 122.082 55.7054 121.783 55.9352 121.553C56.1748 121.323 56.4695 121.208 56.819 121.208C57.1686 121.208 57.4582 121.323 57.6879 121.553C57.9276 121.783 58.0475 122.082 58.0475 122.452C58.0475 122.811 57.9276 123.111 57.6879 123.351C57.4482 123.58 57.1586 123.695 56.819 123.695ZM62.5888 117.164C64.0669 117.164 65.1605 117.453 65.8696 118.033C66.5787 118.602 66.9333 119.381 66.9333 120.37C66.9333 120.999 66.7785 121.568 66.4689 122.077C66.1593 122.587 65.6949 122.991 65.0756 123.291C64.4564 123.59 63.6924 123.74 62.7836 123.74C62.0345 123.74 61.3104 123.635 60.6113 123.426C59.9122 123.206 59.323 122.906 58.8436 122.527L59.6675 121.014C60.057 121.333 60.5214 121.588 61.0607 121.778C61.61 121.958 62.1743 122.047 62.7536 122.047C63.4427 122.047 63.982 121.908 64.3715 121.628C64.771 121.338 64.9708 120.944 64.9708 120.444C64.9708 119.905 64.756 119.501 64.3266 119.231C63.9071 118.951 63.183 118.812 62.1544 118.812H59.6226L60.1619 113.104H66.3191V114.737H61.8098L61.5851 117.164H62.5888ZM72.4478 117.433C73.4166 117.553 74.1556 117.883 74.665 118.422C75.1743 118.961 75.429 119.635 75.429 120.444C75.429 121.054 75.2742 121.608 74.9646 122.107C74.655 122.607 74.1856 123.006 73.5564 123.306C72.9372 123.595 72.1781 123.74 71.2793 123.74C70.5302 123.74 69.8061 123.635 69.107 123.426C68.4179 123.206 67.8287 122.906 67.3393 122.527L68.1782 121.014C68.5577 121.333 69.0172 121.588 69.5565 121.778C70.1058 121.958 70.67 122.047 71.2493 122.047C71.9384 122.047 72.4778 121.908 72.8673 121.628C73.2667 121.338 73.4665 120.949 73.4665 120.459C73.4665 119.97 73.2767 119.591 72.8972 119.321C72.5277 119.041 71.9584 118.901 71.1894 118.901H70.2306V117.568L72.6126 114.737H67.8486V113.104H74.9946V114.407L72.4478 117.433Z" fill="white"/>
        <g opacity="0.5">
            <path fill-rule="evenodd" clip-rule="evenodd" d="M27.2339 109.88C22.5353 109.88 18.7305 113.693 18.7305 118.392C18.7305 123.09 22.5353 126.904 27.2339 126.904C31.9409 126.904 35.7543 123.09 35.7543 118.392C35.7543 113.693 31.9409 109.88 27.2339 109.88ZM27.2425 125.201C23.4802 125.201 20.4329 122.154 20.4329 118.392C20.4329 114.63 23.4802 111.582 27.2425 111.582C31.0047 111.582 34.052 114.63 34.052 118.392C34.052 122.154 31.0047 125.201 27.2425 125.201ZM26.3912 114.136H27.668V118.605L31.4983 120.878L30.86 121.925L26.3912 119.243V114.136Z" fill="white"/>
        </g>
        <path opacity="0.5" d="M133.321 117.164C134.799 117.164 135.893 117.453 136.602 118.033C137.311 118.602 137.665 119.381 137.665 120.37C137.665 120.999 137.511 121.568 137.201 122.077C136.891 122.587 136.427 122.991 135.808 123.291C135.188 123.59 134.424 123.74 133.516 123.74C132.767 123.74 132.042 123.635 131.343 123.426C130.644 123.206 130.055 122.906 129.576 122.527L130.4 121.014C130.789 121.333 131.253 121.588 131.793 121.778C132.342 121.958 132.906 122.047 133.486 122.047C134.175 122.047 134.714 121.908 135.104 121.628C135.503 121.338 135.703 120.944 135.703 120.444C135.703 119.905 135.488 119.501 135.059 119.231C134.639 118.951 133.915 118.812 132.886 118.812H130.355L130.894 113.104H137.051V114.737H132.542L132.317 117.164H133.321ZM153.595 115.501C154.604 115.501 155.403 115.795 155.992 116.385C156.582 116.964 156.876 117.838 156.876 119.006V123.59H155.004V119.246C155.004 118.547 154.849 118.023 154.539 117.673C154.23 117.313 153.785 117.134 153.206 117.134C152.577 117.134 152.072 117.343 151.693 117.763C151.313 118.172 151.123 118.762 151.123 119.531V123.59H149.251V119.246C149.251 118.547 149.096 118.023 148.786 117.673C148.477 117.313 148.032 117.134 147.453 117.134C146.814 117.134 146.305 117.338 145.925 117.748C145.556 118.157 145.371 118.752 145.371 119.531V123.59H143.498V115.591H145.281V116.609C145.581 116.25 145.955 115.975 146.404 115.785C146.854 115.596 147.353 115.501 147.903 115.501C148.502 115.501 149.031 115.616 149.491 115.845C149.96 116.065 150.329 116.395 150.599 116.834C150.929 116.415 151.353 116.09 151.873 115.86C152.392 115.621 152.966 115.501 153.595 115.501ZM159.269 115.591H161.142V123.59H159.269V115.591ZM160.213 114.272C159.873 114.272 159.589 114.167 159.359 113.958C159.129 113.738 159.014 113.468 159.014 113.149C159.014 112.829 159.129 112.564 159.359 112.355C159.589 112.135 159.873 112.025 160.213 112.025C160.553 112.025 160.837 112.13 161.067 112.34C161.297 112.54 161.411 112.794 161.411 113.104C161.411 113.433 161.297 113.713 161.067 113.943C160.847 114.162 160.563 114.272 160.213 114.272ZM168.139 115.501C169.148 115.501 169.956 115.795 170.566 116.385C171.175 116.974 171.48 117.848 171.48 119.006V123.59H169.607V119.246C169.607 118.547 169.442 118.023 169.113 117.673C168.783 117.313 168.314 117.134 167.704 117.134C167.015 117.134 166.471 117.343 166.071 117.763C165.672 118.172 165.472 118.767 165.472 119.546V123.59H163.6V115.591H165.382V116.624C165.692 116.255 166.081 115.975 166.551 115.785C167.02 115.596 167.55 115.501 168.139 115.501Z" fill="white"/>
        <g opacity="0.5">
            <path fill-rule="evenodd" clip-rule="evenodd" d="M114.199 124.615C114.142 124.615 114.084 124.612 114.025 124.606C113.276 124.532 112.689 124.004 112.527 123.259L110.243 112.711L107.891 118.143C107.756 118.455 107.449 118.656 107.11 118.656H104.556C104.086 118.656 103.705 118.275 103.705 117.805C103.705 117.334 104.086 116.954 104.556 116.954H106.551L108.685 112.026C108.987 111.332 109.652 110.928 110.409 111.003C111.158 111.077 111.745 111.606 111.907 112.351L114.191 122.899L116.543 117.466C116.678 117.155 116.985 116.954 117.324 116.954H119.878C120.348 116.954 120.729 117.334 120.729 117.805C120.729 118.275 120.348 118.656 119.878 118.656H117.883L115.749 123.583C115.471 124.224 114.874 124.615 114.199 124.615Z" fill="#F2F2F2"/>
        </g>
        <g opacity="0.5">
            <path fill-rule="evenodd" clip-rule="evenodd" d="M202.383 118.392L206.299 122.307L205.107 123.499L200 118.392L205.107 113.285L206.299 114.476L202.383 118.392ZM214.64 118.392L210.725 122.307L211.917 123.499L217.024 118.392L211.917 113.285L210.725 114.476L214.64 118.392Z" fill="white"/>
        </g>
        <path opacity="0.5" d="M230.438 113.104C231.346 113.104 232.135 113.254 232.805 113.553C233.484 113.853 234.003 114.282 234.363 114.842C234.722 115.401 234.902 116.065 234.902 116.834C234.902 117.593 234.722 118.257 234.363 118.827C234.003 119.386 233.484 119.815 232.805 120.115C232.135 120.414 231.346 120.564 230.438 120.564H228.071V123.59H226.123V113.104H230.438ZM230.348 118.916C231.197 118.916 231.841 118.737 232.28 118.377C232.72 118.018 232.939 117.503 232.939 116.834C232.939 116.165 232.72 115.651 232.28 115.291C231.841 114.931 231.197 114.752 230.348 114.752H228.071V118.916H230.348ZM240.244 123.74C239.435 123.74 238.651 123.625 237.892 123.396C237.143 123.166 236.549 122.861 236.109 122.482L236.783 120.969C237.213 121.308 237.737 121.588 238.356 121.808C238.985 122.017 239.615 122.122 240.244 122.122C241.023 122.122 241.602 121.997 241.982 121.748C242.371 121.498 242.566 121.169 242.566 120.759C242.566 120.459 242.456 120.215 242.236 120.025C242.027 119.825 241.757 119.67 241.427 119.561C241.098 119.451 240.648 119.326 240.079 119.186C239.28 118.996 238.631 118.807 238.132 118.617C237.642 118.427 237.218 118.132 236.858 117.733C236.509 117.323 236.334 116.774 236.334 116.085C236.334 115.506 236.489 114.981 236.798 114.512C237.118 114.033 237.592 113.653 238.221 113.373C238.861 113.094 239.64 112.954 240.558 112.954C241.198 112.954 241.827 113.034 242.446 113.194C243.065 113.353 243.6 113.583 244.049 113.883L243.435 115.396C242.975 115.126 242.496 114.921 241.997 114.782C241.497 114.642 241.013 114.572 240.544 114.572C239.774 114.572 239.2 114.702 238.821 114.961C238.451 115.221 238.266 115.566 238.266 115.995C238.266 116.295 238.371 116.539 238.581 116.729C238.801 116.919 239.075 117.069 239.405 117.179C239.735 117.288 240.184 117.413 240.753 117.553C241.532 117.733 242.171 117.923 242.671 118.122C243.17 118.312 243.595 118.607 243.944 119.006C244.304 119.406 244.483 119.945 244.483 120.624C244.483 121.203 244.324 121.728 244.004 122.197C243.695 122.667 243.22 123.041 242.581 123.321C241.942 123.6 241.163 123.74 240.244 123.74ZM253.216 121.164H247.973L246.939 123.59H244.932L249.651 113.104H251.568L256.302 123.59H254.265L253.216 121.164ZM252.572 119.635L250.594 115.051L248.632 119.635H252.572ZM264.497 123.59L262.355 120.519C262.265 120.529 262.13 120.534 261.95 120.534H259.583V123.59H257.636V113.104H261.95C262.859 113.104 263.648 113.254 264.317 113.553C264.996 113.853 265.516 114.282 265.875 114.842C266.235 115.401 266.415 116.065 266.415 116.834C266.415 117.623 266.22 118.302 265.83 118.871C265.451 119.441 264.901 119.865 264.182 120.145L266.594 123.59H264.497ZM264.452 116.834C264.452 116.165 264.232 115.651 263.793 115.291C263.353 114.931 262.709 114.752 261.86 114.752H259.583V118.931H261.86C262.709 118.931 263.353 118.752 263.793 118.392C264.232 118.023 264.452 117.503 264.452 116.834Z" fill="white"/>
        <path d="M195.134 85.9786C193.476 85.9786 191.868 85.7588 190.31 85.3194C188.772 84.86 187.534 84.2707 186.595 83.5516L188.243 79.8963C189.142 80.5555 190.21 81.0848 191.449 81.4843C192.687 81.8838 193.925 82.0835 195.164 82.0835C196.542 82.0835 197.561 81.8838 198.22 81.4843C198.879 81.0648 199.209 80.5155 199.209 79.8364C199.209 79.337 199.009 78.9275 198.61 78.6079C198.23 78.2684 197.731 77.9987 197.111 77.799C196.512 77.5992 195.693 77.3795 194.655 77.1398C193.057 76.7603 191.748 76.3808 190.73 76.0012C189.711 75.6217 188.832 75.0125 188.093 74.1736C187.374 73.3346 187.014 72.2161 187.014 70.8178C187.014 69.5994 187.344 68.5008 188.003 67.522C188.662 66.5233 189.651 65.7343 190.969 65.155C192.308 64.5758 193.935 64.2861 195.853 64.2861C197.191 64.2861 198.5 64.4459 199.778 64.7655C201.056 65.0851 202.175 65.5445 203.134 66.1438L201.636 69.8291C199.698 68.7305 197.761 68.1812 195.823 68.1812C194.465 68.1812 193.456 68.4009 192.797 68.8404C192.158 69.2798 191.838 69.8591 191.838 70.5781C191.838 71.2972 192.208 71.8365 192.947 72.1961C193.706 72.5357 194.854 72.8752 196.392 73.2148C197.99 73.5943 199.299 73.9738 200.317 74.3533C201.336 74.7329 202.205 75.3321 202.924 76.1511C203.663 76.97 204.033 78.0786 204.033 79.4768C204.033 80.6753 203.693 81.7739 203.014 82.7726C202.355 83.7514 201.356 84.5304 200.018 85.1097C198.679 85.6889 197.051 85.9786 195.134 85.9786ZM223.589 81.724V85.619H207.349V64.6457H223.199V68.5407H212.173V73.0949H221.911V76.8701H212.173V81.724H223.589ZM227.451 64.6457H232.304V81.664H242.821V85.619H227.451V64.6457ZM245.533 64.6457H250.387V81.664H260.904V85.619H245.533V64.6457Z" fill="#FF665A"/>
        <rect x="19.1211" y="46.9524" width="122.927" height="23.4762" rx="3.77687" fill="#D64730" fill-opacity="0.37"/>
        <path fill-rule="evenodd" clip-rule="evenodd" d="M32.3409 52.562H43.3069C43.6617 52.562 43.9525 52.8528 43.9525 53.2076V53.2784C43.9525 53.6331 43.6617 53.9239 43.3069 53.9239H32.3409C31.9861 53.9239 31.6953 53.6331 31.6953 53.2784V53.2076C31.6953 52.8528 31.9861 52.562 32.3409 52.562ZM38.3345 56.7592L38.3345 62.1306C38.3345 62.4854 38.0438 62.7762 37.689 62.7762H37.6182C37.2634 62.7762 36.9726 62.4854 36.9726 62.1306L36.9726 56.7592L36.0922 57.6396C35.8259 57.9059 35.3956 57.9059 35.1293 57.6396C34.9965 57.5069 34.9298 57.3325 34.9298 57.1582C34.9298 56.9839 34.9965 56.8102 35.1293 56.6768L37.1722 54.6339C37.4384 54.3683 37.8688 54.3683 38.135 54.6339L40.1779 56.6768C40.4441 56.943 40.4441 57.3741 40.1779 57.6396C39.9116 57.9059 39.4813 57.9059 39.215 57.6396L38.3345 56.7592Z" fill="white"/>
        <path d="M57.6281 53.0601V64.5001H54.9805V55.1847H52.6925V53.0601H57.6281ZM61.1353 61.4604C61.5929 61.4604 61.9688 61.6074 62.2629 61.9016C62.5571 62.1849 62.7042 62.5608 62.7042 63.0293C62.7042 63.2472 62.6769 63.4651 62.6225 63.683C62.568 63.9009 62.4481 64.2277 62.2629 64.6636L61.3314 67.0169H59.7134L60.4325 64.4184C60.1601 64.3095 59.9422 64.1351 59.7788 63.8954C59.6263 63.6448 59.55 63.3561 59.55 63.0293C59.55 62.5608 59.6971 62.1849 59.9913 61.9016C60.2963 61.6074 60.6777 61.4604 61.1353 61.4604ZM68.0498 53.0601V64.5001H65.4023V55.1847H63.1143V53.0601H68.0498ZM74.0575 52.864C75.6591 52.864 76.912 53.3543 77.8163 54.3349C78.7207 55.3045 79.1728 56.7046 79.1728 58.535C79.1728 59.8315 78.9277 60.9428 78.4374 61.8689C77.958 62.795 77.277 63.4978 76.3945 63.9772C75.512 64.4565 74.4933 64.6962 73.3384 64.6962C72.7283 64.6962 72.1454 64.6309 71.5897 64.5001C71.0341 64.3585 70.5601 64.1624 70.1679 63.9118L71.1485 61.967C71.7041 62.3483 72.4178 62.539 73.2894 62.539C74.2591 62.539 75.0272 62.2557 75.5937 61.6892C76.1603 61.1117 76.4653 60.2837 76.5089 59.205C75.8225 59.8914 74.8746 60.2346 73.6653 60.2346C72.9353 60.2346 72.2707 60.0876 71.6714 59.7934C71.0722 59.4992 70.5983 59.0852 70.2496 58.5513C69.901 58.0066 69.7266 57.3801 69.7266 56.6719C69.7266 55.9092 69.9173 55.2392 70.2986 54.6617C70.68 54.0843 71.1975 53.643 71.8512 53.338C72.5158 53.022 73.2512 52.864 74.0575 52.864ZM74.2536 58.2572C74.8311 58.2572 75.2995 58.0992 75.6591 57.7832C76.0295 57.4564 76.2147 57.0423 76.2147 56.5412C76.2147 56.04 76.035 55.6314 75.6754 55.3154C75.3268 54.9995 74.8419 54.8415 74.2209 54.8415C73.6544 54.8415 73.1913 54.994 72.8318 55.2991C72.4831 55.6042 72.3088 56.0182 72.3088 56.5412C72.3088 57.0641 72.4831 57.4836 72.8318 57.7996C73.1913 58.1046 73.6653 58.2572 74.2536 58.2572ZM85.3458 64.6962C84.3979 64.6962 83.5535 64.462 82.8127 63.9935C82.0718 63.525 81.4889 62.8495 81.064 61.967C80.65 61.0736 80.443 60.0113 80.443 58.7801C80.443 57.549 80.65 56.4921 81.064 55.6096C81.4889 54.7162 82.0718 54.0352 82.8127 53.5668C83.5535 53.0983 84.3979 52.864 85.3458 52.864C86.2937 52.864 87.1381 53.0983 87.879 53.5668C88.6198 54.0352 89.1973 54.7162 89.6113 55.6096C90.0362 56.4921 90.2487 57.549 90.2487 58.7801C90.2487 60.0113 90.0362 61.0736 89.6113 61.967C89.1973 62.8495 88.6198 63.525 87.879 63.9935C87.1381 64.462 86.2937 64.6962 85.3458 64.6962ZM85.3458 62.4573C86.0431 62.4573 86.5879 62.1576 86.9801 61.5584C87.3832 60.9592 87.5848 60.0331 87.5848 58.7801C87.5848 57.5272 87.3832 56.6011 86.9801 56.0018C86.5879 55.4026 86.0431 55.103 85.3458 55.103C84.6594 55.103 84.1146 55.4026 83.7115 56.0018C83.3193 56.6011 83.1232 57.5272 83.1232 58.7801C83.1232 60.0331 83.3193 60.9592 83.7115 61.5584C84.1146 62.1576 84.6594 62.4573 85.3458 62.4573ZM100.427 53.0601V54.7761L96.1779 64.5001H93.3016L97.4036 55.2174H93.6121V57.0805H91.2587V53.0601H100.427Z" fill="white"/>
        <rect x="19.1211" y="75.9524" width="122.927" height="23.4762" rx="3.77687" fill="#1BC53C" fill-opacity="0.57"/>
        <path fill-rule="evenodd" clip-rule="evenodd" d="M32.3409 93.8191H43.3069C43.6617 93.8191 43.9525 93.5283 43.9525 93.1735V93.1027C43.9525 92.748 43.6617 92.4572 43.3069 92.4572H32.3409C31.9861 92.4572 31.6953 92.748 31.6953 93.1027V93.1735C31.6953 93.5283 31.9861 93.8191 32.3409 93.8191ZM38.3345 89.6219L38.3345 84.2505C38.3345 83.8957 38.0438 83.6049 37.689 83.6049H37.6182C37.2634 83.6049 36.9726 83.8957 36.9726 84.2505L36.9726 89.6219L36.0921 88.7414C35.8259 88.4752 35.3955 88.4752 35.1293 88.7414C34.9965 88.8742 34.9298 89.0485 34.9298 89.2229C34.9298 89.3972 34.9965 89.5708 35.1293 89.7043L37.1721 91.7472C37.4384 92.0127 37.8687 92.0127 38.135 91.7472L40.1779 89.7043C40.4441 89.438 40.4441 89.007 40.1779 88.7414C39.9116 88.4752 39.4812 88.4752 39.215 88.7414L38.3345 89.6219Z" fill="white"/>
        <path d="M57.6281 82.0601V93.5001H54.9805V84.1847H52.6925V82.0601H57.6281ZM61.1353 90.4604C61.5929 90.4604 61.9688 90.6074 62.2629 90.9016C62.5571 91.1849 62.7042 91.5608 62.7042 92.0293C62.7042 92.2472 62.6769 92.4651 62.6225 92.683C62.568 92.9009 62.4481 93.2277 62.2629 93.6636L61.3314 96.0169H59.7134L60.4325 93.4184C60.1601 93.3095 59.9422 93.1351 59.7788 92.8954C59.6263 92.6448 59.55 92.3561 59.55 92.0293C59.55 91.5608 59.6971 91.1849 59.9913 90.9016C60.2963 90.6074 60.6777 90.4604 61.1353 90.4604ZM68.0498 82.0601V93.5001H65.4023V84.1847H63.1143V82.0601H68.0498ZM74.0575 81.864C75.6591 81.864 76.912 82.3543 77.8163 83.3349C78.7207 84.3045 79.1728 85.7046 79.1728 87.535C79.1728 88.8315 78.9277 89.9428 78.4374 90.8689C77.958 91.795 77.277 92.4978 76.3945 92.9772C75.512 93.4565 74.4933 93.6962 73.3384 93.6962C72.7283 93.6962 72.1454 93.6309 71.5897 93.5001C71.0341 93.3585 70.5601 93.1624 70.1679 92.9118L71.1485 90.967C71.7041 91.3483 72.4178 91.539 73.2894 91.539C74.2591 91.539 75.0272 91.2557 75.5937 90.6892C76.1603 90.1117 76.4653 89.2837 76.5089 88.205C75.8225 88.8914 74.8746 89.2346 73.6653 89.2346C72.9353 89.2346 72.2707 89.0876 71.6714 88.7934C71.0722 88.4992 70.5983 88.0852 70.2496 87.5513C69.901 87.0066 69.7266 86.3801 69.7266 85.6719C69.7266 84.9092 69.9173 84.2392 70.2986 83.6617C70.68 83.0843 71.1975 82.643 71.8512 82.338C72.5158 82.022 73.2512 81.864 74.0575 81.864ZM74.2536 87.2572C74.8311 87.2572 75.2995 87.0992 75.6591 86.7832C76.0295 86.4564 76.2147 86.0423 76.2147 85.5412C76.2147 85.04 76.035 84.6314 75.6754 84.3154C75.3268 83.9995 74.8419 83.8415 74.2209 83.8415C73.6544 83.8415 73.1913 83.994 72.8318 84.2991C72.4831 84.6042 72.3088 85.0182 72.3088 85.5412C72.3088 86.0641 72.4831 86.4836 72.8318 86.7996C73.1913 87.1046 73.6653 87.2572 74.2536 87.2572ZM84.7598 82.0601V93.5001H82.1122V84.1847H79.8242V82.0601H84.7598ZM91.1597 82.0601V93.5001H88.5121V84.1847H86.2241V82.0601H91.1597Z" fill="white"/>
        <g filter="url(#filter0_d)">
            <path d="M148.879 22.0339C148.879 19.7797 150.706 17.9524 152.96 17.9524H169.307V38.381H152.96C150.706 38.381 148.879 36.5536 148.879 34.2995V22.0339Z" fill="#C4C4C4" fill-opacity="0.12"/>
            <path fill-rule="evenodd" clip-rule="evenodd" d="M160.044 31.5263C160.018 31.5263 159.99 31.5251 159.963 31.5223C159.612 31.4872 159.337 31.2371 159.262 30.8847L158.193 25.8934L157.092 28.464C157.029 28.6114 156.885 28.7068 156.726 28.7068H155.531C155.311 28.7068 155.133 28.5264 155.133 28.3041C155.133 28.0813 155.311 27.9013 155.531 27.9013H156.465L157.463 25.5696C157.605 25.2409 157.916 25.0496 158.27 25.0855C158.621 25.1205 158.896 25.3706 158.972 25.7231L160.04 30.7143L161.141 28.1438C161.204 27.9963 161.348 27.9013 161.507 27.9013H162.702C162.922 27.9013 163.1 28.0813 163.1 28.3041C163.1 28.5264 162.922 28.7068 162.702 28.7068H161.768L160.77 31.0381C160.64 31.3414 160.36 31.5263 160.044 31.5263Z" fill="white"/>
        </g>
        <g filter="url(#filter1_d)">
            <path d="M170.738 18.0952H187.085C189.34 18.0952 191.167 19.9225 191.167 22.1767V34.4423C191.167 36.6965 189.34 38.5238 187.085 38.5238H170.738V18.0952Z" fill="#C4C4C4" fill-opacity="0.12"/>
            <path fill-rule="evenodd" clip-rule="evenodd" d="M178.104 30.915C178.304 30.819 178.387 30.5789 178.292 30.3781C177.711 29.1483 177.962 27.6741 178.915 26.7104C180.157 25.4541 182.179 25.4538 183.422 26.7104C184.375 27.6741 184.626 29.1483 184.045 30.3781C183.95 30.5786 184.034 30.819 184.232 30.915C184.431 31.0106 184.669 30.9261 184.763 30.725C185.49 29.1879 185.177 27.3458 183.985 26.1407C182.432 24.5703 179.905 24.5703 178.352 26.1407C177.16 27.3458 176.847 29.1876 177.573 30.7253C177.668 30.9258 177.905 31.0109 178.104 30.915ZM181.17 30.1278L182.84 31.8164C181.854 32.5629 180.486 32.5632 179.499 31.8164L181.17 30.1278ZM183.705 32.1214C183.86 31.9642 183.861 31.7093 183.705 31.5518L181.451 29.2734C181.295 29.1159 181.043 29.1162 180.888 29.2734L178.634 31.5518C178.479 31.709 178.479 31.9639 178.634 32.1214C180.032 33.5349 182.307 33.5346 183.705 32.1214Z" fill="white"/>
        </g>
        <g filter="url(#filter2_f)">
            <rect x="12.5" y="42.5" width="137" height="62" rx="4.5" stroke="#00FCFC"/>
        </g>
        <rect x="12.5" y="42.5" width="137" height="62" rx="4.5" stroke="#00FCFC"/>
    </g>
    <defs>
        <filter id="filter0_d" x="121.669" y="-3.8154" width="74.9073" height="75.1338" filterUnits="userSpaceOnUse" color-interpolation-filters="sRGB">
            <feFlood flood-opacity="0" result="BackgroundImageFix"/>
            <feColorMatrix in="SourceAlpha" type="matrix" values="0 0 0 0 0 0 0 0 0 0 0 0 0 0 0 0 0 0 127 0" result="hardAlpha"/>
            <feOffset dy="5.44195"/>
            <feGaussianBlur stdDeviation="13.6049"/>
            <feColorMatrix type="matrix" values="0 0 0 0 0 0 0 0 0 0 0 0 0 0 0 0 0 0 0.25 0"/>
            <feBlend mode="normal" in2="BackgroundImageFix" result="effect1_dropShadow"/>
            <feBlend mode="normal" in="SourceGraphic" in2="effect1_dropShadow" result="shape"/>
        </filter>
        <filter id="filter1_d" x="143.499" y="-3.8154" width="74.9073" height="75.1338" filterUnits="userSpaceOnUse" color-interpolation-filters="sRGB">
            <feFlood flood-opacity="0" result="BackgroundImageFix"/>
            <feColorMatrix in="SourceAlpha" type="matrix" values="0 0 0 0 0 0 0 0 0 0 0 0 0 0 0 0 0 0 127 0" result="hardAlpha"/>
            <feOffset dy="5.44195"/>
            <feGaussianBlur stdDeviation="13.6049"/>
            <feColorMatrix type="matrix" values="0 0 0 0 0 0 0 0 0 0 0 0 0 0 0 0 0 0 0.25 0"/>
            <feBlend mode="normal" in2="BackgroundImageFix" result="effect1_dropShadow"/>
            <feBlend mode="normal" in="SourceGraphic" in2="effect1_dropShadow" result="shape"/>
        </filter>
        <filter id="filter2_f" x="8" y="38" width="146" height="71" filterUnits="userSpaceOnUse" color-interpolation-filters="sRGB">
            <feFlood flood-opacity="0" result="BackgroundImageFix"/>
            <feBlend mode="normal" in="SourceGraphic" in2="BackgroundImageFix" result="shape"/>
            <feGaussianBlur stdDeviation="2" result="effect1_foregroundBlur"/>
        </filter>
        <clipPath id="clip0">
            <rect width="280" height="145" fill="white"/>
        </clipPath>
    </defs>
</svg>
