<svg width="280" height="145" viewBox="0 0 280 145" fill="none" xmlns="http://www.w3.org/2000/svg">
    <g clip-path="url(#clip0)">
        <rect width="280" height="145" rx="4.02679" fill="#191E2C"/>
        <path d="M34.2651 35.3296V39.0476H18.7639V19.0276H33.8933V22.7456H23.3685V27.0928H32.6635V30.6964H23.3685V35.3296H34.2651ZM46.2742 39.3908C43.4142 39.3908 41.1834 38.5995 39.5818 37.017C37.9993 35.4345 37.208 33.1751 37.208 30.2388V19.0276H41.8412V30.0672C41.8412 33.6517 43.3284 35.444 46.3028 35.444C47.7519 35.444 48.8578 35.015 49.6204 34.157C50.3831 33.2799 50.7644 31.9167 50.7644 30.0672V19.0276H55.3404V30.2388C55.3404 33.1751 54.5396 35.4345 52.938 37.017C51.3555 38.5995 49.1342 39.3908 46.2742 39.3908ZM72.1025 39.0476L68.2415 33.4706H68.0127H63.9801V39.0476H59.3469V19.0276H68.0127C69.7859 19.0276 71.3208 19.3231 72.6173 19.9142C73.9329 20.5053 74.9434 21.3442 75.6489 22.431C76.3544 23.5178 76.7071 24.8048 76.7071 26.292C76.7071 27.7792 76.3448 29.0662 75.6203 30.153C74.9148 31.2207 73.9043 32.0406 72.5887 32.6126L77.0789 39.0476H72.1025ZM72.0167 26.292C72.0167 25.1671 71.6544 24.3091 70.9299 23.718C70.2054 23.1079 69.1472 22.8028 67.7553 22.8028H63.9801V29.7812H67.7553C69.1472 29.7812 70.2054 29.4761 70.9299 28.866C71.6544 28.2559 72.0167 27.3979 72.0167 26.292ZM88.7005 39.3908C85.8405 39.3908 83.6097 38.5995 82.0081 37.017C80.4256 35.4345 79.6343 33.1751 79.6343 30.2388V19.0276H84.2675V30.0672C84.2675 33.6517 85.7547 35.444 88.7291 35.444C90.1782 35.444 91.2841 35.015 92.0467 34.157C92.8094 33.2799 93.1907 31.9167 93.1907 30.0672V19.0276H97.7667V30.2388C97.7667 33.1751 96.9659 35.4345 95.3643 37.017C93.7818 38.5995 91.5605 39.3908 88.7005 39.3908ZM108.351 39.3908C106.769 39.3908 105.234 39.1811 103.747 38.7616C102.278 38.3231 101.096 37.7606 100.2 37.0742L101.773 33.585C102.631 34.2142 103.651 34.7195 104.833 35.1008C106.016 35.4821 107.198 35.6728 108.38 35.6728C109.695 35.6728 110.668 35.4821 111.297 35.1008C111.926 34.7004 112.241 34.1761 112.241 33.5278C112.241 33.0511 112.05 32.6603 111.669 32.3552C111.307 32.0311 110.83 31.7737 110.239 31.583C109.667 31.3923 108.885 31.1826 107.894 30.9538C106.368 30.5915 105.119 30.2293 104.147 29.867C103.175 29.5047 102.336 28.9232 101.63 28.1224C100.944 27.3216 100.601 26.2539 100.601 24.9192C100.601 23.7561 100.915 22.7075 101.544 21.7732C102.174 20.8199 103.117 20.0667 104.376 19.5138C105.653 18.9609 107.207 18.6844 109.038 18.6844C110.315 18.6844 111.564 18.8369 112.784 19.142C114.004 19.4471 115.072 19.8856 115.987 20.4576L114.557 23.9754C112.708 22.9267 110.858 22.4024 109.009 22.4024C107.712 22.4024 106.75 22.6121 106.12 23.0316C105.51 23.4511 105.205 24.004 105.205 24.6904C105.205 25.3768 105.558 25.8916 106.263 26.2348C106.988 26.5589 108.084 26.8831 109.552 27.2072C111.078 27.5695 112.327 27.9317 113.299 28.294C114.271 28.6563 115.101 29.2283 115.787 30.01C116.493 30.7917 116.845 31.8499 116.845 33.1846C116.845 34.3286 116.521 35.3773 115.873 36.3306C115.244 37.2649 114.29 38.0085 113.013 38.5614C111.736 39.1143 110.182 39.3908 108.351 39.3908ZM119.439 19.0276H128.534C130.708 19.0276 132.624 19.4471 134.283 20.286C135.961 21.1059 137.257 22.2689 138.172 23.7752C139.107 25.2815 139.574 27.0356 139.574 29.0376C139.574 31.0396 139.107 32.7937 138.172 34.3C137.257 35.8063 135.961 36.9789 134.283 37.8178C132.624 38.6377 130.708 39.0476 128.534 39.0476H119.439V19.0276ZM128.305 35.2438C130.307 35.2438 131.899 34.6909 133.081 33.585C134.283 32.4601 134.883 30.9443 134.883 29.0376C134.883 27.1309 134.283 25.6247 133.081 24.5188C131.899 23.3939 130.307 22.8314 128.305 22.8314H124.072V35.2438H128.305Z" fill="white"/>
        <path d="M275.902 140.561C275.902 141.324 275.284 141.942 274.521 141.942L234.402 141.942C233.639 141.942 233.021 141.324 233.021 140.561C233.021 139.798 233.639 139.18 234.402 139.18L274.521 139.18C275.284 139.18 275.902 139.798 275.902 140.561Z" fill="#1BC53C"/>
        <path d="M229.845 140.561C229.845 141.324 229.226 141.942 228.464 141.942L188.344 141.942C187.582 141.942 186.963 141.324 186.963 140.561C186.963 139.798 187.582 139.18 188.344 139.18L228.464 139.18C229.226 139.18 229.845 139.798 229.845 140.561Z" fill="#AEE03E"/>
        <rect x="183.787" y="141.942" width="42.8815" height="2.7619" rx="1.38095" transform="rotate(180 183.787 141.942)" fill="#CDDE69"/>
        <rect x="137.729" y="141.942" width="42.8815" height="2.7619" rx="1.38095" transform="rotate(180 137.729 141.942)" fill="#D5CE41"/>
        <rect x="91.6709" y="141.942" width="42.8815" height="2.7619" rx="1.38095" transform="rotate(180 91.6709 141.942)" fill="#D64730"/>
        <path d="M45.6133 140.561C45.6133 141.324 44.995 141.942 44.2323 141.942L4.11277 141.942C3.35009 141.942 2.73182 141.324 2.73182 140.561C2.73182 139.798 3.35009 139.18 4.11277 139.18L44.2323 139.18C44.995 139.18 45.6133 139.798 45.6133 140.561Z" fill="#D64730"/>
        <rect x="224.947" y="30.381" width="5.29268" height="6.90476" rx="2.64634" fill="white"/>
        <rect x="234.209" y="27.6191" width="5.29268" height="9.66667" rx="2.64634" fill="white"/>
        <rect x="243.472" y="24.8572" width="5.29268" height="12.4286" rx="2.64634" fill="white"/>
        <rect x="252.734" y="22.0953" width="5.29268" height="15.1905" rx="2.64634" fill="white"/>
        <rect x="261.996" y="19.3334" width="5.29268" height="17.9524" rx="2.64634" fill="white"/>
        <path opacity="0.5" d="M47.8656 113.104V123.59H45.9181V114.737H43.7009V113.104H47.8656ZM53.5712 113.104V123.59H51.6237V114.737H49.4065V113.104H53.5712ZM56.82 117.988C56.4804 117.988 56.1908 117.873 55.9511 117.643C55.7114 117.403 55.5916 117.104 55.5916 116.744C55.5916 116.375 55.7064 116.075 55.9361 115.845C56.1758 115.616 56.4704 115.501 56.82 115.501C57.1696 115.501 57.4592 115.616 57.6889 115.845C57.9286 116.075 58.0484 116.375 58.0484 116.744C58.0484 117.104 57.9286 117.403 57.6889 117.643C57.4492 117.873 57.1596 117.988 56.82 117.988ZM56.82 123.695C56.4804 123.695 56.1908 123.58 55.9511 123.351C55.7114 123.111 55.5916 122.811 55.5916 122.452C55.5916 122.082 55.7064 121.783 55.9361 121.553C56.1758 121.323 56.4704 121.208 56.82 121.208C57.1696 121.208 57.4592 121.323 57.6889 121.553C57.9286 121.783 58.0484 122.082 58.0484 122.452C58.0484 122.811 57.9286 123.111 57.6889 123.351C57.4492 123.58 57.1596 123.695 56.82 123.695ZM62.5898 117.164C64.0679 117.164 65.1615 117.453 65.8706 118.033C66.5797 118.602 66.9343 119.381 66.9343 120.37C66.9343 120.999 66.7794 121.568 66.4698 122.077C66.1602 122.587 65.6958 122.991 65.0766 123.291C64.4574 123.59 63.6934 123.74 62.7845 123.74C62.0355 123.74 61.3114 123.635 60.6123 123.426C59.9132 123.206 59.3239 122.906 58.8445 122.527L59.6685 121.014C60.058 121.333 60.5224 121.588 61.0617 121.778C61.611 121.958 62.1753 122.047 62.7546 122.047C63.4437 122.047 63.983 121.908 64.3725 121.628C64.772 121.338 64.9717 120.944 64.9717 120.444C64.9717 119.905 64.757 119.501 64.3276 119.231C63.9081 118.951 63.184 118.812 62.1553 118.812H59.6235L60.1629 113.104H66.32V114.737H61.8108L61.5861 117.164H62.5898ZM72.4488 117.433C73.4175 117.553 74.1566 117.883 74.6659 118.422C75.1753 118.961 75.43 119.635 75.43 120.444C75.43 121.054 75.2752 121.608 74.9656 122.107C74.656 122.607 74.1866 123.006 73.5574 123.306C72.9381 123.595 72.1791 123.74 71.2803 123.74C70.5312 123.74 69.8071 123.635 69.108 123.426C68.4189 123.206 67.8296 122.906 67.3403 122.527L68.1792 121.014C68.5587 121.333 69.0181 121.588 69.5574 121.778C70.1067 121.958 70.671 122.047 71.2503 122.047C71.9394 122.047 72.4787 121.908 72.8682 121.628C73.2677 121.338 73.4675 120.949 73.4675 120.459C73.4675 119.97 73.2777 119.591 72.8982 119.321C72.5287 119.041 71.9594 118.901 71.1904 118.901H70.2316V117.568L72.6136 114.737H67.8496V113.104H74.9955V114.407L72.4488 117.433Z" fill="white"/>
        <g opacity="0.5">
            <path fill-rule="evenodd" clip-rule="evenodd" d="M27.2339 109.88C22.5353 109.88 18.7305 113.693 18.7305 118.392C18.7305 123.09 22.5353 126.904 27.2339 126.904C31.9409 126.904 35.7543 123.09 35.7543 118.392C35.7543 113.693 31.9409 109.88 27.2339 109.88ZM27.2425 125.201C23.4802 125.201 20.4329 122.154 20.4329 118.392C20.4329 114.63 23.4802 111.582 27.2425 111.582C31.0047 111.582 34.052 114.63 34.052 118.392C34.052 122.154 31.0047 125.201 27.2425 125.201ZM26.3912 114.136H27.668V118.605L31.4983 120.878L30.86 121.925L26.3912 119.243V114.136Z" fill="white"/>
        </g>
        <path opacity="0.5" d="M133.321 117.164C134.799 117.164 135.893 117.453 136.602 118.033C137.311 118.602 137.666 119.381 137.666 120.37C137.666 120.999 137.511 121.568 137.201 122.077C136.892 122.587 136.427 122.991 135.808 123.291C135.189 123.59 134.425 123.74 133.516 123.74C132.767 123.74 132.043 123.635 131.344 123.426C130.645 123.206 130.055 122.906 129.576 122.527L130.4 121.014C130.79 121.333 131.254 121.588 131.793 121.778C132.343 121.958 132.907 122.047 133.486 122.047C134.175 122.047 134.715 121.908 135.104 121.628C135.504 121.338 135.703 120.944 135.703 120.444C135.703 119.905 135.489 119.501 135.059 119.231C134.64 118.951 133.916 118.812 132.887 118.812H130.355L130.894 113.104H137.052V114.737H132.542L132.318 117.164H133.321ZM153.596 115.501C154.605 115.501 155.404 115.795 155.993 116.385C156.582 116.964 156.877 117.838 156.877 119.006V123.59H155.004V119.246C155.004 118.547 154.849 118.023 154.54 117.673C154.23 117.313 153.786 117.134 153.206 117.134C152.577 117.134 152.073 117.343 151.693 117.763C151.314 118.172 151.124 118.762 151.124 119.531V123.59H149.251V119.246C149.251 118.547 149.097 118.023 148.787 117.673C148.477 117.313 148.033 117.134 147.454 117.134C146.814 117.134 146.305 117.338 145.926 117.748C145.556 118.157 145.371 118.752 145.371 119.531V123.59H143.499V115.591H145.281V116.609C145.581 116.25 145.956 115.975 146.405 115.785C146.854 115.596 147.354 115.501 147.903 115.501C148.502 115.501 149.032 115.616 149.491 115.845C149.96 116.065 150.33 116.395 150.6 116.834C150.929 116.415 151.354 116.09 151.873 115.86C152.392 115.621 152.967 115.501 153.596 115.501ZM159.27 115.591H161.142V123.59H159.27V115.591ZM160.213 114.272C159.874 114.272 159.589 114.167 159.36 113.958C159.13 113.738 159.015 113.468 159.015 113.149C159.015 112.829 159.13 112.564 159.36 112.355C159.589 112.135 159.874 112.025 160.213 112.025C160.553 112.025 160.838 112.13 161.067 112.34C161.297 112.54 161.412 112.794 161.412 113.104C161.412 113.433 161.297 113.713 161.067 113.943C160.848 114.162 160.563 114.272 160.213 114.272ZM168.139 115.501C169.148 115.501 169.957 115.795 170.566 116.385C171.175 116.974 171.48 117.848 171.48 119.006V123.59H169.607V119.246C169.607 118.547 169.443 118.023 169.113 117.673C168.783 117.313 168.314 117.134 167.705 117.134C167.016 117.134 166.471 117.343 166.072 117.763C165.672 118.172 165.473 118.767 165.473 119.546V123.59H163.6V115.591H165.383V116.624C165.692 116.255 166.082 115.975 166.551 115.785C167.021 115.596 167.55 115.501 168.139 115.501Z" fill="white"/>
        <g opacity="0.5">
            <path fill-rule="evenodd" clip-rule="evenodd" d="M114.199 124.615C114.142 124.615 114.084 124.612 114.025 124.606C113.276 124.532 112.689 124.004 112.527 123.259L110.243 112.711L107.891 118.143C107.756 118.455 107.449 118.656 107.11 118.656H104.556C104.086 118.656 103.705 118.275 103.705 117.805C103.705 117.334 104.086 116.954 104.556 116.954H106.551L108.685 112.026C108.987 111.332 109.652 110.928 110.409 111.003C111.158 111.077 111.745 111.606 111.907 112.351L114.191 122.899L116.543 117.466C116.678 117.155 116.985 116.954 117.324 116.954H119.878C120.348 116.954 120.729 117.334 120.729 117.805C120.729 118.275 120.348 118.656 119.878 118.656H117.883L115.749 123.583C115.471 124.224 114.874 124.615 114.199 124.615Z" fill="#F2F2F2"/>
        </g>
        <g opacity="0.5">
            <path fill-rule="evenodd" clip-rule="evenodd" d="M202.383 118.392L206.298 122.307L205.107 123.499L200 118.392L205.107 113.285L206.298 114.476L202.383 118.392ZM214.64 118.392L210.725 122.307L211.916 123.499L217.023 118.392L211.916 113.285L210.725 114.476L214.64 118.392Z" fill="white"/>
        </g>
        <path opacity="0.5" d="M230.437 113.104C231.346 113.104 232.135 113.254 232.804 113.553C233.483 113.853 234.003 114.282 234.362 114.842C234.722 115.401 234.901 116.065 234.901 116.834C234.901 117.593 234.722 118.257 234.362 118.827C234.003 119.386 233.483 119.815 232.804 120.115C232.135 120.414 231.346 120.564 230.437 120.564H228.07V123.59H226.123V113.104H230.437ZM230.347 118.916C231.196 118.916 231.84 118.737 232.28 118.377C232.719 118.018 232.939 117.503 232.939 116.834C232.939 116.165 232.719 115.651 232.28 115.291C231.84 114.931 231.196 114.752 230.347 114.752H228.07V118.916H230.347ZM240.243 123.74C239.434 123.74 238.65 123.625 237.891 123.396C237.142 123.166 236.548 122.861 236.109 122.482L236.783 120.969C237.212 121.308 237.737 121.588 238.356 121.808C238.985 122.017 239.614 122.122 240.243 122.122C241.022 122.122 241.602 121.997 241.981 121.748C242.371 121.498 242.565 121.169 242.565 120.759C242.565 120.459 242.456 120.215 242.236 120.025C242.026 119.825 241.756 119.67 241.427 119.561C241.097 119.451 240.648 119.326 240.079 119.186C239.28 118.996 238.63 118.807 238.131 118.617C237.642 118.427 237.217 118.132 236.858 117.733C236.508 117.323 236.333 116.774 236.333 116.085C236.333 115.506 236.488 114.981 236.798 114.512C237.117 114.033 237.592 113.653 238.221 113.373C238.86 113.094 239.639 112.954 240.558 112.954C241.197 112.954 241.826 113.034 242.446 113.194C243.065 113.353 243.599 113.583 244.049 113.883L243.434 115.396C242.975 115.126 242.496 114.921 241.996 114.782C241.497 114.642 241.012 114.572 240.543 114.572C239.774 114.572 239.2 114.702 238.82 114.961C238.451 115.221 238.266 115.566 238.266 115.995C238.266 116.295 238.371 116.539 238.581 116.729C238.8 116.919 239.075 117.069 239.404 117.179C239.734 117.288 240.183 117.413 240.753 117.553C241.532 117.733 242.171 117.923 242.67 118.122C243.17 118.312 243.594 118.607 243.944 119.006C244.303 119.406 244.483 119.945 244.483 120.624C244.483 121.203 244.323 121.728 244.004 122.197C243.694 122.667 243.22 123.041 242.58 123.321C241.941 123.6 241.162 123.74 240.243 123.74ZM253.216 121.164H247.972L246.938 123.59H244.931L249.65 113.104H251.568L256.302 123.59H254.264L253.216 121.164ZM252.571 119.635L250.594 115.051L248.631 119.635H252.571ZM264.497 123.59L262.354 120.519C262.264 120.529 262.13 120.534 261.95 120.534H259.583V123.59H257.635V113.104H261.95C262.859 113.104 263.648 113.254 264.317 113.553C264.996 113.853 265.515 114.282 265.875 114.842C266.234 115.401 266.414 116.065 266.414 116.834C266.414 117.623 266.219 118.302 265.83 118.871C265.45 119.441 264.901 119.865 264.182 120.145L266.594 123.59H264.497ZM264.452 116.834C264.452 116.165 264.232 115.651 263.792 115.291C263.353 114.931 262.709 114.752 261.86 114.752H259.583V118.931H261.86C262.709 118.931 263.353 118.752 263.792 118.392C264.232 118.023 264.452 117.503 264.452 116.834Z" fill="white"/>
        <path d="M195.134 85.9786C193.476 85.9786 191.868 85.7588 190.31 85.3194C188.772 84.86 187.534 84.2707 186.595 83.5516L188.243 79.8963C189.142 80.5555 190.21 81.0848 191.449 81.4843C192.687 81.8838 193.925 82.0835 195.164 82.0835C196.542 82.0835 197.561 81.8838 198.22 81.4843C198.879 81.0648 199.209 80.5155 199.209 79.8364C199.209 79.337 199.009 78.9275 198.61 78.6079C198.23 78.2684 197.731 77.9987 197.111 77.799C196.512 77.5992 195.693 77.3795 194.655 77.1398C193.057 76.7603 191.748 76.3808 190.73 76.0012C189.711 75.6217 188.832 75.0125 188.093 74.1736C187.374 73.3346 187.014 72.2161 187.014 70.8178C187.014 69.5994 187.344 68.5008 188.003 67.522C188.662 66.5233 189.651 65.7343 190.969 65.155C192.308 64.5758 193.935 64.2861 195.853 64.2861C197.191 64.2861 198.5 64.4459 199.778 64.7655C201.056 65.0851 202.175 65.5445 203.134 66.1438L201.636 69.8291C199.698 68.7305 197.761 68.1812 195.823 68.1812C194.465 68.1812 193.456 68.4009 192.797 68.8404C192.158 69.2798 191.838 69.8591 191.838 70.5781C191.838 71.2972 192.208 71.8365 192.947 72.1961C193.706 72.5357 194.854 72.8752 196.392 73.2148C197.99 73.5943 199.299 73.9738 200.317 74.3533C201.336 74.7329 202.205 75.3321 202.924 76.1511C203.663 76.97 204.033 78.0786 204.033 79.4768C204.033 80.6753 203.693 81.7739 203.014 82.7726C202.355 83.7514 201.356 84.5304 200.018 85.1097C198.679 85.6889 197.051 85.9786 195.134 85.9786ZM223.589 81.724V85.619H207.349V64.6457H223.199V68.5407H212.173V73.0949H221.911V76.8701H212.173V81.724H223.589ZM227.451 64.6457H232.304V81.664H242.821V85.619H227.451V64.6457ZM245.533 64.6457H250.387V81.664H260.904V85.619H245.533V64.6457Z" fill="#FF665A"/>
        <rect x="19.1221" y="46.9524" width="122.927" height="23.4762" rx="3.77687" fill="#D64730" fill-opacity="0.37"/>
        <path fill-rule="evenodd" clip-rule="evenodd" d="M32.3428 52.562H43.3089C43.6636 52.562 43.9544 52.8528 43.9544 53.2076V53.2784C43.9544 53.6331 43.6636 53.9239 43.3089 53.9239H32.3428C31.988 53.9239 31.6973 53.6331 31.6973 53.2784V53.2076C31.6973 52.8528 31.988 52.562 32.3428 52.562ZM38.3365 56.7592L38.3365 62.1306C38.3365 62.4854 38.0457 62.7762 37.691 62.7762H37.6201C37.2654 62.7762 36.9746 62.4854 36.9746 62.1306L36.9746 56.7592L36.0941 57.6396C35.8279 57.9059 35.3975 57.9059 35.1313 57.6396C34.9985 57.5069 34.9317 57.3325 34.9317 57.1582C34.9317 56.9839 34.9985 56.8102 35.1313 56.6768L37.1741 54.6339C37.4404 54.3683 37.8707 54.3683 38.137 54.6339L40.1798 56.6768C40.4461 56.943 40.4461 57.3741 40.1798 57.6396C39.9136 57.9059 39.4832 57.9059 39.217 57.6396L38.3365 56.7592Z" fill="white"/>
        <path d="M57.6295 53.0601V64.5001H54.982V55.1847H52.694V53.0601H57.6295ZM61.1367 61.4604C61.5943 61.4604 61.9702 61.6074 62.2644 61.9016C62.5586 62.1849 62.7057 62.5608 62.7057 63.0293C62.7057 63.2472 62.6784 63.4651 62.6239 63.683C62.5695 63.9009 62.4496 64.2277 62.2644 64.6636L61.3328 67.0169H59.7149L60.434 64.4184C60.1616 64.3095 59.9437 64.1351 59.7803 63.8954C59.6277 63.6448 59.5515 63.3561 59.5515 63.0293C59.5515 62.5608 59.6986 62.1849 59.9927 61.9016C60.2978 61.6074 60.6791 61.4604 61.1367 61.4604ZM68.0513 53.0601V64.5001H65.4038V55.1847H63.1158V53.0601H68.0513ZM74.059 52.864C75.6606 52.864 76.9135 53.3543 77.8178 54.3349C78.7221 55.3045 79.1743 56.7046 79.1743 58.535C79.1743 59.8315 78.9291 60.9428 78.4388 61.8689C77.9595 62.795 77.2785 63.4978 76.396 63.9772C75.5135 64.4565 74.4948 64.6962 73.3399 64.6962C72.7297 64.6962 72.1468 64.6309 71.5912 64.5001C71.0355 64.3585 70.5616 64.1624 70.1694 63.9118L71.1499 61.967C71.7056 62.3483 72.4192 62.539 73.2908 62.539C74.2605 62.539 75.0286 62.2557 75.5952 61.6892C76.1617 61.1117 76.4668 60.2837 76.5104 59.205C75.824 59.8914 74.8761 60.2346 73.6667 60.2346C72.9367 60.2346 72.2721 60.0876 71.6729 59.7934C71.0737 59.4992 70.5997 59.0852 70.2511 58.5513C69.9024 58.0066 69.7281 57.3801 69.7281 56.6719C69.7281 55.9092 69.9188 55.2392 70.3001 54.6617C70.6814 54.0843 71.199 53.643 71.8527 53.338C72.5173 53.022 73.2527 52.864 74.059 52.864ZM74.2551 58.2572C74.8325 58.2572 75.301 58.0992 75.6606 57.7832C76.031 57.4564 76.2162 57.0423 76.2162 56.5412C76.2162 56.04 76.0364 55.6314 75.6769 55.3154C75.3283 54.9995 74.8434 54.8415 74.2224 54.8415C73.6558 54.8415 73.1928 54.994 72.8332 55.2991C72.4846 55.6042 72.3103 56.0182 72.3103 56.5412C72.3103 57.0641 72.4846 57.4836 72.8332 57.7996C73.1928 58.1046 73.6667 58.2572 74.2551 58.2572ZM85.3473 64.6962C84.3994 64.6962 83.555 64.462 82.8141 63.9935C82.0733 63.525 81.4904 62.8495 81.0654 61.967C80.6514 61.0736 80.4444 60.0113 80.4444 58.7801C80.4444 57.549 80.6514 56.4921 81.0654 55.6096C81.4904 54.7162 82.0733 54.0352 82.8141 53.5668C83.555 53.0983 84.3994 52.864 85.3473 52.864C86.2952 52.864 87.1395 53.0983 87.8804 53.5668C88.6213 54.0352 89.1987 54.7162 89.6128 55.6096C90.0377 56.4921 90.2501 57.549 90.2501 58.7801C90.2501 60.0113 90.0377 61.0736 89.6128 61.967C89.1987 62.8495 88.6213 63.525 87.8804 63.9935C87.1395 64.462 86.2952 64.6962 85.3473 64.6962ZM85.3473 62.4573C86.0446 62.4573 86.5893 62.1576 86.9816 61.5584C87.3847 60.9592 87.5862 60.0331 87.5862 58.7801C87.5862 57.5272 87.3847 56.6011 86.9816 56.0018C86.5893 55.4026 86.0446 55.103 85.3473 55.103C84.6609 55.103 84.1161 55.4026 83.713 56.0018C83.3208 56.6011 83.1246 57.5272 83.1246 58.7801C83.1246 60.0331 83.3208 60.9592 83.713 61.5584C84.1161 62.1576 84.6609 62.4573 85.3473 62.4573ZM100.429 53.0601V54.7761L96.1794 64.5001H93.3031L97.4051 55.2174H93.6136V57.0805H91.2602V53.0601H100.429Z" fill="white"/>
        <rect x="19.1221" y="75.9524" width="122.927" height="23.4762" rx="3.77687" fill="#1BC53C" fill-opacity="0.57"/>
        <path fill-rule="evenodd" clip-rule="evenodd" d="M32.3428 93.8191H43.3089C43.6636 93.8191 43.9544 93.5283 43.9544 93.1735V93.1027C43.9544 92.748 43.6636 92.4572 43.3089 92.4572H32.3428C31.988 92.4572 31.6973 92.748 31.6973 93.1027V93.1735C31.6973 93.5283 31.988 93.8191 32.3428 93.8191ZM38.3365 89.6219L38.3365 84.2505C38.3365 83.8957 38.0457 83.6049 37.6909 83.6049H37.6201C37.2653 83.6049 36.9746 83.8957 36.9746 84.2505L36.9746 89.6219L36.0941 88.7414C35.8278 88.4752 35.3975 88.4752 35.1312 88.7414C34.9984 88.8742 34.9317 89.0485 34.9317 89.2229C34.9317 89.3972 34.9984 89.5708 35.1312 89.7043L37.1741 91.7472C37.4403 92.0127 37.8707 92.0127 38.137 91.7472L40.1798 89.7043C40.4461 89.438 40.4461 89.007 40.1798 88.7414C39.9136 88.4752 39.4832 88.4752 39.2169 88.7414L38.3365 89.6219Z" fill="white"/>
        <path d="M57.6295 82.0601V93.5001H54.982V84.1847H52.694V82.0601H57.6295ZM61.1367 90.4604C61.5943 90.4604 61.9702 90.6074 62.2644 90.9016C62.5586 91.1849 62.7057 91.5608 62.7057 92.0293C62.7057 92.2472 62.6784 92.4651 62.6239 92.683C62.5695 92.9009 62.4496 93.2277 62.2644 93.6636L61.3328 96.0169H59.7149L60.434 93.4184C60.1616 93.3095 59.9437 93.1351 59.7803 92.8954C59.6277 92.6448 59.5515 92.3561 59.5515 92.0293C59.5515 91.5608 59.6986 91.1849 59.9927 90.9016C60.2978 90.6074 60.6791 90.4604 61.1367 90.4604ZM68.0513 82.0601V93.5001H65.4038V84.1847H63.1158V82.0601H68.0513ZM74.059 81.864C75.6606 81.864 76.9135 82.3543 77.8178 83.3349C78.7221 84.3045 79.1743 85.7046 79.1743 87.535C79.1743 88.8315 78.9291 89.9428 78.4388 90.8689C77.9595 91.795 77.2785 92.4978 76.396 92.9772C75.5135 93.4565 74.4948 93.6962 73.3399 93.6962C72.7297 93.6962 72.1468 93.6309 71.5912 93.5001C71.0355 93.3585 70.5616 93.1624 70.1694 92.9118L71.1499 90.967C71.7056 91.3483 72.4192 91.539 73.2908 91.539C74.2605 91.539 75.0286 91.2557 75.5952 90.6892C76.1617 90.1117 76.4668 89.2837 76.5104 88.205C75.824 88.8914 74.8761 89.2346 73.6667 89.2346C72.9367 89.2346 72.2721 89.0876 71.6729 88.7934C71.0737 88.4992 70.5997 88.0852 70.2511 87.5513C69.9024 87.0066 69.7281 86.3801 69.7281 85.6719C69.7281 84.9092 69.9188 84.2392 70.3001 83.6617C70.6814 83.0843 71.199 82.643 71.8527 82.338C72.5173 82.022 73.2527 81.864 74.059 81.864ZM74.2551 87.2572C74.8325 87.2572 75.301 87.0992 75.6606 86.7832C76.031 86.4564 76.2162 86.0423 76.2162 85.5412C76.2162 85.04 76.0364 84.6314 75.6769 84.3154C75.3283 83.9995 74.8434 83.8415 74.2224 83.8415C73.6558 83.8415 73.1928 83.994 72.8332 84.2991C72.4846 84.6042 72.3103 85.0182 72.3103 85.5412C72.3103 86.0641 72.4846 86.4836 72.8332 86.7996C73.1928 87.1046 73.6667 87.2572 74.2551 87.2572ZM84.7612 82.0601V93.5001H82.1137V84.1847H79.8257V82.0601H84.7612ZM91.1611 82.0601V93.5001H88.5136V84.1847H86.2256V82.0601H91.1611Z" fill="white"/>
        <g filter="url(#filter0_d)">
            <path d="M148.878 22.0339C148.878 19.7797 150.705 17.9524 152.959 17.9524H169.306V38.381H152.959C150.705 38.381 148.878 36.5536 148.878 34.2995V22.0339Z" fill="#C4C4C4" fill-opacity="0.12"/>
            <path fill-rule="evenodd" clip-rule="evenodd" d="M160.044 31.5263C160.017 31.5263 159.99 31.5251 159.962 31.5223C159.612 31.4872 159.337 31.2371 159.261 30.8847L158.192 25.8934L157.092 28.464C157.028 28.6114 156.884 28.7068 156.726 28.7068H155.531C155.31 28.7068 155.132 28.5264 155.132 28.3041C155.132 28.0813 155.31 27.9013 155.531 27.9013H156.464L157.463 25.5696C157.604 25.2409 157.916 25.0496 158.27 25.0855C158.62 25.1205 158.895 25.3706 158.971 25.7231L160.04 30.7143L161.141 28.1438C161.204 27.9963 161.347 27.9013 161.506 27.9013H162.701C162.922 27.9013 163.1 28.0813 163.1 28.3041C163.1 28.5264 162.922 28.7068 162.701 28.7068H161.768L160.769 31.0381C160.639 31.3414 160.36 31.5263 160.044 31.5263Z" fill="white"/>
        </g>
        <g filter="url(#filter1_d)">
            <path d="M170.738 18.0952H187.085C189.34 18.0952 191.167 19.9225 191.167 22.1767V34.4423C191.167 36.6965 189.34 38.5238 187.085 38.5238H170.738V18.0952Z" fill="#C4C4C4" fill-opacity="0.12"/>
            <path fill-rule="evenodd" clip-rule="evenodd" d="M178.102 30.915C178.302 30.819 178.386 30.5789 178.29 30.3781C177.709 29.1483 177.96 27.6741 178.913 26.7104C180.156 25.4541 182.178 25.4538 183.421 26.7104C184.374 27.6741 184.624 29.1483 184.044 30.3781C183.948 30.5786 184.032 30.819 184.231 30.915C184.429 31.0106 184.667 30.9261 184.762 30.725C185.488 29.1879 185.176 27.3458 183.984 26.1407C182.431 24.5703 179.903 24.5703 178.35 26.1407C177.158 27.3458 176.845 29.1876 177.572 30.7253C177.666 30.9258 177.904 31.0109 178.102 30.915ZM181.168 30.1278L182.838 31.8164C181.852 32.5629 180.484 32.5632 179.498 31.8164L181.168 30.1278ZM183.703 32.1214C183.859 31.9642 183.859 31.7093 183.703 31.5518L181.45 29.2734C181.294 29.1159 181.042 29.1162 180.886 29.2734L178.633 31.5518C178.477 31.709 178.477 31.9639 178.633 32.1214C180.031 33.5349 182.306 33.5346 183.703 32.1214Z" fill="white"/>
        </g>
        <g filter="url(#filter2_f)">
            <rect x="13.5" y="103.5" width="75" height="30" rx="4.5" stroke="#00FCFC"/>
        </g>
        <rect x="13.5" y="103.5" width="75" height="30" rx="4.5" stroke="#00FCFC"/>
    </g>
    <defs>
        <filter id="filter0_d" x="121.668" y="-3.8154" width="74.9073" height="75.1338" filterUnits="userSpaceOnUse" color-interpolation-filters="sRGB">
            <feFlood flood-opacity="0" result="BackgroundImageFix"/>
            <feColorMatrix in="SourceAlpha" type="matrix" values="0 0 0 0 0 0 0 0 0 0 0 0 0 0 0 0 0 0 127 0" result="hardAlpha"/>
            <feOffset dy="5.44195"/>
            <feGaussianBlur stdDeviation="13.6049"/>
            <feColorMatrix type="matrix" values="0 0 0 0 0 0 0 0 0 0 0 0 0 0 0 0 0 0 0.25 0"/>
            <feBlend mode="normal" in2="BackgroundImageFix" result="effect1_dropShadow"/>
            <feBlend mode="normal" in="SourceGraphic" in2="effect1_dropShadow" result="shape"/>
        </filter>
        <filter id="filter1_d" x="143.499" y="-3.8154" width="74.9073" height="75.1338" filterUnits="userSpaceOnUse" color-interpolation-filters="sRGB">
            <feFlood flood-opacity="0" result="BackgroundImageFix"/>
            <feColorMatrix in="SourceAlpha" type="matrix" values="0 0 0 0 0 0 0 0 0 0 0 0 0 0 0 0 0 0 127 0" result="hardAlpha"/>
            <feOffset dy="5.44195"/>
            <feGaussianBlur stdDeviation="13.6049"/>
            <feColorMatrix type="matrix" values="0 0 0 0 0 0 0 0 0 0 0 0 0 0 0 0 0 0 0.25 0"/>
            <feBlend mode="normal" in2="BackgroundImageFix" result="effect1_dropShadow"/>
            <feBlend mode="normal" in="SourceGraphic" in2="effect1_dropShadow" result="shape"/>
        </filter>
        <filter id="filter2_f" x="9" y="99" width="84" height="39" filterUnits="userSpaceOnUse" color-interpolation-filters="sRGB">
            <feFlood flood-opacity="0" result="BackgroundImageFix"/>
            <feBlend mode="normal" in="SourceGraphic" in2="BackgroundImageFix" result="shape"/>
            <feGaussianBlur stdDeviation="2" result="effect1_foregroundBlur"/>
        </filter>
        <clipPath id="clip0">
            <rect width="280" height="145" fill="white"/>
        </clipPath>
    </defs>
</svg>
