<svg width="30" height="30" viewBox="0 0 30 30" fill="none" xmlns="http://www.w3.org/2000/svg">
    <path fill-rule="evenodd" clip-rule="evenodd" d="M20 13.75H16.25V10C16.25 9.30875 15.69 8.75 15 8.75C14.31 8.75 13.75 9.30875 13.75 10V15C13.75 15.6912 14.31 16.25 15 16.25H20C20.6912 16.25 21.25 15.6912 21.25 15C21.25 14.3088 20.6912 13.75 20 13.75ZM15 25C9.48625 25 5 20.5138 5 15C5 9.48625 9.48625 5 15 5C20.5138 5 25 9.48625 25 15C25 20.5138 20.5138 25 15 25ZM15 2.5C8.1075 2.5 2.5 8.1075 2.5 15C2.5 21.8925 8.1075 27.5 15 27.5C21.8925 27.5 27.5 21.8925 27.5 15C27.5 8.1075 21.8925 2.5 15 2.5Z" fill="#00FCFC"/>
</svg>
