<svg width="284" height="145" viewBox="0 0 284 145" fill="none" xmlns="http://www.w3.org/2000/svg">
    <g clip-path="url(#clip0)">
        <rect width="283.095" height="145" rx="4.0831" fill="#191E2C"/>
        <path d="M33.8843 28.4916C35.0443 28.8589 35.953 29.4776 36.6103 30.3476C37.2676 31.1983 37.5963 32.2519 37.5963 33.5086C37.5963 35.2873 36.9003 36.6599 35.5083 37.6266C34.1356 38.5739 32.125 39.0476 29.4763 39.0476H18.9783V18.7476H28.8963C31.371 18.7476 33.2656 19.2213 34.5803 20.1686C35.9143 21.1159 36.5813 22.4016 36.5813 24.0256C36.5813 25.0116 36.3396 25.8913 35.8563 26.6646C35.3923 27.4379 34.735 28.0469 33.8843 28.4916ZM23.6473 22.2856V27.0706H28.3163C29.4763 27.0706 30.356 26.8676 30.9553 26.4616C31.5546 26.0556 31.8543 25.4563 31.8543 24.6636C31.8543 23.8709 31.5546 23.2813 30.9553 22.8946C30.356 22.4886 29.4763 22.2856 28.3163 22.2856H23.6473ZM29.1283 35.5096C30.3656 35.5096 31.2936 35.3066 31.9123 34.9006C32.5503 34.4946 32.8693 33.8663 32.8693 33.0156C32.8693 31.3336 31.6223 30.4926 29.1283 30.4926H23.6473V35.5096H29.1283ZM44.4949 22.5756H37.9989V18.7476H55.6889V22.5756H49.1929V39.0476H44.4949V22.5756ZM67.0684 39.3956C64.9998 39.3956 63.1244 38.9509 61.4424 38.0616C59.7798 37.1529 58.4651 35.9059 57.4984 34.3206C56.5511 32.7159 56.0774 30.9083 56.0774 28.8976C56.0774 26.8869 56.5511 25.0889 57.4984 23.5036C58.4651 21.8989 59.7798 20.6519 61.4424 19.7626C63.1244 18.8539 65.0094 18.3996 67.0974 18.3996C68.8568 18.3996 70.4421 18.7089 71.8534 19.3276C73.2841 19.9463 74.4828 20.8356 75.4494 21.9956L72.4334 24.7796C71.0608 23.1943 69.3594 22.4016 67.3294 22.4016C66.0728 22.4016 64.9514 22.6819 63.9654 23.2426C62.9794 23.7839 62.2061 24.5476 61.6454 25.5336C61.1041 26.5196 60.8334 27.6409 60.8334 28.8976C60.8334 30.1543 61.1041 31.2756 61.6454 32.2616C62.2061 33.2476 62.9794 34.0209 63.9654 34.5816C64.9514 35.1229 66.0728 35.3936 67.3294 35.3936C69.3594 35.3936 71.0608 34.5913 72.4334 32.9866L75.4494 35.7706C74.4828 36.9499 73.2841 37.8489 71.8534 38.4676C70.4228 39.0863 68.8278 39.3956 67.0684 39.3956ZM86.8911 39.3956C83.9911 39.3956 81.7291 38.5933 80.1051 36.9886C78.5004 35.3839 77.6981 33.0929 77.6981 30.1156V18.7476H82.3961V29.9416C82.3961 33.5763 83.9041 35.3936 86.9201 35.3936C88.3894 35.3936 89.5107 34.9586 90.2841 34.0886C91.0574 33.1993 91.4441 31.8169 91.4441 29.9416V18.7476H96.0841V30.1156C96.0841 33.0929 95.2721 35.3839 93.6481 36.9886C92.0434 38.5933 89.7911 39.3956 86.8911 39.3956ZM106.817 39.3956C105.212 39.3956 103.656 39.1829 102.148 38.7576C100.659 38.3129 99.4602 37.7426 98.5516 37.0466L100.147 33.5086C101.017 34.1466 102.051 34.6589 103.25 35.0456C104.448 35.4323 105.647 35.6256 106.846 35.6256C108.18 35.6256 109.166 35.4323 109.804 35.0456C110.442 34.6396 110.761 34.1079 110.761 33.4506C110.761 32.9673 110.567 32.5709 110.181 32.2616C109.813 31.9329 109.33 31.6719 108.731 31.4786C108.151 31.2853 107.358 31.0726 106.353 30.8406C104.806 30.4733 103.54 30.1059 102.554 29.7386C101.568 29.3713 100.717 28.7816 100.002 27.9696C99.3056 27.1576 98.9576 26.0749 98.9576 24.7216C98.9576 23.5423 99.2766 22.4789 99.9146 21.5316C100.553 20.5649 101.51 19.8013 102.786 19.2406C104.081 18.6799 105.657 18.3996 107.513 18.3996C108.808 18.3996 110.074 18.5543 111.312 18.8636C112.549 19.1729 113.632 19.6176 114.56 20.1976L113.11 23.7646C111.234 22.7013 109.359 22.1696 107.484 22.1696C106.169 22.1696 105.193 22.3823 104.555 22.8076C103.936 23.2329 103.627 23.7936 103.627 24.4896C103.627 25.1856 103.984 25.7076 104.7 26.0556C105.434 26.3843 106.546 26.7129 108.035 27.0416C109.581 27.4089 110.848 27.7763 111.834 28.1436C112.82 28.5109 113.661 29.0909 114.357 29.8836C115.072 30.6763 115.43 31.7493 115.43 33.1026C115.43 34.2626 115.101 35.3259 114.444 36.2926C113.806 37.2399 112.839 37.9939 111.544 38.5546C110.248 39.1153 108.673 39.3956 106.817 39.3956ZM118.06 18.7476H127.282C129.486 18.7476 131.429 19.1729 133.111 20.0236C134.812 20.8549 136.127 22.0343 137.055 23.5616C138.002 25.0889 138.476 26.8676 138.476 28.8976C138.476 30.9276 138.002 32.7063 137.055 34.2336C136.127 35.7609 134.812 36.9499 133.111 37.8006C131.429 38.6319 129.486 39.0476 127.282 39.0476H118.06V18.7476ZM127.05 35.1906C129.08 35.1906 130.694 34.6299 131.893 33.5086C133.111 32.3679 133.72 30.8309 133.72 28.8976C133.72 26.9643 133.111 25.4369 131.893 24.3156C130.694 23.1749 129.08 22.6046 127.05 22.6046H122.758V35.1906H127.05Z" fill="white"/>
        <path d="M278.952 140.561C278.952 141.324 278.334 141.942 277.571 141.942L236.978 141.942C236.215 141.942 235.597 141.324 235.597 140.561C235.597 139.798 236.215 139.18 236.978 139.18L277.571 139.18C278.334 139.18 278.952 139.798 278.952 140.561Z" fill="#D5CE41"/>
        <path d="M232.385 140.561C232.385 141.324 231.766 141.942 231.004 141.942L190.41 141.942C189.648 141.942 189.029 141.324 189.029 140.561C189.029 139.798 189.648 139.18 190.41 139.18L231.004 139.18C231.766 139.18 232.385 139.798 232.385 140.561Z" fill="#D5CE41"/>
        <rect x="185.817" y="141.942" width="43.3555" height="2.7619" rx="1.38095" transform="rotate(180 185.817 141.942)" fill="#D5CE41"/>
        <rect x="139.25" y="141.942" width="43.3555" height="2.7619" rx="1.38095" transform="rotate(180 139.25 141.942)" fill="#D5CE41"/>
        <rect x="92.6836" y="141.942" width="43.3555" height="2.7619" rx="1.38095" transform="rotate(180 92.6836 141.942)" fill="#D64730"/>
        <path d="M46.1172 140.561C46.1172 141.324 45.4989 141.942 44.7362 141.942L4.14265 141.942C3.37997 141.942 2.7617 141.324 2.7617 140.561C2.7617 139.798 3.37997 139.18 4.14265 139.18L44.7362 139.18C45.4989 139.18 46.1172 139.798 46.1172 140.561Z" fill="#D64730"/>
        <rect x="227.434" y="30.381" width="5.35119" height="6.90476" rx="2.6756" fill="white"/>
        <rect x="236.798" y="27.619" width="5.35119" height="9.66667" rx="2.6756" fill="white"/>
        <rect x="246.163" y="24.8572" width="5.35119" height="12.4286" rx="2.6756" fill="white"/>
        <rect x="255.527" y="22.0952" width="5.35119" height="15.1905" rx="2.6756" fill="white"/>
        <rect x="264.892" y="19.3334" width="5.35119" height="17.9524" rx="2.6756" fill="white"/>
        <path opacity="0.5" d="M48.5349 114.462V125.095H46.5601V116.118H44.312V114.462H48.5349ZM54.3203 114.462V125.095H52.3456V116.118H50.0974V114.462H54.3203ZM57.6145 119.414C57.2702 119.414 56.9765 119.297 56.7335 119.064C56.4904 118.821 56.3689 118.518 56.3689 118.153C56.3689 117.778 56.4854 117.475 56.7183 117.242C56.9613 117.009 57.2601 116.892 57.6145 116.892C57.969 116.892 58.2627 117.009 58.4956 117.242C58.7386 117.475 58.8602 117.778 58.8602 118.153C58.8602 118.518 58.7386 118.821 58.4956 119.064C58.2525 119.297 57.9589 119.414 57.6145 119.414ZM57.6145 125.201C57.2702 125.201 56.9765 125.085 56.7335 124.852C56.4904 124.609 56.3689 124.305 56.3689 123.941C56.3689 123.566 56.4854 123.262 56.7183 123.029C56.9613 122.796 57.2601 122.68 57.6145 122.68C57.969 122.68 58.2627 122.796 58.4956 123.029C58.7386 123.262 58.8602 123.566 58.8602 123.941C58.8602 124.305 58.7386 124.609 58.4956 124.852C58.2525 125.085 57.9589 125.201 57.6145 125.201ZM63.465 118.578C64.9638 118.578 66.0727 118.872 66.7917 119.459C67.5107 120.037 67.8702 120.827 67.8702 121.829C67.8702 122.467 67.7133 123.044 67.3993 123.561C67.0854 124.077 66.6145 124.487 65.9866 124.791C65.3588 125.095 64.584 125.247 63.6625 125.247C62.903 125.247 62.1688 125.141 61.4599 124.928C60.751 124.705 60.1535 124.401 59.6674 124.017L60.5029 122.482C60.8978 122.806 61.3687 123.065 61.9156 123.257C62.4726 123.439 63.0447 123.53 63.6321 123.53C64.3309 123.53 64.8777 123.389 65.2727 123.105C65.6778 122.811 65.8803 122.411 65.8803 121.905C65.8803 121.358 65.6626 120.948 65.2271 120.675C64.8018 120.391 64.0676 120.249 63.0245 120.249H60.4573L61.0042 114.462H67.2474V116.118H62.6751L62.4472 118.578H63.465ZM73.4619 118.852C74.4442 118.973 75.1936 119.308 75.7101 119.854C76.2266 120.401 76.4848 121.085 76.4848 121.905C76.4848 122.523 76.3278 123.085 76.0139 123.591C75.6999 124.098 75.224 124.503 74.586 124.806C73.9581 125.1 73.1885 125.247 72.277 125.247C71.5175 125.247 70.7833 125.141 70.0744 124.928C69.3756 124.705 68.7782 124.401 68.2819 124.017L69.1326 122.482C69.5174 122.806 69.9833 123.065 70.5301 123.257C71.0871 123.439 71.6593 123.53 72.2466 123.53C72.9454 123.53 73.4923 123.389 73.8872 123.105C74.2923 122.811 74.4948 122.417 74.4948 121.92C74.4948 121.424 74.3024 121.039 73.9176 120.766C73.5429 120.482 72.9657 120.34 72.1859 120.34H71.2137V118.989L73.629 116.118H68.7984V114.462H76.0443V115.783L73.4619 118.852Z" fill="white"/>
        <g opacity="0.5">
            <path fill-rule="evenodd" clip-rule="evenodd" d="M27.6145 111.417C22.8502 111.417 18.9922 115.283 18.9922 120.048C18.9922 124.812 22.8502 128.679 27.6145 128.679C32.3874 128.679 36.2541 124.812 36.2541 120.048C36.2541 115.283 32.3874 111.417 27.6145 111.417ZM27.6231 126.952C23.8082 126.952 20.7183 123.863 20.7183 120.048C20.7183 116.233 23.8082 113.143 27.6231 113.143C31.438 113.143 34.5279 116.233 34.5279 120.048C34.5279 123.863 31.438 126.952 27.6231 126.952ZM26.76 115.732H28.0546V120.264L31.9386 122.568L31.2912 123.63L26.76 120.911V115.732Z" fill="white"/>
        </g>
        <path opacity="0.5" d="M135.186 118.579C136.684 118.579 137.793 118.872 138.512 119.46C139.231 120.037 139.591 120.827 139.591 121.829C139.591 122.467 139.434 123.045 139.12 123.561C138.806 124.077 138.335 124.488 137.707 124.791C137.079 125.095 136.305 125.247 135.383 125.247C134.623 125.247 133.889 125.141 133.18 124.928C132.471 124.705 131.874 124.402 131.388 124.017L132.223 122.482C132.618 122.807 133.089 123.065 133.636 123.257C134.193 123.439 134.765 123.531 135.353 123.531C136.051 123.531 136.598 123.389 136.993 123.105C137.398 122.812 137.601 122.412 137.601 121.905C137.601 121.358 137.383 120.948 136.948 120.675C136.522 120.391 135.788 120.249 134.745 120.249H132.178L132.725 114.462H138.968V116.118H134.396L134.168 118.579H135.186ZM155.744 116.892C156.766 116.892 157.577 117.191 158.174 117.789C158.772 118.376 159.07 119.262 159.07 120.447V125.095H157.171V120.69C157.171 119.981 157.015 119.449 156.701 119.095C156.387 118.73 155.936 118.548 155.349 118.548C154.711 118.548 154.199 118.761 153.814 119.186C153.43 119.601 153.237 120.199 153.237 120.979V125.095H151.338V120.69C151.338 119.981 151.181 119.449 150.867 119.095C150.553 118.73 150.103 118.548 149.515 118.548C148.867 118.548 148.351 118.756 147.966 119.171C147.591 119.586 147.404 120.189 147.404 120.979V125.095H145.505V116.984H147.313V118.016C147.617 117.652 147.996 117.373 148.452 117.181C148.908 116.989 149.414 116.892 149.971 116.892C150.579 116.892 151.116 117.009 151.581 117.242C152.057 117.465 152.432 117.799 152.705 118.244C153.04 117.819 153.47 117.49 153.997 117.257C154.523 117.014 155.106 116.892 155.744 116.892ZM161.497 116.984H163.396V125.095H161.497V116.984ZM162.454 115.647C162.109 115.647 161.821 115.54 161.588 115.328C161.355 115.105 161.238 114.832 161.238 114.507C161.238 114.183 161.355 113.915 161.588 113.702C161.821 113.48 162.109 113.368 162.454 113.368C162.798 113.368 163.087 113.475 163.32 113.687C163.553 113.89 163.669 114.148 163.669 114.462C163.669 114.796 163.553 115.08 163.32 115.313C163.097 115.535 162.808 115.647 162.454 115.647ZM170.49 116.892C171.513 116.892 172.334 117.191 172.951 117.789C173.569 118.386 173.878 119.272 173.878 120.447V125.095H171.979V120.69C171.979 119.981 171.812 119.449 171.478 119.095C171.144 118.73 170.668 118.548 170.05 118.548C169.351 118.548 168.799 118.761 168.394 119.186C167.989 119.601 167.787 120.204 167.787 120.994V125.095H165.888V116.984H167.695V118.032C168.009 117.657 168.404 117.373 168.88 117.181C169.356 116.989 169.893 116.892 170.49 116.892Z" fill="white"/>
        <g opacity="0.5">
            <path fill-rule="evenodd" clip-rule="evenodd" d="M115.796 126.358C115.739 126.358 115.679 126.355 115.619 126.349C114.86 126.274 114.264 125.738 114.1 124.983L111.785 114.287L109.4 119.795C109.263 120.111 108.951 120.316 108.608 120.316H106.018C105.541 120.316 105.155 119.929 105.155 119.453C105.155 118.976 105.541 118.59 106.018 118.59H108.041L110.204 113.593C110.511 112.889 111.186 112.479 111.953 112.556C112.713 112.631 113.308 113.167 113.472 113.922L115.788 124.618L118.172 119.109C118.31 118.793 118.62 118.59 118.965 118.59H121.554C122.031 118.59 122.417 118.976 122.417 119.453C122.417 119.929 122.031 120.316 121.554 120.316H119.531L117.368 125.312C117.086 125.961 116.481 126.358 115.796 126.358Z" fill="#F2F2F2"/>
        </g>
        <g opacity="0.5">
            <path fill-rule="evenodd" clip-rule="evenodd" d="M217.642 120.048L213.672 124.018L214.88 125.226L220.059 120.048L214.88 114.869L213.672 116.077L217.642 120.048ZM205.214 120.048L209.184 124.018L207.975 125.226L202.797 120.048L207.975 114.869L209.184 116.078L205.214 120.048Z" fill="white"/>
        </g>
        <path opacity="0.5" d="M233.659 114.462C234.581 114.462 235.381 114.614 236.059 114.917C236.748 115.221 237.275 115.657 237.639 116.224C238.004 116.791 238.186 117.464 238.186 118.244C238.186 119.014 238.004 119.687 237.639 120.265C237.275 120.832 236.748 121.267 236.059 121.571C235.381 121.875 234.581 122.027 233.659 122.027H231.259V125.095H229.284V114.462H233.659ZM233.568 120.356C234.429 120.356 235.082 120.173 235.528 119.809C235.973 119.444 236.196 118.923 236.196 118.244C236.196 117.566 235.973 117.044 235.528 116.68C235.082 116.315 234.429 116.133 233.568 116.133H231.259V120.356H233.568ZM243.603 125.247C242.782 125.247 241.987 125.131 241.218 124.898C240.458 124.665 239.856 124.356 239.41 123.971L240.094 122.437C240.529 122.781 241.061 123.065 241.689 123.287C242.327 123.5 242.965 123.606 243.603 123.606C244.393 123.606 244.98 123.48 245.365 123.227C245.76 122.973 245.957 122.639 245.957 122.224C245.957 121.92 245.846 121.672 245.623 121.48C245.41 121.277 245.137 121.12 244.803 121.009C244.469 120.897 244.013 120.771 243.436 120.629C242.625 120.437 241.967 120.244 241.461 120.052C240.965 119.859 240.534 119.561 240.17 119.156C239.815 118.74 239.638 118.183 239.638 117.485C239.638 116.897 239.795 116.366 240.109 115.89C240.433 115.404 240.914 115.019 241.552 114.735C242.2 114.452 242.99 114.31 243.922 114.31C244.57 114.31 245.208 114.391 245.836 114.553C246.464 114.715 247.005 114.948 247.461 115.252L246.838 116.786C246.372 116.512 245.886 116.305 245.38 116.163C244.874 116.021 244.382 115.95 243.906 115.95C243.127 115.95 242.544 116.082 242.16 116.345C241.785 116.609 241.598 116.958 241.598 117.394C241.598 117.697 241.704 117.945 241.917 118.138C242.139 118.33 242.418 118.482 242.752 118.594C243.086 118.705 243.542 118.832 244.119 118.973C244.909 119.156 245.557 119.348 246.064 119.551C246.57 119.743 247 120.042 247.355 120.447C247.719 120.852 247.902 121.399 247.902 122.087C247.902 122.675 247.74 123.206 247.415 123.682C247.102 124.158 246.621 124.538 245.972 124.822C245.324 125.105 244.534 125.247 243.603 125.247ZM256.756 122.634H251.44L250.391 125.095H248.356L253.141 114.462H255.085L259.885 125.095H257.82L256.756 122.634ZM256.103 121.085L254.098 116.437L252.108 121.085H256.103ZM268.195 125.095L266.023 121.981C265.932 121.991 265.795 121.996 265.613 121.996H263.213V125.095H261.238V114.462H265.613C266.534 114.462 267.334 114.614 268.013 114.917C268.701 115.221 269.228 115.657 269.593 116.224C269.957 116.791 270.139 117.464 270.139 118.244C270.139 119.044 269.942 119.733 269.547 120.31C269.162 120.887 268.605 121.318 267.876 121.601L270.322 125.095H268.195ZM268.149 118.244C268.149 117.566 267.927 117.044 267.481 116.68C267.035 116.315 266.382 116.133 265.521 116.133H263.213V120.371H265.521C266.382 120.371 267.035 120.189 267.481 119.824C267.927 119.449 268.149 118.923 268.149 118.244Z" fill="white"/>
        <path d="M197.319 85.9836C195.638 85.9836 194.007 85.7608 192.427 85.3152C190.868 84.8494 189.612 84.2519 188.66 83.5227L190.331 79.8163C191.243 80.4846 192.326 81.0214 193.582 81.4264C194.838 81.8315 196.093 82.0341 197.349 82.0341C198.747 82.0341 199.78 81.8315 200.448 81.4264C201.116 81.0011 201.451 80.4441 201.451 79.7555C201.451 79.2491 201.248 78.8339 200.843 78.5099C200.458 78.1656 199.952 77.8921 199.324 77.6896C198.716 77.4871 197.886 77.2643 196.833 77.0212C195.212 76.6364 193.886 76.2516 192.853 75.8667C191.82 75.4819 190.929 74.8642 190.179 74.0135C189.45 73.1628 189.086 72.0286 189.086 70.6108C189.086 69.3753 189.42 68.2614 190.088 67.2689C190.757 66.2562 191.759 65.4562 193.096 64.8688C194.453 64.2815 196.104 63.9878 198.048 63.9878C199.405 63.9878 200.732 64.1498 202.028 64.4739C203.324 64.7979 204.458 65.2638 205.431 65.8714L203.911 69.6083C201.947 68.4943 199.982 67.9373 198.018 67.9373C196.64 67.9373 195.617 68.1601 194.949 68.6057C194.301 69.0513 193.977 69.6386 193.977 70.3678C193.977 71.0969 194.352 71.6438 195.101 72.0084C195.871 72.3527 197.035 72.697 198.595 73.0413C200.215 73.4261 201.542 73.811 202.575 74.1958C203.608 74.5806 204.489 75.1882 205.218 76.0186C205.967 76.8491 206.342 77.9731 206.342 79.3909C206.342 80.6062 205.998 81.7201 205.309 82.7328C204.641 83.7253 203.628 84.5152 202.271 85.1025C200.914 85.6899 199.263 85.9836 197.319 85.9836ZM226.171 81.6695V85.619H209.705V64.3524H225.777V68.3019H214.596V72.9198H224.47V76.7478H214.596V81.6695H226.171ZM230.088 64.3524H235.009V81.6087H245.673V85.619H230.088V64.3524ZM248.423 64.3524H253.345V81.6087H264.008V85.619H248.423V64.3524Z" fill="#FF665A"/>
        <rect x="19.333" y="46.9524" width="124.286" height="23.4762" rx="3.82969" fill="#D64730" fill-opacity="0.37"/>
        <path fill-rule="evenodd" clip-rule="evenodd" d="M32.7386 52.4762H43.858C44.2177 52.4762 44.5126 52.771 44.5126 53.1308V53.2026C44.5126 53.5623 44.2177 53.8571 43.858 53.8571H32.7386C32.3788 53.8571 32.084 53.5623 32.084 53.2026V53.1308C32.084 52.771 32.3788 52.4762 32.7386 52.4762ZM38.816 56.7321L38.816 62.1787C38.816 62.5384 38.5211 62.8332 38.1614 62.8332H38.0896C37.7299 62.8332 37.435 62.5384 37.435 62.1787V56.7321L36.5422 57.6249C36.2723 57.8949 35.8359 57.8949 35.5659 57.6249C35.4313 57.4903 35.3636 57.3135 35.3636 57.1367C35.3636 56.96 35.4313 56.7839 35.5659 56.6486L37.6373 54.5771C37.9073 54.3078 38.3437 54.3078 38.6137 54.5771L40.6851 56.6486C40.9551 56.9185 40.9551 57.3556 40.6851 57.6249C40.4151 57.8949 39.9787 57.8949 39.7088 57.6249L38.816 56.7321Z" fill="white"/>
        <path d="M59.3239 57.4665C60.3403 57.6322 61.1192 58.0133 61.6605 58.6099C62.2018 59.1954 62.4725 59.9246 62.4725 60.7973C62.4725 61.4712 62.2957 62.0954 61.9422 62.6699C61.5887 63.2333 61.0474 63.6863 60.3182 64.0288C59.6001 64.3712 58.7163 64.5425 57.6668 64.5425C56.8493 64.5425 56.0428 64.4375 55.2474 64.2276C54.463 64.0067 53.7946 63.6973 53.2422 63.2996L54.2862 61.2448C54.7281 61.5762 55.2363 61.8358 55.8108 62.0236C56.3963 62.2004 56.9929 62.2888 57.6005 62.2888C58.2744 62.2888 58.8047 62.1617 59.1914 61.9076C59.578 61.6425 59.7714 61.2724 59.7714 60.7973C59.7714 59.8472 59.0477 59.3722 57.6005 59.3722H56.3742V57.5991L58.7605 54.8979H53.8222V52.7436H61.9422V54.4836L59.3239 57.4665ZM67.5273 57.1019C69.1624 57.1019 70.3665 57.4278 71.1399 58.0796C71.9243 58.7314 72.3164 59.6042 72.3164 60.6979C72.3164 61.405 72.1397 62.0512 71.7862 62.6368C71.4326 63.2112 70.8913 63.6752 70.1622 64.0288C69.4441 64.3712 68.5547 64.5425 67.4942 64.5425C66.6766 64.5425 65.8702 64.4375 65.0747 64.2276C64.2904 64.0067 63.622 63.6973 63.0696 63.2996L64.1302 61.2448C64.5721 61.5762 65.0803 61.8358 65.6547 62.0236C66.2292 62.2004 66.8203 62.2888 67.4279 62.2888C68.1018 62.2888 68.6321 62.1562 69.0187 61.8911C69.4054 61.6259 69.5987 61.2558 69.5987 60.7808C69.5987 60.2836 69.3944 59.908 68.9856 59.6539C68.5879 59.3998 67.8919 59.2728 66.8976 59.2728H63.9313L64.5279 52.7436H71.6039V54.8979H66.765L66.5827 57.1019H67.5273ZM81.9916 62.1562V64.3436H73.2253V62.6036L77.6996 58.3779C78.1746 57.925 78.495 57.5383 78.6607 57.2179C78.8264 56.8865 78.9093 56.5606 78.9093 56.2402C78.9093 55.7762 78.7491 55.4227 78.4287 55.1796C78.1194 54.9255 77.6609 54.7985 77.0533 54.7985C76.5451 54.7985 76.0866 54.8979 75.6779 55.0968C75.2691 55.2846 74.9266 55.5718 74.6504 55.9585L72.695 54.6991C73.148 54.0252 73.7721 53.5004 74.5676 53.1248C75.363 52.7381 76.2744 52.5448 77.3019 52.5448C78.1636 52.5448 78.9148 52.6884 79.5556 52.9756C80.2074 53.2518 80.7101 53.6495 81.0636 54.1688C81.4281 54.677 81.6104 55.2791 81.6104 55.9751C81.6104 56.6048 81.4779 57.1958 81.2127 57.7482C80.9476 58.3006 80.4339 58.9303 79.6716 59.6373L77.0036 62.1562H81.9916ZM87.1758 52.5448C88.7998 52.5448 90.0703 53.0419 90.9873 54.0362C91.9042 55.0194 92.3627 56.4391 92.3627 58.2951C92.3627 59.6097 92.1141 60.7366 91.617 61.6756C91.1309 62.6147 90.4404 63.3272 89.5456 63.8133C88.6507 64.2994 87.6177 64.5425 86.4467 64.5425C85.828 64.5425 85.237 64.4762 84.6736 64.3436C84.1101 64.2 83.6296 64.0012 83.2318 63.7471L84.2261 61.7751C84.7896 62.1617 85.5132 62.3551 86.397 62.3551C87.3802 62.3551 88.1591 62.0678 88.7336 61.4933C89.308 60.9078 89.6174 60.0682 89.6616 58.9745C88.9656 59.6705 88.0044 60.0185 86.7781 60.0185C86.0379 60.0185 85.364 59.8693 84.7564 59.5711C84.1488 59.2728 83.6682 58.853 83.3147 58.3116C82.9612 57.7592 82.7844 57.124 82.7844 56.4059C82.7844 55.6326 82.9777 54.9532 83.3644 54.3676C83.7511 53.7821 84.2758 53.3347 84.9387 53.0253C85.6126 52.705 86.3583 52.5448 87.1758 52.5448ZM87.3747 58.0133C87.9602 58.0133 88.4353 57.8532 88.7998 57.5328C89.1755 57.2013 89.3633 56.7815 89.3633 56.2733C89.3633 55.7652 89.181 55.3509 88.8164 55.0305C88.4629 54.7101 87.9713 54.5499 87.3416 54.5499C86.7671 54.5499 86.2976 54.7046 85.933 55.0139C85.5795 55.3232 85.4027 55.7431 85.4027 56.2733C85.4027 56.8036 85.5795 57.229 85.933 57.5493C86.2976 57.8587 86.7781 58.0133 87.3747 58.0133ZM101.588 58.2453C102.163 58.5326 102.599 58.9082 102.897 59.3722C103.207 59.8362 103.361 60.372 103.361 60.9796C103.361 61.6977 103.157 62.3274 102.748 62.8688C102.34 63.3991 101.765 63.8133 101.025 64.1116C100.285 64.3989 99.4285 64.5425 98.4563 64.5425C97.4841 64.5425 96.6279 64.3989 95.8878 64.1116C95.1586 63.8133 94.5897 63.3991 94.1809 62.8688C93.7832 62.3274 93.5843 61.6977 93.5843 60.9796C93.5843 60.372 93.7335 59.8362 94.0318 59.3722C94.3411 58.9082 94.7775 58.5326 95.3409 58.2453C94.91 57.9802 94.5786 57.6488 94.3466 57.2511C94.1146 56.8423 93.9986 56.3783 93.9986 55.8591C93.9986 55.1852 94.1864 54.5996 94.562 54.1025C94.9377 53.6053 95.4624 53.2242 96.1363 52.9591C96.8102 52.6829 97.5836 52.5448 98.4563 52.5448C99.3401 52.5448 100.119 52.6829 100.793 52.9591C101.478 53.2242 102.008 53.6053 102.384 54.1025C102.759 54.5996 102.947 55.1852 102.947 55.8591C102.947 56.3783 102.831 56.8423 102.599 57.2511C102.367 57.6488 102.03 57.9802 101.588 58.2453ZM98.4563 54.5168C97.915 54.5168 97.4786 54.6493 97.1472 54.9145C96.8268 55.1686 96.6666 55.5221 96.6666 55.9751C96.6666 56.417 96.8268 56.765 97.1472 57.0191C97.4676 57.2732 97.9039 57.4002 98.4563 57.4002C99.0087 57.4002 99.4506 57.2732 99.782 57.0191C100.113 56.765 100.279 56.417 100.279 55.9751C100.279 55.5221 100.113 55.1686 99.782 54.9145C99.4506 54.6493 99.0087 54.5168 98.4563 54.5168ZM98.4563 62.5705C99.1302 62.5705 99.6605 62.4213 100.047 62.1231C100.445 61.8137 100.644 61.405 100.644 60.8968C100.644 60.3886 100.445 59.9853 100.047 59.6871C99.6605 59.3888 99.1302 59.2396 98.4563 59.2396C97.7935 59.2396 97.2687 59.3888 96.882 59.6871C96.4954 59.9853 96.302 60.3886 96.302 60.8968C96.302 61.416 96.4954 61.8248 96.882 62.1231C97.2687 62.4213 97.7935 62.5705 98.4563 62.5705ZM106.277 64.4762C105.824 64.4762 105.443 64.3215 105.133 64.0122C104.824 63.7029 104.669 63.3162 104.669 62.8522C104.669 62.3772 104.824 61.996 105.133 61.7088C105.443 61.4105 105.824 61.2613 106.277 61.2613C106.73 61.2613 107.111 61.4105 107.42 61.7088C107.73 61.996 107.884 62.3772 107.884 62.8522C107.884 63.3162 107.73 63.7029 107.42 64.0122C107.111 64.3215 106.73 64.4762 106.277 64.4762ZM113.85 64.5425C112.889 64.5425 112.033 64.305 111.282 63.8299C110.53 63.3549 109.939 62.6699 109.509 61.7751C109.089 60.8692 108.879 59.792 108.879 58.5436C108.879 57.2952 109.089 56.2236 109.509 55.3288C109.939 54.4229 110.53 53.7324 111.282 53.2573C112.033 52.7823 112.889 52.5448 113.85 52.5448C114.811 52.5448 115.668 52.7823 116.419 53.2573C117.17 53.7324 117.756 54.4229 118.175 55.3288C118.606 56.2236 118.822 57.2952 118.822 58.5436C118.822 59.792 118.606 60.8692 118.175 61.7751C117.756 62.6699 117.17 63.3549 116.419 63.8299C115.668 64.305 114.811 64.5425 113.85 64.5425ZM113.85 62.2722C114.557 62.2722 115.11 61.9684 115.507 61.3608C115.916 60.7532 116.121 59.8141 116.121 58.5436C116.121 57.2732 115.916 56.3341 115.507 55.7265C115.11 55.1189 114.557 54.8151 113.85 54.8151C113.154 54.8151 112.602 55.1189 112.193 55.7265C111.795 56.3341 111.597 57.2732 111.597 58.5436C111.597 59.8141 111.795 60.7532 112.193 61.3608C112.602 61.9684 113.154 62.2722 113.85 62.2722Z" fill="white"/>
        <rect x="19.333" y="75.9524" width="124.286" height="23.4762" rx="3.82969" fill="#1BC53C" fill-opacity="0.57"/>
        <path fill-rule="evenodd" clip-rule="evenodd" d="M32.7386 93.9048H43.858C44.2177 93.9048 44.5126 93.61 44.5126 93.2502V93.1784C44.5126 92.8187 44.2177 92.5238 43.858 92.5238H32.7386C32.3788 92.5238 32.084 92.8187 32.084 93.1784V93.2502C32.084 93.61 32.3788 93.9048 32.7386 93.9048ZM38.816 89.6488L38.816 84.2023C38.816 83.8425 38.5211 83.5477 38.1614 83.5477H38.0896C37.7299 83.5477 37.435 83.8425 37.435 84.2023V89.6488L36.5422 88.7561C36.2723 88.4861 35.8359 88.4861 35.5659 88.7561C35.4313 88.8907 35.3636 89.0675 35.3636 89.2442C35.3636 89.421 35.4313 89.5971 35.5659 89.7324L37.6373 91.8038C37.9073 92.0731 38.3437 92.0731 38.6137 91.8038L40.6851 89.7324C40.9551 89.4624 40.9551 89.0253 40.6851 88.7561C40.4151 88.4861 39.9787 88.4861 39.7088 88.7561L38.816 89.6488Z" fill="white"/>
        <path d="M59.3239 86.4665C60.3403 86.6322 61.1192 87.0133 61.6605 87.6099C62.2018 88.1954 62.4725 88.9246 62.4725 89.7973C62.4725 90.4712 62.2957 91.0954 61.9422 91.6699C61.5887 92.2333 61.0474 92.6863 60.3182 93.0288C59.6001 93.3712 58.7163 93.5425 57.6668 93.5425C56.8493 93.5425 56.0428 93.4375 55.2474 93.2276C54.463 93.0067 53.7946 92.6973 53.2422 92.2996L54.2862 90.2448C54.7281 90.5762 55.2363 90.8358 55.8108 91.0236C56.3963 91.2004 56.9929 91.2888 57.6005 91.2888C58.2744 91.2888 58.8047 91.1617 59.1914 90.9076C59.578 90.6425 59.7714 90.2724 59.7714 89.7973C59.7714 88.8472 59.0477 88.3722 57.6005 88.3722H56.3742V86.5991L58.7605 83.8979H53.8222V81.7436H61.9422V83.4836L59.3239 86.4665ZM69.2966 86.0688C70.0368 86.0688 70.7107 86.2179 71.3183 86.5162C71.9259 86.8145 72.4065 87.2398 72.76 87.7922C73.1135 88.3335 73.2903 88.9632 73.2903 89.6813C73.2903 90.4547 73.0969 91.1341 72.7103 91.7196C72.3236 92.3052 71.7933 92.7581 71.1194 93.0785C70.4566 93.3878 69.7164 93.5425 68.8989 93.5425C67.2749 93.5425 66.0044 93.0453 65.0874 92.0511C64.1705 91.0568 63.712 89.6372 63.712 87.7922C63.712 86.4775 63.9606 85.3507 64.4577 84.4116C64.9549 83.4726 65.6453 82.76 66.5291 82.2739C67.424 81.7878 68.4569 81.5448 69.628 81.5448C70.2467 81.5448 70.8377 81.6166 71.4011 81.7602C71.9756 81.8928 72.4617 82.0861 72.8594 82.3402L71.8651 84.3122C71.2907 83.9255 70.567 83.7322 69.6943 83.7322C68.711 83.7322 67.9322 84.0194 67.3577 84.5939C66.7832 85.1684 66.4739 86.0025 66.4297 87.0962C67.1147 86.4112 68.0703 86.0688 69.2966 86.0688ZM68.7497 91.5373C69.3242 91.5373 69.7882 91.3827 70.1417 91.0733C70.5063 90.764 70.6886 90.3442 70.6886 89.8139C70.6886 89.2836 70.5063 88.8638 70.1417 88.5545C69.7882 88.2341 69.3131 88.0739 68.7166 88.0739C68.131 88.0739 67.6505 88.2396 67.2749 88.5711C66.8992 88.8914 66.7114 89.3057 66.7114 89.8139C66.7114 90.3221 66.8937 90.7364 67.2583 91.0568C67.6229 91.3772 68.12 91.5373 68.7497 91.5373ZM78.3399 81.5448C79.9639 81.5448 81.2344 82.0419 82.1513 83.0362C83.0683 84.0194 83.5268 85.4391 83.5268 87.2951C83.5268 88.6097 83.2782 89.7366 82.781 90.6756C82.295 91.6147 81.6045 92.3272 80.7096 92.8133C79.8148 93.2994 78.7818 93.5425 77.6108 93.5425C76.9921 93.5425 76.401 93.4762 75.8376 93.3436C75.2742 93.2 74.7936 93.0012 74.3959 92.7471L75.3902 90.7751C75.9536 91.1617 76.6772 91.3551 77.561 91.3551C78.5443 91.3551 79.3231 91.0678 79.8976 90.4933C80.4721 89.9078 80.7814 89.0682 80.8256 87.9745C80.1296 88.6705 79.1685 89.0185 77.9422 89.0185C77.202 89.0185 76.5281 88.8693 75.9205 88.5711C75.3129 88.2728 74.8323 87.853 74.4788 87.3116C74.1252 86.7592 73.9485 86.124 73.9485 85.4059C73.9485 84.6326 74.1418 83.9532 74.5285 83.3676C74.9151 82.7821 75.4399 82.3347 76.1028 82.0253C76.7767 81.705 77.5224 81.5448 78.3399 81.5448ZM78.5388 87.0133C79.1243 87.0133 79.5993 86.8532 79.9639 86.5328C80.3395 86.2013 80.5273 85.7815 80.5273 85.2733C80.5273 84.7652 80.345 84.3509 79.9805 84.0305C79.627 83.7101 79.1353 83.5499 78.5056 83.5499C77.9311 83.5499 77.4616 83.7046 77.097 84.0139C76.7435 84.3232 76.5668 84.7431 76.5668 85.2733C76.5668 85.8036 76.7435 86.229 77.097 86.5493C77.4616 86.8587 77.9422 87.0133 78.5388 87.0133ZM92.7524 87.2453C93.3269 87.5326 93.7632 87.9082 94.0615 88.3722C94.3709 88.8362 94.5255 89.372 94.5255 89.9796C94.5255 90.6977 94.3211 91.3274 93.9124 91.8688C93.5036 92.3991 92.9291 92.8133 92.189 93.1116C91.4488 93.3989 90.5926 93.5425 89.6204 93.5425C88.6482 93.5425 87.792 93.3989 87.0518 93.1116C86.3227 92.8133 85.7537 92.3991 85.345 91.8688C84.9472 91.3274 84.7484 90.6977 84.7484 89.9796C84.7484 89.372 84.8975 88.8362 85.1958 88.3722C85.5051 87.9082 85.9415 87.5326 86.505 87.2453C86.0741 86.9802 85.7427 86.6488 85.5107 86.2511C85.2787 85.8423 85.1627 85.3783 85.1627 84.8591C85.1627 84.1852 85.3505 83.5996 85.7261 83.1025C86.1017 82.6053 86.6265 82.2242 87.3004 81.9591C87.9743 81.6829 88.7476 81.5448 89.6204 81.5448C90.5042 81.5448 91.2831 81.6829 91.957 81.9591C92.6419 82.2242 93.1722 82.6053 93.5478 83.1025C93.9234 83.5996 94.1112 84.1852 94.1112 84.8591C94.1112 85.3783 93.9952 85.8423 93.7632 86.2511C93.5312 86.6488 93.1943 86.9802 92.7524 87.2453ZM89.6204 83.5168C89.0791 83.5168 88.6427 83.6493 88.3112 83.9145C87.9909 84.1686 87.8307 84.5221 87.8307 84.9751C87.8307 85.417 87.9909 85.765 88.3112 86.0191C88.6316 86.2732 89.068 86.4002 89.6204 86.4002C90.1728 86.4002 90.6147 86.2732 90.9461 86.0191C91.2775 85.765 91.4432 85.417 91.4432 84.9751C91.4432 84.5221 91.2775 84.1686 90.9461 83.9145C90.6147 83.6493 90.1728 83.5168 89.6204 83.5168ZM89.6204 91.5705C90.2943 91.5705 90.8246 91.4213 91.2112 91.1231C91.609 90.8137 91.8078 90.405 91.8078 89.8968C91.8078 89.3886 91.609 88.9853 91.2112 88.6871C90.8246 88.3888 90.2943 88.2396 89.6204 88.2396C88.9575 88.2396 88.4328 88.3888 88.0461 88.6871C87.6594 88.9853 87.4661 89.3886 87.4661 89.8968C87.4661 90.416 87.6594 90.8248 88.0461 91.1231C88.4328 91.4213 88.9575 91.5705 89.6204 91.5705ZM104.836 81.7436V83.4836L100.527 93.3436H97.6104L101.77 83.9311H97.9253V85.8202H95.539V81.7436H104.836ZM106.746 93.4762C106.293 93.4762 105.912 93.3215 105.603 93.0122C105.293 92.7029 105.139 92.3162 105.139 91.8522C105.139 91.3772 105.293 90.996 105.603 90.7088C105.912 90.4105 106.293 90.2613 106.746 90.2613C107.199 90.2613 107.58 90.4105 107.889 90.7088C108.199 90.996 108.353 91.3772 108.353 91.8522C108.353 92.3162 108.199 92.7029 107.889 93.0122C107.58 93.3215 107.199 93.4762 106.746 93.4762ZM113.774 81.7436V93.3436H111.089V83.8979H108.769V81.7436H113.774Z" fill="white"/>
        <g filter="url(#filter0_d)">
            <path d="M146.381 22.0909C146.381 19.8053 148.234 17.9524 150.519 17.9524H167.095V38.6667H150.519C148.234 38.6667 146.381 36.8138 146.381 34.5281V22.0909Z" fill="#C4C4C4" fill-opacity="0.12"/>
            <path fill-rule="evenodd" clip-rule="evenodd" d="M157.67 31.5262C157.643 31.5262 157.615 31.525 157.587 31.5221C157.233 31.4871 156.955 31.237 156.878 30.8845L155.798 25.8933L154.685 28.4638C154.621 28.6113 154.476 28.7067 154.315 28.7067H153.107C152.884 28.7067 152.704 28.5263 152.704 28.3039C152.704 28.0812 152.884 27.9012 153.107 27.9012H154.051L155.06 25.5695C155.203 25.2408 155.518 25.0495 155.876 25.0853C156.231 25.1204 156.509 25.3705 156.585 25.7229L157.666 30.7142L158.779 28.1436C158.843 27.9962 158.988 27.9012 159.149 27.9012H160.357C160.58 27.9012 160.76 28.0812 160.76 28.3039C160.76 28.5263 160.58 28.7067 160.357 28.7067H159.413L158.403 31.038C158.272 31.3413 157.989 31.5262 157.67 31.5262Z" fill="white"/>
        </g>
        <g filter="url(#filter1_d)">
            <path d="M168.453 17.9524H185.029C187.315 17.9524 189.167 19.8053 189.167 22.0909V34.5281C189.167 36.8138 187.315 38.6667 185.029 38.6667H168.453V17.9524Z" fill="#C4C4C4" fill-opacity="0.12"/>
            <path fill-rule="evenodd" clip-rule="evenodd" d="M175.928 30.9147C176.13 30.8188 176.215 30.5787 176.118 30.3779C175.531 29.1481 175.785 27.6739 176.748 26.7101C178.005 25.4539 180.049 25.4536 181.305 26.7101C182.269 27.6739 182.523 29.1481 181.935 30.3779C181.839 30.5784 181.924 30.8188 182.125 30.9147C182.325 31.0104 182.566 30.9258 182.662 30.7248C183.396 29.1877 183.08 27.3455 181.875 26.1405C180.304 24.5701 177.749 24.5701 176.179 26.1405C174.974 27.3455 174.657 29.1874 175.392 30.7251C175.488 30.9256 175.728 31.0107 175.928 30.9147ZM179.028 30.1278L180.717 31.8164C179.72 32.5629 178.337 32.5632 177.34 31.8164L179.028 30.1278ZM181.591 32.1214C181.749 31.9642 181.749 31.7093 181.591 31.5518L179.313 29.2734C179.156 29.1159 178.901 29.1162 178.743 29.2734L176.465 31.5518C176.308 31.709 176.307 31.9639 176.465 32.1214C177.878 33.5349 180.178 33.5346 181.591 32.1214Z" fill="white"/>
        </g>
        <g filter="url(#filter2_f)">
            <rect x="180.5" y="58.5" width="91" height="30" rx="4.5" stroke="#00FCFC"/>
        </g>
        <rect x="180.5" y="58.5" width="91" height="30" rx="4.5" stroke="#00FCFC"/>
    </g>
    <defs>
        <filter id="filter0_d" x="118.791" y="-4.11985" width="75.8949" height="75.8949" filterUnits="userSpaceOnUse" color-interpolation-filters="sRGB">
            <feFlood flood-opacity="0" result="BackgroundImageFix"/>
            <feColorMatrix in="SourceAlpha" type="matrix" values="0 0 0 0 0 0 0 0 0 0 0 0 0 0 0 0 0 0 127 0" result="hardAlpha"/>
            <feOffset dy="5.51806"/>
            <feGaussianBlur stdDeviation="13.7951"/>
            <feColorMatrix type="matrix" values="0 0 0 0 0 0 0 0 0 0 0 0 0 0 0 0 0 0 0.25 0"/>
            <feBlend mode="normal" in2="BackgroundImageFix" result="effect1_dropShadow"/>
            <feBlend mode="normal" in="SourceGraphic" in2="effect1_dropShadow" result="shape"/>
        </filter>
        <filter id="filter1_d" x="140.863" y="-4.11985" width="75.8949" height="75.8949" filterUnits="userSpaceOnUse" color-interpolation-filters="sRGB">
            <feFlood flood-opacity="0" result="BackgroundImageFix"/>
            <feColorMatrix in="SourceAlpha" type="matrix" values="0 0 0 0 0 0 0 0 0 0 0 0 0 0 0 0 0 0 127 0" result="hardAlpha"/>
            <feOffset dy="5.51806"/>
            <feGaussianBlur stdDeviation="13.7951"/>
            <feColorMatrix type="matrix" values="0 0 0 0 0 0 0 0 0 0 0 0 0 0 0 0 0 0 0.25 0"/>
            <feBlend mode="normal" in2="BackgroundImageFix" result="effect1_dropShadow"/>
            <feBlend mode="normal" in="SourceGraphic" in2="effect1_dropShadow" result="shape"/>
        </filter>
        <filter id="filter2_f" x="176" y="54" width="100" height="39" filterUnits="userSpaceOnUse" color-interpolation-filters="sRGB">
            <feFlood flood-opacity="0" result="BackgroundImageFix"/>
            <feBlend mode="normal" in="SourceGraphic" in2="BackgroundImageFix" result="shape"/>
            <feGaussianBlur stdDeviation="2" result="effect1_foregroundBlur"/>
        </filter>
        <clipPath id="clip0">
            <rect width="283.095" height="145" fill="white"/>
        </clipPath>
    </defs>
</svg>
