<svg width="30" height="30" viewBox="0 0 30 30" fill="none" xmlns="http://www.w3.org/2000/svg">
    <path fill-rule="evenodd" clip-rule="evenodd" d="M26.2401 8.70363C26.2376 8.61363 26.2114 8.52863 26.1876 8.44238C26.1689 8.36988 26.1601 8.29613 26.1289 8.22988C26.1001 8.16488 26.0514 8.11238 26.0089 8.05238C25.9564 7.97613 25.9089 7.89988 25.8414 7.83738C25.8301 7.82613 25.8251 7.81113 25.8126 7.80113C25.7676 7.76238 25.7126 7.74863 25.6639 7.71738C25.5889 7.66863 25.5151 7.61863 25.4301 7.58613C25.3464 7.55613 25.2639 7.54863 25.1776 7.53613C25.1176 7.52738 25.0639 7.49988 25.0001 7.49988H18.7501C18.0589 7.49988 17.5001 8.05988 17.5001 8.74988C17.5001 9.43988 18.0589 9.99988 18.7501 9.99988H22.2826L17.2376 15.8849L11.8926 12.6786C11.3639 12.3586 10.6839 12.4761 10.2889 12.9499L4.03888 20.4499C3.59763 20.9799 3.66888 21.7686 4.19888 22.2099C4.43388 22.4049 4.71638 22.4999 4.99888 22.4999C5.35763 22.4999 5.71263 22.3474 5.96013 22.0499L11.5251 15.3724L16.8564 18.5724C17.3801 18.8861 18.0526 18.7761 18.4489 18.3136L23.7501 12.1286V14.9999C23.7501 15.6899 24.3089 16.2499 25.0001 16.2499C25.6914 16.2499 26.2501 15.6899 26.2501 14.9999V8.74988C26.2501 8.73363 26.2414 8.71988 26.2401 8.70363Z" fill="#00FCFC"/>
</svg>
