<svg width="30" height="30" viewBox="0 0 30 30" fill="none" xmlns="http://www.w3.org/2000/svg">
    <path fill-rule="evenodd" clip-rule="evenodd" d="M17.9115 25.0004C17.8277 25.0004 17.7415 24.9967 17.6552 24.9879C16.5552 24.8792 15.6927 24.1029 15.4552 23.0092L12.1015 7.51916L8.64774 15.4967C8.44899 15.9542 7.99774 16.2504 7.50024 16.2504H3.75024C3.05899 16.2504 2.50024 15.6904 2.50024 15.0004C2.50024 14.3092 3.05899 13.7504 3.75024 13.7504H6.68024L9.81274 6.51416C10.2565 5.49416 11.234 4.90041 12.3452 5.01166C13.4452 5.12041 14.3077 5.89666 14.5452 6.99041L17.899 22.4804L21.3527 14.5029C21.5515 14.0454 22.0015 13.7504 22.5002 13.7504H26.2502C26.9415 13.7504 27.5002 14.3092 27.5002 15.0004C27.5002 15.6904 26.9415 16.2504 26.2502 16.2504H23.3202L20.1877 23.4854C19.779 24.4267 18.9027 25.0004 17.9115 25.0004Z" fill="#00FCFC"/>
</svg>
