<svg width="30" height="30" viewBox="0 0 30 30" fill="none" xmlns="http://www.w3.org/2000/svg">
    <path fill-rule="evenodd" clip-rule="evenodd" d="M9.36895 11.8957C6.82895 14.6444 6.8827 19.0019 9.5302 21.7007C10.8227 23.0219 12.5402 23.7507 14.3702 23.7519H14.3764C16.2102 23.7519 17.9339 23.0232 19.2327 21.7007C21.9277 18.9532 21.9227 14.4844 19.2214 11.7407L15.4889 7.92692C15.1114 11.0294 13.9477 13.7519 11.8752 13.7519C11.2402 13.7519 10.2052 13.4694 9.36895 11.8957ZM14.3764 26.2519H14.3677C11.8602 26.2494 9.5077 25.2556 7.74395 23.4494C4.10145 19.7369 4.09645 13.6956 7.7327 9.9894L8.96145 8.7469C9.27895 8.4294 9.7402 8.3069 10.1764 8.42065C10.6102 8.53815 10.9477 8.8794 11.0602 9.3144C11.3477 10.4256 11.6902 10.9719 11.8789 11.1794C12.3227 10.7119 13.1252 8.82315 13.1252 5.6269C13.1252 5.44315 13.1252 5.2694 13.1152 5.09565C13.0914 4.7269 13.2327 4.36565 13.5002 4.11065C13.9964 3.6394 14.7914 3.6394 15.2677 4.1294L21.0052 9.99065C24.6552 13.6956 24.6614 19.7369 21.0177 23.4506C19.2439 25.2581 16.8864 26.2519 14.3764 26.2519Z" fill="#00FCFC"/>
</svg>
