<svg width="284" height="145" viewBox="0 0 284 145" fill="none" xmlns="http://www.w3.org/2000/svg">
    <g clip-path="url(#clip0)">
        <rect width="283.095" height="145" rx="4.0831" fill="#191E2C"/>
        <path d="M33.8853 28.4916C35.0453 28.8589 35.9539 29.4776 36.6113 30.3476C37.2686 31.1983 37.5973 32.2519 37.5973 33.5086C37.5973 35.2873 36.9013 36.6599 35.5093 37.6266C34.1366 38.5739 32.1259 39.0476 29.4773 39.0476H18.9793V18.7476H28.8973C31.3719 18.7476 33.2666 19.2213 34.5813 20.1686C35.9153 21.1159 36.5823 22.4016 36.5823 24.0256C36.5823 25.0116 36.3406 25.8913 35.8573 26.6646C35.3933 27.4379 34.7359 28.0469 33.8853 28.4916ZM23.6483 22.2856V27.0706H28.3173C29.4773 27.0706 30.3569 26.8676 30.9563 26.4616C31.5556 26.0556 31.8553 25.4563 31.8553 24.6636C31.8553 23.8709 31.5556 23.2813 30.9563 22.8946C30.3569 22.4886 29.4773 22.2856 28.3173 22.2856H23.6483ZM29.1293 35.5096C30.3666 35.5096 31.2946 35.3066 31.9133 34.9006C32.5513 34.4946 32.8703 33.8663 32.8703 33.0156C32.8703 31.3336 31.6233 30.4926 29.1293 30.4926H23.6483V35.5096H29.1293ZM44.4959 22.5756H37.9999V18.7476H55.6899V22.5756H49.1939V39.0476H44.4959V22.5756ZM67.0694 39.3956C65.0008 39.3956 63.1254 38.9509 61.4434 38.0616C59.7808 37.1529 58.4661 35.9059 57.4994 34.3206C56.5521 32.7159 56.0784 30.9083 56.0784 28.8976C56.0784 26.8869 56.5521 25.0889 57.4994 23.5036C58.4661 21.8989 59.7808 20.6519 61.4434 19.7626C63.1254 18.8539 65.0104 18.3996 67.0984 18.3996C68.8578 18.3996 70.4431 18.7089 71.8544 19.3276C73.2851 19.9463 74.4838 20.8356 75.4504 21.9956L72.4344 24.7796C71.0618 23.1943 69.3604 22.4016 67.3304 22.4016C66.0738 22.4016 64.9524 22.6819 63.9664 23.2426C62.9804 23.7839 62.2071 24.5476 61.6464 25.5336C61.1051 26.5196 60.8344 27.6409 60.8344 28.8976C60.8344 30.1543 61.1051 31.2756 61.6464 32.2616C62.2071 33.2476 62.9804 34.0209 63.9664 34.5816C64.9524 35.1229 66.0738 35.3936 67.3304 35.3936C69.3604 35.3936 71.0618 34.5913 72.4344 32.9866L75.4504 35.7706C74.4838 36.9499 73.2851 37.8489 71.8544 38.4676C70.4238 39.0863 68.8288 39.3956 67.0694 39.3956ZM86.8921 39.3956C83.9921 39.3956 81.7301 38.5933 80.1061 36.9886C78.5014 35.3839 77.6991 33.0929 77.6991 30.1156V18.7476H82.3971V29.9416C82.3971 33.5763 83.9051 35.3936 86.9211 35.3936C88.3904 35.3936 89.5117 34.9586 90.2851 34.0886C91.0584 33.1993 91.4451 31.8169 91.4451 29.9416V18.7476H96.0851V30.1156C96.0851 33.0929 95.2731 35.3839 93.6491 36.9886C92.0444 38.5933 89.7921 39.3956 86.8921 39.3956ZM106.818 39.3956C105.213 39.3956 103.657 39.1829 102.149 38.7576C100.66 38.3129 99.4612 37.7426 98.5525 37.0466L100.148 33.5086C101.018 34.1466 102.052 34.6589 103.251 35.0456C104.449 35.4323 105.648 35.6256 106.847 35.6256C108.181 35.6256 109.167 35.4323 109.805 35.0456C110.443 34.6396 110.762 34.1079 110.762 33.4506C110.762 32.9673 110.568 32.5709 110.182 32.2616C109.814 31.9329 109.331 31.6719 108.732 31.4786C108.152 31.2853 107.359 31.0726 106.354 30.8406C104.807 30.4733 103.541 30.1059 102.555 29.7386C101.569 29.3713 100.718 28.7816 100.003 27.9696C99.3065 27.1576 98.9585 26.0749 98.9585 24.7216C98.9585 23.5423 99.2775 22.4789 99.9155 21.5316C100.554 20.5649 101.511 19.8013 102.787 19.2406C104.082 18.6799 105.658 18.3996 107.514 18.3996C108.809 18.3996 110.075 18.5543 111.313 18.8636C112.55 19.1729 113.633 19.6176 114.561 20.1976L113.111 23.7646C111.235 22.7013 109.36 22.1696 107.485 22.1696C106.17 22.1696 105.194 22.3823 104.556 22.8076C103.937 23.2329 103.628 23.7936 103.628 24.4896C103.628 25.1856 103.985 25.7076 104.701 26.0556C105.435 26.3843 106.547 26.7129 108.036 27.0416C109.582 27.4089 110.849 27.7763 111.835 28.1436C112.821 28.5109 113.662 29.0909 114.358 29.8836C115.073 30.6763 115.431 31.7493 115.431 33.1026C115.431 34.2626 115.102 35.3259 114.445 36.2926C113.807 37.2399 112.84 37.9939 111.545 38.5546C110.249 39.1153 108.674 39.3956 106.818 39.3956ZM118.061 18.7476H127.283C129.487 18.7476 131.43 19.1729 133.112 20.0236C134.813 20.8549 136.128 22.0343 137.056 23.5616C138.003 25.0889 138.477 26.8676 138.477 28.8976C138.477 30.9276 138.003 32.7063 137.056 34.2336C136.128 35.7609 134.813 36.9499 133.112 37.8006C131.43 38.6319 129.487 39.0476 127.283 39.0476H118.061V18.7476ZM127.051 35.1906C129.081 35.1906 130.695 34.6299 131.894 33.5086C133.112 32.3679 133.721 30.8309 133.721 28.8976C133.721 26.9643 133.112 25.4369 131.894 24.3156C130.695 23.1749 129.081 22.6046 127.051 22.6046H122.759V35.1906H127.051Z" fill="white"/>
        <path d="M278.953 140.561C278.953 141.324 278.335 141.942 277.572 141.942L236.979 141.942C236.216 141.942 235.598 141.324 235.598 140.561C235.598 139.798 236.216 139.18 236.979 139.18L277.572 139.18C278.335 139.18 278.953 139.798 278.953 140.561Z" fill="#D5CE41"/>
        <path d="M232.385 140.561C232.385 141.324 231.766 141.942 231.004 141.942L190.41 141.942C189.648 141.942 189.029 141.324 189.029 140.561C189.029 139.798 189.648 139.18 190.41 139.18L231.004 139.18C231.766 139.18 232.385 139.798 232.385 140.561Z" fill="#D5CE41"/>
        <rect x="185.818" y="141.942" width="43.3555" height="2.7619" rx="1.38095" transform="rotate(180 185.818 141.942)" fill="#D5CE41"/>
        <rect x="139.25" y="141.942" width="43.3555" height="2.7619" rx="1.38095" transform="rotate(180 139.25 141.942)" fill="#D5CE41"/>
        <rect x="92.6836" y="141.942" width="43.3555" height="2.7619" rx="1.38095" transform="rotate(180 92.6836 141.942)" fill="#D64730"/>
        <path d="M46.1172 140.561C46.1172 141.324 45.4989 141.942 44.7362 141.942L4.14265 141.942C3.37997 141.942 2.7617 141.324 2.7617 140.561C2.7617 139.798 3.37997 139.18 4.14265 139.18L44.7362 139.18C45.4989 139.18 46.1172 139.798 46.1172 140.561Z" fill="#D64730"/>
        <rect x="227.434" y="30.381" width="5.35119" height="6.90476" rx="2.6756" fill="white"/>
        <rect x="236.799" y="27.619" width="5.35119" height="9.66667" rx="2.6756" fill="white"/>
        <rect x="246.162" y="24.8572" width="5.35119" height="12.4286" rx="2.6756" fill="white"/>
        <rect x="255.527" y="22.0952" width="5.35119" height="15.1905" rx="2.6756" fill="white"/>
        <rect x="264.893" y="19.3334" width="5.35119" height="17.9524" rx="2.6756" fill="white"/>
        <path opacity="0.5" d="M48.5339 114.462V125.095H46.5592V116.118H44.311V114.462H48.5339ZM54.3194 114.462V125.095H52.3446V116.118H50.0964V114.462H54.3194ZM57.6136 119.414C57.2692 119.414 56.9756 119.297 56.7325 119.064C56.4895 118.821 56.3679 118.518 56.3679 118.153C56.3679 117.778 56.4844 117.475 56.7173 117.242C56.9604 117.009 57.2591 116.892 57.6136 116.892C57.968 116.892 58.2617 117.009 58.4946 117.242C58.7377 117.475 58.8592 117.778 58.8592 118.153C58.8592 118.518 58.7377 118.821 58.4946 119.064C58.2516 119.297 57.9579 119.414 57.6136 119.414ZM57.6136 125.201C57.2692 125.201 56.9756 125.085 56.7325 124.852C56.4895 124.609 56.3679 124.305 56.3679 123.941C56.3679 123.566 56.4844 123.262 56.7173 123.029C56.9604 122.796 57.2591 122.68 57.6136 122.68C57.968 122.68 58.2617 122.796 58.4946 123.029C58.7377 123.262 58.8592 123.566 58.8592 123.941C58.8592 124.305 58.7377 124.609 58.4946 124.852C58.2516 125.085 57.9579 125.201 57.6136 125.201ZM63.464 118.578C64.9628 118.578 66.0717 118.872 66.7907 119.459C67.5098 120.037 67.8693 120.827 67.8693 121.829C67.8693 122.467 67.7123 123.044 67.3984 123.561C67.0844 124.077 66.6135 124.487 65.9857 124.791C65.3578 125.095 64.5831 125.247 63.6615 125.247C62.902 125.247 62.1678 125.141 61.4589 124.928C60.75 124.705 60.1525 124.401 59.6664 124.017L60.5019 122.482C60.8968 122.806 61.3677 123.065 61.9146 123.257C62.4716 123.439 63.0438 123.53 63.6311 123.53C64.3299 123.53 64.8767 123.389 65.2717 123.105C65.6768 122.811 65.8793 122.411 65.8793 121.905C65.8793 121.358 65.6616 120.948 65.2261 120.675C64.8008 120.391 64.0666 120.249 63.0235 120.249H60.4563L61.0032 114.462H67.2465V116.118H62.6741L62.4463 118.578H63.464ZM73.4609 118.852C74.4432 118.973 75.1926 119.308 75.7091 119.854C76.2256 120.401 76.4838 121.085 76.4838 121.905C76.4838 122.523 76.3268 123.085 76.0129 123.591C75.699 124.098 75.223 124.503 74.585 124.806C73.9571 125.1 73.1875 125.247 72.276 125.247C71.5165 125.247 70.7823 125.141 70.0734 124.928C69.3747 124.705 68.7772 124.401 68.281 124.017L69.1316 122.482C69.5164 122.806 69.9823 123.065 70.5291 123.257C71.0861 123.439 71.6583 123.53 72.2457 123.53C72.9444 123.53 73.4913 123.389 73.8862 123.105C74.2913 122.811 74.4939 122.417 74.4939 121.92C74.4939 121.424 74.3014 121.039 73.9166 120.766C73.5419 120.482 72.9647 120.34 72.1849 120.34H71.2127V118.989L73.628 116.118H68.7974V114.462H76.0433V115.783L73.4609 118.852Z" fill="white"/>
        <g opacity="0.5">
            <path fill-rule="evenodd" clip-rule="evenodd" d="M27.6145 111.417C22.8502 111.417 18.9922 115.283 18.9922 120.048C18.9922 124.812 22.8502 128.679 27.6145 128.679C32.3874 128.679 36.2541 124.812 36.2541 120.048C36.2541 115.283 32.3874 111.417 27.6145 111.417ZM27.6231 126.952C23.8082 126.952 20.7183 123.863 20.7183 120.048C20.7183 116.233 23.8082 113.143 27.6231 113.143C31.438 113.143 34.5279 116.233 34.5279 120.048C34.5279 123.863 31.438 126.952 27.6231 126.952ZM26.76 115.732H28.0546V120.264L31.9386 122.568L31.2912 123.63L26.76 120.911V115.732Z" fill="white"/>
        </g>
        <path opacity="0.5" d="M135.185 118.579C136.683 118.579 137.792 118.872 138.511 119.46C139.23 120.037 139.59 120.827 139.59 121.829C139.59 122.467 139.433 123.045 139.119 123.561C138.805 124.077 138.334 124.488 137.706 124.791C137.078 125.095 136.304 125.247 135.382 125.247C134.623 125.247 133.888 125.141 133.179 124.928C132.471 124.705 131.873 124.402 131.387 124.017L132.222 122.482C132.617 122.807 133.088 123.065 133.635 123.257C134.192 123.439 134.764 123.531 135.352 123.531C136.05 123.531 136.597 123.389 136.992 123.105C137.397 122.812 137.6 122.412 137.6 121.905C137.6 121.358 137.382 120.948 136.947 120.675C136.521 120.391 135.787 120.249 134.744 120.249H132.177L132.724 114.462H138.967V116.118H134.395L134.167 118.579H135.185ZM155.743 116.892C156.765 116.892 157.576 117.191 158.173 117.789C158.771 118.376 159.069 119.262 159.069 120.447V125.095H157.171V120.69C157.171 119.981 157.014 119.449 156.7 119.095C156.386 118.73 155.935 118.548 155.348 118.548C154.71 118.548 154.198 118.761 153.813 119.186C153.429 119.601 153.236 120.199 153.236 120.979V125.095H151.337V120.69C151.337 119.981 151.18 119.449 150.866 119.095C150.553 118.73 150.102 118.548 149.515 118.548C148.866 118.548 148.35 118.756 147.965 119.171C147.59 119.586 147.403 120.189 147.403 120.979V125.095H145.504V116.984H147.312V118.016C147.616 117.652 147.995 117.373 148.451 117.181C148.907 116.989 149.413 116.892 149.97 116.892C150.578 116.892 151.115 117.009 151.58 117.242C152.056 117.465 152.431 117.799 152.705 118.244C153.039 117.819 153.469 117.49 153.996 117.257C154.522 117.014 155.105 116.892 155.743 116.892ZM161.496 116.984H163.395V125.095H161.496V116.984ZM162.453 115.647C162.108 115.647 161.82 115.54 161.587 115.328C161.354 115.105 161.238 114.832 161.238 114.507C161.238 114.183 161.354 113.915 161.587 113.702C161.82 113.48 162.108 113.368 162.453 113.368C162.797 113.368 163.086 113.475 163.319 113.687C163.552 113.89 163.668 114.148 163.668 114.462C163.668 114.796 163.552 115.08 163.319 115.313C163.096 115.535 162.807 115.647 162.453 115.647ZM170.489 116.892C171.512 116.892 172.333 117.191 172.95 117.789C173.568 118.386 173.877 119.272 173.877 120.447V125.095H171.978V120.69C171.978 119.981 171.811 119.449 171.477 119.095C171.143 118.73 170.667 118.548 170.049 118.548C169.35 118.548 168.798 118.761 168.393 119.186C167.988 119.601 167.786 120.204 167.786 120.994V125.095H165.887V116.984H167.694V118.032C168.008 117.657 168.403 117.373 168.879 117.181C169.355 116.989 169.892 116.892 170.489 116.892Z" fill="white"/>
        <g opacity="0.5">
            <path fill-rule="evenodd" clip-rule="evenodd" d="M115.795 126.358C115.738 126.358 115.678 126.355 115.618 126.349C114.859 126.274 114.263 125.738 114.099 124.983L111.784 114.287L109.399 119.795C109.262 120.111 108.95 120.316 108.607 120.316H106.017C105.54 120.316 105.154 119.929 105.154 119.453C105.154 118.976 105.54 118.59 106.017 118.59H108.04L110.203 113.593C110.51 112.889 111.185 112.479 111.952 112.556C112.712 112.631 113.307 113.167 113.471 113.922L115.787 124.618L118.172 119.109C118.309 118.793 118.619 118.59 118.964 118.59H121.553C122.03 118.59 122.416 118.976 122.416 119.453C122.416 119.929 122.03 120.316 121.553 120.316H119.53L117.367 125.312C117.085 125.961 116.48 126.358 115.795 126.358Z" fill="#F2F2F2"/>
        </g>
        <g opacity="0.5">
            <path fill-rule="evenodd" clip-rule="evenodd" d="M217.642 120.048L213.672 124.018L214.88 125.226L220.059 120.048L214.88 114.869L213.672 116.077L217.642 120.048ZM205.214 120.048L209.184 124.018L207.975 125.226L202.797 120.048L207.975 114.869L209.184 116.078L205.214 120.048Z" fill="white"/>
        </g>
        <path opacity="0.5" d="M233.66 114.462C234.582 114.462 235.382 114.614 236.06 114.917C236.749 115.221 237.276 115.657 237.64 116.224C238.005 116.791 238.187 117.464 238.187 118.244C238.187 119.014 238.005 119.687 237.64 120.265C237.276 120.832 236.749 121.267 236.06 121.571C235.382 121.875 234.582 122.027 233.66 122.027H231.26V125.095H229.285V114.462H233.66ZM233.569 120.356C234.43 120.356 235.083 120.173 235.529 119.809C235.974 119.444 236.197 118.923 236.197 118.244C236.197 117.566 235.974 117.044 235.529 116.68C235.083 116.315 234.43 116.133 233.569 116.133H231.26V120.356H233.569ZM243.604 125.247C242.783 125.247 241.988 125.131 241.219 124.898C240.459 124.665 239.857 124.356 239.411 123.971L240.095 122.437C240.53 122.781 241.062 123.065 241.69 123.287C242.328 123.5 242.966 123.606 243.604 123.606C244.394 123.606 244.981 123.48 245.366 123.227C245.761 122.973 245.958 122.639 245.958 122.224C245.958 121.92 245.847 121.672 245.624 121.48C245.411 121.277 245.138 121.12 244.804 121.009C244.47 120.897 244.014 120.771 243.437 120.629C242.626 120.437 241.968 120.244 241.462 120.052C240.966 119.859 240.535 119.561 240.171 119.156C239.816 118.74 239.639 118.183 239.639 117.485C239.639 116.897 239.796 116.366 240.11 115.89C240.434 115.404 240.915 115.019 241.553 114.735C242.201 114.452 242.991 114.31 243.923 114.31C244.571 114.31 245.209 114.391 245.837 114.553C246.465 114.715 247.006 114.948 247.462 115.252L246.839 116.786C246.373 116.512 245.887 116.305 245.381 116.163C244.875 116.021 244.383 115.95 243.907 115.95C243.128 115.95 242.545 116.082 242.161 116.345C241.786 116.609 241.599 116.958 241.599 117.394C241.599 117.697 241.705 117.945 241.918 118.138C242.14 118.33 242.419 118.482 242.753 118.594C243.087 118.705 243.543 118.832 244.12 118.973C244.91 119.156 245.558 119.348 246.065 119.551C246.571 119.743 247.001 120.042 247.356 120.447C247.72 120.852 247.903 121.399 247.903 122.087C247.903 122.675 247.741 123.206 247.416 123.682C247.103 124.158 246.621 124.538 245.973 124.822C245.325 125.105 244.535 125.247 243.604 125.247ZM256.757 122.634H251.441L250.392 125.095H248.357L253.142 114.462H255.086L259.886 125.095H257.821L256.757 122.634ZM256.104 121.085L254.099 116.437L252.109 121.085H256.104ZM268.196 125.095L266.024 121.981C265.933 121.991 265.796 121.996 265.614 121.996H263.213V125.095H261.239V114.462H265.614C266.535 114.462 267.335 114.614 268.014 114.917C268.702 115.221 269.229 115.657 269.593 116.224C269.958 116.791 270.14 117.464 270.14 118.244C270.14 119.044 269.943 119.733 269.548 120.31C269.163 120.887 268.606 121.318 267.877 121.601L270.323 125.095H268.196ZM268.15 118.244C268.15 117.566 267.928 117.044 267.482 116.68C267.036 116.315 266.383 116.133 265.522 116.133H263.213V120.371H265.522C266.383 120.371 267.036 120.189 267.482 119.824C267.928 119.449 268.15 118.923 268.15 118.244Z" fill="white"/>
        <path d="M197.318 85.9836C195.637 85.9836 194.006 85.7608 192.426 85.3152C190.867 84.8494 189.611 84.2519 188.659 83.5227L190.33 79.8163C191.242 80.4846 192.325 81.0214 193.581 81.4264C194.837 81.8315 196.092 82.0341 197.348 82.0341C198.746 82.0341 199.779 81.8315 200.447 81.4264C201.115 81.0011 201.45 80.4441 201.45 79.7555C201.45 79.2491 201.247 78.8339 200.842 78.5099C200.457 78.1656 199.951 77.8921 199.323 77.6896C198.715 77.4871 197.885 77.2643 196.832 77.0212C195.211 76.6364 193.885 76.2516 192.852 75.8667C191.819 75.4819 190.928 74.8642 190.178 74.0135C189.449 73.1628 189.085 72.0286 189.085 70.6108C189.085 69.3753 189.419 68.2614 190.087 67.2689C190.756 66.2562 191.758 65.4562 193.095 64.8688C194.452 64.2815 196.103 63.9878 198.047 63.9878C199.404 63.9878 200.731 64.1498 202.027 64.4739C203.323 64.7979 204.457 65.2638 205.43 65.8714L203.91 69.6083C201.946 68.4943 199.981 67.9373 198.017 67.9373C196.639 67.9373 195.616 68.1601 194.948 68.6057C194.3 69.0513 193.976 69.6386 193.976 70.3678C193.976 71.0969 194.351 71.6438 195.1 72.0084C195.87 72.3527 197.034 72.697 198.594 73.0413C200.214 73.4261 201.541 73.811 202.574 74.1958C203.607 74.5806 204.488 75.1882 205.217 76.0186C205.966 76.8491 206.341 77.9731 206.341 79.3909C206.341 80.6062 205.997 81.7201 205.308 82.7328C204.64 83.7253 203.627 84.5152 202.27 85.1025C200.913 85.6899 199.262 85.9836 197.318 85.9836ZM226.17 81.6695V85.619H209.704V64.3524H225.776V68.3019H214.595V72.9198H224.469V76.7478H214.595V81.6695H226.17ZM230.087 64.3524H235.008V81.6087H245.672V85.619H230.087V64.3524ZM248.422 64.3524H253.344V81.6087H264.007V85.619H248.422V64.3524Z" fill="#FF665A"/>
        <rect x="19.334" y="46.9524" width="124.286" height="23.4762" rx="3.82969" fill="#D64730" fill-opacity="0.37"/>
        <path fill-rule="evenodd" clip-rule="evenodd" d="M32.7405 52.4762H43.8599C44.2197 52.4762 44.5145 52.771 44.5145 53.1308V53.2026C44.5145 53.5623 44.2197 53.8571 43.8599 53.8571H32.7405C32.3808 53.8571 32.0859 53.5623 32.0859 53.2026V53.1308C32.0859 52.771 32.3808 52.4762 32.7405 52.4762ZM38.8179 56.7321L38.8179 62.1787C38.8179 62.5384 38.5231 62.8332 38.1634 62.8332H38.0915C37.7318 62.8332 37.437 62.5384 37.437 62.1787V56.7321L36.5442 57.6249C36.2742 57.8949 35.8378 57.8949 35.5679 57.6249C35.4332 57.4903 35.3655 57.3135 35.3655 57.1367C35.3655 56.96 35.4332 56.7839 35.5679 56.6486L37.6393 54.5771C37.9093 54.3078 38.3456 54.3078 38.6156 54.5771L40.687 56.6486C40.957 56.9185 40.957 57.3556 40.687 57.6249C40.4171 57.8949 39.9807 57.8949 39.7107 57.6249L38.8179 56.7321Z" fill="white"/>
        <path d="M59.3249 57.4665C60.3413 57.6322 61.1201 58.0133 61.6615 58.6099C62.2028 59.1954 62.4735 59.9246 62.4735 60.7973C62.4735 61.4712 62.2967 62.0954 61.9432 62.6699C61.5897 63.2333 61.0483 63.6863 60.3192 64.0288C59.6011 64.3712 58.7173 64.5425 57.6678 64.5425C56.8502 64.5425 56.0438 64.4375 55.2483 64.2276C54.464 64.0067 53.7956 63.6973 53.2432 63.2996L54.2872 61.2448C54.7291 61.5762 55.2373 61.8358 55.8118 62.0236C56.3973 62.2004 56.9939 62.2888 57.6015 62.2888C58.2754 62.2888 58.8057 62.1617 59.1923 61.9076C59.579 61.6425 59.7723 61.2724 59.7723 60.7973C59.7723 59.8472 59.0487 59.3722 57.6015 59.3722H56.3752V57.5991L58.7615 54.8979H53.8232V52.7436H61.9432V54.4836L59.3249 57.4665ZM67.5283 57.1019C69.1633 57.1019 70.3675 57.4278 71.1409 58.0796C71.9252 58.7314 72.3174 59.6042 72.3174 60.6979C72.3174 61.405 72.1407 62.0512 71.7871 62.6368C71.4336 63.2112 70.8923 63.6752 70.1631 64.0288C69.445 64.3712 68.5557 64.5425 67.4951 64.5425C66.6776 64.5425 65.8711 64.4375 65.0757 64.2276C64.2913 64.0067 63.623 63.6973 63.0706 63.2996L64.1311 61.2448C64.573 61.5762 65.0812 61.8358 65.6557 62.0236C66.2302 62.2004 66.8212 62.2888 67.4289 62.2888C68.1028 62.2888 68.633 62.1562 69.0197 61.8911C69.4064 61.6259 69.5997 61.2558 69.5997 60.7808C69.5997 60.2836 69.3953 59.908 68.9866 59.6539C68.5889 59.3998 67.8929 59.2728 66.8986 59.2728H63.9323L64.5289 52.7436H71.6049V54.8979H66.766L66.5837 57.1019H67.5283ZM81.9926 62.1562V64.3436H73.2263V62.6036L77.7006 58.3779C78.1756 57.925 78.496 57.5383 78.6617 57.2179C78.8274 56.8865 78.9103 56.5606 78.9103 56.2402C78.9103 55.7762 78.7501 55.4227 78.4297 55.1796C78.1204 54.9255 77.6619 54.7985 77.0543 54.7985C76.5461 54.7985 76.0876 54.8979 75.6788 55.0968C75.2701 55.2846 74.9276 55.5718 74.6514 55.9585L72.696 54.6991C73.1489 54.0252 73.7731 53.5004 74.5686 53.1248C75.364 52.7381 76.2754 52.5448 77.3028 52.5448C78.1646 52.5448 78.9158 52.6884 79.5566 52.9756C80.2084 53.2518 80.711 53.6495 81.0646 54.1688C81.4291 54.677 81.6114 55.2791 81.6114 55.9751C81.6114 56.6048 81.4788 57.1958 81.2137 57.7482C80.9486 58.3006 80.4348 58.9303 79.6726 59.6373L77.0046 62.1562H81.9926ZM87.1768 52.5448C88.8008 52.5448 90.0713 53.0419 90.9882 54.0362C91.9052 55.0194 92.3637 56.4391 92.3637 58.2951C92.3637 59.6097 92.1151 60.7366 91.618 61.6756C91.1319 62.6147 90.4414 63.3272 89.5465 63.8133C88.6517 64.2994 87.6187 64.5425 86.4477 64.5425C85.829 64.5425 85.238 64.4762 84.6745 64.3436C84.1111 64.2 83.6305 64.0012 83.2328 63.7471L84.2271 61.7751C84.7905 62.1617 85.5142 62.3551 86.398 62.3551C87.3812 62.3551 88.1601 62.0678 88.7345 61.4933C89.309 60.9078 89.6183 60.0682 89.6625 58.9745C88.9665 59.6705 88.0054 60.0185 86.7791 60.0185C86.0389 60.0185 85.365 59.8693 84.7574 59.5711C84.1498 59.2728 83.6692 58.853 83.3157 58.3116C82.9622 57.7592 82.7854 57.124 82.7854 56.4059C82.7854 55.6326 82.9787 54.9532 83.3654 54.3676C83.7521 53.7821 84.2768 53.3347 84.9397 53.0253C85.6136 52.705 86.3593 52.5448 87.1768 52.5448ZM87.3757 58.0133C87.9612 58.0133 88.4362 57.8532 88.8008 57.5328C89.1764 57.2013 89.3642 56.7815 89.3642 56.2733C89.3642 55.7652 89.182 55.3509 88.8174 55.0305C88.4639 54.7101 87.9722 54.5499 87.3425 54.5499C86.7681 54.5499 86.2985 54.7046 85.934 55.0139C85.5804 55.3232 85.4037 55.7431 85.4037 56.2733C85.4037 56.8036 85.5804 57.229 85.934 57.5493C86.2985 57.8587 86.7791 58.0133 87.3757 58.0133ZM101.589 58.2453C102.164 58.5326 102.6 58.9082 102.898 59.3722C103.208 59.8362 103.362 60.372 103.362 60.9796C103.362 61.6977 103.158 62.3274 102.749 62.8688C102.341 63.3991 101.766 63.8133 101.026 64.1116C100.286 64.3989 99.4295 64.5425 98.4573 64.5425C97.4851 64.5425 96.6289 64.3989 95.8887 64.1116C95.1596 63.8133 94.5906 63.3991 94.1819 62.8688C93.7842 62.3274 93.5853 61.6977 93.5853 60.9796C93.5853 60.372 93.7344 59.8362 94.0327 59.3722C94.3421 58.9082 94.7784 58.5326 95.3419 58.2453C94.911 57.9802 94.5796 57.6488 94.3476 57.2511C94.1156 56.8423 93.9996 56.3783 93.9996 55.8591C93.9996 55.1852 94.1874 54.5996 94.563 54.1025C94.9386 53.6053 95.4634 53.2242 96.1373 52.9591C96.8112 52.6829 97.5845 52.5448 98.4573 52.5448C99.3411 52.5448 100.12 52.6829 100.794 52.9591C101.479 53.2242 102.009 53.6053 102.385 54.1025C102.76 54.5996 102.948 55.1852 102.948 55.8591C102.948 56.3783 102.832 56.8423 102.6 57.2511C102.368 57.6488 102.031 57.9802 101.589 58.2453ZM98.4573 54.5168C97.916 54.5168 97.4796 54.6493 97.1482 54.9145C96.8278 55.1686 96.6676 55.5221 96.6676 55.9751C96.6676 56.417 96.8278 56.765 97.1482 57.0191C97.4685 57.2732 97.9049 57.4002 98.4573 57.4002C99.0097 57.4002 99.4516 57.2732 99.783 57.0191C100.114 56.765 100.28 56.417 100.28 55.9751C100.28 55.5221 100.114 55.1686 99.783 54.9145C99.4516 54.6493 99.0097 54.5168 98.4573 54.5168ZM98.4573 62.5705C99.1312 62.5705 99.6615 62.4213 100.048 62.1231C100.446 61.8137 100.645 61.405 100.645 60.8968C100.645 60.3886 100.446 59.9853 100.048 59.6871C99.6615 59.3888 99.1312 59.2396 98.4573 59.2396C97.7944 59.2396 97.2697 59.3888 96.883 59.6871C96.4964 59.9853 96.303 60.3886 96.303 60.8968C96.303 61.416 96.4964 61.8248 96.883 62.1231C97.2697 62.4213 97.7944 62.5705 98.4573 62.5705ZM106.278 64.4762C105.825 64.4762 105.444 64.3215 105.134 64.0122C104.825 63.7029 104.67 63.3162 104.67 62.8522C104.67 62.3772 104.825 61.996 105.134 61.7088C105.444 61.4105 105.825 61.2613 106.278 61.2613C106.731 61.2613 107.112 61.4105 107.421 61.7088C107.73 61.996 107.885 62.3772 107.885 62.8522C107.885 63.3162 107.73 63.7029 107.421 64.0122C107.112 64.3215 106.731 64.4762 106.278 64.4762ZM113.851 64.5425C112.89 64.5425 112.034 64.305 111.283 63.8299C110.531 63.3549 109.94 62.6699 109.51 61.7751C109.09 60.8692 108.88 59.792 108.88 58.5436C108.88 57.2952 109.09 56.2236 109.51 55.3288C109.94 54.4229 110.531 53.7324 111.283 53.2573C112.034 52.7823 112.89 52.5448 113.851 52.5448C114.812 52.5448 115.669 52.7823 116.42 53.2573C117.171 53.7324 117.757 54.4229 118.176 55.3288C118.607 56.2236 118.823 57.2952 118.823 58.5436C118.823 59.792 118.607 60.8692 118.176 61.7751C117.757 62.6699 117.171 63.3549 116.42 63.8299C115.669 64.305 114.812 64.5425 113.851 64.5425ZM113.851 62.2722C114.558 62.2722 115.111 61.9684 115.508 61.3608C115.917 60.7532 116.122 59.8141 116.122 58.5436C116.122 57.2732 115.917 56.3341 115.508 55.7265C115.111 55.1189 114.558 54.8151 113.851 54.8151C113.155 54.8151 112.603 55.1189 112.194 55.7265C111.796 56.3341 111.598 57.2732 111.598 58.5436C111.598 59.8141 111.796 60.7532 112.194 61.3608C112.603 61.9684 113.155 62.2722 113.851 62.2722Z" fill="white"/>
        <rect x="19.334" y="75.9524" width="124.286" height="23.4762" rx="3.82969" fill="#1BC53C" fill-opacity="0.57"/>
        <path fill-rule="evenodd" clip-rule="evenodd" d="M32.7405 93.9048H43.8599C44.2197 93.9048 44.5145 93.61 44.5145 93.2502V93.1784C44.5145 92.8187 44.2197 92.5238 43.8599 92.5238H32.7405C32.3808 92.5238 32.0859 92.8187 32.0859 93.1784V93.2502C32.0859 93.61 32.3808 93.9048 32.7405 93.9048ZM38.8179 89.6488L38.8179 84.2023C38.8179 83.8425 38.5231 83.5477 38.1634 83.5477H38.0915C37.7318 83.5477 37.437 83.8425 37.437 84.2023V89.6488L36.5442 88.7561C36.2742 88.4861 35.8378 88.4861 35.5679 88.7561C35.4332 88.8907 35.3655 89.0675 35.3655 89.2442C35.3655 89.421 35.4332 89.5971 35.5679 89.7324L37.6393 91.8038C37.9093 92.0731 38.3456 92.0731 38.6156 91.8038L40.687 89.7324C40.957 89.4624 40.957 89.0253 40.687 88.7561C40.4171 88.4861 39.9807 88.4861 39.7107 88.7561L38.8179 89.6488Z" fill="white"/>
        <path d="M59.3249 86.4665C60.3413 86.6322 61.1201 87.0133 61.6615 87.6099C62.2028 88.1954 62.4735 88.9246 62.4735 89.7973C62.4735 90.4712 62.2967 91.0954 61.9432 91.6699C61.5897 92.2333 61.0483 92.6863 60.3192 93.0288C59.6011 93.3712 58.7173 93.5425 57.6678 93.5425C56.8502 93.5425 56.0438 93.4375 55.2483 93.2276C54.464 93.0067 53.7956 92.6973 53.2432 92.2996L54.2872 90.2448C54.7291 90.5762 55.2373 90.8358 55.8118 91.0236C56.3973 91.2004 56.9939 91.2888 57.6015 91.2888C58.2754 91.2888 58.8057 91.1617 59.1923 90.9076C59.579 90.6425 59.7723 90.2724 59.7723 89.7973C59.7723 88.8472 59.0487 88.3722 57.6015 88.3722H56.3752V86.5991L58.7615 83.8979H53.8232V81.7436H61.9432V83.4836L59.3249 86.4665ZM69.2975 86.0688C70.0377 86.0688 70.7116 86.2179 71.3193 86.5162C71.9269 86.8145 72.4074 87.2398 72.761 87.7922C73.1145 88.3335 73.2913 88.9632 73.2913 89.6813C73.2913 90.4547 73.0979 91.1341 72.7113 91.7196C72.3246 92.3052 71.7943 92.7581 71.1204 93.0785C70.4575 93.3878 69.7174 93.5425 68.8998 93.5425C67.2758 93.5425 66.0054 93.0453 65.0884 92.0511C64.1714 91.0568 63.713 89.6372 63.713 87.7922C63.713 86.4775 63.9615 85.3507 64.4587 84.4116C64.9558 83.4726 65.6463 82.76 66.5301 82.2739C67.425 81.7878 68.4579 81.5448 69.629 81.5448C70.2476 81.5448 70.8387 81.6166 71.4021 81.7602C71.9766 81.8928 72.4627 82.0861 72.8604 82.3402L71.8661 84.3122C71.2916 83.9255 70.568 83.7322 69.6953 83.7322C68.712 83.7322 67.9332 84.0194 67.3587 84.5939C66.7842 85.1684 66.4749 86.0025 66.4307 87.0962C67.1156 86.4112 68.0713 86.0688 69.2975 86.0688ZM68.7507 91.5373C69.3252 91.5373 69.7892 91.3827 70.1427 91.0733C70.5073 90.764 70.6895 90.3442 70.6895 89.8139C70.6895 89.2836 70.5073 88.8638 70.1427 88.5545C69.7892 88.2341 69.3141 88.0739 68.7175 88.0739C68.132 88.0739 67.6514 88.2396 67.2758 88.5711C66.9002 88.8914 66.7124 89.3057 66.7124 89.8139C66.7124 90.3221 66.8947 90.7364 67.2593 91.0568C67.6238 91.3772 68.121 91.5373 68.7507 91.5373ZM78.3409 81.5448C79.9649 81.5448 81.2354 82.0419 82.1523 83.0362C83.0693 84.0194 83.5277 85.4391 83.5277 87.2951C83.5277 88.6097 83.2792 89.7366 82.782 90.6756C82.2959 91.6147 81.6055 92.3272 80.7106 92.8133C79.8157 93.2994 78.7828 93.5425 77.6117 93.5425C76.9931 93.5425 76.402 93.4762 75.8386 93.3436C75.2752 93.2 74.7946 93.0012 74.3969 92.7471L75.3912 90.7751C75.9546 91.1617 76.6782 91.3551 77.562 91.3551C78.5453 91.3551 79.3241 91.0678 79.8986 90.4933C80.4731 89.9078 80.7824 89.0682 80.8266 87.9745C80.1306 88.6705 79.1695 89.0185 77.9432 89.0185C77.203 89.0185 76.5291 88.8693 75.9215 88.5711C75.3138 88.2728 74.8333 87.853 74.4797 87.3116C74.1262 86.7592 73.9495 86.124 73.9495 85.4059C73.9495 84.6326 74.1428 83.9532 74.5295 83.3676C74.9161 82.7821 75.4409 82.3347 76.1037 82.0253C76.7776 81.705 77.5234 81.5448 78.3409 81.5448ZM78.5397 87.0133C79.1253 87.0133 79.6003 86.8532 79.9649 86.5328C80.3405 86.2013 80.5283 85.7815 80.5283 85.2733C80.5283 84.7652 80.346 84.3509 79.9815 84.0305C79.6279 83.7101 79.1363 83.5499 78.5066 83.5499C77.9321 83.5499 77.4626 83.7046 77.098 84.0139C76.7445 84.3232 76.5677 84.7431 76.5677 85.2733C76.5677 85.8036 76.7445 86.229 77.098 86.5493C77.4626 86.8587 77.9432 87.0133 78.5397 87.0133ZM92.7534 87.2453C93.3278 87.5326 93.7642 87.9082 94.0625 88.3722C94.3718 88.8362 94.5265 89.372 94.5265 89.9796C94.5265 90.6977 94.3221 91.3274 93.9134 91.8688C93.5046 92.3991 92.9301 92.8133 92.1899 93.1116C91.4497 93.3989 90.5936 93.5425 89.6214 93.5425C88.6492 93.5425 87.793 93.3989 87.0528 93.1116C86.3236 92.8133 85.7547 92.3991 85.3459 91.8688C84.9482 91.3274 84.7494 90.6977 84.7494 89.9796C84.7494 89.372 84.8985 88.8362 85.1968 88.3722C85.5061 87.9082 85.9425 87.5326 86.5059 87.2453C86.0751 86.9802 85.7436 86.6488 85.5116 86.2511C85.2796 85.8423 85.1636 85.3783 85.1636 84.8591C85.1636 84.1852 85.3515 83.5996 85.7271 83.1025C86.1027 82.6053 86.6275 82.2242 87.3014 81.9591C87.9753 81.6829 88.7486 81.5448 89.6214 81.5448C90.5052 81.5448 91.284 81.6829 91.9579 81.9591C92.6429 82.2242 93.1732 82.6053 93.5488 83.1025C93.9244 83.5996 94.1122 84.1852 94.1122 84.8591C94.1122 85.3783 93.9962 85.8423 93.7642 86.2511C93.5322 86.6488 93.1953 86.9802 92.7534 87.2453ZM89.6214 83.5168C89.08 83.5168 88.6436 83.6493 88.3122 83.9145C87.9918 84.1686 87.8316 84.5221 87.8316 84.9751C87.8316 85.417 87.9918 85.765 88.3122 86.0191C88.6326 86.2732 89.069 86.4002 89.6214 86.4002C90.1737 86.4002 90.6156 86.2732 90.9471 86.0191C91.2785 85.765 91.4442 85.417 91.4442 84.9751C91.4442 84.5221 91.2785 84.1686 90.9471 83.9145C90.6156 83.6493 90.1737 83.5168 89.6214 83.5168ZM89.6214 91.5705C90.2953 91.5705 90.8256 91.4213 91.2122 91.1231C91.6099 90.8137 91.8088 90.405 91.8088 89.8968C91.8088 89.3886 91.6099 88.9853 91.2122 88.6871C90.8256 88.3888 90.2953 88.2396 89.6214 88.2396C88.9585 88.2396 88.4337 88.3888 88.0471 88.6871C87.6604 88.9853 87.4671 89.3886 87.4671 89.8968C87.4671 90.416 87.6604 90.8248 88.0471 91.1231C88.4337 91.4213 88.9585 91.5705 89.6214 91.5705ZM104.837 81.7436V83.4836L100.528 93.3436H97.6114L101.771 83.9311H97.9262V85.8202H95.5399V81.7436H104.837ZM106.747 93.4762C106.294 93.4762 105.913 93.3215 105.604 93.0122C105.294 92.7029 105.14 92.3162 105.14 91.8522C105.14 91.3772 105.294 90.996 105.604 90.7088C105.913 90.4105 106.294 90.2613 106.747 90.2613C107.2 90.2613 107.581 90.4105 107.89 90.7088C108.2 90.996 108.354 91.3772 108.354 91.8522C108.354 92.3162 108.2 92.7029 107.89 93.0122C107.581 93.3215 107.2 93.4762 106.747 93.4762ZM113.775 81.7436V93.3436H111.09V83.8979H108.77V81.7436H113.775Z" fill="white"/>
        <g filter="url(#filter0_d)">
            <path d="M146.381 22.0909C146.381 19.8053 148.234 17.9524 150.519 17.9524H167.095V38.6667H150.519C148.234 38.6667 146.381 36.8138 146.381 34.5281V22.0909Z" fill="#C4C4C4" fill-opacity="0.12"/>
            <path fill-rule="evenodd" clip-rule="evenodd" d="M157.671 31.5262C157.644 31.5262 157.616 31.525 157.588 31.5221C157.234 31.4871 156.956 31.237 156.879 30.8845L155.799 25.8933L154.686 28.4638C154.622 28.6113 154.476 28.7067 154.316 28.7067H153.108C152.885 28.7067 152.705 28.5263 152.705 28.3039C152.705 28.0812 152.885 27.9012 153.108 27.9012H154.052L155.061 25.5695C155.204 25.2408 155.519 25.0495 155.877 25.0853C156.232 25.1204 156.51 25.3705 156.586 25.7229L157.667 30.7142L158.78 28.1436C158.844 27.9962 158.989 27.9012 159.15 27.9012H160.358C160.581 27.9012 160.761 28.0812 160.761 28.3039C160.761 28.5263 160.581 28.7067 160.358 28.7067H159.414L158.404 31.038C158.273 31.3413 157.99 31.5262 157.671 31.5262Z" fill="white"/>
        </g>
        <g filter="url(#filter1_d)">
            <path d="M168.453 17.9524H185.029C187.315 17.9524 189.167 19.8053 189.167 22.0909V34.5281C189.167 36.8138 187.315 38.6667 185.029 38.6667H168.453V17.9524Z" fill="#C4C4C4" fill-opacity="0.12"/>
            <path fill-rule="evenodd" clip-rule="evenodd" d="M175.927 30.9147C176.129 30.8188 176.214 30.5787 176.117 30.3779C175.53 29.1481 175.784 27.6739 176.747 26.7101C178.004 25.4539 180.048 25.4536 181.304 26.7101C182.268 27.6739 182.522 29.1481 181.934 30.3779C181.838 30.5784 181.923 30.8188 182.124 30.9147C182.324 31.0104 182.565 30.9258 182.661 30.7248C183.395 29.1877 183.079 27.3455 181.874 26.1405C180.303 24.5701 177.748 24.5701 176.178 26.1405C174.973 27.3455 174.656 29.1874 175.391 30.7251C175.487 30.9256 175.727 31.0107 175.927 30.9147ZM179.027 30.1278L180.716 31.8164C179.719 32.5629 178.336 32.5632 177.339 31.8164L179.027 30.1278ZM181.59 32.1214C181.748 31.9642 181.748 31.7093 181.59 31.5518L179.312 29.2734C179.155 29.1159 178.9 29.1162 178.742 29.2734L176.464 31.5518C176.307 31.709 176.306 31.9639 176.464 32.1214C177.877 33.5349 180.177 33.5346 181.59 32.1214Z" fill="white"/>
        </g>
        <g filter="url(#filter2_f)">
            <rect x="14.5" y="42.5" width="137" height="62" rx="4.5" stroke="#00FCFC"/>
        </g>
        <rect x="14.5" y="42.5" width="137" height="62" rx="4.5" stroke="#00FCFC"/>
    </g>
    <defs>
        <filter id="filter0_d" x="118.791" y="-4.11985" width="75.8949" height="75.8949" filterUnits="userSpaceOnUse" color-interpolation-filters="sRGB">
            <feFlood flood-opacity="0" result="BackgroundImageFix"/>
            <feColorMatrix in="SourceAlpha" type="matrix" values="0 0 0 0 0 0 0 0 0 0 0 0 0 0 0 0 0 0 127 0" result="hardAlpha"/>
            <feOffset dy="5.51806"/>
            <feGaussianBlur stdDeviation="13.7951"/>
            <feColorMatrix type="matrix" values="0 0 0 0 0 0 0 0 0 0 0 0 0 0 0 0 0 0 0.25 0"/>
            <feBlend mode="normal" in2="BackgroundImageFix" result="effect1_dropShadow"/>
            <feBlend mode="normal" in="SourceGraphic" in2="effect1_dropShadow" result="shape"/>
        </filter>
        <filter id="filter1_d" x="140.863" y="-4.11985" width="75.8949" height="75.8949" filterUnits="userSpaceOnUse" color-interpolation-filters="sRGB">
            <feFlood flood-opacity="0" result="BackgroundImageFix"/>
            <feColorMatrix in="SourceAlpha" type="matrix" values="0 0 0 0 0 0 0 0 0 0 0 0 0 0 0 0 0 0 127 0" result="hardAlpha"/>
            <feOffset dy="5.51806"/>
            <feGaussianBlur stdDeviation="13.7951"/>
            <feColorMatrix type="matrix" values="0 0 0 0 0 0 0 0 0 0 0 0 0 0 0 0 0 0 0.25 0"/>
            <feBlend mode="normal" in2="BackgroundImageFix" result="effect1_dropShadow"/>
            <feBlend mode="normal" in="SourceGraphic" in2="effect1_dropShadow" result="shape"/>
        </filter>
        <filter id="filter2_f" x="10" y="38" width="146" height="71" filterUnits="userSpaceOnUse" color-interpolation-filters="sRGB">
            <feFlood flood-opacity="0" result="BackgroundImageFix"/>
            <feBlend mode="normal" in="SourceGraphic" in2="BackgroundImageFix" result="shape"/>
            <feGaussianBlur stdDeviation="2" result="effect1_foregroundBlur"/>
        </filter>
        <clipPath id="clip0">
            <rect width="283.095" height="145" fill="white"/>
        </clipPath>
    </defs>
</svg>
