<svg width="414" height="414" viewBox="0 0 414 414" fill="none" xmlns="http://www.w3.org/2000/svg">
    <path d="M203.771 414V409.86H204.102V414H203.771ZM210.022 409.86H210.395V414H210.064L210.022 409.86ZM197.602 414V409.86H197.933V414H197.602ZM216.315 409.86H216.688V414H216.356L216.315 409.86ZM191.475 413.627L191.765 409.487H192.137L191.806 413.627H191.475ZM222.691 409.487H223.022L223.312 413.627H222.98L222.691 409.487ZM185.182 413.048L185.638 408.908H185.969L185.513 413.048H185.182ZM228.859 408.908H229.19L229.646 413.048H229.273L228.859 408.908ZM178.931 412.303L179.469 408.163H179.842L179.262 412.303H178.931ZM234.986 408.163H235.318L235.897 412.303H235.566L234.986 408.163ZM172.886 411.35L173.549 407.21H173.921L173.218 411.35H172.886ZM241.321 407.21H241.652L242.356 411.35H241.983L241.321 407.21ZM166.801 410.15L167.629 406.01H167.96L167.132 410.15H166.801ZM247.531 406.01H247.862L248.648 410.15H248.317L247.531 406.01ZM160.591 408.742L161.543 404.602H161.874L160.922 408.742H160.591ZM253.534 404.602H253.865L254.776 408.742H254.486L253.534 404.602ZM154.463 407.086L155.54 402.946H155.83L154.795 407.086H154.463ZM259.537 402.946H259.868L260.903 407.086H260.613L259.537 402.946ZM148.378 405.223L149.04 401.58H149.371L148.171 405.72L148.378 405.223ZM264.96 401.58H265.291L266.45 405.72H266.119L264.96 401.58ZM141.795 403.65L143.12 399.51H143.451L142.168 403.65H141.795ZM270.839 399.51H271.17L272.495 403.65H272.164L270.839 399.51ZM135.792 401.58L137.241 397.44H137.572L136.165 401.58H135.792ZM276.552 397.688H276.883L278.291 401.828H277.96L276.552 397.688ZM129.789 399.303L131.362 395.453H131.652L130.12 399.303H129.789ZM282.348 395.494H282.679L284.211 399.386H283.88L282.348 395.494ZM124.2 396.778L125.856 392.927H126.187L124.531 396.736L124.2 396.778ZM288.268 392.969H288.599L290.255 396.819H289.924L288.268 392.969ZM118.528 394.128L120.308 390.402H120.598L118.818 394.169L118.528 394.128ZM293.94 390.361H294.271L296.051 394.128H295.72L293.94 390.361ZM112.856 391.354L114.761 387.67H115.051L113.188 391.396L112.856 391.354ZM299.529 387.628H299.819L301.723 391.354H301.392L299.529 387.628ZM107.309 388.415L109.296 384.772H109.627L107.599 388.415H107.309ZM305.035 384.689H305.284L307.271 388.332H306.981L305.035 384.689ZM101.844 385.268L103.955 381.708H104.245L102.134 385.31L101.844 385.268ZM310.376 381.667H310.666L312.777 385.268H312.487L310.376 381.667ZM96.462 381.998L98.6976 378.479H98.9874L96.7518 381.998H96.462ZM315.634 378.396H315.923L318.159 381.915H317.869L315.634 378.396ZM91.08 378.52L93.3984 375.084L93.6882 375.291L91.3284 378.727L91.08 378.52ZM320.684 375.001H320.974L323.334 378.437H323.044L320.684 375.001ZM85.905 375.001L88.3476 371.606L88.596 371.813L86.1948 375.208L85.905 375.001ZM325.777 371.565H326.025L328.509 374.918L328.219 375.125L325.777 371.565ZM80.8542 371.234L83.3796 367.922L83.6694 368.129L81.1026 371.441L80.8542 371.234ZM330.745 367.839H330.993L333.56 371.151H333.27L330.745 367.839ZM75.8862 367.218L78.5358 363.989L78.66 364.32L76.0104 367.508L75.8862 367.218ZM335.588 363.906L335.837 363.699L338.486 366.887L338.197 367.135L335.588 363.906ZM71.0838 363.161L73.8162 360.014L74.0646 360.263L71.3322 363.368L71.0838 363.161ZM340.184 359.89L340.432 359.683L343.165 362.83H342.916L340.184 359.89ZM66.24 358.938L69.0966 355.874L69.345 356.123L66.5298 359.186L66.24 358.938ZM344.779 355.75L345.028 355.543L347.884 358.607H347.594L344.779 355.75ZM61.686 354.591L64.6254 351.61L64.8738 351.859L61.9344 354.839L61.686 354.591ZM349.25 351.486L349.499 351.238L352.438 354.218L352.19 354.467L349.25 351.486ZM57.2562 350.078L60.2784 347.18L60.5268 347.47L57.5046 350.327L57.2562 350.078ZM353.597 347.098V346.849L356.62 349.706L356.371 349.954L353.597 347.098ZM52.9506 345.442L56.0556 342.668L56.304 342.916L53.199 345.731L52.9506 345.442ZM357.779 342.544L358.027 342.295L361.132 345.069L360.884 345.317L357.779 342.544ZM48.8106 340.681L51.9984 337.99L52.2054 338.279L49.059 340.97L48.8106 340.681ZM361.836 337.907L362.084 337.617L365.272 340.308L365.024 340.598L361.836 337.907ZM44.7948 335.795L48.0654 333.229V333.477L44.8362 336.085L44.7948 335.795ZM365.769 333.104L365.976 332.856L369.247 335.423V335.713L365.769 333.104ZM41.0688 330.827L44.4222 328.302V328.592L41.4 331.2L41.0688 330.827ZM369.661 328.219V327.929L373.014 330.413L372.807 330.703L369.661 328.219ZM37.26 325.694L40.6548 323.293L40.8618 323.582L37.4256 325.984L37.26 325.694ZM373.18 323.21V322.92L376.616 325.321L376.409 325.57L373.18 323.21ZM33.6996 320.477L37.26 318.159L37.467 318.49L33.948 320.767L33.6996 320.477ZM376.74 318.076V317.786L380.218 320.063V320.395L376.74 318.076ZM30.429 315.137L33.9894 312.943V313.232L30.429 315.427V315.137ZM380.052 312.86V312.57L383.612 314.764V315.054L380.052 312.86ZM27.1998 309.672L30.8016 307.602V307.933L27.1584 310.003L27.1998 309.672ZM383.24 307.561V307.271L386.883 309.341V309.631L383.24 307.561ZM24.1362 304.166L27.8208 302.22V302.551L24.1362 304.497V304.166ZM386.179 302.22V301.93L389.864 303.876V304.207L386.179 302.22ZM21.2796 298.535L25.0056 296.672V297.004L21.2382 298.825L21.2796 298.535ZM389.16 296.672V296.341L392.886 298.204V298.494L389.16 296.672ZM18.5472 292.822L22.356 291.083V291.373L18.5472 293.112V292.822ZM391.644 291.083V290.794L395.411 292.491V292.822L391.644 291.083ZM16.0218 286.943L19.8306 285.37V285.66L15.9804 287.275L16.0218 286.943ZM394.128 285.66V285.329L397.978 286.943V287.275L394.128 285.66ZM13.662 281.52L17.5536 280.071V280.361L13.7862 281.52H13.662ZM396.405 280.154V279.823L400.297 281.313V281.644L396.405 280.154ZM11.385 275.6L15.525 274.234V274.565L11.385 275.931V275.6ZM398.475 274.316V274.027L402.615 275.393V275.724L398.475 274.316ZM9.4806 269.1L13.6206 267.899V268.231L9.4806 269.473V269.1ZM400.504 268.024V267.692L404.644 268.934V269.266L400.504 268.024ZM7.659 263.097L11.799 261.979V262.31L7.659 263.47V263.097ZM402.284 262.103V261.772L406.424 262.89V263.263L402.284 262.103ZM6.0444 257.011L10.1844 256.018V256.349L6.0444 257.342V257.011ZM403.857 256.142V255.811L407.997 256.804V257.135L403.857 256.142ZM4.6368 250.843L8.7768 249.973V250.304L4.6368 251.215V250.843ZM405.265 250.097V249.766L409.405 250.677V251.008L405.265 250.097ZM3.3948 244.674L7.5348 243.929V244.26L3.3948 245.005V244.674ZM406.465 244.26V243.929L410.605 244.674V245.005L406.465 244.26ZM2.3598 238.464L6.4998 237.802V238.174L2.3598 238.795V238.464ZM407.5 237.967V237.595L411.64 238.216V238.588L407.5 237.967ZM1.4904 232.213L5.6304 231.674V232.047L1.4904 232.544V232.213ZM408.328 231.84V231.467L412.468 231.964V232.337L408.328 231.84ZM0.828 225.92L4.968 225.547V225.878L0.828 226.251V225.92ZM408.991 225.671V225.34L413.131 225.713V226.044L408.991 225.671ZM0.3726 219.627L4.5126 219.379V219.71L0.3726 219.958V219.627ZM409.487 219.627V219.296L413.627 219.544V219.875L409.487 219.627ZM0 213.293H4.14V213.665H0V213.293ZM409.86 213.293V212.92H414V213.293H409.86ZM409.86 200.583H414V200.956H409.86V200.583ZM0 200.749V200.417H4.14V200.79L0 200.749ZM409.446 194.58L413.586 194.332V194.58H409.446ZM0.3726 194.58V194.249L4.5126 194.497V194.58H0.3726ZM408.991 188.37L413.131 187.997V188.329L408.991 188.743V188.37ZM0.828 188.163V187.79L4.968 188.204V188.536L0.828 188.163ZM408.328 182.16L412.468 181.622V182.16L408.328 182.657V182.16ZM1.4904 181.912V181.539L5.6304 182.036V182.367L1.4904 181.912ZM407.5 175.991L411.64 175.329V175.702L407.5 176.323V175.991ZM2.3598 175.619V175.288L6.4998 175.909V176.281L2.3598 175.619ZM406.465 169.74L410.605 168.995V169.326L406.465 170.071V169.74ZM3.3948 169.409V169.078L7.5348 169.823V170.154L3.3948 169.409ZM405.223 163.82L409.363 162.909V163.282L405.223 164.151V163.82ZM4.6368 163.199V162.868L8.7768 163.778V164.11L4.6368 163.199ZM403.857 157.775L407.997 156.782V157.113L403.857 158.107V157.775ZM6.0444 157.072V156.74L10.1844 157.734V158.065L6.0444 157.072ZM402.242 151.814L406.382 150.655V151.027L402.242 152.145V151.814ZM7.659 150.944V150.613L11.799 151.772V152.104L7.659 150.944ZM400.462 145.894L404.602 144.61V144.941L400.462 146.225V145.894ZM9.4392 144.9V144.569L13.5792 145.852V146.183L9.4392 144.9ZM398.599 139.973L402.532 138.607V138.938L398.599 140.305V139.973ZM11.5092 138.897V138.566L15.6492 139.932V140.305L11.5092 138.897ZM396.529 134.177L400.421 132.646V132.977L396.529 134.467V134.177ZM13.6206 132.977V132.646L17.5122 134.136V134.467L13.6206 132.977ZM15.939 127.139V126.808L19.7892 128.423V128.754L15.939 127.139ZM394.045 128.34L397.895 126.725V127.015L394.045 128.63V128.34ZM18.4644 121.343V121.054L22.2318 122.792V123.082L18.4644 121.343ZM391.561 122.71L395.37 121.012V121.302L391.603 123.041L391.561 122.71ZM21.1554 115.672V115.382L24.8814 117.203V117.535L21.1554 115.672ZM388.912 117.121L392.638 115.299V115.589L388.912 117.452V117.121ZM24.012 110.083V109.751L27.6966 111.739V112.028L24.012 110.083ZM386.055 111.78L389.74 109.834V110.124L386.055 112.07V111.78ZM27.0756 104.535V104.245L30.6774 106.315V106.605L27.0756 104.535ZM383.116 106.191L386.717 104.121V104.411L383.116 106.481V106.191ZM30.2634 99.1116L30.4704 98.8218L33.9894 101.016V101.306L30.2634 99.1116ZM379.886 100.85L383.447 98.6976V98.9874L379.886 101.182V100.85ZM33.6582 93.8124V93.5226L37.1358 95.7996V96.0894L33.6582 93.8124ZM376.74 95.634L380.218 93.357V93.6468L376.74 95.9238V95.634ZM37.26 88.596V88.3062L40.6548 90.7074V90.9558L37.26 88.596ZM373.18 90.5418L376.574 88.1406V88.4304L373.18 90.7902V90.5418ZM40.8618 83.4624L41.0688 83.1726L44.4222 85.698L44.2152 85.9464L40.8618 83.4624ZM369.454 85.5324L372.807 83.007V83.2968L369.454 85.7808V85.5324ZM44.712 78.66V78.4116L47.9826 80.9784L47.7756 81.2682L44.712 78.66ZM365.686 80.8128L368.915 78.2046L369.164 78.4944L365.893 81.1026L365.686 80.8128ZM48.6864 73.7748L48.9348 73.5264L52.1226 76.2174L51.8742 76.4658L48.6864 73.7748ZM361.753 76.0518L364.9 73.3194L365.148 73.6092L361.96 76.3002L361.753 76.0518ZM52.8264 69.0138L53.0748 68.7654L56.1798 71.5392L55.9314 71.829L52.8264 69.0138ZM357.655 71.3736L360.76 68.5998L361.008 68.8482L357.903 71.622L357.655 71.3736ZM57.132 64.17L57.3804 63.9216L60.3612 66.8196L60.1542 67.068L57.132 64.17ZM353.473 66.654L356.454 63.756L356.702 64.0044L353.68 66.9024L353.473 66.654ZM61.5618 59.6988L61.8102 59.4504L64.7082 62.4312L64.4598 62.6382L61.5618 59.6988ZM349.126 62.1L352.024 59.1606H352.273L349.333 62.1414L349.126 62.1ZM66.24 55.3104V55.062L69.0552 58.1256L68.8068 58.374L66.24 55.3104ZM344.614 57.96L347.47 54.8964L347.719 55.1448L344.862 58.2084L344.614 57.96ZM70.794 51.0876L71.0424 50.8392L73.7748 53.9856L73.5264 54.234L70.794 51.0876ZM339.894 53.8614L342.626 50.715L342.875 50.922L340.142 54.0684L339.894 53.8614ZM75.5964 46.989H75.8862L78.5358 50.2182L78.246 50.4252L75.5964 46.989ZM335.34 49.68L337.99 46.4508L338.238 46.6992L335.588 49.9284L335.34 49.68ZM80.5644 43.056L80.8128 42.849L83.3796 46.161H83.0898L80.5644 43.056ZM330.455 46.0368L332.98 42.7248H333.27L330.703 46.0368H330.455ZM85.6152 39.2886L85.905 39.0816L88.3476 42.435L88.0578 42.642L85.6152 39.2886ZM325.487 42.3522L327.929 38.9574L328.219 39.1644L325.777 42.5178L325.487 42.3522ZM90.7902 35.6454H91.08L93.3984 39.123H93.1086L90.7902 35.6454ZM320.436 38.7918L322.92 35.3556H323.21L320.891 38.8332L320.436 38.7918ZM96.048 32.1678H96.3792L98.6148 35.6868H98.2836L96.048 32.1678ZM315.468 35.397L317.704 31.878H317.993L315.758 35.397H315.468ZM101.471 28.98H101.761L103.873 32.5818H103.583L101.471 28.98ZM310.003 32.3334L312.115 28.7316H312.404L310.5 32.3748L310.003 32.3334ZM107.143 25.8336H107.474L109.462 29.4768H109.172L107.143 25.8336ZM304.621 28.98L306.65 25.3368H306.94L304.911 28.98H304.621ZM112.525 22.7286H112.815L114.719 26.4132H114.43L112.525 22.7286ZM299.156 26.2476L301.061 22.5216H301.392L299.488 26.2476H299.156ZM118.197 19.9548H118.528L120.308 23.7222H119.977L118.197 19.9548ZM293.65 23.5152L295.43 19.7478H295.72L293.94 23.6808L293.65 23.5152ZM123.91 17.3052H124.241L125.897 21.114H125.566L123.91 17.3052ZM287.978 20.9898L289.634 17.1396H289.966L288.31 20.9484L287.978 20.9898ZM129.789 14.8626H130.12L131.652 18.7128H131.321L129.789 14.8626ZM282.348 18.5886L283.88 14.7384H284.211L282.638 18.5886H282.348ZM276.552 16.56L278.001 12.42H278.332L276.883 16.56H276.552ZM135.709 12.42H136.04L137.448 16.56H137.117L135.709 12.42ZM270.715 14.2002L271.998 10.0602H272.371L271.046 14.2002H270.715ZM141.671 10.5156H142.002L143.327 14.6556H142.996L141.671 10.5156ZM264.96 12.42L266.161 8.28H266.492L264.96 12.42ZM147.715 8.6112H148.046L149.04 12.42L147.715 8.6112ZM258.833 10.8468L259.909 6.7068H260.24L259.164 10.8468H258.833ZM153.76 6.7068H154.132L155.167 10.8468H154.836L153.76 6.7068ZM252.83 9.1908L253.782 5.0508H254.113L253.202 9.1908H252.83ZM159.928 5.0508H160.259L161.17 9.1908H160.839L159.928 5.0508ZM246.868 7.7418L247.696 3.6018H248.027L247.199 7.7418H246.868ZM166.097 4.14H166.428L167.256 8.28H166.883L166.097 4.14ZM240.617 7.0794L241.321 2.9394H241.652L240.989 7.0794H240.617ZM172.265 2.8566H172.638L173.3 6.9966H172.969L172.265 2.8566ZM234.614 6.003L235.152 1.863H235.525L234.945 6.003H234.614ZM178.517 1.9044H178.889L179.428 6.0444H179.096L178.517 1.9044ZM228.445 5.2578L228.901 1.1178H229.232L228.818 5.2578H228.445ZM184.81 1.1592H185.141L185.596 5.2992H185.224L184.81 1.1592ZM222.07 4.7196L222.401 0.5796H222.732L222.442 4.7196H222.07ZM190.937 0.5796H191.227L191.516 4.7196H191.185L190.937 0.5796ZM215.777 4.347V0.207H216.108V4.347H215.777ZM197.064 0.207H197.395L197.602 4.347H197.23L197.064 0.207ZM203.688 0H204.019V4.14H203.688V0ZM209.939 4.14V0H210.271V4.14H209.939Z" fill="white"/>
    <g clip-path="url(#clip0)" filter="url(#filter0_d)">
        <rect x="67" y="134" width="283.095" height="145" rx="4.0831" fill="#191E2C"/>
        <path d="M100.884 162.492C102.044 162.859 102.953 163.478 103.61 164.348C104.268 165.198 104.596 166.252 104.596 167.509C104.596 169.287 103.9 170.66 102.508 171.627C101.136 172.574 99.1251 173.048 96.4764 173.048H85.9784V152.748H95.8964C98.3711 152.748 100.266 153.221 101.58 154.169C102.914 155.116 103.581 156.402 103.581 158.026C103.581 159.012 103.34 159.891 102.856 160.665C102.392 161.438 101.735 162.047 100.884 162.492ZM90.6474 156.286V161.071H95.3164C96.4764 161.071 97.3561 160.868 97.9554 160.462C98.5547 160.056 98.8544 159.456 98.8544 158.664C98.8544 157.871 98.5547 157.281 97.9554 156.895C97.3561 156.489 96.4764 156.286 95.3164 156.286H90.6474ZM96.1284 169.51C97.3657 169.51 98.2937 169.307 98.9124 168.901C99.5504 168.495 99.8694 167.866 99.8694 167.016C99.8694 165.334 98.6224 164.493 96.1284 164.493H90.6474V169.51H96.1284ZM111.495 156.576H104.999V152.748H122.689V156.576H116.193V173.048H111.495V156.576ZM134.069 173.396C132 173.396 130.125 172.951 128.443 172.062C126.78 171.153 125.465 169.906 124.499 168.321C123.551 166.716 123.078 164.908 123.078 162.898C123.078 160.887 123.551 159.089 124.499 157.504C125.465 155.899 126.78 154.652 128.443 153.763C130.125 152.854 132.01 152.4 134.098 152.4C135.857 152.4 137.442 152.709 138.854 153.328C140.284 153.946 141.483 154.836 142.45 155.996L139.434 158.78C138.061 157.194 136.36 156.402 134.33 156.402C133.073 156.402 131.952 156.682 130.966 157.243C129.98 157.784 129.206 158.548 128.646 159.534C128.104 160.52 127.834 161.641 127.834 162.898C127.834 164.154 128.104 165.276 128.646 166.262C129.206 167.248 129.98 168.021 130.966 168.582C131.952 169.123 133.073 169.394 134.33 169.394C136.36 169.394 138.061 168.591 139.434 166.987L142.45 169.771C141.483 170.95 140.284 171.849 138.854 172.468C137.423 173.086 135.828 173.396 134.069 173.396ZM153.891 173.396C150.991 173.396 148.729 172.593 147.105 170.989C145.501 169.384 144.698 167.093 144.698 164.116V152.748H149.396V163.942C149.396 167.576 150.904 169.394 153.92 169.394C155.39 169.394 156.511 168.959 157.284 168.089C158.058 167.199 158.444 165.817 158.444 163.942V152.748H163.084V164.116C163.084 167.093 162.272 169.384 160.648 170.989C159.044 172.593 156.791 173.396 153.891 173.396ZM173.817 173.396C172.212 173.396 170.656 173.183 169.148 172.758C167.659 172.313 166.46 171.743 165.552 171.047L167.147 167.509C168.017 168.147 169.051 168.659 170.25 169.046C171.448 169.432 172.647 169.626 173.846 169.626C175.18 169.626 176.166 169.432 176.804 169.046C177.442 168.64 177.761 168.108 177.761 167.451C177.761 166.967 177.567 166.571 177.181 166.262C176.813 165.933 176.33 165.672 175.731 165.479C175.151 165.285 174.358 165.073 173.353 164.841C171.806 164.473 170.54 164.106 169.554 163.739C168.568 163.371 167.717 162.782 167.002 161.97C166.306 161.158 165.958 160.075 165.958 158.722C165.958 157.542 166.277 156.479 166.915 155.532C167.553 154.565 168.51 153.801 169.786 153.241C171.081 152.68 172.657 152.4 174.513 152.4C175.808 152.4 177.074 152.554 178.312 152.864C179.549 153.173 180.632 153.618 181.56 154.198L180.11 157.765C178.234 156.701 176.359 156.17 174.484 156.17C173.169 156.17 172.193 156.382 171.555 156.808C170.936 157.233 170.627 157.794 170.627 158.49C170.627 159.186 170.984 159.708 171.7 160.056C172.434 160.384 173.546 160.713 175.035 161.042C176.581 161.409 177.848 161.776 178.834 162.144C179.82 162.511 180.661 163.091 181.357 163.884C182.072 164.676 182.43 165.749 182.43 167.103C182.43 168.263 182.101 169.326 181.444 170.293C180.806 171.24 179.839 171.994 178.544 172.555C177.248 173.115 175.673 173.396 173.817 173.396ZM185.06 152.748H194.282C196.486 152.748 198.429 153.173 200.111 154.024C201.812 154.855 203.127 156.034 204.055 157.562C205.002 159.089 205.476 160.868 205.476 162.898C205.476 164.928 205.002 166.706 204.055 168.234C203.127 169.761 201.812 170.95 200.111 171.801C198.429 172.632 196.486 173.048 194.282 173.048H185.06V152.748ZM194.05 169.191C196.08 169.191 197.694 168.63 198.893 167.509C200.111 166.368 200.72 164.831 200.72 162.898C200.72 160.964 200.111 159.437 198.893 158.316C197.694 157.175 196.08 156.605 194.05 156.605H189.758V169.191H194.05Z" fill="white"/>
        <path d="M345.952 274.561C345.952 275.324 345.334 275.942 344.571 275.942L303.978 275.942C303.215 275.942 302.597 275.324 302.597 274.561C302.597 273.798 303.215 273.18 303.978 273.18L344.571 273.18C345.334 273.18 345.952 273.798 345.952 274.561Z" fill="#D5CE41"/>
        <path d="M299.385 274.561C299.385 275.324 298.767 275.942 298.004 275.942L257.411 275.942C256.648 275.942 256.03 275.324 256.03 274.561C256.03 273.798 256.648 273.18 257.411 273.18L298.004 273.18C298.767 273.18 299.385 273.798 299.385 274.561Z" fill="#D5CE41"/>
        <rect x="252.818" y="275.942" width="43.3555" height="2.7619" rx="1.38095" transform="rotate(180 252.818 275.942)" fill="#D5CE41"/>
        <rect x="206.25" y="275.942" width="43.3555" height="2.7619" rx="1.38095" transform="rotate(180 206.25 275.942)" fill="#D5CE41"/>
        <rect x="159.684" y="275.942" width="43.3555" height="2.7619" rx="1.38095" transform="rotate(180 159.684 275.942)" fill="#D64730"/>
        <path d="M113.117 274.561C113.117 275.324 112.499 275.942 111.736 275.942L71.1429 275.942C70.3802 275.942 69.7619 275.324 69.7619 274.561C69.7619 273.798 70.3802 273.18 71.1429 273.18L111.736 273.18C112.499 273.18 113.117 273.798 113.117 274.561Z" fill="#D64730"/>
        <rect x="294.434" y="164.381" width="5.35119" height="6.90476" rx="2.6756" fill="white"/>
        <rect x="303.798" y="161.619" width="5.35119" height="9.66667" rx="2.6756" fill="white"/>
        <rect x="313.163" y="158.857" width="5.35119" height="12.4286" rx="2.6756" fill="white"/>
        <rect x="322.527" y="156.095" width="5.35119" height="15.1905" rx="2.6756" fill="white"/>
        <rect x="331.892" y="153.333" width="5.35119" height="17.9524" rx="2.6756" fill="white"/>
        <path opacity="0.5" d="M115.535 248.462V259.095H113.56V250.118H111.312V248.462H115.535ZM121.32 248.462V259.095H119.346V250.118H117.097V248.462H121.32ZM124.615 253.414C124.27 253.414 123.977 253.297 123.733 253.064C123.49 252.821 123.369 252.518 123.369 252.153C123.369 251.778 123.485 251.475 123.718 251.242C123.961 251.009 124.26 250.892 124.615 250.892C124.969 250.892 125.263 251.009 125.496 251.242C125.739 251.475 125.86 251.778 125.86 252.153C125.86 252.518 125.739 252.821 125.496 253.064C125.253 253.297 124.959 253.414 124.615 253.414ZM124.615 259.201C124.27 259.201 123.977 259.085 123.733 258.852C123.49 258.609 123.369 258.305 123.369 257.941C123.369 257.566 123.485 257.262 123.718 257.029C123.961 256.796 124.26 256.68 124.615 256.68C124.969 256.68 125.263 256.796 125.496 257.029C125.739 257.262 125.86 257.566 125.86 257.941C125.86 258.305 125.739 258.609 125.496 258.852C125.253 259.085 124.959 259.201 124.615 259.201ZM130.465 252.578C131.964 252.578 133.073 252.872 133.792 253.459C134.511 254.037 134.87 254.827 134.87 255.829C134.87 256.467 134.713 257.044 134.399 257.561C134.085 258.077 133.614 258.487 132.987 258.791C132.359 259.095 131.584 259.247 130.662 259.247C129.903 259.247 129.169 259.141 128.46 258.928C127.751 258.705 127.153 258.401 126.667 258.017L127.503 256.482C127.898 256.806 128.369 257.065 128.916 257.257C129.473 257.439 130.045 257.53 130.632 257.53C131.331 257.53 131.878 257.389 132.273 257.105C132.678 256.811 132.88 256.411 132.88 255.905C132.88 255.358 132.663 254.948 132.227 254.675C131.802 254.391 131.068 254.249 130.024 254.249H127.457L128.004 248.462H134.247V250.118H129.675L129.447 252.578H130.465ZM140.462 252.852C141.444 252.973 142.194 253.308 142.71 253.854C143.227 254.401 143.485 255.085 143.485 255.905C143.485 256.523 143.328 257.085 143.014 257.591C142.7 258.098 142.224 258.503 141.586 258.806C140.958 259.1 140.188 259.247 139.277 259.247C138.518 259.247 137.783 259.141 137.074 258.928C136.376 258.705 135.778 258.401 135.282 258.017L136.133 256.482C136.517 256.806 136.983 257.065 137.53 257.257C138.087 257.439 138.659 257.53 139.247 257.53C139.945 257.53 140.492 257.389 140.887 257.105C141.292 256.811 141.495 256.417 141.495 255.92C141.495 255.424 141.302 255.039 140.918 254.766C140.543 254.482 139.966 254.34 139.186 254.34H138.214V252.989L140.629 250.118H135.798V248.462H143.044V249.783L140.462 252.852Z" fill="white"/>
        <g opacity="0.5">
            <path fill-rule="evenodd" clip-rule="evenodd" d="M94.6145 245.417C89.8502 245.417 85.9922 249.283 85.9922 254.048C85.9922 258.812 89.8502 262.679 94.6145 262.679C99.3874 262.679 103.254 258.812 103.254 254.048C103.254 249.283 99.3874 245.417 94.6145 245.417ZM94.6231 260.952C90.8082 260.952 87.7183 257.863 87.7183 254.048C87.7183 250.233 90.8082 247.143 94.6231 247.143C98.438 247.143 101.528 250.233 101.528 254.048C101.528 257.863 98.438 260.952 94.6231 260.952ZM93.76 249.732H95.0546V254.264L98.9386 256.568L98.2912 257.63L93.76 254.911V249.732Z" fill="white"/>
        </g>
        <path opacity="0.5" d="M202.186 252.579C203.684 252.579 204.793 252.872 205.512 253.46C206.231 254.037 206.591 254.827 206.591 255.829C206.591 256.467 206.434 257.045 206.12 257.561C205.806 258.077 205.335 258.488 204.707 258.791C204.079 259.095 203.305 259.247 202.383 259.247C201.624 259.247 200.889 259.141 200.181 258.928C199.472 258.705 198.874 258.402 198.388 258.017L199.224 256.482C199.618 256.807 200.089 257.065 200.636 257.257C201.193 257.439 201.765 257.531 202.353 257.531C203.052 257.531 203.598 257.389 203.993 257.105C204.398 256.812 204.601 256.412 204.601 255.905C204.601 255.358 204.383 254.948 203.948 254.675C203.522 254.391 202.788 254.249 201.745 254.249H199.178L199.725 248.462H205.968V250.118H201.396L201.168 252.579H202.186ZM222.744 250.892C223.767 250.892 224.577 251.191 225.174 251.789C225.772 252.376 226.07 253.262 226.07 254.447V259.095H224.172V254.69C224.172 253.981 224.015 253.449 223.701 253.095C223.387 252.73 222.936 252.548 222.349 252.548C221.711 252.548 221.199 252.761 220.815 253.186C220.43 253.601 220.237 254.199 220.237 254.979V259.095H218.338V254.69C218.338 253.981 218.181 253.449 217.868 253.095C217.554 252.73 217.103 252.548 216.516 252.548C215.867 252.548 215.351 252.756 214.966 253.171C214.591 253.586 214.404 254.189 214.404 254.979V259.095H212.505V250.984H214.313V252.016C214.617 251.652 214.997 251.373 215.452 251.181C215.908 250.989 216.414 250.892 216.971 250.892C217.579 250.892 218.116 251.009 218.582 251.242C219.057 251.465 219.432 251.799 219.706 252.244C220.04 251.819 220.47 251.49 220.997 251.257C221.523 251.014 222.106 250.892 222.744 250.892ZM228.497 250.984H230.396V259.095H228.497V250.984ZM229.454 249.647C229.11 249.647 228.821 249.54 228.588 249.328C228.355 249.105 228.239 248.832 228.239 248.507C228.239 248.183 228.355 247.915 228.588 247.702C228.821 247.48 229.11 247.368 229.454 247.368C229.798 247.368 230.087 247.475 230.32 247.687C230.553 247.89 230.669 248.148 230.669 248.462C230.669 248.796 230.553 249.08 230.32 249.313C230.097 249.535 229.808 249.647 229.454 249.647ZM237.491 250.892C238.513 250.892 239.334 251.191 239.951 251.789C240.569 252.386 240.878 253.272 240.878 254.447V259.095H238.979V254.69C238.979 253.981 238.812 253.449 238.478 253.095C238.144 252.73 237.668 252.548 237.05 252.548C236.351 252.548 235.799 252.761 235.394 253.186C234.989 253.601 234.787 254.204 234.787 254.994V259.095H232.888V250.984H234.696V252.032C235.009 251.657 235.404 251.373 235.88 251.181C236.356 250.989 236.893 250.892 237.491 250.892Z" fill="white"/>
        <g opacity="0.5">
            <path fill-rule="evenodd" clip-rule="evenodd" d="M182.796 260.358C182.738 260.358 182.679 260.355 182.619 260.349C181.86 260.274 181.264 259.738 181.1 258.983L178.785 248.287L176.4 253.795C176.263 254.111 175.951 254.316 175.608 254.316H173.018C172.541 254.316 172.155 253.929 172.155 253.453C172.155 252.976 172.541 252.59 173.018 252.59H175.041L177.204 247.593C177.511 246.889 178.186 246.479 178.953 246.556C179.712 246.631 180.308 247.167 180.472 247.922L182.788 258.618L185.172 253.109C185.31 252.793 185.62 252.59 185.965 252.59H188.554C189.031 252.59 189.417 252.976 189.417 253.453C189.417 253.929 189.031 254.316 188.554 254.316H186.531L184.368 259.312C184.086 259.961 183.481 260.358 182.796 260.358Z" fill="#F2F2F2"/>
        </g>
        <g opacity="0.5">
            <path fill-rule="evenodd" clip-rule="evenodd" d="M284.642 254.048L280.672 258.018L281.88 259.226L287.059 254.048L281.88 248.869L280.672 250.077L284.642 254.048ZM272.213 254.048L276.184 258.018L274.975 259.226L269.797 254.048L274.975 248.869L276.184 250.078L272.213 254.048Z" fill="white"/>
        </g>
        <path opacity="0.5" d="M300.66 248.462C301.581 248.462 302.382 248.614 303.06 248.917C303.749 249.221 304.275 249.657 304.64 250.224C305.004 250.791 305.187 251.464 305.187 252.244C305.187 253.014 305.004 253.687 304.64 254.265C304.275 254.832 303.749 255.267 303.06 255.571C302.382 255.875 301.581 256.027 300.66 256.027H298.26V259.095H296.285V248.462H300.66ZM300.569 254.356C301.43 254.356 302.083 254.173 302.528 253.809C302.974 253.444 303.197 252.923 303.197 252.244C303.197 251.566 302.974 251.044 302.528 250.68C302.083 250.315 301.43 250.133 300.569 250.133H298.26V254.356H300.569ZM310.603 259.247C309.783 259.247 308.988 259.131 308.219 258.898C307.459 258.665 306.856 258.356 306.411 257.971L307.094 256.437C307.53 256.781 308.062 257.065 308.689 257.287C309.327 257.5 309.965 257.606 310.603 257.606C311.393 257.606 311.981 257.48 312.366 257.227C312.76 256.973 312.958 256.639 312.958 256.224C312.958 255.92 312.847 255.672 312.624 255.48C312.411 255.277 312.138 255.12 311.803 255.009C311.469 254.897 311.014 254.771 310.436 254.629C309.626 254.437 308.968 254.244 308.462 254.052C307.965 253.859 307.535 253.561 307.17 253.156C306.816 252.74 306.639 252.183 306.639 251.485C306.639 250.897 306.796 250.366 307.11 249.89C307.434 249.404 307.915 249.019 308.553 248.735C309.201 248.452 309.991 248.31 310.922 248.31C311.571 248.31 312.209 248.391 312.836 248.553C313.464 248.715 314.006 248.948 314.462 249.252L313.839 250.786C313.373 250.512 312.887 250.305 312.381 250.163C311.874 250.021 311.383 249.95 310.907 249.95C310.127 249.95 309.545 250.082 309.16 250.345C308.786 250.609 308.598 250.958 308.598 251.394C308.598 251.697 308.705 251.945 308.917 252.138C309.14 252.33 309.419 252.482 309.753 252.594C310.087 252.705 310.543 252.832 311.12 252.973C311.91 253.156 312.558 253.348 313.064 253.551C313.571 253.743 314.001 254.042 314.355 254.447C314.72 254.852 314.902 255.399 314.902 256.087C314.902 256.675 314.74 257.206 314.416 257.682C314.102 258.158 313.621 258.538 312.973 258.822C312.325 259.105 311.535 259.247 310.603 259.247ZM323.757 256.634H318.44L317.392 259.095H315.357L320.142 248.462H322.086L326.886 259.095H324.82L323.757 256.634ZM323.104 255.085L321.099 250.437L319.109 255.085H323.104ZM335.196 259.095L333.023 255.981C332.932 255.991 332.796 255.996 332.613 255.996H330.213V259.095H328.238V248.462H332.613C333.535 248.462 334.335 248.614 335.013 248.917C335.702 249.221 336.229 249.657 336.593 250.224C336.958 250.791 337.14 251.464 337.14 252.244C337.14 253.044 336.943 253.733 336.548 254.31C336.163 254.887 335.606 255.318 334.877 255.601L337.322 259.095H335.196ZM335.15 252.244C335.15 251.566 334.927 251.044 334.482 250.68C334.036 250.315 333.383 250.133 332.522 250.133H330.213V254.371H332.522C333.383 254.371 334.036 254.189 334.482 253.824C334.927 253.449 335.15 252.923 335.15 252.244Z" fill="white"/>
        <path d="M264.319 219.984C262.638 219.984 261.007 219.761 259.427 219.315C257.868 218.849 256.612 218.252 255.66 217.523L257.331 213.816C258.243 214.485 259.326 215.021 260.582 215.426C261.838 215.832 263.093 216.034 264.349 216.034C265.747 216.034 266.78 215.832 267.448 215.426C268.116 215.001 268.451 214.444 268.451 213.755C268.451 213.249 268.248 212.834 267.843 212.51C267.458 212.166 266.952 211.892 266.324 211.69C265.716 211.487 264.886 211.264 263.833 211.021C262.212 210.636 260.886 210.252 259.853 209.867C258.82 209.482 257.929 208.864 257.179 208.013C256.45 207.163 256.086 206.029 256.086 204.611C256.086 203.375 256.42 202.261 257.088 201.269C257.757 200.256 258.759 199.456 260.096 198.869C261.453 198.281 263.104 197.988 265.048 197.988C266.405 197.988 267.732 198.15 269.028 198.474C270.324 198.798 271.458 199.264 272.431 199.871L270.911 203.608C268.947 202.494 266.982 201.937 265.018 201.937C263.64 201.937 262.617 202.16 261.949 202.606C261.301 203.051 260.977 203.639 260.977 204.368C260.977 205.097 261.352 205.644 262.101 206.008C262.871 206.353 264.035 206.697 265.595 207.041C267.215 207.426 268.542 207.811 269.575 208.196C270.608 208.581 271.489 209.188 272.218 210.019C272.967 210.849 273.342 211.973 273.342 213.391C273.342 214.606 272.998 215.72 272.309 216.733C271.641 217.725 270.628 218.515 269.271 219.103C267.914 219.69 266.263 219.984 264.319 219.984ZM293.171 215.669V219.619H276.705V198.352H292.777V202.302H281.596V206.92H291.47V210.748H281.596V215.669H293.171ZM297.088 198.352H302.009V215.609H312.673V219.619H297.088V198.352ZM315.423 198.352H320.345V215.609H331.008V219.619H315.423V198.352Z" fill="#FF665A"/>
        <rect x="86.3334" y="180.952" width="124.286" height="23.4762" rx="3.82969" fill="#D64730" fill-opacity="0.37"/>
        <path fill-rule="evenodd" clip-rule="evenodd" d="M99.7386 186.476H110.858C111.218 186.476 111.513 186.771 111.513 187.131V187.203C111.513 187.562 111.218 187.857 110.858 187.857H99.7386C99.3788 187.857 99.084 187.562 99.084 187.203V187.131C99.084 186.771 99.3788 186.476 99.7386 186.476ZM105.816 190.732L105.816 196.179C105.816 196.538 105.521 196.833 105.161 196.833H105.09C104.73 196.833 104.435 196.538 104.435 196.179V190.732L103.542 191.625C103.272 191.895 102.836 191.895 102.566 191.625C102.431 191.49 102.364 191.313 102.364 191.137C102.364 190.96 102.431 190.784 102.566 190.649L104.637 188.577C104.907 188.308 105.344 188.308 105.614 188.577L107.685 190.649C107.955 190.919 107.955 191.356 107.685 191.625C107.415 191.895 106.979 191.895 106.709 191.625L105.816 190.732Z" fill="white"/>
        <path d="M126.324 191.466C127.34 191.632 128.119 192.013 128.661 192.61C129.202 193.195 129.473 193.925 129.473 194.797C129.473 195.471 129.296 196.095 128.942 196.67C128.589 197.233 128.047 197.686 127.318 198.029C126.6 198.371 125.716 198.542 124.667 198.542C123.849 198.542 123.043 198.438 122.247 198.228C121.463 198.007 120.795 197.697 120.242 197.3L121.286 195.245C121.728 195.576 122.236 195.836 122.811 196.024C123.396 196.2 123.993 196.289 124.601 196.289C125.274 196.289 125.805 196.162 126.191 195.908C126.578 195.642 126.771 195.272 126.771 194.797C126.771 193.847 126.048 193.372 124.601 193.372H123.374V191.599L125.761 188.898H120.822V186.744H128.942V188.484L126.324 191.466ZM134.527 191.102C136.162 191.102 137.367 191.428 138.14 192.08C138.924 192.731 139.316 193.604 139.316 194.698C139.316 195.405 139.14 196.051 138.786 196.637C138.433 197.211 137.891 197.675 137.162 198.029C136.444 198.371 135.555 198.542 134.494 198.542C133.677 198.542 132.87 198.438 132.075 198.228C131.29 198.007 130.622 197.697 130.07 197.3L131.13 195.245C131.572 195.576 132.08 195.836 132.655 196.024C133.229 196.2 133.82 196.289 134.428 196.289C135.102 196.289 135.632 196.156 136.019 195.891C136.405 195.626 136.599 195.256 136.599 194.781C136.599 194.284 136.394 193.908 135.986 193.654C135.588 193.4 134.892 193.273 133.898 193.273H130.931L131.528 186.744H138.604V188.898H133.765L133.583 191.102H134.527ZM148.992 196.156V198.344H140.225V196.604L144.7 192.378C145.175 191.925 145.495 191.538 145.661 191.218C145.826 190.886 145.909 190.561 145.909 190.24C145.909 189.776 145.749 189.423 145.429 189.18C145.119 188.926 144.661 188.798 144.053 188.798C143.545 188.798 143.087 188.898 142.678 189.097C142.269 189.285 141.927 189.572 141.65 189.958L139.695 188.699C140.148 188.025 140.772 187.5 141.568 187.125C142.363 186.738 143.274 186.545 144.302 186.545C145.164 186.545 145.915 186.688 146.556 186.976C147.207 187.252 147.71 187.65 148.064 188.169C148.428 188.677 148.61 189.279 148.61 189.975C148.61 190.605 148.478 191.196 148.213 191.748C147.948 192.301 147.434 192.93 146.672 193.637L144.004 196.156H148.992ZM154.176 186.545C155.8 186.545 157.07 187.042 157.987 188.036C158.904 189.019 159.363 190.439 159.363 192.295C159.363 193.61 159.114 194.737 158.617 195.676C158.131 196.615 157.44 197.327 156.546 197.813C155.651 198.299 154.618 198.542 153.447 198.542C152.828 198.542 152.237 198.476 151.674 198.344C151.11 198.2 150.63 198.001 150.232 197.747L151.226 195.775C151.79 196.162 152.513 196.355 153.397 196.355C154.38 196.355 155.159 196.068 155.734 195.493C156.308 194.908 156.617 194.068 156.662 192.974C155.966 193.67 155.004 194.018 153.778 194.018C153.038 194.018 152.364 193.869 151.756 193.571C151.149 193.273 150.668 192.853 150.315 192.312C149.961 191.759 149.784 191.124 149.784 190.406C149.784 189.633 149.978 188.953 150.364 188.368C150.751 187.782 151.276 187.335 151.939 187.025C152.613 186.705 153.358 186.545 154.176 186.545ZM154.375 192.013C154.96 192.013 155.435 191.853 155.8 191.533C156.175 191.201 156.363 190.782 156.363 190.273C156.363 189.765 156.181 189.351 155.816 189.03C155.463 188.71 154.971 188.55 154.342 188.55C153.767 188.55 153.298 188.705 152.933 189.014C152.579 189.323 152.403 189.743 152.403 190.273C152.403 190.804 152.579 191.229 152.933 191.549C153.298 191.859 153.778 192.013 154.375 192.013ZM168.588 192.245C169.163 192.533 169.599 192.908 169.897 193.372C170.207 193.836 170.361 194.372 170.361 194.98C170.361 195.698 170.157 196.327 169.748 196.869C169.34 197.399 168.765 197.813 168.025 198.112C167.285 198.399 166.429 198.542 165.456 198.542C164.484 198.542 163.628 198.399 162.888 198.112C162.159 197.813 161.59 197.399 161.181 196.869C160.783 196.327 160.584 195.698 160.584 194.98C160.584 194.372 160.733 193.836 161.032 193.372C161.341 192.908 161.777 192.533 162.341 192.245C161.91 191.98 161.579 191.649 161.347 191.251C161.115 190.842 160.999 190.378 160.999 189.859C160.999 189.185 161.186 188.6 161.562 188.102C161.938 187.605 162.462 187.224 163.136 186.959C163.81 186.683 164.584 186.545 165.456 186.545C166.34 186.545 167.119 186.683 167.793 186.959C168.478 187.224 169.008 187.605 169.384 188.102C169.759 188.6 169.947 189.185 169.947 189.859C169.947 190.378 169.831 190.842 169.599 191.251C169.367 191.649 169.03 191.98 168.588 192.245ZM165.456 188.517C164.915 188.517 164.479 188.649 164.147 188.914C163.827 189.169 163.667 189.522 163.667 189.975C163.667 190.417 163.827 190.765 164.147 191.019C164.468 191.273 164.904 191.4 165.456 191.4C166.009 191.4 166.451 191.273 166.782 191.019C167.113 190.765 167.279 190.417 167.279 189.975C167.279 189.522 167.113 189.169 166.782 188.914C166.451 188.649 166.009 188.517 165.456 188.517ZM165.456 196.57C166.13 196.57 166.661 196.421 167.047 196.123C167.445 195.814 167.644 195.405 167.644 194.897C167.644 194.389 167.445 193.985 167.047 193.687C166.661 193.389 166.13 193.24 165.456 193.24C164.793 193.24 164.269 193.389 163.882 193.687C163.495 193.985 163.302 194.389 163.302 194.897C163.302 195.416 163.495 195.825 163.882 196.123C164.269 196.421 164.793 196.57 165.456 196.57ZM173.277 198.476C172.824 198.476 172.443 198.322 172.133 198.012C171.824 197.703 171.669 197.316 171.669 196.852C171.669 196.377 171.824 195.996 172.133 195.709C172.443 195.41 172.824 195.261 173.277 195.261C173.73 195.261 174.111 195.41 174.42 195.709C174.73 195.996 174.884 196.377 174.884 196.852C174.884 197.316 174.73 197.703 174.42 198.012C174.111 198.322 173.73 198.476 173.277 198.476ZM180.85 198.542C179.889 198.542 179.033 198.305 178.282 197.83C177.53 197.355 176.939 196.67 176.509 195.775C176.089 194.869 175.879 193.792 175.879 192.544C175.879 191.295 176.089 190.224 176.509 189.329C176.939 188.423 177.53 187.732 178.282 187.257C179.033 186.782 179.889 186.545 180.85 186.545C181.811 186.545 182.668 186.782 183.419 187.257C184.17 187.732 184.756 188.423 185.175 189.329C185.606 190.224 185.822 191.295 185.822 192.544C185.822 193.792 185.606 194.869 185.175 195.775C184.756 196.67 184.17 197.355 183.419 197.83C182.668 198.305 181.811 198.542 180.85 198.542ZM180.85 196.272C181.557 196.272 182.11 195.968 182.507 195.361C182.916 194.753 183.121 193.814 183.121 192.544C183.121 191.273 182.916 190.334 182.507 189.726C182.11 189.119 181.557 188.815 180.85 188.815C180.154 188.815 179.602 189.119 179.193 189.726C178.795 190.334 178.597 191.273 178.597 192.544C178.597 193.814 178.795 194.753 179.193 195.361C179.602 195.968 180.154 196.272 180.85 196.272Z" fill="white"/>
        <rect x="86.3334" y="209.952" width="124.286" height="23.4762" rx="3.82969" fill="#1BC53C" fill-opacity="0.57"/>
        <path fill-rule="evenodd" clip-rule="evenodd" d="M99.7386 227.905H110.858C111.218 227.905 111.513 227.61 111.513 227.25V227.178C111.513 226.819 111.218 226.524 110.858 226.524H99.7386C99.3788 226.524 99.084 226.819 99.084 227.178V227.25C99.084 227.61 99.3788 227.905 99.7386 227.905ZM105.816 223.649L105.816 218.202C105.816 217.843 105.521 217.548 105.161 217.548H105.09C104.73 217.548 104.435 217.843 104.435 218.202V223.649L103.542 222.756C103.272 222.486 102.836 222.486 102.566 222.756C102.431 222.891 102.364 223.067 102.364 223.244C102.364 223.421 102.431 223.597 102.566 223.732L104.637 225.804C104.907 226.073 105.344 226.073 105.614 225.804L107.685 223.732C107.955 223.462 107.955 223.025 107.685 222.756C107.415 222.486 106.979 222.486 106.709 222.756L105.816 223.649Z" fill="white"/>
        <path d="M126.324 220.466C127.34 220.632 128.119 221.013 128.661 221.61C129.202 222.195 129.473 222.925 129.473 223.797C129.473 224.471 129.296 225.095 128.942 225.67C128.589 226.233 128.047 226.686 127.318 227.029C126.6 227.371 125.716 227.542 124.667 227.542C123.849 227.542 123.043 227.438 122.247 227.228C121.463 227.007 120.795 226.697 120.242 226.3L121.286 224.245C121.728 224.576 122.236 224.836 122.811 225.024C123.396 225.2 123.993 225.289 124.601 225.289C125.274 225.289 125.805 225.162 126.191 224.908C126.578 224.642 126.771 224.272 126.771 223.797C126.771 222.847 126.048 222.372 124.601 222.372H123.374V220.599L125.761 217.898H120.822V215.744H128.942V217.484L126.324 220.466ZM136.297 220.069C137.037 220.069 137.711 220.218 138.318 220.516C138.926 220.814 139.406 221.24 139.76 221.792C140.114 222.334 140.29 222.963 140.29 223.681C140.29 224.455 140.097 225.134 139.71 225.72C139.324 226.305 138.793 226.758 138.119 227.078C137.457 227.388 136.716 227.542 135.899 227.542C134.275 227.542 133.004 227.045 132.087 226.051C131.17 225.057 130.712 223.637 130.712 221.792C130.712 220.478 130.961 219.351 131.458 218.412C131.955 217.473 132.645 216.76 133.529 216.274C134.424 215.788 135.457 215.545 136.628 215.545C137.247 215.545 137.838 215.617 138.401 215.76C138.976 215.893 139.462 216.086 139.859 216.34L138.865 218.312C138.291 217.926 137.567 217.732 136.694 217.732C135.711 217.732 134.932 218.019 134.358 218.594C133.783 219.168 133.474 220.002 133.43 221.096C134.115 220.411 135.07 220.069 136.297 220.069ZM135.75 225.537C136.324 225.537 136.788 225.383 137.142 225.073C137.506 224.764 137.689 224.344 137.689 223.814C137.689 223.284 137.506 222.864 137.142 222.554C136.788 222.234 136.313 222.074 135.717 222.074C135.131 222.074 134.65 222.24 134.275 222.571C133.899 222.891 133.711 223.306 133.711 223.814C133.711 224.322 133.894 224.736 134.258 225.057C134.623 225.377 135.12 225.537 135.75 225.537ZM145.34 215.545C146.964 215.545 148.234 216.042 149.151 217.036C150.068 218.019 150.527 219.439 150.527 221.295C150.527 222.61 150.278 223.737 149.781 224.676C149.295 225.615 148.604 226.327 147.71 226.813C146.815 227.299 145.782 227.542 144.611 227.542C143.992 227.542 143.401 227.476 142.838 227.344C142.274 227.2 141.794 227.001 141.396 226.747L142.39 224.775C142.954 225.162 143.677 225.355 144.561 225.355C145.544 225.355 146.323 225.068 146.898 224.493C147.472 223.908 147.781 223.068 147.826 221.974C147.13 222.67 146.168 223.018 144.942 223.018C144.202 223.018 143.528 222.869 142.92 222.571C142.313 222.273 141.832 221.853 141.479 221.312C141.125 220.759 140.948 220.124 140.948 219.406C140.948 218.633 141.142 217.953 141.528 217.368C141.915 216.782 142.44 216.335 143.103 216.025C143.777 215.705 144.522 215.545 145.34 215.545ZM145.539 221.013C146.124 221.013 146.599 220.853 146.964 220.533C147.34 220.201 147.527 219.782 147.527 219.273C147.527 218.765 147.345 218.351 146.98 218.03C146.627 217.71 146.135 217.55 145.506 217.55C144.931 217.55 144.462 217.705 144.097 218.014C143.744 218.323 143.567 218.743 143.567 219.273C143.567 219.804 143.744 220.229 144.097 220.549C144.462 220.859 144.942 221.013 145.539 221.013ZM159.752 221.245C160.327 221.533 160.763 221.908 161.062 222.372C161.371 222.836 161.526 223.372 161.526 223.98C161.526 224.698 161.321 225.327 160.912 225.869C160.504 226.399 159.929 226.813 159.189 227.112C158.449 227.399 157.593 227.542 156.62 227.542C155.648 227.542 154.792 227.399 154.052 227.112C153.323 226.813 152.754 226.399 152.345 225.869C151.947 225.327 151.748 224.698 151.748 223.98C151.748 223.372 151.898 222.836 152.196 222.372C152.505 221.908 152.942 221.533 153.505 221.245C153.074 220.98 152.743 220.649 152.511 220.251C152.279 219.842 152.163 219.378 152.163 218.859C152.163 218.185 152.35 217.6 152.726 217.102C153.102 216.605 153.626 216.224 154.3 215.959C154.974 215.683 155.748 215.545 156.62 215.545C157.504 215.545 158.283 215.683 158.957 215.959C159.642 216.224 160.172 216.605 160.548 217.102C160.923 217.6 161.111 218.185 161.111 218.859C161.111 219.378 160.995 219.842 160.763 220.251C160.531 220.649 160.194 220.98 159.752 221.245ZM156.62 217.517C156.079 217.517 155.643 217.649 155.311 217.914C154.991 218.169 154.831 218.522 154.831 218.975C154.831 219.417 154.991 219.765 155.311 220.019C155.632 220.273 156.068 220.4 156.62 220.4C157.173 220.4 157.615 220.273 157.946 220.019C158.278 219.765 158.443 219.417 158.443 218.975C158.443 218.522 158.278 218.169 157.946 217.914C157.615 217.649 157.173 217.517 156.62 217.517ZM156.62 225.57C157.294 225.57 157.825 225.421 158.211 225.123C158.609 224.814 158.808 224.405 158.808 223.897C158.808 223.389 158.609 222.985 158.211 222.687C157.825 222.389 157.294 222.24 156.62 222.24C155.958 222.24 155.433 222.389 155.046 222.687C154.659 222.985 154.466 223.389 154.466 223.897C154.466 224.416 154.659 224.825 155.046 225.123C155.433 225.421 155.958 225.57 156.62 225.57ZM171.836 215.744V217.484L167.527 227.344H164.61L168.77 217.931H164.925V219.82H162.539V215.744H171.836ZM173.746 227.476C173.293 227.476 172.912 227.322 172.603 227.012C172.293 226.703 172.139 226.316 172.139 225.852C172.139 225.377 172.293 224.996 172.603 224.709C172.912 224.41 173.293 224.261 173.746 224.261C174.199 224.261 174.58 224.41 174.889 224.709C175.199 224.996 175.353 225.377 175.353 225.852C175.353 226.316 175.199 226.703 174.889 227.012C174.58 227.322 174.199 227.476 173.746 227.476ZM180.774 215.744V227.344H178.089V217.898H175.769V215.744H180.774Z" fill="white"/>
        <g filter="url(#filter1_d)">
            <path d="M213.381 156.091C213.381 153.805 215.234 151.952 217.52 151.952H234.095V172.667H217.52C215.234 172.667 213.381 170.814 213.381 168.528V156.091Z" fill="#C4C4C4" fill-opacity="0.12"/>
            <path fill-rule="evenodd" clip-rule="evenodd" d="M224.67 165.526C224.643 165.526 224.616 165.525 224.588 165.522C224.233 165.487 223.955 165.237 223.879 164.885L222.798 159.893L221.685 162.464C221.621 162.611 221.476 162.707 221.316 162.707H220.107C219.885 162.707 219.704 162.526 219.704 162.304C219.704 162.081 219.885 161.901 220.107 161.901H221.051L222.061 159.569C222.204 159.241 222.519 159.049 222.877 159.085C223.231 159.12 223.509 159.371 223.586 159.723L224.666 164.714L225.779 162.144C225.843 161.996 225.988 161.901 226.149 161.901H227.357C227.58 161.901 227.76 162.081 227.76 162.304C227.76 162.526 227.58 162.707 227.357 162.707H226.413L225.404 165.038C225.272 165.341 224.99 165.526 224.67 165.526Z" fill="white"/>
        </g>
        <g filter="url(#filter2_d)">
            <path d="M235.453 151.952H252.029C254.315 151.952 256.167 153.805 256.167 156.091V168.528C256.167 170.814 254.315 172.667 252.029 172.667H235.453V151.952Z" fill="#C4C4C4" fill-opacity="0.12"/>
            <path fill-rule="evenodd" clip-rule="evenodd" d="M242.929 164.915C243.13 164.819 243.215 164.579 243.119 164.378C242.531 163.148 242.785 161.674 243.748 160.71C245.005 159.454 247.049 159.454 248.305 160.71C249.269 161.674 249.523 163.148 248.935 164.378C248.839 164.578 248.924 164.819 249.125 164.915C249.325 165.01 249.566 164.926 249.662 164.725C250.396 163.188 250.08 161.346 248.875 160.141C247.305 158.57 244.749 158.57 243.179 160.141C241.974 161.346 241.657 163.187 242.392 164.725C242.488 164.926 242.728 165.011 242.929 164.915ZM246.028 164.128L247.717 165.816C246.72 166.563 245.337 166.563 244.34 165.816L246.028 164.128ZM248.592 166.121C248.749 165.964 248.749 165.709 248.592 165.552L246.313 163.273C246.156 163.116 245.901 163.116 245.744 163.273L243.465 165.552C243.308 165.709 243.308 165.964 243.465 166.121C244.879 167.535 247.178 167.535 248.592 166.121Z" fill="white"/>
        </g>
        <g filter="url(#filter3_f)">
            <rect x="285.5" y="146.5" width="58" height="30" rx="4.5" stroke="#00FCFC"/>
        </g>
        <rect x="285.5" y="146.5" width="58" height="30" rx="4.5" stroke="#00FCFC"/>
    </g>
    <path d="M33.8415 207.339L34.232 206.974L33.8415 206.608L17.5179 191.341C21.4224 143.738 43.0434 99.3395 78.0981 66.9524C113.212 34.5108 159.231 16.4989 207 16.5C254.769 16.4989 300.788 34.5108 335.902 66.9524C370.956 99.3385 392.576 143.736 396.482 191.337L379.664 206.63L379.256 207.001L379.664 207.37L396.482 222.611C392.589 270.222 370.973 314.631 335.919 347.028C300.804 379.481 254.777 397.5 207 397.5C159.223 397.5 113.196 379.481 78.0814 347.028C43.0254 314.63 21.4099 270.219 17.5179 222.606L33.8415 207.339Z" stroke="#00FCFC"/>
    <defs>
        <filter id="filter0_d" x="47" y="118" width="323.095" height="185" filterUnits="userSpaceOnUse" color-interpolation-filters="sRGB">
            <feFlood flood-opacity="0" result="BackgroundImageFix"/>
            <feColorMatrix in="SourceAlpha" type="matrix" values="0 0 0 0 0 0 0 0 0 0 0 0 0 0 0 0 0 0 127 0"/>
            <feOffset dy="4"/>
            <feGaussianBlur stdDeviation="10"/>
            <feColorMatrix type="matrix" values="0 0 0 0 0.25098 0 0 0 0 0.482353 0 0 0 0 1 0 0 0 0.2 0"/>
            <feBlend mode="normal" in2="BackgroundImageFix" result="effect1_dropShadow"/>
            <feBlend mode="normal" in="SourceGraphic" in2="effect1_dropShadow" result="shape"/>
        </filter>
        <filter id="filter1_d" x="185.791" y="129.88" width="75.8949" height="75.8949" filterUnits="userSpaceOnUse" color-interpolation-filters="sRGB">
            <feFlood flood-opacity="0" result="BackgroundImageFix"/>
            <feColorMatrix in="SourceAlpha" type="matrix" values="0 0 0 0 0 0 0 0 0 0 0 0 0 0 0 0 0 0 127 0"/>
            <feOffset dy="5.51806"/>
            <feGaussianBlur stdDeviation="13.7951"/>
            <feColorMatrix type="matrix" values="0 0 0 0 0 0 0 0 0 0 0 0 0 0 0 0 0 0 0.25 0"/>
            <feBlend mode="normal" in2="BackgroundImageFix" result="effect1_dropShadow"/>
            <feBlend mode="normal" in="SourceGraphic" in2="effect1_dropShadow" result="shape"/>
        </filter>
        <filter id="filter2_d" x="207.863" y="129.88" width="75.8949" height="75.8949" filterUnits="userSpaceOnUse" color-interpolation-filters="sRGB">
            <feFlood flood-opacity="0" result="BackgroundImageFix"/>
            <feColorMatrix in="SourceAlpha" type="matrix" values="0 0 0 0 0 0 0 0 0 0 0 0 0 0 0 0 0 0 127 0"/>
            <feOffset dy="5.51806"/>
            <feGaussianBlur stdDeviation="13.7951"/>
            <feColorMatrix type="matrix" values="0 0 0 0 0 0 0 0 0 0 0 0 0 0 0 0 0 0 0.25 0"/>
            <feBlend mode="normal" in2="BackgroundImageFix" result="effect1_dropShadow"/>
            <feBlend mode="normal" in="SourceGraphic" in2="effect1_dropShadow" result="shape"/>
        </filter>
        <filter id="filter3_f" x="281" y="142" width="67" height="39" filterUnits="userSpaceOnUse" color-interpolation-filters="sRGB">
            <feFlood flood-opacity="0" result="BackgroundImageFix"/>
            <feBlend mode="normal" in="SourceGraphic" in2="BackgroundImageFix" result="shape"/>
            <feGaussianBlur stdDeviation="2" result="effect1_foregroundBlur"/>
        </filter>
        <clipPath id="clip0">
            <rect width="283.095" height="145" fill="white" transform="translate(67 134)"/>
        </clipPath>
    </defs>
</svg>
