<svg width="30" height="30" viewBox="0 0 30 30" fill="none" xmlns="http://www.w3.org/2000/svg">
    <path fill-rule="evenodd" clip-rule="evenodd" d="M25 3.75L25 12.5C25 13.1875 24.4375 13.75 23.75 13.75C23.0625 13.75 22.5 13.1875 22.5 12.5L22.5 3.75C22.5 3.0625 23.0625 2.5 23.75 2.5C24.4375 2.5 25 3.0625 25 3.75ZM16.25 7.5L16.25 12.5C16.25 13.1875 15.6875 13.75 15 13.75C14.3125 13.75 13.75 13.1875 13.75 12.5L13.75 7.5C13.75 6.8125 14.3125 6.25 15 6.25C15.6875 6.25 16.25 6.8125 16.25 7.5ZM7.5 12.5L7.5 10C7.5 9.3125 6.9375 8.75 6.25 8.75C5.5625 8.75 5 9.3125 5 10L5 12.5C5 13.1875 5.5625 13.75 6.25 13.75C6.9375 13.75 7.5 13.1875 7.5 12.5ZM9.19525 23.7503L10.7702 25.3815C11.249 25.879 11.2352 26.6703 10.739 27.149C10.2415 27.629 9.45025 27.6153 8.9715 27.119L5.35025 23.369C5.11775 23.1253 5.00025 22.8128 5.00025 22.5003C5.00025 22.1803 5.1215 21.8603 5.3665 21.6165L9.1165 17.8665C9.604 17.3778 10.3952 17.3778 10.884 17.8665C11.3715 18.354 11.3715 19.1453 10.884 19.634L9.26775 21.2503L20.804 21.2503L19.2302 19.619C18.7502 19.1228 18.7652 18.3315 19.2615 17.8515C19.7577 17.3715 20.549 17.3853 21.029 17.8815L24.6502 21.6315C25.1202 22.124 25.1177 22.9028 24.634 23.384L20.884 27.134C20.3952 27.6215 19.604 27.6215 19.1165 27.134C18.8715 26.8903 18.7502 26.5703 18.7502 26.2503C18.7502 25.9303 18.8715 25.6103 19.1165 25.3665L20.7327 23.7503L9.19525 23.7503Z" fill="#00FCFC"/>
</svg>
