<svg width="30" height="30" viewBox="0 0 30 30" fill="none" xmlns="http://www.w3.org/2000/svg">
    <path fill-rule="evenodd" clip-rule="evenodd" d="M6.53989 13.3001C6.98239 13.8301 7.76989 13.9026 8.29989 13.4601L13.7499 8.91887V23.7501C13.7499 24.4401 14.3099 25.0001 14.9999 25.0001C15.6899 25.0001 16.2499 24.4401 16.2499 23.7501V8.91887L21.6999 13.4601C22.2311 13.9026 23.0186 13.8301 23.4599 13.3001C23.9024 12.7701 23.8311 11.9814 23.2999 11.5401L15.7999 5.29012C15.7411 5.24012 15.6711 5.21637 15.6061 5.17887C15.5549 5.14887 15.5099 5.11387 15.4536 5.09137C15.3074 5.03387 15.1549 5.00012 14.9999 5.00012C14.8449 5.00012 14.6924 5.03387 14.5461 5.09137C14.4899 5.11387 14.4449 5.14887 14.3936 5.17887C14.3286 5.21637 14.2586 5.24012 14.1999 5.29012L6.69989 11.5401C6.16989 11.9814 6.09739 12.7701 6.53989 13.3001Z" fill="#00FCFC"/>
</svg>
