<svg width="414" height="414" viewBox="0 0 414 414" fill="none" xmlns="http://www.w3.org/2000/svg">
    <path d="M203.771 414V409.86H204.102V414H203.771ZM210.022 409.86H210.395V414H210.064L210.022 409.86ZM197.602 414V409.86H197.933V414H197.602ZM216.315 409.86H216.688V414H216.356L216.315 409.86ZM191.475 413.627L191.765 409.487H192.137L191.806 413.627H191.475ZM222.691 409.487H223.022L223.312 413.627H222.98L222.691 409.487ZM185.182 413.048L185.638 408.908H185.969L185.513 413.048H185.182ZM228.859 408.908H229.19L229.646 413.048H229.273L228.859 408.908ZM178.931 412.303L179.469 408.163H179.842L179.262 412.303H178.931ZM234.986 408.163H235.318L235.897 412.303H235.566L234.986 408.163ZM172.886 411.35L173.549 407.21H173.921L173.218 411.35H172.886ZM241.321 407.21H241.652L242.356 411.35H241.983L241.321 407.21ZM166.801 410.15L167.629 406.01H167.96L167.132 410.15H166.801ZM247.531 406.01H247.862L248.648 410.15H248.317L247.531 406.01ZM160.591 408.742L161.543 404.602H161.874L160.922 408.742H160.591ZM253.534 404.602H253.865L254.776 408.742H254.486L253.534 404.602ZM154.463 407.086L155.54 402.946H155.83L154.795 407.086H154.463ZM259.537 402.946H259.868L260.903 407.086H260.613L259.537 402.946ZM148.378 405.223L149.04 401.58H149.371L148.171 405.72L148.378 405.223ZM264.96 401.58H265.291L266.45 405.72H266.119L264.96 401.58ZM141.795 403.65L143.12 399.51H143.451L142.168 403.65H141.795ZM270.839 399.51H271.17L272.495 403.65H272.164L270.839 399.51ZM135.792 401.58L137.241 397.44H137.572L136.165 401.58H135.792ZM276.552 397.688H276.883L278.291 401.828H277.96L276.552 397.688ZM129.789 399.303L131.362 395.453H131.652L130.12 399.303H129.789ZM282.348 395.494H282.679L284.211 399.386H283.88L282.348 395.494ZM124.2 396.778L125.856 392.927H126.187L124.531 396.736L124.2 396.778ZM288.268 392.969H288.599L290.255 396.819H289.924L288.268 392.969ZM118.528 394.128L120.308 390.402H120.598L118.818 394.169L118.528 394.128ZM293.94 390.361H294.271L296.051 394.128H295.72L293.94 390.361ZM112.856 391.354L114.761 387.67H115.051L113.188 391.396L112.856 391.354ZM299.529 387.628H299.819L301.723 391.354H301.392L299.529 387.628ZM107.309 388.415L109.296 384.772H109.627L107.599 388.415H107.309ZM305.035 384.689H305.284L307.271 388.332H306.981L305.035 384.689ZM101.844 385.268L103.955 381.708H104.245L102.134 385.31L101.844 385.268ZM310.376 381.667H310.666L312.777 385.268H312.487L310.376 381.667ZM96.462 381.998L98.6976 378.479H98.9874L96.7518 381.998H96.462ZM315.634 378.396H315.923L318.159 381.915H317.869L315.634 378.396ZM91.08 378.52L93.3984 375.084L93.6882 375.291L91.3284 378.727L91.08 378.52ZM320.684 375.001H320.974L323.334 378.437H323.044L320.684 375.001ZM85.905 375.001L88.3476 371.606L88.596 371.813L86.1948 375.208L85.905 375.001ZM325.777 371.565H326.025L328.509 374.918L328.219 375.125L325.777 371.565ZM80.8542 371.234L83.3796 367.922L83.6694 368.129L81.1026 371.441L80.8542 371.234ZM330.745 367.839H330.993L333.56 371.151H333.27L330.745 367.839ZM75.8862 367.218L78.5358 363.989L78.66 364.32L76.0104 367.508L75.8862 367.218ZM335.588 363.906L335.837 363.699L338.486 366.887L338.197 367.135L335.588 363.906ZM71.0838 363.161L73.8162 360.014L74.0646 360.263L71.3322 363.368L71.0838 363.161ZM340.184 359.89L340.432 359.683L343.165 362.83H342.916L340.184 359.89ZM66.24 358.938L69.0966 355.874L69.345 356.123L66.5298 359.186L66.24 358.938ZM344.779 355.75L345.028 355.543L347.884 358.607H347.594L344.779 355.75ZM61.686 354.591L64.6254 351.61L64.8738 351.859L61.9344 354.839L61.686 354.591ZM349.25 351.486L349.499 351.238L352.438 354.218L352.19 354.467L349.25 351.486ZM57.2562 350.078L60.2784 347.18L60.5268 347.47L57.5046 350.327L57.2562 350.078ZM353.597 347.098V346.849L356.62 349.706L356.371 349.954L353.597 347.098ZM52.9506 345.442L56.0556 342.668L56.304 342.916L53.199 345.731L52.9506 345.442ZM357.779 342.544L358.027 342.295L361.132 345.069L360.884 345.317L357.779 342.544ZM48.8106 340.681L51.9984 337.99L52.2054 338.279L49.059 340.97L48.8106 340.681ZM361.836 337.907L362.084 337.617L365.272 340.308L365.024 340.598L361.836 337.907ZM44.7948 335.795L48.0654 333.229V333.477L44.8362 336.085L44.7948 335.795ZM365.769 333.104L365.976 332.856L369.247 335.423V335.713L365.769 333.104ZM41.0688 330.827L44.4222 328.302V328.592L41.4 331.2L41.0688 330.827ZM369.661 328.219V327.929L373.014 330.413L372.807 330.703L369.661 328.219ZM37.26 325.694L40.6548 323.293L40.8618 323.582L37.4256 325.984L37.26 325.694ZM373.18 323.21V322.92L376.616 325.321L376.409 325.57L373.18 323.21ZM33.6996 320.477L37.26 318.159L37.467 318.49L33.948 320.767L33.6996 320.477ZM376.74 318.076V317.786L380.218 320.063V320.395L376.74 318.076ZM30.429 315.137L33.9894 312.943V313.232L30.429 315.427V315.137ZM380.052 312.86V312.57L383.612 314.764V315.054L380.052 312.86ZM27.1998 309.672L30.8016 307.602V307.933L27.1584 310.003L27.1998 309.672ZM383.24 307.561V307.271L386.883 309.341V309.631L383.24 307.561ZM24.1362 304.166L27.8208 302.22V302.551L24.1362 304.497V304.166ZM386.179 302.22V301.93L389.864 303.876V304.207L386.179 302.22ZM21.2796 298.535L25.0056 296.672V297.004L21.2382 298.825L21.2796 298.535ZM389.16 296.672V296.341L392.886 298.204V298.494L389.16 296.672ZM18.5472 292.822L22.356 291.083V291.373L18.5472 293.112V292.822ZM391.644 291.083V290.794L395.411 292.491V292.822L391.644 291.083ZM16.0218 286.943L19.8306 285.37V285.66L15.9804 287.275L16.0218 286.943ZM394.128 285.66V285.329L397.978 286.943V287.275L394.128 285.66ZM13.662 281.52L17.5536 280.071V280.361L13.7862 281.52H13.662ZM396.405 280.154V279.823L400.297 281.313V281.644L396.405 280.154ZM11.385 275.6L15.525 274.234V274.565L11.385 275.931V275.6ZM398.475 274.316V274.027L402.615 275.393V275.724L398.475 274.316ZM9.4806 269.1L13.6206 267.899V268.231L9.4806 269.473V269.1ZM400.504 268.024V267.692L404.644 268.934V269.266L400.504 268.024ZM7.659 263.097L11.799 261.979V262.31L7.659 263.47V263.097ZM402.284 262.103V261.772L406.424 262.89V263.263L402.284 262.103ZM6.0444 257.011L10.1844 256.018V256.349L6.0444 257.342V257.011ZM403.857 256.142V255.811L407.997 256.804V257.135L403.857 256.142ZM4.6368 250.843L8.7768 249.973V250.304L4.6368 251.215V250.843ZM405.265 250.097V249.766L409.405 250.677V251.008L405.265 250.097ZM3.3948 244.674L7.5348 243.929V244.26L3.3948 245.005V244.674ZM406.465 244.26V243.929L410.605 244.674V245.005L406.465 244.26ZM2.3598 238.464L6.4998 237.802V238.174L2.3598 238.795V238.464ZM407.5 237.967V237.595L411.64 238.216V238.588L407.5 237.967ZM1.4904 232.213L5.6304 231.674V232.047L1.4904 232.544V232.213ZM408.328 231.84V231.467L412.468 231.964V232.337L408.328 231.84ZM0.828 225.92L4.968 225.547V225.878L0.828 226.251V225.92ZM408.991 225.671V225.34L413.131 225.713V226.044L408.991 225.671ZM0.3726 219.627L4.5126 219.379V219.71L0.3726 219.958V219.627ZM409.487 219.627V219.296L413.627 219.544V219.875L409.487 219.627ZM0 213.293H4.14V213.665H0V213.293ZM409.86 213.293V212.92H414V213.293H409.86ZM409.86 200.583H414V200.956H409.86V200.583ZM0 200.749V200.417H4.14V200.79L0 200.749ZM409.446 194.58L413.586 194.332V194.58H409.446ZM0.3726 194.58V194.249L4.5126 194.497V194.58H0.3726ZM408.991 188.37L413.131 187.997V188.329L408.991 188.743V188.37ZM0.828 188.163V187.79L4.968 188.204V188.536L0.828 188.163ZM408.328 182.16L412.468 181.622V182.16L408.328 182.657V182.16ZM1.4904 181.912V181.539L5.6304 182.036V182.367L1.4904 181.912ZM407.5 175.991L411.64 175.329V175.702L407.5 176.323V175.991ZM2.3598 175.619V175.288L6.4998 175.909V176.281L2.3598 175.619ZM406.465 169.74L410.605 168.995V169.326L406.465 170.071V169.74ZM3.3948 169.409V169.078L7.5348 169.823V170.154L3.3948 169.409ZM405.223 163.82L409.363 162.909V163.282L405.223 164.151V163.82ZM4.6368 163.199V162.868L8.7768 163.778V164.11L4.6368 163.199ZM403.857 157.775L407.997 156.782V157.113L403.857 158.107V157.775ZM6.0444 157.072V156.74L10.1844 157.734V158.065L6.0444 157.072ZM402.242 151.814L406.382 150.655V151.027L402.242 152.145V151.814ZM7.659 150.944V150.613L11.799 151.772V152.104L7.659 150.944ZM400.462 145.894L404.602 144.61V144.941L400.462 146.225V145.894ZM9.4392 144.9V144.569L13.5792 145.852V146.183L9.4392 144.9ZM398.599 139.973L402.532 138.607V138.938L398.599 140.305V139.973ZM11.5092 138.897V138.566L15.6492 139.932V140.305L11.5092 138.897ZM396.529 134.177L400.421 132.646V132.977L396.529 134.467V134.177ZM13.6206 132.977V132.646L17.5122 134.136V134.467L13.6206 132.977ZM15.939 127.139V126.808L19.7892 128.423V128.754L15.939 127.139ZM394.045 128.34L397.895 126.725V127.015L394.045 128.63V128.34ZM18.4644 121.343V121.054L22.2318 122.792V123.082L18.4644 121.343ZM391.561 122.71L395.37 121.012V121.302L391.603 123.041L391.561 122.71ZM21.1554 115.672V115.382L24.8814 117.203V117.535L21.1554 115.672ZM388.912 117.121L392.638 115.299V115.589L388.912 117.452V117.121ZM24.012 110.083V109.751L27.6966 111.739V112.028L24.012 110.083ZM386.055 111.78L389.74 109.834V110.124L386.055 112.07V111.78ZM27.0756 104.535V104.245L30.6774 106.315V106.605L27.0756 104.535ZM383.116 106.191L386.717 104.121V104.411L383.116 106.481V106.191ZM30.2634 99.1116L30.4704 98.8218L33.9894 101.016V101.306L30.2634 99.1116ZM379.886 100.85L383.447 98.6976V98.9874L379.886 101.182V100.85ZM33.6582 93.8124V93.5226L37.1358 95.7996V96.0894L33.6582 93.8124ZM376.74 95.634L380.218 93.357V93.6468L376.74 95.9238V95.634ZM37.26 88.596V88.3062L40.6548 90.7074V90.9558L37.26 88.596ZM373.18 90.5418L376.574 88.1406V88.4304L373.18 90.7902V90.5418ZM40.8618 83.4624L41.0688 83.1726L44.4222 85.698L44.2152 85.9464L40.8618 83.4624ZM369.454 85.5324L372.807 83.007V83.2968L369.454 85.7808V85.5324ZM44.712 78.66V78.4116L47.9826 80.9784L47.7756 81.2682L44.712 78.66ZM365.686 80.8128L368.915 78.2046L369.164 78.4944L365.893 81.1026L365.686 80.8128ZM48.6864 73.7748L48.9348 73.5264L52.1226 76.2174L51.8742 76.4658L48.6864 73.7748ZM361.753 76.0518L364.9 73.3194L365.148 73.6092L361.96 76.3002L361.753 76.0518ZM52.8264 69.0138L53.0748 68.7654L56.1798 71.5392L55.9314 71.829L52.8264 69.0138ZM357.655 71.3736L360.76 68.5998L361.008 68.8482L357.903 71.622L357.655 71.3736ZM57.132 64.17L57.3804 63.9216L60.3612 66.8196L60.1542 67.068L57.132 64.17ZM353.473 66.654L356.454 63.756L356.702 64.0044L353.68 66.9024L353.473 66.654ZM61.5618 59.6988L61.8102 59.4504L64.7082 62.4312L64.4598 62.6382L61.5618 59.6988ZM349.126 62.1L352.024 59.1606H352.273L349.333 62.1414L349.126 62.1ZM66.24 55.3104V55.062L69.0552 58.1256L68.8068 58.374L66.24 55.3104ZM344.614 57.96L347.47 54.8964L347.719 55.1448L344.862 58.2084L344.614 57.96ZM70.794 51.0876L71.0424 50.8392L73.7748 53.9856L73.5264 54.234L70.794 51.0876ZM339.894 53.8614L342.626 50.715L342.875 50.922L340.142 54.0684L339.894 53.8614ZM75.5964 46.989H75.8862L78.5358 50.2182L78.246 50.4252L75.5964 46.989ZM335.34 49.68L337.99 46.4508L338.238 46.6992L335.588 49.9284L335.34 49.68ZM80.5644 43.056L80.8128 42.849L83.3796 46.161H83.0898L80.5644 43.056ZM330.455 46.0368L332.98 42.7248H333.27L330.703 46.0368H330.455ZM85.6152 39.2886L85.905 39.0816L88.3476 42.435L88.0578 42.642L85.6152 39.2886ZM325.487 42.3522L327.929 38.9574L328.219 39.1644L325.777 42.5178L325.487 42.3522ZM90.7902 35.6454H91.08L93.3984 39.123H93.1086L90.7902 35.6454ZM320.436 38.7918L322.92 35.3556H323.21L320.891 38.8332L320.436 38.7918ZM96.048 32.1678H96.3792L98.6148 35.6868H98.2836L96.048 32.1678ZM315.468 35.397L317.704 31.878H317.993L315.758 35.397H315.468ZM101.471 28.98H101.761L103.873 32.5818H103.583L101.471 28.98ZM310.003 32.3334L312.115 28.7316H312.404L310.5 32.3748L310.003 32.3334ZM107.143 25.8336H107.474L109.462 29.4768H109.172L107.143 25.8336ZM304.621 28.98L306.65 25.3368H306.94L304.911 28.98H304.621ZM112.525 22.7286H112.815L114.719 26.4132H114.43L112.525 22.7286ZM299.156 26.2476L301.061 22.5216H301.392L299.488 26.2476H299.156ZM118.197 19.9548H118.528L120.308 23.7222H119.977L118.197 19.9548ZM293.65 23.5152L295.43 19.7478H295.72L293.94 23.6808L293.65 23.5152ZM123.91 17.3052H124.241L125.897 21.114H125.566L123.91 17.3052ZM287.978 20.9898L289.634 17.1396H289.966L288.31 20.9484L287.978 20.9898ZM129.789 14.8626H130.12L131.652 18.7128H131.321L129.789 14.8626ZM282.348 18.5886L283.88 14.7384H284.211L282.638 18.5886H282.348ZM276.552 16.56L278.001 12.42H278.332L276.883 16.56H276.552ZM135.709 12.42H136.04L137.448 16.56H137.117L135.709 12.42ZM270.715 14.2002L271.998 10.0602H272.371L271.046 14.2002H270.715ZM141.671 10.5156H142.002L143.327 14.6556H142.996L141.671 10.5156ZM264.96 12.42L266.161 8.28H266.492L264.96 12.42ZM147.715 8.6112H148.046L149.04 12.42L147.715 8.6112ZM258.833 10.8468L259.909 6.7068H260.24L259.164 10.8468H258.833ZM153.76 6.7068H154.132L155.167 10.8468H154.836L153.76 6.7068ZM252.83 9.1908L253.782 5.0508H254.113L253.202 9.1908H252.83ZM159.928 5.0508H160.259L161.17 9.1908H160.839L159.928 5.0508ZM246.868 7.7418L247.696 3.6018H248.027L247.199 7.7418H246.868ZM166.097 4.14H166.428L167.256 8.28H166.883L166.097 4.14ZM240.617 7.0794L241.321 2.9394H241.652L240.989 7.0794H240.617ZM172.265 2.8566H172.638L173.3 6.9966H172.969L172.265 2.8566ZM234.614 6.003L235.152 1.863H235.525L234.945 6.003H234.614ZM178.517 1.9044H178.889L179.428 6.0444H179.096L178.517 1.9044ZM228.445 5.2578L228.901 1.1178H229.232L228.818 5.2578H228.445ZM184.81 1.1592H185.141L185.596 5.2992H185.224L184.81 1.1592ZM222.07 4.7196L222.401 0.5796H222.732L222.442 4.7196H222.07ZM190.937 0.5796H191.227L191.516 4.7196H191.185L190.937 0.5796ZM215.777 4.347V0.207H216.108V4.347H215.777ZM197.064 0.207H197.395L197.602 4.347H197.23L197.064 0.207ZM203.688 0H204.019V4.14H203.688V0ZM209.939 4.14V0H210.271V4.14H209.939Z" fill="white"/>
    <g clip-path="url(#clip0)" filter="url(#filter0_d)">
        <rect x="67" y="134" width="283.095" height="145" rx="4.0831" fill="#191E2C"/>
        <path d="M100.885 162.492C102.045 162.859 102.954 163.478 103.611 164.348C104.269 165.198 104.597 166.252 104.597 167.509C104.597 169.287 103.901 170.66 102.509 171.627C101.137 172.574 99.1259 173.048 96.4773 173.048H85.9793V152.748H95.8973C98.3719 152.748 100.267 153.221 101.581 154.169C102.915 155.116 103.582 156.402 103.582 158.026C103.582 159.012 103.341 159.891 102.857 160.665C102.393 161.438 101.736 162.047 100.885 162.492ZM90.6483 156.286V161.071H95.3173C96.4773 161.071 97.3569 160.868 97.9563 160.462C98.5556 160.056 98.8553 159.456 98.8553 158.664C98.8553 157.871 98.5556 157.281 97.9563 156.895C97.3569 156.489 96.4773 156.286 95.3173 156.286H90.6483ZM96.1293 169.51C97.3666 169.51 98.2946 169.307 98.9133 168.901C99.5513 168.495 99.8703 167.866 99.8703 167.016C99.8703 165.334 98.6233 164.493 96.1293 164.493H90.6483V169.51H96.1293ZM111.496 156.576H105V152.748H122.69V156.576H116.194V173.048H111.496V156.576ZM134.069 173.396C132.001 173.396 130.125 172.951 128.443 172.062C126.781 171.153 125.466 169.906 124.499 168.321C123.552 166.716 123.078 164.908 123.078 162.898C123.078 160.887 123.552 159.089 124.499 157.504C125.466 155.899 126.781 154.652 128.443 153.763C130.125 152.854 132.01 152.4 134.098 152.4C135.858 152.4 137.443 152.709 138.854 153.328C140.285 153.946 141.484 154.836 142.45 155.996L139.434 158.78C138.062 157.194 136.36 156.402 134.33 156.402C133.074 156.402 131.952 156.682 130.966 157.243C129.98 157.784 129.207 158.548 128.646 159.534C128.105 160.52 127.834 161.641 127.834 162.898C127.834 164.154 128.105 165.276 128.646 166.262C129.207 167.248 129.98 168.021 130.966 168.582C131.952 169.123 133.074 169.394 134.33 169.394C136.36 169.394 138.062 168.591 139.434 166.987L142.45 169.771C141.484 170.95 140.285 171.849 138.854 172.468C137.424 173.086 135.829 173.396 134.069 173.396ZM153.892 173.396C150.992 173.396 148.73 172.593 147.106 170.989C145.501 169.384 144.699 167.093 144.699 164.116V152.748H149.397V163.942C149.397 167.576 150.905 169.394 153.921 169.394C155.39 169.394 156.512 168.959 157.285 168.089C158.058 167.199 158.445 165.817 158.445 163.942V152.748H163.085V164.116C163.085 167.093 162.273 169.384 160.649 170.989C159.044 172.593 156.792 173.396 153.892 173.396ZM173.818 173.396C172.213 173.396 170.657 173.183 169.149 172.758C167.66 172.313 166.461 171.743 165.553 171.047L167.148 167.509C168.018 168.147 169.052 168.659 170.251 169.046C171.449 169.432 172.648 169.626 173.847 169.626C175.181 169.626 176.167 169.432 176.805 169.046C177.443 168.64 177.762 168.108 177.762 167.451C177.762 166.967 177.568 166.571 177.182 166.262C176.814 165.933 176.331 165.672 175.732 165.479C175.152 165.285 174.359 165.073 173.354 164.841C171.807 164.473 170.541 164.106 169.555 163.739C168.569 163.371 167.718 162.782 167.003 161.97C166.307 161.158 165.959 160.075 165.959 158.722C165.959 157.542 166.278 156.479 166.916 155.532C167.554 154.565 168.511 153.801 169.787 153.241C171.082 152.68 172.658 152.4 174.514 152.4C175.809 152.4 177.075 152.554 178.313 152.864C179.55 153.173 180.633 153.618 181.561 154.198L180.111 157.765C178.235 156.701 176.36 156.17 174.485 156.17C173.17 156.17 172.194 156.382 171.556 156.808C170.937 157.233 170.628 157.794 170.628 158.49C170.628 159.186 170.985 159.708 171.701 160.056C172.435 160.384 173.547 160.713 175.036 161.042C176.582 161.409 177.849 161.776 178.835 162.144C179.821 162.511 180.662 163.091 181.358 163.884C182.073 164.676 182.431 165.749 182.431 167.103C182.431 168.263 182.102 169.326 181.445 170.293C180.807 171.24 179.84 171.994 178.545 172.555C177.249 173.115 175.674 173.396 173.818 173.396ZM185.061 152.748H194.283C196.487 152.748 198.43 153.173 200.112 154.024C201.813 154.855 203.128 156.034 204.056 157.562C205.003 159.089 205.477 160.868 205.477 162.898C205.477 164.928 205.003 166.706 204.056 168.234C203.128 169.761 201.813 170.95 200.112 171.801C198.43 172.632 196.487 173.048 194.283 173.048H185.061V152.748ZM194.051 169.191C196.081 169.191 197.695 168.63 198.894 167.509C200.112 166.368 200.721 164.831 200.721 162.898C200.721 160.964 200.112 159.437 198.894 158.316C197.695 157.175 196.081 156.605 194.051 156.605H189.759V169.191H194.051Z" fill="white"/>
        <path d="M345.953 274.561C345.953 275.324 345.335 275.942 344.572 275.942L303.979 275.942C303.216 275.942 302.598 275.324 302.598 274.561C302.598 273.798 303.216 273.18 303.979 273.18L344.572 273.18C345.335 273.18 345.953 273.798 345.953 274.561Z" fill="#D5CE41"/>
        <path d="M299.385 274.561C299.385 275.324 298.766 275.942 298.004 275.942L257.41 275.942C256.648 275.942 256.029 275.324 256.029 274.561C256.029 273.798 256.648 273.18 257.41 273.18L298.004 273.18C298.766 273.18 299.385 273.798 299.385 274.561Z" fill="#D5CE41"/>
        <rect x="252.818" y="275.942" width="43.3555" height="2.7619" rx="1.38095" transform="rotate(180 252.818 275.942)" fill="#D5CE41"/>
        <rect x="206.25" y="275.942" width="43.3555" height="2.7619" rx="1.38095" transform="rotate(180 206.25 275.942)" fill="#D5CE41"/>
        <rect x="159.684" y="275.942" width="43.3555" height="2.7619" rx="1.38095" transform="rotate(180 159.684 275.942)" fill="#D64730"/>
        <path d="M113.117 274.561C113.117 275.324 112.499 275.942 111.736 275.942L71.1426 275.942C70.38 275.942 69.7617 275.324 69.7617 274.561C69.7617 273.798 70.38 273.18 71.1426 273.18L111.736 273.18C112.499 273.18 113.117 273.798 113.117 274.561Z" fill="#D64730"/>
        <rect x="294.434" y="164.381" width="5.35119" height="6.90476" rx="2.6756" fill="white"/>
        <rect x="303.799" y="161.619" width="5.35119" height="9.66667" rx="2.6756" fill="white"/>
        <rect x="313.162" y="158.857" width="5.35119" height="12.4286" rx="2.6756" fill="white"/>
        <rect x="322.527" y="156.095" width="5.35119" height="15.1905" rx="2.6756" fill="white"/>
        <rect x="331.893" y="153.333" width="5.35119" height="17.9524" rx="2.6756" fill="white"/>
        <path opacity="0.5" d="M115.534 248.462V259.095H113.559V250.118H111.311V248.462H115.534ZM121.319 248.462V259.095H119.345V250.118H117.096V248.462H121.319ZM124.614 253.414C124.269 253.414 123.976 253.297 123.733 253.064C123.489 252.821 123.368 252.518 123.368 252.153C123.368 251.778 123.484 251.475 123.717 251.242C123.96 251.009 124.259 250.892 124.614 250.892C124.968 250.892 125.262 251.009 125.495 251.242C125.738 251.475 125.859 251.778 125.859 252.153C125.859 252.518 125.738 252.821 125.495 253.064C125.252 253.297 124.958 253.414 124.614 253.414ZM124.614 259.201C124.269 259.201 123.976 259.085 123.733 258.852C123.489 258.609 123.368 258.305 123.368 257.941C123.368 257.566 123.484 257.262 123.717 257.029C123.96 256.796 124.259 256.68 124.614 256.68C124.968 256.68 125.262 256.796 125.495 257.029C125.738 257.262 125.859 257.566 125.859 257.941C125.859 258.305 125.738 258.609 125.495 258.852C125.252 259.085 124.958 259.201 124.614 259.201ZM130.464 252.578C131.963 252.578 133.072 252.872 133.791 253.459C134.51 254.037 134.869 254.827 134.869 255.829C134.869 256.467 134.712 257.044 134.398 257.561C134.084 258.077 133.614 258.487 132.986 258.791C132.358 259.095 131.583 259.247 130.662 259.247C129.902 259.247 129.168 259.141 128.459 258.928C127.75 258.705 127.153 258.401 126.666 258.017L127.502 256.482C127.897 256.806 128.368 257.065 128.915 257.257C129.472 257.439 130.044 257.53 130.631 257.53C131.33 257.53 131.877 257.389 132.272 257.105C132.677 256.811 132.879 256.411 132.879 255.905C132.879 255.358 132.662 254.948 132.226 254.675C131.801 254.391 131.067 254.249 130.024 254.249H127.456L128.003 248.462H134.246V250.118H129.674L129.446 252.578H130.464ZM140.461 252.852C141.443 252.973 142.193 253.308 142.709 253.854C143.226 254.401 143.484 255.085 143.484 255.905C143.484 256.523 143.327 257.085 143.013 257.591C142.699 258.098 142.223 258.503 141.585 258.806C140.957 259.1 140.187 259.247 139.276 259.247C138.517 259.247 137.782 259.141 137.073 258.928C136.375 258.705 135.777 258.401 135.281 258.017L136.132 256.482C136.516 256.806 136.982 257.065 137.529 257.257C138.086 257.439 138.658 257.53 139.246 257.53C139.944 257.53 140.491 257.389 140.886 257.105C141.291 256.811 141.494 256.417 141.494 255.92C141.494 255.424 141.301 255.039 140.917 254.766C140.542 254.482 139.965 254.34 139.185 254.34H138.213V252.989L140.628 250.118H135.797V248.462H143.043V249.783L140.461 252.852Z" fill="white"/>
        <g opacity="0.5">
            <path fill-rule="evenodd" clip-rule="evenodd" d="M94.6145 245.417C89.8502 245.417 85.9922 249.283 85.9922 254.048C85.9922 258.812 89.8502 262.679 94.6145 262.679C99.3874 262.679 103.254 258.812 103.254 254.048C103.254 249.283 99.3874 245.417 94.6145 245.417ZM94.6231 260.952C90.8082 260.952 87.7183 257.863 87.7183 254.048C87.7183 250.233 90.8082 247.143 94.6231 247.143C98.438 247.143 101.528 250.233 101.528 254.048C101.528 257.863 98.438 260.952 94.6231 260.952ZM93.76 249.732H95.0546V254.264L98.9386 256.568L98.2912 257.63L93.76 254.911V249.732Z" fill="white"/>
        </g>
        <path opacity="0.5" d="M202.185 252.579C203.683 252.579 204.792 252.872 205.511 253.46C206.23 254.037 206.59 254.827 206.59 255.829C206.59 256.467 206.433 257.045 206.119 257.561C205.805 258.077 205.334 258.488 204.706 258.791C204.078 259.095 203.304 259.247 202.382 259.247C201.623 259.247 200.888 259.141 200.179 258.928C199.471 258.705 198.873 258.402 198.387 258.017L199.222 256.482C199.617 256.807 200.088 257.065 200.635 257.257C201.192 257.439 201.764 257.531 202.352 257.531C203.05 257.531 203.597 257.389 203.992 257.105C204.397 256.812 204.6 256.412 204.6 255.905C204.6 255.358 204.382 254.948 203.947 254.675C203.521 254.391 202.787 254.249 201.744 254.249H199.177L199.724 248.462H205.967V250.118H201.395L201.167 252.579H202.185ZM222.743 250.892C223.765 250.892 224.576 251.191 225.173 251.789C225.771 252.376 226.069 253.262 226.069 254.447V259.095H224.171V254.69C224.171 253.981 224.014 253.449 223.7 253.095C223.386 252.73 222.935 252.548 222.348 252.548C221.71 252.548 221.198 252.761 220.813 253.186C220.429 253.601 220.236 254.199 220.236 254.979V259.095H218.337V254.69C218.337 253.981 218.18 253.449 217.866 253.095C217.553 252.73 217.102 252.548 216.515 252.548C215.866 252.548 215.35 252.756 214.965 253.171C214.59 253.586 214.403 254.189 214.403 254.979V259.095H212.504V250.984H214.312V252.016C214.616 251.652 214.995 251.373 215.451 251.181C215.907 250.989 216.413 250.892 216.97 250.892C217.578 250.892 218.115 251.009 218.58 251.242C219.056 251.465 219.431 251.799 219.705 252.244C220.039 251.819 220.469 251.49 220.996 251.257C221.522 251.014 222.105 250.892 222.743 250.892ZM228.496 250.984H230.395V259.095H228.496V250.984ZM229.453 249.647C229.108 249.647 228.82 249.54 228.587 249.328C228.354 249.105 228.238 248.832 228.238 248.507C228.238 248.183 228.354 247.915 228.587 247.702C228.82 247.48 229.108 247.368 229.453 247.368C229.797 247.368 230.086 247.475 230.319 247.687C230.552 247.89 230.668 248.148 230.668 248.462C230.668 248.796 230.552 249.08 230.319 249.313C230.096 249.535 229.807 249.647 229.453 249.647ZM237.489 250.892C238.512 250.892 239.333 251.191 239.95 251.789C240.568 252.386 240.877 253.272 240.877 254.447V259.095H238.978V254.69C238.978 253.981 238.811 253.449 238.477 253.095C238.143 252.73 237.667 252.548 237.049 252.548C236.35 252.548 235.798 252.761 235.393 253.186C234.988 253.601 234.786 254.204 234.786 254.994V259.095H232.887V250.984H234.694V252.032C235.008 251.657 235.403 251.373 235.879 251.181C236.355 250.989 236.892 250.892 237.489 250.892Z" fill="white"/>
        <g opacity="0.5">
            <path fill-rule="evenodd" clip-rule="evenodd" d="M182.795 260.358C182.738 260.358 182.678 260.355 182.618 260.349C181.859 260.274 181.263 259.738 181.099 258.983L178.784 248.287L176.399 253.795C176.262 254.111 175.95 254.316 175.607 254.316H173.017C172.54 254.316 172.154 253.929 172.154 253.453C172.154 252.976 172.54 252.59 173.017 252.59H175.04L177.203 247.593C177.51 246.889 178.185 246.479 178.952 246.556C179.712 246.631 180.307 247.167 180.471 247.922L182.787 258.618L185.172 253.109C185.309 252.793 185.619 252.59 185.964 252.59H188.553C189.03 252.59 189.416 252.976 189.416 253.453C189.416 253.929 189.03 254.316 188.553 254.316H186.53L184.367 259.312C184.085 259.961 183.48 260.358 182.795 260.358Z" fill="#F2F2F2"/>
        </g>
        <g opacity="0.5">
            <path fill-rule="evenodd" clip-rule="evenodd" d="M284.642 254.048L280.672 258.018L281.88 259.226L287.059 254.048L281.88 248.869L280.672 250.077L284.642 254.048ZM272.214 254.048L276.184 258.018L274.975 259.226L269.797 254.048L274.975 248.869L276.184 250.078L272.214 254.048Z" fill="white"/>
        </g>
        <path opacity="0.5" d="M300.66 248.462C301.582 248.462 302.382 248.614 303.06 248.917C303.749 249.221 304.276 249.657 304.64 250.224C305.005 250.791 305.187 251.464 305.187 252.244C305.187 253.014 305.005 253.687 304.64 254.265C304.276 254.832 303.749 255.267 303.06 255.571C302.382 255.875 301.582 256.027 300.66 256.027H298.26V259.095H296.285V248.462H300.66ZM300.569 254.356C301.43 254.356 302.083 254.173 302.529 253.809C302.974 253.444 303.197 252.923 303.197 252.244C303.197 251.566 302.974 251.044 302.529 250.68C302.083 250.315 301.43 250.133 300.569 250.133H298.26V254.356H300.569ZM310.604 259.247C309.783 259.247 308.988 259.131 308.219 258.898C307.459 258.665 306.857 258.356 306.411 257.971L307.095 256.437C307.53 256.781 308.062 257.065 308.69 257.287C309.328 257.5 309.966 257.606 310.604 257.606C311.394 257.606 311.981 257.48 312.366 257.227C312.761 256.973 312.958 256.639 312.958 256.224C312.958 255.92 312.847 255.672 312.624 255.48C312.411 255.277 312.138 255.12 311.804 255.009C311.47 254.897 311.014 254.771 310.437 254.629C309.626 254.437 308.968 254.244 308.462 254.052C307.966 253.859 307.535 253.561 307.171 253.156C306.816 252.74 306.639 252.183 306.639 251.485C306.639 250.897 306.796 250.366 307.11 249.89C307.434 249.404 307.915 249.019 308.553 248.735C309.201 248.452 309.991 248.31 310.923 248.31C311.571 248.31 312.209 248.391 312.837 248.553C313.465 248.715 314.006 248.948 314.462 249.252L313.839 250.786C313.373 250.512 312.887 250.305 312.381 250.163C311.875 250.021 311.383 249.95 310.907 249.95C310.128 249.95 309.545 250.082 309.161 250.345C308.786 250.609 308.599 250.958 308.599 251.394C308.599 251.697 308.705 251.945 308.918 252.138C309.14 252.33 309.419 252.482 309.753 252.594C310.087 252.705 310.543 252.832 311.12 252.973C311.91 253.156 312.558 253.348 313.065 253.551C313.571 253.743 314.001 254.042 314.356 254.447C314.72 254.852 314.903 255.399 314.903 256.087C314.903 256.675 314.741 257.206 314.416 257.682C314.103 258.158 313.621 258.538 312.973 258.822C312.325 259.105 311.535 259.247 310.604 259.247ZM323.757 256.634H318.441L317.392 259.095H315.357L320.142 248.462H322.086L326.886 259.095H324.821L323.757 256.634ZM323.104 255.085L321.099 250.437L319.109 255.085H323.104ZM335.196 259.095L333.024 255.981C332.933 255.991 332.796 255.996 332.614 255.996H330.213V259.095H328.239V248.462H332.614C333.535 248.462 334.335 248.614 335.014 248.917C335.702 249.221 336.229 249.657 336.593 250.224C336.958 250.791 337.14 251.464 337.14 252.244C337.14 253.044 336.943 253.733 336.548 254.31C336.163 254.887 335.606 255.318 334.877 255.601L337.323 259.095H335.196ZM335.15 252.244C335.15 251.566 334.928 251.044 334.482 250.68C334.036 250.315 333.383 250.133 332.522 250.133H330.213V254.371H332.522C333.383 254.371 334.036 254.189 334.482 253.824C334.928 253.449 335.15 252.923 335.15 252.244Z" fill="white"/>
        <path d="M264.318 219.984C262.637 219.984 261.006 219.761 259.426 219.315C257.867 218.849 256.611 218.252 255.659 217.523L257.33 213.816C258.242 214.485 259.325 215.021 260.581 215.426C261.837 215.832 263.092 216.034 264.348 216.034C265.746 216.034 266.779 215.832 267.447 215.426C268.115 215.001 268.45 214.444 268.45 213.755C268.45 213.249 268.247 212.834 267.842 212.51C267.457 212.166 266.951 211.892 266.323 211.69C265.715 211.487 264.885 211.264 263.832 211.021C262.211 210.636 260.885 210.252 259.852 209.867C258.819 209.482 257.928 208.864 257.178 208.013C256.449 207.163 256.085 206.029 256.085 204.611C256.085 203.375 256.419 202.261 257.087 201.269C257.756 200.256 258.758 199.456 260.095 198.869C261.452 198.281 263.103 197.988 265.047 197.988C266.404 197.988 267.731 198.15 269.027 198.474C270.323 198.798 271.457 199.264 272.43 199.871L270.91 203.608C268.946 202.494 266.981 201.937 265.017 201.937C263.639 201.937 262.616 202.16 261.948 202.606C261.3 203.051 260.976 203.639 260.976 204.368C260.976 205.097 261.351 205.644 262.1 206.008C262.87 206.353 264.034 206.697 265.594 207.041C267.214 207.426 268.541 207.811 269.574 208.196C270.607 208.581 271.488 209.188 272.217 210.019C272.966 210.849 273.341 211.973 273.341 213.391C273.341 214.606 272.997 215.72 272.308 216.733C271.64 217.725 270.627 218.515 269.27 219.103C267.913 219.69 266.262 219.984 264.318 219.984ZM293.17 215.669V219.619H276.704V198.352H292.776V202.302H281.595V206.92H291.469V210.748H281.595V215.669H293.17ZM297.087 198.352H302.008V215.609H312.672V219.619H297.087V198.352ZM315.422 198.352H320.344V215.609H331.007V219.619H315.422V198.352Z" fill="#FF665A"/>
        <rect x="86.334" y="180.952" width="124.286" height="23.4762" rx="3.82969" fill="#D64730" fill-opacity="0.37"/>
        <path fill-rule="evenodd" clip-rule="evenodd" d="M99.7405 186.476H110.86C111.22 186.476 111.515 186.771 111.515 187.131V187.203C111.515 187.562 111.22 187.857 110.86 187.857H99.7405C99.3808 187.857 99.0859 187.562 99.0859 187.203V187.131C99.0859 186.771 99.3808 186.476 99.7405 186.476ZM105.818 190.732L105.818 196.179C105.818 196.538 105.523 196.833 105.163 196.833H105.092C104.732 196.833 104.437 196.538 104.437 196.179V190.732L103.544 191.625C103.274 191.895 102.838 191.895 102.568 191.625C102.433 191.49 102.366 191.313 102.366 191.137C102.366 190.96 102.433 190.784 102.568 190.649L104.639 188.577C104.909 188.308 105.346 188.308 105.616 188.577L107.687 190.649C107.957 190.919 107.957 191.356 107.687 191.625C107.417 191.895 106.981 191.895 106.711 191.625L105.818 190.732Z" fill="white"/>
        <path d="M126.325 191.466C127.341 191.632 128.12 192.013 128.661 192.61C129.203 193.195 129.473 193.925 129.473 194.797C129.473 195.471 129.297 196.095 128.943 196.67C128.59 197.233 128.048 197.686 127.319 198.029C126.601 198.371 125.717 198.542 124.668 198.542C123.85 198.542 123.044 198.438 122.248 198.228C121.464 198.007 120.796 197.697 120.243 197.3L121.287 195.245C121.729 195.576 122.237 195.836 122.812 196.024C123.397 196.2 123.994 196.289 124.601 196.289C125.275 196.289 125.806 196.162 126.192 195.908C126.579 195.642 126.772 195.272 126.772 194.797C126.772 193.847 126.049 193.372 124.601 193.372H123.375V191.599L125.761 188.898H120.823V186.744H128.943V188.484L126.325 191.466ZM134.528 191.102C136.163 191.102 137.368 191.428 138.141 192.08C138.925 192.731 139.317 193.604 139.317 194.698C139.317 195.405 139.141 196.051 138.787 196.637C138.434 197.211 137.892 197.675 137.163 198.029C136.445 198.371 135.556 198.542 134.495 198.542C133.678 198.542 132.871 198.438 132.076 198.228C131.291 198.007 130.623 197.697 130.071 197.3L131.131 195.245C131.573 195.576 132.081 195.836 132.656 196.024C133.23 196.2 133.821 196.289 134.429 196.289C135.103 196.289 135.633 196.156 136.02 195.891C136.406 195.626 136.6 195.256 136.6 194.781C136.6 194.284 136.395 193.908 135.987 193.654C135.589 193.4 134.893 193.273 133.899 193.273H130.932L131.529 186.744H138.605V188.898H133.766L133.584 191.102H134.528ZM148.993 196.156V198.344H140.226V196.604L144.701 192.378C145.176 191.925 145.496 191.538 145.662 191.218C145.827 190.886 145.91 190.561 145.91 190.24C145.91 189.776 145.75 189.423 145.43 189.18C145.12 188.926 144.662 188.798 144.054 188.798C143.546 188.798 143.088 188.898 142.679 189.097C142.27 189.285 141.928 189.572 141.651 189.958L139.696 188.699C140.149 188.025 140.773 187.5 141.569 187.125C142.364 186.738 143.275 186.545 144.303 186.545C145.165 186.545 145.916 186.688 146.557 186.976C147.208 187.252 147.711 187.65 148.065 188.169C148.429 188.677 148.611 189.279 148.611 189.975C148.611 190.605 148.479 191.196 148.214 191.748C147.949 192.301 147.435 192.93 146.673 193.637L144.005 196.156H148.993ZM154.177 186.545C155.801 186.545 157.071 187.042 157.988 188.036C158.905 189.019 159.364 190.439 159.364 192.295C159.364 193.61 159.115 194.737 158.618 195.676C158.132 196.615 157.441 197.327 156.547 197.813C155.652 198.299 154.619 198.542 153.448 198.542C152.829 198.542 152.238 198.476 151.675 198.344C151.111 198.2 150.631 198.001 150.233 197.747L151.227 195.775C151.791 196.162 152.514 196.355 153.398 196.355C154.381 196.355 155.16 196.068 155.735 195.493C156.309 194.908 156.618 194.068 156.663 192.974C155.967 193.67 155.005 194.018 153.779 194.018C153.039 194.018 152.365 193.869 151.757 193.571C151.15 193.273 150.669 192.853 150.316 192.312C149.962 191.759 149.785 191.124 149.785 190.406C149.785 189.633 149.979 188.953 150.365 188.368C150.752 187.782 151.277 187.335 151.94 187.025C152.614 186.705 153.359 186.545 154.177 186.545ZM154.376 192.013C154.961 192.013 155.436 191.853 155.801 191.533C156.176 191.201 156.364 190.782 156.364 190.273C156.364 189.765 156.182 189.351 155.817 189.03C155.464 188.71 154.972 188.55 154.343 188.55C153.768 188.55 153.299 188.705 152.934 189.014C152.58 189.323 152.404 189.743 152.404 190.273C152.404 190.804 152.58 191.229 152.934 191.549C153.299 191.859 153.779 192.013 154.376 192.013ZM168.589 192.245C169.164 192.533 169.6 192.908 169.898 193.372C170.208 193.836 170.362 194.372 170.362 194.98C170.362 195.698 170.158 196.327 169.749 196.869C169.341 197.399 168.766 197.813 168.026 198.112C167.286 198.399 166.429 198.542 165.457 198.542C164.485 198.542 163.629 198.399 162.889 198.112C162.16 197.813 161.591 197.399 161.182 196.869C160.784 196.327 160.585 195.698 160.585 194.98C160.585 194.372 160.734 193.836 161.033 193.372C161.342 192.908 161.778 192.533 162.342 192.245C161.911 191.98 161.58 191.649 161.348 191.251C161.116 190.842 161 190.378 161 189.859C161 189.185 161.187 188.6 161.563 188.102C161.939 187.605 162.463 187.224 163.137 186.959C163.811 186.683 164.585 186.545 165.457 186.545C166.341 186.545 167.12 186.683 167.794 186.959C168.479 187.224 169.009 187.605 169.385 188.102C169.76 188.6 169.948 189.185 169.948 189.859C169.948 190.378 169.832 190.842 169.6 191.251C169.368 191.649 169.031 191.98 168.589 192.245ZM165.457 188.517C164.916 188.517 164.48 188.649 164.148 188.914C163.828 189.169 163.668 189.522 163.668 189.975C163.668 190.417 163.828 190.765 164.148 191.019C164.469 191.273 164.905 191.4 165.457 191.4C166.01 191.4 166.452 191.273 166.783 191.019C167.114 190.765 167.28 190.417 167.28 189.975C167.28 189.522 167.114 189.169 166.783 188.914C166.452 188.649 166.01 188.517 165.457 188.517ZM165.457 196.57C166.131 196.57 166.661 196.421 167.048 196.123C167.446 195.814 167.645 195.405 167.645 194.897C167.645 194.389 167.446 193.985 167.048 193.687C166.661 193.389 166.131 193.24 165.457 193.24C164.794 193.24 164.27 193.389 163.883 193.687C163.496 193.985 163.303 194.389 163.303 194.897C163.303 195.416 163.496 195.825 163.883 196.123C164.27 196.421 164.794 196.57 165.457 196.57ZM173.278 198.476C172.825 198.476 172.444 198.322 172.134 198.012C171.825 197.703 171.67 197.316 171.67 196.852C171.67 196.377 171.825 195.996 172.134 195.709C172.444 195.41 172.825 195.261 173.278 195.261C173.731 195.261 174.112 195.41 174.421 195.709C174.73 195.996 174.885 196.377 174.885 196.852C174.885 197.316 174.73 197.703 174.421 198.012C174.112 198.322 173.731 198.476 173.278 198.476ZM180.851 198.542C179.89 198.542 179.034 198.305 178.283 197.83C177.531 197.355 176.94 196.67 176.51 195.775C176.09 194.869 175.88 193.792 175.88 192.544C175.88 191.295 176.09 190.224 176.51 189.329C176.94 188.423 177.531 187.732 178.283 187.257C179.034 186.782 179.89 186.545 180.851 186.545C181.812 186.545 182.669 186.782 183.42 187.257C184.171 187.732 184.757 188.423 185.176 189.329C185.607 190.224 185.823 191.295 185.823 192.544C185.823 193.792 185.607 194.869 185.176 195.775C184.757 196.67 184.171 197.355 183.42 197.83C182.669 198.305 181.812 198.542 180.851 198.542ZM180.851 196.272C181.558 196.272 182.111 195.968 182.508 195.361C182.917 194.753 183.122 193.814 183.122 192.544C183.122 191.273 182.917 190.334 182.508 189.726C182.111 189.119 181.558 188.815 180.851 188.815C180.155 188.815 179.603 189.119 179.194 189.726C178.796 190.334 178.598 191.273 178.598 192.544C178.598 193.814 178.796 194.753 179.194 195.361C179.603 195.968 180.155 196.272 180.851 196.272Z" fill="white"/>
        <rect x="86.334" y="209.952" width="124.286" height="23.4762" rx="3.82969" fill="#1BC53C" fill-opacity="0.57"/>
        <path fill-rule="evenodd" clip-rule="evenodd" d="M99.7405 227.905H110.86C111.22 227.905 111.515 227.61 111.515 227.25V227.178C111.515 226.819 111.22 226.524 110.86 226.524H99.7405C99.3808 226.524 99.0859 226.819 99.0859 227.178V227.25C99.0859 227.61 99.3808 227.905 99.7405 227.905ZM105.818 223.649L105.818 218.202C105.818 217.843 105.523 217.548 105.163 217.548H105.092C104.732 217.548 104.437 217.843 104.437 218.202V223.649L103.544 222.756C103.274 222.486 102.838 222.486 102.568 222.756C102.433 222.891 102.366 223.067 102.366 223.244C102.366 223.421 102.433 223.597 102.568 223.732L104.639 225.804C104.909 226.073 105.346 226.073 105.616 225.804L107.687 223.732C107.957 223.462 107.957 223.025 107.687 222.756C107.417 222.486 106.981 222.486 106.711 222.756L105.818 223.649Z" fill="white"/>
        <path d="M126.325 220.466C127.341 220.632 128.12 221.013 128.661 221.61C129.203 222.195 129.473 222.925 129.473 223.797C129.473 224.471 129.297 225.095 128.943 225.67C128.59 226.233 128.048 226.686 127.319 227.029C126.601 227.371 125.717 227.542 124.668 227.542C123.85 227.542 123.044 227.438 122.248 227.228C121.464 227.007 120.796 226.697 120.243 226.3L121.287 224.245C121.729 224.576 122.237 224.836 122.812 225.024C123.397 225.2 123.994 225.289 124.601 225.289C125.275 225.289 125.806 225.162 126.192 224.908C126.579 224.642 126.772 224.272 126.772 223.797C126.772 222.847 126.049 222.372 124.601 222.372H123.375V220.599L125.761 217.898H120.823V215.744H128.943V217.484L126.325 220.466ZM136.298 220.069C137.038 220.069 137.712 220.218 138.319 220.516C138.927 220.814 139.407 221.24 139.761 221.792C140.114 222.334 140.291 222.963 140.291 223.681C140.291 224.455 140.098 225.134 139.711 225.72C139.325 226.305 138.794 226.758 138.12 227.078C137.458 227.388 136.717 227.542 135.9 227.542C134.276 227.542 133.005 227.045 132.088 226.051C131.171 225.057 130.713 223.637 130.713 221.792C130.713 220.478 130.962 219.351 131.459 218.412C131.956 217.473 132.646 216.76 133.53 216.274C134.425 215.788 135.458 215.545 136.629 215.545C137.248 215.545 137.839 215.617 138.402 215.76C138.977 215.893 139.463 216.086 139.86 216.34L138.866 218.312C138.292 217.926 137.568 217.732 136.695 217.732C135.712 217.732 134.933 218.019 134.359 218.594C133.784 219.168 133.475 220.002 133.431 221.096C134.116 220.411 135.071 220.069 136.298 220.069ZM135.751 225.537C136.325 225.537 136.789 225.383 137.143 225.073C137.507 224.764 137.69 224.344 137.69 223.814C137.69 223.284 137.507 222.864 137.143 222.554C136.789 222.234 136.314 222.074 135.718 222.074C135.132 222.074 134.651 222.24 134.276 222.571C133.9 222.891 133.712 223.306 133.712 223.814C133.712 224.322 133.895 224.736 134.259 225.057C134.624 225.377 135.121 225.537 135.751 225.537ZM145.341 215.545C146.965 215.545 148.235 216.042 149.152 217.036C150.069 218.019 150.528 219.439 150.528 221.295C150.528 222.61 150.279 223.737 149.782 224.676C149.296 225.615 148.605 226.327 147.711 226.813C146.816 227.299 145.783 227.542 144.612 227.542C143.993 227.542 143.402 227.476 142.839 227.344C142.275 227.2 141.795 227.001 141.397 226.747L142.391 224.775C142.955 225.162 143.678 225.355 144.562 225.355C145.545 225.355 146.324 225.068 146.899 224.493C147.473 223.908 147.782 223.068 147.827 221.974C147.131 222.67 146.169 223.018 144.943 223.018C144.203 223.018 143.529 222.869 142.921 222.571C142.314 222.273 141.833 221.853 141.48 221.312C141.126 220.759 140.949 220.124 140.949 219.406C140.949 218.633 141.143 217.953 141.529 217.368C141.916 216.782 142.441 216.335 143.104 216.025C143.778 215.705 144.523 215.545 145.341 215.545ZM145.54 221.013C146.125 221.013 146.6 220.853 146.965 220.533C147.34 220.201 147.528 219.782 147.528 219.273C147.528 218.765 147.346 218.351 146.981 218.03C146.628 217.71 146.136 217.55 145.507 217.55C144.932 217.55 144.463 217.705 144.098 218.014C143.744 218.323 143.568 218.743 143.568 219.273C143.568 219.804 143.744 220.229 144.098 220.549C144.463 220.859 144.943 221.013 145.54 221.013ZM159.753 221.245C160.328 221.533 160.764 221.908 161.063 222.372C161.372 222.836 161.527 223.372 161.527 223.98C161.527 224.698 161.322 225.327 160.913 225.869C160.505 226.399 159.93 226.813 159.19 227.112C158.45 227.399 157.594 227.542 156.621 227.542C155.649 227.542 154.793 227.399 154.053 227.112C153.324 226.813 152.755 226.399 152.346 225.869C151.948 225.327 151.749 224.698 151.749 223.98C151.749 223.372 151.899 222.836 152.197 222.372C152.506 221.908 152.943 221.533 153.506 221.245C153.075 220.98 152.744 220.649 152.512 220.251C152.28 219.842 152.164 219.378 152.164 218.859C152.164 218.185 152.351 217.6 152.727 217.102C153.103 216.605 153.627 216.224 154.301 215.959C154.975 215.683 155.749 215.545 156.621 215.545C157.505 215.545 158.284 215.683 158.958 215.959C159.643 216.224 160.173 216.605 160.549 217.102C160.924 217.6 161.112 218.185 161.112 218.859C161.112 219.378 160.996 219.842 160.764 220.251C160.532 220.649 160.195 220.98 159.753 221.245ZM156.621 217.517C156.08 217.517 155.644 217.649 155.312 217.914C154.992 218.169 154.832 218.522 154.832 218.975C154.832 219.417 154.992 219.765 155.312 220.019C155.633 220.273 156.069 220.4 156.621 220.4C157.174 220.4 157.616 220.273 157.947 220.019C158.279 219.765 158.444 219.417 158.444 218.975C158.444 218.522 158.279 218.169 157.947 217.914C157.616 217.649 157.174 217.517 156.621 217.517ZM156.621 225.57C157.295 225.57 157.826 225.421 158.212 225.123C158.61 224.814 158.809 224.405 158.809 223.897C158.809 223.389 158.61 222.985 158.212 222.687C157.826 222.389 157.295 222.24 156.621 222.24C155.959 222.24 155.434 222.389 155.047 222.687C154.66 222.985 154.467 223.389 154.467 223.897C154.467 224.416 154.66 224.825 155.047 225.123C155.434 225.421 155.959 225.57 156.621 225.57ZM171.837 215.744V217.484L167.528 227.344H164.611L168.771 217.931H164.926V219.82H162.54V215.744H171.837ZM173.747 227.476C173.294 227.476 172.913 227.322 172.604 227.012C172.294 226.703 172.14 226.316 172.14 225.852C172.14 225.377 172.294 224.996 172.604 224.709C172.913 224.41 173.294 224.261 173.747 224.261C174.2 224.261 174.581 224.41 174.89 224.709C175.2 224.996 175.354 225.377 175.354 225.852C175.354 226.316 175.2 226.703 174.89 227.012C174.581 227.322 174.2 227.476 173.747 227.476ZM180.775 215.744V227.344H178.09V217.898H175.77V215.744H180.775Z" fill="white"/>
        <g filter="url(#filter1_d)">
            <path d="M213.381 156.091C213.381 153.805 215.234 151.952 217.519 151.952H234.095V172.667H217.519C215.234 172.667 213.381 170.814 213.381 168.528V156.091Z" fill="#C4C4C4" fill-opacity="0.12"/>
            <path fill-rule="evenodd" clip-rule="evenodd" d="M224.671 165.526C224.644 165.526 224.616 165.525 224.588 165.522C224.234 165.487 223.956 165.237 223.879 164.885L222.799 159.893L221.686 162.464C221.622 162.611 221.476 162.707 221.316 162.707H220.108C219.885 162.707 219.705 162.526 219.705 162.304C219.705 162.081 219.885 161.901 220.108 161.901H221.052L222.061 159.569C222.204 159.241 222.519 159.049 222.877 159.085C223.232 159.12 223.51 159.371 223.586 159.723L224.667 164.714L225.78 162.144C225.844 161.996 225.989 161.901 226.15 161.901H227.358C227.581 161.901 227.761 162.081 227.761 162.304C227.761 162.526 227.581 162.707 227.358 162.707H226.414L225.404 165.038C225.273 165.341 224.99 165.526 224.671 165.526Z" fill="white"/>
        </g>
        <g filter="url(#filter2_d)">
            <path d="M235.453 151.952H252.029C254.315 151.952 256.167 153.805 256.167 156.091V168.528C256.167 170.814 254.315 172.667 252.029 172.667H235.453V151.952Z" fill="#C4C4C4" fill-opacity="0.12"/>
            <path fill-rule="evenodd" clip-rule="evenodd" d="M242.927 164.915C243.129 164.819 243.214 164.579 243.117 164.378C242.53 163.148 242.784 161.674 243.747 160.71C245.004 159.454 247.048 159.454 248.304 160.71C249.268 161.674 249.522 163.148 248.934 164.378C248.838 164.578 248.923 164.819 249.124 164.915C249.324 165.01 249.565 164.926 249.661 164.725C250.395 163.188 250.079 161.346 248.874 160.141C247.303 158.57 244.748 158.57 243.178 160.141C241.973 161.346 241.656 163.187 242.391 164.725C242.487 164.926 242.727 165.011 242.927 164.915ZM246.027 164.128L247.716 165.816C246.719 166.563 245.336 166.563 244.339 165.816L246.027 164.128ZM248.59 166.121C248.748 165.964 248.748 165.709 248.59 165.552L246.312 163.273C246.155 163.116 245.9 163.116 245.742 163.273L243.464 165.552C243.307 165.709 243.306 165.964 243.464 166.121C244.877 167.535 247.177 167.535 248.59 166.121Z" fill="white"/>
        </g>
        <g filter="url(#filter3_f)">
            <rect x="81.5" y="176.5" width="137" height="62" rx="4.5" stroke="#00FCFC"/>
        </g>
        <rect x="81.5" y="176.5" width="137" height="62" rx="4.5" stroke="#00FCFC"/>
    </g>
    <path d="M33.8415 207.339L34.232 206.974L33.8415 206.608L17.5179 191.341C21.4224 143.738 43.0434 99.3395 78.0981 66.9524C113.212 34.5108 159.231 16.4989 207 16.5C254.769 16.4989 300.788 34.5108 335.902 66.9524C370.956 99.3385 392.576 143.736 396.482 191.337L379.664 206.63L379.256 207.001L379.664 207.37L396.482 222.611C392.589 270.222 370.973 314.631 335.919 347.028C300.804 379.481 254.777 397.5 207 397.5C159.223 397.5 113.196 379.481 78.0814 347.028C43.0254 314.63 21.4099 270.219 17.5179 222.606L33.8415 207.339Z" stroke="#00FCFC"/>
    <defs>
        <filter id="filter0_d" x="47" y="118" width="323.095" height="185" filterUnits="userSpaceOnUse" color-interpolation-filters="sRGB">
            <feFlood flood-opacity="0" result="BackgroundImageFix"/>
            <feColorMatrix in="SourceAlpha" type="matrix" values="0 0 0 0 0 0 0 0 0 0 0 0 0 0 0 0 0 0 127 0"/>
            <feOffset dy="4"/>
            <feGaussianBlur stdDeviation="10"/>
            <feColorMatrix type="matrix" values="0 0 0 0 0.25098 0 0 0 0 0.482353 0 0 0 0 1 0 0 0 0.2 0"/>
            <feBlend mode="normal" in2="BackgroundImageFix" result="effect1_dropShadow"/>
            <feBlend mode="normal" in="SourceGraphic" in2="effect1_dropShadow" result="shape"/>
        </filter>
        <filter id="filter1_d" x="185.791" y="129.88" width="75.8949" height="75.8949" filterUnits="userSpaceOnUse" color-interpolation-filters="sRGB">
            <feFlood flood-opacity="0" result="BackgroundImageFix"/>
            <feColorMatrix in="SourceAlpha" type="matrix" values="0 0 0 0 0 0 0 0 0 0 0 0 0 0 0 0 0 0 127 0"/>
            <feOffset dy="5.51806"/>
            <feGaussianBlur stdDeviation="13.7951"/>
            <feColorMatrix type="matrix" values="0 0 0 0 0 0 0 0 0 0 0 0 0 0 0 0 0 0 0.25 0"/>
            <feBlend mode="normal" in2="BackgroundImageFix" result="effect1_dropShadow"/>
            <feBlend mode="normal" in="SourceGraphic" in2="effect1_dropShadow" result="shape"/>
        </filter>
        <filter id="filter2_d" x="207.863" y="129.88" width="75.8949" height="75.8949" filterUnits="userSpaceOnUse" color-interpolation-filters="sRGB">
            <feFlood flood-opacity="0" result="BackgroundImageFix"/>
            <feColorMatrix in="SourceAlpha" type="matrix" values="0 0 0 0 0 0 0 0 0 0 0 0 0 0 0 0 0 0 127 0"/>
            <feOffset dy="5.51806"/>
            <feGaussianBlur stdDeviation="13.7951"/>
            <feColorMatrix type="matrix" values="0 0 0 0 0 0 0 0 0 0 0 0 0 0 0 0 0 0 0.25 0"/>
            <feBlend mode="normal" in2="BackgroundImageFix" result="effect1_dropShadow"/>
            <feBlend mode="normal" in="SourceGraphic" in2="effect1_dropShadow" result="shape"/>
        </filter>
        <filter id="filter3_f" x="77" y="172" width="146" height="71" filterUnits="userSpaceOnUse" color-interpolation-filters="sRGB">
            <feFlood flood-opacity="0" result="BackgroundImageFix"/>
            <feBlend mode="normal" in="SourceGraphic" in2="BackgroundImageFix" result="shape"/>
            <feGaussianBlur stdDeviation="2" result="effect1_foregroundBlur"/>
        </filter>
        <clipPath id="clip0">
            <rect width="283.095" height="145" fill="white" transform="translate(67 134)"/>
        </clipPath>
    </defs>
</svg>
