<svg width="30" height="30" viewBox="0 0 30 30" fill="none" xmlns="http://www.w3.org/2000/svg">
    <path fill-rule="evenodd" clip-rule="evenodd" d="M25 3.75L25 12.5C25 13.1875 24.4375 13.75 23.75 13.75C23.0625 13.75 22.5 13.1875 22.5 12.5L22.5 3.75C22.5 3.0625 23.0625 2.5 23.75 2.5C24.4375 2.5 25 3.0625 25 3.75ZM16.2499 7.49997L16.2499 12.5C16.2499 13.1875 15.6874 13.75 14.9999 13.75C14.3124 13.75 13.7499 13.1875 13.7499 12.5L13.7499 7.49997C13.7499 6.81247 14.3124 6.24997 14.9999 6.24997C15.6874 6.24997 16.2499 6.81247 16.2499 7.49997ZM7.49994 12.5L7.49994 10C7.49994 9.3125 6.93744 8.75 6.24994 8.75C5.56244 8.75 4.99994 9.3125 4.99994 10L4.99994 12.5C4.99994 13.1875 5.56244 13.75 6.24994 13.75C6.93744 13.75 7.49994 13.1875 7.49994 12.5ZM9.19537 23.7503L10.7704 25.3816C11.2491 25.8791 11.2354 26.6703 10.7391 27.1491C10.2416 27.6291 9.45037 27.6153 8.97162 27.1191L5.35037 23.3691C5.11787 23.1253 5.00037 22.8128 5.00037 22.5003C5.00037 22.1803 5.12162 21.8603 5.36662 21.6166L9.11662 17.8666C9.60412 17.3778 10.3954 17.3778 10.8841 17.8666C11.3716 18.3541 11.3716 19.1453 10.8841 19.6341L9.26787 21.2503L20.8041 21.2503L19.2304 19.6191C18.7504 19.1228 18.7654 18.3316 19.2616 17.8516C19.7579 17.3716 20.5491 17.3853 21.0291 17.8816L24.6504 21.6316C25.1204 22.1241 25.1179 22.9028 24.6341 23.3841L20.8841 27.1341C20.3954 27.6216 19.6041 27.6216 19.1166 27.1341C18.8716 26.8903 18.7504 26.5703 18.7504 26.2503C18.7504 25.9303 18.8716 25.6103 19.1166 25.3666L20.7329 23.7503L9.19537 23.7503Z" fill="#00FCFC"/>
</svg>
