<svg width="30" height="30" viewBox="0 0 30 30" fill="none" xmlns="http://www.w3.org/2000/svg">
    <path fill-rule="evenodd" clip-rule="evenodd" d="M21.1892 6.71641L27.2242 14.2164C27.5979 14.6802 27.5917 15.3427 27.2104 15.8014L20.9604 23.3014C20.7129 23.5977 20.3579 23.7502 19.9992 23.7502C19.7167 23.7502 19.4342 23.6552 19.1992 23.4614C18.6692 23.0189 18.5979 22.2302 19.0392 21.6989L24.6354 14.9864L19.2404 8.28391C18.8092 7.74516 18.8929 6.95891 19.4317 6.52641C19.9692 6.09141 20.7554 6.17891 21.1892 6.71641ZM9.03956 6.69927C9.48081 6.16927 10.2671 6.09802 10.8008 6.53927C11.3308 6.98177 11.4021 7.76927 10.9608 8.30052L5.36456 15.013L10.7596 21.7168C11.1908 22.2543 11.1071 23.0405 10.5683 23.4743C10.3383 23.6593 10.0608 23.7505 9.78581 23.7505C9.42081 23.7505 9.05831 23.5905 8.81081 23.2843L2.77581 15.7843C2.40206 15.3193 2.40831 14.6568 2.78956 14.1993L9.03956 6.69927Z" fill="#00FCFC"/>
</svg>
