<svg width="414" height="414" viewBox="0 0 414 414" fill="none" xmlns="http://www.w3.org/2000/svg">
    <path d="M203.771 414V409.86H204.102V414H203.771ZM210.022 409.86H210.395V414H210.064L210.022 409.86ZM197.602 414V409.86H197.933V414H197.602ZM216.315 409.86H216.688V414H216.356L216.315 409.86ZM191.475 413.627L191.765 409.487H192.137L191.806 413.627H191.475ZM222.691 409.487H223.022L223.312 413.627H222.98L222.691 409.487ZM185.182 413.048L185.638 408.908H185.969L185.513 413.048H185.182ZM228.859 408.908H229.19L229.646 413.048H229.273L228.859 408.908ZM178.931 412.303L179.469 408.163H179.842L179.262 412.303H178.931ZM234.986 408.163H235.318L235.897 412.303H235.566L234.986 408.163ZM172.886 411.35L173.549 407.21H173.921L173.218 411.35H172.886ZM241.321 407.21H241.652L242.356 411.35H241.983L241.321 407.21ZM166.801 410.15L167.629 406.01H167.96L167.132 410.15H166.801ZM247.531 406.01H247.862L248.648 410.15H248.317L247.531 406.01ZM160.591 408.742L161.543 404.602H161.874L160.922 408.742H160.591ZM253.534 404.602H253.865L254.776 408.742H254.486L253.534 404.602ZM154.463 407.086L155.54 402.946H155.83L154.795 407.086H154.463ZM259.537 402.946H259.868L260.903 407.086H260.613L259.537 402.946ZM148.378 405.223L149.04 401.58H149.371L148.171 405.72L148.378 405.223ZM264.96 401.58H265.291L266.45 405.72H266.119L264.96 401.58ZM141.795 403.65L143.12 399.51H143.451L142.168 403.65H141.795ZM270.839 399.51H271.17L272.495 403.65H272.164L270.839 399.51ZM135.792 401.58L137.241 397.44H137.572L136.165 401.58H135.792ZM276.552 397.688H276.883L278.291 401.828H277.96L276.552 397.688ZM129.789 399.303L131.362 395.453H131.652L130.12 399.303H129.789ZM282.348 395.494H282.679L284.211 399.386H283.88L282.348 395.494ZM124.2 396.778L125.856 392.927H126.187L124.531 396.736L124.2 396.778ZM288.268 392.969H288.599L290.255 396.819H289.924L288.268 392.969ZM118.528 394.128L120.308 390.402H120.598L118.818 394.169L118.528 394.128ZM293.94 390.361H294.271L296.051 394.128H295.72L293.94 390.361ZM112.856 391.354L114.761 387.67H115.051L113.188 391.396L112.856 391.354ZM299.529 387.628H299.819L301.723 391.354H301.392L299.529 387.628ZM107.309 388.415L109.296 384.772H109.627L107.599 388.415H107.309ZM305.035 384.689H305.284L307.271 388.332H306.981L305.035 384.689ZM101.844 385.268L103.955 381.708H104.245L102.134 385.31L101.844 385.268ZM310.376 381.667H310.666L312.777 385.268H312.487L310.376 381.667ZM96.462 381.998L98.6976 378.479H98.9874L96.7518 381.998H96.462ZM315.634 378.396H315.923L318.159 381.915H317.869L315.634 378.396ZM91.08 378.52L93.3984 375.084L93.6882 375.291L91.3284 378.727L91.08 378.52ZM320.684 375.001H320.974L323.334 378.437H323.044L320.684 375.001ZM85.905 375.001L88.3476 371.606L88.596 371.813L86.1948 375.208L85.905 375.001ZM325.777 371.565H326.025L328.509 374.918L328.219 375.125L325.777 371.565ZM80.8542 371.234L83.3796 367.922L83.6694 368.129L81.1026 371.441L80.8542 371.234ZM330.745 367.839H330.993L333.56 371.151H333.27L330.745 367.839ZM75.8862 367.218L78.5358 363.989L78.66 364.32L76.0104 367.508L75.8862 367.218ZM335.588 363.906L335.837 363.699L338.486 366.887L338.197 367.135L335.588 363.906ZM71.0838 363.161L73.8162 360.014L74.0646 360.263L71.3322 363.368L71.0838 363.161ZM340.184 359.89L340.432 359.683L343.165 362.83H342.916L340.184 359.89ZM66.24 358.938L69.0966 355.874L69.345 356.123L66.5298 359.186L66.24 358.938ZM344.779 355.75L345.028 355.543L347.884 358.607H347.594L344.779 355.75ZM61.686 354.591L64.6254 351.61L64.8738 351.859L61.9344 354.839L61.686 354.591ZM349.25 351.486L349.499 351.238L352.438 354.218L352.19 354.467L349.25 351.486ZM57.2562 350.078L60.2784 347.18L60.5268 347.47L57.5046 350.327L57.2562 350.078ZM353.597 347.098V346.849L356.62 349.706L356.371 349.954L353.597 347.098ZM52.9506 345.442L56.0556 342.668L56.304 342.916L53.199 345.731L52.9506 345.442ZM357.779 342.544L358.027 342.295L361.132 345.069L360.884 345.317L357.779 342.544ZM48.8106 340.681L51.9984 337.99L52.2054 338.279L49.059 340.97L48.8106 340.681ZM361.836 337.907L362.084 337.617L365.272 340.308L365.024 340.598L361.836 337.907ZM44.7948 335.795L48.0654 333.229V333.477L44.8362 336.085L44.7948 335.795ZM365.769 333.104L365.976 332.856L369.247 335.423V335.713L365.769 333.104ZM41.0688 330.827L44.4222 328.302V328.592L41.4 331.2L41.0688 330.827ZM369.661 328.219V327.929L373.014 330.413L372.807 330.703L369.661 328.219ZM37.26 325.694L40.6548 323.293L40.8618 323.582L37.4256 325.984L37.26 325.694ZM373.18 323.21V322.92L376.616 325.321L376.409 325.57L373.18 323.21ZM33.6996 320.477L37.26 318.159L37.467 318.49L33.948 320.767L33.6996 320.477ZM376.74 318.076V317.786L380.218 320.063V320.395L376.74 318.076ZM30.429 315.137L33.9894 312.943V313.232L30.429 315.427V315.137ZM380.052 312.86V312.57L383.612 314.764V315.054L380.052 312.86ZM27.1998 309.672L30.8016 307.602V307.933L27.1584 310.003L27.1998 309.672ZM383.24 307.561V307.271L386.883 309.341V309.631L383.24 307.561ZM24.1362 304.166L27.8208 302.22V302.551L24.1362 304.497V304.166ZM386.179 302.22V301.93L389.864 303.876V304.207L386.179 302.22ZM21.2796 298.535L25.0056 296.672V297.004L21.2382 298.825L21.2796 298.535ZM389.16 296.672V296.341L392.886 298.204V298.494L389.16 296.672ZM18.5472 292.822L22.356 291.083V291.373L18.5472 293.112V292.822ZM391.644 291.083V290.794L395.411 292.491V292.822L391.644 291.083ZM16.0218 286.943L19.8306 285.37V285.66L15.9804 287.275L16.0218 286.943ZM394.128 285.66V285.329L397.978 286.943V287.275L394.128 285.66ZM13.662 281.52L17.5536 280.071V280.361L13.7862 281.52H13.662ZM396.405 280.154V279.823L400.297 281.313V281.644L396.405 280.154ZM11.385 275.6L15.525 274.234V274.565L11.385 275.931V275.6ZM398.475 274.316V274.027L402.615 275.393V275.724L398.475 274.316ZM9.4806 269.1L13.6206 267.899V268.231L9.4806 269.473V269.1ZM400.504 268.024V267.692L404.644 268.934V269.266L400.504 268.024ZM7.659 263.097L11.799 261.979V262.31L7.659 263.47V263.097ZM402.284 262.103V261.772L406.424 262.89V263.263L402.284 262.103ZM6.0444 257.011L10.1844 256.018V256.349L6.0444 257.342V257.011ZM403.857 256.142V255.811L407.997 256.804V257.135L403.857 256.142ZM4.6368 250.843L8.7768 249.973V250.304L4.6368 251.215V250.843ZM405.265 250.097V249.766L409.405 250.677V251.008L405.265 250.097ZM3.3948 244.674L7.5348 243.929V244.26L3.3948 245.005V244.674ZM406.465 244.26V243.929L410.605 244.674V245.005L406.465 244.26ZM2.3598 238.464L6.4998 237.802V238.174L2.3598 238.795V238.464ZM407.5 237.967V237.595L411.64 238.216V238.588L407.5 237.967ZM1.4904 232.213L5.6304 231.674V232.047L1.4904 232.544V232.213ZM408.328 231.84V231.467L412.468 231.964V232.337L408.328 231.84ZM0.828 225.92L4.968 225.547V225.878L0.828 226.251V225.92ZM408.991 225.671V225.34L413.131 225.713V226.044L408.991 225.671ZM0.3726 219.627L4.5126 219.379V219.71L0.3726 219.958V219.627ZM409.487 219.627V219.296L413.627 219.544V219.875L409.487 219.627ZM0 213.293H4.14V213.665H0V213.293ZM409.86 213.293V212.92H414V213.293H409.86ZM409.86 200.583H414V200.956H409.86V200.583ZM0 200.749V200.417H4.14V200.79L0 200.749ZM409.446 194.58L413.586 194.332V194.58H409.446ZM0.3726 194.58V194.249L4.5126 194.497V194.58H0.3726ZM408.991 188.37L413.131 187.997V188.329L408.991 188.743V188.37ZM0.828 188.163V187.79L4.968 188.204V188.536L0.828 188.163ZM408.328 182.16L412.468 181.622V182.16L408.328 182.657V182.16ZM1.4904 181.912V181.539L5.6304 182.036V182.367L1.4904 181.912ZM407.5 175.991L411.64 175.329V175.702L407.5 176.323V175.991ZM2.3598 175.619V175.288L6.4998 175.909V176.281L2.3598 175.619ZM406.465 169.74L410.605 168.995V169.326L406.465 170.071V169.74ZM3.3948 169.409V169.078L7.5348 169.823V170.154L3.3948 169.409ZM405.223 163.82L409.363 162.909V163.282L405.223 164.151V163.82ZM4.6368 163.199V162.868L8.7768 163.778V164.11L4.6368 163.199ZM403.857 157.775L407.997 156.782V157.113L403.857 158.107V157.775ZM6.0444 157.072V156.74L10.1844 157.734V158.065L6.0444 157.072ZM402.242 151.814L406.382 150.655V151.027L402.242 152.145V151.814ZM7.659 150.944V150.613L11.799 151.772V152.104L7.659 150.944ZM400.462 145.894L404.602 144.61V144.941L400.462 146.225V145.894ZM9.4392 144.9V144.569L13.5792 145.852V146.183L9.4392 144.9ZM398.599 139.973L402.532 138.607V138.938L398.599 140.305V139.973ZM11.5092 138.897V138.566L15.6492 139.932V140.305L11.5092 138.897ZM396.529 134.177L400.421 132.646V132.977L396.529 134.467V134.177ZM13.6206 132.977V132.646L17.5122 134.136V134.467L13.6206 132.977ZM15.939 127.139V126.808L19.7892 128.423V128.754L15.939 127.139ZM394.045 128.34L397.895 126.725V127.015L394.045 128.63V128.34ZM18.4644 121.343V121.054L22.2318 122.792V123.082L18.4644 121.343ZM391.561 122.71L395.37 121.012V121.302L391.603 123.041L391.561 122.71ZM21.1554 115.672V115.382L24.8814 117.203V117.535L21.1554 115.672ZM388.912 117.121L392.638 115.299V115.589L388.912 117.452V117.121ZM24.012 110.083V109.751L27.6966 111.739V112.028L24.012 110.083ZM386.055 111.78L389.74 109.834V110.124L386.055 112.07V111.78ZM27.0756 104.535V104.245L30.6774 106.315V106.605L27.0756 104.535ZM383.116 106.191L386.717 104.121V104.411L383.116 106.481V106.191ZM30.2634 99.1116L30.4704 98.8218L33.9894 101.016V101.306L30.2634 99.1116ZM379.886 100.85L383.447 98.6976V98.9874L379.886 101.182V100.85ZM33.6582 93.8124V93.5226L37.1358 95.7996V96.0894L33.6582 93.8124ZM376.74 95.634L380.218 93.357V93.6468L376.74 95.9238V95.634ZM37.26 88.596V88.3062L40.6548 90.7074V90.9558L37.26 88.596ZM373.18 90.5418L376.574 88.1406V88.4304L373.18 90.7902V90.5418ZM40.8618 83.4624L41.0688 83.1726L44.4222 85.698L44.2152 85.9464L40.8618 83.4624ZM369.454 85.5324L372.807 83.007V83.2968L369.454 85.7808V85.5324ZM44.712 78.66V78.4116L47.9826 80.9784L47.7756 81.2682L44.712 78.66ZM365.686 80.8128L368.915 78.2046L369.164 78.4944L365.893 81.1026L365.686 80.8128ZM48.6864 73.7748L48.9348 73.5264L52.1226 76.2174L51.8742 76.4658L48.6864 73.7748ZM361.753 76.0518L364.9 73.3194L365.148 73.6092L361.96 76.3002L361.753 76.0518ZM52.8264 69.0138L53.0748 68.7654L56.1798 71.5392L55.9314 71.829L52.8264 69.0138ZM357.655 71.3736L360.76 68.5998L361.008 68.8482L357.903 71.622L357.655 71.3736ZM57.132 64.17L57.3804 63.9216L60.3612 66.8196L60.1542 67.068L57.132 64.17ZM353.473 66.654L356.454 63.756L356.702 64.0044L353.68 66.9024L353.473 66.654ZM61.5618 59.6988L61.8102 59.4504L64.7082 62.4312L64.4598 62.6382L61.5618 59.6988ZM349.126 62.1L352.024 59.1606H352.273L349.333 62.1414L349.126 62.1ZM66.24 55.3104V55.062L69.0552 58.1256L68.8068 58.374L66.24 55.3104ZM344.614 57.96L347.47 54.8964L347.719 55.1448L344.862 58.2084L344.614 57.96ZM70.794 51.0876L71.0424 50.8392L73.7748 53.9856L73.5264 54.234L70.794 51.0876ZM339.894 53.8614L342.626 50.715L342.875 50.922L340.142 54.0684L339.894 53.8614ZM75.5964 46.989H75.8862L78.5358 50.2182L78.246 50.4252L75.5964 46.989ZM335.34 49.68L337.99 46.4508L338.238 46.6992L335.588 49.9284L335.34 49.68ZM80.5644 43.056L80.8128 42.849L83.3796 46.161H83.0898L80.5644 43.056ZM330.455 46.0368L332.98 42.7248H333.27L330.703 46.0368H330.455ZM85.6152 39.2886L85.905 39.0816L88.3476 42.435L88.0578 42.642L85.6152 39.2886ZM325.487 42.3522L327.929 38.9574L328.219 39.1644L325.777 42.5178L325.487 42.3522ZM90.7902 35.6454H91.08L93.3984 39.123H93.1086L90.7902 35.6454ZM320.436 38.7918L322.92 35.3556H323.21L320.891 38.8332L320.436 38.7918ZM96.048 32.1678H96.3792L98.6148 35.6868H98.2836L96.048 32.1678ZM315.468 35.397L317.704 31.878H317.993L315.758 35.397H315.468ZM101.471 28.98H101.761L103.873 32.5818H103.583L101.471 28.98ZM310.003 32.3334L312.115 28.7316H312.404L310.5 32.3748L310.003 32.3334ZM107.143 25.8336H107.474L109.462 29.4768H109.172L107.143 25.8336ZM304.621 28.98L306.65 25.3368H306.94L304.911 28.98H304.621ZM112.525 22.7286H112.815L114.719 26.4132H114.43L112.525 22.7286ZM299.156 26.2476L301.061 22.5216H301.392L299.488 26.2476H299.156ZM118.197 19.9548H118.528L120.308 23.7222H119.977L118.197 19.9548ZM293.65 23.5152L295.43 19.7478H295.72L293.94 23.6808L293.65 23.5152ZM123.91 17.3052H124.241L125.897 21.114H125.566L123.91 17.3052ZM287.978 20.9898L289.634 17.1396H289.966L288.31 20.9484L287.978 20.9898ZM129.789 14.8626H130.12L131.652 18.7128H131.321L129.789 14.8626ZM282.348 18.5886L283.88 14.7384H284.211L282.638 18.5886H282.348ZM276.552 16.56L278.001 12.42H278.332L276.883 16.56H276.552ZM135.709 12.42H136.04L137.448 16.56H137.117L135.709 12.42ZM270.715 14.2002L271.998 10.0602H272.371L271.046 14.2002H270.715ZM141.671 10.5156H142.002L143.327 14.6556H142.996L141.671 10.5156ZM264.96 12.42L266.161 8.28H266.492L264.96 12.42ZM147.715 8.6112H148.046L149.04 12.42L147.715 8.6112ZM258.833 10.8468L259.909 6.7068H260.24L259.164 10.8468H258.833ZM153.76 6.7068H154.132L155.167 10.8468H154.836L153.76 6.7068ZM252.83 9.1908L253.782 5.0508H254.113L253.202 9.1908H252.83ZM159.928 5.0508H160.259L161.17 9.1908H160.839L159.928 5.0508ZM246.868 7.7418L247.696 3.6018H248.027L247.199 7.7418H246.868ZM166.097 4.14H166.428L167.256 8.28H166.883L166.097 4.14ZM240.617 7.0794L241.321 2.9394H241.652L240.989 7.0794H240.617ZM172.265 2.8566H172.638L173.3 6.9966H172.969L172.265 2.8566ZM234.614 6.003L235.152 1.863H235.525L234.945 6.003H234.614ZM178.517 1.9044H178.889L179.428 6.0444H179.096L178.517 1.9044ZM228.445 5.2578L228.901 1.1178H229.232L228.818 5.2578H228.445ZM184.81 1.1592H185.141L185.596 5.2992H185.224L184.81 1.1592ZM222.07 4.7196L222.401 0.5796H222.732L222.442 4.7196H222.07ZM190.937 0.5796H191.227L191.516 4.7196H191.185L190.937 0.5796ZM215.777 4.347V0.207H216.108V4.347H215.777ZM197.064 0.207H197.395L197.602 4.347H197.23L197.064 0.207ZM203.688 0H204.019V4.14H203.688V0ZM209.939 4.14V0H210.271V4.14H209.939Z" fill="white"/>
    <g clip-path="url(#clip0)" filter="url(#filter0_d)">
        <rect x="68" y="135" width="280" height="145" rx="4.02679" fill="#191E2C"/>
        <path d="M102.266 170.33V174.048H86.7644V154.028H101.894V157.746H91.369V162.093H100.664V165.696H91.369V170.33H102.266ZM114.275 174.391C111.415 174.391 109.184 173.6 107.582 172.017C106 170.434 105.209 168.175 105.209 165.239V154.028H109.842V165.067C109.842 168.652 111.329 170.444 114.303 170.444C115.752 170.444 116.858 170.015 117.621 169.157C118.384 168.28 118.765 166.917 118.765 165.067V154.028H123.341V165.239C123.341 168.175 122.54 170.434 120.939 172.017C119.356 173.6 117.135 174.391 114.275 174.391ZM140.103 174.048L136.242 168.471H136.013H131.981V174.048H127.347V154.028H136.013C137.786 154.028 139.321 154.323 140.618 154.914C141.933 155.505 142.944 156.344 143.649 157.431C144.355 158.518 144.708 159.805 144.708 161.292C144.708 162.779 144.345 164.066 143.621 165.153C142.915 166.221 141.905 167.041 140.589 167.613L145.079 174.048H140.103ZM140.017 161.292C140.017 160.167 139.655 159.309 138.93 158.718C138.206 158.108 137.148 157.803 135.756 157.803H131.981V164.781H135.756C137.148 164.781 138.206 164.476 138.93 163.866C139.655 163.256 140.017 162.398 140.017 161.292ZM156.701 174.391C153.841 174.391 151.61 173.6 150.009 172.017C148.426 170.434 147.635 168.175 147.635 165.239V154.028H152.268V165.067C152.268 168.652 153.755 170.444 156.73 170.444C158.179 170.444 159.285 170.015 160.047 169.157C160.81 168.28 161.191 166.917 161.191 165.067V154.028H165.767V165.239C165.767 168.175 164.966 170.434 163.365 172.017C161.782 173.6 159.561 174.391 156.701 174.391ZM176.352 174.391C174.769 174.391 173.234 174.181 171.747 173.762C170.279 173.323 169.097 172.761 168.201 172.074L169.774 168.585C170.632 169.214 171.652 169.719 172.834 170.101C174.016 170.482 175.198 170.673 176.38 170.673C177.696 170.673 178.668 170.482 179.297 170.101C179.927 169.7 180.241 169.176 180.241 168.528C180.241 168.051 180.051 167.66 179.669 167.355C179.307 167.031 178.83 166.774 178.239 166.583C177.667 166.392 176.886 166.183 175.894 165.954C174.369 165.592 173.12 165.229 172.147 164.867C171.175 164.505 170.336 163.923 169.631 163.122C168.944 162.322 168.601 161.254 168.601 159.919C168.601 158.756 168.916 157.707 169.545 156.773C170.174 155.82 171.118 155.067 172.376 154.514C173.654 153.961 175.208 153.684 177.038 153.684C178.316 153.684 179.564 153.837 180.785 154.142C182.005 154.447 183.073 154.886 183.988 155.458L182.558 158.975C180.708 157.927 178.859 157.402 177.009 157.402C175.713 157.402 174.75 157.612 174.121 158.032C173.511 158.451 173.206 159.004 173.206 159.69C173.206 160.377 173.558 160.892 174.264 161.235C174.988 161.559 176.085 161.883 177.553 162.207C179.078 162.569 180.327 162.932 181.299 163.294C182.272 163.656 183.101 164.228 183.788 165.01C184.493 165.792 184.846 166.85 184.846 168.185C184.846 169.329 184.522 170.377 183.873 171.331C183.244 172.265 182.291 173.008 181.013 173.561C179.736 174.114 178.182 174.391 176.352 174.391ZM187.44 154.028H196.535C198.708 154.028 200.624 154.447 202.283 155.286C203.961 156.106 205.258 157.269 206.173 158.775C207.107 160.281 207.574 162.036 207.574 164.038C207.574 166.04 207.107 167.794 206.173 169.3C205.258 170.806 203.961 171.979 202.283 172.818C200.624 173.638 198.708 174.048 196.535 174.048H187.44V154.028ZM196.306 170.244C198.308 170.244 199.9 169.691 201.082 168.585C202.283 167.46 202.884 165.944 202.884 164.038C202.884 162.131 202.283 160.625 201.082 159.519C199.9 158.394 198.308 157.831 196.306 157.831H192.073V170.244H196.306Z" fill="white"/>
        <path d="M343.902 275.561C343.902 276.324 343.284 276.942 342.521 276.942L302.402 276.942C301.639 276.942 301.021 276.324 301.021 275.561C301.021 274.798 301.639 274.18 302.402 274.18L342.521 274.18C343.284 274.18 343.902 274.798 343.902 275.561Z" fill="#1BC53C"/>
        <path d="M297.846 275.561C297.846 276.324 297.227 276.942 296.465 276.942L256.345 276.942C255.583 276.942 254.964 276.324 254.964 275.561C254.964 274.798 255.583 274.18 256.345 274.18L296.465 274.18C297.227 274.18 297.846 274.798 297.846 275.561Z" fill="#AEE03E"/>
        <rect x="251.787" y="276.942" width="42.8815" height="2.7619" rx="1.38095" transform="rotate(180 251.787 276.942)" fill="#CDDE69"/>
        <rect x="205.729" y="276.942" width="42.8815" height="2.7619" rx="1.38095" transform="rotate(180 205.729 276.942)" fill="#D5CE41"/>
        <rect x="159.672" y="276.942" width="42.8815" height="2.7619" rx="1.38095" transform="rotate(180 159.672 276.942)" fill="#D64730"/>
        <path d="M113.613 275.561C113.613 276.324 112.995 276.942 112.232 276.942L72.1128 276.942C71.3501 276.942 70.7318 276.324 70.7318 275.561C70.7318 274.798 71.3501 274.18 72.1128 274.18L112.232 274.18C112.995 274.18 113.613 274.798 113.613 275.561Z" fill="#D64730"/>
        <rect x="292.947" y="165.381" width="5.29268" height="6.90476" rx="2.64634" fill="white"/>
        <rect x="302.209" y="162.619" width="5.29268" height="9.66667" rx="2.64634" fill="white"/>
        <rect x="311.471" y="159.857" width="5.29268" height="12.4286" rx="2.64634" fill="white"/>
        <rect x="320.734" y="157.095" width="5.29268" height="15.1905" rx="2.64634" fill="white"/>
        <rect x="329.996" y="154.333" width="5.29268" height="17.9524" rx="2.64634" fill="white"/>
        <path opacity="0.5" d="M115.865 248.104V258.59H113.917V249.737H111.7V248.104H115.865ZM121.57 248.104V258.59H119.623V249.737H117.406V248.104H121.57ZM124.819 252.988C124.479 252.988 124.19 252.873 123.95 252.643C123.71 252.403 123.591 252.104 123.591 251.744C123.591 251.375 123.705 251.075 123.935 250.845C124.175 250.616 124.469 250.501 124.819 250.501C125.169 250.501 125.458 250.616 125.688 250.845C125.928 251.075 126.047 251.375 126.047 251.744C126.047 252.104 125.928 252.403 125.688 252.643C125.448 252.873 125.159 252.988 124.819 252.988ZM124.819 258.695C124.479 258.695 124.19 258.58 123.95 258.351C123.71 258.111 123.591 257.811 123.591 257.452C123.591 257.082 123.705 256.783 123.935 256.553C124.175 256.323 124.469 256.208 124.819 256.208C125.169 256.208 125.458 256.323 125.688 256.553C125.928 256.783 126.047 257.082 126.047 257.452C126.047 257.811 125.928 258.111 125.688 258.351C125.448 258.58 125.159 258.695 124.819 258.695ZM130.589 252.164C132.067 252.164 133.161 252.453 133.87 253.033C134.579 253.602 134.933 254.381 134.933 255.37C134.933 255.999 134.778 256.568 134.469 257.077C134.159 257.587 133.695 257.991 133.076 258.291C132.456 258.59 131.692 258.74 130.784 258.74C130.035 258.74 129.31 258.635 128.611 258.426C127.912 258.206 127.323 257.906 126.844 257.527L127.668 256.014C128.057 256.333 128.521 256.588 129.061 256.778C129.61 256.958 130.174 257.047 130.754 257.047C131.443 257.047 131.982 256.908 132.372 256.628C132.771 256.338 132.971 255.944 132.971 255.444C132.971 254.905 132.756 254.501 132.327 254.231C131.907 253.951 131.183 253.812 130.154 253.812H127.623L128.162 248.104H134.319V249.737H129.81L129.585 252.164H130.589ZM140.448 252.433C141.417 252.553 142.156 252.883 142.665 253.422C143.174 253.961 143.429 254.635 143.429 255.444C143.429 256.054 143.274 256.608 142.965 257.107C142.655 257.607 142.186 258.006 141.556 258.306C140.937 258.595 140.178 258.74 139.279 258.74C138.53 258.74 137.806 258.635 137.107 258.426C136.418 258.206 135.829 257.906 135.339 257.527L136.178 256.014C136.558 256.333 137.017 256.588 137.556 256.778C138.106 256.958 138.67 257.047 139.249 257.047C139.938 257.047 140.478 256.908 140.867 256.628C141.267 256.338 141.466 255.949 141.466 255.459C141.466 254.97 141.277 254.591 140.897 254.321C140.528 254.041 139.958 253.901 139.189 253.901H138.231V252.568L140.613 249.737H135.849V248.104H142.995V249.407L140.448 252.433Z" fill="white"/>
        <g opacity="0.5">
            <path fill-rule="evenodd" clip-rule="evenodd" d="M95.2339 244.88C90.5353 244.88 86.7305 248.693 86.7305 253.392C86.7305 258.09 90.5353 261.904 95.2339 261.904C99.9409 261.904 103.754 258.09 103.754 253.392C103.754 248.693 99.9409 244.88 95.2339 244.88ZM95.2425 260.201C91.4802 260.201 88.4329 257.154 88.4329 253.392C88.4329 249.63 91.4802 246.582 95.2425 246.582C99.0047 246.582 102.052 249.63 102.052 253.392C102.052 257.154 99.0047 260.201 95.2425 260.201ZM94.3912 249.136H95.668V253.605L99.4983 255.878L98.86 256.925L94.3912 254.243V249.136Z" fill="white"/>
        </g>
        <path opacity="0.5" d="M201.321 252.164C202.799 252.164 203.893 252.453 204.602 253.033C205.311 253.602 205.665 254.381 205.665 255.37C205.665 255.999 205.511 256.568 205.201 257.077C204.891 257.587 204.427 257.991 203.808 258.291C203.188 258.59 202.424 258.74 201.516 258.74C200.767 258.74 200.042 258.635 199.343 258.426C198.644 258.206 198.055 257.906 197.576 257.527L198.4 256.014C198.789 256.333 199.253 256.588 199.793 256.778C200.342 256.958 200.906 257.047 201.486 257.047C202.175 257.047 202.714 256.908 203.104 256.628C203.503 256.338 203.703 255.944 203.703 255.444C203.703 254.905 203.488 254.501 203.059 254.231C202.639 253.951 201.915 253.812 200.886 253.812H198.355L198.894 248.104H205.051V249.737H200.542L200.317 252.164H201.321ZM221.595 250.501C222.604 250.501 223.403 250.795 223.992 251.385C224.582 251.964 224.876 252.838 224.876 254.006V258.59H223.004V254.246C223.004 253.547 222.849 253.023 222.539 252.673C222.23 252.313 221.785 252.134 221.206 252.134C220.577 252.134 220.072 252.343 219.693 252.763C219.313 253.172 219.123 253.762 219.123 254.531V258.59H217.251V254.246C217.251 253.547 217.096 253.023 216.786 252.673C216.477 252.313 216.032 252.134 215.453 252.134C214.814 252.134 214.305 252.338 213.925 252.748C213.556 253.157 213.371 253.752 213.371 254.531V258.59H211.498V250.591H213.281V251.609C213.581 251.25 213.955 250.975 214.404 250.785C214.854 250.596 215.353 250.501 215.903 250.501C216.502 250.501 217.031 250.616 217.491 250.845C217.96 251.065 218.329 251.395 218.599 251.834C218.929 251.415 219.353 251.09 219.873 250.86C220.392 250.621 220.966 250.501 221.595 250.501ZM227.269 250.591H229.142V258.59H227.269V250.591ZM228.213 249.272C227.873 249.272 227.589 249.167 227.359 248.958C227.129 248.738 227.014 248.468 227.014 248.149C227.014 247.829 227.129 247.564 227.359 247.355C227.589 247.135 227.873 247.025 228.213 247.025C228.553 247.025 228.837 247.13 229.067 247.34C229.297 247.54 229.411 247.794 229.411 248.104C229.411 248.433 229.297 248.713 229.067 248.943C228.847 249.162 228.563 249.272 228.213 249.272ZM236.139 250.501C237.148 250.501 237.956 250.795 238.566 251.385C239.175 251.974 239.48 252.848 239.48 254.006V258.59H237.607V254.246C237.607 253.547 237.442 253.023 237.113 252.673C236.783 252.313 236.314 252.134 235.704 252.134C235.015 252.134 234.471 252.343 234.071 252.763C233.672 253.172 233.472 253.767 233.472 254.546V258.59H231.6V250.591H233.382V251.624C233.692 251.255 234.081 250.975 234.551 250.785C235.02 250.596 235.55 250.501 236.139 250.501Z" fill="white"/>
        <g opacity="0.5">
            <path fill-rule="evenodd" clip-rule="evenodd" d="M182.199 259.615C182.142 259.615 182.084 259.612 182.025 259.606C181.276 259.532 180.689 259.004 180.527 258.259L178.243 247.711L175.891 253.143C175.756 253.455 175.449 253.656 175.11 253.656H172.556C172.086 253.656 171.705 253.275 171.705 252.805C171.705 252.334 172.086 251.954 172.556 251.954H174.551L176.685 247.026C176.987 246.332 177.652 245.928 178.409 246.003C179.158 246.077 179.745 246.606 179.907 247.351L182.191 257.899L184.543 252.466C184.678 252.155 184.985 251.954 185.324 251.954H187.878C188.348 251.954 188.729 252.334 188.729 252.805C188.729 253.275 188.348 253.656 187.878 253.656H185.883L183.749 258.583C183.471 259.224 182.874 259.615 182.199 259.615Z" fill="#F2F2F2"/>
        </g>
        <g opacity="0.5">
            <path fill-rule="evenodd" clip-rule="evenodd" d="M270.383 253.392L274.299 257.307L273.107 258.499L268 253.392L273.107 248.285L274.299 249.476L270.383 253.392ZM282.64 253.392L278.725 257.307L279.917 258.499L285.024 253.392L279.917 248.285L278.725 249.476L282.64 253.392Z" fill="white"/>
        </g>
        <path opacity="0.5" d="M298.438 248.104C299.346 248.104 300.135 248.254 300.805 248.553C301.484 248.853 302.003 249.282 302.363 249.842C302.722 250.401 302.902 251.065 302.902 251.834C302.902 252.593 302.722 253.257 302.363 253.827C302.003 254.386 301.484 254.815 300.805 255.115C300.135 255.414 299.346 255.564 298.438 255.564H296.071V258.59H294.123V248.104H298.438ZM298.348 253.916C299.197 253.916 299.841 253.737 300.28 253.377C300.72 253.018 300.939 252.503 300.939 251.834C300.939 251.165 300.72 250.651 300.28 250.291C299.841 249.931 299.197 249.752 298.348 249.752H296.071V253.916H298.348ZM308.244 258.74C307.435 258.74 306.651 258.625 305.892 258.396C305.143 258.166 304.549 257.861 304.109 257.482L304.783 255.969C305.213 256.308 305.737 256.588 306.356 256.808C306.985 257.017 307.615 257.122 308.244 257.122C309.023 257.122 309.602 256.997 309.982 256.748C310.371 256.498 310.566 256.169 310.566 255.759C310.566 255.459 310.456 255.215 310.236 255.025C310.027 254.825 309.757 254.67 309.427 254.561C309.098 254.451 308.648 254.326 308.079 254.186C307.28 253.996 306.631 253.807 306.132 253.617C305.642 253.427 305.218 253.132 304.858 252.733C304.509 252.323 304.334 251.774 304.334 251.085C304.334 250.506 304.489 249.981 304.798 249.512C305.118 249.033 305.592 248.653 306.221 248.373C306.861 248.094 307.64 247.954 308.558 247.954C309.198 247.954 309.827 248.034 310.446 248.194C311.065 248.353 311.6 248.583 312.049 248.883L311.435 250.396C310.975 250.126 310.496 249.921 309.997 249.782C309.497 249.642 309.013 249.572 308.544 249.572C307.774 249.572 307.2 249.702 306.821 249.961C306.451 250.221 306.266 250.566 306.266 250.995C306.266 251.295 306.371 251.539 306.581 251.729C306.801 251.919 307.075 252.069 307.405 252.179C307.735 252.288 308.184 252.413 308.753 252.553C309.532 252.733 310.171 252.923 310.671 253.122C311.17 253.312 311.595 253.607 311.944 254.006C312.304 254.406 312.483 254.945 312.483 255.624C312.483 256.203 312.324 256.728 312.004 257.197C311.695 257.667 311.22 258.041 310.581 258.321C309.942 258.6 309.163 258.74 308.244 258.74ZM321.216 256.164H315.973L314.939 258.59H312.932L317.651 248.104H319.568L324.302 258.59H322.265L321.216 256.164ZM320.572 254.635L318.594 250.051L316.632 254.635H320.572ZM332.497 258.59L330.355 255.519C330.265 255.529 330.13 255.534 329.95 255.534H327.583V258.59H325.636V248.104H329.95C330.859 248.104 331.648 248.254 332.317 248.553C332.996 248.853 333.516 249.282 333.875 249.842C334.235 250.401 334.415 251.065 334.415 251.834C334.415 252.623 334.22 253.302 333.83 253.871C333.451 254.441 332.901 254.865 332.182 255.145L334.594 258.59H332.497ZM332.452 251.834C332.452 251.165 332.232 250.651 331.793 250.291C331.353 249.931 330.709 249.752 329.86 249.752H327.583V253.931H329.86C330.709 253.931 331.353 253.752 331.793 253.392C332.232 253.023 332.452 252.503 332.452 251.834Z" fill="white"/>
        <path d="M263.134 220.979C261.476 220.979 259.868 220.759 258.31 220.319C256.772 219.86 255.534 219.271 254.595 218.552L256.243 214.896C257.142 215.555 258.21 216.085 259.449 216.484C260.687 216.884 261.925 217.084 263.164 217.084C264.542 217.084 265.561 216.884 266.22 216.484C266.879 216.065 267.209 215.516 267.209 214.836C267.209 214.337 267.009 213.928 266.61 213.608C266.23 213.268 265.731 212.999 265.111 212.799C264.512 212.599 263.693 212.379 262.655 212.14C261.057 211.76 259.748 211.381 258.73 211.001C257.711 210.622 256.832 210.013 256.093 209.174C255.374 208.335 255.014 207.216 255.014 205.818C255.014 204.599 255.344 203.501 256.003 202.522C256.662 201.523 257.651 200.734 258.969 200.155C260.308 199.576 261.935 199.286 263.853 199.286C265.191 199.286 266.5 199.446 267.778 199.766C269.056 200.085 270.175 200.545 271.134 201.144L269.636 204.829C267.698 203.73 265.761 203.181 263.823 203.181C262.465 203.181 261.456 203.401 260.797 203.84C260.158 204.28 259.838 204.859 259.838 205.578C259.838 206.297 260.208 206.837 260.947 207.196C261.706 207.536 262.854 207.875 264.392 208.215C265.99 208.594 267.299 208.974 268.317 209.353C269.336 209.733 270.205 210.332 270.924 211.151C271.663 211.97 272.033 213.079 272.033 214.477C272.033 215.675 271.693 216.774 271.014 217.773C270.355 218.751 269.356 219.53 268.018 220.11C266.679 220.689 265.051 220.979 263.134 220.979ZM291.589 216.724V220.619H275.349V199.646H291.199V203.541H280.173V208.095H289.911V211.87H280.173V216.724H291.589ZM295.451 199.646H300.304V216.664H310.821V220.619H295.451V199.646ZM313.533 199.646H318.387V216.664H328.904V220.619H313.533V199.646Z" fill="#FF665A"/>
        <rect x="87.1211" y="181.952" width="122.927" height="23.4762" rx="3.77687" fill="#D64730" fill-opacity="0.37"/>
        <path fill-rule="evenodd" clip-rule="evenodd" d="M100.341 187.562H111.307C111.662 187.562 111.952 187.853 111.952 188.208V188.278C111.952 188.633 111.662 188.924 111.307 188.924H100.341C99.9861 188.924 99.6953 188.633 99.6953 188.278V188.208C99.6953 187.853 99.9861 187.562 100.341 187.562ZM106.335 191.759L106.335 197.131C106.335 197.485 106.044 197.776 105.689 197.776H105.618C105.263 197.776 104.973 197.485 104.973 197.131L104.973 191.759L104.092 192.64C103.826 192.906 103.396 192.906 103.129 192.64C102.997 192.507 102.93 192.333 102.93 192.158C102.93 191.984 102.997 191.81 103.129 191.677L105.172 189.634C105.438 189.368 105.869 189.368 106.135 189.634L108.178 191.677C108.444 191.943 108.444 192.374 108.178 192.64C107.912 192.906 107.481 192.906 107.215 192.64L106.335 191.759Z" fill="white"/>
        <path d="M125.628 188.06V199.5H122.981V190.185H120.693V188.06H125.628ZM129.135 196.46C129.593 196.46 129.969 196.607 130.263 196.902C130.557 197.185 130.704 197.561 130.704 198.029C130.704 198.247 130.677 198.465 130.622 198.683C130.568 198.901 130.448 199.228 130.263 199.664L129.331 202.017H127.713L128.433 199.418C128.16 199.309 127.942 199.135 127.779 198.895C127.626 198.645 127.55 198.356 127.55 198.029C127.55 197.561 127.697 197.185 127.991 196.902C128.296 196.607 128.678 196.46 129.135 196.46ZM136.05 188.06V199.5H133.402V190.185H131.114V188.06H136.05ZM142.057 187.864C143.659 187.864 144.912 188.354 145.816 189.335C146.721 190.305 147.173 191.705 147.173 193.535C147.173 194.832 146.928 195.943 146.437 196.869C145.958 197.795 145.277 198.498 144.395 198.977C143.512 199.457 142.493 199.696 141.338 199.696C140.728 199.696 140.145 199.631 139.59 199.5C139.034 199.358 138.56 199.162 138.168 198.912L139.148 196.967C139.704 197.348 140.418 197.539 141.289 197.539C142.259 197.539 143.027 197.256 143.594 196.689C144.16 196.112 144.465 195.284 144.509 194.205C143.823 194.891 142.875 195.235 141.665 195.235C140.935 195.235 140.271 195.088 139.671 194.793C139.072 194.499 138.598 194.085 138.25 193.551C137.901 193.007 137.727 192.38 137.727 191.672C137.727 190.909 137.917 190.239 138.299 189.662C138.68 189.084 139.197 188.643 139.851 188.338C140.516 188.022 141.251 187.864 142.057 187.864ZM142.254 193.257C142.831 193.257 143.3 193.099 143.659 192.783C144.03 192.456 144.215 192.042 144.215 191.541C144.215 191.04 144.035 190.631 143.675 190.315C143.327 189.999 142.842 189.841 142.221 189.841C141.654 189.841 141.191 189.994 140.832 190.299C140.483 190.604 140.309 191.018 140.309 191.541C140.309 192.064 140.483 192.484 140.832 192.8C141.191 193.105 141.665 193.257 142.254 193.257ZM153.346 199.696C152.398 199.696 151.554 199.462 150.813 198.993C150.072 198.525 149.489 197.849 149.064 196.967C148.65 196.074 148.443 195.011 148.443 193.78C148.443 192.549 148.65 191.492 149.064 190.61C149.489 189.716 150.072 189.035 150.813 188.567C151.554 188.098 152.398 187.864 153.346 187.864C154.294 187.864 155.138 188.098 155.879 188.567C156.62 189.035 157.197 189.716 157.611 190.61C158.036 191.492 158.249 192.549 158.249 193.78C158.249 195.011 158.036 196.074 157.611 196.967C157.197 197.849 156.62 198.525 155.879 198.993C155.138 199.462 154.294 199.696 153.346 199.696ZM153.346 197.457C154.043 197.457 154.588 197.158 154.98 196.558C155.383 195.959 155.585 195.033 155.585 193.78C155.585 192.527 155.383 191.601 154.98 191.002C154.588 190.403 154.043 190.103 153.346 190.103C152.659 190.103 152.115 190.403 151.712 191.002C151.319 191.601 151.123 192.527 151.123 193.78C151.123 195.033 151.319 195.959 151.712 196.558C152.115 197.158 152.659 197.457 153.346 197.457ZM168.427 188.06V189.776L164.178 199.5H161.302L165.404 190.217H161.612V192.08H159.259V188.06H168.427Z" fill="white"/>
        <rect x="87.1211" y="210.952" width="122.927" height="23.4762" rx="3.77687" fill="#1BC53C" fill-opacity="0.57"/>
        <path fill-rule="evenodd" clip-rule="evenodd" d="M100.341 228.819H111.307C111.662 228.819 111.952 228.528 111.952 228.174V228.103C111.952 227.748 111.662 227.457 111.307 227.457H100.341C99.9861 227.457 99.6953 227.748 99.6953 228.103V228.174C99.6953 228.528 99.9861 228.819 100.341 228.819ZM106.335 224.622L106.335 219.25C106.335 218.896 106.044 218.605 105.689 218.605H105.618C105.263 218.605 104.973 218.896 104.973 219.25L104.973 224.622L104.092 223.741C103.826 223.475 103.396 223.475 103.129 223.741C102.996 223.874 102.93 224.049 102.93 224.223C102.93 224.397 102.996 224.571 103.129 224.704L105.172 226.747C105.438 227.013 105.869 227.013 106.135 226.747L108.178 224.704C108.444 224.438 108.444 224.007 108.178 223.741C107.912 223.475 107.481 223.475 107.215 223.741L106.335 224.622Z" fill="white"/>
        <path d="M125.628 217.06V228.5H122.981V219.185H120.693V217.06H125.628ZM129.135 225.46C129.593 225.46 129.969 225.607 130.263 225.902C130.557 226.185 130.704 226.561 130.704 227.029C130.704 227.247 130.677 227.465 130.622 227.683C130.568 227.901 130.448 228.228 130.263 228.664L129.331 231.017H127.713L128.433 228.418C128.16 228.309 127.942 228.135 127.779 227.895C127.626 227.645 127.55 227.356 127.55 227.029C127.55 226.561 127.697 226.185 127.991 225.902C128.296 225.607 128.678 225.46 129.135 225.46ZM136.05 217.06V228.5H133.402V219.185H131.114V217.06H136.05ZM142.057 216.864C143.659 216.864 144.912 217.354 145.816 218.335C146.721 219.305 147.173 220.705 147.173 222.535C147.173 223.832 146.928 224.943 146.437 225.869C145.958 226.795 145.277 227.498 144.395 227.977C143.512 228.457 142.493 228.696 141.338 228.696C140.728 228.696 140.145 228.631 139.59 228.5C139.034 228.358 138.56 228.162 138.168 227.912L139.148 225.967C139.704 226.348 140.418 226.539 141.289 226.539C142.259 226.539 143.027 226.256 143.594 225.689C144.16 225.112 144.465 224.284 144.509 223.205C143.823 223.891 142.875 224.235 141.665 224.235C140.935 224.235 140.271 224.088 139.671 223.793C139.072 223.499 138.598 223.085 138.25 222.551C137.901 222.007 137.727 221.38 137.727 220.672C137.727 219.909 137.917 219.239 138.299 218.662C138.68 218.084 139.197 217.643 139.851 217.338C140.516 217.022 141.251 216.864 142.057 216.864ZM142.254 222.257C142.831 222.257 143.3 222.099 143.659 221.783C144.03 221.456 144.215 221.042 144.215 220.541C144.215 220.04 144.035 219.631 143.675 219.315C143.327 218.999 142.842 218.841 142.221 218.841C141.654 218.841 141.191 218.994 140.832 219.299C140.483 219.604 140.309 220.018 140.309 220.541C140.309 221.064 140.483 221.484 140.832 221.8C141.191 222.105 141.665 222.257 142.254 222.257ZM152.76 217.06V228.5H150.112V219.185H147.824V217.06H152.76ZM159.16 217.06V228.5H156.512V219.185H154.224V217.06H159.16Z" fill="white"/>
        <g filter="url(#filter1_d)">
            <path d="M216.879 157.034C216.879 154.78 218.706 152.952 220.96 152.952H237.307V173.381H220.96C218.706 173.381 216.879 171.554 216.879 169.3V157.034Z" fill="#C4C4C4" fill-opacity="0.12"/>
            <path fill-rule="evenodd" clip-rule="evenodd" d="M228.044 166.526C228.018 166.526 227.99 166.525 227.963 166.522C227.612 166.487 227.337 166.237 227.262 165.885L226.193 160.893L225.092 163.464C225.029 163.611 224.885 163.707 224.726 163.707H223.531C223.311 163.707 223.133 163.526 223.133 163.304C223.133 163.081 223.311 162.901 223.531 162.901H224.465L225.463 160.57C225.605 160.241 225.916 160.05 226.27 160.085C226.621 160.121 226.896 160.371 226.972 160.723L228.04 165.714L229.141 163.144C229.204 162.996 229.348 162.901 229.507 162.901H230.702C230.922 162.901 231.1 163.081 231.1 163.304C231.1 163.526 230.922 163.707 230.702 163.707H229.768L228.77 166.038C228.64 166.341 228.36 166.526 228.044 166.526Z" fill="white"/>
        </g>
        <g filter="url(#filter2_d)">
            <path d="M238.738 153.095H255.085C257.34 153.095 259.167 154.923 259.167 157.177V169.442C259.167 171.696 257.34 173.524 255.085 173.524H238.738V153.095Z" fill="#C4C4C4" fill-opacity="0.12"/>
            <path fill-rule="evenodd" clip-rule="evenodd" d="M246.104 165.915C246.304 165.819 246.387 165.579 246.292 165.378C245.711 164.148 245.962 162.674 246.915 161.71C248.157 160.454 250.179 160.454 251.422 161.71C252.375 162.674 252.626 164.148 252.045 165.378C251.95 165.579 252.034 165.819 252.232 165.915C252.431 166.011 252.669 165.926 252.763 165.725C253.49 164.188 253.177 162.346 251.985 161.141C250.432 159.57 247.905 159.57 246.352 161.141C245.16 162.346 244.847 164.188 245.573 165.725C245.668 165.926 245.905 166.011 246.104 165.915ZM249.17 165.128L250.84 166.816C249.854 167.563 248.486 167.563 247.499 166.816L249.17 165.128ZM251.705 167.121C251.86 166.964 251.861 166.709 251.705 166.552L249.451 164.273C249.295 164.116 249.043 164.116 248.888 164.273L246.634 166.552C246.479 166.709 246.479 166.964 246.634 167.121C248.032 168.535 250.307 168.535 251.705 167.121Z" fill="white"/>
        </g>
        <g filter="url(#filter3_f)">
            <rect x="80.5" y="177.5" width="137" height="62" rx="4.5" stroke="#00FCFC"/>
        </g>
        <rect x="80.5" y="177.5" width="137" height="62" rx="4.5" stroke="#00FCFC"/>
    </g>
    <path d="M33.3471 207.334L33.7202 206.974L33.3471 206.614L17.5176 191.346C21.421 143.741 43.0422 99.3406 78.0981 66.9524C113.212 34.5108 159.231 16.4989 207 16.5C254.769 16.4989 300.788 34.5108 335.902 66.9524C370.96 99.3429 392.582 143.747 396.483 191.356L381.641 206.652L381.303 207.001L381.642 207.349L396.483 222.592C392.594 270.21 370.978 314.627 335.919 347.028C300.804 379.481 254.777 397.5 207 397.5C159.223 397.5 113.196 379.481 78.0814 347.028C43.0243 314.629 21.4085 270.216 17.5175 222.601L33.3471 207.334Z" stroke="#00FCFC"/>
    <defs>
        <filter id="filter0_d" x="48" y="119" width="320" height="185" filterUnits="userSpaceOnUse" color-interpolation-filters="sRGB">
            <feFlood flood-opacity="0" result="BackgroundImageFix"/>
            <feColorMatrix in="SourceAlpha" type="matrix" values="0 0 0 0 0 0 0 0 0 0 0 0 0 0 0 0 0 0 127 0"/>
            <feOffset dy="4"/>
            <feGaussianBlur stdDeviation="10"/>
            <feColorMatrix type="matrix" values="0 0 0 0 0.25098 0 0 0 0 0.482353 0 0 0 0 1 0 0 0 0.2 0"/>
            <feBlend mode="normal" in2="BackgroundImageFix" result="effect1_dropShadow"/>
            <feBlend mode="normal" in="SourceGraphic" in2="effect1_dropShadow" result="shape"/>
        </filter>
        <filter id="filter1_d" x="189.669" y="131.185" width="74.9073" height="75.1338" filterUnits="userSpaceOnUse" color-interpolation-filters="sRGB">
            <feFlood flood-opacity="0" result="BackgroundImageFix"/>
            <feColorMatrix in="SourceAlpha" type="matrix" values="0 0 0 0 0 0 0 0 0 0 0 0 0 0 0 0 0 0 127 0"/>
            <feOffset dy="5.44195"/>
            <feGaussianBlur stdDeviation="13.6049"/>
            <feColorMatrix type="matrix" values="0 0 0 0 0 0 0 0 0 0 0 0 0 0 0 0 0 0 0.25 0"/>
            <feBlend mode="normal" in2="BackgroundImageFix" result="effect1_dropShadow"/>
            <feBlend mode="normal" in="SourceGraphic" in2="effect1_dropShadow" result="shape"/>
        </filter>
        <filter id="filter2_d" x="211.499" y="131.185" width="74.9073" height="75.1338" filterUnits="userSpaceOnUse" color-interpolation-filters="sRGB">
            <feFlood flood-opacity="0" result="BackgroundImageFix"/>
            <feColorMatrix in="SourceAlpha" type="matrix" values="0 0 0 0 0 0 0 0 0 0 0 0 0 0 0 0 0 0 127 0"/>
            <feOffset dy="5.44195"/>
            <feGaussianBlur stdDeviation="13.6049"/>
            <feColorMatrix type="matrix" values="0 0 0 0 0 0 0 0 0 0 0 0 0 0 0 0 0 0 0.25 0"/>
            <feBlend mode="normal" in2="BackgroundImageFix" result="effect1_dropShadow"/>
            <feBlend mode="normal" in="SourceGraphic" in2="effect1_dropShadow" result="shape"/>
        </filter>
        <filter id="filter3_f" x="76" y="173" width="146" height="71" filterUnits="userSpaceOnUse" color-interpolation-filters="sRGB">
            <feFlood flood-opacity="0" result="BackgroundImageFix"/>
            <feBlend mode="normal" in="SourceGraphic" in2="BackgroundImageFix" result="shape"/>
            <feGaussianBlur stdDeviation="2" result="effect1_foregroundBlur"/>
        </filter>
        <clipPath id="clip0">
            <rect width="280" height="145" fill="white" transform="translate(68 135)"/>
        </clipPath>
    </defs>
</svg>
