<svg width="628" height="141" viewBox="0 0 628 141" fill="none" xmlns="http://www.w3.org/2000/svg">
    <g opacity="0.5">
        <mask id="mask0" mask-type="alpha" maskUnits="userSpaceOnUse" x="0" y="0" width="628" height="141">
            <rect width="628" height="141" rx="8" transform="matrix(-1 0 0 1 628 0)" fill="#1AA3E0"/>
            <rect x="-0.5" y="0.5" width="627" height="140" rx="7.5" transform="matrix(-1 0 0 1 627 0)" stroke="#98A4C4" stroke-opacity="0.2"/>
        </mask>
        <g mask="url(#mask0)">
            <g opacity="0.2">
                <path d="M622.094 2.93359H617.558V201.208H622.094V2.93359Z" fill="white"/>
                <path d="M627.465 14.3667H632V201.21H627.465V14.3667Z" fill="white"/>
                <path d="M622.512 27.0792H627.047V201.21H622.512V27.0792Z" fill="white"/>
                <path d="M612.605 8.76959H617.141V201.21H612.605V8.76959Z" fill="white"/>
                <path d="M612.187 28.3808H607.651V201.21H612.187V28.3808Z" fill="white"/>
                <path d="M602.699 26.1015H607.234V201.208H602.699V26.1015Z" fill="white"/>
                <path d="M602.281 53.9131H597.745V201.21H602.281V53.9131Z" fill="white"/>
                <path d="M592.792 8.76959H597.328V201.21H592.792V8.76959Z" fill="white"/>
                <path d="M592.374 12.7392H587.839V201.21H592.374V12.7392Z" fill="white"/>
                <path d="M582.886 53.0669H587.421V201.21H582.886V53.0669Z" fill="white"/>
                <path d="M582.468 26.3626H577.932V201.21H582.468V26.3626Z" fill="white"/>
                <path d="M572.979 46.9495H577.515V201.21H572.979V46.9495Z" fill="white"/>
                <path d="M572.562 17.8363H568.026V201.208H572.562V17.8363Z" fill="white"/>
                <path d="M563.073 9.3121H567.608V201.21H563.073V9.3121Z" fill="white"/>
                <path d="M562.655 21.3505H558.12V201.208H562.655V21.3505Z" fill="white"/>
                <path d="M553.167 45.1277H557.702V201.21H553.167V45.1277Z" fill="white"/>
                <path d="M552.749 22.7614H548.214V201.21H552.749V22.7614Z" fill="white"/>
                <path d="M543.26 48.7269H547.795V201.208H543.26V48.7269Z" fill="white"/>
                <path d="M542.842 53.1317H538.307V201.21H542.842V53.1317Z" fill="white"/>
                <path d="M533.354 28.4658H537.889V201.208H533.354V28.4658Z" fill="white"/>
                <path d="M532.936 39.986H528.401V201.21H532.936V39.986Z" fill="white"/>
                <path d="M523.448 54.6074H527.983V201.21H523.448V54.6074Z" fill="white"/>
                <path d="M523.03 24.3221H518.494V201.208H523.03V24.3221Z" fill="white"/>
                <path d="M513.541 37.7957H518.077V201.21H513.541V37.7957Z" fill="white"/>
                <path d="M513.123 50.6155H508.587V201.21H513.123V50.6155Z" fill="white"/>
                <path d="M503.634 43.3706H508.17V201.21H503.634V43.3706Z" fill="white"/>
                <path d="M503.217 59.3361H498.681V201.21H503.217V59.3361Z" fill="white"/>
                <path d="M493.728 25.7553H498.264V201.21H493.728V25.7553Z" fill="white"/>
                <path d="M493.311 49.7471H488.775V201.208H493.311V49.7471Z" fill="white"/>
                <path d="M483.822 62.828H488.357V201.208H483.822V62.828Z" fill="white"/>
                <path d="M483.404 80.2267H478.869V201.21H483.404V80.2267Z" fill="white"/>
                <path d="M473.915 59.7268H478.451V201.21H473.915V59.7268Z" fill="white"/>
                <path d="M473.498 71.4838H468.962V201.208H473.498V71.4838Z" fill="white"/>
                <path d="M464.009 47.8605H468.544V201.21H464.009V47.8605Z" fill="white"/>
                <path d="M463.591 56.6236H459.056V201.208H463.591V56.6236Z" fill="white"/>
                <path d="M454.103 76.3441H458.638V201.21H454.103V76.3441Z" fill="white"/>
                <path d="M453.685 39.3787H449.15V201.21H453.685V39.3787Z" fill="white"/>
                <path d="M444.196 48.7916H448.731V201.208H444.196V48.7916Z" fill="white"/>
                <path d="M443.778 75.6275H439.243V201.21H443.778V75.6275Z" fill="white"/>
                <path d="M434.29 52.9576H438.825V201.208H434.29V52.9576Z" fill="white"/>
                <path d="M433.872 62.8928H429.337V201.208H433.872V62.8928Z" fill="white"/>
                <path d="M424.384 84.1517H428.919V201.208H424.384V84.1517Z" fill="white"/>
                <path d="M423.966 62.5243H419.431V201.208H423.966V62.5243Z" fill="white"/>
                <path d="M414.477 43.5872H419.013V201.21H414.477V43.5872Z" fill="white"/>
                <path d="M414.059 66.2571H409.523V201.21H414.059V66.2571Z" fill="white"/>
                <path d="M404.57 76.5384H409.106V201.21H404.57V76.5384Z" fill="white"/>
                <path d="M404.153 41.3949H399.618V201.208H404.153V41.3949Z" fill="white"/>
                <path d="M394.664 62.4596H399.2V201.208H394.664V62.4596Z" fill="white"/>
                <path d="M394.247 47.4475H389.711V201.208H394.247V47.4475Z" fill="white"/>
                <path d="M384.758 57.3827H389.293V201.208H384.758V57.3827Z" fill="white"/>
                <path d="M384.34 84.3481H379.805V201.21H384.34V84.3481Z" fill="white"/>
                <path d="M374.851 85.5404H379.387V201.208H374.851V85.5404Z" fill="white"/>
                <path d="M374.434 90.6598H369.898V201.208H374.434V90.6598Z" fill="white"/>
                <path d="M364.945 92.4837H369.481V201.21H364.945V92.4837Z" fill="white"/>
                <path d="M364.527 78.6437H359.992V201.21H364.527V78.6437Z" fill="white"/>
                <path d="M355.039 92.7651H359.574V201.21H355.039V92.7651Z" fill="white"/>
                <path d="M354.621 32.0893H350.086V201.21H354.621V32.0893Z" fill="white"/>
                <path d="M345.133 99.1861H349.668V201.21H345.133V99.1861Z" fill="white"/>
                <path d="M344.714 89.3805H340.179V201.208H344.714V89.3805Z" fill="white"/>
                <path d="M335.226 70.4636H339.761V201.208H335.226V70.4636Z" fill="white"/>
                <path d="M334.808 79.4878H330.273V201.208H334.808V79.4878Z" fill="white"/>
                <path d="M325.32 102.31H329.855V201.208H325.32V102.31Z" fill="white"/>
                <path d="M324.902 93.3501H320.367V201.208H324.902V93.3501Z" fill="white"/>
                <path d="M315.413 108.34H319.949V201.208H315.413V108.34Z" fill="white"/>
                <path d="M314.996 35.4294H310.46V201.208H314.996V35.4294Z" fill="white"/>
                <path d="M305.506 92.7226H310.042V201.21H305.506V92.7226Z" fill="white"/>
                <path d="M305.089 86.4959H300.553V201.21H305.089V86.4959Z" fill="white"/>
                <path d="M295.6 86.344H300.136V201.21H295.6V86.344Z" fill="white"/>
                <path d="M295.183 88.5788H290.647V201.21H295.183V88.5788Z" fill="white"/>
                <path d="M285.694 74.9332H290.23V201.21H285.694V74.9332Z" fill="white"/>
                <path d="M285.276 76.083H280.741V201.21H285.276V76.083Z" fill="white"/>
                <path d="M275.787 68.4251H280.323V201.208H275.787V68.4251Z" fill="white"/>
                <path d="M275.37 92.5687H270.834V201.208H275.37V92.5687Z" fill="white"/>
                <path d="M265.881 61.5709H270.417V201.21H265.881V61.5709Z" fill="white"/>
                <path d="M265.463 112.852H260.928V201.208H265.463V112.852Z" fill="white"/>
                <path d="M255.975 60.9636H260.51V201.21H255.975V60.9636Z" fill="white"/>
                <path d="M255.557 72.5466H251.022V201.208H255.557V72.5466Z" fill="white"/>
                <path d="M246.069 97.1254H250.604V201.21H246.069V97.1254Z" fill="white"/>
                <path d="M245.65 116.866H241.115V201.21H245.65V116.866Z" fill="white"/>
                <path d="M236.162 103.569H240.697V201.21H236.162V103.569Z" fill="white"/>
                <path d="M235.744 94.4776H231.209V201.208H235.744V94.4776Z" fill="white"/>
                <path d="M226.256 111.55H230.791V201.208H226.256V111.55Z" fill="white"/>
                <path d="M225.838 80.0323H221.303V201.21H225.838V80.0323Z" fill="white"/>
                <path d="M216.35 75.9534H220.885V201.21H216.35V75.9534Z" fill="white"/>
                <path d="M215.932 106.801H211.397V201.21H215.932V106.801Z" fill="white"/>
                <path d="M206.443 97.6031H210.978V201.21H206.443V97.6031Z" fill="white"/>
                <path d="M206.025 102.202H201.489V201.21H206.025V102.202Z" fill="white"/>
                <path d="M196.536 92.6132H201.072V201.21H196.536V92.6132Z" fill="white"/>
                <path d="M196.119 73.415H191.584V201.21H196.119V73.415Z" fill="white"/>
                <path d="M186.63 103.828H191.166V201.208H186.63V103.828Z" fill="white"/>
                <path d="M186.213 103.2H181.677V201.21H186.213V103.2Z" fill="white"/>
                <path d="M176.724 115.022H181.26V201.21H176.724V115.022Z" fill="white"/>
                <path d="M176.306 115.674H171.77V201.21H176.306V115.674Z" fill="white"/>
                <path d="M166.817 89.7064H171.353V201.21H166.817V89.7064Z" fill="white"/>
                <path d="M166.4 119.556H161.864V201.21H166.4V119.556Z" fill="white"/>
                <path d="M156.911 70.0729H161.447V201.208H156.911V70.0729Z" fill="white"/>
                <path d="M156.493 127.56H151.958V201.208H156.493V127.56Z" fill="white"/>
                <path d="M147.005 93.1557H151.54V201.21H147.005V93.1557Z" fill="white"/>
                <path d="M146.587 96.2569H142.052V201.208H146.587V96.2569Z" fill="white"/>
                <path d="M137.098 90.8137H141.633V201.21H137.098V90.8137Z" fill="white"/>
                <path d="M136.68 120.206H132.145V201.208H136.68V120.206Z" fill="white"/>
                <path d="M127.192 101.941H131.727V201.21H127.192V101.941Z" fill="white"/>
                <path d="M126.774 110.575H122.239V201.208H126.774V110.575Z" fill="white"/>
                <path d="M117.286 109.382H121.821V201.21H117.286V109.382Z" fill="white"/>
                <path d="M116.868 82.9169H112.333V201.21H116.868V82.9169Z" fill="white"/>
                <path d="M107.379 124.718H111.914V201.208H107.379V124.718Z" fill="white"/>
                <path d="M106.961 105.152H102.426V201.208H106.961V105.152Z" fill="white"/>
                <path d="M97.4725 118.905H102.008V201.208H97.4725V118.905Z" fill="white"/>
                <path d="M97.0549 94.4574H92.5195V201.21H97.0549V94.4574Z" fill="white"/>
                <path d="M87.5663 108.947H92.1016V201.208H87.5663V108.947Z" fill="white"/>
                <path d="M87.1487 100.965H82.6133V201.21H87.1487V100.965Z" fill="white"/>
                <path d="M77.6603 119.903H82.1957V201.208H77.6603V119.903Z" fill="white"/>
                <path d="M77.2418 123.917H72.7064V201.21H77.2418V123.917Z" fill="white"/>
                <path d="M67.7534 76.1478H72.2888V201.208H67.7534V76.1478Z" fill="white"/>
                <path d="M67.3355 114.631H62.8002V201.208H67.3355V114.631Z" fill="white"/>
                <path d="M57.8472 125.826H62.3826V201.21H57.8472V125.826Z" fill="white"/>
                <path d="M57.4293 109.599H52.8939V201.21H57.4293V109.599Z" fill="white"/>
                <path d="M47.941 122.224H52.4763V201.21H47.941V122.224Z" fill="white"/>
                <path d="M47.5234 97.0181H42.988V201.21H47.5234V97.0181Z" fill="white"/>
                <path d="M38.0341 99.9027H42.5694V201.21H38.0341V99.9027Z" fill="white"/>
                <path d="M37.6164 111.356H33.0811V201.21H37.6164V111.356Z" fill="white"/>
                <path d="M28.1278 131.791H32.6632V201.21H28.1278V131.791Z" fill="white"/>
                <path d="M27.7102 116.324H23.1749V201.21H27.7102V116.324Z" fill="white"/>
                <path d="M18.2216 115.239H22.757V201.208H18.2216V115.239Z" fill="white"/>
                <path d="M17.804 110.943H13.2686V201.208H17.804V110.943Z" fill="white"/>
                <path d="M8.3147 107.409H12.85V201.21H8.3147V107.409Z" fill="white"/>
                <path d="M7.89709 107.581H3.36169V201.208H7.89709V107.581Z" fill="white"/>
                <path d="M-1.59155 105.478H2.94385V201.21H-1.59155V105.478Z" fill="white"/>
                <path d="M-2.00916 98.4047H-6.54449V201.208H-2.00916V98.4047Z" fill="white"/>
                <path d="M-11.4975 102.722H-6.9621V201.21H-11.4975V102.722Z" fill="white"/>
                <path d="M-11.9153 108.21H-16.4507V201.208H-11.9153V108.21Z" fill="white"/>
                <path d="M-21.4037 105.261H-16.8683V201.21H-21.4037V105.261Z" fill="white"/>
                <path d="M-21.8223 116.281H-26.3577V201.21H-21.8223V116.281Z" fill="white"/>
                <path d="M-31.3106 118.818H-26.7753V201.208H-31.3106V118.818Z" fill="white"/>
                <path d="M-31.7285 98.8379H-36.2639V201.208H-31.7285V98.8379Z" fill="white"/>
                <path d="M-41.2169 135.263H-36.6815V201.21H-41.2169V135.263Z" fill="white"/>
                <path d="M-41.6345 136.649H-46.1698V201.208H-41.6345V136.649Z" fill="white"/>
                <path d="M-51.123 107.148H-46.5876V201.21H-51.123V107.148Z" fill="white"/>
                <path d="M-51.5406 122.398H-56.076V201.21H-51.5406V122.398Z" fill="white"/>
                <path d="M-61.03 76.5809H-56.4946V201.208H-61.03V76.5809Z" fill="white"/>
                <path d="M-61.4476 117.17H-65.983V201.21H-61.4476V117.17Z" fill="white"/>
                <path d="M-70.9362 106.107H-66.4008V201.21H-70.9362V106.107Z" fill="white"/>
                <path d="M-71.3538 113.2H-75.8892V201.21H-71.3538V113.2Z" fill="white"/>
                <path d="M-80.8422 139.775H-76.3068V201.21H-80.8422V139.775Z" fill="white"/>
                <path d="M-81.26 137.085H-85.7953V201.21H-81.26V137.085Z" fill="white"/>
                <path d="M-90.7484 111.224H-86.213V201.208H-90.7484V111.224Z" fill="white"/>
                <path d="M-91.1669 122.115H-95.7023V201.208H-91.1669V122.115Z" fill="white"/>
                <path d="M-100.655 107.777H-96.1199V201.21H-100.655V107.777Z" fill="white"/>
                <path d="M-101.073 132.702H-105.609V201.21H-101.073V132.702Z" fill="white"/>
                <path d="M-110.562 126.996H-106.026V201.208H-110.562V126.996Z" fill="white"/>
                <path d="M-110.979 132.137H-115.514V201.208H-110.979V132.137Z" fill="white"/>
                <path d="M-120.468 127.279H-115.932V201.21H-120.468V127.279Z" fill="white"/>
                <path d="M-120.885 124.305H-125.421V201.208H-120.885V124.305Z" fill="white"/>
                <path d="M-130.375 161.641H-125.839V201.21H-130.375V161.641Z" fill="white"/>
                <path d="M-130.792 147.605H-135.328V201.208H-130.792V147.605Z" fill="white"/>
                <path d="M-140.281 137.866H-135.745V201.21H-140.281V137.866Z" fill="white"/>
                <path d="M-140.698 110.227H-145.234V201.208H-140.698V110.227Z" fill="white"/>
                <path d="M-150.187 145.263H-145.652V201.21H-150.187V145.263Z" fill="white"/>
                <path d="M-150.605 161.315H-155.14V201.21H-150.605V161.315Z" fill="white"/>
                <path d="M-160.094 148.951H-155.559V201.21H-160.094V148.951Z" fill="white"/>
                <path d="M-160.512 167.888H-165.047V201.208H-160.512V167.888Z" fill="white"/>
                <path d="M-170 172.965H-165.465V201.21H-170V172.965Z" fill="white"/>
            </g>
        </g>
    </g>
</svg>
