<svg width="629" height="141" viewBox="0 0 629 141" fill="none" xmlns="http://www.w3.org/2000/svg">
    <g opacity="0.6">
        <mask id="mask0" mask-type="alpha" maskUnits="userSpaceOnUse" x="0" y="0" width="629" height="141">
            <rect width="629" height="141" rx="8" fill="#1AA3E0"/>
            <rect x="0.5" y="0.5" width="628" height="140" rx="7.5" stroke="#98A4C4" stroke-opacity="0.5"/>
        </mask>
        <g mask="url(#mask0)">
            <g opacity="0.2">
                <g opacity="0.2">
                    <path d="M13.8926 -102V187.628" stroke="white"/>
                    <path d="M445.505 -102V187.628" stroke="white"/>
                    <path d="M-416.804 139.18H1307.81" stroke="white"/>
                    <path d="M-416.804 90.7344H1307.81" stroke="white"/>
                    <path d="M-416.804 42.2871H1307.81" stroke="white"/>
                </g>
                <path d="M-416.804 -13.3105C-416.804 -13.3105 -179.106 25.6317 58.5924 25.6317C296.291 25.6317 296.291 83.5188 535 83.5188C772.698 83.5188 772.698 129.829 1010.4 129.829C1248.09 129.829 1486.8 152.983 1486.8 152.983" stroke="white" stroke-width="2"/>
                <path d="M-416.804 -23.0117C-416.804 -23.0117 -179.106 23.4281 58.5924 23.4281C296.291 23.4281 296.291 49.8144 535 49.8144C772.698 49.8144 772.698 109.975 1010.4 109.975C1248.09 109.975 1486.8 158.526 1486.8 158.526" stroke="white" stroke-width="2"/>
                <path d="M-416.804 -6.38086C-416.804 -6.38086 -179.106 47.3137 58.5924 47.3137C296.291 47.3137 296.291 83.1101 535 83.1101C772.698 83.1101 772.698 111.537 1010.4 111.537C1248.09 111.537 1486.8 155.756 1486.8 155.756" stroke="white" stroke-width="2"/>
                <path d="M-416.804 187.63C-416.804 187.63 -179.106 47.2036 58.5924 47.2036C296.291 47.2036 296.291 152.787 535 152.787C772.698 152.787 772.698 32.4219 1010.4 32.4219C1248.09 32.4219 1486.8 187.63 1486.8 187.63" stroke="white" stroke-width="2"/>
                <path d="M-416.804 139.126C-416.804 139.126 -179.106 94.8546 58.5924 94.8546C296.291 94.8546 296.291 40.0424 535 40.0424C772.698 40.0424 772.698 -4.22889 1010.4 -4.22889C1248.09 -4.22889 1486.8 -59.041 1486.8 -59.041" stroke="white" stroke-width="2"/>
                <path d="M-416.804 132.197C-416.804 132.197 -179.106 95.2931 58.5924 95.2931C296.291 95.2931 296.291 37.3011 535 37.3011C772.698 37.3011 772.698 -13.3101 1010.4 -13.3101C1248.09 -13.3101 1486.8 -61.8125 1486.8 -61.8125" stroke="white" stroke-width="2"/>
            </g>
        </g>
    </g>
</svg>
