<svg width="1920" height="188" viewBox="0 0 1920 188" fill="none" xmlns="http://www.w3.org/2000/svg">
    <g opacity="0.2">
        <path d="M1896.28 0H1885.43V187.998H1896.28V0Z" fill="#6F63E3"/>
        <path d="M1909.14 10.8406H1920V188H1909.14V10.8406Z" fill="#6F63E3"/>
        <path d="M1897.28 22.8942H1908.14V188H1897.28V22.8942Z" fill="#6F63E3"/>
        <path d="M1873.57 5.53353H1884.43V188H1873.57V5.53353Z" fill="#6F63E3"/>
        <path d="M1872.57 24.1284H1861.71V188H1872.57V24.1284Z" fill="#6F63E3"/>
        <path d="M1849.85 21.9671H1860.71V187.998H1849.85V21.9671Z" fill="#6F63E3"/>
        <path d="M1848.85 48.3373H1837.99V188H1848.85V48.3373Z" fill="#6F63E3"/>
        <path d="M1826.14 5.53353H1836.99V188H1826.14V5.53353Z" fill="#6F63E3"/>
        <path d="M1825.14 9.29741H1814.28V188H1825.14V9.29741Z" fill="#6F63E3"/>
        <path d="M1802.42 47.535H1813.28V188H1802.42V47.535Z" fill="#6F63E3"/>
        <path d="M1801.42 22.2147H1790.56V188H1801.42V22.2147Z" fill="#6F63E3"/>
        <path d="M1778.7 41.7347H1789.56V188H1778.7V41.7347Z" fill="#6F63E3"/>
        <path d="M1777.7 14.1304H1766.85V187.998H1777.7V14.1304Z" fill="#6F63E3"/>
        <path d="M1754.99 6.04792H1765.85V188H1754.99V6.04792Z" fill="#6F63E3"/>
        <path d="M1753.99 17.4624H1743.13V187.998H1753.99V17.4624Z" fill="#6F63E3"/>
        <path d="M1731.27 40.0073H1742.13V188H1731.27V40.0073Z" fill="#6F63E3"/>
        <path d="M1730.27 18.8002H1719.41V188H1730.27V18.8002Z" fill="#6F63E3"/>
        <path d="M1707.55 43.4199H1718.41V187.998H1707.55V43.4199Z" fill="#6F63E3"/>
        <path d="M1706.55 47.5964H1695.7V188H1706.55V47.5964Z" fill="#6F63E3"/>
        <path d="M1683.84 24.209H1694.7V187.998H1683.84V24.209Z" fill="#6F63E3"/>
        <path d="M1682.84 35.1321H1671.98V188H1682.84V35.1321Z" fill="#6F63E3"/>
        <path d="M1660.12 48.9957H1670.98V188H1660.12V48.9957Z" fill="#6F63E3"/>
        <path d="M1659.12 20.28H1648.27V187.998H1659.12V20.28Z" fill="#6F63E3"/>
        <path d="M1636.41 33.0553H1647.27V188H1636.41V33.0553Z" fill="#6F63E3"/>
        <path d="M1635.41 45.2107H1624.55V188H1635.41V45.2107Z" fill="#6F63E3"/>
        <path d="M1612.69 38.3413H1623.55V188H1612.69V38.3413Z" fill="#6F63E3"/>
        <path d="M1611.69 53.4793H1600.83V188H1611.69V53.4793Z" fill="#6F63E3"/>
        <path d="M1588.98 21.6389H1599.83V188H1588.98V21.6389Z" fill="#6F63E3"/>
        <path d="M1587.98 44.3873H1577.12V187.998H1587.98V44.3873Z" fill="#6F63E3"/>
        <path d="M1565.26 56.7902H1576.12V187.998H1565.26V56.7902Z" fill="#6F63E3"/>
        <path d="M1564.26 73.2872H1553.4V188H1564.26V73.2872Z" fill="#6F63E3"/>
        <path d="M1541.54 53.8497H1552.4V188H1541.54V53.8497Z" fill="#6F63E3"/>
        <path d="M1540.54 64.9974H1529.68V187.998H1540.54V64.9974Z" fill="#6F63E3"/>
        <path d="M1517.83 42.5984H1528.68V188H1517.83V42.5984Z" fill="#6F63E3"/>
        <path d="M1516.83 50.9073H1505.97V187.998H1516.83V50.9073Z" fill="#6F63E3"/>
        <path d="M1494.11 69.6058H1504.97V188H1494.11V69.6058Z" fill="#6F63E3"/>
        <path d="M1493.11 34.5563H1482.25V188H1493.11V34.5563Z" fill="#6F63E3"/>
        <path d="M1470.39 43.4813H1481.25V187.998H1470.39V43.4813Z" fill="#6F63E3"/>
        <path d="M1469.39 68.9264H1458.54V188H1469.39V68.9264Z" fill="#6F63E3"/>
        <path d="M1446.68 47.4314H1457.54V187.998H1446.68V47.4314Z" fill="#6F63E3"/>
        <path d="M1445.68 56.8516H1434.82V187.998H1445.68V56.8516Z" fill="#6F63E3"/>
        <path d="M1422.96 77.0088H1433.82V187.998H1422.96V77.0088Z" fill="#6F63E3"/>
        <path d="M1421.96 56.5023H1411.11V187.998H1421.96V56.5023Z" fill="#6F63E3"/>
        <path d="M1399.25 38.5466H1410.11V188H1399.25V38.5466Z" fill="#6F63E3"/>
        <path d="M1398.25 60.0416H1387.39V188H1398.25V60.0416Z" fill="#6F63E3"/>
        <path d="M1375.53 69.7901H1386.39V188H1375.53V69.7901Z" fill="#6F63E3"/>
        <path d="M1374.53 36.468H1363.67V187.998H1374.53V36.468Z" fill="#6F63E3"/>
        <path d="M1351.81 56.4409H1362.67V187.998H1351.81V56.4409Z" fill="#6F63E3"/>
        <path d="M1350.81 42.2069H1339.96V187.998H1350.81V42.2069Z" fill="#6F63E3"/>
        <path d="M1328.1 51.6271H1338.96V187.998H1328.1V51.6271Z" fill="#6F63E3"/>
        <path d="M1327.1 77.195H1316.24V188H1327.1V77.195Z" fill="#6F63E3"/>
        <path d="M1304.38 78.3255H1315.24V187.998H1304.38V78.3255Z" fill="#6F63E3"/>
        <path d="M1303.38 83.1796H1292.52V187.998H1303.38V83.1796Z" fill="#6F63E3"/>
        <path d="M1280.67 84.9089H1291.52V188H1280.67V84.9089Z" fill="#6F63E3"/>
        <path d="M1279.67 71.7862H1268.81V188H1279.67V71.7862Z" fill="#6F63E3"/>
        <path d="M1256.95 85.1757H1267.81V188H1256.95V85.1757Z" fill="#6F63E3"/>
        <path d="M1255.95 27.6446H1245.09V188H1255.95V27.6446Z" fill="#6F63E3"/>
        <path d="M1233.24 91.2639H1244.09V188H1233.24V91.2639Z" fill="#6F63E3"/>
        <path d="M1232.23 81.9665H1221.38V187.998H1232.23V81.9665Z" fill="#6F63E3"/>
        <path d="M1209.52 64.0301H1220.38V187.998H1209.52V64.0301Z" fill="#6F63E3"/>
        <path d="M1208.52 72.5866H1197.66V187.998H1208.52V72.5866Z" fill="#6F63E3"/>
        <path d="M1185.8 94.2255H1196.66V187.998H1185.8V94.2255Z" fill="#6F63E3"/>
        <path d="M1184.8 85.7304H1173.95V187.998H1184.8V85.7304Z" fill="#6F63E3"/>
        <path d="M1162.09 99.9433H1172.94V187.998H1162.09V99.9433Z" fill="#6F63E3"/>
        <path d="M1161.09 30.8116H1150.23V187.998H1161.09V30.8116Z" fill="#6F63E3"/>
        <path d="M1138.37 85.1354H1149.23V188H1138.37V85.1354Z" fill="#6F63E3"/>
        <path d="M1137.37 79.2314H1126.51V188H1137.37V79.2314Z" fill="#6F63E3"/>
        <path d="M1114.65 79.0875H1125.51V188H1114.65V79.0875Z" fill="#6F63E3"/>
        <path d="M1113.65 81.2065H1102.8V188H1113.65V81.2065Z" fill="#6F63E3"/>
        <path d="M1090.94 68.268H1101.8V188H1090.94V68.268Z" fill="#6F63E3"/>
        <path d="M1089.94 69.3582H1079.08V188H1089.94V69.3582Z" fill="#6F63E3"/>
        <path d="M1067.22 62.0973H1078.08V187.998H1067.22V62.0973Z" fill="#6F63E3"/>
        <path d="M1066.22 84.9895H1055.36V187.998H1066.22V84.9895Z" fill="#6F63E3"/>
        <path d="M1043.51 55.5983H1054.36V188H1043.51V55.5983Z" fill="#6F63E3"/>
        <path d="M1042.51 104.222H1031.65V187.998H1042.51V104.222Z" fill="#6F63E3"/>
        <path d="M1019.79 55.0225H1030.65V188H1019.79V55.0225Z" fill="#6F63E3"/>
        <path d="M1018.79 66.0051H1007.93V187.998H1018.79V66.0051Z" fill="#6F63E3"/>
        <path d="M996.075 89.31H1006.93V188H996.075V89.31Z" fill="#6F63E3"/>
        <path d="M995.073 108.028H984.216V188H995.073V108.028Z" fill="#6F63E3"/>
        <path d="M972.358 95.4194H983.216V188H972.358V95.4194Z" fill="#6F63E3"/>
        <path d="M971.358 86.7995H960.5V187.998H971.358V86.7995Z" fill="#6F63E3"/>
        <path d="M948.642 102.987H959.5V187.998H948.642V102.987Z" fill="#6F63E3"/>
        <path d="M947.642 73.1029H936.784V188H947.642V73.1029Z" fill="#6F63E3"/>
        <path d="M924.927 69.2354H935.785V188H924.927V69.2354Z" fill="#6F63E3"/>
        <path d="M923.927 98.4846H913.069V188H923.927V98.4846Z" fill="#6F63E3"/>
        <path d="M901.209 89.763H912.067V188H901.209V89.763Z" fill="#6F63E3"/>
        <path d="M900.209 94.1238H889.351V188H900.209V94.1238Z" fill="#6F63E3"/>
        <path d="M877.494 85.0318H888.352V188H877.494V85.0318Z" fill="#6F63E3"/>
        <path d="M876.494 66.8285H865.636V188H876.494V66.8285Z" fill="#6F63E3"/>
        <path d="M853.778 95.665H864.636V187.998H853.778V95.665Z" fill="#6F63E3"/>
        <path d="M852.778 95.07H841.921V188H852.778V95.07Z" fill="#6F63E3"/>
        <path d="M830.063 106.279H840.921V188H830.063V106.279Z" fill="#6F63E3"/>
        <path d="M829.061 106.897H818.203V188H829.061V106.897Z" fill="#6F63E3"/>
        <path d="M806.345 82.2756H817.203V188H806.345V82.2756Z" fill="#6F63E3"/>
        <path d="M805.345 110.579H794.488V188H805.345V110.579Z" fill="#6F63E3"/>
        <path d="M782.63 63.6596H793.488V187.998H782.63V63.6596Z" fill="#6F63E3"/>
        <path d="M781.63 118.168H770.772V187.998H781.63V118.168Z" fill="#6F63E3"/>
        <path d="M758.915 85.5462H769.772V188H758.915V85.5462Z" fill="#6F63E3"/>
        <path d="M757.914 88.4866H747.057V187.998H757.914V88.4866Z" fill="#6F63E3"/>
        <path d="M735.197 83.3254H746.055V188H735.197V83.3254Z" fill="#6F63E3"/>
        <path d="M734.197 111.195H723.339V187.998H734.197V111.195Z" fill="#6F63E3"/>
        <path d="M711.482 93.8762H722.339V188H711.482V93.8762Z" fill="#6F63E3"/>
        <path d="M710.482 102.062H699.624V187.998H710.482V102.062Z" fill="#6F63E3"/>
        <path d="M687.766 100.932H698.624V188H687.766V100.932Z" fill="#6F63E3"/>
        <path d="M686.766 75.838H675.909V188H686.766V75.838Z" fill="#6F63E3"/>
        <path d="M664.049 115.473H674.906V187.998H664.049V115.473Z" fill="#6F63E3"/>
        <path d="M663.049 96.9203H652.191V187.998H663.049V96.9203Z" fill="#6F63E3"/>
        <path d="M640.333 109.96H651.191V187.998H640.333V109.96Z" fill="#6F63E3"/>
        <path d="M639.333 86.7803H628.476V188H639.333V86.7803Z" fill="#6F63E3"/>
        <path d="M616.618 100.519H627.475V187.998H616.618V100.519Z" fill="#6F63E3"/>
        <path d="M615.618 92.9511H604.76V188H615.618V92.9511Z" fill="#6F63E3"/>
        <path d="M592.902 110.907H603.76V187.998H592.902V110.907Z" fill="#6F63E3"/>
        <path d="M591.9 114.713H581.043V188H591.9V114.713Z" fill="#6F63E3"/>
        <path d="M569.185 69.4196H580.043V187.998H569.185V69.4196Z" fill="#6F63E3"/>
        <path d="M568.185 105.909H557.327V187.998H568.185V105.909Z" fill="#6F63E3"/>
        <path d="M545.469 116.523H556.327V188H545.469V116.523Z" fill="#6F63E3"/>
        <path d="M544.469 101.137H533.611V188H544.469V101.137Z" fill="#6F63E3"/>
        <path d="M521.754 113.108H532.612V188H521.754V113.108Z" fill="#6F63E3"/>
        <path d="M520.754 89.2083H509.896V188H520.754V89.2083Z" fill="#6F63E3"/>
        <path d="M498.036 91.9434H508.894V188H498.036V91.9434Z" fill="#6F63E3"/>
        <path d="M497.037 102.803H486.179V188H497.037V102.803Z" fill="#6F63E3"/>
        <path d="M474.321 122.179H485.179V188H474.321V122.179Z" fill="#6F63E3"/>
        <path d="M473.321 107.513H462.464V188H473.321V107.513Z" fill="#6F63E3"/>
        <path d="M450.605 106.485H461.463V187.998H450.605V106.485Z" fill="#6F63E3"/>
        <path d="M449.606 102.412H438.748V187.998H449.606V102.412Z" fill="#6F63E3"/>
        <path d="M426.888 99.0604H437.746V188H426.888V99.0604Z" fill="#6F63E3"/>
        <path d="M425.888 99.2236H415.031V187.998H425.888V99.2236Z" fill="#6F63E3"/>
        <path d="M403.172 97.2293H414.03V188H403.172V97.2293Z" fill="#6F63E3"/>
        <path d="M402.173 90.5231H391.315V187.998H402.173V90.5231Z" fill="#6F63E3"/>
        <path d="M379.457 94.6171H390.315V188H379.457V94.6171Z" fill="#6F63E3"/>
        <path d="M378.457 99.8205H367.599V187.998H378.457V99.8205Z" fill="#6F63E3"/>
        <path d="M355.742 97.024H366.599V188H355.742V97.024Z" fill="#6F63E3"/>
        <path d="M354.74 107.473H343.882V188H354.74V107.473Z" fill="#6F63E3"/>
        <path d="M332.024 109.878H342.882V187.998H332.024V109.878Z" fill="#6F63E3"/>
        <path d="M331.024 90.9338H320.166V187.998H331.024V90.9338Z" fill="#6F63E3"/>
        <path d="M308.309 125.471H319.167V188H308.309V125.471Z" fill="#6F63E3"/>
        <path d="M307.309 126.786H296.451V187.998H307.309V126.786Z" fill="#6F63E3"/>
        <path d="M284.593 98.8128H295.451V188H284.593V98.8128Z" fill="#6F63E3"/>
        <path d="M283.593 113.273H272.736V188H283.593V113.273Z" fill="#6F63E3"/>
        <path d="M260.876 69.8304H271.734V187.998H260.876V69.8304Z" fill="#6F63E3"/>
        <path d="M259.876 108.316H249.018V188H259.876V108.316Z" fill="#6F63E3"/>
        <path d="M237.16 97.8263H248.018V188H237.16V97.8263Z" fill="#6F63E3"/>
        <path d="M236.16 104.552H225.303V188H236.16V104.552Z" fill="#6F63E3"/>
        <path d="M213.445 129.749H224.303V188H213.445V129.749Z" fill="#6F63E3"/>
        <path d="M212.445 127.198H201.587V188H212.445V127.198Z" fill="#6F63E3"/>
        <path d="M189.73 102.678H200.587V187.998H189.73V102.678Z" fill="#6F63E3"/>
        <path d="M188.728 113.005H177.87V187.998H188.728V113.005Z" fill="#6F63E3"/>
        <path d="M166.012 99.4097H176.87V188H166.012V99.4097Z" fill="#6F63E3"/>
        <path d="M165.012 123.043H154.154V188H165.012V123.043Z" fill="#6F63E3"/>
        <path d="M142.297 117.632H153.154V187.998H142.297V117.632Z" fill="#6F63E3"/>
        <path d="M141.297 122.507H130.439V187.998H141.297V122.507Z" fill="#6F63E3"/>
        <path d="M118.581 117.901H129.439V188H118.581V117.901Z" fill="#6F63E3"/>
        <path d="M117.581 115.081H106.724V187.998H117.581V115.081Z" fill="#6F63E3"/>
        <path d="M94.8636 150.482H105.721V188H94.8636V150.482Z" fill="#6F63E3"/>
        <path d="M93.8639 137.173H83.0061V187.998H93.8639V137.173Z" fill="#6F63E3"/>
        <path d="M71.1481 127.939H82.0059V188H71.1481V127.939Z" fill="#6F63E3"/>
        <path d="M70.1483 101.732H59.2905V187.998H70.1483V101.732Z" fill="#6F63E3"/>
        <path d="M47.4325 134.953H58.2902V188H47.4325V134.953Z" fill="#6F63E3"/>
        <path d="M46.4327 150.173H35.575V188H46.4327V150.173Z" fill="#6F63E3"/>
        <path d="M23.7151 138.45H34.5729V188H23.7151V138.45Z" fill="#6F63E3"/>
        <path d="M22.7153 156.405H11.8575V187.998H22.7153V156.405Z" fill="#6F63E3"/>
        <path d="M0.00012207 161.219H10.8578V188H0.00012207V161.219Z" fill="#6F63E3"/>
    </g>
</svg>
