<svg width="375" height="553" viewBox="0 0 375 553" fill="none" xmlns="http://www.w3.org/2000/svg">
    <g opacity="0.2">
        <path d="M362.944 0H357.425V552.994H362.944V0Z" fill="#6F63E3"/>
        <path d="M369.481 31.8875H375V553H369.481V31.8875Z" fill="#6F63E3"/>
        <path d="M363.453 67.343H368.972V553H363.453V67.343Z" fill="#6F63E3"/>
        <path d="M351.398 16.2768H356.917V553H351.398V16.2768Z" fill="#6F63E3"/>
        <path d="M350.888 70.9733H345.369V553H350.888V70.9733Z" fill="#6F63E3"/>
        <path d="M339.341 64.6161H344.861V552.994H339.341V64.6161Z" fill="#6F63E3"/>
        <path d="M338.833 142.184H333.313V553H338.833V142.184Z" fill="#6F63E3"/>
        <path d="M327.286 16.2768H332.805V553H327.286V16.2768Z" fill="#6F63E3"/>
        <path d="M326.777 27.3482H321.258V553H326.777V27.3482Z" fill="#6F63E3"/>
        <path d="M315.23 139.824H320.75V553H315.23V139.824Z" fill="#6F63E3"/>
        <path d="M314.721 65.3444H309.202V553H314.721V65.3444Z" fill="#6F63E3"/>
        <path d="M303.174 122.762H308.693V553H303.174V122.762Z" fill="#6F63E3"/>
        <path d="M302.666 41.5643H297.147V552.994H302.666V41.5643Z" fill="#6F63E3"/>
        <path d="M291.119 17.7899H296.638V553H291.119V17.7899Z" fill="#6F63E3"/>
        <path d="M290.61 51.3654H285.091V552.994H290.61V51.3654Z" fill="#6F63E3"/>
        <path d="M279.063 117.681H284.583V553H279.063V117.681Z" fill="#6F63E3"/>
        <path d="M278.555 55.3006H273.036V553H278.555V55.3006Z" fill="#6F63E3"/>
        <path d="M267.007 127.719H272.526V552.994H267.007V127.719Z" fill="#6F63E3"/>
        <path d="M266.499 140.004H260.979V553H266.499V140.004Z" fill="#6F63E3"/>
        <path d="M254.952 71.2104H260.471V552.994H254.952V71.2104Z" fill="#6F63E3"/>
        <path d="M254.443 103.341H248.924V553H254.443V103.341Z" fill="#6F63E3"/>
        <path d="M242.896 144.12H248.416V553H242.896V144.12Z" fill="#6F63E3"/>
        <path d="M242.388 59.6535H236.868V552.994H242.388V59.6535Z" fill="#6F63E3"/>
        <path d="M230.841 97.2319H236.36V553H230.841V97.2319Z" fill="#6F63E3"/>
        <path d="M230.332 132.987H224.812V553H230.332V132.987Z" fill="#6F63E3"/>
        <path d="M218.785 112.78H224.304V553H218.785V112.78Z" fill="#6F63E3"/>
        <path d="M218.276 157.309H212.757V553H218.276V157.309Z" fill="#6F63E3"/>
        <path d="M206.729 63.6507H212.249V553H206.729V63.6507Z" fill="#6F63E3"/>
        <path d="M206.221 130.565H200.702V552.994H206.221V130.565Z" fill="#6F63E3"/>
        <path d="M194.674 167.048H200.193V552.994H194.674V167.048Z" fill="#6F63E3"/>
        <path d="M194.166 215.573H188.646V553H194.166V215.573Z" fill="#6F63E3"/>
        <path d="M182.617 158.398H188.137V553H182.617V158.398Z" fill="#6F63E3"/>
        <path d="M182.109 191.189H176.59V552.994H182.109V191.189Z" fill="#6F63E3"/>
        <path d="M170.562 125.303H176.081V553H170.562V125.303Z" fill="#6F63E3"/>
        <path d="M170.054 149.743H164.534V552.994H170.054V149.743Z" fill="#6F63E3"/>
        <path d="M158.507 204.745H164.026V553H158.507V204.745Z" fill="#6F63E3"/>
        <path d="M157.998 101.647H152.479V553H157.998V101.647Z" fill="#6F63E3"/>
        <path d="M146.45 127.9H151.97V552.994H146.45V127.9Z" fill="#6F63E3"/>
        <path d="M145.942 202.746H140.423V553H145.942V202.746Z" fill="#6F63E3"/>
        <path d="M134.395 139.519H139.914V552.994H134.395V139.519Z" fill="#6F63E3"/>
        <path d="M133.887 167.228H128.367V552.994H133.887V167.228Z" fill="#6F63E3"/>
        <path d="M122.34 226.521H127.859V552.994H122.34V226.521Z" fill="#6F63E3"/>
        <path d="M121.831 166.201H116.312V552.994H121.831V166.201Z" fill="#6F63E3"/>
        <path d="M110.284 113.385H115.804V553H110.284V113.385Z" fill="#6F63E3"/>
        <path d="M109.775 176.612H104.255V553H109.775V176.612Z" fill="#6F63E3"/>
        <path d="M98.2279 205.287H103.747V553H98.2279V205.287Z" fill="#6F63E3"/>
        <path d="M97.7197 107.27H92.2003V552.994H97.7197V107.27Z" fill="#6F63E3"/>
        <path d="M86.1725 166.02H91.6918V552.994H86.1725V166.02Z" fill="#6F63E3"/>
        <path d="M85.6642 124.151H80.1449V552.994H85.6642V124.151Z" fill="#6F63E3"/>
        <path d="M74.117 151.861H79.6364V552.994H74.117V151.861Z" fill="#6F63E3"/>
        <path d="M73.6088 227.068H68.0895V553H73.6088V227.068Z" fill="#6F63E3"/>
        <path d="M62.0607 230.394H67.5801V552.994H62.0607V230.394Z" fill="#6F63E3"/>
        <path d="M61.5525 244.672H56.0331V552.994H61.5525V244.672Z" fill="#6F63E3"/>
        <path d="M50.0056 249.759H55.5249V553H50.0056V249.759Z" fill="#6F63E3"/>
        <path d="M49.4971 211.158H43.9777V553H49.4971V211.158Z" fill="#6F63E3"/>
        <path d="M37.9501 250.543H43.4695V553H37.9501V250.543Z" fill="#6F63E3"/>
        <path d="M37.4416 81.3164H31.9223V553H37.4416V81.3164Z" fill="#6F63E3"/>
        <path d="M25.8947 268.452H31.4141V553H25.8947V268.452Z" fill="#6F63E3"/>
        <path d="M25.3853 241.104H19.866V552.994H25.3853V241.104Z" fill="#6F63E3"/>
        <path d="M13.8384 188.344H19.3577V552.994H13.8384V188.344Z" fill="#6F63E3"/>
        <path d="M13.3302 213.513H7.81082V552.994H13.3302V213.513Z" fill="#6F63E3"/>
        <path d="M1.78296 277.163H7.30231V552.994H1.78296V277.163Z" fill="#6F63E3"/>
        <path d="M1.27475 252.175H-4.2446V552.994H1.27475V252.175Z" fill="#6F63E3"/>
        <path d="M-10.2725 293.982H-4.75311V552.994H-10.2725V293.982Z" fill="#6F63E3"/>
        <path d="M-10.7807 90.632H-16.3V552.994H-10.7807V90.632Z" fill="#6F63E3"/>
        <path d="M-22.3288 250.425H-16.8094V553H-22.3288V250.425Z" fill="#6F63E3"/>
        <path d="M-22.837 233.058H-28.3564V553H-22.837V233.058Z" fill="#6F63E3"/>
        <path d="M-34.3842 232.635H-28.8649V553H-34.3842V232.635Z" fill="#6F63E3"/>
        <path d="M-34.8925 238.868H-40.4118V553H-34.8925V238.868Z" fill="#6F63E3"/>
        <path d="M-46.4394 200.81H-40.92V553H-46.4394V200.81Z" fill="#6F63E3"/>
        <path d="M-46.9479 204.016H-52.4672V553H-46.9479V204.016Z" fill="#6F63E3"/>
        <path d="M-58.4957 182.658H-52.9763V552.994H-58.4957V182.658Z" fill="#6F63E3"/>
        <path d="M-59.0042 249.996H-64.5236V552.994H-59.0042V249.996Z" fill="#6F63E3"/>
        <path d="M-70.5511 163.542H-65.0318V553H-70.5511V163.542Z" fill="#6F63E3"/>
        <path d="M-71.0596 306.567H-76.579V552.994H-71.0596V306.567Z" fill="#6F63E3"/>
        <path d="M-82.6066 161.848H-77.0872V553H-82.6066V161.848Z" fill="#6F63E3"/>
        <path d="M-83.1148 194.153H-88.6341V552.994H-83.1148V194.153Z" fill="#6F63E3"/>
        <path d="M-94.6617 262.704H-89.1423V553H-94.6617V262.704Z" fill="#6F63E3"/>
        <path d="M-95.1711 317.762H-100.69V553H-95.1711V317.762Z" fill="#6F63E3"/>
        <path d="M-106.718 280.675H-101.199V553H-106.718V280.675Z" fill="#6F63E3"/>
        <path d="M-107.227 255.32H-112.746V552.994H-107.227V255.32Z" fill="#6F63E3"/>
        <path d="M-118.773 302.936H-113.254V552.994H-118.773V302.936Z" fill="#6F63E3"/>
        <path d="M-119.282 215.031H-124.801V553H-119.282V215.031Z" fill="#6F63E3"/>
        <path d="M-130.829 203.655H-125.31V553H-130.829V203.655Z" fill="#6F63E3"/>
        <path d="M-131.337 289.691H-136.856V553H-131.337V289.691Z" fill="#6F63E3"/>
        <path d="M-142.885 264.037H-137.366V553H-142.885V264.037Z" fill="#6F63E3"/>
        <path d="M-143.394 276.864H-148.913V553H-143.394V276.864Z" fill="#6F63E3"/>
        <path d="M-154.941 250.12H-149.421V553H-154.941V250.12Z" fill="#6F63E3"/>
        <path d="M-155.449 196.575H-160.968V553H-155.449V196.575Z" fill="#6F63E3"/>
        <path d="M-166.996 281.398H-161.477V552.994H-166.996V281.398Z" fill="#6F63E3"/>
        <path d="M-167.504 279.648H-173.024V553H-167.504V279.648Z" fill="#6F63E3"/>
        <path d="M-179.051 312.619H-173.532V553H-179.051V312.619Z" fill="#6F63E3"/>
        <path d="M-179.561 314.437H-185.08V553H-179.561V314.437Z" fill="#6F63E3"/>
        <path d="M-191.108 242.013H-185.589V553H-191.108V242.013Z" fill="#6F63E3"/>
        <path d="M-191.616 325.266H-197.135V553H-191.616V325.266Z" fill="#6F63E3"/>
        <path d="M-203.163 187.254H-197.644V552.994H-203.163V187.254Z" fill="#6F63E3"/>
        <path d="M-203.672 347.589H-209.191V552.994H-203.672V347.589Z" fill="#6F63E3"/>
        <path d="M-215.218 251.633H-209.699V553H-215.218V251.633Z" fill="#6F63E3"/>
        <path d="M-215.727 260.282H-221.246V552.994H-215.727V260.282Z" fill="#6F63E3"/>
        <path d="M-227.275 245.101H-221.755V553H-227.275V245.101Z" fill="#6F63E3"/>
        <path d="M-227.783 327.078H-233.303V552.994H-227.783V327.078Z" fill="#6F63E3"/>
        <path d="M-239.33 276.136H-233.811V553H-239.33V276.136Z" fill="#6F63E3"/>
        <path d="M-239.838 300.215H-245.358V552.994H-239.838V300.215Z" fill="#6F63E3"/>
        <path d="M-251.386 296.89H-245.866V553H-251.386V296.89Z" fill="#6F63E3"/>
        <path d="M-251.894 223.077H-257.413V553H-251.894V223.077Z" fill="#6F63E3"/>
        <path d="M-263.442 339.662H-257.923V552.994H-263.442V339.662Z" fill="#6F63E3"/>
        <path d="M-263.95 285.09H-269.469V552.994H-263.95V285.09Z" fill="#6F63E3"/>
        <path d="M-275.497 323.448H-269.978V552.994H-275.497V323.448Z" fill="#6F63E3"/>
        <path d="M-276.006 255.263H-281.525V553H-276.006V255.263Z" fill="#6F63E3"/>
        <path d="M-287.553 295.676H-282.033V552.994H-287.553V295.676Z" fill="#6F63E3"/>
        <path d="M-288.061 273.415H-293.58V553H-288.061V273.415Z" fill="#6F63E3"/>
        <path d="M-299.608 326.231H-294.089V552.994H-299.608V326.231Z" fill="#6F63E3"/>
        <path d="M-300.117 337.427H-305.637V553H-300.117V337.427Z" fill="#6F63E3"/>
        <path d="M-311.664 204.197H-306.145V552.994H-311.664V204.197Z" fill="#6F63E3"/>
        <path d="M-312.173 311.529H-317.692V552.994H-312.173V311.529Z" fill="#6F63E3"/>
        <path d="M-323.72 342.751H-318.2V553H-323.72V342.751Z" fill="#6F63E3"/>
        <path d="M-324.228 297.494H-329.748V553H-324.228V297.494Z" fill="#6F63E3"/>
        <path d="M-335.775 332.707H-330.256V553H-335.775V332.707Z" fill="#6F63E3"/>
        <path d="M-336.283 262.405H-341.803V553H-336.283V262.405Z" fill="#6F63E3"/>
        <path d="M-347.831 270.451H-342.312V553H-347.831V270.451Z" fill="#6F63E3"/>
        <path d="M-348.34 302.394H-353.859V553H-348.34V302.394Z" fill="#6F63E3"/>
        <path d="M-359.887 359.389H-354.367V553H-359.887V359.389Z" fill="#6F63E3"/>
        <path d="M-360.395 316.249H-365.914V553H-360.395V316.249Z" fill="#6F63E3"/>
        <path d="M-371.942 313.223H-366.423V552.994H-371.942V313.223Z" fill="#6F63E3"/>
        <path d="M-372.451 301.243H-377.97V552.994H-372.451V301.243Z" fill="#6F63E3"/>
        <path d="M-383.999 291.385H-378.479V553H-383.999V291.385Z" fill="#6F63E3"/>
        <path d="M-384.507 291.865H-390.026V552.994H-384.507V291.865Z" fill="#6F63E3"/>
        <path d="M-396.054 285.999H-390.535V553H-396.054V285.999Z" fill="#6F63E3"/>
        <path d="M-396.562 266.273H-402.082V552.994H-396.562V266.273Z" fill="#6F63E3"/>
        <path d="M-408.109 278.315H-402.59V553H-408.109V278.315Z" fill="#6F63E3"/>
        <path d="M-408.618 293.621H-414.137V552.994H-408.618V293.621Z" fill="#6F63E3"/>
        <path d="M-420.165 285.395H-414.645V553H-420.165V285.395Z" fill="#6F63E3"/>
        <path d="M-420.674 316.131H-426.193V553H-420.674V316.131Z" fill="#6F63E3"/>
        <path d="M-432.221 323.205H-426.702V552.994H-432.221V323.205Z" fill="#6F63E3"/>
        <path d="M-432.729 267.481H-438.249V552.994H-432.729V267.481Z" fill="#6F63E3"/>
        <path d="M-444.276 369.071H-438.757V553H-444.276V369.071Z" fill="#6F63E3"/>
        <path d="M-444.785 372.939H-450.304V552.994H-444.785V372.939Z" fill="#6F63E3"/>
        <path d="M-456.332 290.657H-450.812V553H-456.332V290.657Z" fill="#6F63E3"/>
        <path d="M-456.84 333.192H-462.359V553H-456.84V333.192Z" fill="#6F63E3"/>
        <path d="M-468.388 205.405H-462.869V552.994H-468.388V205.405Z" fill="#6F63E3"/>
        <path d="M-468.896 318.609H-474.416V553H-468.896V318.609Z" fill="#6F63E3"/>
        <path d="M-480.444 287.755H-474.924V553H-480.444V287.755Z" fill="#6F63E3"/>
        <path d="M-480.952 307.538H-486.471V553H-480.952V307.538Z" fill="#6F63E3"/>
        <path d="M-492.499 381.656H-486.979V553H-492.499V381.656Z" fill="#6F63E3"/>
        <path d="M-493.007 374.152H-498.527V553H-493.007V374.152Z" fill="#6F63E3"/>
        <path d="M-504.554 302.027H-499.035V552.994H-504.554V302.027Z" fill="#6F63E3"/>
        <path d="M-505.064 332.402H-510.583V552.994H-505.064V332.402Z" fill="#6F63E3"/>
        <path d="M-516.61 292.413H-511.091V553H-516.61V292.413Z" fill="#6F63E3"/>
        <path d="M-517.119 361.929H-522.638V553H-517.119V361.929Z" fill="#6F63E3"/>
        <path d="M-528.666 346.014H-523.147V552.994H-528.666V346.014Z" fill="#6F63E3"/>
        <path d="M-529.174 360.354H-534.693V552.994H-529.174V360.354Z" fill="#6F63E3"/>
        <path d="M-540.721 346.804H-535.202V553H-540.721V346.804Z" fill="#6F63E3"/>
        <path d="M-541.23 338.511H-546.749V552.994H-541.23V338.511Z" fill="#6F63E3"/>
        <path d="M-552.778 442.642H-547.258V553H-552.778V442.642Z" fill="#6F63E3"/>
        <path d="M-553.286 403.494H-558.805V552.994H-553.286V403.494Z" fill="#6F63E3"/>
        <path d="M-564.833 376.332H-559.314V553H-564.833V376.332Z" fill="#6F63E3"/>
        <path d="M-565.341 299.244H-570.861V552.994H-565.341V299.244Z" fill="#6F63E3"/>
        <path d="M-576.889 396.962H-571.369V553H-576.889V396.962Z" fill="#6F63E3"/>
        <path d="M-577.397 441.733H-582.916V553H-577.397V441.733Z" fill="#6F63E3"/>
        <path d="M-588.945 407.248H-583.426V553H-588.945V407.248Z" fill="#6F63E3"/>
        <path d="M-589.453 460.065H-594.972V552.994H-589.453V460.065Z" fill="#6F63E3"/>
        <path d="M-601 474.224H-595.481V553H-601V474.224Z" fill="#6F63E3"/>
    </g>
</svg>
