<svg width="444" height="799" viewBox="0 0 444 799" fill="none" xmlns="http://www.w3.org/2000/svg">
    <path d="M399.5 798C619.585 798 798 619.585 798 399.5C798 179.415 619.585 1 399.5 1C179.415 1 1 179.415 1 399.5C1 619.585 179.415 798 399.5 798Z" stroke="#4136F1" stroke-opacity="0.4" stroke-miterlimit="10"/>
    <path d="M399.5 753.722C595.131 753.722 753.722 595.132 753.722 399.5C753.722 203.869 595.131 45.278 399.5 45.278C203.868 45.278 45.2777 203.869 45.2777 399.5C45.2777 595.132 203.868 753.722 399.5 753.722Z" stroke="#4136F1" stroke-opacity="0.4" stroke-miterlimit="10"/>
    <path d="M399.5 709.444C570.678 709.444 709.444 570.678 709.444 399.5C709.444 228.322 570.678 89.5555 399.5 89.5555C228.322 89.5555 89.5555 228.322 89.5555 399.5C89.5555 570.678 228.322 709.444 399.5 709.444Z" stroke="#4136F1" stroke-opacity="0.4" stroke-miterlimit="10"/>
    <path d="M399.5 665.167C546.224 665.167 665.167 546.224 665.167 399.5C665.167 252.777 546.224 133.833 399.5 133.833C252.776 133.833 133.833 252.777 133.833 399.5C133.833 546.224 252.776 665.167 399.5 665.167Z" stroke="#4136F1" stroke-opacity="0.4" stroke-miterlimit="10"/>
    <path d="M399.5 620.889C521.77 620.889 620.889 521.77 620.889 399.5C620.889 277.23 521.77 178.111 399.5 178.111C277.23 178.111 178.111 277.23 178.111 399.5C178.111 521.77 277.23 620.889 399.5 620.889Z" stroke="#4136F1" stroke-opacity="0.4" stroke-miterlimit="10"/>
    <path d="M399.5 576.611C497.316 576.611 576.611 497.316 576.611 399.5C576.611 301.684 497.316 222.389 399.5 222.389C301.684 222.389 222.389 301.684 222.389 399.5C222.389 497.316 301.684 576.611 399.5 576.611Z" stroke="#4136F1" stroke-opacity="0.4" stroke-miterlimit="10"/>
    <path d="M399.5 532.333C472.862 532.333 532.333 472.862 532.333 399.5C532.333 326.138 472.862 266.667 399.5 266.667C326.138 266.667 266.667 326.138 266.667 399.5C266.667 472.862 326.138 532.333 399.5 532.333Z" stroke="#4136F1" stroke-opacity="0.4" stroke-miterlimit="10"/>
    <path d="M399.5 488.056C448.408 488.056 488.056 448.408 488.056 399.5C488.056 350.592 448.408 310.944 399.5 310.944C350.592 310.944 310.944 350.592 310.944 399.5C310.944 448.408 350.592 488.056 399.5 488.056Z" stroke="#4136F1" stroke-opacity="0.4" stroke-miterlimit="10"/>
    <path d="M399.5 443.778C423.954 443.778 443.778 423.954 443.778 399.5C443.778 375.046 423.954 355.222 399.5 355.222C375.046 355.222 355.222 375.046 355.222 399.5C355.222 423.954 375.046 443.778 399.5 443.778Z" stroke="#4136F1" stroke-opacity="0.4" stroke-miterlimit="10"/>
</svg>
