<svg width="587" height="587" viewBox="0 0 587 587" fill="none" xmlns="http://www.w3.org/2000/svg">
    <path d="M210.281 327.274L293.48 293.481L327.273 376.679L244.074 410.473C221.195 419.766 210.079 446.089 219.372 468.969L136.173 502.762C108.106 433.661 141.411 355.247 210.281 327.274Z" stroke="#0075FF" stroke-opacity="0.5" stroke-miterlimit="10"/>
    <path d="M253.165 552.168L169.966 585.961L136.173 502.762L219.372 468.969C242.252 459.676 253.368 433.352 244.075 410.473L327.274 376.679C355.247 445.55 322.035 524.194 253.165 552.168Z" stroke="#0075FF" stroke-opacity="0.5" stroke-miterlimit="10"/>
    <path d="M259.687 210.282L293.48 293.48L210.281 327.274L176.488 244.075C167.195 221.195 140.872 210.079 117.992 219.372L84.1987 136.173C153.069 108.2 231.62 141.18 259.687 210.282Z" stroke="#0075FF" stroke-opacity="0.5" stroke-miterlimit="10"/>
    <path d="M34.7932 253.165L1 169.966L84.1989 136.173L117.992 219.372C127.285 242.252 153.609 253.368 176.488 244.075L210.281 327.274C141.411 355.247 62.7665 322.035 34.7932 253.165Z" stroke="#0075FF" stroke-opacity="0.5" stroke-miterlimit="10"/>
    <path d="M376.679 259.687L293.48 293.481L259.687 210.282L342.886 176.489C365.766 167.195 376.882 140.872 367.589 117.993L450.788 84.1993C478.761 153.069 445.549 231.714 376.679 259.687Z" stroke="#0075FF" stroke-opacity="0.5" stroke-miterlimit="10"/>
    <path d="M333.795 34.7933L416.994 1.00005L450.788 84.1989L367.589 117.992C344.709 127.285 333.593 153.609 342.886 176.488L259.687 210.281C231.62 141.18 264.925 62.7666 333.795 34.7933Z" stroke="#0075FF" stroke-opacity="0.5" stroke-miterlimit="10"/>
    <path d="M327.274 376.679L293.48 293.48L376.679 259.687L410.473 342.886C419.766 365.766 446.089 376.882 468.969 367.589L502.762 450.788C433.892 478.761 355.247 445.55 327.274 376.679Z" stroke="#0075FF" stroke-opacity="0.5" stroke-miterlimit="10"/>
    <path d="M552.167 333.796L585.961 416.995L502.762 450.788L468.969 367.589C459.675 344.709 433.352 333.593 410.472 342.886L376.679 259.687C445.549 231.714 524.1 264.694 552.167 333.796Z" stroke="#0075FF" stroke-opacity="0.5" stroke-miterlimit="10"/>
</svg>
