<svg width="32" height="32" viewBox="0 0 32 32" fill="none" xmlns="http://www.w3.org/2000/svg">
    <path fill-rule="evenodd" clip-rule="evenodd" d="M14.2726 4.69205C13.3788 4.69205 12.6184 5.31315 12.405 6.15027H19.5819C19.3684 5.31315 18.6081 4.69205 17.7143 4.69205H14.2726ZM21.6096 6.15027H24.2509C27.0523 6.15027 29.3334 8.45912 29.3334 11.2946C29.3334 11.2946 29.2534 12.4949 29.2267 14.1664C29.224 14.2988 29.16 14.4284 29.0546 14.5067C28.413 14.9806 27.826 15.3722 27.7726 15.3992C25.5582 16.8844 22.9849 17.9295 20.2435 18.4493C20.0648 18.4844 19.8887 18.3912 19.798 18.2319C19.0296 16.9006 17.5942 16.0338 15.9934 16.0338C14.4033 16.0338 12.9546 16.8911 12.1635 18.2238C12.0715 18.3804 11.898 18.4709 11.7206 18.4371C9.00192 17.916 6.42863 16.8722 4.22753 15.4127L2.94689 14.5215C2.84017 14.454 2.77347 14.3325 2.77347 14.1975C2.73345 13.5089 2.66675 11.2946 2.66675 11.2946C2.66675 8.45912 4.94789 6.15027 7.74929 6.15027H10.3773C10.6307 4.19248 12.2716 2.66675 14.2726 2.66675H17.7143C19.7153 2.66675 21.3561 4.19248 21.6096 6.15027ZM28.8799 17.0871L28.8265 17.1141C26.1318 18.9233 22.8902 20.125 19.4885 20.6246C19.0083 20.6921 18.528 20.3816 18.3946 19.8955C18.1011 18.7883 17.154 18.0592 16.0201 18.0592H16.0068H15.9801C14.8462 18.0592 13.899 18.7883 13.6056 19.8955C13.4722 20.3816 12.9919 20.6921 12.5117 20.6246C9.10997 20.125 5.86835 18.9233 3.17367 17.1141C3.16033 17.1006 3.02693 17.0196 2.92021 17.0871C2.80015 17.1546 2.80015 17.3166 2.80015 17.3166L2.89353 24.2026C2.89353 27.0381 5.16133 29.3334 7.96273 29.3334H24.0241C26.8255 29.3334 29.0933 27.0381 29.0933 24.2026L29.2 17.3166C29.2 17.3166 29.2 17.1546 29.08 17.0871C29.0133 17.0466 28.9332 17.0601 28.8799 17.0871ZM16.9939 22.7444C16.9939 23.3115 16.5537 23.7571 15.9934 23.7571C15.4465 23.7571 14.9929 23.3115 14.9929 22.7444V21.0027C14.9929 20.4491 15.4465 19.99 15.9934 19.99C16.5537 19.99 16.9939 20.4491 16.9939 21.0027V22.7444Z" fill="#8C30F5"/>
</svg>
