<svg width="32" height="32" viewBox="0 0 32 32" fill="none" xmlns="http://www.w3.org/2000/svg">
    <path fill-rule="evenodd" clip-rule="evenodd" d="M10.0617 4.37057C10.2832 4.53052 10.6406 4.89793 10.6406 4.89793C12.0278 6.19811 14.1172 9.43192 14.7882 11.0726C14.8023 11.0726 15.2002 12.0481 15.2158 12.5121V12.5739C15.2158 13.2849 14.8179 13.9501 14.1781 14.2906C13.9143 14.4309 13.2728 14.5615 12.9633 14.6245C12.8608 14.6453 12.7947 14.6588 12.7909 14.6627C11.8764 14.8021 10.4736 14.8939 8.93346 14.8939C7.31684 14.8939 5.85316 14.8021 4.95279 14.631C4.93718 14.631 4.11483 14.4616 3.8402 14.3523C3.44384 14.1829 3.10835 13.8725 2.89457 13.4861C2.74165 13.1773 2.66675 12.851 2.66675 12.5121C2.68079 12.1558 2.91018 11.4907 3.01629 11.2278C3.68727 9.49368 5.8828 6.18227 7.22478 4.91377C7.36418 4.77229 7.52282 4.62408 7.63321 4.52095C7.69211 4.46593 7.73727 4.42374 7.75845 4.40225C8.09394 4.13936 8.5059 4 8.94906 4C9.34385 4 9.7402 4.12352 10.0617 4.37057ZM24.3049 13.549C24.3049 14.2474 23.7478 14.8128 23.0597 14.8128C22.3715 14.8128 21.8145 14.2474 21.8145 13.549L21.4712 7.44394C21.4712 6.55391 22.1827 5.83333 23.0597 5.83333C23.9366 5.83333 24.6466 6.55391 24.6466 7.44394L24.3049 13.549ZM28.16 17.6475C28.5563 17.8185 28.8918 18.1273 29.1056 18.5137C29.2585 18.8225 29.3334 19.1488 29.3334 19.4893C29.3194 19.844 29.09 20.5108 28.9823 20.7736C28.3129 22.5062 26.1158 25.8177 24.7754 27.0878C24.6383 27.2259 24.4826 27.3712 24.3725 27.4739L24.3724 27.474C24.3108 27.5315 24.2635 27.5756 24.2417 27.5977C23.9047 27.8606 23.4943 28 23.0527 28C22.6548 28 22.2584 27.8765 21.9385 27.6278C21.7169 27.4695 21.3596 27.1021 21.3596 27.1021C19.9708 25.8034 17.8829 22.568 17.212 20.9273C17.1963 20.9273 16.8 19.9533 16.7844 19.4893V19.4275C16.7844 18.7149 17.1807 18.0497 17.8221 17.7092C18.0853 17.5703 18.7248 17.4394 19.035 17.3759C19.1385 17.3547 19.2054 17.341 19.2093 17.3371C20.1237 17.1977 21.5266 17.1058 23.0667 17.1058C24.6833 17.1058 26.147 17.1977 27.0474 17.3687C27.0614 17.3687 27.8853 17.5382 28.16 17.6475ZM8.94079 17.1874C8.25264 17.1874 7.69556 17.7527 7.69556 18.4511L7.35227 24.5561C7.35227 25.4461 8.06382 26.1667 8.94079 26.1667C9.81775 26.1667 10.5278 25.4461 10.5278 24.5561L10.186 18.4511C10.186 17.7527 9.62894 17.1874 8.94079 17.1874Z" fill="#8C30F5"/>
</svg>
