<svg width="48" height="48" viewBox="0 0 48 48" fill="none" xmlns="http://www.w3.org/2000/svg">
    <path fill-rule="evenodd" clip-rule="evenodd" d="M4.5 3C5.32843 3 6 3.67157 6 4.5V42H43.5C44.3284 42 45 42.6716 45 43.5C45 44.3284 44.3284 45 43.5 45H4.5C3.67157 45 3 44.3284 3 43.5V4.5C3 3.67157 3.67157 3 4.5 3Z" fill="white"/>
    <path fill-rule="evenodd" clip-rule="evenodd" d="M44.0266 9.09542C44.8023 9.3863 45.1953 10.2509 44.9044 11.0266L38.1544 29.0266C37.9349 29.6121 37.3752 29.9999 36.7499 29.9999H29.3027L23.748 38.332C23.4987 38.7059 23.095 38.9483 22.6478 38.9926C22.2005 39.0369 21.7571 38.8783 21.4393 38.5606L17.1256 34.2469L11.4209 38.6839C10.7669 39.1926 9.82452 39.0748 9.31592 38.4208C8.80731 37.7669 8.92512 36.8245 9.57904 36.3159L16.329 31.0659C16.9262 30.6015 17.7757 30.6543 18.3106 31.1893L22.2668 35.1455L27.2519 27.6679C27.5301 27.2506 27.9984 26.9999 28.4999 26.9999H35.7104L42.0955 9.97323C42.3863 9.19755 43.2509 8.80454 44.0266 9.09542Z" fill="#5E3FEB"/>
</svg>
