<svg width="1600" height="2564" viewBox="0 0 1600 2564" fill="none" xmlns="http://www.w3.org/2000/svg">
    <path d="M-232 0C-232 0 352.914 62.2973 728 62.2973C1103.09 62.2973 1688 0 1688 0V2305C1688 2305 1103.09 2242.7 728 2242.7C352.914 2242.7 -232 2305 -232 2305L-232 0Z" fill="#7854F7"/>
    <circle cx="1569.56" cy="2559.64" r="3.52358" transform="rotate(-180 1569.56 2559.64)" fill="#70C217"/>
    <circle cx="1517.88" cy="2559.64" r="3.52358" transform="rotate(-180 1517.88 2559.64)" fill="#70C217"/>
    <circle cx="1466.2" cy="2559.64" r="3.52358" transform="rotate(-180 1466.2 2559.64)" fill="#70C217"/>
    <circle cx="1414.52" cy="2559.64" r="3.52358" transform="rotate(-180 1414.52 2559.64)" fill="#70C217"/>
    <circle cx="1569.56" cy="2507.96" r="3.52358" transform="rotate(-180 1569.56 2507.96)" fill="#70C217"/>
    <circle cx="1517.88" cy="2507.96" r="3.52358" transform="rotate(-180 1517.88 2507.96)" fill="#70C217"/>
    <circle cx="1466.2" cy="2507.96" r="3.52358" transform="rotate(-180 1466.2 2507.96)" fill="#70C217"/>
    <circle cx="1414.52" cy="2507.96" r="3.52358" transform="rotate(-180 1414.52 2507.96)" fill="#70C217"/>
    <circle cx="1569.56" cy="2456.28" r="3.52358" transform="rotate(-180 1569.56 2456.28)" fill="#70C217"/>
    <circle cx="1517.88" cy="2456.28" r="3.52358" transform="rotate(-180 1517.88 2456.28)" fill="#70C217"/>
    <circle cx="1466.2" cy="2456.28" r="3.52358" transform="rotate(-180 1466.2 2456.28)" fill="#70C217"/>
    <circle cx="1414.52" cy="2456.28" r="3.52358" transform="rotate(-180 1414.52 2456.28)" fill="#70C217"/>
    <circle cx="1569.56" cy="2404.6" r="3.52358" transform="rotate(-180 1569.56 2404.6)" fill="#70C217"/>
    <circle cx="1517.88" cy="2404.6" r="3.52358" transform="rotate(-180 1517.88 2404.6)" fill="#70C217"/>
    <circle cx="1466.2" cy="2404.6" r="3.52358" transform="rotate(-180 1466.2 2404.6)" fill="#70C217"/>
    <circle cx="1414.52" cy="2404.6" r="3.52358" transform="rotate(-180 1414.52 2404.6)" fill="#70C217"/>
    <circle cx="1569.56" cy="2352.92" r="3.52358" transform="rotate(-180 1569.56 2352.92)" fill="#70C217"/>
    <circle cx="1517.88" cy="2352.92" r="3.52358" transform="rotate(-180 1517.88 2352.92)" fill="#70C217"/>
    <circle cx="1466.2" cy="2352.92" r="3.52358" transform="rotate(-180 1466.2 2352.92)" fill="#70C217"/>
    <circle cx="1414.52" cy="2352.92" r="3.52358" transform="rotate(-180 1414.52 2352.92)" fill="#70C217"/>
    <circle cx="1569.56" cy="2301.24" r="3.52358" transform="rotate(-180 1569.56 2301.24)" fill="#70C217"/>
    <circle cx="1517.88" cy="2301.24" r="3.52358" transform="rotate(-180 1517.88 2301.24)" fill="#70C217"/>
    <circle cx="1466.2" cy="2301.24" r="3.52358" transform="rotate(-180 1466.2 2301.24)" fill="#70C217"/>
    <circle cx="1414.52" cy="2301.24" r="3.52358" transform="rotate(-180 1414.52 2301.24)" fill="#70C217"/>
    <circle cx="1569.56" cy="2249.56" r="3.52358" transform="rotate(-180 1569.56 2249.56)" fill="#70C217"/>
    <circle cx="1517.88" cy="2249.56" r="3.52358" transform="rotate(-180 1517.88 2249.56)" fill="#70C217"/>
    <circle cx="1466.2" cy="2249.56" r="3.52358" transform="rotate(-180 1466.2 2249.56)" fill="#70C217"/>
    <circle cx="1414.52" cy="2249.56" r="3.52358" transform="rotate(-180 1414.52 2249.56)" fill="#70C217"/>
    <circle cx="1569.56" cy="2197.88" r="3.52358" transform="rotate(-180 1569.56 2197.88)" fill="#70C217"/>
    <circle cx="1517.88" cy="2197.88" r="3.52358" transform="rotate(-180 1517.88 2197.88)" fill="#70C217"/>
    <circle cx="1466.2" cy="2197.88" r="3.52358" transform="rotate(-180 1466.2 2197.88)" fill="#70C217"/>
    <circle cx="1414.52" cy="2197.88" r="3.52358" transform="rotate(-180 1414.52 2197.88)" fill="#70C217"/>
    <circle cx="1569.56" cy="2146.2" r="3.52358" transform="rotate(-180 1569.56 2146.2)" fill="#70C217"/>
    <circle cx="1517.88" cy="2146.2" r="3.52358" transform="rotate(-180 1517.88 2146.2)" fill="#70C217"/>
    <circle cx="1466.2" cy="2146.2" r="3.52358" transform="rotate(-180 1466.2 2146.2)" fill="#70C217"/>
    <circle cx="1414.52" cy="2146.2" r="3.52358" transform="rotate(-180 1414.52 2146.2)" fill="#70C217"/>
    <circle cx="1569.56" cy="2094.52" r="3.52358" transform="rotate(-180 1569.56 2094.52)" fill="#70C217"/>
    <circle cx="1517.88" cy="2094.52" r="3.52358" transform="rotate(-180 1517.88 2094.52)" fill="#70C217"/>
    <circle cx="1466.2" cy="2094.52" r="3.52358" transform="rotate(-180 1466.2 2094.52)" fill="#70C217"/>
    <circle cx="1414.52" cy="2094.52" r="3.52358" transform="rotate(-180 1414.52 2094.52)" fill="#70C217"/>
    <circle cx="1056.52" cy="962.24" r="3.52358" transform="rotate(-90 1056.52 962.24)" fill="#70C217"/>
    <circle cx="1056.52" cy="910.561" r="3.52358" transform="rotate(-90 1056.52 910.561)" fill="#70C217"/>
    <circle cx="1056.52" cy="858.882" r="3.52358" transform="rotate(-90 1056.52 858.882)" fill="#70C217"/>
    <circle cx="1056.52" cy="807.203" r="3.52358" transform="rotate(-90 1056.52 807.203)" fill="#70C217"/>
    <circle cx="1056.52" cy="755.524" r="3.52358" transform="rotate(-90 1056.52 755.524)" fill="#70C217"/>
    <circle cx="1108.2" cy="962.241" r="3.52358" transform="rotate(-90 1108.2 962.241)" fill="#70C217"/>
    <circle cx="1108.2" cy="910.561" r="3.52358" transform="rotate(-90 1108.2 910.561)" fill="#70C217"/>
    <circle cx="1108.2" cy="858.882" r="3.52358" transform="rotate(-90 1108.2 858.882)" fill="#70C217"/>
    <circle cx="1108.2" cy="807.203" r="3.52358" transform="rotate(-90 1108.2 807.203)" fill="#70C217"/>
    <circle cx="1108.2" cy="755.524" r="3.52358" transform="rotate(-90 1108.2 755.524)" fill="#70C217"/>
    <circle cx="1159.88" cy="962.241" r="3.52358" transform="rotate(-90 1159.88 962.241)" fill="#70C217"/>
    <circle cx="1159.88" cy="910.561" r="3.52358" transform="rotate(-90 1159.88 910.561)" fill="#70C217"/>
    <circle cx="1159.88" cy="858.882" r="3.52358" transform="rotate(-90 1159.88 858.882)" fill="#70C217"/>
    <circle cx="1159.88" cy="807.203" r="3.52358" transform="rotate(-90 1159.88 807.203)" fill="#70C217"/>
    <circle cx="1159.88" cy="755.524" r="3.52358" transform="rotate(-90 1159.88 755.524)" fill="#70C217"/>
    <circle cx="1211.56" cy="962.241" r="3.52358" transform="rotate(-90 1211.56 962.241)" fill="#70C217"/>
    <circle cx="1211.56" cy="910.561" r="3.52358" transform="rotate(-90 1211.56 910.561)" fill="#70C217"/>
    <circle cx="1211.56" cy="858.882" r="3.52358" transform="rotate(-90 1211.56 858.882)" fill="#70C217"/>
    <circle cx="1211.56" cy="807.203" r="3.52358" transform="rotate(-90 1211.56 807.203)" fill="#70C217"/>
    <circle cx="1211.56" cy="755.524" r="3.52358" transform="rotate(-90 1211.56 755.524)" fill="#70C217"/>
    <circle cx="1263.24" cy="962.241" r="3.52358" transform="rotate(-90 1263.24 962.241)" fill="#70C217"/>
    <circle cx="1263.24" cy="910.561" r="3.52358" transform="rotate(-90 1263.24 910.561)" fill="#70C217"/>
    <circle cx="1263.24" cy="858.882" r="3.52358" transform="rotate(-90 1263.24 858.882)" fill="#70C217"/>
    <circle cx="1263.24" cy="807.203" r="3.52358" transform="rotate(-90 1263.24 807.203)" fill="#70C217"/>
    <circle cx="1263.24" cy="755.524" r="3.52358" transform="rotate(-90 1263.24 755.524)" fill="#70C217"/>
    <circle cx="1314.92" cy="962.241" r="3.52358" transform="rotate(-90 1314.92 962.241)" fill="#70C217"/>
    <circle cx="1314.92" cy="910.561" r="3.52358" transform="rotate(-90 1314.92 910.561)" fill="#70C217"/>
    <circle cx="1314.92" cy="858.882" r="3.52358" transform="rotate(-90 1314.92 858.882)" fill="#70C217"/>
    <circle cx="1314.92" cy="807.203" r="3.52358" transform="rotate(-90 1314.92 807.203)" fill="#70C217"/>
    <circle cx="1314.92" cy="755.524" r="3.52358" transform="rotate(-90 1314.92 755.524)" fill="#70C217"/>
    <circle cx="1366.6" cy="962.241" r="3.52358" transform="rotate(-90 1366.6 962.241)" fill="#70C217"/>
    <circle cx="1366.6" cy="910.561" r="3.52358" transform="rotate(-90 1366.6 910.561)" fill="#70C217"/>
    <circle cx="1366.6" cy="858.882" r="3.52358" transform="rotate(-90 1366.6 858.882)" fill="#70C217"/>
    <circle cx="1366.6" cy="807.203" r="3.52358" transform="rotate(-90 1366.6 807.203)" fill="#70C217"/>
    <circle cx="1366.6" cy="755.524" r="3.52358" transform="rotate(-90 1366.6 755.524)" fill="#70C217"/>
    <circle cx="1418.28" cy="962.241" r="3.52358" transform="rotate(-90 1418.28 962.241)" fill="#70C217"/>
    <circle cx="1418.28" cy="910.561" r="3.52358" transform="rotate(-90 1418.28 910.561)" fill="#70C217"/>
    <circle cx="1418.28" cy="858.882" r="3.52358" transform="rotate(-90 1418.28 858.882)" fill="#70C217"/>
    <circle cx="1418.28" cy="807.203" r="3.52358" transform="rotate(-90 1418.28 807.203)" fill="#70C217"/>
    <circle cx="1418.28" cy="755.524" r="3.52358" transform="rotate(-90 1418.28 755.524)" fill="#70C217"/>
    <circle cx="1469.96" cy="962.241" r="3.52358" transform="rotate(-90 1469.96 962.241)" fill="#70C217"/>
    <circle cx="1469.96" cy="910.561" r="3.52358" transform="rotate(-90 1469.96 910.561)" fill="#70C217"/>
    <circle cx="1469.96" cy="858.882" r="3.52358" transform="rotate(-90 1469.96 858.882)" fill="#70C217"/>
    <circle cx="1469.96" cy="807.203" r="3.52358" transform="rotate(-90 1469.96 807.203)" fill="#70C217"/>
    <circle cx="1469.96" cy="755.524" r="3.52358" transform="rotate(-90 1469.96 755.524)" fill="#70C217"/>
    <circle cx="1521.64" cy="962.241" r="3.52358" transform="rotate(-90 1521.64 962.241)" fill="#70C217"/>
    <circle cx="1521.64" cy="910.561" r="3.52358" transform="rotate(-90 1521.64 910.561)" fill="#70C217"/>
    <circle cx="1521.64" cy="858.882" r="3.52358" transform="rotate(-90 1521.64 858.882)" fill="#70C217"/>
    <circle cx="1521.64" cy="807.203" r="3.52358" transform="rotate(-90 1521.64 807.203)" fill="#70C217"/>
    <circle cx="1521.64" cy="755.524" r="3.52358" transform="rotate(-90 1521.64 755.524)" fill="#70C217"/>
    <circle cx="43.5612" cy="1836.24" r="3.52358" transform="rotate(-90 43.5612 1836.24)" fill="#70C217"/>
    <circle cx="43.5612" cy="1784.56" r="3.52358" transform="rotate(-90 43.5612 1784.56)" fill="#70C217"/>
    <circle cx="43.5612" cy="1732.88" r="3.52358" transform="rotate(-90 43.5612 1732.88)" fill="#70C217"/>
    <circle cx="43.5612" cy="1681.2" r="3.52358" transform="rotate(-90 43.5612 1681.2)" fill="#70C217"/>
    <circle cx="43.5612" cy="1629.52" r="3.52358" transform="rotate(-90 43.5612 1629.52)" fill="#70C217"/>
    <circle cx="95.2404" cy="1836.24" r="3.52358" transform="rotate(-90 95.2404 1836.24)" fill="#70C217"/>
    <circle cx="95.2404" cy="1784.56" r="3.52358" transform="rotate(-90 95.2404 1784.56)" fill="#70C217"/>
    <circle cx="95.2404" cy="1732.88" r="3.52358" transform="rotate(-90 95.2404 1732.88)" fill="#70C217"/>
    <circle cx="95.2404" cy="1681.2" r="3.52358" transform="rotate(-90 95.2404 1681.2)" fill="#70C217"/>
    <circle cx="95.2404" cy="1629.52" r="3.52358" transform="rotate(-90 95.2404 1629.52)" fill="#70C217"/>
    <circle cx="146.92" cy="1836.24" r="3.52358" transform="rotate(-90 146.92 1836.24)" fill="#70C217"/>
    <circle cx="146.92" cy="1784.56" r="3.52358" transform="rotate(-90 146.92 1784.56)" fill="#70C217"/>
    <circle cx="146.92" cy="1732.88" r="3.52358" transform="rotate(-90 146.92 1732.88)" fill="#70C217"/>
    <circle cx="146.92" cy="1681.2" r="3.52358" transform="rotate(-90 146.92 1681.2)" fill="#70C217"/>
    <circle cx="146.92" cy="1629.52" r="3.52358" transform="rotate(-90 146.92 1629.52)" fill="#70C217"/>
    <circle cx="198.599" cy="1836.24" r="3.52358" transform="rotate(-90 198.599 1836.24)" fill="#70C217"/>
    <circle cx="198.599" cy="1784.56" r="3.52358" transform="rotate(-90 198.599 1784.56)" fill="#70C217"/>
    <circle cx="198.599" cy="1732.88" r="3.52358" transform="rotate(-90 198.599 1732.88)" fill="#70C217"/>
    <circle cx="198.599" cy="1681.2" r="3.52358" transform="rotate(-90 198.599 1681.2)" fill="#70C217"/>
    <circle cx="198.599" cy="1629.52" r="3.52358" transform="rotate(-90 198.599 1629.52)" fill="#70C217"/>
    <circle cx="250.278" cy="1836.24" r="3.52358" transform="rotate(-90 250.278 1836.24)" fill="#70C217"/>
    <circle cx="250.278" cy="1784.56" r="3.52358" transform="rotate(-90 250.278 1784.56)" fill="#70C217"/>
    <circle cx="250.278" cy="1732.88" r="3.52358" transform="rotate(-90 250.278 1732.88)" fill="#70C217"/>
    <circle cx="250.278" cy="1681.2" r="3.52358" transform="rotate(-90 250.278 1681.2)" fill="#70C217"/>
    <circle cx="250.278" cy="1629.52" r="3.52358" transform="rotate(-90 250.278 1629.52)" fill="#70C217"/>
    <circle cx="301.957" cy="1836.24" r="3.52358" transform="rotate(-90 301.957 1836.24)" fill="#70C217"/>
    <circle cx="301.957" cy="1784.56" r="3.52358" transform="rotate(-90 301.957 1784.56)" fill="#70C217"/>
    <circle cx="301.957" cy="1732.88" r="3.52358" transform="rotate(-90 301.957 1732.88)" fill="#70C217"/>
    <circle cx="301.957" cy="1681.2" r="3.52358" transform="rotate(-90 301.957 1681.2)" fill="#70C217"/>
    <circle cx="301.957" cy="1629.52" r="3.52358" transform="rotate(-90 301.957 1629.52)" fill="#70C217"/>
    <circle cx="353.636" cy="1836.24" r="3.52358" transform="rotate(-90 353.636 1836.24)" fill="#70C217"/>
    <circle cx="353.636" cy="1784.56" r="3.52358" transform="rotate(-90 353.636 1784.56)" fill="#70C217"/>
    <circle cx="353.636" cy="1732.88" r="3.52358" transform="rotate(-90 353.636 1732.88)" fill="#70C217"/>
    <circle cx="353.636" cy="1681.2" r="3.52358" transform="rotate(-90 353.636 1681.2)" fill="#70C217"/>
    <circle cx="353.636" cy="1629.52" r="3.52358" transform="rotate(-90 353.636 1629.52)" fill="#70C217"/>
    <circle cx="205.5" cy="372.5" r="198" stroke="#FFBA49" stroke-width="5"/>
    <circle cx="205.5" cy="1291.5" r="198" stroke="#FFBA49" stroke-width="5"/>
    <circle cx="1340" cy="667" r="128.5" stroke="#FFBA49" stroke-width="5"/>
    <circle cx="1340" cy="2274" r="128.5" stroke="#FFBA49" stroke-width="5"/>
    <circle cx="17.5" cy="159.5" r="30" stroke="#FFBA49" stroke-width="5"/>
    <circle cx="17.5" cy="1078.5" r="30" stroke="#FFBA49" stroke-width="5"/>
</svg>
