<svg width="150" height="150" viewBox="0 0 150 150" fill="none" xmlns="http://www.w3.org/2000/svg">
    <path d="M150 114.72H0V114.795H150V114.72Z" fill="#EBEBEB"/>
    <path d="M34.5983 117.576H27.1373V117.651H34.5983V117.576Z" fill="#EBEBEB"/>
    <path d="M53.949 116.763H45.699V116.838H53.949V116.763Z" fill="#EBEBEB"/>
    <path d="M31.734 120.363H14.301V120.438H31.734V120.363Z" fill="#EBEBEB"/>
    <path d="M134.969 119.859H128.49V119.934H134.969V119.859Z" fill="#EBEBEB"/>
    <path d="M72.8166 117.342H64.4376V117.417H72.8166V117.342Z" fill="#EBEBEB"/>
    <path d="M111.267 118.593H90.201V118.668H111.267V118.593Z" fill="#EBEBEB"/>
    <path d="M71.0993 101.34H13.1723C12.7185 101.339 12.2836 101.158 11.963 100.837C11.6424 100.516 11.4623 100.081 11.4623 99.627V18.198C11.4663 17.7468 11.6481 17.3154 11.9683 16.9975C12.2884 16.6795 12.7211 16.5008 13.1723 16.5H71.0993C71.5537 16.5 71.9894 16.6805 72.3106 17.0017C72.6319 17.323 72.8123 17.7587 72.8123 18.213V99.627C72.8123 100.081 72.6319 100.517 72.3106 100.838C71.9894 101.16 71.5537 101.34 71.0993 101.34ZM13.1723 16.56C12.7384 16.5608 12.3226 16.7337 12.016 17.0408C11.7095 17.3479 11.5373 17.7641 11.5373 18.198V99.627C11.5373 100.061 11.7095 100.477 12.016 100.784C12.3226 101.091 12.7384 101.264 13.1723 101.265H71.0993C71.5335 101.264 71.9497 101.091 72.2567 100.784C72.5637 100.477 72.7366 100.061 72.7373 99.627V18.198C72.7366 17.7638 72.5637 17.3476 72.2567 17.0406C71.9497 16.7336 71.5335 16.5608 71.0993 16.56H13.1723Z" fill="#EBEBEB"/>
    <path d="M135.993 101.34H78.063C77.6089 101.339 77.1737 101.158 76.8526 100.837C76.5315 100.516 76.3508 100.081 76.35 99.627V18.198C76.3547 17.7465 76.5372 17.3151 76.8578 16.9973C77.1785 16.6794 77.6115 16.5008 78.063 16.5H135.993C136.444 16.5016 136.876 16.6807 137.195 16.9985C137.515 17.3164 137.696 17.7473 137.7 18.198V99.627C137.7 100.08 137.52 100.515 137.2 100.836C136.88 101.157 136.446 101.338 135.993 101.34ZM78.063 16.56C77.6288 16.5608 77.2126 16.7336 76.9056 17.0406C76.5986 17.3476 76.4258 17.7638 76.425 18.198V99.627C76.4258 100.061 76.5986 100.477 76.9056 100.784C77.2126 101.091 77.6288 101.264 78.063 101.265H135.993C136.427 101.264 136.843 101.091 137.15 100.784C137.457 100.477 137.63 100.061 137.631 99.627V18.198C137.63 17.7638 137.457 17.3476 137.15 17.0406C136.843 16.7336 136.427 16.5608 135.993 16.56H78.063Z" fill="#EBEBEB"/>
    <path d="M96.306 19.386H9.55498C8.13008 19.386 6.97498 20.5411 6.97498 21.966V75.393C6.97498 76.8179 8.13008 77.973 9.55498 77.973H96.306C97.7309 77.973 98.886 76.8179 98.886 75.393V21.966C98.886 20.5411 97.7309 19.386 96.306 19.386Z" fill="#EBEBEB"/>
    <path d="M98.886 22.3501H6.97498V69.5761H98.886V22.3501Z" fill="#FAFAFA"/>
    <path d="M69.3813 40.2419C69.3829 39.6575 69.6157 39.0976 70.0289 38.6844C70.4421 38.2713 71.002 38.0384 71.5863 38.0369H140.286C140.871 38.0384 141.431 38.2713 141.844 38.6844C142.257 39.0976 142.49 39.6575 142.491 40.2419V47.3399H69.3813V40.2419Z" fill="#E6E6E6"/>
    <path d="M87.2127 44.3577C88.1339 44.3577 88.8807 43.6109 88.8807 42.6897C88.8807 41.7685 88.1339 41.0217 87.2127 41.0217C86.2915 41.0217 85.5447 41.7685 85.5447 42.6897C85.5447 43.6109 86.2915 44.3577 87.2127 44.3577Z" fill="white"/>
    <path d="M81.3035 44.3577C82.2247 44.3577 82.9715 43.6109 82.9715 42.6897C82.9715 41.7685 82.2247 41.0217 81.3035 41.0217C80.3823 41.0217 79.6355 41.7685 79.6355 42.6897C79.6355 43.6109 80.3823 44.3577 81.3035 44.3577Z" fill="white"/>
    <path d="M75.3961 44.3577C76.3174 44.3577 77.0641 43.6109 77.0641 42.6897C77.0641 41.7685 76.3174 41.0217 75.3961 41.0217C74.4749 41.0217 73.7281 41.7685 73.7281 42.6897C73.7281 43.6109 74.4749 44.3577 75.3961 44.3577Z" fill="white"/>
    <path d="M140.277 85.56H71.5768C70.9925 85.5584 70.4326 85.3256 70.0194 84.9124C69.6062 84.4992 69.3734 83.9393 69.3718 83.355V47.355H142.482V83.355C142.48 83.9393 142.247 84.4992 141.834 84.9124C141.421 85.3256 140.861 85.5584 140.277 85.56Z" fill="#F5F5F5"/>
    <path d="M59.5645 52.5209C59.566 51.9366 59.7989 51.3767 60.212 50.9635C60.6252 50.5503 61.1851 50.3175 61.7694 50.3159H130.469C131.054 50.3175 131.614 50.5503 132.027 50.9635C132.44 51.3767 132.673 51.9366 132.674 52.5209V59.6189H59.5645V52.5209Z" fill="#F0F0F0"/>
    <path d="M77.3941 56.637C78.3153 56.637 79.0621 55.8902 79.0621 54.969C79.0621 54.0478 78.3153 53.301 77.3941 53.301C76.4729 53.301 75.7261 54.0478 75.7261 54.969C75.7261 55.8902 76.4729 56.637 77.3941 56.637Z" fill="#E6E6E6"/>
    <path d="M71.4836 56.637C72.4048 56.637 73.1516 55.8902 73.1516 54.969C73.1516 54.0478 72.4048 53.301 71.4836 53.301C70.5623 53.301 69.8156 54.0478 69.8156 54.969C69.8156 55.8902 70.5623 56.637 71.4836 56.637Z" fill="#E6E6E6"/>
    <path d="M65.5775 56.637C66.4988 56.637 67.2455 55.8902 67.2455 54.969C67.2455 54.0478 66.4988 53.301 65.5775 53.301C64.6563 53.301 63.9095 54.0478 63.9095 54.969C63.9095 55.8902 64.6563 56.637 65.5775 56.637Z" fill="#E6E6E6"/>
    <path d="M130.458 97.839H61.7581C61.1738 97.8374 60.6139 97.6046 60.2007 97.1915C59.7875 96.7783 59.5547 96.2183 59.5531 95.634V59.634H132.663V95.634C132.662 96.2183 132.429 96.7783 132.016 97.1915C131.602 97.6046 131.042 97.8374 130.458 97.839Z" fill="#FAFAFA"/>
    <path d="M49.7458 64.8C49.7474 64.2157 49.9803 63.6557 50.3934 63.2426C50.8066 62.8294 51.3665 62.5966 51.9508 62.595H120.651C121.235 62.5966 121.795 62.8294 122.208 63.2426C122.621 63.6557 122.854 64.2157 122.856 64.8V71.898H49.7458V64.8Z" fill="#FAFAFA"/>
    <path d="M67.5753 68.9158C68.4966 68.9158 69.2433 68.169 69.2433 67.2478C69.2433 66.3266 68.4966 65.5798 67.5753 65.5798C66.6541 65.5798 65.9073 66.3266 65.9073 67.2478C65.9073 68.169 66.6541 68.9158 67.5753 68.9158Z" fill="#F0F0F0"/>
    <path d="M61.6648 68.9158C62.586 68.9158 63.3328 68.169 63.3328 67.2478C63.3328 66.3266 62.586 65.5798 61.6648 65.5798C60.7436 65.5798 59.9968 66.3266 59.9968 67.2478C59.9968 68.169 60.7436 68.9158 61.6648 68.9158Z" fill="#F0F0F0"/>
    <path d="M55.7575 68.9158C56.6787 68.9158 57.4255 68.169 57.4255 67.2478C57.4255 66.3266 56.6787 65.5798 55.7575 65.5798C54.8363 65.5798 54.0895 66.3266 54.0895 67.2478C54.0895 68.169 54.8363 68.9158 55.7575 68.9158Z" fill="#F0F0F0"/>
    <path d="M120.64 110.118H51.9395C51.3552 110.117 50.7953 109.884 50.3821 109.471C49.9689 109.057 49.7361 108.497 49.7345 107.913V71.9131H122.845V107.913C122.843 108.497 122.61 109.057 122.197 109.471C121.784 109.884 121.224 110.117 120.64 110.118Z" fill="#E6E6E6"/>
    <path d="M75.0005 128.268C107.125 128.268 133.168 126.748 133.168 124.872C133.168 122.997 107.125 121.476 75.0005 121.476C42.8757 121.476 16.8335 122.997 16.8335 124.872C16.8335 126.748 42.8757 128.268 75.0005 128.268Z" fill="#F5F5F5"/>
    <path d="M57.3479 24.75H54.6989V25.05H57.3479V24.75Z" fill="#592CB8"/>
    <path d="M51.552 24.75H45.051V25.05H51.552V24.75Z" fill="#592CB8"/>
    <path d="M27.0989 25.8H122.901C123.856 25.8 124.771 26.1793 125.446 26.8545C126.122 27.5296 126.501 28.4453 126.501 29.4V112.116H23.4989V29.4C23.4989 28.4453 23.8782 27.5296 24.5533 26.8545C25.2284 26.1793 26.1441 25.8 27.0989 25.8Z" fill="#592CB8"/>
    <path opacity="0.8" d="M126.498 31.2H23.4989V110.718H126.498V31.2Z" fill="white"/>
    <path opacity="0.4" d="M126.498 31.2H23.4989V48.681H126.498V31.2Z" fill="#592CB8"/>
    <path opacity="0.4" d="M124.374 32.8711H120.075V37.1701H124.374V32.8711Z" fill="#592CB8"/>
    <path opacity="0.4" d="M117.996 32.8711H113.697V37.1701H117.996V32.8711Z" fill="#592CB8"/>
    <path opacity="0.4" d="M111.618 32.8711H107.319V37.1701H111.618V32.8711Z" fill="#592CB8"/>
    <path opacity="0.4" d="M42.9863 107.85H38.6873V108.282H42.9863V107.85Z" fill="#592CB8"/>
    <path opacity="0.4" d="M36.6096 107.85H32.3105V108.282H36.6096V107.85Z" fill="#592CB8"/>
    <path opacity="0.4" d="M30.2314 107.85H25.9324V108.282H30.2314V107.85Z" fill="#592CB8"/>
    <path d="M64.7074 41.1599H63.3964L63.2134 41.7779H62.0344L63.4384 38.0369H64.7014L66.1054 41.7779H64.9054L64.7074 41.1599ZM64.4674 40.3529L64.0564 38.9999L63.6454 40.3469L64.4674 40.3529Z" fill="white"/>
    <path d="M66.4084 38.0369H67.4584V39.3329C67.5566 39.2275 67.6763 39.1446 67.8094 39.0899C67.9486 39.0336 68.0974 39.0051 68.2474 39.0059C68.4017 39.0023 68.5549 39.0324 68.6963 39.094C68.8378 39.1557 68.9641 39.2474 69.0664 39.3629C69.2995 39.6509 69.4152 40.0162 69.3904 40.3859C69.3961 40.6532 69.3461 40.9189 69.2434 41.1659C69.1592 41.3716 69.0163 41.5479 68.8324 41.6729C68.6597 41.7832 68.4584 41.8405 68.2534 41.8379C68.0795 41.8398 67.9076 41.7996 67.7524 41.7209C67.6065 41.6321 67.48 41.5147 67.3804 41.3759V41.7778H66.4084V38.0369ZM67.4494 40.4159C67.4349 40.5949 67.4814 40.7736 67.5814 40.9229C67.6215 40.9724 67.6723 41.0122 67.73 41.0392C67.7877 41.0663 67.8507 41.0798 67.9144 41.0789C67.973 41.0775 68.0305 41.0627 68.0825 41.0357C68.1345 41.0086 68.1797 40.97 68.2144 40.9229C68.3126 40.7685 68.3569 40.586 68.3404 40.4039C68.353 40.2375 68.3097 40.0718 68.2174 39.9329C68.1822 39.8866 68.1368 39.8491 68.0848 39.8231C68.0328 39.7971 67.9756 39.7833 67.9174 39.7829C67.8518 39.7805 67.7865 39.7934 67.7267 39.8204C67.6668 39.8475 67.614 39.888 67.5724 39.9389C67.4764 40.0783 67.4328 40.2473 67.4494 40.4159Z" fill="white"/>
    <path d="M69.7595 40.4309C69.754 40.2405 69.7886 40.0511 69.861 39.8749C69.9333 39.6986 70.0418 39.5396 70.1795 39.4079C70.3318 39.2687 70.5102 39.1611 70.7042 39.091C70.8983 39.021 71.1044 38.99 71.3105 38.9999C71.5372 38.984 71.7648 39.0182 71.9768 39.1001C72.1889 39.182 72.3803 39.3096 72.5375 39.4739C72.7678 39.7528 72.8871 40.1069 72.8727 40.4683C72.8584 40.8297 72.7112 41.1732 72.4595 41.4329C72.3037 41.5718 72.122 41.6786 71.9248 41.7471C71.7276 41.8156 71.5188 41.8444 71.3105 41.8319C70.9307 41.849 70.5569 41.7322 70.2545 41.5019C70.0952 41.3734 69.9678 41.2099 69.8819 41.0242C69.7961 40.8385 69.7542 40.6355 69.7595 40.4309ZM70.8005 40.4309C70.7863 40.6215 70.8382 40.8111 70.9475 40.9679C70.9931 41.0211 71.0497 41.0639 71.1134 41.0932C71.1771 41.1225 71.2464 41.1376 71.3165 41.1376C71.3866 41.1376 71.4558 41.1225 71.5195 41.0932C71.5832 41.0639 71.6398 41.0211 71.6855 40.9679C71.7952 40.8069 71.8461 40.613 71.8295 40.4189C71.8472 40.2362 71.8017 40.053 71.7005 39.8999C71.6572 39.8462 71.6023 39.8029 71.54 39.7733C71.4777 39.7437 71.4095 39.7285 71.3405 39.7289C71.2688 39.727 71.1976 39.7418 71.1326 39.7719C71.0675 39.8021 71.0103 39.8469 70.9655 39.9029C70.8507 40.0532 70.7923 40.239 70.8005 40.4279V40.4309Z" fill="white"/>
    <path d="M76.2273 41.7781H75.2583V41.3401C75.1408 41.4974 74.9916 41.6282 74.8203 41.7241C74.6514 41.806 74.4649 41.8451 74.2773 41.8381C74.1537 41.8451 74.0299 41.8261 73.9142 41.7821C73.7984 41.7382 73.6931 41.6704 73.6053 41.5831C73.4262 41.361 73.3392 41.0785 73.3623 40.7941V39.0691H74.4003V40.5691C74.3878 40.6973 74.4207 40.8257 74.4933 40.9321C74.527 40.9688 74.5685 40.9975 74.6147 41.0162C74.6608 41.0348 74.7106 41.043 74.7603 41.0401C74.818 41.0408 74.8751 41.0282 74.9272 41.0032C74.9792 40.9782 75.0248 40.9416 75.0603 40.8961C75.1568 40.7434 75.1991 40.5627 75.1803 40.3831V39.0811H76.2183L76.2273 41.7781Z" fill="white"/>
    <path d="M78.1115 38.0369V39.0689H78.6815V39.8279H78.1115V40.7999C78.1042 40.8784 78.1155 40.9575 78.1445 41.0309C78.1633 41.0599 78.1898 41.0832 78.2211 41.0981C78.2523 41.1129 78.2871 41.1187 78.3215 41.1149C78.4312 41.109 78.5394 41.0868 78.6425 41.0489L78.7205 41.7659C78.4843 41.8199 78.2429 41.848 78.0005 41.8499C77.8054 41.8622 77.6101 41.8283 77.4305 41.7509C77.3075 41.6856 77.2109 41.5795 77.1575 41.4509C77.0871 41.2394 77.0575 41.0164 77.0705 40.7939V39.8399H76.6865V39.0809H77.0705V38.5829L78.1115 38.0369Z" fill="white"/>
    <path d="M83.4203 38.0369H84.5723V40.2659C84.5741 40.4792 84.5396 40.6912 84.4703 40.8929C84.4024 41.0862 84.2917 41.2616 84.1463 41.4059C84.015 41.5371 83.8576 41.6393 83.6843 41.7059C83.4234 41.793 83.1494 41.8346 82.8743 41.8289C82.6737 41.8285 82.4733 41.8154 82.2743 41.7899C82.0877 41.7731 81.9057 41.7222 81.7373 41.6399C81.5841 41.5595 81.4485 41.4493 81.3383 41.3159C81.227 41.1918 81.1431 41.0456 81.0923 40.8869C81.0269 40.6821 80.9915 40.4689 80.9873 40.2539V38.0249H82.1393V40.3079C82.1344 40.3946 82.1467 40.4813 82.1756 40.5632C82.2044 40.6451 82.2492 40.7204 82.3073 40.7849C82.3701 40.8438 82.4443 40.8893 82.5253 40.9187C82.6062 40.9481 82.6923 40.9608 82.7783 40.9559C82.8637 40.9617 82.9493 40.9497 83.0299 40.9208C83.1104 40.8919 83.1841 40.8466 83.2463 40.7879C83.3058 40.7236 83.3516 40.6479 83.381 40.5654C83.4104 40.4829 83.4227 40.3953 83.4173 40.3079L83.4203 38.0369Z" fill="white"/>
    <path d="M85.0865 41.025L86.1185 40.929C86.1477 41.0328 86.2098 41.1244 86.2955 41.19C86.3852 41.2464 86.4897 41.2747 86.5955 41.271C86.7106 41.2787 86.8249 41.2469 86.9195 41.181C86.947 41.1631 86.9697 41.1386 86.9854 41.1098C87.0011 41.081 87.0094 41.0488 87.0095 41.016C87.009 40.9787 86.9977 40.9425 86.9769 40.9116C86.9561 40.8807 86.9268 40.8565 86.8926 40.842C86.7477 40.7905 86.5979 40.7543 86.4455 40.734C86.1911 40.6972 85.9402 40.639 85.6955 40.56C85.5543 40.5054 85.4315 40.4117 85.3415 40.29C85.2441 40.165 85.1923 40.0104 85.1946 39.852C85.1919 39.6855 85.2471 39.5233 85.3505 39.393C85.4632 39.2554 85.6117 39.1516 85.7795 39.093C86.0168 39.0218 86.264 38.9894 86.5115 38.997C86.7529 38.9885 86.9942 39.0137 87.2285 39.072C87.3734 39.1167 87.5051 39.196 87.6125 39.303C87.7267 39.4236 87.8145 39.5666 87.8705 39.723L86.8835 39.819C86.8659 39.7419 86.8212 39.6738 86.7575 39.627C86.6681 39.5701 86.5635 39.5419 86.4575 39.546C86.368 39.5387 86.2785 39.5608 86.2025 39.609C86.1778 39.6262 86.1576 39.649 86.1435 39.6756C86.1294 39.7023 86.1219 39.7318 86.1215 39.762C86.1216 39.7943 86.1314 39.8258 86.1496 39.8526C86.1678 39.8793 86.1935 39.9 86.2235 39.912C86.3669 39.9615 86.5162 39.9917 86.6676 40.002C86.9308 40.0219 87.1902 40.0775 87.4385 40.167C87.5941 40.2269 87.7287 40.3312 87.8255 40.467C87.9121 40.5921 87.9581 40.7408 87.9575 40.893C87.9553 41.0553 87.9063 41.2136 87.8165 41.349C87.7063 41.509 87.5506 41.6323 87.3695 41.703C87.1037 41.7999 86.8213 41.8437 86.5385 41.832C86.1739 41.8613 85.8082 41.7886 85.4825 41.622C85.278 41.482 85.136 41.2678 85.0865 41.025Z" fill="white"/>
    <path d="M44.7542 82.5359C53.0384 82.5359 59.7542 75.8202 59.7542 67.5359C59.7542 59.2516 53.0384 52.5359 44.7542 52.5359C36.4699 52.5359 29.7542 59.2516 29.7542 67.5359C29.7542 75.8202 36.4699 82.5359 44.7542 82.5359Z" fill="#592CB8"/>
    <path d="M54.8022 77.5841C60.3519 72.0344 60.3519 63.0364 54.8022 57.4867C49.2525 51.937 40.2546 51.937 34.7048 57.4867C29.1551 63.0364 29.1551 72.0344 34.7048 77.5841C40.2546 83.1338 49.2525 83.1338 54.8022 77.5841Z" fill="white"/>
    <path d="M45.4802 70.5003L46.6802 68.0043C46.6802 68.0043 52.9442 69.9843 53.8802 70.4433C53.8562 68.8773 54.6542 65.9433 54.7412 64.3353C54.9782 64.1103 55.5512 63.5433 55.8482 63.5643C56.7482 65.6643 56.5532 72.8643 54.7832 72.9933C51.9542 73.1733 45.4802 70.5003 45.4802 70.5003Z" fill="#B55B52"/>
    <path d="M44.6992 70.11C45.4222 71.805 51.3592 73.314 51.3592 73.314L52.5592 69.666C52.5592 69.666 50.2972 67.95 47.9482 67.395C45.5452 66.822 43.9012 68.25 44.6992 70.11Z" fill="#592CB8"/>
    <path opacity="0.2" d="M44.8052 70.3082C45.5102 71.3732 48.1322 72.3392 49.8392 72.8762C48.7022 70.6682 47.1692 69.4501 44.8052 70.3082Z" fill="black"/>
    <path d="M54.7351 64.6532L53.7781 63.4262L55.5481 62.4392C55.8965 62.966 56.0755 63.5868 56.0611 64.2182L54.7351 64.6532Z" fill="#B55B52"/>
    <path d="M53.5165 61.728L55.2415 61.449L55.5475 62.439L53.7775 63.426L53.5165 61.728Z" fill="#B55B52"/>
    <path d="M48.093 67.518C48.093 67.518 50.511 73.338 48.615 84.183H39.165C39.054 82.599 39.861 74.883 38.151 67.419C39.2871 67.1977 40.4366 67.0514 41.592 66.981C43.0518 66.897 44.5152 66.897 45.975 66.981C47.505 67.122 48.093 67.518 48.093 67.518Z" fill="#592CB8"/>
    <path opacity="0.2" d="M40.4346 69.2581C40.6386 70.4881 40.3236 73.4251 39.2345 76.8181C39.1806 73.9106 38.8714 71.0135 38.3105 68.1601C39.0005 68.0761 40.2426 68.1001 40.4346 69.2581Z" fill="black"/>
    <path d="M42.0626 62.8831C42.3626 64.2931 42.5546 66.0421 41.5916 66.9811C41.5916 66.9811 42.1916 68.4121 44.8136 68.4121C47.2136 68.4121 45.9746 66.9811 45.9746 66.9811C44.3936 66.6061 44.4266 64.6621 44.6756 63.5641L42.0626 62.8831Z" fill="#B55B52"/>
    <path d="M44.937 68.2979L45.507 68.9279C45.5263 68.9497 45.5397 68.9759 45.546 69.0043C45.5523 69.0326 45.5513 69.0621 45.543 69.0899L45.36 69.6449C45.3497 69.6754 45.3305 69.702 45.3048 69.7213C45.2791 69.7406 45.2481 69.7516 45.216 69.7529L44.616 69.7829C44.587 69.7848 44.5581 69.7788 44.5323 69.7656C44.5064 69.7524 44.4846 69.7325 44.469 69.7079L44.1 69.1709C44.0784 69.1419 44.0667 69.1067 44.0667 69.0704C44.0667 69.0342 44.0784 68.999 44.1 68.9699L44.7 68.2979C44.7315 68.2666 44.7741 68.249 44.8185 68.249C44.8629 68.249 44.9055 68.2666 44.937 68.2979Z" fill="white"/>
    <path d="M44.814 68.1599C44.5231 68.6471 44.3619 69.2007 44.346 69.7679C44.346 69.7679 41.046 68.6099 41.145 66.9119C41.145 66.9119 41.604 66.6359 41.895 66.4109C41.895 66.4109 42.033 67.4819 44.814 68.1599Z" fill="#263238"/>
    <path d="M44.8134 68.1602C45.1248 68.6167 45.3533 69.1244 45.4884 69.6602C45.4884 69.6602 46.9524 68.6522 46.4634 66.9753C46.1885 66.8651 45.9057 66.7759 45.6174 66.7083C45.6174 66.7083 45.8394 67.8002 44.8134 68.1602Z" fill="#263238"/>
    <path d="M45.0812 69.6661C45.0812 69.6661 46.0202 76.5661 46.0412 77.7661C46.0284 78.902 45.8495 80.0299 45.5102 81.1141C45.5102 81.1141 44.8652 79.8931 44.7542 77.7151C44.6432 75.5371 44.7782 70.8871 44.7302 69.6631L45.0812 69.6661Z" fill="white"/>
    <path opacity="0.2" d="M44.6754 63.5671C44.4822 64.3302 44.5051 65.1321 44.7414 65.8831C44.4973 65.8453 44.2598 65.7726 44.0364 65.6671C43.1364 65.2471 42.6834 64.5901 42.2064 63.6151C42.1644 63.3631 42.1164 63.1201 42.0654 62.8831L44.6754 63.5671Z" fill="black"/>
    <path d="M47.1624 62.5769C47.0557 62.7874 46.9078 62.9742 46.7274 63.1262C46.547 63.2782 46.3379 63.3924 46.1124 63.4619C45.5124 63.6389 45.1854 63.0899 45.3354 62.5049C45.4734 61.9769 45.9354 61.2509 46.5654 61.3259C46.7007 61.3464 46.8288 61.3996 46.9387 61.4811C47.0486 61.5625 47.1369 61.6696 47.1958 61.7931C47.2547 61.9165 47.2825 62.0525 47.2766 62.1891C47.2708 62.3258 47.2316 62.4589 47.1624 62.5769Z" fill="#B55B52"/>
    <path opacity="0.2" d="M47.1624 62.5769C47.0557 62.7874 46.9078 62.9742 46.7274 63.1262C46.547 63.2782 46.3379 63.3924 46.1124 63.4619C45.5124 63.6389 45.1854 63.0899 45.3354 62.5049C45.4734 61.9769 45.9354 61.2509 46.5654 61.3259C46.7007 61.3464 46.8288 61.3996 46.9387 61.4811C47.0486 61.5625 47.1369 61.6696 47.1958 61.7931C47.2547 61.9165 47.2825 62.0525 47.2766 62.1891C47.2708 62.3258 47.2316 62.4589 47.1624 62.5769Z" fill="black"/>
    <path d="M45.423 61.3562C46.023 61.9052 47.118 58.8931 45.891 58.0561C44.664 57.2191 44.235 58.3561 44.256 59.0491C44.277 59.7421 44.517 60.5432 45.423 61.3562Z" fill="#263238"/>
    <path d="M41.3253 60.8488C41.6073 62.7568 41.6763 63.8878 42.7173 64.8088C44.2803 66.1918 46.5393 65.1538 46.8243 63.2098C47.0823 61.4578 46.5783 58.6288 44.6613 57.9898C44.2415 57.8471 43.7918 57.8162 43.3564 57.9002C42.9211 57.9841 42.5151 58.18 42.1784 58.4685C41.8418 58.757 41.5861 59.1282 41.4365 59.5456C41.2869 59.963 41.2485 60.4121 41.3253 60.8488Z" fill="#B55B52"/>
    <path d="M41.2046 62.4692C41.5346 62.6822 41.9876 63.2582 42.6686 62.2382C42.6686 61.9742 41.9996 61.5302 41.9486 60.9062C41.8886 60.1802 41.7296 59.4062 41.1416 59.1512C39.8006 58.5512 39.5546 59.7032 39.6866 60.3932C39.8186 61.0832 40.1816 61.8002 41.2046 62.4692Z" fill="#263238"/>
    <path d="M41.0255 59.823C44.1905 59.331 46.0595 59.223 47.0105 58.038C47.9615 56.853 46.5005 55.386 44.9105 55.218C44.7965 55.836 43.1855 57.462 40.7105 58.167C40.5727 58.2049 40.4488 58.2817 40.3535 58.3882C40.2582 58.4946 40.1955 58.6263 40.1731 58.7674C40.1506 58.9085 40.1693 59.0531 40.2268 59.1839C40.2843 59.3148 40.3783 59.4262 40.4975 59.505C40.8005 59.7 41.0255 59.823 41.0255 59.823Z" fill="#263238"/>
    <path d="M40.6554 63.021C40.9437 63.4127 41.375 63.6746 41.8554 63.75C42.4824 63.846 42.7074 63.261 42.4554 62.703C42.2304 62.199 41.6334 61.545 41.0394 61.704C40.4454 61.863 40.3044 62.538 40.6554 63.021Z" fill="#B55B52"/>
    <path d="M44.2383 61.1999C44.2383 61.3559 44.3463 61.4789 44.4453 61.4699C44.5443 61.4609 44.6163 61.3319 44.6043 61.1699C44.5923 61.0079 44.4993 60.8939 44.3973 60.8999C44.2953 60.9059 44.2263 61.0319 44.2383 61.1999Z" fill="#263238"/>
    <path d="M45.9777 61.071C45.9927 61.227 46.0857 61.347 46.1847 61.341C46.2837 61.335 46.3557 61.203 46.3437 61.041C46.3317 60.879 46.2357 60.762 46.1367 60.771C46.0377 60.78 45.9657 60.915 45.9777 61.071Z" fill="#263238"/>
    <path d="M45.4324 61.2C45.6575 61.6652 45.944 62.098 46.2844 62.4869C46.1855 62.5702 46.0693 62.6303 45.9442 62.663C45.8191 62.6957 45.6884 62.7001 45.5614 62.6759L45.4324 61.2Z" fill="#A02724"/>
    <path d="M45.1499 63.1229C45.1557 63.1225 45.1614 63.121 45.1665 63.1183C45.1717 63.1157 45.1763 63.112 45.1799 63.1075C45.1836 63.103 45.1863 63.0977 45.1878 63.0921C45.1894 63.0865 45.1897 63.0807 45.1889 63.0749C45.1885 63.069 45.187 63.0632 45.1844 63.0579C45.1817 63.0526 45.1781 63.0478 45.1736 63.0439C45.1692 63.04 45.164 63.037 45.1584 63.0351C45.1527 63.0333 45.1468 63.0325 45.1409 63.0329C44.9478 63.0492 44.7536 63.0199 44.5738 62.9475C44.394 62.8751 44.2338 62.7615 44.1059 62.6159C44.1024 62.6112 44.0979 62.6072 44.0928 62.6042C44.0877 62.6012 44.0821 62.5992 44.0763 62.5984C44.0704 62.5975 44.0645 62.5978 44.0587 62.5993C44.053 62.6008 44.0476 62.6034 44.0429 62.6069C44.0382 62.6104 44.0342 62.6149 44.0312 62.62C44.0282 62.6251 44.0262 62.6307 44.0254 62.6365C44.0245 62.6424 44.0248 62.6483 44.0263 62.6541C44.0278 62.6598 44.0304 62.6652 44.0339 62.6699C44.17 62.8293 44.3424 62.9537 44.5367 63.0325C44.7309 63.1113 44.9412 63.1423 45.1499 63.1229Z" fill="#263238"/>
    <path d="M43.665 60.654C43.6788 60.6537 43.6923 60.6499 43.7044 60.6431C43.7164 60.6363 43.7266 60.6267 43.734 60.615C43.7911 60.5168 43.8712 60.4339 43.9673 60.3733C44.0634 60.3127 44.1727 60.2762 44.286 60.267C44.2979 60.2674 44.3098 60.2654 44.3209 60.261C44.332 60.2566 44.3421 60.25 44.3505 60.2416C44.359 60.2331 44.3656 60.223 44.37 60.2119C44.3744 60.2008 44.3764 60.1889 44.376 60.177C44.376 60.1523 44.3662 60.1287 44.3487 60.1112C44.3313 60.0938 44.3076 60.084 44.283 60.084C44.1397 60.0923 44.0007 60.1358 43.8783 60.2106C43.7558 60.2854 43.6537 60.3893 43.581 60.513C43.5745 60.5232 43.5701 60.5345 43.568 60.5465C43.566 60.5584 43.5664 60.5706 43.5692 60.5823C43.572 60.5941 43.5772 60.6052 43.5843 60.6149C43.5915 60.6246 43.6006 60.6328 43.611 60.639C43.6185 60.645 43.6272 60.6494 43.6365 60.6519C43.6457 60.6545 43.6554 60.6552 43.665 60.654Z" fill="#263238"/>
    <path d="M46.7072 60.393L46.7432 60.378C46.7536 60.3714 46.7624 60.3627 46.7693 60.3525C46.7762 60.3423 46.7809 60.3308 46.7831 60.3187C46.7854 60.3066 46.7851 60.2942 46.7824 60.2822C46.7796 60.2702 46.7745 60.2589 46.7672 60.249C46.6895 60.126 46.5837 60.0233 46.4586 59.9492C46.3334 59.8751 46.1924 59.8319 46.0472 59.823C46.0351 59.823 46.0232 59.8254 46.0121 59.8301C46.0009 59.8348 45.9909 59.8417 45.9825 59.8504C45.9741 59.8591 45.9675 59.8694 45.9632 59.8806C45.9588 59.8919 45.9568 59.9039 45.9572 59.916C45.958 59.9401 45.9681 59.963 45.9855 59.9798C46.0028 59.9966 46.026 60.006 46.0502 60.006C46.1653 60.0145 46.2767 60.0503 46.3752 60.1102C46.4738 60.1702 46.5567 60.2527 46.6172 60.351C46.6274 60.3651 46.641 60.3763 46.6567 60.3837C46.6725 60.391 46.6899 60.3942 46.7072 60.393Z" fill="#263238"/>
    <path d="M37.0648 69.9778L39.4948 71.4058C39.4948 71.4058 36.4288 77.4058 36.7618 78.3418C37.2148 79.6018 37.9018 82.3708 38.7058 83.7418C38.6278 84.0418 38.1778 84.7708 37.9138 84.9058C35.9818 83.6098 33.8668 79.3648 33.8728 78.1528C33.8998 75.4018 37.0648 69.9778 37.0648 69.9778Z" fill="#B55B52"/>
    <path d="M38.1508 67.419C36.3328 67.683 34.3978 74.019 34.3978 74.019L38.6998 75.3901C39.4667 73.9516 40.1313 72.4609 40.6888 70.929C41.4868 68.589 40.1008 67.134 38.1508 67.419Z" fill="#592CB8"/>
    <path d="M38.2647 83.5021L40.0977 83.3701L39.1737 85.3921C39.1737 85.3921 37.5657 85.4551 37.2717 84.2281L38.2647 83.5021Z" fill="#B55B52"/>
    <path d="M41.6099 84.3001L40.6799 86.0911L39.174 85.3921L40.0979 83.3701L41.6099 84.3001Z" fill="#B55B52"/>
    <path d="M105.246 107.832C113.53 107.832 120.246 101.116 120.246 92.832C120.246 84.5478 113.53 77.832 105.246 77.832C96.9615 77.832 90.2457 84.5478 90.2457 92.832C90.2457 101.116 96.9615 107.832 105.246 107.832Z" fill="#592CB8"/>
    <path d="M105.247 107.043C113.095 107.043 119.458 100.681 119.458 92.8321C119.458 84.9836 113.095 78.6211 105.247 78.6211C97.398 78.6211 91.0355 84.9836 91.0355 92.8321C91.0355 100.681 97.398 107.043 105.247 107.043Z" fill="white"/>
    <path d="M104.592 82.032C102.459 81.84 101.13 85.122 101.574 90.132C104.274 91.665 107.367 90.132 109.842 91.365C112.131 87.864 111.522 79.968 104.592 82.032Z" fill="#263238"/>
    <path d="M101.261 96.5338C100.955 97.672 100.523 98.7727 99.9745 99.8158C99.679 100.387 99.3098 100.916 98.8765 101.391C98.7495 101.527 98.6121 101.654 98.4655 101.769C98.2355 101.967 97.9605 102.106 97.6645 102.174C97.4365 102.22 97.2005 102.21 96.9775 102.144C96.7791 102.083 96.5959 101.981 96.4405 101.844C96.2448 101.668 96.0858 101.455 95.9725 101.217C95.8242 100.898 95.7144 100.563 95.6455 100.218C95.5808 99.9207 95.5327 99.6203 95.5015 99.3178C95.4355 98.7178 95.4055 98.1598 95.3965 97.5898C95.3799 96.4628 95.431 95.3358 95.5495 94.2148L96.6535 94.2358C96.7495 95.3158 96.8605 96.4078 97.0015 97.4698C97.0765 98.0008 97.1605 98.5288 97.2685 99.0328C97.3225 99.2818 97.3855 99.5278 97.4515 99.7528C97.5055 99.9475 97.5831 100.135 97.6825 100.311C97.7155 100.365 97.7575 100.395 97.7065 100.338C97.6547 100.293 97.5945 100.26 97.5295 100.239C97.4392 100.211 97.3436 100.205 97.2505 100.221C97.1155 100.245 97.1065 100.284 97.1605 100.221C97.2237 100.157 97.2828 100.088 97.3375 100.017C97.6111 99.643 97.8434 99.2407 98.0305 98.8168C98.2492 98.3544 98.4434 97.8807 98.6125 97.3978C98.7925 96.9148 98.9605 96.3958 99.1075 95.9278L101.261 96.5338Z" fill="#FFB573"/>
    <path d="M99.7799 93.6449C98.8799 93.8759 98.2499 97.5779 98.2499 97.5779L101.691 99.9179C101.691 99.9179 103.107 95.5289 102.414 94.5389C101.721 93.5489 101.1 93.2999 99.7799 93.6449Z" fill="#263238"/>
    <path opacity="0.2" d="M99.8606 94.4729L99.1676 98.2049L100.563 99.1499L99.8606 94.4729Z" fill="black"/>
    <path d="M96.7021 94.5451L97.1581 92.2441L95.3281 92.7751C95.3281 92.7751 95.1481 94.3681 95.8861 94.8931L96.7021 94.5451Z" fill="#FFB573"/>
    <path d="M96.9751 91.2329L95.4631 91.8599L95.3281 92.7749L97.1581 92.2439L96.9751 91.2329Z" fill="#FFB573"/>
    <path d="M99.7795 93.645C99.7795 93.645 98.7385 94.014 100.824 106.824H109.689C109.542 103.224 109.536 100.989 111.261 93.582C110.019 93.3268 108.761 93.1614 107.496 93.087C106.155 92.9909 104.81 92.9909 103.47 93.087C101.742 93.246 99.7795 93.645 99.7795 93.645Z" fill="#263238"/>
    <path opacity="0.2" d="M110.532 96.5159C109.728 96.7139 108.984 97.5929 109.074 99.2159C109.124 99.9502 109.381 100.655 109.815 101.25C109.956 100.008 110.193 98.5649 110.571 96.7229L110.532 96.5159Z" fill="black"/>
    <path d="M103.939 95.928C103.939 95.928 105.391 97.128 105.391 98.397C106.591 97.512 108.226 95.097 108.391 93.564C108.396 93.5019 108.389 93.4392 108.37 93.3798C108.351 93.3205 108.32 93.2656 108.279 93.2185C108.238 93.1714 108.188 93.133 108.132 93.1058C108.076 93.0786 108.015 93.063 107.953 93.06C107.844 93.0527 107.736 93.0387 107.629 93.018C107.583 93.0084 107.537 93.0094 107.492 93.0208C107.447 93.0323 107.406 93.0539 107.371 93.084L103.939 95.928Z" fill="#FAFAFA"/>
    <path d="M103.938 95.928C103.543 96.221 103.21 96.5906 102.96 97.0147C102.71 97.4389 102.548 97.909 102.483 98.397C101.259 97.497 101.766 94.728 102.447 93.42C102.501 93.318 102.579 93.2307 102.674 93.1658C102.769 93.1009 102.879 93.0605 102.993 93.0481C103.17 93.0271 103.308 93.0031 103.398 92.9851C103.415 92.9816 103.431 92.9815 103.448 92.9849C103.464 92.9882 103.479 92.9949 103.493 93.0045C103.506 93.0141 103.518 93.0264 103.526 93.0406C103.535 93.0548 103.54 93.0706 103.542 93.0871L103.938 95.928Z" fill="#FAFAFA"/>
    <path d="M107.1 88.554C106.848 89.85 106.593 92.223 107.499 93.087C106.517 94.2641 105.307 95.2305 103.941 95.928C102.141 94.491 103.473 93.087 103.473 93.087C104.919 92.742 104.88 91.671 104.628 90.663L107.1 88.554Z" fill="#FFB573"/>
    <path opacity="0.2" d="M106.089 89.4148L104.628 90.6628C104.689 90.8969 104.73 91.1358 104.751 91.3768C105.303 91.2988 106.17 90.8278 106.29 90.2278C106.292 89.9443 106.223 89.6648 106.089 89.4148Z" fill="black"/>
    <path d="M109.269 86.4719C108.669 88.5539 108.462 89.4479 107.154 90.2969C105.189 91.5689 102.762 90.3779 102.726 88.1579C102.693 86.1599 103.68 83.0909 105.933 82.7099C106.429 82.6236 106.939 82.6657 107.415 82.8321C107.89 82.9985 108.315 83.2837 108.65 83.6607C108.984 84.0376 109.216 84.4938 109.324 84.9858C109.433 85.4779 109.414 85.9894 109.269 86.4719Z" fill="#FFB573"/>
    <path d="M107.67 84.531C108.036 86.6101 108.177 87.4141 108.912 87.9511C109.647 88.4881 110.331 86.0221 109.788 85.0741C109.245 84.126 107.67 84.531 107.67 84.531Z" fill="#263238"/>
    <path d="M104.214 82.581C103.773 83.103 104.679 84.195 105.558 84.552C105.504 84.4374 105.464 84.3164 105.441 84.192C106.076 84.6259 106.789 84.9316 107.541 85.092C107.456 84.9846 107.399 84.8578 107.376 84.723C107.376 84.621 109.542 86.055 109.857 85.023C110.172 83.991 109.098 82.641 107.457 82.209C106.059 81.858 104.757 81.936 104.214 82.581Z" fill="#263238"/>
    <path d="M105.777 86.2858C105.741 86.4568 105.618 86.5858 105.504 86.5498C105.39 86.5138 105.333 86.3668 105.372 86.1928C105.411 86.0188 105.531 85.8928 105.645 85.9288C105.759 85.9648 105.816 86.0998 105.777 86.2858Z" fill="#263238"/>
    <path d="M103.836 85.8539C103.797 86.0249 103.674 86.1539 103.563 86.1179C103.452 86.0819 103.389 85.9349 103.428 85.7609C103.467 85.5869 103.587 85.4609 103.701 85.4969C103.815 85.5329 103.872 85.6799 103.836 85.8539Z" fill="#263238"/>
    <path d="M103.75 85.5179L103.363 85.3049C103.363 85.3049 103.501 85.6739 103.75 85.5179Z" fill="#263238"/>
    <path d="M104.364 86.2952C104.125 86.6527 103.837 86.9758 103.509 87.2552C103.584 87.3394 103.677 87.4057 103.781 87.4493C103.885 87.493 103.997 87.5127 104.109 87.5072L104.364 86.2952Z" fill="#ED893E"/>
    <path d="M104.884 88.3891C104.797 88.3823 104.711 88.3703 104.626 88.3531C104.612 88.3495 104.601 88.341 104.594 88.3293C104.586 88.3176 104.584 88.3036 104.587 88.2901C104.588 88.2833 104.591 88.2768 104.595 88.2712C104.599 88.2655 104.604 88.2607 104.61 88.257C104.616 88.2534 104.622 88.2509 104.629 88.2499C104.636 88.2489 104.643 88.2493 104.65 88.2511C104.862 88.3029 105.084 88.3041 105.297 88.2546C105.51 88.2051 105.709 88.1063 105.877 87.9661C105.887 87.9564 105.9 87.9509 105.914 87.9509C105.928 87.9509 105.942 87.9564 105.952 87.9661C105.961 87.976 105.965 87.9888 105.965 88.0021C105.965 88.0154 105.961 88.0282 105.952 88.0381C105.806 88.1642 105.636 88.2602 105.453 88.3204C105.269 88.3806 105.076 88.404 104.884 88.3891Z" fill="#263238"/>
    <path d="M109.407 88.5512C109.172 88.8967 108.809 89.1351 108.399 89.2142C107.853 89.3162 107.628 88.8152 107.823 88.3142C107.997 87.8732 108.489 87.2912 109.023 87.4142C109.139 87.4427 109.246 87.5001 109.334 87.581C109.422 87.6619 109.489 87.7638 109.527 87.8772C109.565 87.9906 109.574 88.1118 109.553 88.2296C109.532 88.3474 109.482 88.458 109.407 88.5512Z" fill="#FFB573"/>
    <path d="M106.731 85.9078C106.709 85.9054 106.689 85.8959 106.673 85.8807C106.657 85.8655 106.647 85.8455 106.644 85.8238C106.592 85.6629 106.508 85.5143 106.397 85.3873C106.285 85.2604 106.149 85.1577 105.996 85.0858C105.981 85.0815 105.968 85.0741 105.957 85.0642C105.946 85.0543 105.937 85.042 105.93 85.0284C105.924 85.0147 105.921 84.9999 105.921 84.9849C105.921 84.9699 105.925 84.9551 105.931 84.9415C105.937 84.9279 105.946 84.9157 105.958 84.9059C105.969 84.8961 105.982 84.8889 105.997 84.8846C106.011 84.8804 106.026 84.8793 106.041 84.8814C106.056 84.8835 106.07 84.8888 106.083 84.8968C106.267 84.9836 106.43 85.1089 106.561 85.2641C106.693 85.4194 106.789 85.601 106.845 85.7968C106.849 85.8234 106.843 85.8507 106.828 85.873C106.813 85.8954 106.79 85.9111 106.764 85.9168L106.731 85.9078Z" fill="#263238"/>
    <path d="M103.452 84.4768C103.434 84.4773 103.415 84.4732 103.399 84.4648C103.383 84.4564 103.369 84.444 103.359 84.4288C103.344 84.4056 103.339 84.3776 103.344 84.3506C103.35 84.3237 103.366 84.3001 103.389 84.2848C103.524 84.1916 103.68 84.132 103.842 84.1111C104.005 84.0903 104.171 84.1086 104.325 84.1648C104.338 84.17 104.349 84.1777 104.359 84.1876C104.369 84.1975 104.377 84.2092 104.382 84.2221C104.387 84.2351 104.389 84.2489 104.389 84.2627C104.388 84.2766 104.385 84.2902 104.379 84.3028C104.373 84.315 104.366 84.326 104.356 84.3352C104.346 84.3444 104.335 84.3515 104.322 84.3563C104.309 84.361 104.296 84.3632 104.283 84.3628C104.269 84.3624 104.256 84.3593 104.244 84.3538C104.121 84.3123 103.99 84.3003 103.861 84.3185C103.732 84.3367 103.61 84.3848 103.503 84.4588C103.488 84.4691 103.47 84.4753 103.452 84.4768Z" fill="#263238"/>
    <path d="M105.69 85.9501L105.306 85.7371C105.306 85.7371 105.444 86.1001 105.69 85.9501Z" fill="#263238"/>
    <path d="M109.824 106.305L110.049 107.097C110.082 107.16 110.007 107.223 109.905 107.223H100.779C100.698 107.223 100.632 107.181 100.629 107.133L100.548 106.338C100.548 106.284 100.611 106.236 100.698 106.236H109.68C109.708 106.234 109.736 106.239 109.761 106.251C109.786 106.263 109.808 106.282 109.824 106.305Z" fill="#592CB8"/>
    <path opacity="0.2" d="M109.824 106.305L110.049 107.097C110.082 107.16 110.007 107.223 109.905 107.223H100.779C100.698 107.223 100.632 107.181 100.629 107.133L100.548 106.338C100.548 106.284 100.611 106.236 100.698 106.236H109.68C109.708 106.234 109.736 106.239 109.761 106.251C109.786 106.263 109.808 106.282 109.824 106.305Z" fill="black"/>
    <path d="M108.6 107.307H108.84C108.888 107.307 108.924 107.283 108.921 107.253L108.807 106.221C108.807 106.191 108.762 106.167 108.714 106.167H108.474C108.426 106.167 108.39 106.191 108.393 106.221L108.507 107.253C108.498 107.283 108.54 107.307 108.6 107.307Z" fill="#592CB8"/>
    <path opacity="0.4" d="M108.6 107.307H108.84C108.888 107.307 108.924 107.283 108.921 107.253L108.807 106.221C108.807 106.191 108.762 106.167 108.714 106.167H108.474C108.426 106.167 108.39 106.191 108.393 106.221L108.507 107.253C108.498 107.283 108.54 107.307 108.6 107.307Z" fill="black"/>
    <path d="M101.454 107.307H101.694C101.742 107.307 101.781 107.283 101.778 107.253L101.664 106.221C101.664 106.191 101.619 106.167 101.571 106.167H101.331C101.283 106.167 101.247 106.191 101.25 106.221L101.361 107.253C101.364 107.283 101.4 107.307 101.454 107.307Z" fill="#592CB8"/>
    <path opacity="0.4" d="M101.454 107.307H101.694C101.742 107.307 101.781 107.283 101.778 107.253L101.664 106.221C101.664 106.191 101.619 106.167 101.571 106.167H101.331C101.283 106.167 101.247 106.191 101.25 106.221L101.361 107.253C101.364 107.283 101.4 107.307 101.454 107.307Z" fill="black"/>
    <path d="M105 107.307H105.24C105.288 107.307 105.324 107.283 105.321 107.253L105.21 106.221C105.21 106.191 105.165 106.167 105.117 106.167H104.877C104.829 106.167 104.79 106.191 104.793 106.221L104.907 107.253C104.916 107.283 104.958 107.307 105 107.307Z" fill="#592CB8"/>
    <path opacity="0.4" d="M105 107.307H105.24C105.288 107.307 105.324 107.283 105.321 107.253L105.21 106.221C105.21 106.191 105.165 106.167 105.117 106.167H104.877C104.829 106.167 104.79 106.191 104.793 106.221L104.907 107.253C104.916 107.283 104.958 107.307 105 107.307Z" fill="black"/>
    <path d="M104.361 108.6L102.21 107.637L102.81 109.77C102.81 109.77 104.178 110.07 104.772 109.395L104.361 108.6Z" fill="#FFB573"/>
    <path d="M112.297 96.2131C112.396 96.9631 112.474 97.7131 112.564 98.4631L112.792 100.716C112.873 101.466 112.93 102.216 112.996 102.969L113.101 104.1L113.125 104.382C113.125 104.412 113.125 104.529 113.14 104.61C113.144 104.697 113.144 104.784 113.14 104.871C113.103 105.193 113.001 105.505 112.84 105.786C112.579 106.22 112.234 106.598 111.826 106.896C111.483 107.154 111.12 107.384 110.74 107.583C110.029 107.948 109.292 108.258 108.535 108.51C107.067 109.002 105.562 109.374 104.035 109.62L103.789 108.543C104.488 108.312 105.202 108.075 105.889 107.811C106.576 107.547 107.272 107.286 107.935 106.983C108.588 106.697 109.222 106.367 109.831 105.996C110.11 105.825 110.376 105.632 110.626 105.42C110.82 105.262 110.983 105.067 111.103 104.847C111.129 104.799 111.144 104.746 111.148 104.691L111.097 104.334L110.938 103.212C110.833 102.465 110.716 101.712 110.638 100.968L110.353 98.7211C110.272 97.9681 110.176 97.2211 110.107 96.4681L112.297 96.2131Z" fill="#FFB573"/>
    <path d="M111.261 93.5819C112.161 93.8519 113.217 96.9119 113.217 96.9119L110.1 100.113C110.1 100.113 108.504 96.8129 108.879 95.6759C109.275 94.4789 110.247 93.2759 111.261 93.5819Z" fill="#263238"/>
    <path d="M100.428 108.075L101.037 109.833L102.822 109.764L102.207 107.631L100.428 108.075Z" fill="#FFB573"/>
    <path d="M103.947 66.102H64.5572C64.2119 66.102 63.8808 65.9648 63.6366 65.7206C63.3924 65.4765 63.2552 65.1453 63.2552 64.8C63.2552 64.6291 63.2889 64.46 63.3544 64.3022C63.4199 64.1444 63.5158 64.0011 63.6368 63.8804C63.7577 63.7597 63.9013 63.6641 64.0592 63.599C64.2172 63.5339 64.3864 63.5006 64.5572 63.501H103.947C104.292 63.501 104.622 63.6378 104.866 63.8815C105.109 64.1251 105.246 64.4555 105.246 64.8C105.247 64.9708 105.213 65.1401 105.148 65.298C105.083 65.456 104.988 65.5995 104.867 65.7205C104.746 65.8414 104.603 65.9374 104.445 66.0028C104.287 66.0683 104.118 66.102 103.947 66.102Z" fill="white"/>
    <path d="M94.8002 71.571H64.5572C64.3864 71.5714 64.2172 71.538 64.0592 71.4729C63.9013 71.4078 63.7577 71.3122 63.6368 71.1916C63.5158 71.0709 63.4199 70.9276 63.3544 70.7698C63.2889 70.612 63.2552 70.4428 63.2552 70.272C63.2552 69.9267 63.3924 69.5955 63.6366 69.3513C63.8808 69.1071 64.2119 68.97 64.5572 68.97H94.8002C95.1456 68.97 95.4767 69.1071 95.7209 69.3513C95.9651 69.5955 96.1022 69.9267 96.1022 70.272C96.1022 70.4428 96.0685 70.612 96.0031 70.7698C95.9376 70.9276 95.8417 71.0709 95.7207 71.1916C95.5998 71.3122 95.4562 71.4078 95.2983 71.4729C95.1403 71.538 94.9711 71.5714 94.8002 71.571Z" fill="white"/>
    <path d="M70.4155 91.3979H85.4424C85.7878 91.3979 86.1189 91.2607 86.3631 91.0165C86.6073 90.7724 86.7444 90.4412 86.7444 90.0959C86.7444 89.925 86.7108 89.7559 86.6453 89.5981C86.5798 89.4403 86.4839 89.297 86.3629 89.1763C86.242 89.0556 86.0984 88.96 85.9405 88.8949C85.7825 88.8298 85.6133 88.7965 85.4424 88.7969H70.4155C70.0709 88.7969 69.7405 88.9337 69.4969 89.1774C69.2533 89.421 69.1165 89.7514 69.1165 90.0959C69.1161 90.2667 69.1494 90.436 69.2145 90.5939C69.2796 90.7519 69.3752 90.8954 69.4959 91.0164C69.6165 91.1373 69.7599 91.2333 69.9177 91.2987C70.0755 91.3642 70.2446 91.3979 70.4155 91.3979Z" fill="white"/>
    <path d="M53.7176 91.3979H64.0856C64.2564 91.3979 64.4256 91.3642 64.5834 91.2987C64.7412 91.2332 64.8845 91.1373 65.0052 91.0164C65.1258 90.8954 65.2215 90.7519 65.2866 90.5939C65.3517 90.436 65.385 90.2667 65.3846 90.0959C65.3846 89.7514 65.2477 89.421 65.0041 89.1774C64.7605 88.9337 64.4301 88.7969 64.0856 88.7969H53.7176C53.3731 88.7969 53.0427 88.9337 52.7991 89.1774C52.5554 89.421 52.4186 89.7514 52.4186 90.0959C52.4182 90.2667 52.4515 90.436 52.5166 90.5939C52.5817 90.7519 52.6773 90.8954 52.798 91.0164C52.9187 91.1373 53.062 91.2332 53.2198 91.2987C53.3776 91.3642 53.5467 91.3979 53.7176 91.3979Z" fill="white"/>
    <path d="M46.0532 96.8668H85.4432C85.614 96.8672 85.7832 96.8339 85.9412 96.7688C86.0991 96.7037 86.2427 96.6081 86.3636 96.4874C86.4846 96.3668 86.5805 96.2234 86.646 96.0657C86.7115 95.9079 86.7452 95.7387 86.7452 95.5679C86.7452 95.2225 86.608 94.8914 86.3638 94.6472C86.1197 94.403 85.7885 94.2659 85.4432 94.2659H46.0532C45.8823 94.2659 45.7132 94.2996 45.5554 94.365C45.3976 94.4305 45.2542 94.5265 45.1336 94.6474C45.0129 94.7683 44.9173 94.9119 44.8522 95.0698C44.7871 95.2278 44.7538 95.397 44.7542 95.5679C44.7542 95.9124 44.891 96.2428 45.1346 96.4864C45.3782 96.73 45.7086 96.8668 46.0532 96.8668Z" fill="white"/>
    <path d="M29.9488 28.5C29.9488 28.7476 29.8753 28.9896 29.7377 29.1954C29.6001 29.4011 29.4046 29.5615 29.1758 29.6561C28.9471 29.7507 28.6954 29.7753 28.4526 29.7268C28.2099 29.6783 27.987 29.5588 27.8121 29.3836C27.6373 29.2083 27.5184 28.9851 27.4705 28.7422C27.4225 28.4994 27.4477 28.2477 27.5429 28.0192C27.638 27.7907 27.7988 27.5955 28.0049 27.4584C28.2111 27.3213 28.4532 27.2484 28.7008 27.249C29.032 27.2498 29.3495 27.382 29.5834 27.6165C29.8174 27.851 29.9488 28.1688 29.9488 28.5Z" fill="white"/>
    <path d="M32.952 29.751C33.643 29.751 34.203 29.1909 34.203 28.5C34.203 27.8091 33.643 27.249 32.952 27.249C32.2611 27.249 31.701 27.8091 31.701 28.5C31.701 29.1909 32.2611 29.751 32.952 29.751Z" fill="white"/>
    <path d="M37.203 29.751C37.8939 29.751 38.454 29.1909 38.454 28.5C38.454 27.8091 37.8939 27.249 37.203 27.249C36.5121 27.249 35.952 27.8091 35.952 28.5C35.952 29.1909 36.5121 29.751 37.203 29.751Z" fill="white"/>
</svg>
