<svg width="150" height="150" viewBox="0 0 150 150" fill="none" xmlns="http://www.w3.org/2000/svg">
    <path d="M150 114.72H0V114.795H150V114.72Z" fill="#EBEBEB"/>
    <path d="M71.0994 101.34H13.1724C12.7186 101.339 12.2837 101.158 11.9631 100.837C11.6425 100.516 11.4624 100.081 11.4624 99.627V18.198C11.4664 17.7468 11.6482 17.3154 11.9683 16.9975C12.2885 16.6795 12.7212 16.5008 13.1724 16.5H71.0994C71.5537 16.5 71.9894 16.6805 72.3107 17.0017C72.6319 17.323 72.8124 17.7587 72.8124 18.213V99.627C72.8124 100.081 72.6319 100.517 72.3107 100.838C71.9894 101.16 71.5537 101.34 71.0994 101.34ZM13.1724 16.56C12.7385 16.5608 12.3226 16.7337 12.0161 17.0408C11.7096 17.3479 11.5374 17.7641 11.5374 18.198V99.627C11.5374 100.061 11.7096 100.477 12.0161 100.784C12.3226 101.091 12.7385 101.264 13.1724 101.265H71.0994C71.5336 101.264 71.9498 101.091 72.2568 100.784C72.5638 100.477 72.7366 100.061 72.7374 99.627V18.198C72.7366 17.7638 72.5638 17.3476 72.2568 17.0406C71.9498 16.7336 71.5336 16.5608 71.0994 16.56H13.1724Z" fill="#EBEBEB"/>
    <path d="M135.993 101.34H78.063C77.6089 101.339 77.1737 101.158 76.8526 100.837C76.5315 100.516 76.3508 100.081 76.35 99.627V18.198C76.3547 17.7465 76.5372 17.3151 76.8578 16.9973C77.1785 16.6794 77.6115 16.5008 78.063 16.5H135.993C136.444 16.5016 136.876 16.6807 137.195 16.9985C137.515 17.3164 137.696 17.7473 137.7 18.198V99.627C137.7 100.08 137.52 100.515 137.2 100.836C136.88 101.157 136.446 101.338 135.993 101.34ZM78.063 16.56C77.6288 16.5608 77.2126 16.7336 76.9056 17.0406C76.5986 17.3476 76.4258 17.7638 76.425 18.198V99.627C76.4258 100.061 76.5986 100.477 76.9056 100.784C77.2126 101.091 77.6288 101.264 78.063 101.265H135.993C136.427 101.264 136.843 101.091 137.15 100.784C137.457 100.477 137.63 100.061 137.631 99.627V18.198C137.63 17.7638 137.457 17.3476 137.15 17.0406C136.843 16.7336 136.427 16.5608 135.993 16.56H78.063Z" fill="#EBEBEB"/>
    <path d="M60.1324 117.576H52.3324V117.651H60.1324V117.576Z" fill="#EBEBEB"/>
    <path d="M31.9673 116.763H15.7373V116.838H31.9673V116.763Z" fill="#EBEBEB"/>
    <path d="M52.0326 120.363H44.1366V120.438H52.0326V120.363Z" fill="#EBEBEB"/>
    <path d="M89.1177 119.859H77.4688V119.934H89.1177V119.859Z" fill="#EBEBEB"/>
    <path d="M94.9944 119.859H91.7874V119.934H94.9944V119.859Z" fill="#EBEBEB"/>
    <path d="M134.973 118.593H118.605V118.668H134.973V118.593Z" fill="#EBEBEB"/>
    <path d="M46.6767 24.3184H19.7937V82.4554H46.6767V24.3184Z" fill="#E6E6E6"/>
    <path d="M47.7059 24.3184H20.8229V82.4554H47.7059V24.3184Z" fill="#F5F5F5"/>
    <path d="M45.8584 80.7332V26.0432H22.6684L22.6684 80.7332H45.8584Z" fill="white"/>
    <path d="M45.8584 80.7332V26.0432H45.0814V80.7332H45.8584Z" fill="#E6E6E6"/>
    <path d="M46.9434 73.6467H21.5874V75.9597H46.9434V73.6467Z" fill="#F5F5F5"/>
    <path d="M46.9434 67.5447H21.5874V69.8577H46.9434V67.5447Z" fill="#F5F5F5"/>
    <path d="M83.658 24.3184H56.775V82.4554H83.658V24.3184Z" fill="#E6E6E6"/>
    <path d="M84.6872 24.3184H57.8042V82.4554H84.6872V24.3184Z" fill="#F5F5F5"/>
    <path d="M82.8384 80.7332V26.0432H59.6484V80.7332H82.8384Z" fill="white"/>
    <path d="M82.8416 80.7332V26.0432H82.0646V80.7332H82.8416Z" fill="#E6E6E6"/>
    <path d="M83.9247 73.6467H58.5687V75.9597H83.9247V73.6467Z" fill="#F5F5F5"/>
    <path d="M83.9247 67.5447H58.5687V69.8577H83.9247V67.5447Z" fill="#F5F5F5"/>
    <path d="M103.923 65.9217C107.91 66.9567 112.248 70.2687 113.481 73.5447C113.827 70.6707 114.292 67.8117 114.876 64.9677C114.565 65.3461 114.213 65.6892 113.826 65.9907C108.267 70.7157 105.081 60.0777 107.298 52.0317C111.123 53.5557 115.011 57.3927 115.824 60.8037C116.53 57.9857 117.352 55.1957 118.29 52.4337C117.933 52.7748 117.539 53.0766 117.117 53.3337C111.006 57.3537 109.173 46.3647 112.41 38.5917C116.01 40.5867 119.385 44.8917 119.757 48.4077C120.737 45.8717 121.82 43.3717 123.006 40.9077C118.806 40.8297 120.555 32.8767 124.323 28.4817C127.248 32.4447 129.063 39.6567 124.296 40.7637C123.838 41.6997 123.395 42.6407 122.967 43.5867C125.757 41.3307 131.187 41.4867 134.913 43.2087C131.553 48.6597 124.185 55.3887 121.623 48.9297C121.457 48.4715 121.345 47.9951 121.29 47.5107C120.21 50.1967 119.245 52.9167 118.395 55.6707C120.873 53.1117 126.27 52.6047 130.182 53.8497C127.56 59.6127 121.098 67.1607 117.741 61.1007C117.517 60.6702 117.347 60.2138 117.234 59.7417C116.5 62.5217 115.885 65.3217 115.389 68.1417C117.525 65.3067 122.814 64.1457 126.849 64.8927C124.974 70.8927 119.502 79.1727 115.416 73.5927C115.14 73.1951 114.915 72.7648 114.744 72.3117C114.362 75.1517 114.1 78.0047 113.958 80.8707C115.725 77.7927 120.828 75.9927 124.926 76.2327C123.816 82.4067 119.406 91.3107 114.66 86.2737C114.551 86.145 114.415 86.042 114.261 85.9719C114.107 85.9018 113.94 85.8664 113.771 85.8681C113.602 85.8698 113.436 85.9087 113.284 85.9819C113.131 86.0551 112.997 86.1608 112.89 86.2917L112.743 86.4747C112.729 83.5767 112.837 80.6837 113.067 77.7957C112.801 78.2072 112.494 78.5902 112.149 78.9387C107.211 84.2997 102.729 74.1417 103.923 65.9217Z" fill="#F5F5F5"/>
    <path d="M119.055 72.5133C116.427 73.3503 113.619 75.7473 112.881 78.0213C112.579 76.0753 112.198 74.1423 111.738 72.2223C111.954 72.4682 112.197 72.6895 112.461 72.8823C116.28 75.9213 118.14 68.5683 116.463 63.1563C113.955 64.3203 111.459 67.0563 111.003 69.4143C110.463 67.5183 109.847 65.6433 109.155 63.7893C109.4 64.0075 109.669 64.1977 109.956 64.3563C114.126 66.8973 115.074 59.3493 112.722 54.1563C110.373 55.6323 108.237 58.6803 108.075 61.0833C107.361 59.3873 106.578 57.7193 105.726 56.0793C108.513 55.8903 107.16 50.5263 104.541 47.6553C102.693 50.4513 101.664 55.4253 104.865 56.0223C105.191 56.6463 105.509 57.2743 105.819 57.9063C103.905 56.4573 100.293 56.7423 97.8574 58.0383C100.23 61.6383 105.3 65.9883 106.857 61.5033C106.956 61.1854 107.019 60.8573 107.043 60.5253C107.829 62.3253 108.539 64.1473 109.173 65.9913C107.46 64.3293 103.854 64.1583 101.28 65.1333C103.17 68.9793 107.658 73.9113 109.743 69.6723C109.881 69.3716 109.982 69.0553 110.043 68.7303C110.601 70.5983 111.08 72.4883 111.48 74.4003C109.98 72.5373 106.44 71.9193 103.77 72.5613C105.168 76.5933 109.017 82.0533 111.597 78.1173C111.773 77.8355 111.913 77.5332 112.014 77.2173C112.338 79.1393 112.583 81.0753 112.749 83.0253C111.498 80.9853 108.054 79.9233 105.333 80.2233C106.233 84.3933 109.383 90.3213 112.416 86.7303C112.484 86.6397 112.571 86.5654 112.671 86.5129C112.772 86.4603 112.882 86.4308 112.995 86.4265C113.108 86.4222 113.221 86.4432 113.325 86.488C113.428 86.5327 113.521 86.6001 113.595 86.6853L113.7 86.8053C113.634 84.8313 113.49 82.8633 113.268 80.9013C113.454 81.1723 113.668 81.4228 113.907 81.6483C117.321 85.1463 120.051 78.0783 119.055 72.5133Z" fill="#EBEBEB"/>
    <path d="M125.79 82.2837C125.79 82.2837 125.508 114.72 114.759 114.72C104.01 114.72 103.728 82.2837 103.728 82.2837H125.79Z" fill="#F0F0F0"/>
    <path d="M29.292 106.464L87.4771 106.464V86.6671H29.292V106.464Z" fill="#F5F5F5"/>
    <path d="M85.8782 104.862V88.2661H30.8942V104.862H85.8782Z" fill="#EBEBEB"/>
    <path d="M67.4585 104.865V88.2686H30.8915V104.865H67.4585Z" fill="#E6E6E6"/>
    <path d="M67.4585 104.865V88.2686H42.6875V104.865H67.4585Z" fill="#E0E0E0"/>
    <path d="M83.9873 99.3513V93.7803H83.4833V99.3513H83.9873Z" fill="#E0E0E0"/>
    <path d="M85.8782 89.5711V88.2661H30.8942V89.5711H85.8782Z" fill="#E0E0E0"/>
    <path d="M29.2923 86.6672H21.2313V106.464H29.2923V86.6672Z" fill="#E6E6E6"/>
    <path d="M30.0715 114.72H29.2915V106.464H30.6385L30.0715 114.72Z" fill="#F5F5F5"/>
    <path d="M86.6972 114.72H87.4772V106.464H86.1302L86.6972 114.72Z" fill="#F5F5F5"/>
    <path d="M22.0113 114.72H21.2313V106.464H22.5783L22.0113 114.72Z" fill="#E6E6E6"/>
    <path d="M78.6357 114.72H79.4157V106.464H78.0687L78.6357 114.72Z" fill="#E6E6E6"/>
    <path d="M75.0005 128.268C107.125 128.268 133.168 126.748 133.168 124.872C133.168 122.997 107.125 121.476 75.0005 121.476C42.8757 121.476 16.8335 122.997 16.8335 124.872C16.8335 126.748 42.8757 128.268 75.0005 128.268Z" fill="#F5F5F5"/>
    <path d="M85.8844 40.0593C91.5004 38.1423 95.4004 34.4163 95.7304 29.8773C96.2494 22.7313 87.7234 16.2873 76.6864 15.4773C65.6494 14.6673 56.2864 19.8243 55.7644 26.9733C55.3414 32.8083 60.9454 38.1723 69.0214 40.3803C66.9214 42.7203 63.4804 43.5813 63.4804 43.5813C63.4804 43.5813 70.0534 43.2003 72.3484 41.1003C73.1524 41.2233 73.9714 41.3193 74.8084 41.3793C77.5495 41.5873 80.3062 41.4106 82.9984 40.8543C85.0834 43.0593 90.4714 44.5323 90.4714 44.5323C90.4714 44.5323 87.1834 42.9003 85.8844 40.0593Z" fill="white"/>
    <path opacity="0.3" d="M85.8844 40.0593C91.5004 38.1423 95.4004 34.4163 95.7304 29.8773C96.2494 22.7313 87.7234 16.2873 76.6864 15.4773C65.6494 14.6673 56.2864 19.8243 55.7644 26.9733C55.3414 32.8083 60.9454 38.1723 69.0214 40.3803C66.9214 42.7203 63.4804 43.5813 63.4804 43.5813C63.4804 43.5813 70.0534 43.2003 72.3484 41.1003C73.1524 41.2233 73.9714 41.3193 74.8084 41.3793C77.5495 41.5873 80.3062 41.4106 82.9984 40.8543C85.0834 43.0593 90.4714 44.5323 90.4714 44.5323C90.4714 44.5323 87.1834 42.9003 85.8844 40.0593Z" fill="#592CB8"/>
    <path d="M87.601 34.7285L85.231 34.9205C85.3806 35.2686 85.4529 35.6451 85.4427 36.024C85.4325 36.4028 85.3401 36.7749 85.172 37.1145C85.0038 37.4541 84.7639 37.7531 84.4688 37.9908C84.1737 38.2286 83.8304 38.3993 83.4628 38.4914C83.0952 38.5834 82.712 38.5944 82.3397 38.5237C81.9674 38.453 81.6149 38.3023 81.3066 38.082C80.9983 37.8616 80.7415 37.5769 80.5541 37.2476C80.3666 36.9182 80.253 36.5521 80.221 36.1745C80.1976 35.8885 80.222 35.6005 80.293 35.3225L76.285 35.6495L75.958 31.6385C76.5919 31.8074 77.2669 31.719 77.836 31.3925C78.2861 31.1423 78.6544 30.7674 78.8966 30.3129C79.1387 29.8584 79.2444 29.3436 79.201 28.8305C79.1598 28.42 79.0219 28.025 78.7988 27.678C78.5756 27.331 78.2734 27.0418 77.917 26.834C77.5605 26.6262 77.1599 26.5058 76.748 26.4826C76.3361 26.4594 75.9245 26.534 75.547 26.7005L75.22 22.6925L79.231 22.3655C79.0713 22.0053 78.9974 21.613 79.015 21.2195C79.0459 20.5856 79.3039 19.9839 79.7418 19.5245C80.1797 19.0652 80.7683 18.7787 81.4 18.7175C81.816 18.6802 82.2349 18.7431 82.6216 18.9011C83.0082 19.059 83.3514 19.3074 83.6223 19.6253C83.8932 19.9432 84.084 20.3214 84.1785 20.7282C84.2731 21.1351 84.2688 21.5587 84.166 21.9635L86.539 21.7715C86.9724 21.7366 87.402 21.8749 87.7337 22.156C88.0655 22.4371 88.2723 22.8382 88.309 23.2715L89.101 32.9615C89.1358 33.3946 88.9975 33.8238 88.7163 34.1551C88.4351 34.4863 88.034 34.6925 87.601 34.7285Z" fill="#263238"/>
    <path d="M76.681 26.4876C76.2915 26.4732 75.9039 26.547 75.547 26.7036L75.22 22.6956L71.215 23.0196C71.3395 23.3043 71.4116 23.6092 71.428 23.9196C71.4497 24.5979 71.2073 25.2582 70.7517 25.7613C70.2962 26.2644 69.6631 26.5711 68.9859 26.6166C68.3087 26.6621 67.6403 26.4429 67.1216 26.0053C66.6028 25.5677 66.2742 24.9457 66.205 24.2706C66.1808 23.9847 66.2041 23.6968 66.274 23.4186L63.904 23.6136C63.6894 23.631 63.4804 23.6905 63.2888 23.7887C63.0973 23.887 62.927 24.022 62.7877 24.1861C62.6484 24.3503 62.5428 24.5402 62.4769 24.7452C62.4111 24.9501 62.3863 25.166 62.404 25.3806L63.19 35.0646C63.2266 35.4978 63.4335 35.8989 63.7652 36.1801C64.0969 36.4612 64.5265 36.5994 64.96 36.5646L67.333 36.3696C67.2005 36.8816 67.2287 37.4221 67.414 37.9176C67.5374 38.2427 67.7244 38.5399 67.9641 38.7919C68.2037 39.0438 68.4912 39.2455 68.8097 39.3851C69.1283 39.5246 69.4714 39.5993 69.8191 39.6047C70.1668 39.61 70.5121 39.546 70.8348 39.4164C71.1575 39.2868 71.4511 39.0941 71.6984 38.8497C71.9458 38.6052 72.1419 38.3139 72.2753 37.9928C72.4088 37.6717 72.4769 37.3272 72.4756 36.9794C72.4743 36.6317 72.4037 36.2877 72.268 35.9676L76.279 35.6436L75.952 31.6326C76.23 31.7036 76.5179 31.7279 76.804 31.7046C77.4961 31.6487 78.1378 31.3203 78.5878 30.7915C79.0379 30.2626 79.2595 29.5767 79.204 28.8846C79.1437 28.2477 78.855 27.6542 78.3913 27.2136C77.9275 26.773 77.32 26.5151 76.681 26.4876Z" fill="#592CB8"/>
    <path d="M71.662 18.4229C71.4286 18.2012 71.1811 17.9947 70.921 17.8049L71.113 17.5349C71.387 17.7323 71.6466 17.9489 71.89 18.1829L71.662 18.4229Z" fill="#263238"/>
    <path d="M73.666 21.1801C73.3804 20.5148 72.9938 19.8976 72.52 19.3501L72.775 19.1401C73.2714 19.7168 73.6762 20.3664 73.975 21.0661L73.666 21.1801Z" fill="#592CB8"/>
    <path d="M75.8758 20.487H75.5458C75.5547 19.1609 76.0257 17.8793 76.8778 16.863L77.1328 17.076C76.3302 18.0325 75.8857 19.2385 75.8758 20.487Z" fill="#263238"/>
    <path d="M74.3009 18.9395C74.3009 18.9245 73.9499 17.2925 73.299 16.3205L73.572 16.1345C74.2619 17.1605 74.6099 18.8045 74.6249 18.8735L74.3009 18.9395Z" fill="#592CB8"/>
    <path d="M78.8999 40.1312C78.6497 39.9043 78.4152 39.6607 78.1979 39.4022L78.4499 39.1892C78.6587 39.4345 78.8832 39.666 79.1219 39.8822L78.8999 40.1312Z" fill="#263238"/>
    <path d="M77.7398 38.8866C77.2146 38.1935 76.8174 37.4123 76.5668 36.5796L76.8878 36.4956C77.1265 37.2902 77.5033 38.0366 78.0008 38.7006L77.7398 38.8866Z" fill="#592CB8"/>
    <path d="M75.526 38.6253C75.3928 37.9422 75.4789 37.2345 75.772 36.6033L76.072 36.7503C75.8187 37.3143 75.7423 37.9419 75.853 38.5503L75.526 38.6253Z" fill="#592CB8"/>
    <path d="M54.9234 97.263C52.9944 86.496 52.1904 73.515 52.1904 73.515L62.4714 73.353C62.4714 73.353 61.5924 90.849 61.1664 98.178C60.7254 105.795 60.4164 120.459 60.4164 120.459H56.8704C56.8704 120.459 53.8524 106.683 54.9234 97.263Z" fill="#263238"/>
    <path opacity="0.2" d="M57.0006 76.4465C57.0006 76.4465 55.6056 86.8985 54.4596 94.5605C53.4425 88.1195 52.7975 81.3605 52.4615 77.2835L57.0006 76.4465Z" fill="black"/>
    <path d="M65.1805 124.059C65.1805 124.059 60.4195 122.94 60.2095 121.317L57.1735 121.71L56.8405 124.872H58.0945L58.2955 124.479L58.7155 124.872C62.9755 124.872 64.5535 124.827 65.3425 124.572C65.3674 124.48 65.3654 124.383 65.3367 124.292C65.308 124.201 65.2537 124.12 65.1805 124.059Z" fill="#263238"/>
    <path d="M56.7419 122.283C57.8819 122.349 60.1589 122.181 60.6029 121.962C61.0469 121.743 60.7829 119.976 60.7829 119.976C60.7829 119.976 56.8019 119.58 56.4509 119.799C56.0999 120.018 56.7419 122.283 56.7419 122.283Z" fill="#592CB8"/>
    <path opacity="0.3" d="M56.7419 122.283C57.8819 122.349 60.1589 122.181 60.6029 121.962C61.0469 121.743 60.7829 119.976 60.7829 119.976C60.7829 119.976 56.8019 119.58 56.4509 119.799C56.0999 120.018 56.7419 122.283 56.7419 122.283Z" fill="white"/>
    <path d="M45.3779 96.9574C47.1329 86.1304 47.0759 78.8974 48.8309 73.5574L58.8659 73.4194C58.8659 73.4194 53.9999 90.6004 51.7979 97.7524C49.5959 104.904 45.5639 120.459 45.5639 120.459H42.2999C42.2999 120.459 42.4439 105.333 45.3779 96.9574Z" fill="#263238"/>
    <path d="M48.9835 124.059C48.9835 124.059 45.3835 122.94 45.1825 121.317L42.1465 121.71L41.8165 124.872H42.5995L42.8005 124.479L43.2205 124.872C47.4805 124.872 48.3565 124.827 49.1455 124.572C49.1705 124.48 49.1685 124.383 49.1398 124.292C49.111 124.201 49.0568 124.12 48.9835 124.059Z" fill="#263238"/>
    <path d="M41.8165 122.205C42.5155 122.349 45.1645 122.181 45.6385 121.962C46.1125 121.743 45.9655 119.889 45.9655 119.889C45.9655 119.889 42.3655 119.46 41.9785 119.679C41.5915 119.898 41.8165 122.205 41.8165 122.205Z" fill="#592CB8"/>
    <path opacity="0.3" d="M41.8165 122.205C42.5155 122.349 45.1645 122.181 45.6385 121.962C46.1125 121.743 45.9655 119.889 45.9655 119.889C45.9655 119.889 42.3655 119.46 41.9785 119.679C41.5915 119.898 41.8165 122.205 41.8165 122.205Z" fill="white"/>
    <path d="M62.4181 54.4561L63.2791 55.1971L64.1791 55.9471C64.7791 56.4481 65.3791 56.9281 65.9791 57.3961C66.2791 57.6271 66.5791 57.8521 66.8791 58.0651C67.1791 58.2781 67.4791 58.4881 67.7641 58.6651C68.0491 58.8421 68.3461 59.0191 68.6101 59.1631C68.8151 59.273 69.0276 59.3683 69.2461 59.4481L68.8351 59.4181C68.7781 59.4451 68.9221 59.4481 69.1051 59.4181C69.3315 59.3594 69.5523 59.2811 69.7651 59.1841C70.2961 58.9432 70.8111 58.6686 71.3071 58.3621C71.8411 58.0621 72.3751 57.7021 72.9121 57.3451L74.5261 56.2651L74.5651 56.2411C74.7941 56.0945 75.0661 56.0301 75.3365 56.0583C75.6069 56.0865 75.8597 56.2057 76.0535 56.3964C76.2473 56.5871 76.3706 56.8379 76.4033 57.1078C76.4359 57.3777 76.3759 57.6507 76.2331 57.8821C75.8424 58.4763 75.4188 59.0482 74.9641 59.5951C74.5069 60.1479 74.0202 60.6757 73.5061 61.1761C72.9611 61.7089 72.372 62.1947 71.7451 62.6281C71.3847 62.877 71.0033 63.0938 70.6051 63.2761C70.0784 63.5256 69.5095 63.6741 68.9281 63.7141C68.8383 63.7232 68.7479 63.7232 68.6581 63.7141L68.5171 63.6931C67.9402 63.6045 67.3754 63.4494 66.8341 63.2311C66.3803 63.0525 65.9376 62.8471 65.5081 62.6161C64.715 62.1945 63.9486 61.7246 63.2131 61.2091C62.4931 60.7141 61.8121 60.1891 61.1491 59.6521C60.8191 59.3791 60.4891 59.1091 60.1711 58.8241C59.8531 58.5391 59.5471 58.2631 59.2111 57.9391C58.7646 57.511 58.5028 56.9255 58.4816 56.3073C58.4604 55.6891 58.6815 55.0871 59.0976 54.6295C59.5138 54.1719 60.0922 53.8948 60.7096 53.8574C61.3271 53.8199 61.9347 54.0251 62.4031 54.4291L62.4181 54.4561Z" fill="#CF7A64"/>
    <path d="M74.9373 58.4249L77.5953 58.4039L76.6773 55.3499C76.6773 55.3499 74.2773 55.6499 74.2323 56.9669L74.9373 58.4249Z" fill="#CE7A63"/>
    <path d="M79.548 56.448L79.044 55.434C78.9474 55.2379 78.7842 55.0826 78.5836 54.9957C78.383 54.9089 78.1581 54.8962 77.949 54.96L76.677 55.35L77.595 58.404L79.113 57.693C79.2241 57.6407 79.3236 57.5668 79.4058 57.4756C79.488 57.3844 79.5512 57.2777 79.5917 57.1618C79.6322 57.0459 79.6492 56.923 79.6417 56.8005C79.6342 56.6779 79.6023 56.5581 79.548 56.448Z" fill="#CE7A63"/>
    <path d="M59.9815 52.8241C59.0203 53.5469 58.3571 54.5967 58.1172 55.7751C57.8773 56.9536 58.0774 58.1791 58.6796 59.2201C58.8446 59.5192 59.0517 59.793 59.2945 60.0331C60.3475 61.0321 62.9575 61.9141 64.6705 62.6581C66.8515 61.8811 67.9705 59.5711 67.6375 58.2901C65.9785 56.0911 62.9485 52.8691 61.3765 52.4431C60.8995 52.3111 60.4405 52.5001 59.9815 52.8241Z" fill="#263238"/>
    <path d="M50.3765 51.957C53.4471 51.6183 56.5446 51.5982 59.6194 51.897C60.8847 52.0307 62.0554 52.629 62.9049 53.5761C63.7545 54.5232 64.2225 55.7517 64.2184 57.024C64.2034 61.752 63.4444 66.975 62.6584 74.238C60.4204 76.551 48.4145 74.145 48.4145 74.145C48.5405 71.5093 48.8654 68.8868 49.3865 66.3C48.9785 63.3 47.9405 59.88 47.3555 55.905C47.2893 55.4467 47.3154 54.9798 47.4322 54.5317C47.549 54.0836 47.7541 53.6633 48.0355 53.2955C48.3169 52.9278 48.6689 52.6199 49.0709 52.3901C49.4729 52.1602 49.9168 52.013 50.3765 51.957Z" fill="#592CB8"/>
    <g opacity="0.2">
        <path opacity="0.2" d="M49.8661 56.9995C49.8459 56.9995 49.8265 56.9917 49.812 56.9778C49.7974 56.9638 49.7889 56.9447 49.7881 56.9245C49.7873 56.914 49.7886 56.9035 49.7919 56.8935C49.7953 56.8836 49.8006 56.8744 49.8077 56.8665C49.8147 56.8587 49.8232 56.8523 49.8327 56.8479C49.8422 56.8434 49.8526 56.8409 49.8631 56.8405C50.46 56.8062 51.0297 56.5788 51.4861 56.1925C51.3987 56.1526 51.3217 56.0931 51.2611 56.0185C51.186 55.9177 51.1328 55.8022 51.1051 55.6795C50.9281 55.0345 51.0871 54.1795 51.7261 53.8375C51.8319 53.7651 51.959 53.7304 52.0869 53.7391C52.2148 53.7478 52.3361 53.7994 52.4311 53.8855C52.4922 53.9673 52.5314 54.0634 52.5451 54.1645C52.6021 54.576 52.5309 54.995 52.3411 55.3645C52.2043 55.6439 52.0217 55.8984 51.8011 56.1175H51.8551C52.0908 56.1293 52.3261 56.088 52.5437 55.9966C52.7612 55.9052 52.9555 55.7661 53.1121 55.5895C53.4275 55.226 53.6132 54.768 53.6401 54.2875C53.6404 54.2771 53.6429 54.2669 53.6474 54.2575C53.6519 54.2482 53.6583 54.2398 53.6662 54.233C53.6741 54.2263 53.6834 54.2212 53.6933 54.2182C53.7033 54.2152 53.7137 54.2143 53.7241 54.2155C53.745 54.2171 53.7646 54.2267 53.7786 54.2424C53.7926 54.258 53.7999 54.2785 53.7991 54.2995C53.7685 54.8157 53.5681 55.3072 53.2291 55.6975C53.0569 55.8926 52.8428 56.0461 52.6027 56.1464C52.3626 56.2467 52.1029 56.2912 51.8431 56.2765C51.7815 56.2705 51.7204 56.2604 51.6601 56.2465C51.1616 56.6915 50.5272 56.9548 49.8601 56.9935L49.8661 56.9995ZM52.0891 53.8975C51.9889 53.9011 51.8911 53.9289 51.8041 53.9785C51.2401 54.2785 51.1021 55.0675 51.2581 55.6405C51.2805 55.7403 51.3234 55.8343 51.3841 55.9165C51.4461 55.9913 51.5284 56.0465 51.6211 56.0755C51.8586 55.8524 52.0537 55.5882 52.1971 55.2955C52.3725 54.9558 52.4395 54.5705 52.3891 54.1915C52.3807 54.118 52.3539 54.0479 52.3111 53.9875C52.2844 53.9544 52.2506 53.9278 52.2121 53.9096C52.1737 53.8914 52.1316 53.8822 52.0891 53.8825V53.8975Z" fill="white"/>
        <path opacity="0.2" d="M56.5867 59.9669H56.5597C56.0734 59.7937 55.6578 59.4646 55.3777 59.0309C55.2374 58.8102 55.149 58.5605 55.1194 58.3006C55.0898 58.0408 55.1197 57.7776 55.2067 57.5309C55.23 57.4732 55.2571 57.4171 55.2877 57.3629C54.9998 56.764 54.9226 56.0853 55.0687 55.4369C55.0759 55.419 55.0893 55.4042 55.1064 55.3952C55.1235 55.3862 55.1433 55.3837 55.1622 55.3881C55.181 55.3924 55.1977 55.4034 55.2092 55.4189C55.2206 55.4345 55.2262 55.4536 55.2247 55.4729C55.092 56.0569 55.1509 56.6681 55.3927 57.2159C55.4555 57.1419 55.5346 57.0834 55.6237 57.0449C55.7404 57.0007 55.8653 56.9823 55.9897 56.9909C56.6617 56.9909 57.4237 57.3869 57.5857 58.1009C57.6259 58.2224 57.6241 58.3537 57.5806 58.474C57.537 58.5943 57.4543 58.6964 57.3457 58.7639C57.2502 58.8003 57.1469 58.8117 57.0457 58.7969C56.6351 58.7358 56.253 58.5505 55.9507 58.2659C55.72 58.0569 55.5263 57.8105 55.3777 57.5369C55.3777 57.5549 55.3627 57.5729 55.3567 57.5879C55.2803 57.8108 55.2546 58.048 55.2816 58.2821C55.3086 58.5162 55.3875 58.7413 55.5127 58.9409C55.7723 59.3457 56.1599 59.652 56.6137 59.8109C56.6237 59.8143 56.6329 59.8196 56.6408 59.8266C56.6487 59.8336 56.655 59.8421 56.6595 59.8517C56.664 59.8612 56.6665 59.8716 56.6669 59.8821C56.6673 59.8926 56.6655 59.9031 56.6617 59.9129C56.6566 59.9288 56.6466 59.9425 56.6331 59.9522C56.6196 59.962 56.6034 59.9671 56.5867 59.9669ZM55.4677 57.3779C55.6192 57.6693 55.8225 57.9306 56.0677 58.1489C56.3443 58.4139 56.6967 58.5859 57.0757 58.6409C57.1481 58.6542 57.2226 58.648 57.2917 58.6229C57.4477 58.5539 57.4867 58.3229 57.4417 58.1399C57.3007 57.5129 56.5927 57.1619 55.9987 57.1499C55.8967 57.1443 55.7946 57.1596 55.6987 57.1949C55.6052 57.2316 55.5248 57.2953 55.4677 57.3779Z" fill="white"/>
        <path opacity="0.2" d="M62.7279 58.0076C62.6662 58.0103 62.6046 57.9994 62.5475 57.9755C62.4905 57.9516 62.4394 57.9155 62.3979 57.8696C62.3334 57.7903 62.2919 57.6949 62.2779 57.5936C62.209 57.1853 62.2699 56.7656 62.4519 56.3936C62.5817 56.1109 62.7571 55.8515 62.9709 55.6256H62.9169C62.6815 55.6206 62.4479 55.6681 62.2331 55.7646C62.0182 55.8612 61.8276 56.0043 61.6749 56.1836C61.3684 56.5555 61.1942 57.0189 61.1799 57.5006C61.1784 57.5216 61.1688 57.5411 61.1531 57.5551C61.1374 57.5691 61.1169 57.5764 61.0959 57.5756C61.075 57.5741 61.0554 57.5645 61.0415 57.5488C61.0275 57.5331 61.0201 57.5126 61.0209 57.4916C61.0374 56.9753 61.2253 56.4792 61.5549 56.0816C61.7232 55.8844 61.934 55.7279 62.1715 55.624C62.4089 55.52 62.6669 55.4714 62.9259 55.4816C62.9885 55.4843 63.0507 55.4923 63.1119 55.5056C63.5954 55.0495 64.2196 54.7713 64.8819 54.7166C64.8923 54.7154 64.9028 54.7163 64.9127 54.7193C64.9227 54.7223 64.9319 54.7273 64.9398 54.7341C64.9477 54.7409 64.9541 54.7492 64.9586 54.7586C64.9631 54.768 64.9656 54.7782 64.9659 54.7886C64.9668 54.8091 64.9599 54.8292 64.9465 54.8448C64.9331 54.8604 64.9144 54.8703 64.8939 54.8726C64.2969 54.9242 63.7322 55.1661 63.2829 55.5626C63.3734 55.5988 63.4537 55.6564 63.5169 55.7306C63.5934 55.8292 63.6486 55.9426 63.6789 56.0636C63.8709 56.7056 63.7329 57.5486 63.1029 57.9206C62.9871 57.9803 62.8582 58.0101 62.7279 58.0076ZM63.1539 55.6616C62.9217 55.8898 62.7327 56.1581 62.5959 56.4536C62.4291 56.7981 62.3715 57.1854 62.4309 57.5636C62.4435 57.6361 62.4722 57.7048 62.5149 57.7646C62.5881 57.8194 62.677 57.849 62.7684 57.849C62.8598 57.849 62.9488 57.8194 63.0219 57.7646C63.5769 57.4406 63.6969 56.6606 63.5289 56.0906C63.5037 55.9908 63.4588 55.897 63.3969 55.8146C63.3319 55.7418 63.2477 55.6887 63.1539 55.6616Z" fill="white"/>
        <path opacity="0.2" d="M59.6432 56.4299H59.6282C59.6077 56.4255 59.5897 56.4134 59.578 56.3961C59.5662 56.3787 59.5617 56.3575 59.5652 56.3369C59.6826 55.7503 59.609 55.1415 59.3552 54.5999C59.2927 54.6737 59.2149 54.733 59.1272 54.7739C59.0113 54.8217 58.8865 54.8442 58.7612 54.8399C58.0922 54.8399 57.3272 54.4709 57.1502 53.7659C57.1066 53.6453 57.1051 53.5136 57.1459 53.3921C57.1868 53.2706 57.2676 53.1665 57.3752 53.0969C57.4702 53.0584 57.5735 53.045 57.6752 53.0579C58.088 53.1076 58.4749 53.2848 58.7822 53.5649C59.0202 53.767 59.223 54.0073 59.3822 54.2759L59.4002 54.2249C59.4721 54.0001 59.4924 53.762 59.4597 53.5283C59.4269 53.2946 59.342 53.0713 59.2112 52.8749C58.94 52.4776 58.5442 52.182 58.0862 52.0349C58.0665 52.0274 58.0505 52.0126 58.0415 51.9936C58.0326 51.9745 58.0314 51.9528 58.0382 51.9329C58.0416 51.9229 58.0469 51.9137 58.0539 51.9058C58.0609 51.8979 58.0694 51.8915 58.079 51.8871C58.0885 51.8826 58.0988 51.8801 58.1094 51.8797C58.1199 51.8793 58.1304 51.8811 58.1402 51.8849C58.6292 52.043 59.0515 52.3597 59.3402 52.7849C59.4876 53.0022 59.5829 53.2506 59.6188 53.5107C59.6547 53.7708 59.6302 54.0357 59.5472 54.2849C59.5267 54.3428 59.5016 54.3989 59.4722 54.4529C59.7747 55.0457 59.8677 55.7234 59.7362 56.3759C59.7295 56.3943 59.7165 56.4098 59.6995 56.4197C59.6825 56.4296 59.6626 56.4332 59.6432 56.4299ZM57.5822 53.2109C57.5309 53.2093 57.4798 53.2185 57.4322 53.2379C57.2792 53.3099 57.2462 53.5379 57.2942 53.7239C57.4502 54.3449 58.1612 54.6779 58.7522 54.6779C58.8547 54.6829 58.9571 54.6655 59.0522 54.6269C59.1408 54.5858 59.2158 54.5202 59.2682 54.4379C59.1152 54.1519 58.912 53.8958 58.6682 53.6819C58.386 53.4241 58.0305 53.2606 57.6512 53.2139L57.5822 53.2109Z" fill="white"/>
        <path opacity="0.2" d="M51.1661 65.0997C51.1476 65.0961 51.131 65.0862 51.1191 65.0717C51.1071 65.0572 51.1006 65.039 51.1006 65.0202C51.1006 65.0014 51.1071 64.9832 51.1191 64.9687C51.131 64.9542 51.1476 64.9443 51.1661 64.9407C51.7638 64.9058 52.3342 64.6785 52.7921 64.2927C52.7038 64.2528 52.6258 64.1933 52.5641 64.1187C52.4893 64.0187 52.4362 63.9043 52.4081 63.7827C52.2311 63.1347 52.3901 62.2827 53.0321 61.9407C53.1367 61.867 53.2633 61.8313 53.391 61.8395C53.5187 61.8477 53.6397 61.8993 53.7341 61.9857C53.7952 62.0675 53.8344 62.1635 53.8481 62.2647C53.9051 62.6762 53.8339 63.0952 53.6441 63.4647C53.5057 63.7385 53.3221 63.987 53.1011 64.1997H53.1551C53.3908 64.2115 53.6261 64.1702 53.8437 64.0788C54.0612 63.9874 54.2555 63.8483 54.4121 63.6717C54.728 63.3086 54.9139 62.8504 54.9401 62.3697C54.9404 62.3593 54.9429 62.3491 54.9474 62.3397C54.9519 62.3303 54.9583 62.322 54.9662 62.3152C54.9741 62.3085 54.9833 62.3034 54.9933 62.3004C55.0033 62.2974 55.0137 62.2965 55.0241 62.2977C55.045 62.2993 55.0646 62.3089 55.0786 62.3246C55.0925 62.3402 55.0999 62.3607 55.0991 62.3817C55.0692 62.898 54.8687 63.3897 54.5291 63.7797C54.3569 63.9748 54.1427 64.1283 53.9027 64.2286C53.6626 64.3289 53.4028 64.3734 53.1431 64.3587C53.0815 64.3524 53.0204 64.3424 52.9601 64.3287C52.4617 64.7739 51.8272 65.0372 51.1601 65.0757L51.1661 65.0997ZM53.4011 61.9947C53.2961 61.9948 53.1928 62.0217 53.1011 62.0727C52.5371 62.3727 52.3991 63.1617 52.5551 63.7347C52.5775 63.8345 52.6204 63.9284 52.6811 64.0107C52.7431 64.0854 52.8254 64.1407 52.9181 64.1697C53.156 63.947 53.3512 63.6827 53.4941 63.3897C53.6695 63.05 53.7365 62.6647 53.6861 62.2857C53.6777 62.2122 53.6509 62.142 53.6081 62.0817C53.5814 62.0538 53.5492 62.0317 53.5136 62.0167C53.478 62.0018 53.4397 61.9943 53.4011 61.9947Z" fill="white"/>
        <path opacity="0.2" d="M58.0661 68.3997H58.0361C57.5502 68.2257 57.1349 67.8968 56.8541 67.4637C56.7134 67.2431 56.6251 66.9932 56.596 66.7332C56.5669 66.4732 56.5977 66.21 56.6861 65.9637C56.7083 65.906 56.7344 65.8499 56.7641 65.7957C56.477 65.1964 56.4008 64.5177 56.5481 63.8697C56.5506 63.8596 56.555 63.8501 56.5612 63.8417C56.5674 63.8333 56.5752 63.8263 56.5841 63.821C56.5931 63.8157 56.603 63.8122 56.6133 63.8108C56.6236 63.8094 56.6341 63.81 56.6441 63.8127C56.6541 63.8148 56.6636 63.8189 56.6719 63.8248C56.6803 63.8307 56.6873 63.8382 56.6927 63.8469C56.698 63.8556 56.7015 63.8653 56.703 63.8754C56.7044 63.8856 56.7038 63.8959 56.7011 63.9057C56.5696 64.49 56.6295 65.1011 56.8721 65.6487C56.9351 65.5748 57.0141 65.5163 57.1031 65.4777C57.2201 65.4346 57.3447 65.4162 57.4691 65.4237C58.1381 65.4237 58.9031 65.8197 59.0651 66.5337C59.1056 66.6554 59.1036 66.7872 59.0594 66.9077C59.0153 67.0281 58.9317 67.13 58.8221 67.1967C58.727 67.2349 58.6233 67.2463 58.5221 67.2297C58.1109 67.1707 57.7281 66.9851 57.4271 66.6987C57.1973 66.4889 57.0037 66.2426 56.8541 65.9697C56.8541 65.9877 56.8541 66.0057 56.8331 66.0207C56.7567 66.2436 56.731 66.4808 56.758 66.7149C56.785 66.949 56.8639 67.1741 56.9891 67.3737C57.2498 67.7787 57.6384 68.0849 58.0931 68.2437C58.1031 68.247 58.1123 68.2523 58.1201 68.2594C58.1279 68.2665 58.1341 68.2751 58.1383 68.2847C58.1426 68.2943 58.1448 68.3047 58.1447 68.3152C58.1447 68.3257 58.1424 68.3361 58.1381 68.3457C58.1336 68.3613 58.1241 68.375 58.1111 68.3847C58.0981 68.3944 58.0824 68.3997 58.0661 68.3997ZM56.9471 65.8107C57.0965 66.1034 57.3001 66.365 57.5471 66.5817C57.8233 66.8461 58.1742 67.0189 58.5521 67.0767C58.6258 67.0876 58.7009 67.0804 58.7711 67.0557C58.9271 66.9867 58.9631 66.7557 58.9211 66.5727C58.7801 65.9457 58.0721 65.5947 57.4781 65.5827C57.3761 65.5761 57.2738 65.5915 57.1781 65.6277C57.0849 65.6648 57.0046 65.7284 56.9471 65.8107Z" fill="white"/>
        <path opacity="0.2" d="M52.3722 69.8672C52.3566 69.8666 52.3414 69.8615 52.3286 69.8524C52.3159 69.8434 52.306 69.8308 52.3002 69.8162C52.1061 69.3397 52.0745 68.8125 52.2102 68.3162C52.2822 68.0658 52.41 67.835 52.5841 67.6412C52.7582 67.4474 52.974 67.2956 53.2152 67.1972C53.2727 67.1755 53.3319 67.1584 53.3922 67.1462C53.6488 66.5329 54.1042 66.0236 54.6852 65.7002C54.6945 65.693 54.7053 65.6879 54.7168 65.6853C54.7283 65.6827 54.7402 65.6827 54.7518 65.6852C54.7633 65.6877 54.7741 65.6926 54.7835 65.6997C54.7929 65.7068 54.8007 65.7159 54.8062 65.7263C54.8117 65.7367 54.8149 65.7482 54.8156 65.76C54.8162 65.7717 54.8143 65.7835 54.8099 65.7945C54.8055 65.8054 54.7988 65.8153 54.7902 65.8233C54.7816 65.8314 54.7714 65.8375 54.7602 65.8412C54.2329 66.1295 53.8122 66.5796 53.5602 67.1252C53.6565 67.1246 53.7517 67.1451 53.8392 67.1852C53.9555 67.2411 54.0579 67.322 54.1392 67.4222C54.5772 67.9322 54.7962 68.7572 54.3702 69.3542C54.3025 69.4644 54.1997 69.5485 54.0783 69.5931C53.957 69.6378 53.8241 69.6403 53.7012 69.6002C53.611 69.5522 53.5346 69.482 53.4792 69.3962C53.2503 69.05 53.135 68.641 53.1492 68.2262C53.1522 67.9195 53.2059 67.6154 53.3082 67.3262L53.2572 67.3442C53.0409 67.4361 52.8479 67.575 52.6922 67.751C52.5365 67.9269 52.422 68.1354 52.3572 68.3612C52.2301 68.8247 52.2596 69.3172 52.4412 69.7622C52.4451 69.7719 52.447 69.7822 52.4468 69.7926C52.4466 69.803 52.4443 69.8132 52.4402 69.8227C52.436 69.8322 52.4299 69.8408 52.4224 69.8479C52.4148 69.855 52.4059 69.8606 52.3962 69.8642L52.3722 69.8672ZM53.5032 67.2812C53.3846 67.5854 53.3226 67.9087 53.3202 68.2352C53.3058 68.6167 53.4107 68.9932 53.6202 69.3122C53.6593 69.3752 53.7141 69.4269 53.7792 69.4622C53.9352 69.5342 54.1272 69.4112 54.2412 69.2552C54.6132 68.7302 54.4062 67.9712 54.0192 67.5182C53.9554 67.4379 53.8758 67.3715 53.7852 67.3232C53.6967 67.2841 53.5993 67.2696 53.5032 67.2812Z" fill="white"/>
        <path opacity="0.2" d="M51.9996 75.1381C51.4844 75.1132 50.9923 74.9168 50.6016 74.5801C50.4029 74.4105 50.2456 74.1977 50.1416 73.958C50.0376 73.7184 49.9897 73.4581 50.0016 73.1971C50.0066 73.1356 50.0156 73.0745 50.0286 73.0141C49.5811 72.5163 49.3148 71.8821 49.2726 71.2141C49.2717 71.2038 49.2731 71.1934 49.2765 71.1836C49.2799 71.1738 49.2853 71.1648 49.2923 71.1572C49.2994 71.1495 49.3079 71.1435 49.3174 71.1393C49.3269 71.1352 49.3372 71.1331 49.3476 71.1331C49.3686 71.1323 49.3891 71.1396 49.4047 71.1536C49.4204 71.1676 49.43 71.1872 49.4316 71.2081C49.4726 71.8043 49.7028 72.3718 50.0886 72.8281C50.1285 72.7399 50.188 72.6619 50.2626 72.6001C50.3626 72.5249 50.477 72.4708 50.5986 72.4411C51.2436 72.2641 52.0836 72.4171 52.4436 73.0411C52.5174 73.1461 52.5534 73.2729 52.5457 73.401C52.5381 73.529 52.4873 73.6507 52.4016 73.7461C52.3194 73.8071 52.2237 73.8473 52.1226 73.8631C51.7114 73.9209 51.2925 73.8507 50.9226 73.6621C50.6431 73.5278 50.3877 73.3484 50.1666 73.1311C50.1651 73.1491 50.1651 73.1672 50.1666 73.1851C50.1532 73.4242 50.1943 73.6632 50.2869 73.8841C50.3794 74.1049 50.5208 74.3019 50.7006 74.4601C51.0661 74.7734 51.5249 74.9569 52.0056 74.9821C52.016 74.9825 52.0262 74.985 52.0356 74.9895C52.045 74.994 52.0533 75.0004 52.0601 75.0083C52.0668 75.0162 52.0719 75.0254 52.0749 75.0354C52.0779 75.0453 52.0788 75.0558 52.0776 75.0661C52.0772 75.076 52.0749 75.0857 52.0707 75.0946C52.0666 75.1036 52.0608 75.1116 52.0535 75.1183C52.0463 75.125 52.0378 75.1302 52.0285 75.1336C52.0193 75.137 52.0094 75.1385 51.9996 75.1381ZM50.1996 72.9721C50.4247 73.2091 50.6911 73.4033 50.9856 73.5451C51.3259 73.7187 51.7112 73.7836 52.0896 73.7311C52.1632 73.7211 52.2332 73.6933 52.2936 73.6501C52.4226 73.5391 52.3926 73.3111 52.2936 73.1431C51.9786 72.5821 51.2016 72.4471 50.6286 72.6061C50.5283 72.6297 50.4336 72.6725 50.3496 72.7321C50.2848 72.7997 50.2374 72.8821 50.2116 72.9721H50.1996Z" fill="white"/>
        <path opacity="0.2" d="M49.5187 68.2438C49.0035 68.2164 48.5119 68.0192 48.1207 67.6828C47.9218 67.5133 47.7644 67.3006 47.6604 67.0609C47.5564 66.8211 47.5086 66.5608 47.5207 66.2998C47.5261 66.2383 47.5352 66.1772 47.5477 66.1168C47.1033 65.623 46.8372 64.9946 46.7917 64.3318C46.7909 64.3108 46.7982 64.2903 46.8122 64.2746C46.8262 64.259 46.8457 64.2493 46.8667 64.2478C46.8875 64.2477 46.9076 64.2553 46.9231 64.2691C46.9386 64.283 46.9485 64.3021 46.9507 64.3228C46.9911 64.92 47.2213 65.4887 47.6077 65.9458C47.6482 65.8571 47.7076 65.7783 47.7817 65.7148C47.8817 65.6401 47.9961 65.5869 48.1177 65.5588C48.7627 65.3788 49.6177 65.5318 49.9627 66.1588C50.0365 66.2637 50.0725 66.3906 50.0649 66.5186C50.0572 66.6467 50.0064 66.7684 49.9207 66.8638C49.8389 66.9249 49.7429 66.9642 49.6417 66.9778C49.2308 67.0381 48.8114 66.9689 48.4417 66.7798C48.1615 66.6455 47.9059 66.465 47.6857 66.2458C47.6845 66.2638 47.6845 66.2818 47.6857 66.2998C47.6755 66.5354 47.7182 66.7703 47.8106 66.9873C47.903 67.2043 48.0428 67.3978 48.2197 67.5538C48.5847 67.8673 49.044 68.05 49.5247 68.0728C49.5456 68.0743 49.5652 68.084 49.5792 68.0996C49.5932 68.1153 49.6005 68.1358 49.5997 68.1568C49.6005 68.1679 49.599 68.1791 49.5953 68.1896C49.5916 68.2002 49.5858 68.2098 49.5782 68.218C49.5706 68.2262 49.5614 68.2327 49.5511 68.2371C49.5409 68.2416 49.5299 68.2438 49.5187 68.2438ZM47.7187 66.0748C47.9429 66.3129 48.2094 66.5072 48.5047 66.6478C48.8445 66.8227 49.2303 66.8876 49.6087 66.8338C49.6826 66.8252 49.753 66.7973 49.8127 66.7528C49.9417 66.6448 49.9117 66.4168 49.8127 66.2488C49.5127 65.6878 48.7207 65.5528 48.1477 65.7118C48.048 65.7342 47.954 65.7771 47.8717 65.8378C47.8051 65.9034 47.7565 65.985 47.7307 66.0748H47.7187Z" fill="white"/>
        <path opacity="0.2" d="M64.0269 65.361C63.9655 65.3635 63.9042 65.3527 63.8473 65.3294C63.7903 65.3061 63.7391 65.2709 63.6969 65.226C63.6324 65.1468 63.5909 65.0513 63.5769 64.95C63.5102 64.5417 63.571 64.1226 63.7509 63.75C63.8808 63.4683 64.0561 63.2098 64.2699 62.985H64.2159C63.9805 62.9801 63.7469 63.0276 63.5321 63.1241C63.3172 63.2206 63.1266 63.3637 62.9739 63.543C62.6674 63.9138 62.4932 64.3762 62.4789 64.857C62.4786 64.8675 62.4761 64.8779 62.4716 64.8874C62.4671 64.8969 62.4608 64.9054 62.4529 64.9124C62.4451 64.9195 62.4359 64.9248 62.4259 64.9282C62.416 64.9315 62.4054 64.9328 62.3949 64.932C62.3745 64.9305 62.3554 64.9213 62.3415 64.9063C62.3276 64.8913 62.3199 64.8715 62.3199 64.851C62.3357 64.3346 62.5237 63.8383 62.8539 63.441C63.0213 63.2417 63.2315 63.0829 63.469 62.9764C63.7064 62.8699 63.9648 62.8185 64.2249 62.826C64.2874 62.8312 64.3495 62.8403 64.4109 62.853C64.8949 62.3972 65.5186 62.1182 66.1809 62.061C66.1914 62.0602 66.202 62.0615 66.2119 62.0649C66.2219 62.0683 66.2311 62.0736 66.2389 62.0806C66.2468 62.0876 66.2531 62.0961 66.2576 62.1057C66.2621 62.1152 66.2646 62.1255 66.2649 62.136C66.2658 62.1565 66.2589 62.1766 66.2455 62.1922C66.2321 62.2078 66.2134 62.2178 66.1929 62.22C65.597 62.27 65.033 62.5109 64.5849 62.907C64.6735 62.9465 64.7524 63.0048 64.8159 63.078C64.8936 63.1759 64.9489 63.2895 64.9779 63.411C65.1699 64.053 65.0319 64.896 64.4019 65.265C64.2874 65.329 64.1582 65.3621 64.0269 65.361ZM64.4559 63.015C64.2241 63.244 64.036 63.5134 63.9009 63.81C63.7358 64.154 63.6783 64.5398 63.7359 64.917C63.7476 64.9912 63.7775 65.0613 63.8229 65.121C63.9339 65.247 64.1619 65.214 64.3269 65.121C64.8819 64.794 65.0019 64.014 64.8339 63.447C64.8087 63.3472 64.7638 63.2534 64.7019 63.171C64.6352 63.0982 64.5503 63.0443 64.4559 63.015Z" fill="white"/>
        <path opacity="0.2" d="M63.6452 70.8266C63.6253 70.8259 63.6063 70.8179 63.5919 70.8041C63.5775 70.7902 63.5687 70.7715 63.5672 70.7516C63.5198 70.1553 63.2809 69.5902 62.8862 69.1406C62.8468 69.2292 62.7884 69.3081 62.7152 69.3716C62.6166 69.4481 62.5032 69.5033 62.3822 69.5336C61.7402 69.7226 60.8972 69.5816 60.5282 68.9486C60.4532 68.8447 60.4156 68.7184 60.4216 68.5904C60.4276 68.4623 60.4768 68.3401 60.5612 68.2436C60.6405 68.1791 60.736 68.1376 60.8372 68.1236C61.2462 68.057 61.6658 68.1199 62.0372 68.3036C62.3191 68.4345 62.5775 68.6109 62.8022 68.8256C62.8022 68.8076 62.8022 68.7896 62.8022 68.7746C62.8084 68.5387 62.7621 68.3044 62.6666 68.0885C62.5711 67.8727 62.4289 67.6808 62.2502 67.5266C61.8789 67.2203 61.4172 67.0443 60.9362 67.0256C60.9155 67.0256 60.8957 67.0174 60.8811 67.0028C60.8664 66.9882 60.8582 66.9683 60.8582 66.9476C60.8582 66.9269 60.8664 66.9071 60.8811 66.8925C60.8957 66.8778 60.9155 66.8696 60.9362 66.8696C61.4526 66.8861 61.9484 67.0764 62.3432 67.4096C62.5414 67.5777 62.6985 67.7889 62.8025 68.0271C62.9064 68.2652 62.9546 68.524 62.9432 68.7836C62.9404 68.8452 62.9323 68.9064 62.9192 68.9666C63.3721 69.4528 63.648 70.0774 63.7022 70.7396C63.703 70.7503 63.7017 70.761 63.6984 70.7711C63.6951 70.7813 63.6898 70.7906 63.6828 70.7987C63.6758 70.8068 63.6673 70.8134 63.6578 70.8182C63.6483 70.823 63.6379 70.8259 63.6272 70.8266H63.6452ZM61.1462 68.2526C61.0525 68.2515 60.959 68.2605 60.8672 68.2796C60.7938 68.2889 60.7244 68.3179 60.6662 68.3636C60.5372 68.4746 60.5702 68.7026 60.6662 68.8676C60.9902 69.4256 61.7702 69.5486 62.3372 69.3806C62.4369 69.3565 62.5308 69.3126 62.6132 69.2516C62.6841 69.1862 62.7368 69.1035 62.7662 69.0116C62.5395 68.7761 62.2709 68.5849 61.9742 68.4476C61.715 68.3252 61.4328 68.2587 61.1462 68.2526Z" fill="white"/>
        <path opacity="0.2" d="M61.3233 75.15C61.268 75.1519 61.2128 75.1425 61.1612 75.1224C61.1097 75.1023 61.0627 75.0719 61.0233 75.033C60.9535 74.9581 60.9048 74.8659 60.8823 74.766C60.7913 74.3656 60.8248 73.9469 60.9783 73.566C61.0875 73.2749 61.2446 73.0042 61.4433 72.765H61.3893C61.1538 72.7749 60.9237 72.8377 60.7159 72.9489C60.5081 73.06 60.3281 73.2166 60.1893 73.407C59.9088 73.7976 59.7663 74.2705 59.7843 74.751C59.7851 74.7616 59.7837 74.7723 59.7802 74.7823C59.7766 74.7923 59.7709 74.8015 59.7636 74.8091C59.7562 74.8168 59.7472 74.8228 59.7374 74.8267C59.7275 74.8307 59.7169 74.8325 59.7063 74.832C59.6856 74.832 59.6658 74.8238 59.6511 74.8092C59.6365 74.7945 59.6283 74.7747 59.6283 74.754C59.6086 74.238 59.7617 73.7302 60.0633 73.311C60.2166 73.1008 60.4155 72.9282 60.6452 72.8061C60.8749 72.6839 61.1293 72.6155 61.3893 72.606C61.4512 72.6018 61.5133 72.6018 61.5753 72.606C62.0291 72.1223 62.6325 71.8053 63.2883 71.706C63.2985 71.7046 63.3089 71.7053 63.3189 71.7079C63.3289 71.7106 63.3383 71.7152 63.3465 71.7214C63.3547 71.7277 63.3616 71.7355 63.3668 71.7445C63.372 71.7534 63.3754 71.7633 63.3768 71.7735C63.3782 71.7838 63.3775 71.7942 63.3749 71.8042C63.3722 71.8142 63.3676 71.8235 63.3614 71.8318C63.3551 71.84 63.3473 71.8469 63.3383 71.8521C63.3294 71.8573 63.3195 71.8606 63.3093 71.862C62.7186 71.9536 62.1728 72.2322 61.7523 72.657C61.8433 72.6901 61.9261 72.7423 61.9953 72.81C62.0782 72.9046 62.1414 73.0148 62.1813 73.134C62.4153 73.761 62.3373 74.61 61.7313 75.024C61.6101 75.1042 61.4685 75.1479 61.3233 75.15ZM61.6233 72.777C61.4067 73.0215 61.236 73.303 61.1193 73.608C60.975 73.9619 60.9435 74.3516 61.0293 74.724C61.0449 74.7974 61.079 74.8655 61.1283 74.922C61.2051 74.9711 61.2959 74.9939 61.3868 74.9868C61.4777 74.9798 61.5639 74.9434 61.6323 74.883C62.1633 74.52 62.2323 73.734 62.0223 73.179C61.992 73.0803 61.9408 72.9892 61.8723 72.912C61.8042 72.8469 61.7205 72.8004 61.6293 72.777H61.6233Z" fill="white"/>
        <path opacity="0.2" d="M55.0746 76.179C55.0584 76.179 55.0427 76.1741 55.0293 76.165C55.0159 76.1559 55.0056 76.1431 54.9996 76.128C54.9957 76.1184 54.9938 76.1081 54.994 76.0977C54.9942 76.0873 54.9965 76.0771 55.0007 76.0676C55.0048 76.0581 55.0109 76.0495 55.0184 76.0424C55.026 76.0353 55.0349 76.0297 55.0446 76.026C55.5986 75.8002 56.0647 75.4014 56.3736 74.889C56.2779 74.8781 56.1857 74.8464 56.1036 74.796C56 74.7259 55.9121 74.635 55.8456 74.529C55.4736 73.971 55.3536 73.125 55.8456 72.585C55.8898 72.5045 55.9558 72.4381 56.036 72.3934C56.1163 72.3486 56.2075 72.3274 56.2992 72.3321C56.3909 72.3368 56.4795 72.3672 56.5547 72.4199C56.63 72.4726 56.6888 72.5454 56.7246 72.6301C56.9112 73.0006 56.9773 73.4201 56.9136 73.8301C56.8771 74.1428 56.7879 74.4471 56.6496 74.73H56.7006C56.9271 74.6658 57.1363 74.5516 57.3128 74.3958C57.4893 74.2401 57.6286 74.0468 57.7206 73.8301C57.9035 73.3842 57.932 72.89 57.8016 72.426C57.797 72.4058 57.8003 72.3845 57.8109 72.3667C57.8215 72.3488 57.8386 72.3357 57.8586 72.3301C57.8686 72.3274 57.8791 72.3267 57.8894 72.3281C57.8997 72.3295 57.9097 72.333 57.9186 72.3383C57.9276 72.3436 57.9353 72.3507 57.9415 72.359C57.9477 72.3674 57.9521 72.3769 57.9546 72.387C58.092 72.8829 58.0614 73.4104 57.8676 73.887C57.7669 74.1271 57.613 74.3411 57.4176 74.5131C57.2223 74.6851 56.9904 74.8105 56.7396 74.88C56.6797 74.8964 56.6185 74.9075 56.5566 74.913C56.2294 75.4915 55.7168 75.9428 55.1016 76.194L55.0746 76.179ZM56.3196 72.504C56.1808 72.5168 56.0526 72.5836 55.9626 72.69C55.5306 73.167 55.6626 73.947 55.9776 74.439C56.032 74.5272 56.1034 74.6037 56.1876 74.664C56.2713 74.7129 56.3667 74.7378 56.4636 74.736C56.6194 74.449 56.7211 74.1358 56.7636 73.812C56.8211 73.4342 56.7614 73.0479 56.5926 72.7051C56.5595 72.6387 56.5112 72.5812 56.4516 72.537C56.4118 72.5132 56.3659 72.5017 56.3196 72.504Z" fill="white"/>
        <path opacity="0.2" d="M60.943 63.7827C60.9326 63.7806 60.9228 63.7764 60.9141 63.7703C60.9054 63.7643 60.898 63.7565 60.8924 63.7476C60.8868 63.7386 60.883 63.7286 60.8814 63.7181C60.8798 63.7076 60.8804 63.6969 60.883 63.6867C60.9993 63.0998 60.9246 62.4911 60.67 61.9497C60.6085 62.0253 60.5305 62.0858 60.442 62.1267C60.326 62.1737 60.2011 62.1952 60.076 62.1897C59.407 62.1897 58.642 61.8237 58.465 61.1187C58.4214 60.9981 58.4199 60.8664 58.4607 60.7449C58.5016 60.6234 58.5824 60.5193 58.69 60.4497C58.785 60.4113 58.8883 60.3978 58.99 60.4107C59.4028 60.4614 59.7901 60.6373 60.1 60.9147C60.3381 61.1179 60.5409 61.3591 60.7 61.6287L60.718 61.5777C60.7899 61.3529 60.8102 61.1148 60.7775 60.8811C60.7447 60.6474 60.6598 60.4241 60.529 60.2277C60.247 59.8294 59.8391 59.5377 59.371 59.3997C59.3611 59.3966 59.3519 59.3916 59.344 59.3849C59.336 59.3783 59.3295 59.3701 59.3247 59.3609C59.32 59.3517 59.3171 59.3416 59.3163 59.3312C59.3155 59.3209 59.3168 59.3105 59.32 59.3007C59.3275 59.2809 59.3421 59.2647 59.361 59.2552C59.3799 59.2458 59.4017 59.2438 59.422 59.2497C59.9096 59.4105 60.3311 59.7266 60.622 60.1497C60.7687 60.3674 60.8633 60.6158 60.8987 60.8759C60.9341 61.136 60.9092 61.4007 60.826 61.6497C60.8055 61.7085 60.7804 61.7657 60.751 61.8207C61.0533 62.4125 61.1463 63.0892 61.015 63.7407C61.0085 63.754 60.9982 63.7651 60.9854 63.7726C60.9726 63.7801 60.9578 63.7836 60.943 63.7827ZM58.882 60.5637C58.8305 60.5632 58.7794 60.5734 58.732 60.5937C58.579 60.6657 58.546 60.8937 58.594 61.0797C58.753 61.7007 59.461 62.0337 60.052 62.0337C60.1543 62.0353 60.256 62.018 60.352 61.9827C60.44 61.9407 60.5147 61.8753 60.568 61.7937C60.415 61.5068 60.2118 61.2497 59.968 61.0347C59.6855 60.7779 59.3301 60.6153 58.951 60.5697L58.882 60.5637Z" fill="white"/>
        <path opacity="0.2" d="M50.7341 62.8915H50.7161C50.6956 62.8865 50.6778 62.8737 50.6666 62.8558C50.6554 62.8378 50.6516 62.8162 50.6561 62.7955C50.7739 62.2087 50.6992 61.5995 50.4431 61.0585C50.3816 61.1342 50.3036 61.1947 50.2151 61.2355C50.0999 61.282 49.9763 61.3044 49.8521 61.3015C49.1861 61.3015 48.4211 60.9325 48.2411 60.2275C48.198 60.107 48.1968 59.9754 48.2376 59.854C48.2784 59.7327 48.3589 59.6286 48.4661 59.5585C48.5612 59.5201 48.6644 59.5067 48.7661 59.5195C49.1781 59.5701 49.5645 59.7461 49.8731 60.0235C50.112 60.2259 50.3149 60.4674 50.4731 60.7375C50.4731 60.7195 50.4881 60.7015 50.4941 60.6865C50.5647 60.4616 50.5843 60.2237 50.5516 59.9903C50.5189 59.7568 50.4347 59.5335 50.3051 59.3365C50.0328 58.9397 49.6375 58.6435 49.1801 58.4935C49.1702 58.4905 49.1611 58.4855 49.1532 58.4788C49.1454 58.4721 49.139 58.4638 49.1345 58.4545C49.13 58.4452 49.1275 58.4351 49.1271 58.4248C49.1266 58.4145 49.1284 58.4042 49.1321 58.3945C49.139 58.375 49.1531 58.3588 49.1715 58.3493C49.1899 58.3398 49.2112 58.3378 49.2311 58.3435C49.7187 58.5043 50.1402 58.8205 50.4311 59.2435C50.5778 59.4612 50.6724 59.7097 50.7078 59.9698C50.7432 60.2299 50.7183 60.4946 50.6351 60.7435C50.6159 60.8029 50.5908 60.8602 50.5601 60.9145C50.8618 61.5065 50.9558 62.1827 50.8271 62.8345C50.8215 62.8539 50.8089 62.8705 50.7917 62.881C50.7745 62.8916 50.7539 62.8953 50.7341 62.8915ZM48.6701 59.6725C48.6196 59.672 48.5695 59.6822 48.5231 59.7025C48.3701 59.7745 48.3371 60.0025 48.3851 60.1885C48.5411 60.8095 49.2491 61.1425 49.8401 61.1425C49.9424 61.1443 50.0442 61.127 50.1401 61.0915C50.2268 61.0487 50.3003 60.9835 50.3531 60.9025C50.2005 60.6155 49.9972 60.3583 49.7531 60.1435C49.469 59.8873 49.1129 59.725 48.7331 59.6785L48.6701 59.6725Z" fill="white"/>
    </g>
    <path d="M53.16 46.2334C53.2605 48.1223 52.9323 50.0094 52.2 51.7534C53.169 52.6534 54.744 53.7754 56.841 53.7454C58.938 53.7154 58.59 52.6414 58.041 51.9094C56.541 51.1534 56.442 50.0404 56.811 49.3654L53.16 46.2334Z" fill="#CE7A63"/>
    <path opacity="0.2" d="M56.7995 49.3683L55.1375 48.3303C54.3725 48.4503 54.0035 49.4253 54.9545 50.1603C55.6025 50.6613 56.6255 50.8593 56.7545 50.7243C56.655 50.5107 56.6072 50.2765 56.615 50.0409C56.6228 49.8054 56.686 49.5749 56.7995 49.3683Z" fill="black"/>
    <path d="M57.4528 42.1139C59.5887 41.6669 59.2318 44.3189 58.6768 45.6959C57.2758 43.6499 57.4528 42.1139 57.4528 42.1139Z" fill="#263238"/>
    <path d="M51.9816 44.9343C52.3956 47.2863 52.5246 48.5043 54.0366 49.3053C57.8076 51.2973 58.6626 49.9263 58.9626 47.5053C59.2296 45.3153 58.5096 41.8353 56.0826 41.1753C55.547 41.0323 54.984 41.0267 54.4456 41.1588C53.9072 41.2909 53.4107 41.5565 53.0021 41.931C52.5934 42.3056 52.2857 42.7771 52.1073 43.302C51.929 43.8269 51.8857 44.3882 51.9816 44.9343Z" fill="#CE7A63"/>
    <path d="M52.6859 46.8723C54.7349 47.2923 52.5419 45.1353 53.0159 44.2593C53.4899 43.3833 56.0669 44.0343 55.3289 42.6033C57.3299 43.1103 59.1839 43.2933 59.5889 41.9433C60.1889 39.9813 58.2749 39.6063 57.1469 40.1733C56.2019 40.6503 56.2109 40.8063 54.7979 40.3323C53.3849 39.8583 49.8749 40.1343 50.7719 41.7453C49.1759 41.8113 49.1759 43.8453 50.4959 44.4243C51.8159 45.0033 51.1409 46.5543 52.6859 46.8723Z" fill="#263238"/>
    <path d="M52.2563 45.7774C52.2394 45.7769 52.2231 45.7711 52.2097 45.7609C52.1962 45.7507 52.1863 45.7365 52.1813 45.7204C52.1781 45.7105 52.1768 45.7001 52.1776 45.6898C52.1784 45.6795 52.1813 45.6694 52.186 45.6602C52.1908 45.6509 52.1973 45.6428 52.2053 45.6361C52.2132 45.6294 52.2224 45.6244 52.2323 45.6214L55.4243 44.6314C55.4442 44.6256 55.4656 44.6277 55.484 44.6372C55.5024 44.6467 55.5165 44.6628 55.5233 44.6824C55.5266 44.6922 55.5278 44.7026 55.527 44.713C55.5262 44.7233 55.5233 44.7334 55.5186 44.7426C55.5138 44.7518 55.5073 44.76 55.4994 44.7666C55.4914 44.7733 55.4822 44.7783 55.4723 44.7814L52.2803 45.7714L52.2563 45.7774Z" fill="white"/>
    <path d="M51.1354 41.8561C50.3644 41.2351 49.3354 41.0821 49.3354 41.4481C49.3354 41.8141 50.7755 41.7481 50.9135 41.9941C51.0515 42.2401 51.1354 41.8561 51.1354 41.8561Z" fill="#263238"/>
    <path d="M57.7772 47.4725C56.8596 47.3343 55.9332 47.2631 55.0052 47.2595C55.2392 47.7275 55.6832 48.1175 56.7302 48.1445C57.7772 48.1715 57.7772 47.4725 57.7772 47.4725Z" fill="white"/>
    <path d="M51.2703 46.752C51.5091 47.2495 51.927 47.6384 52.4403 47.841C53.0943 48.078 53.4063 47.433 53.2143 46.728C53.0373 46.095 52.4883 45.207 51.8373 45.279C51.1863 45.351 50.9613 46.116 51.2703 46.752Z" fill="#CE7A63"/>
    <path d="M55.9736 44.9734C56.0036 45.1744 56.1356 45.3184 56.2736 45.2974C56.4116 45.2764 56.4866 45.0964 56.4566 44.8954C56.4266 44.6944 56.2946 44.5504 56.1566 44.5714C56.0186 44.5924 55.9436 44.7724 55.9736 44.9734Z" fill="#263238"/>
    <path d="M58.1491 44.925C58.1791 45.126 58.3081 45.273 58.4491 45.252C58.5901 45.231 58.6621 45.051 58.6321 44.85C58.6021 44.649 58.4701 44.502 58.3321 44.523C58.1941 44.544 58.1161 44.724 58.1491 44.925Z" fill="#263238"/>
    <path d="M55.1583 44.463C55.1379 44.4606 55.1184 44.4534 55.1013 44.442C55.0753 44.4244 55.0572 44.3972 55.051 44.3663C55.0449 44.3354 55.0511 44.3034 55.0683 44.277C55.1717 44.1164 55.3119 43.9829 55.4773 43.8874C55.6427 43.7919 55.8285 43.7373 56.0193 43.728C56.0511 43.728 56.0817 43.7407 56.1042 43.7632C56.1267 43.7857 56.1393 43.8162 56.1393 43.848C56.1393 43.8799 56.1267 43.9104 56.1042 43.9329C56.0817 43.9554 56.0511 43.968 56.0193 43.968C55.8689 43.9777 55.7229 44.0227 55.5932 44.0993C55.4634 44.176 55.3535 44.2821 55.2723 44.409C55.2607 44.4283 55.2437 44.4436 55.2235 44.4532C55.2032 44.4628 55.1805 44.4663 55.1583 44.463Z" fill="#263238"/>
    <path d="M58.7551 43.8004C58.7358 43.8042 58.7158 43.8032 58.697 43.7974C58.6781 43.7916 58.661 43.7813 58.6471 43.7674C58.5462 43.6567 58.4204 43.5716 58.28 43.5195C58.1396 43.4673 57.9888 43.4494 57.8401 43.4674C57.8245 43.4704 57.8085 43.4704 57.793 43.4672C57.7774 43.464 57.7627 43.4577 57.7496 43.4488C57.7364 43.4399 57.7252 43.4284 57.7166 43.4152C57.7079 43.4019 57.702 43.387 57.6991 43.3714C57.6938 43.3404 57.7009 43.3086 57.7189 43.2828C57.7368 43.257 57.7642 43.2392 57.7951 43.2334C57.9825 43.2066 58.1736 43.2259 58.3519 43.2897C58.5302 43.3535 58.6902 43.4598 58.8181 43.5994C58.8401 43.6218 58.8524 43.652 58.8524 43.6834C58.8524 43.7148 58.8401 43.745 58.8181 43.7674C58.8013 43.785 58.7791 43.7966 58.7551 43.8004Z" fill="#263238"/>
    <path d="M58.3921 46.3533C58.317 46.3513 58.2432 46.3333 58.1755 46.3008C58.1077 46.2682 58.0477 46.2217 57.9991 46.1643C57.7136 45.7581 57.5954 45.2574 57.6691 44.7663C57.7441 43.8843 58.1701 43.1943 58.6441 43.1943C58.7194 43.1958 58.7934 43.2135 58.8612 43.2461C58.929 43.2787 58.989 43.3255 59.0371 43.3833C59.3225 43.7886 59.4407 44.2882 59.3671 44.7783C59.2921 45.6603 58.8661 46.3533 58.3921 46.3533ZM58.6441 43.3533C58.2661 43.3533 57.8911 44.0073 57.8281 44.7813C57.7637 45.2299 57.8708 45.6863 58.1281 46.0593C58.1627 46.1003 58.2053 46.1336 58.2533 46.1574C58.3013 46.1811 58.3537 46.1947 58.4071 46.1973C58.7851 46.1973 59.1601 45.5433 59.2231 44.7693C59.2892 44.3216 59.1819 43.8656 58.9231 43.4943C58.8899 43.4514 58.8478 43.4163 58.7996 43.3915C58.7514 43.3666 58.6983 43.3526 58.6441 43.3503V43.3533Z" fill="white"/>
    <path d="M57.5281 44.9346C57.8336 45.5255 58.2204 46.0708 58.6771 46.5546C58.5493 46.6698 58.3983 46.7563 58.2342 46.808C58.0701 46.8598 57.8968 46.8757 57.7261 46.8546L57.5281 44.9346Z" fill="#BA4D3C"/>
    <path d="M50.4 57.2195L49.614 58.0385L48.813 58.8845C48.285 59.4485 47.769 60.0215 47.271 60.5885C47.025 60.8735 46.785 61.1615 46.557 61.4495C46.329 61.7375 46.101 62.0165 45.897 62.2985C45.693 62.5805 45.513 62.8595 45.357 63.1145C45.2352 63.3134 45.1279 63.521 45.036 63.7355L45.09 63.3275C45.063 63.2705 45.06 63.4385 45.09 63.6275C45.1383 63.8742 45.2086 64.1162 45.3 64.3505C45.5148 64.9226 45.7632 65.4816 46.044 66.0245C46.329 66.6035 46.644 67.1825 46.968 67.7705L47.946 69.5285L47.964 69.5615C48.0918 69.8029 48.1333 70.0807 48.0818 70.349C48.0303 70.6172 47.8889 70.8599 47.6808 71.0369C47.4727 71.2138 47.2104 71.3145 46.9374 71.3223C46.6643 71.33 46.3968 71.2443 46.179 71.0795C45.6092 70.6232 45.0653 70.1354 44.55 69.6185C44.034 69.1055 43.539 68.5685 43.05 67.9925C42.5562 67.3924 42.1089 66.7556 41.712 66.0875C41.4892 65.7025 41.2956 65.3014 41.133 64.8875C40.9145 64.3403 40.7985 63.7576 40.791 63.1685C40.7889 63.079 40.796 62.9895 40.812 62.9015L40.842 62.7605C40.9639 62.1897 41.1491 61.6342 41.394 61.1045C41.5989 60.6615 41.8293 60.2308 42.084 59.8145C42.5465 59.0447 43.0575 58.3052 43.614 57.6005C44.145 56.9075 44.706 56.2565 45.279 55.6235C45.579 55.3085 45.855 54.9935 46.158 54.6905C46.461 54.3875 46.758 54.0905 47.094 53.7905C47.5477 53.3812 48.1417 53.1627 48.7525 53.1804C49.3632 53.1982 49.9436 53.4508 50.3727 53.8858C50.8018 54.3207 51.0467 54.9044 51.0562 55.5153C51.0658 56.1262 50.8393 56.7173 50.424 57.1655L50.4 57.2195Z" fill="#CF7A64"/>
    <path d="M46.4066 68.8474L49.0646 68.8864L48.1286 71.9344C48.1286 71.9344 45.7286 71.6074 45.6926 70.3024L46.4066 68.8474Z" fill="#CE7A63"/>
    <path d="M50.9998 70.8515L50.4898 71.8625C50.3926 72.0586 50.2286 72.2135 50.0272 72.2993C49.8259 72.3851 49.6006 72.3962 49.3918 72.3305L48.1228 71.9345L49.0588 68.8865L50.5588 69.6065C50.6707 69.6579 50.7711 69.7312 50.8542 69.8222C50.9372 69.9131 51.0012 70.0197 51.0423 70.1358C51.0834 70.2519 51.1009 70.375 51.0936 70.4979C51.0863 70.6209 51.0544 70.7411 50.9998 70.8515Z" fill="#CE7A63"/>
    <path d="M49.842 52.0652C48.525 52.3832 46.956 52.9052 45.546 54.4652C44.1809 56.0789 42.9921 57.8338 42 59.7002C43.5 62.2982 45.924 62.5982 46.575 62.4272C48.858 60.8912 50.244 60.1082 50.886 58.0742C51.528 56.0402 50.826 53.6402 49.842 52.0652Z" fill="#263238"/>
    <path d="M56.1005 46.3533C56.0249 46.3513 55.9506 46.3334 55.8824 46.3009C55.8142 46.2683 55.7536 46.2218 55.7045 46.1643C55.4189 45.7581 55.3007 45.2574 55.3745 44.7663C55.4495 43.8843 55.8755 43.1943 56.3495 43.1943C56.4251 43.1958 56.4996 43.2134 56.5679 43.246C56.6362 43.2786 56.6967 43.3254 56.7455 43.3833C57.0315 43.7882 57.1488 44.2885 57.0725 44.7783C57.0005 45.6603 56.5595 46.3533 56.1005 46.3533ZM56.3495 43.3533C55.9715 43.3533 55.5995 44.0073 55.5335 44.7813C55.469 45.2299 55.5761 45.6863 55.8335 46.0593C55.8676 46.1007 55.9101 46.1343 55.9582 46.1581C56.0063 46.1819 56.0589 46.1953 56.1125 46.1973C56.4905 46.1973 56.8625 45.5433 56.9285 44.7693C56.9921 44.3217 56.885 43.8666 56.6285 43.4943C56.5937 43.4502 56.5495 43.4144 56.4992 43.3895C56.4489 43.3646 56.3936 43.3512 56.3375 43.3503L56.3495 43.3533Z" fill="white"/>
    <path d="M57.7464 44.8533C57.731 44.8533 57.7159 44.8488 57.7031 44.8402C57.6903 44.8317 57.6803 44.8195 57.6744 44.8053C57.6682 44.7892 57.6586 44.7747 57.6461 44.7628C57.6337 44.7508 57.6187 44.7418 57.6024 44.7363C57.3961 44.7111 57.1869 44.7487 57.0024 44.8443C56.993 44.8488 56.9827 44.8514 56.9723 44.8519C56.9619 44.8523 56.9514 44.8507 56.9416 44.8471C56.9318 44.8434 56.9229 44.8378 56.9153 44.8307C56.9077 44.8235 56.9016 44.8149 56.8974 44.8053C56.8891 44.7862 56.8885 44.7646 56.8958 44.745C56.9031 44.7254 56.9176 44.7094 56.9364 44.7003C57.1555 44.5886 57.4046 44.5497 57.6474 44.5893C57.719 44.6176 57.777 44.6724 57.8094 44.7423C57.8166 44.7615 57.8162 44.7827 57.8084 44.8016C57.8006 44.8205 57.786 44.8358 57.7674 44.8443C57.7609 44.8485 57.7538 44.8515 57.7464 44.8533Z" fill="white"/>
    <path d="M100.428 51.5672C102.777 48.8672 101.565 45.9182 98.9281 44.2922C96.2911 42.6662 93.2101 43.8542 92.0281 46.6112C90.8461 49.3682 91.2661 50.0822 90.5281 50.2322C90.1921 51.6842 91.2331 53.2082 92.4391 52.4042C94.2631 53.1752 97.4611 54.9752 100.428 51.5672Z" fill="#263238"/>
    <path d="M97.1994 53.7545C95.9094 53.7545 94.7694 53.1935 93.9354 52.7825L93.5634 52.5995L93.6834 52.3475C93.8004 52.4015 93.9264 52.4645 94.0584 52.5305C95.6484 53.3135 98.0484 54.4955 100.61 51.8315C101.555 50.8475 101.993 49.7315 101.882 48.6395C101.762 47.4695 101.012 46.3295 99.8244 45.5135L99.9834 45.2825C101.24 46.1465 102.032 47.3585 102.161 48.6125C102.281 49.8125 101.816 50.9825 100.814 52.0235C99.5604 53.3315 98.3244 53.7545 97.1994 53.7545Z" fill="#263238"/>
    <path d="M91.7695 47.7002C91.2625 45.9242 91.8415 42.3182 96.2695 42.3152C100.697 42.3122 102.569 45.4442 100.724 48.0422C95.3815 49.2512 91.7695 47.7002 91.7695 47.7002Z" fill="#263238"/>
    <path d="M89.9395 51.2705C87.1825 51.9965 89.5705 56.5925 92.2795 54.4955C91.6795 54.4535 90.3595 53.1275 91.3795 52.2695C90.2995 51.3275 89.9395 51.2705 89.9395 51.2705Z" fill="#263238"/>
    <path d="M89.9756 55.374C89.7204 55.3739 89.4688 55.3143 89.2406 55.2C88.8486 54.9743 88.53 54.6402 88.323 54.238C88.116 53.8357 88.0294 53.3823 88.0736 52.932C88.1091 52.5552 88.2642 52.1996 88.5163 51.9173C88.7684 51.635 89.1042 51.4408 89.4746 51.363L89.5436 51.636C89.2259 51.6948 88.9362 51.8565 88.7194 52.0961C88.5025 52.3357 88.3705 52.64 88.3436 52.962C88.3033 53.3552 88.3772 53.7517 88.5566 54.104C88.7359 54.4562 89.013 54.7493 89.3546 54.948C89.9396 55.248 90.6176 55.083 91.2596 54.495L91.4486 54.705C91.0605 55.1071 90.5338 55.3463 89.9756 55.374Z" fill="#263238"/>
    <path d="M92.1002 52.5785C91.3922 52.4315 90.3002 50.5955 90.7502 50.1575C90.4769 50.1681 90.2139 50.2645 89.9985 50.4331C89.7831 50.6016 89.6262 50.8338 89.5502 51.0965C89.3672 51.6635 89.7302 52.7255 90.9962 53.0435C91.6112 53.2055 92.1002 52.5785 92.1002 52.5785Z" fill="#592CB8"/>
    <path d="M92.2341 60.1501C92.2131 60.8371 92.1621 61.5151 92.1201 62.1961L91.9461 64.2361C91.8861 64.9201 91.8021 65.6011 91.7181 66.2911C91.6731 66.6331 91.6221 66.9811 91.5591 67.3411C91.4971 67.7279 91.4079 68.1099 91.2921 68.4841C90.8319 69.8477 90.2211 71.1558 89.4711 72.3841C88.7667 73.5814 87.984 74.7309 87.1282 75.8251C87.0312 75.9582 86.8872 76.0494 86.7254 76.0801C86.5637 76.1109 86.3962 76.0789 86.2572 75.9907C86.1182 75.9024 86.0179 75.7646 85.9769 75.6051C85.9358 75.4456 85.957 75.2765 86.0362 75.1321V75.1171C86.6362 73.9351 87.2362 72.7171 87.7642 71.5171C88.0252 70.9171 88.2862 70.3171 88.5082 69.6961C88.7322 69.1086 88.9185 68.5074 89.0662 67.8961C89.1304 67.6154 89.1765 67.3308 89.2042 67.0441C89.2312 66.7441 89.2522 66.4021 89.2702 66.0721L89.3782 64.0651L89.4832 62.0461C89.5282 61.3711 89.5582 60.6961 89.6152 60.0241C89.6346 59.6776 89.791 59.3531 90.0498 59.1218C90.3086 58.8906 90.6486 58.7716 90.9951 58.7911C91.3417 58.8106 91.6662 58.967 91.8975 59.2258C92.1287 59.4846 92.2476 59.8246 92.2281 60.1711L92.2341 60.1501Z" fill="#FFB573"/>
    <path d="M92.0331 72.3662C92.0331 72.3662 92.0331 88.0742 92.9871 96.5822C93.0861 104.568 94.9101 122.616 94.9101 122.616H96.9231C97.2651 113.661 99.7581 105.303 98.0991 97.4162C101.975 81.9092 100.178 72.3872 100.178 72.3872L92.0331 72.3662Z" fill="#FFB573"/>
    <path d="M94.2302 72.3754C94.2302 72.3754 95.7302 91.5994 98.7542 98.4754C101.916 105.705 107.529 119.868 108.084 122.268L109.767 121.821C109.767 121.821 108.654 106.275 103.515 97.4884C105.105 75.8224 101.1 72.3694 101.1 72.3694L94.2302 72.3754Z" fill="#FFB573"/>
    <path d="M91.3923 56.2412C89.7033 57.6692 89.1602 59.9942 89.1812 61.5692C90.1922 63.2282 93.3512 63.7412 93.3512 63.7412C93.3512 63.7412 93.8522 60.5012 93.6122 58.9742C93.3722 57.4472 92.3672 55.4162 91.3923 56.2412Z" fill="#263238"/>
    <path d="M90.1791 59.2231C90.0838 58.3596 90.323 57.4924 90.8475 56.7999C91.3721 56.1074 92.1421 55.6422 92.9991 55.5001C93.4881 55.4131 94.0041 55.3321 94.4991 55.2691C96.0423 55.1038 97.5952 55.0486 99.1461 55.1041C99.5901 55.1041 100.025 55.1281 100.436 55.1551C100.799 55.179 101.153 55.2772 101.476 55.4436C101.799 55.61 102.084 55.841 102.315 56.1223C102.545 56.4036 102.715 56.7292 102.814 57.0789C102.913 57.4286 102.939 57.7949 102.89 58.1551C101.909 64.6651 101.327 69.3721 101.969 72.2251C101.969 72.2251 103.997 74.9251 104.918 81.1411C105.722 86.5621 105.518 95.7031 106.403 100.614C103.241 102.873 93.2031 102.735 91.7241 101.415C92.1411 91.4851 90.1101 78.4741 91.6551 72.4651C91.0371 69.1351 91.3732 66.5911 91.0252 64.5721C88.7001 63.0151 90.4401 61.5721 90.1791 59.2231Z" fill="#263238"/>
    <path d="M96.0261 73.4191C94.2471 73.4191 92.5971 73.2481 91.8711 72.9271C91.5711 72.7951 91.4301 72.6391 91.4481 72.4591C91.4488 72.4478 91.4518 72.4368 91.457 72.4267C91.4621 72.4165 91.4692 72.4076 91.4779 72.4003C91.4866 72.393 91.4967 72.3875 91.5075 72.3843C91.5184 72.381 91.5298 72.3799 91.5411 72.3811C91.5633 72.3841 91.5837 72.3953 91.5981 72.4125C91.6125 72.4297 91.62 72.4517 91.6191 72.4741C91.6191 72.6031 91.8141 72.7171 91.9401 72.7741C93.6891 73.5451 100.865 73.4581 102.017 72.1741C102.033 72.1578 102.056 72.1487 102.079 72.1487C102.102 72.1487 102.124 72.1578 102.14 72.1741C102.148 72.1817 102.155 72.191 102.16 72.2013C102.164 72.2117 102.167 72.2228 102.167 72.2341C102.167 72.2454 102.164 72.2566 102.16 72.267C102.155 72.2773 102.148 72.2866 102.14 72.2941C101.447 73.0591 98.6001 73.4191 96.0261 73.4191Z" fill="white"/>
    <path d="M95.9398 72.8073C94.1608 72.8073 92.5108 72.6363 91.7848 72.3183C91.4848 72.1863 91.3438 72.0183 91.3618 71.8473C91.3648 71.8245 91.3764 71.8037 91.3942 71.7892C91.4121 71.7746 91.4348 71.7675 91.4578 71.7693C91.4803 71.7723 91.5008 71.784 91.5149 71.8019C91.5289 71.8199 91.5353 71.8426 91.5328 71.8653C91.5328 71.9943 91.7278 72.1053 91.8538 72.1653C93.6058 72.9363 100.779 72.8493 101.934 71.5653C101.95 71.5499 101.971 71.5413 101.994 71.5413C102.016 71.5413 102.038 71.5499 102.054 71.5653C102.069 71.5814 102.078 71.6029 102.078 71.6253C102.078 71.6476 102.069 71.6691 102.054 71.6853C101.361 72.4473 98.5168 72.8073 95.9398 72.8073Z" fill="white"/>
    <path opacity="0.2" d="M97.499 93.0003C97.772 89.0072 97.499 83.0282 95.057 79.6772C95.699 83.9252 97.499 93.0003 97.499 93.0003Z" fill="black"/>
    <path d="M98.3823 49.9141C98.1753 51.4141 98.0403 54.1531 99.1443 55.1101C96.8118 56.1507 94.8562 57.8842 93.5433 60.0751C92.0793 56.7361 94.4973 55.2751 94.4973 55.2751C96.1413 54.8191 96.0273 53.5891 95.6703 52.4401L98.3823 49.9141Z" fill="#FFB573"/>
    <path opacity="0.2" d="M97.2747 50.9465L95.6697 52.4465C95.7563 52.7127 95.8205 52.9857 95.8617 53.2625C96.4917 53.1485 97.3287 52.4225 97.3617 51.7625C97.3834 51.4875 97.3539 51.2108 97.2747 50.9465Z" fill="black"/>
    <path d="M98.9995 46.5993C99.1255 49.0773 99.2305 50.1273 98.1355 51.5043C96.4885 53.5773 93.4315 53.1243 92.5705 50.7183C91.7965 48.5493 91.7215 44.8593 94.0105 43.6593C96.2995 42.4593 98.8705 44.1183 98.9995 46.5993Z" fill="#FFB573"/>
    <path d="M96.6719 44.6399C96.4859 47.2529 99.3119 49.4999 100.197 48.5069C101.082 47.5139 98.9009 42.8579 96.6719 44.6399Z" fill="#263238"/>
    <path d="M92.7384 44.4304C95.9304 46.8574 99.6534 46.8454 99.4164 45.0754C99.1794 43.3054 94.6314 41.7364 92.7384 44.4304Z" fill="#263238"/>
    <path d="M95.1743 47.5921C95.1983 47.7931 95.1083 47.9671 94.9763 47.9791C94.8443 47.9911 94.7153 47.8381 94.6943 47.6371C94.6733 47.4361 94.7603 47.2651 94.8953 47.2531C95.0303 47.2411 95.1533 47.4001 95.1743 47.5921Z" fill="#263238"/>
    <path d="M92.6784 47.856C92.7024 48.057 92.6124 48.231 92.4774 48.243C92.3424 48.255 92.2194 48.102 92.1984 47.901C92.1774 47.7 92.2644 47.529 92.3964 47.517C92.5284 47.505 92.6574 47.655 92.6784 47.856Z" fill="#263238"/>
    <path d="M92.4571 47.5202L91.9531 47.4272C91.9531 47.4272 92.2471 47.7813 92.4571 47.5202Z" fill="#263238"/>
    <path d="M93.4673 47.9521C93.3375 48.4263 93.1416 48.8797 92.8853 49.2991C92.9967 49.3628 93.1205 49.4019 93.2483 49.4138C93.3761 49.4257 93.505 49.4102 93.6263 49.3681L93.4673 47.9521Z" fill="#ED893E"/>
    <path d="M99.8039 48.8461C99.7245 49.0569 99.6001 49.2479 99.4396 49.4059C99.279 49.5639 99.0859 49.6851 98.8739 49.7611C98.3249 49.9381 98.0099 49.3471 98.1299 48.7291C98.2349 48.1711 98.6459 47.4061 99.2129 47.5021C99.7799 47.5981 100.026 48.3001 99.8039 48.8461Z" fill="#FFB573"/>
    <path d="M95.8195 46.5903C95.7865 46.5852 95.7566 46.5681 95.7355 46.5423C95.6459 46.4207 95.5294 46.3214 95.3952 46.2522C95.2609 46.183 95.1125 46.1457 94.9615 46.1433C94.9298 46.1458 94.8983 46.136 94.8737 46.1159C94.8491 46.0957 94.8332 46.0668 94.8295 46.0353C94.8282 46.0197 94.8302 46.004 94.8351 45.9891C94.8401 45.9743 94.848 45.9605 94.8583 45.9488C94.8687 45.937 94.8813 45.9275 94.8954 45.9207C94.9095 45.9139 94.9248 45.91 94.9405 45.9093C95.1318 45.9069 95.321 45.9503 95.4922 46.0359C95.6633 46.1215 95.8116 46.2467 95.9245 46.4013C95.9344 46.4133 95.9418 46.4272 95.9461 46.4422C95.9505 46.4572 95.9517 46.4729 95.9497 46.4883C95.9477 46.5038 95.9426 46.5187 95.9347 46.5321C95.9267 46.5455 95.9161 46.5571 95.9035 46.5663C95.8795 46.5845 95.8495 46.5931 95.8195 46.5903Z" fill="#263238"/>
    <path d="M91.9346 46.995C91.9055 47.0056 91.8737 47.0056 91.8446 46.995C91.8157 46.9824 91.7928 46.9592 91.7805 46.9302C91.7682 46.9012 91.7675 46.8685 91.7786 46.839C91.8484 46.6645 91.9588 46.5092 92.1007 46.3861C92.2427 46.2629 92.412 46.1755 92.5946 46.131C92.6264 46.1258 92.659 46.1332 92.6853 46.1517C92.7117 46.1702 92.7298 46.1984 92.7356 46.23C92.7409 46.2602 92.7341 46.2913 92.7167 46.3165C92.6993 46.3418 92.6727 46.3592 92.6426 46.365C92.4982 46.4016 92.3646 46.4722 92.253 46.5708C92.1413 46.6694 92.0548 46.7933 92.0006 46.932C91.9947 46.9466 91.9858 46.9598 91.9744 46.9706C91.963 46.9815 91.9495 46.9898 91.9346 46.995Z" fill="#263238"/>
    <path d="M94.9561 47.2591L94.4521 47.1631C94.4521 47.1631 94.7431 47.5171 94.9561 47.2591Z" fill="#263238"/>
    <path d="M98.6991 68.46L96.7161 67.449L96.2571 69.954C96.2571 69.954 97.8591 70.338 98.9871 69.867L99.1641 69.567C99.2091 69.021 99.1431 68.793 98.6991 68.46Z" fill="#FFB573"/>
    <path d="M95.1384 68.124L95.0904 69.225C95.0832 69.3839 95.1364 69.5397 95.2394 69.661C95.3423 69.7823 95.4874 69.8602 95.6454 69.879L96.2634 69.954L96.7224 67.449L95.7234 67.518C95.5685 67.5296 95.4233 67.5978 95.3154 67.7096C95.2076 67.8213 95.1446 67.9688 95.1384 68.124Z" fill="#FFB573"/>
    <path d="M102.9 57.4473C103.386 58.8183 103.824 60.1833 104.217 61.5813C104.641 62.9966 104.98 64.4362 105.231 65.8923C105.296 66.3013 105.334 66.7142 105.345 67.1283C105.364 67.6934 105.231 68.2532 104.958 68.7483C104.661 69.251 104.22 69.6526 103.692 69.9003C103.262 70.0993 102.801 70.224 102.33 70.2693C101.527 70.338 100.718 70.2884 99.9297 70.1223C99.5558 70.055 99.1862 69.9658 98.8227 69.8553C98.4563 69.7531 98.0958 69.631 97.7427 69.4893C97.5955 69.4309 97.4747 69.3207 97.4028 69.1796C97.331 69.0384 97.3131 68.8759 97.3525 68.7225C97.3918 68.5691 97.4858 68.4353 97.6167 68.3462C97.7476 68.257 97.9066 68.2187 98.0637 68.2383H98.0997C98.4207 68.2773 98.7717 68.3193 99.1077 68.3463C99.4437 68.3733 99.7887 68.3853 100.122 68.3943C100.751 68.4189 101.381 68.3635 101.997 68.2293C102.234 68.1768 102.461 68.0856 102.669 67.9593C102.788 67.8933 102.879 67.7869 102.927 67.6593C102.972 67.5129 102.985 67.3581 102.963 67.2063C102.935 66.9037 102.888 66.6031 102.822 66.3063C102.69 65.6643 102.522 64.9923 102.321 64.3263C102.12 63.6603 101.934 62.9853 101.721 62.3133C101.298 60.9753 100.86 59.6133 100.425 58.2903C100.313 57.9617 100.335 57.602 100.488 57.2903C100.642 56.9786 100.912 56.7405 101.241 56.6283C101.569 56.5161 101.929 56.5391 102.241 56.6921C102.552 56.8451 102.791 57.1157 102.903 57.4443L102.9 57.4473Z" fill="#FFB573"/>
    <path d="M86.2409 74.6672L84.0239 74.4902L84.5549 76.9802C84.5549 76.9802 86.0069 76.7492 86.895 75.9962C86.9944 75.9091 87.0585 75.7885 87.075 75.6572C87.0901 75.5644 87.0808 75.4693 87.048 75.3812C87.0003 75.1951 86.8979 75.0276 86.7541 74.9003C86.6102 74.773 86.4315 74.6918 86.2409 74.6672Z" fill="#FFB573"/>
    <path d="M82.8147 75.7172L83.1927 76.7522C83.2461 76.9022 83.3545 77.0263 83.496 77.0993C83.6376 77.1723 83.8015 77.1887 83.9547 77.1452L84.5547 76.9802L84.0237 74.4902L83.1237 74.9342C82.9856 75.0047 82.878 75.1231 82.8211 75.2673C82.7642 75.4115 82.7619 75.5715 82.8147 75.7172Z" fill="#FFB573"/>
    <path d="M101.399 55.4131C102.881 56.0371 103.586 57.0451 104.81 59.8471C104.51 61.7671 101.267 63.3991 101.267 63.3991C101.267 63.3991 100.196 60.9691 99.8423 59.4631C99.4883 57.9571 99.8993 54.7801 101.399 55.4131Z" fill="#263238"/>
    <path d="M97.0796 122.629C97.0664 122.593 97.0415 122.562 97.0089 122.542C96.9762 122.522 96.9378 122.513 96.8996 122.518L95.0277 122.488C94.8312 122.474 94.6349 122.516 94.4606 122.608C93.6043 123.143 92.6423 123.487 91.6406 123.616C91.2446 123.676 91.4246 124.348 92.3606 124.357C93.9116 124.375 94.1906 124.258 95.5136 124.273C96.6416 124.273 96.1136 124.336 97.0136 124.357C97.2297 124.357 97.4036 124.222 97.3766 124.072L97.0796 122.629Z" fill="#263238"/>
    <path d="M110.099 121.5C110.077 121.469 110.045 121.446 110.008 121.434C109.971 121.423 109.932 121.424 109.895 121.437L108.074 121.884C107.882 121.919 107.705 122.009 107.561 122.142C107.12 122.652 106.511 123.435 105.251 123.624C104.852 123.684 105.033 124.356 105.969 124.365C107.52 124.383 107.714 123.807 108.998 123.486C110.093 123.213 109.598 123.399 110.459 123.186C110.669 123.138 110.804 122.958 110.738 122.82L110.099 121.5Z" fill="#263238"/>
    <path d="M94.4187 58.7761C95.1087 58.5181 97.0497 58.3651 97.9257 59.1811C99.3597 58.4431 100.143 56.3341 99.9657 55.0441C99.6289 54.7905 99.2138 54.6631 98.7927 54.6841C98.7927 54.6841 95.5977 56.7001 94.4187 58.7761Z" fill="#FAFAFA"/>
    <path d="M93.1441 58.8003C93.1441 58.8003 92.7481 57.1143 94.6441 55.2273C94.4161 55.0803 93.6211 55.3623 93.6211 55.3623C93.6211 55.3623 91.3171 56.6673 91.6861 59.3493C92.0838 58.9861 92.6057 58.7895 93.1441 58.8003Z" fill="#FAFAFA"/>
    <path d="M95.8053 49.5C95.9017 49.4087 95.9891 49.3082 96.0663 49.2C96.0718 49.1929 96.0757 49.1848 96.0778 49.176C96.0799 49.1673 96.0801 49.1583 96.0783 49.1495C96.0766 49.1407 96.0731 49.1323 96.0679 49.125C96.0627 49.1177 96.056 49.1116 96.0483 49.107C96.0346 49.095 96.017 49.0884 95.9988 49.0884C95.9806 49.0884 95.963 49.095 95.9493 49.107C95.7732 49.3456 95.5455 49.5413 95.2831 49.6794C95.0208 49.8176 94.7306 49.8947 94.4343 49.905C94.4242 49.9029 94.4138 49.903 94.4038 49.9054C94.3938 49.9078 94.3845 49.9125 94.3765 49.9189C94.3685 49.9254 94.3621 49.9336 94.3577 49.9428C94.3532 49.9521 94.351 49.9623 94.351 49.9725C94.351 49.9828 94.3532 49.993 94.3577 50.0022C94.3621 50.0115 94.3685 50.0197 94.3765 50.0261C94.3845 50.0326 94.3938 50.0372 94.4038 50.0396C94.4138 50.042 94.4242 50.0422 94.4343 50.04C94.9415 50.0315 95.4285 49.8397 95.8053 49.5Z" fill="#263238"/>
    <path d="M69.3688 124.872H68.8408L66.5608 80.9728C66.5277 80.334 66.2506 79.7322 65.7867 79.2917C65.3228 78.8513 64.7075 78.6057 64.0678 78.6058H56.0998C55.4598 78.6057 54.8441 78.8511 54.3797 79.2915C53.9153 79.7319 53.6376 80.3337 53.6038 80.9728L51.3238 124.872H50.7958L53.0998 80.9458C53.1396 80.1756 53.4725 79.4497 54.0303 78.917C54.5881 78.3843 55.3285 78.0851 56.0998 78.0808H64.0588C64.8332 78.0805 65.5781 78.3777 66.1397 78.9108C66.7013 79.444 67.0368 80.1725 67.0768 80.9458L69.3688 124.872Z" fill="#592CB8"/>
    <path opacity="0.7" d="M69.3688 124.872H68.8408L66.5608 80.9728C66.5277 80.334 66.2506 79.7322 65.7867 79.2917C65.3228 78.8513 64.7075 78.6057 64.0678 78.6058H56.0998C55.4598 78.6057 54.8441 78.8511 54.3797 79.2915C53.9153 79.7319 53.6376 80.3337 53.6038 80.9728L51.3238 124.872H50.7958L53.0998 80.9458C53.1396 80.1756 53.4725 79.4497 54.0303 78.917C54.5881 78.3843 55.3285 78.0851 56.0998 78.0808H64.0588C64.8332 78.0805 65.5781 78.3777 66.1397 78.9108C66.7013 79.444 67.0368 80.1725 67.0768 80.9458L69.3688 124.872Z" fill="white"/>
    <path d="M99.0534 124.872H98.5254L96.2454 80.9726C96.2123 80.3337 95.9352 79.732 95.4713 79.2915C95.0074 78.851 94.3921 78.6055 93.7524 78.6056H85.7994C85.1594 78.6054 84.5437 78.8509 84.0793 79.2913C83.6149 79.7317 83.3372 80.3335 83.3034 80.9726L81.0234 124.872H80.4894L82.7754 80.9456C82.8154 80.1712 83.1517 79.4418 83.7146 78.9085C84.2775 78.3752 85.024 78.0788 85.7994 78.0806H93.7584C94.5328 78.0803 95.2777 78.3774 95.8393 78.9106C96.401 79.4437 96.7364 80.1722 96.7764 80.9456L99.0534 124.872Z" fill="#592CB8"/>
    <path opacity="0.7" d="M99.0534 124.872H98.5254L96.2454 80.9726C96.2123 80.3337 95.9352 79.732 95.4713 79.2915C95.0074 78.851 94.3921 78.6055 93.7524 78.6056H85.7994C85.1594 78.6054 84.5437 78.8509 84.0793 79.2913C83.6149 79.7317 83.3372 80.3335 83.3034 80.9726L81.0234 124.872H80.4894L82.7754 80.9456C82.8154 80.1712 83.1517 79.4418 83.7146 78.9085C84.2775 78.3752 85.024 78.0788 85.7994 78.0806H93.7584C94.5328 78.0803 95.2777 78.3774 95.8393 78.9106C96.401 79.4437 96.7364 80.1722 96.7764 80.9456L99.0534 124.872Z" fill="white"/>
    <path d="M98.0343 76.4099H51.6573V78.9599H98.0343V76.4099Z" fill="#592CB8"/>
    <path opacity="0.3" d="M98.0334 76.4099H81.9894V78.9599H98.0334V76.4099Z" fill="black"/>
    <path d="M85.7042 75.7949H63.8792C63.7997 75.7949 63.7234 75.8265 63.6671 75.8828C63.6108 75.939 63.5792 76.0154 63.5792 76.0949C63.5792 76.1745 63.6108 76.2508 63.6671 76.307C63.7234 76.3633 63.7997 76.3949 63.8792 76.3949H85.7042C85.7838 76.3949 85.8601 76.3633 85.9164 76.307C85.9726 76.2508 86.0042 76.1745 86.0042 76.0949C86.0042 76.0154 85.9726 75.939 85.9164 75.8828C85.8601 75.8265 85.7838 75.7949 85.7042 75.7949Z" fill="#592CB8"/>
    <path opacity="0.1" d="M85.7042 75.7949H63.8792C63.7997 75.7949 63.7234 75.8265 63.6671 75.8828C63.6108 75.939 63.5792 76.0154 63.5792 76.0949C63.5792 76.1745 63.6108 76.2508 63.6671 76.307C63.7234 76.3633 63.7997 76.3949 63.8792 76.3949H85.7042C85.7838 76.3949 85.8601 76.3633 85.9164 76.307C85.9726 76.2508 86.0042 76.1745 86.0042 76.0949C86.0042 76.0154 85.9726 75.939 85.9164 75.8828C85.8601 75.8265 85.7838 75.7949 85.7042 75.7949Z" fill="white"/>
    <path d="M80.2171 76.4098H62.5171C62.3511 76.4013 62.1919 76.3409 62.0622 76.237C61.9324 76.133 61.8386 75.9909 61.7941 75.8308L59.3041 65.6908C59.2817 65.6229 59.2761 65.5507 59.2878 65.4803C59.2995 65.4098 59.3281 65.3432 59.3712 65.2863C59.4142 65.2293 59.4705 65.1837 59.5351 65.1533C59.5998 65.1229 59.6708 65.1086 59.7421 65.1118H77.4421C77.6086 65.12 77.7682 65.1803 77.8985 65.2842C78.0287 65.3881 78.1231 65.5303 78.1681 65.6908L80.6581 75.8308C80.6807 75.8988 80.6863 75.9713 80.6744 76.042C80.6626 76.1127 80.6337 76.1795 80.5903 76.2365C80.5469 76.2936 80.4902 76.3391 80.4252 76.3693C80.3601 76.3995 80.2887 76.4134 80.2171 76.4098Z" fill="#592CB8"/>
    <path opacity="0.3" d="M80.2171 76.4098H62.5171C62.3511 76.4013 62.1919 76.3409 62.0622 76.237C61.9324 76.133 61.8386 75.9909 61.7941 75.8308L59.3041 65.6908C59.2817 65.6229 59.2761 65.5507 59.2878 65.4803C59.2995 65.4098 59.3281 65.3432 59.3712 65.2863C59.4142 65.2293 59.4705 65.1837 59.5351 65.1533C59.5998 65.1229 59.6708 65.1086 59.7421 65.1118H77.4421C77.6086 65.12 77.7682 65.1803 77.8985 65.2842C78.0287 65.3881 78.1231 65.5303 78.1681 65.6908L80.6581 75.8308C80.6807 75.8988 80.6863 75.9713 80.6744 76.042C80.6626 76.1127 80.6337 76.1795 80.5903 76.2365C80.5469 76.2936 80.4902 76.3391 80.4252 76.3693C80.3601 76.3995 80.2887 76.4134 80.2171 76.4098Z" fill="white"/>
    <path d="M74.9999 73.326H74.9729C74.9621 73.3223 74.952 73.3165 74.9434 73.3089C74.9348 73.3013 74.9278 73.2921 74.9228 73.2818C74.9178 73.2715 74.9149 73.2602 74.9142 73.2488C74.9135 73.2373 74.9151 73.2259 74.9189 73.215C75.2273 72.3758 75.2123 71.4519 74.8769 70.623C74.8529 70.665 74.8259 70.704 74.7989 70.743C74.5735 71.0168 74.2511 71.1931 73.8989 71.235C73.6015 71.2885 73.2952 71.2584 73.0139 71.148C72.8705 71.0917 72.7397 71.0076 72.629 70.9005C72.5183 70.7934 72.4299 70.6655 72.3689 70.524C72.3079 70.3773 72.2861 70.2171 72.3055 70.0594C72.325 69.9016 72.3851 69.7516 72.4799 69.624C72.9089 69.072 73.7879 69.201 74.2559 69.504C74.5068 69.6793 74.7124 69.9117 74.8559 70.182C74.8663 70.1346 74.8733 70.0865 74.8769 70.038C74.8989 69.8528 74.8784 69.6649 74.8171 69.4887C74.7558 69.3125 74.6552 69.1526 74.5229 69.021C74.2934 68.8095 74.023 68.6472 73.7284 68.544C73.4338 68.4408 73.1213 68.399 72.8099 68.421C72.5901 68.4333 72.3731 68.4757 72.1649 68.547C72.1543 68.5508 72.143 68.5524 72.1318 68.5516C72.1205 68.5509 72.1095 68.548 72.0995 68.5429C72.0894 68.5379 72.0804 68.5309 72.0731 68.5223C72.0658 68.5137 72.0603 68.5038 72.0569 68.493C72.05 68.4719 72.0515 68.449 72.0609 68.4289C72.0704 68.4088 72.0872 68.3931 72.1079 68.385C72.3318 68.3091 72.5649 68.2637 72.8009 68.25C73.1366 68.2262 73.4737 68.2717 73.7911 68.3837C74.1085 68.4957 74.3995 68.6718 74.6459 68.901C74.7946 69.0515 74.9079 69.2333 74.9774 69.4331C75.047 69.6329 75.071 69.8457 75.0479 70.056C75.037 70.1754 75.0128 70.2931 74.9759 70.407C75.3859 71.3057 75.4247 72.3299 75.0839 73.257C75.0804 73.2766 75.07 73.2943 75.0546 73.307C75.0392 73.3196 75.0198 73.3264 74.9999 73.326ZM73.3439 69.426C73.2066 69.4165 73.069 69.4386 72.9415 69.4906C72.8141 69.5426 72.7003 69.6232 72.6089 69.726C72.5331 69.8287 72.4853 69.9493 72.47 70.0761C72.4548 70.2028 72.4726 70.3313 72.5219 70.449C72.5738 70.5698 72.649 70.6791 72.7432 70.7707C72.8374 70.8624 72.9488 70.9345 73.0709 70.983C73.324 71.0805 73.599 71.1064 73.8659 71.058C74.1767 71.0241 74.4619 70.8701 74.6609 70.629C74.7114 70.5634 74.7518 70.4906 74.7809 70.413C74.6419 70.1071 74.4259 69.8424 74.1539 69.645C73.9098 69.4968 73.6295 69.4189 73.3439 69.42V69.426Z" fill="white"/>
    <path d="M76.7523 72.1677H72.8313L73.2423 76.4097H76.3413L76.7523 72.1677Z" fill="#592CB8"/>
    <path d="M74.7298 68.9039C74.6091 68.9047 74.4889 68.8886 74.3728 68.8559C74.3581 68.8511 74.3451 68.8425 74.335 68.8308C74.325 68.8192 74.3183 68.805 74.3158 68.7899C74.2902 68.5756 74.3179 68.3584 74.3964 68.1575C74.4749 67.9565 74.6018 67.778 74.7658 67.6379C75.2095 67.3255 75.726 67.1323 76.2658 67.0769C76.2797 67.0754 76.2939 67.0774 76.3069 67.0826C76.32 67.0879 76.3316 67.0962 76.3408 67.1069C76.3495 67.117 76.3557 67.1291 76.3589 67.1422C76.362 67.1552 76.362 67.1688 76.3588 67.1819C76.2204 67.7115 75.9488 68.1969 75.5698 68.5919C75.3359 68.7927 75.038 68.9033 74.7298 68.9039ZM74.4778 68.7059C74.6505 68.745 74.8301 68.7432 75.002 68.7005C75.1739 68.6577 75.3334 68.5753 75.4678 68.4599C75.7966 68.124 76.0368 67.7116 76.1668 67.2599C75.702 67.3179 75.2588 67.49 74.8768 67.7609C74.7426 67.8762 74.6368 68.0209 74.5676 68.1838C74.4984 68.3466 74.4677 68.5232 74.4778 68.6999V68.7059Z" fill="white"/>
    <path d="M71.7002 71.0486C71.4025 71.0339 71.1103 70.9626 70.8392 70.8386C70.8315 70.8341 70.8249 70.8281 70.8197 70.8208C70.8145 70.8136 70.8109 70.8053 70.8092 70.7966C70.8077 70.7877 70.8086 70.7786 70.8117 70.7702C70.8149 70.7617 70.8202 70.7543 70.8272 70.7486C71.0783 70.5033 71.3882 70.3267 71.7272 70.2356C71.8652 70.2136 72.0064 70.2255 72.1387 70.2705C72.271 70.3155 72.3902 70.392 72.4862 70.4936C72.4907 70.5024 72.493 70.5122 72.493 70.5221C72.493 70.532 72.4907 70.5418 72.4862 70.5506C72.4281 70.6775 72.3397 70.7882 72.2288 70.8729C72.1179 70.9577 71.9879 71.0139 71.8502 71.0366C71.8005 71.0442 71.7504 71.0482 71.7002 71.0486ZM70.9592 70.7726C71.2419 70.8975 71.5509 70.9511 71.8592 70.9286C71.9723 70.9093 72.0794 70.8643 72.1725 70.7973C72.2656 70.7302 72.3421 70.6428 72.3962 70.5416C72.3131 70.4621 72.2127 70.4028 72.1029 70.3685C71.9931 70.3342 71.8768 70.3256 71.7632 70.3436C71.4677 70.4186 71.1955 70.5661 70.9712 70.7726H70.9592Z" fill="white"/>
    <path d="M31.1039 117.6C31.0826 117.6 31.0621 117.592 31.0465 117.578C31.031 117.563 31.0214 117.543 31.0199 117.522C30.3209 110.202 31.5959 90.6661 33.0839 85.8481C33.0915 85.8268 33.1068 85.8091 33.1268 85.7985C33.1468 85.7879 33.17 85.7853 33.1919 85.7911C33.2137 85.798 33.2319 85.8132 33.2425 85.8334C33.2532 85.8536 33.2555 85.8772 33.2489 85.8991C31.7489 90.6991 30.4949 110.199 31.1909 117.507C31.1922 117.518 31.1911 117.53 31.1878 117.541C31.1845 117.551 31.1791 117.562 31.1718 117.57C31.1645 117.579 31.1555 117.586 31.1454 117.591C31.1353 117.596 31.1242 117.599 31.1129 117.6H31.1039Z" fill="#263238"/>
    <path d="M34.4011 111.414H27.5011L28.4011 124.872H33.5011L34.4011 111.414Z" fill="#592CB8"/>
    <path d="M31.1815 90.7951C31.5222 91.1657 31.7679 91.6135 31.8975 92.0999C32.0271 92.5864 32.0367 93.0971 31.9255 93.5881C31.4275 93.6641 30.9185 93.6183 30.4421 93.4548C29.9656 93.2913 29.5358 93.0148 29.1895 92.6491C28.0195 91.3891 27.6895 89.0281 27.6895 89.0281C27.6895 89.0281 29.9995 89.5351 31.1815 90.7951Z" fill="#263238"/>
    <path d="M35.2641 97.401C34.7054 97.7351 34.0739 97.9288 33.424 97.9653C32.774 98.0019 32.1248 97.8803 31.5321 97.611C31.5663 96.9606 31.7577 96.3282 32.0901 95.768C32.4224 95.2079 32.8857 94.7367 33.4401 94.395C35.3421 93.24 38.4201 93.429 38.4201 93.429C38.4201 93.429 37.1661 96.246 35.2641 97.401Z" fill="#263238"/>
    <path d="M34.8991 85.5182C34.8985 85.7453 34.8306 85.9672 34.704 86.1557C34.5774 86.3443 34.3977 86.4911 34.1877 86.5776C33.9777 86.6641 33.7468 86.6864 33.5241 86.6418C33.3014 86.5971 33.0969 86.4874 32.9366 86.3266C32.7762 86.1658 32.667 85.9611 32.6229 85.7383C32.5788 85.5155 32.6018 85.2846 32.6888 85.0748C32.7759 84.865 32.9231 84.6858 33.112 84.5596C33.3009 84.4335 33.5229 84.3662 33.7501 84.3662C33.9012 84.3662 34.0509 84.396 34.1905 84.454C34.3301 84.5119 34.4569 84.5968 34.5636 84.7038C34.6703 84.8108 34.7549 84.9378 34.8125 85.0776C34.87 85.2173 34.8995 85.3671 34.8991 85.5182Z" fill="#592CB8"/>
    <path d="M26.5648 104.121C27.131 104.728 27.8368 105.188 28.621 105.46C29.4053 105.733 30.2441 105.809 31.0648 105.684C31.2526 104.878 31.2416 104.039 31.0325 103.238C30.8234 102.437 30.4227 101.699 29.8648 101.088C27.9448 99.0121 24.1198 98.1631 24.1198 98.1631C24.1198 98.1631 24.6448 102.045 26.5648 104.121Z" fill="#263238"/>
</svg>
