<svg width="32" height="32" viewBox="0 0 32 32" fill="none" xmlns="http://www.w3.org/2000/svg">
    <path fill-rule="evenodd" clip-rule="evenodd" d="M21.333 17.3323C20.597 17.3323 19.9997 16.7349 19.9997 15.9989C19.9997 15.2629 20.597 14.6656 21.333 14.6656C22.069 14.6656 22.6664 15.2629 22.6664 15.9989C22.6664 16.7349 22.069 17.3323 21.333 17.3323ZM15.9997 17.3323C15.2637 17.3323 14.6664 16.7349 14.6664 15.9989C14.6664 15.2629 15.2637 14.6656 15.9997 14.6656C16.7357 14.6656 17.333 15.2629 17.333 15.9989C17.333 16.7349 16.7357 17.3323 15.9997 17.3323ZM10.6664 17.3323C9.93036 17.3323 9.33302 16.7349 9.33302 15.9989C9.33302 15.2629 9.93036 14.6656 10.6664 14.6656C11.4024 14.6656 11.9997 15.2629 11.9997 15.9989C11.9997 16.7349 11.4024 17.3323 10.6664 17.3323ZM25.4276 6.57098C22.3822 3.52564 18.1676 2.16698 13.8622 2.83231C8.42623 3.68031 3.91956 8.05898 2.90223 13.4816C2.41289 16.0923 2.69423 18.751 3.71689 21.1683C3.84756 21.475 3.88756 21.763 3.83556 22.0203L2.69289 27.7376C2.60489 28.175 2.74223 28.627 3.05689 28.9416C3.30889 29.1936 3.64889 29.3323 3.99956 29.3323C4.08623 29.3323 4.17423 29.3243 4.26089 29.3056L9.97156 28.1643C10.2996 28.1016 10.6182 28.1936 10.8302 28.2816C13.2489 29.3043 15.9076 29.5843 18.5169 29.0963C23.9396 28.079 28.3182 23.5723 29.1662 18.1363C29.8369 13.8323 28.4742 9.61764 25.4276 6.57098Z" fill="#39B54A"/>
</svg>
