<svg width="32" height="32" viewBox="0 0 32 32" fill="none" xmlns="http://www.w3.org/2000/svg">
    <path fill-rule="evenodd" clip-rule="evenodd" d="M21.3334 17.3334H16.0001C15.2641 17.3334 14.6667 16.7374 14.6667 16.0001V10.6667C14.6667 9.92941 15.2641 9.33341 16.0001 9.33341C16.7361 9.33341 17.3334 9.92941 17.3334 10.6667V14.6667H21.3334C22.0707 14.6667 22.6667 15.2627 22.6667 16.0001C22.6667 16.7374 22.0707 17.3334 21.3334 17.3334ZM16.0001 2.66675C8.64808 2.66675 2.66675 8.64808 2.66675 16.0001C2.66675 23.3521 8.64808 29.3334 16.0001 29.3334C23.3521 29.3334 29.3334 23.3521 29.3334 16.0001C29.3334 8.64808 23.3521 2.66675 16.0001 2.66675Z" fill="#39B54A"/>
</svg>
