<svg width="48" height="48" viewBox="0 0 48 48" fill="none" xmlns="http://www.w3.org/2000/svg">
    <path fill-rule="evenodd" clip-rule="evenodd" d="M7.98263 32.309C8.25468 32.2303 8.54342 32.2303 8.81547 32.309C10.2898 32.735 12.173 33 14.25 33C16.327 33 18.2102 32.735 19.6845 32.309C19.9566 32.2303 20.2453 32.2303 20.5174 32.309C21.8012 32.68 22.9643 33.1884 23.8406 33.8483C24.6963 34.4926 25.5 35.462 25.5 36.75C25.5 37.8358 24.9221 38.7019 24.243 39.3194C23.5642 39.9366 22.6658 40.4236 21.6828 40.8017C19.7067 41.5617 17.0784 42 14.25 42C11.4216 42 8.7933 41.5617 6.81724 40.8017C5.83421 40.4236 4.93576 39.9366 4.25705 39.3194C3.5779 38.7019 3 37.8358 3 36.75C3 35.462 3.80367 34.4926 4.65937 33.8483C5.53571 33.1884 6.69875 32.68 7.98263 32.309ZM6.00156 36.7513C6.01194 36.788 6.06157 36.9055 6.27536 37.0999C6.5834 37.38 7.1128 37.7011 7.89418 38.0016C9.44692 38.5988 11.6936 39 14.25 39C16.8064 39 19.0531 38.5988 20.6058 38.0016C21.3872 37.7011 21.9166 37.38 22.2246 37.0999C22.4384 36.9055 22.4881 36.788 22.4984 36.7513C22.4866 36.7086 22.4161 36.531 22.036 36.2448C21.615 35.9278 20.9605 35.5987 20.0776 35.3116C18.3812 35.7523 16.3769 36 14.25 36C12.1231 36 10.1188 35.7523 8.42235 35.3116C7.53954 35.5987 6.88497 35.9278 6.46396 36.2448C6.0839 36.531 6.01339 36.7086 6.00156 36.7513ZM22.5009 36.7389C22.5011 36.7389 22.501 36.7408 22.5001 36.7446C22.5004 36.7408 22.5008 36.7389 22.5009 36.7389ZM5.99986 36.7446C5.99905 36.7408 5.99894 36.7389 5.99909 36.7389C5.99923 36.7389 5.99964 36.7408 5.99986 36.7446Z" fill="white"/>
    <path fill-rule="evenodd" clip-rule="evenodd" d="M7.98263 25.559C8.25468 25.4803 8.54342 25.4803 8.81547 25.559C10.2898 25.985 12.173 26.25 14.25 26.25C16.327 26.25 18.2102 25.985 19.6845 25.559C19.9566 25.4803 20.2453 25.4803 20.5174 25.559C21.8012 25.93 22.9643 26.4384 23.8406 27.0983C24.6963 27.7426 25.5 28.712 25.5 30C25.5 31.0858 24.9221 31.9519 24.243 32.5694C23.5642 33.1866 22.6658 33.6736 21.6828 34.0517C19.7067 34.8117 17.0784 35.25 14.25 35.25C11.4216 35.25 8.7933 34.8117 6.81724 34.0517C5.83421 33.6736 4.93576 33.1866 4.25705 32.5694C3.5779 31.9519 3 31.0858 3 30C3 28.712 3.80367 27.7426 4.65937 27.0983C5.53571 26.4384 6.69875 25.93 7.98263 25.559ZM6.00156 30.0013C6.01194 30.038 6.06157 30.1555 6.27536 30.3499C6.5834 30.63 7.1128 30.9511 7.89418 31.2516C9.44692 31.8488 11.6936 32.25 14.25 32.25C16.8064 32.25 19.0531 31.8488 20.6058 31.2516C21.3872 30.9511 21.9166 30.63 22.2246 30.3499C22.4384 30.1555 22.4881 30.038 22.4984 30.0013C22.4866 29.9586 22.4161 29.781 22.036 29.4948C21.615 29.1778 20.9605 28.8487 20.0776 28.5616C18.3812 29.0023 16.3769 29.25 14.25 29.25C12.1231 29.25 10.1188 29.0023 8.42235 28.5616C7.53954 28.8487 6.88497 29.1778 6.46396 29.4948C6.0839 29.781 6.01339 29.9586 6.00156 30.0013ZM22.5009 29.9889C22.5011 29.9889 22.501 29.9908 22.5001 29.9946C22.5004 29.9908 22.5008 29.9889 22.5009 29.9889ZM5.99986 29.9946C5.99905 29.9908 5.99894 29.9889 5.99909 29.9889C5.99923 29.9889 5.99964 29.9908 5.99986 29.9946Z" fill="#5E3FEB"/>
    <path fill-rule="evenodd" clip-rule="evenodd" d="M7.98263 19.559C8.25468 19.4803 8.54342 19.4803 8.81547 19.559C10.2898 19.985 12.173 20.25 14.25 20.25C16.327 20.25 18.2102 19.985 19.6845 19.559C19.9566 19.4803 20.2453 19.4803 20.5174 19.559C21.8012 19.93 22.9643 20.4384 23.8406 21.0983C24.6963 21.7426 25.5 22.712 25.5 24C25.5 25.0858 24.9221 25.9519 24.243 26.5694C23.5642 27.1866 22.6658 27.6736 21.6828 28.0517C19.7067 28.8117 17.0784 29.25 14.25 29.25C11.4216 29.25 8.7933 28.8117 6.81724 28.0517C5.83421 27.6736 4.93576 27.1866 4.25705 26.5694C3.5779 25.9519 3 25.0858 3 24C3 22.712 3.80367 21.7426 4.65937 21.0983C5.53571 20.4384 6.69875 19.93 7.98263 19.559ZM6.00156 24.0013C6.01194 24.038 6.06157 24.1555 6.27536 24.3499C6.5834 24.63 7.1128 24.9511 7.89418 25.2516C9.44692 25.8488 11.6936 26.25 14.25 26.25C16.8064 26.25 19.0531 25.8488 20.6058 25.2516C21.3872 24.9511 21.9166 24.63 22.2246 24.3499C22.4384 24.1555 22.4881 24.038 22.4984 24.0013C22.4866 23.9586 22.4161 23.781 22.036 23.4948C21.615 23.1778 20.9605 22.8487 20.0776 22.5616C18.3812 23.0023 16.3769 23.25 14.25 23.25C12.1231 23.25 10.1188 23.0023 8.42235 22.5616C7.53954 22.8487 6.88497 23.1778 6.46396 23.4948C6.0839 23.781 6.01339 23.9586 6.00156 24.0013ZM22.5009 23.9889C22.5011 23.9889 22.501 23.9908 22.5001 23.9946C22.5004 23.9908 22.5008 23.9889 22.5009 23.9889ZM5.99986 23.9946C5.99905 23.9908 5.99894 23.9889 5.99909 23.9889C5.99923 23.9889 5.99964 23.9908 5.99986 23.9946Z" fill="white"/>
    <path fill-rule="evenodd" clip-rule="evenodd" d="M7.98263 13.559C8.25468 13.4803 8.54342 13.4803 8.81547 13.559C10.2898 13.985 12.173 14.25 14.25 14.25C16.327 14.25 18.2102 13.985 19.6845 13.559C19.9566 13.4803 20.2453 13.4803 20.5174 13.559C21.8012 13.93 22.9643 14.4384 23.8406 15.0983C24.6963 15.7426 25.5 16.712 25.5 18C25.5 19.0858 24.9221 19.9519 24.243 20.5694C23.5642 21.1866 22.6658 21.6736 21.6828 22.0517C19.7067 22.8117 17.0784 23.25 14.25 23.25C11.4216 23.25 8.7933 22.8117 6.81724 22.0517C5.83421 21.6736 4.93576 21.1866 4.25705 20.5694C3.5779 19.9519 3 19.0858 3 18C3 16.712 3.80367 15.7426 4.65937 15.0983C5.53571 14.4384 6.69875 13.93 7.98263 13.559ZM6.00156 18.0013C6.01194 18.038 6.06157 18.1555 6.27536 18.3499C6.5834 18.63 7.1128 18.9511 7.89418 19.2516C9.44692 19.8488 11.6936 20.25 14.25 20.25C16.8064 20.25 19.0531 19.8488 20.6058 19.2516C21.3872 18.9511 21.9166 18.63 22.2246 18.3499C22.4384 18.1555 22.4881 18.038 22.4984 18.0013C22.4866 17.9586 22.4161 17.781 22.036 17.4948C21.615 17.1778 20.9605 16.8487 20.0776 16.5616C18.3812 17.0023 16.3769 17.25 14.25 17.25C12.1231 17.25 10.1188 17.0023 8.42235 16.5616C7.53954 16.8487 6.88497 17.1778 6.46396 17.4948C6.0839 17.781 6.01339 17.9586 6.00156 18.0013ZM22.5009 17.9889C22.5011 17.9889 22.501 17.9908 22.5001 17.9946C22.5004 17.9908 22.5008 17.9889 22.5009 17.9889ZM5.99986 17.9946C5.99905 17.9908 5.99894 17.9889 5.99909 17.9889C5.99923 17.9889 5.99964 17.9908 5.99986 17.9946Z" fill="#5E3FEB"/>
    <path fill-rule="evenodd" clip-rule="evenodd" d="M5.99909 11.2611C5.99894 11.2611 5.99905 11.2592 5.99986 11.2554C5.99964 11.2592 5.99923 11.2611 5.99909 11.2611ZM6.00119 11.25C6.01073 11.2149 6.05891 11.0969 6.27536 10.9001C6.5834 10.62 7.1128 10.2989 7.89418 9.99837C9.44692 9.40116 11.6936 9 14.25 9C16.8064 9 19.0531 9.40116 20.6058 9.99837C21.3872 10.2989 21.9166 10.62 22.2246 10.9001C22.4411 11.0969 22.4893 11.2149 22.4988 11.25C22.4893 11.2851 22.4411 11.4031 22.2246 11.5999C21.9166 11.88 21.3872 12.2011 20.6058 12.5016C19.0531 13.0988 16.8064 13.5 14.25 13.5C11.6936 13.5 9.44692 13.0988 7.89418 12.5016C7.1128 12.2011 6.5834 11.88 6.27536 11.5999C6.05891 11.4031 6.01073 11.2851 6.00119 11.25ZM22.5009 11.2611C22.5008 11.2611 22.5004 11.2592 22.5001 11.2554C22.501 11.2592 22.5011 11.2611 22.5009 11.2611ZM22.5001 11.2446C22.5004 11.2408 22.5008 11.2389 22.5009 11.2389C22.5011 11.2389 22.501 11.2408 22.5001 11.2446ZM5.99986 11.2446C5.99905 11.2408 5.99894 11.2389 5.99909 11.2389C5.99923 11.2389 5.99964 11.2408 5.99986 11.2446ZM6.81724 7.19833C8.7933 6.43831 11.4216 6 14.25 6C17.0784 6 19.7067 6.43831 21.6828 7.19833C22.6658 7.57642 23.5642 8.06338 24.243 8.68055C24.9221 9.29812 25.5 10.1642 25.5 11.25C25.5 12.3358 24.9221 13.2019 24.243 13.8194C23.5642 14.4366 22.6658 14.9236 21.6828 15.3017C19.7067 16.0617 17.0784 16.5 14.25 16.5C11.4216 16.5 8.7933 16.0617 6.81724 15.3017C5.83421 14.9236 4.93576 14.4366 4.25705 13.8194C3.5779 13.2019 3 12.3358 3 11.25C3 10.1642 3.5779 9.29812 4.25705 8.68055C4.93576 8.06338 5.83421 7.57642 6.81724 7.19833Z" fill="white"/>
    <path fill-rule="evenodd" clip-rule="evenodd" d="M36.5123 6.37113C37.0778 5.87629 37.9222 5.87629 38.4878 6.37113L44.4878 11.6211C45.1112 12.1667 45.1744 13.1143 44.6289 13.7378C44.0834 14.3612 43.1357 14.4244 42.5123 13.8789L39 10.8057V40.5C39 41.3284 38.3284 42 37.5 42C36.6716 42 36 41.3284 36 40.5V10.8057L32.4878 13.8789C31.8643 14.4244 30.9167 14.3612 30.3712 13.7378C29.8256 13.1143 29.8888 12.1667 30.5123 11.6211L36.5123 6.37113Z" fill="white"/>
</svg>
