<svg width="48" height="48" viewBox="0 0 48 48" fill="none" xmlns="http://www.w3.org/2000/svg">
    <path fill-rule="evenodd" clip-rule="evenodd" d="M16.5 18C10.701 18 6 22.701 6 28.5C6 34.299 10.701 39 16.5 39C22.299 39 27 34.299 27 28.5C27 28.2305 26.9899 27.9637 26.97 27.6998C26.7607 27.3051 26.2409 27.1483 25.8381 27.4027C22.4146 29.5645 18.4355 25.5854 20.5973 22.1619C20.892 21.6952 20.6361 21.0774 20.0977 20.9558C18.4309 20.5793 17.4836 19.3505 17.217 18.024C16.9802 18.0081 16.7412 18 16.5 18ZM3 28.5C3 21.0442 9.04416 15 16.5 15C17.343 15 18.1692 15.0774 18.9715 15.226C19.3743 15.3006 19.7291 15.5367 19.9535 15.8794C20.1778 16.2222 20.2522 16.6418 20.1594 17.0408C20.1076 17.2635 20.1427 17.4969 20.2408 17.6721C20.325 17.8226 20.4718 17.9647 20.7587 18.0295C23.3183 18.6077 24.535 21.545 23.1339 23.7637C22.6792 24.4838 23.5162 25.3208 24.2363 24.8661C26.3477 23.5328 29.1047 24.569 29.8694 26.8772C29.9048 26.9842 29.9281 27.0947 29.9388 27.2068C29.9793 27.6328 30 28.0642 30 28.5C30 35.9558 23.9558 42 16.5 42C9.04416 42 3 35.9558 3 28.5Z" fill="white"/>
    <path fill-rule="evenodd" clip-rule="evenodd" d="M16.5 21C17.3284 21 18 21.6716 18 22.5V27.8787L22.0607 31.9393C22.6464 32.5251 22.6464 33.4749 22.0607 34.0607C21.4749 34.6464 20.5251 34.6464 19.9393 34.0607L15.4393 29.5607C15.158 29.2794 15 28.8978 15 28.5V22.5C15 21.6716 15.6716 21 16.5 21Z" fill="white"/>
    <path fill-rule="evenodd" clip-rule="evenodd" d="M27.0442 6.59755C27.9363 2.64815 33.5636 2.64814 34.4557 6.59755C34.5774 7.13596 35.1952 7.39188 35.6619 7.09717C39.0854 4.93533 43.0645 8.91444 40.9026 12.3379C40.6079 12.8046 40.8639 13.4225 41.4023 13.5441C45.3517 14.4362 45.3517 20.0635 41.4023 20.9556C40.8639 21.0772 40.6079 21.6951 40.9026 22.1618C43.0645 25.5853 39.0854 29.5644 35.6619 27.4025C35.1952 27.1078 34.5774 27.3637 34.4557 27.9021C33.5636 31.8516 27.9363 31.8515 27.0442 27.9021C26.9226 27.3637 26.3047 27.1078 25.838 27.4025C22.4146 29.5644 18.4355 25.5853 20.5973 22.1618C20.892 21.6951 20.6361 21.0772 20.0977 20.9556C16.1483 20.0635 16.1483 14.4362 20.0977 13.5441C20.6361 13.4225 20.892 12.8046 20.5973 12.3379C18.4355 8.91444 22.4146 4.93533 25.838 7.09717C26.3047 7.39188 26.9226 7.13596 27.0442 6.59755ZM31.5295 7.25855C31.3418 6.42781 30.1581 6.42781 29.9705 7.25855C29.3923 9.81817 26.455 11.0348 24.2362 9.63375C23.5161 9.17902 22.6791 10.016 23.1339 10.7361C24.535 12.9549 23.3183 15.8922 20.7587 16.4704C19.9279 16.658 19.9279 17.8417 20.7587 18.0293C23.3183 18.6075 24.535 21.5448 23.1339 23.7636C22.6791 24.4837 23.5161 25.3207 24.2362 24.8659C26.455 23.4649 29.3923 24.6815 29.9705 27.2411C30.1581 28.0719 31.3418 28.0719 31.5295 27.2411C32.1076 24.6815 35.0449 23.4649 37.2637 24.8659C37.9838 25.3207 38.8208 24.4837 38.3661 23.7636C36.965 21.5448 38.1816 18.6075 40.7413 18.0293C41.572 17.8417 41.572 16.658 40.7413 16.4704C38.1816 15.8922 36.965 12.9549 38.3661 10.7361C38.8208 10.016 37.9838 9.17902 37.2637 9.63375C35.0449 11.0348 32.1076 9.81817 31.5295 7.25855Z" fill="#5E3FEB"/>
    <path fill-rule="evenodd" clip-rule="evenodd" d="M36.0217 12.2137C36.7321 12.64 36.9624 13.5614 36.5362 14.2717L32.0362 21.7717C31.8252 22.1235 31.4793 22.3734 31.0791 22.4634C30.6788 22.5534 30.2592 22.4756 29.9179 22.2481L25.4179 19.2481C24.7286 18.7885 24.5424 17.8572 25.0019 17.1679C25.4614 16.4786 26.3927 16.2924 27.082 16.7519L30.2731 18.8793L33.9637 12.7282C34.39 12.0179 35.3113 11.7875 36.0217 12.2137Z" fill="white"/>
</svg>
