<svg width="150" height="150" viewBox="0 0 150 150" fill="none" xmlns="http://www.w3.org/2000/svg">
    <path d="M150 114.72H0V114.795H150V114.72Z" fill="#EBEBEB"/>
    <path d="M20.5553 117.576H15.7373V117.651H20.5553V117.576Z" fill="#EBEBEB"/>
    <path d="M67.4006 116.763H51.3416V116.838H67.4006V116.763Z" fill="#EBEBEB"/>
    <path d="M31.7313 120.363H20.8563V120.438H31.7313V120.363Z" fill="#EBEBEB"/>
    <path d="M126.699 116.724H113.742V116.799H126.699V116.724Z" fill="#EBEBEB"/>
    <path d="M131.271 116.724H129.372V116.799H131.271V116.724Z" fill="#EBEBEB"/>
    <path d="M111.267 118.593H95.1V118.668H111.267V118.593Z" fill="#EBEBEB"/>
    <path d="M71.0994 101.34H13.1724C12.7186 101.339 12.2837 101.158 11.9631 100.837C11.6425 100.516 11.4624 100.081 11.4624 99.627V18.198C11.4664 17.7468 11.6482 17.3154 11.9683 16.9975C12.2885 16.6795 12.7212 16.5008 13.1724 16.5H71.0994C71.5537 16.5 71.9894 16.6805 72.3107 17.0017C72.6319 17.323 72.8124 17.7587 72.8124 18.213V99.627C72.8124 100.081 72.6319 100.517 72.3107 100.838C71.9894 101.16 71.5537 101.34 71.0994 101.34ZM13.1724 16.56C12.7385 16.5608 12.3226 16.7337 12.0161 17.0408C11.7096 17.3479 11.5374 17.7641 11.5374 18.198V99.627C11.5374 100.061 11.7096 100.477 12.0161 100.784C12.3226 101.091 12.7385 101.264 13.1724 101.265H71.0994C71.5336 101.264 71.9498 101.091 72.2568 100.784C72.5638 100.477 72.7366 100.061 72.7374 99.627V18.198C72.7366 17.7638 72.5638 17.3476 72.2568 17.0406C71.9498 16.7336 71.5336 16.5608 71.0994 16.56H13.1724Z" fill="#EBEBEB"/>
    <path d="M135.993 101.34H78.063C77.6089 101.339 77.1737 101.158 76.8526 100.837C76.5315 100.516 76.3508 100.081 76.35 99.627V18.198C76.3547 17.7465 76.5372 17.3151 76.8578 16.9973C77.1785 16.6794 77.6115 16.5008 78.063 16.5H135.993C136.444 16.5016 136.876 16.6807 137.195 16.9985C137.515 17.3164 137.696 17.7473 137.7 18.198V99.627C137.7 100.08 137.52 100.515 137.2 100.836C136.88 101.157 136.446 101.338 135.993 101.34ZM78.063 16.56C77.6288 16.5608 77.2126 16.7336 76.9056 17.0406C76.5986 17.3476 76.4258 17.7638 76.425 18.198V99.627C76.4258 100.061 76.5986 100.477 76.9056 100.784C77.2126 101.091 77.6288 101.264 78.063 101.265H135.993C136.427 101.264 136.843 101.091 137.15 100.784C137.457 100.477 137.63 100.061 137.631 99.627V18.198C137.63 17.7638 137.457 17.3476 137.15 17.0406C136.843 16.7336 136.427 16.5608 135.993 16.56H78.063Z" fill="#EBEBEB"/>
    <path d="M118.904 89.6431H116.912V114.72H118.904V89.6431Z" fill="#F5F5F5"/>
    <path d="M119.771 89.6431H118.037V114.72H119.771V89.6431Z" fill="#F0F0F0"/>
    <path d="M72.441 89.6431H70.449V114.72H72.441V89.6431Z" fill="#F5F5F5"/>
    <path d="M73.308 89.6431H71.574V114.72H73.308V89.6431Z" fill="#F0F0F0"/>
    <path d="M126.455 89.6431H124.463V114.72H126.455V89.6431Z" fill="#F5F5F5"/>
    <path d="M127.322 89.6431H125.588V114.72H127.322V89.6431Z" fill="#F0F0F0"/>
    <path d="M79.992 89.6431H78V114.72H79.992V89.6431Z" fill="#F5F5F5"/>
    <path d="M70.452 90.1169H127.323V89.1659H70.452V90.1169Z" fill="#F0F0F0"/>
    <path d="M70.449 90.1169H79.125V89.1659H70.449V90.1169Z" fill="#E6E6E6"/>
    <path d="M80.859 89.6431H79.125V114.72H80.859V89.6431Z" fill="#F0F0F0"/>
    <path d="M98.8913 70.9021H93.5123V89.1661H98.8913V70.9021Z" fill="#EBEBEB"/>
    <path d="M113.478 89.1658H95.622L92.925 67.7908H110.781L113.478 89.1658Z" fill="#E0E0E0"/>
    <path d="M114.529 89.1658H96.0847L93.3877 67.7908H111.832L114.529 89.1658Z" fill="#F0F0F0"/>
    <path d="M104.181 89.1658H100.602L101.61 67.7908H105.189L104.181 89.1658Z" fill="#FAFAFA"/>
    <path d="M108.283 89.1658H104.76L105.768 67.7908H109.291L108.283 89.1658Z" fill="#FAFAFA"/>
    <path d="M129.285 21.7532H82.8958V58.0502H129.285V21.7532Z" fill="#E6E6E6"/>
    <path d="M130.677 21.7532H83.5469V58.0502H130.677V21.7532Z" fill="#F0F0F0"/>
    <path d="M129.285 58.05H82.8958V59.265H129.285V58.05Z" fill="#E6E6E6"/>
    <path d="M131.417 58.05H84.2874V59.265H131.417V58.05Z" fill="#F0F0F0"/>
    <path d="M128.73 56.1V23.7L85.4972 23.7V56.1H128.73Z" fill="#FAFAFA"/>
    <path d="M109.155 56.1001L112.275 23.7031H117.675L114.555 56.1001H109.155Z" fill="white"/>
    <path d="M95.5292 56.1001L98.6492 23.7031H104.049L100.929 56.1001H95.5292Z" fill="white"/>
    <path d="M86.4002 45.1201C86.3609 45.1193 86.3235 45.1032 86.296 45.0751C86.2686 45.0471 86.2532 45.0094 86.2532 44.9701V24.9691C86.2532 24.9293 86.269 24.8912 86.2971 24.863C86.3252 24.8349 86.3634 24.8191 86.4032 24.8191C86.443 24.8191 86.4811 24.8349 86.5092 24.863C86.5374 24.8912 86.5532 24.9293 86.5532 24.9691V44.9701C86.5532 44.99 86.5492 45.0098 86.5415 45.0282C86.5337 45.0466 86.5224 45.0633 86.5082 45.0772C86.4939 45.0912 86.477 45.1022 86.4585 45.1095C86.4399 45.1169 86.4201 45.1205 86.4002 45.1201Z" fill="#F0F0F0"/>
    <path d="M115.712 56.1001L118.832 23.7031H120.938L117.818 56.1001H115.712Z" fill="white"/>
    <path d="M128.73 56.1031V23.7031H128.484V56.1031H128.73Z" fill="#E6E6E6"/>
    <path opacity="0.5" d="M131.139 27.2342H84.7497L84.5697 24.4592H130.959L131.139 27.2342Z" fill="#E0E0E0"/>
    <path opacity="0.5" d="M131.139 31.7967H84.7497L84.5697 29.0217H130.959L131.139 31.7967Z" fill="#E0E0E0"/>
    <path opacity="0.5" d="M131.139 36.36H84.7497L84.5697 33.585H130.959L131.139 36.36Z" fill="#E0E0E0"/>
    <path opacity="0.5" d="M131.139 40.923H84.7497L84.5697 38.1479H130.959L131.139 40.923Z" fill="#E0E0E0"/>
    <path opacity="0.5" d="M131.139 45.483H84.7497L84.5697 42.708H130.959L131.139 45.483Z" fill="#E0E0E0"/>
    <path opacity="0.5" d="M131.139 50.0462H84.7497L84.5697 47.2712H130.959L131.139 50.0462Z" fill="#E0E0E0"/>
    <path opacity="0.5" d="M131.139 29.5169H84.7497L84.5697 26.7419H130.959L131.139 29.5169Z" fill="#E0E0E0"/>
    <path opacity="0.5" d="M131.139 34.077H84.7497L84.5697 31.302H130.959L131.139 34.077Z" fill="#E0E0E0"/>
    <path opacity="0.5" d="M131.139 38.6402H84.7497L84.5697 35.8652H130.959L131.139 38.6402Z" fill="#E0E0E0"/>
    <path opacity="0.5" d="M131.139 43.2032H84.7497L84.5697 40.4282H130.959L131.139 43.2032Z" fill="#E0E0E0"/>
    <path opacity="0.5" d="M131.139 47.766H84.7497L84.5697 44.991H130.959L131.139 47.766Z" fill="#E0E0E0"/>
    <path opacity="0.5" d="M131.139 52.329H84.7497L84.5697 49.551H130.959L131.139 52.329Z" fill="#E0E0E0"/>
    <path d="M29.7602 39.7681H36.0572C36.8558 39.7681 37.5032 39.1207 37.5032 38.3221V35.9041C37.5032 35.1055 36.8558 34.4581 36.0572 34.4581H29.7602C28.9616 34.4581 28.3142 35.1055 28.3142 35.9041V38.3221C28.3142 39.1207 28.9616 39.7681 29.7602 39.7681Z" fill="#F5F5F5"/>
    <path d="M29.7602 34.4548H36.0572C36.8558 34.4548 37.5032 33.8074 37.5032 33.0088V30.5908C37.5032 29.7922 36.8558 29.1448 36.0572 29.1448H29.7602C28.9616 29.1448 28.3142 29.7922 28.3142 30.5908V33.0088C28.3142 33.8074 28.9616 34.4548 29.7602 34.4548Z" fill="#F5F5F5"/>
    <path d="M31.818 29.145H33.999C34.2757 29.145 34.5 28.9207 34.5 28.644V27.807C34.5 27.5303 34.2757 27.306 33.999 27.306H31.818C31.5413 27.306 31.317 27.5303 31.317 27.807V28.644C31.317 28.9207 31.5413 29.145 31.818 29.145Z" fill="#E0E0E0"/>
    <path d="M29.7602 45.075H36.0572C36.8558 45.075 37.5032 44.4276 37.5032 43.6289V41.2109C37.5032 40.4123 36.8558 39.7649 36.0572 39.7649H29.7602C28.9616 39.7649 28.3142 40.4123 28.3142 41.2109V43.6289C28.3142 44.4276 28.9616 45.075 29.7602 45.075Z" fill="#F5F5F5"/>
    <path d="M63.1556 41.3999C63.1556 41.3999 62.8556 45.0899 51.1886 45.0899C39.5216 45.0899 39.2186 41.3999 39.2186 41.3999H63.1556Z" fill="#F0F0F0"/>
    <path d="M27.3721 45.825H18.1261V111.294H27.3721V45.825Z" fill="#F0F0F0"/>
    <path d="M65.4929 111.294H19.8989V114.72H65.4929V111.294Z" fill="#F0F0F0"/>
    <path d="M27.3717 111.291H67.2687L67.2687 45.8218H27.3717L27.3717 111.291Z" fill="#F5F5F5"/>
    <path d="M31.0054 84.5371H63.6334V69.0871H31.0054V84.5371Z" fill="#F0F0F0"/>
    <path d="M31.0054 103.434H63.6334V87.9841H31.0054V103.434Z" fill="#F0F0F0"/>
    <path d="M31.0054 109.005H63.6334V106.65H31.0054V109.005Z" fill="#F0F0F0"/>
    <path d="M55.6113 70.3109H39.0273C38.6838 70.3101 38.3547 70.1733 38.1118 69.9305C37.8689 69.6876 37.7321 69.3584 37.7313 69.0149C37.7329 68.672 37.8701 68.3436 38.1128 68.1013C38.3556 67.8591 38.6844 67.7227 39.0273 67.7219H55.6113C55.9543 67.7227 56.283 67.8591 56.5258 68.1013C56.7686 68.3436 56.9057 68.672 56.9073 69.0149C56.9065 69.3584 56.7697 69.6876 56.5269 69.9305C56.284 70.1733 55.9548 70.3101 55.6113 70.3109Z" fill="#F5F5F5"/>
    <path d="M31.0054 65.6431H63.6334V50.1931H31.0054V65.6431Z" fill="#F0F0F0"/>
    <path d="M55.6113 51.417H39.0273C38.6838 51.4162 38.3547 51.2794 38.1118 51.0365C37.8689 50.7936 37.7321 50.4644 37.7313 50.121C37.7321 49.7775 37.8689 49.4483 38.1118 49.2054C38.3547 48.9625 38.6838 48.8257 39.0273 48.825H55.6113C55.9548 48.8257 56.284 48.9625 56.5269 49.2054C56.7697 49.4483 56.9065 49.7775 56.9073 50.121C56.9065 50.4644 56.7697 50.7936 56.5269 51.0365C56.284 51.2794 55.9548 51.4162 55.6113 51.417Z" fill="#F5F5F5"/>
    <path d="M55.6113 89.208H39.0273C38.6838 89.2072 38.3547 89.0704 38.1118 88.8275C37.8689 88.5846 37.7321 88.2554 37.7313 87.912C37.7321 87.5685 37.8689 87.2393 38.1118 86.9964C38.3547 86.7536 38.6838 86.6168 39.0273 86.616H55.6113C55.9548 86.6168 56.284 86.7536 56.5269 86.9964C56.7697 87.2393 56.9065 87.5685 56.9073 87.912C56.9065 88.2554 56.7697 88.5846 56.5269 88.8275C56.284 89.0704 55.9548 89.2072 55.6113 89.208Z" fill="#F5F5F5"/>
    <path d="M68.4987 45.0781H27.3687V45.8251H68.4987V45.0781Z" fill="#F0F0F0"/>
    <path d="M16.8358 45.825H27.3718V45.0779H16.8358V45.825Z" fill="#E6E6E6"/>
    <path d="M75.0005 128.268C107.125 128.268 133.168 126.748 133.168 124.872C133.168 122.997 107.125 121.476 75.0005 121.476C42.8757 121.476 16.8335 122.997 16.8335 124.872C16.8335 126.748 42.8757 128.268 75.0005 128.268Z" fill="#F5F5F5"/>
    <path d="M132.618 95.1328H17.3824L15.2584 93.1228H134.742L132.618 95.1328Z" fill="#592CB8"/>
    <path opacity="0.5" d="M132.618 95.1328H17.3824L15.2584 93.1228H134.742L132.618 95.1328Z" fill="white"/>
    <path d="M122.736 96.2156H27.2642L25.5032 95.1326H124.497L122.736 96.2156Z" fill="#592CB8"/>
    <path opacity="0.5" d="M122.736 96.2156H27.2642L25.5032 95.1326H124.497L122.736 96.2156Z" fill="black"/>
    <path d="M26.5087 124.872H25.1377L29.3887 96.2158H32.4457L26.5087 124.872Z" fill="#592CB8"/>
    <path opacity="0.5" d="M26.5087 124.872H25.1377L29.3887 96.2158H32.4457L26.5087 124.872Z" fill="black"/>
    <path d="M33.9306 124.872H32.5626L36.8136 96.2158H39.8706L33.9306 124.872Z" fill="#592CB8"/>
    <path opacity="0.5" d="M33.9306 124.872H32.5626L36.8136 96.2158H39.8706L33.9306 124.872Z" fill="black"/>
    <path d="M123.492 124.872H124.863L120.612 96.2158H117.555L123.492 124.872Z" fill="#592CB8"/>
    <path opacity="0.5" d="M123.492 124.872H124.863L120.612 96.2158H117.555L123.492 124.872Z" fill="black"/>
    <path d="M116.07 124.872H117.438L113.187 96.2158H110.13L116.07 124.872Z" fill="#592CB8"/>
    <path opacity="0.5" d="M116.07 124.872H117.438L113.187 96.2158H110.13L116.07 124.872Z" fill="black"/>
    <path d="M67.2842 28.542L71.1572 28.803C71.3074 28.8123 71.4522 28.8625 71.576 28.9482C71.6997 29.0338 71.7977 29.1517 71.8592 29.289L72.2672 30.189C72.3557 30.3834 72.5159 30.536 72.7142 30.615C73.2 30.8147 73.6712 31.0483 74.1242 31.314C74.305 31.4204 74.5192 31.4546 74.7242 31.41L75.6962 31.182C75.8427 31.1482 75.9955 31.1547 76.1386 31.2006C76.2818 31.2465 76.4098 31.3303 76.5092 31.443L79.0652 34.365C79.1644 34.4787 79.2307 34.6172 79.2571 34.7657C79.2836 34.9142 79.2691 35.0671 79.2152 35.208L78.8612 36.138C78.7865 36.3383 78.7919 36.5596 78.8762 36.756C79.079 37.2437 79.2474 37.7449 79.3802 38.256C79.4315 38.4631 79.5618 38.6419 79.7432 38.754L80.5892 39.279C80.7172 39.358 80.8212 39.4704 80.89 39.6042C80.9587 39.738 80.9896 39.888 80.9792 40.038L80.7212 43.914C80.7115 44.0641 80.6607 44.2087 80.5745 44.3319C80.4883 44.4552 80.3699 44.5524 80.2322 44.613L79.3322 45.021C79.1391 45.1113 78.9871 45.2709 78.9062 45.468C78.7088 45.9543 78.4762 46.4256 78.2102 46.878C78.103 47.0585 78.0687 47.2731 78.1142 47.478L78.3392 48.447C78.374 48.5935 78.3681 48.7466 78.3221 48.8899C78.2761 49.0332 78.1917 49.1612 78.0782 49.26L75.1562 51.816C75.0432 51.9152 74.9052 51.9816 74.7571 52.0081C74.6091 52.0345 74.4566 52.02 74.3162 51.966L73.3832 51.612C73.1856 51.534 72.9658 51.534 72.7682 51.612C72.2802 51.8139 71.7791 51.9823 71.2682 52.116C71.0617 52.1685 70.8833 52.2985 70.7702 52.479L70.2452 53.325C70.1655 53.4531 70.0525 53.557 69.9183 53.6257C69.784 53.6944 69.6337 53.7253 69.4832 53.715L65.6102 53.457C65.4602 53.4471 65.3156 53.3967 65.192 53.3111C65.0684 53.2255 64.9703 53.108 64.9082 52.971L64.5002 52.071C64.4117 51.8767 64.2516 51.7241 64.0532 51.645C63.5674 51.4454 63.0962 51.2118 62.6432 50.946C62.4625 50.8394 62.2482 50.8052 62.0432 50.85L61.0742 51.078C60.9278 51.1125 60.7747 51.1064 60.6315 51.0604C60.4882 51.0144 60.3602 50.9303 60.2612 50.817L57.7022 47.895C57.6036 47.781 57.5377 47.6426 57.5113 47.4942C57.4849 47.3458 57.499 47.193 57.5522 47.052L57.9062 46.122C57.981 45.9228 57.9756 45.7024 57.8912 45.507C57.689 45.0192 57.5206 44.518 57.3872 44.007C57.336 43.8 57.2057 43.6212 57.0242 43.509L56.1782 42.984C56.0502 42.9051 55.9462 42.7927 55.8775 42.6589C55.8087 42.5251 55.7779 42.3751 55.7882 42.225L56.0462 38.349C56.0567 38.1988 56.1077 38.0542 56.1938 37.9306C56.2799 37.807 56.3979 37.709 56.5352 37.647L57.4352 37.242C57.6295 37.1535 57.7822 36.9934 57.8612 36.795C58.0609 36.3083 58.2944 35.8361 58.5602 35.382C58.6673 35.2015 58.7026 34.9874 58.6592 34.782L58.4312 33.813C58.3968 33.6666 58.4028 33.5135 58.4488 33.3703C58.4948 33.2271 58.579 33.0991 58.6922 33L61.6142 30.444C61.7271 30.3446 61.865 30.2779 62.013 30.2509C62.161 30.224 62.3135 30.2378 62.4542 30.291L63.3872 30.645C63.5845 30.7246 63.8049 30.7246 64.0022 30.645C64.4897 30.4418 64.9909 30.2734 65.5022 30.141C65.7076 30.088 65.8854 29.9594 66.0002 29.781L66.5252 28.935C66.6045 28.8072 66.7169 28.7031 66.8505 28.6339C66.9842 28.5647 67.134 28.533 67.2842 28.542ZM61.0592 40.653C60.9621 42.103 61.2972 43.5493 62.0222 44.8088C62.7471 46.0683 63.8293 47.0846 65.1318 47.729C66.4344 48.3734 67.8988 48.6171 69.3398 48.4292C70.7808 48.2413 72.1338 47.6302 73.2275 46.6733C74.3213 45.7164 75.1066 44.4566 75.4843 43.0533C75.862 41.65 75.8151 40.1662 75.3494 38.7896C74.8837 37.413 74.0202 36.2054 72.8682 35.3196C71.7161 34.4337 70.3272 33.9095 68.8772 33.813C66.9337 33.6846 65.0188 34.3328 63.5529 35.6153C62.087 36.8978 61.1901 38.7097 61.0592 40.653Z" fill="#592CB8"/>
    <path d="M82.635 44.916L83.964 44.466C84.0343 44.4429 84.1095 44.4391 84.1818 44.4549C84.2541 44.4707 84.3208 44.5056 84.375 44.556L84.594 44.766C84.6707 44.8348 84.77 44.8732 84.873 44.874C85.0556 44.8738 85.238 44.8859 85.419 44.91C85.4713 44.9185 85.5247 44.9165 85.5763 44.9042C85.6278 44.8918 85.6763 44.8693 85.719 44.838L85.965 44.661C86.0256 44.6184 86.0966 44.5929 86.1705 44.5871C86.2444 44.5813 86.3185 44.5954 86.385 44.628L87.642 45.252C87.7082 45.2845 87.7643 45.3342 87.8044 45.396C87.8446 45.4578 87.8672 45.5294 87.87 45.603V45.903C87.874 46.0068 87.9168 46.1053 87.99 46.179C88.1194 46.3075 88.2397 46.4448 88.35 46.59C88.4128 46.6717 88.5037 46.7273 88.605 46.746L88.905 46.794C88.9779 46.8062 89.046 46.838 89.1021 46.8862C89.1581 46.9343 89.1999 46.9968 89.223 47.067L89.673 48.396C89.6975 48.4659 89.7023 48.5412 89.687 48.6137C89.6716 48.6861 89.6367 48.753 89.586 48.807L89.376 49.026C89.3067 49.1024 89.2683 49.2018 89.268 49.305C89.2681 49.4876 89.256 49.67 89.232 49.851C89.2232 49.9031 89.2248 49.9564 89.2367 50.0079C89.2485 50.0593 89.2704 50.108 89.301 50.151L89.478 50.397C89.5217 50.4565 89.5482 50.5269 89.5546 50.6004C89.5609 50.674 89.5469 50.7479 89.514 50.814L88.89 52.074C88.8575 52.1402 88.8078 52.1963 88.746 52.2364C88.6842 52.2766 88.6127 52.2992 88.539 52.302H88.239C88.1359 52.3052 88.0381 52.3482 87.966 52.422C87.8353 52.549 87.6981 52.6692 87.555 52.782C87.4733 52.8448 87.4177 52.9356 87.399 53.037L87.351 53.337C87.3388 53.4099 87.307 53.478 87.2588 53.5341C87.2107 53.5901 87.1482 53.6319 87.078 53.655L85.749 54.105C85.6788 54.1291 85.6034 54.1334 85.5309 54.1176C85.4584 54.1017 85.3917 54.0662 85.338 54.015L85.116 53.808C85.0407 53.7369 84.9406 53.6981 84.837 53.7C84.6554 53.7001 84.474 53.688 84.294 53.664C84.2419 53.6551 84.1886 53.6566 84.1371 53.6684C84.0856 53.6803 84.037 53.7022 83.994 53.733L83.748 53.91C83.6879 53.9537 83.617 53.9801 83.543 53.9865C83.469 53.9928 83.3947 53.9788 83.328 53.946L82.071 53.322C82.0044 53.2893 81.948 53.2391 81.9078 53.1767C81.8676 53.1143 81.8452 53.0422 81.843 52.968V52.668C81.8383 52.5653 81.7955 52.4679 81.723 52.395C81.5943 52.2659 81.4741 52.1286 81.363 51.984C81.3328 51.9425 81.2948 51.9074 81.251 51.8806C81.2073 51.8538 81.1587 51.836 81.108 51.828L80.808 51.78C80.7352 51.7668 80.6672 51.7346 80.6108 51.6867C80.5544 51.6387 80.5117 51.5768 80.487 51.507L80.037 50.175C80.0138 50.1052 80.01 50.0304 80.0258 49.9586C80.0417 49.8868 80.0766 49.8206 80.127 49.767L80.337 49.548C80.4065 49.4705 80.4449 49.3701 80.445 49.266C80.4449 49.0834 80.457 48.901 80.481 48.72C80.4975 48.6144 80.4716 48.5066 80.409 48.42L80.235 48.174C80.1913 48.1145 80.1648 48.0441 80.1584 47.9706C80.1521 47.897 80.1661 47.8231 80.199 47.757L80.823 46.497C80.8551 46.4308 80.9048 46.3747 80.9668 46.335C81.0287 46.2953 81.1004 46.2735 81.174 46.272H81.474C81.5778 46.268 81.6763 46.2252 81.75 46.152C81.8791 46.0233 82.0164 45.9031 82.161 45.792C82.2427 45.7292 82.2983 45.6384 82.317 45.537L82.365 45.237C82.3764 45.1639 82.4076 45.0954 82.4552 45.0388C82.5028 44.9822 82.565 44.9398 82.635 44.916ZM83.43 49.77C83.5255 50.0506 83.702 50.2967 83.9372 50.4771C84.1725 50.6575 84.4559 50.7641 84.7517 50.7836C85.0475 50.803 85.3424 50.7344 85.5992 50.5863C85.856 50.4382 86.0632 50.2174 86.1946 49.9517C86.326 49.6859 86.3758 49.3872 86.3375 49.0933C86.2993 48.7993 86.1748 48.5233 85.9798 48.3C85.7848 48.0767 85.528 47.9163 85.2418 47.8389C84.9557 47.7614 84.653 47.7705 84.372 47.865C84.1849 47.9279 84.012 48.0272 83.8633 48.1571C83.7146 48.2869 83.593 48.4449 83.5054 48.6219C83.4179 48.7989 83.3662 48.9914 83.3533 49.1884C83.3403 49.3855 83.3664 49.5831 83.43 49.77Z" fill="#592CB8"/>
    <path opacity="0.5" d="M82.635 44.916L83.964 44.466C84.0343 44.4429 84.1095 44.4391 84.1818 44.4549C84.2541 44.4707 84.3208 44.5056 84.375 44.556L84.594 44.766C84.6707 44.8348 84.77 44.8732 84.873 44.874C85.0556 44.8738 85.238 44.8859 85.419 44.91C85.4713 44.9185 85.5247 44.9165 85.5763 44.9042C85.6278 44.8918 85.6763 44.8693 85.719 44.838L85.965 44.661C86.0256 44.6184 86.0966 44.5929 86.1705 44.5871C86.2444 44.5813 86.3185 44.5954 86.385 44.628L87.642 45.252C87.7082 45.2845 87.7643 45.3342 87.8044 45.396C87.8446 45.4578 87.8672 45.5294 87.87 45.603V45.903C87.874 46.0068 87.9168 46.1053 87.99 46.179C88.1194 46.3075 88.2397 46.4448 88.35 46.59C88.4128 46.6717 88.5037 46.7273 88.605 46.746L88.905 46.794C88.9779 46.8062 89.046 46.838 89.1021 46.8862C89.1581 46.9343 89.1999 46.9968 89.223 47.067L89.673 48.396C89.6975 48.4659 89.7023 48.5412 89.687 48.6137C89.6716 48.6861 89.6367 48.753 89.586 48.807L89.376 49.026C89.3067 49.1024 89.2683 49.2018 89.268 49.305C89.2681 49.4876 89.256 49.67 89.232 49.851C89.2232 49.9031 89.2248 49.9564 89.2367 50.0079C89.2485 50.0593 89.2704 50.108 89.301 50.151L89.478 50.397C89.5217 50.4565 89.5482 50.5269 89.5546 50.6004C89.5609 50.674 89.5469 50.7479 89.514 50.814L88.89 52.074C88.8575 52.1402 88.8078 52.1963 88.746 52.2364C88.6842 52.2766 88.6127 52.2992 88.539 52.302H88.239C88.1359 52.3052 88.0381 52.3482 87.966 52.422C87.8353 52.549 87.6981 52.6692 87.555 52.782C87.4733 52.8448 87.4177 52.9356 87.399 53.037L87.351 53.337C87.3388 53.4099 87.307 53.478 87.2588 53.5341C87.2107 53.5901 87.1482 53.6319 87.078 53.655L85.749 54.105C85.6788 54.1291 85.6034 54.1334 85.5309 54.1176C85.4584 54.1017 85.3917 54.0662 85.338 54.015L85.116 53.808C85.0407 53.7369 84.9406 53.6981 84.837 53.7C84.6554 53.7001 84.474 53.688 84.294 53.664C84.2419 53.6551 84.1886 53.6566 84.1371 53.6684C84.0856 53.6803 84.037 53.7022 83.994 53.733L83.748 53.91C83.6879 53.9537 83.617 53.9801 83.543 53.9865C83.469 53.9928 83.3947 53.9788 83.328 53.946L82.071 53.322C82.0044 53.2893 81.948 53.2391 81.9078 53.1767C81.8676 53.1143 81.8452 53.0422 81.843 52.968V52.668C81.8383 52.5653 81.7955 52.4679 81.723 52.395C81.5943 52.2659 81.4741 52.1286 81.363 51.984C81.3328 51.9425 81.2948 51.9074 81.251 51.8806C81.2073 51.8538 81.1587 51.836 81.108 51.828L80.808 51.78C80.7352 51.7668 80.6672 51.7346 80.6108 51.6867C80.5544 51.6387 80.5117 51.5768 80.487 51.507L80.037 50.175C80.0138 50.1052 80.01 50.0304 80.0258 49.9586C80.0417 49.8868 80.0766 49.8206 80.127 49.767L80.337 49.548C80.4065 49.4705 80.4449 49.3701 80.445 49.266C80.4449 49.0834 80.457 48.901 80.481 48.72C80.4975 48.6144 80.4716 48.5066 80.409 48.42L80.235 48.174C80.1913 48.1145 80.1648 48.0441 80.1584 47.9706C80.1521 47.897 80.1661 47.8231 80.199 47.757L80.823 46.497C80.8551 46.4308 80.9048 46.3747 80.9668 46.335C81.0287 46.2953 81.1004 46.2735 81.174 46.272H81.474C81.5778 46.268 81.6763 46.2252 81.75 46.152C81.8791 46.0233 82.0164 45.9031 82.161 45.792C82.2427 45.7292 82.2983 45.6384 82.317 45.537L82.365 45.237C82.3764 45.1639 82.4076 45.0954 82.4552 45.0388C82.5028 44.9822 82.565 44.9398 82.635 44.916ZM83.43 49.77C83.5255 50.0506 83.702 50.2967 83.9372 50.4771C84.1725 50.6575 84.4559 50.7641 84.7517 50.7836C85.0475 50.803 85.3424 50.7344 85.5992 50.5863C85.856 50.4382 86.0632 50.2174 86.1946 49.9517C86.326 49.6859 86.3758 49.3872 86.3375 49.0933C86.2993 48.7993 86.1748 48.5233 85.9798 48.3C85.7848 48.0767 85.528 47.9163 85.2418 47.8389C84.9557 47.7614 84.653 47.7705 84.372 47.865C84.1849 47.9279 84.012 48.0272 83.8633 48.1571C83.7146 48.2869 83.593 48.4449 83.5054 48.6219C83.4179 48.7989 83.3662 48.9914 83.3533 49.1884C83.3403 49.3855 83.3664 49.5831 83.43 49.77Z" fill="white"/>
    <path d="M74.9703 59.322L76.6204 56.463C76.6814 56.3566 76.7137 56.2362 76.714 56.1135C76.7143 55.9909 76.6826 55.8703 76.622 55.7636C76.5614 55.657 76.474 55.568 76.3685 55.5054C76.263 55.4429 76.143 55.409 76.0204 55.407H72.7203C72.5973 55.4081 72.4768 55.4414 72.3708 55.5038C72.2647 55.5661 72.1769 55.6552 72.1162 55.7622C72.0554 55.8691 72.0238 55.9901 72.0245 56.1131C72.0253 56.2361 72.0583 56.3568 72.1203 56.463L73.7703 59.322C73.8335 59.4243 73.9218 59.5088 74.0268 59.5674C74.1318 59.6261 74.2501 59.6568 74.3703 59.6568C74.4906 59.6568 74.6089 59.6261 74.7139 59.5674C74.8189 59.5088 74.9072 59.4243 74.9703 59.322Z" fill="#592CB8"/>
    <path d="M20.9076 91.9258H61.3506C61.4894 91.9263 61.6269 91.8988 61.7549 91.8449C61.8829 91.7909 61.9986 91.7117 62.0953 91.612C62.1919 91.5123 62.2674 91.3941 62.3173 91.2645C62.3672 91.1349 62.3904 90.9966 62.3856 90.8578L61.4286 61.9438C61.4156 61.6578 61.2937 61.3875 61.0879 61.1884C60.8821 60.9892 60.6079 60.8764 60.3216 60.8728H19.8816C19.7423 60.8719 19.6043 60.8992 19.476 60.9532C19.3476 61.0072 19.2315 61.0866 19.1348 61.1867C19.038 61.2869 18.9626 61.4056 18.913 61.5357C18.8635 61.6659 18.8409 61.8047 18.8466 61.9438L19.8006 90.8578C19.8121 91.1441 19.9337 91.4149 20.1399 91.6138C20.3461 91.8128 20.621 91.9245 20.9076 91.9258Z" fill="#592CB8"/>
    <path d="M21.2381 91.9258H61.6811C61.82 91.9263 61.9575 91.8988 62.0855 91.8449C62.2134 91.7909 62.3292 91.7117 62.4258 91.612C62.5225 91.5123 62.598 91.3941 62.6479 91.2645C62.6978 91.1349 62.721 90.9966 62.7161 90.8578L61.7591 61.9438C61.7461 61.6577 61.6242 61.3875 61.4184 61.1883C61.2126 60.9892 60.9385 60.8763 60.6521 60.8728H20.2121C20.073 60.8723 19.9352 60.8999 19.8071 60.954C19.6789 61.0081 19.563 61.0876 19.4663 61.1876C19.3696 61.2877 19.2942 61.4062 19.2445 61.5362C19.1948 61.6661 19.1719 61.8048 19.1771 61.9438L20.1341 90.8578C20.1457 91.1436 20.2668 91.4139 20.4724 91.6128C20.6779 91.8117 20.9521 91.9237 21.2381 91.9258Z" fill="#592CB8"/>
    <g opacity="0.6">
        <path opacity="0.6" d="M21.2381 91.9258H61.6811C61.82 91.9263 61.9575 91.8988 62.0855 91.8449C62.2134 91.7909 62.3292 91.7117 62.4258 91.612C62.5225 91.5123 62.598 91.3941 62.6479 91.2645C62.6978 91.1349 62.721 90.9966 62.7161 90.8578L61.7591 61.9438C61.7461 61.6577 61.6242 61.3875 61.4184 61.1883C61.2126 60.9892 60.9385 60.8763 60.6521 60.8728H20.2121C20.073 60.8723 19.9352 60.8999 19.8071 60.954C19.6789 61.0081 19.563 61.0876 19.4663 61.1876C19.3696 61.2877 19.2942 61.4062 19.2445 61.5362C19.1948 61.6661 19.1719 61.8048 19.1771 61.9438L20.1341 90.8578C20.1457 91.1436 20.2668 91.4139 20.4724 91.6128C20.6779 91.8117 20.9521 91.9237 21.2381 91.9258Z" fill="#263238"/>
    </g>
    <path d="M21.76 91.875H70.603C70.8432 91.8749 71.0786 91.9424 71.2823 92.0697C71.486 92.197 71.6498 92.379 71.755 92.595C71.782 92.6515 71.7941 92.7139 71.7903 92.7764C71.7866 92.8388 71.7669 92.8993 71.7333 92.9521C71.6997 93.0049 71.6533 93.0483 71.5983 93.0782C71.5433 93.1081 71.4816 93.1235 71.419 93.123H20.944C20.8812 93.124 20.8191 93.109 20.7637 93.0793C20.7083 93.0496 20.6614 93.0063 20.6275 92.9534C20.5935 92.9005 20.5736 92.8398 20.5697 92.7771C20.5658 92.7144 20.5779 92.6517 20.605 92.595C20.7107 92.3788 20.875 92.1967 21.0793 92.0694C21.2835 91.9421 21.5194 91.8747 21.76 91.875Z" fill="#592CB8"/>
    <path opacity="0.6" d="M70.6025 91.875H31.6265C31.3858 91.8747 31.1499 91.9421 30.9457 92.0694C30.7415 92.1967 30.5772 92.3788 30.4715 92.595C30.4444 92.6517 30.4322 92.7144 30.4361 92.7771C30.4401 92.8398 30.46 92.9005 30.4939 92.9534C30.5279 93.0063 30.5748 93.0496 30.6302 93.0793C30.6856 93.109 30.7476 93.124 30.8105 93.123H71.4185C71.481 93.1235 71.5427 93.1081 71.5977 93.0782C71.6527 93.0483 71.6992 93.0049 71.7328 92.9521C71.7664 92.8993 71.786 92.8388 71.7898 92.7764C71.7936 92.7139 71.7814 92.6515 71.7545 92.595C71.6493 92.379 71.4855 92.197 71.2818 92.0697C71.0781 91.9424 70.8427 91.8749 70.6025 91.875Z" fill="#263238"/>
    <path opacity="0.3" d="M47.3039 92.6667H57.4439C57.5643 92.6675 57.6795 92.7159 57.7644 92.8014C57.8493 92.8868 57.8969 93.0023 57.8969 93.1227H46.8479C46.8479 93.0018 46.8959 92.8858 46.9815 92.8003C47.067 92.7148 47.183 92.6667 47.3039 92.6667Z" fill="white"/>
    <path opacity="0.9" d="M61.7491 89.8108L60.8491 62.9907C60.8438 62.8793 60.7961 62.7741 60.7158 62.6966C60.6356 62.6191 60.5287 62.5752 60.4171 62.5737H20.5442C20.4892 62.5732 20.4346 62.584 20.384 62.6056C20.3334 62.6271 20.2878 62.6589 20.25 62.6989C20.2123 62.7389 20.1832 62.7863 20.1647 62.838C20.1461 62.8898 20.1384 62.9449 20.1422 62.9997L21.0422 89.8198C21.046 89.9312 21.0928 90.0368 21.1728 90.1145C21.2527 90.1923 21.3596 90.2361 21.4712 90.2368H61.3712C61.424 90.2337 61.4757 90.2202 61.5233 90.1972C61.5709 90.1741 61.6135 90.1418 61.6486 90.1022C61.6837 90.0627 61.7107 90.0165 61.7279 89.9665C61.7452 89.9165 61.7524 89.8636 61.7491 89.8108Z" fill="white"/>
    <path d="M28.8783 90.228H23.3793L29.7183 62.574H35.2173L28.8783 90.228Z" fill="white"/>
    <path d="M32.3821 90.228H30.4021L36.7411 62.574H38.7211L32.3821 90.228Z" fill="white"/>
    <path d="M52.6113 90.228H50.6313L56.9703 62.574H58.9473L52.6113 90.228Z" fill="white"/>
    <path opacity="0.4" d="M40.1472 61.77C40.1546 61.8512 40.1918 61.9267 40.2516 61.9821C40.3115 62.0375 40.3897 62.0688 40.4712 62.07C40.5508 62.07 40.6271 62.0384 40.6833 61.9821C40.7396 61.9258 40.7712 61.8495 40.7712 61.77C40.7651 61.6883 40.7284 61.6119 40.6682 61.5562C40.6081 61.5006 40.5291 61.4697 40.4472 61.47C40.3677 61.47 40.2913 61.5016 40.2351 61.5578C40.1788 61.6141 40.1472 61.6904 40.1472 61.77Z" fill="white"/>
    <path d="M53.0222 58.8179C53.5532 59.6699 54.1262 60.5729 54.6992 61.4429C55.2722 62.3129 55.8602 63.1829 56.4602 64.0349C57.6244 65.7277 58.8834 67.3533 60.2312 68.9039C60.8644 69.6277 61.5513 70.3026 62.2862 70.9229L62.5442 71.1269C62.6006 71.1752 62.6597 71.2203 62.7212 71.2619C62.8767 71.3641 63.038 71.4572 63.2042 71.5409C63.6092 71.7379 64.0284 71.9044 64.4582 72.0389C64.9112 72.1919 65.3882 72.3389 65.8742 72.4499C66.3602 72.5609 66.8612 72.6899 67.3742 72.7949C68.3792 73.0079 69.4292 73.2029 70.4402 73.3769V75.4769C69.8642 75.5609 69.3242 75.6029 68.7632 75.6419C68.2022 75.6809 67.6472 75.6959 67.0832 75.6989C65.9316 75.7028 64.7817 75.6115 63.6452 75.4259C63.0298 75.3189 62.4231 75.1665 61.8302 74.9699C61.4984 74.856 61.1755 74.7176 60.8642 74.5559C60.6992 74.4779 60.5252 74.3669 60.3572 74.2559L59.9702 73.9859C59.0153 73.2842 58.1221 72.5024 57.3002 71.6489C55.7523 70.0334 54.3198 68.3111 53.0132 66.4949C52.3632 65.6049 51.7372 64.7049 51.1352 63.7949C50.5352 62.8709 49.9352 61.9649 49.3772 60.9809L53.0222 58.8179Z" fill="#FFC3BD"/>
    <path d="M47.9732 59.3999C47.6732 62.0339 53.9522 68.3279 53.9522 68.3279L58.2002 64.7819C56.9553 62.6754 55.5775 60.6503 54.0752 58.7189C51.6602 55.7279 48.3002 56.4209 47.9732 59.3999Z" fill="#592CB8"/>
    <path opacity="0.3" d="M51.4057 61.269C49.7287 59.469 48.9277 59.004 47.9617 59.721C48.0907 62.502 53.9617 68.322 53.9617 68.322C54.3457 65.337 52.8247 63.417 51.4057 61.269Z" fill="black"/>
    <path d="M57.8557 63.5669L58.3027 64.8629L53.5507 68.7629L52.6117 67.7879L57.8557 63.5669Z" fill="#592CB8"/>
    <path opacity="0.3" d="M57.8557 63.5669L58.3027 64.8629L53.5507 68.7629L52.6117 67.7879L57.8557 63.5669Z" fill="#263238"/>
    <path d="M70.2155 73.3347L73.5155 73.9017L71.7005 76.7997C71.2685 76.8687 69.5465 75.9357 68.7845 74.7777L70.2155 73.3347Z" fill="#FFC3BD"/>
    <path d="M75.5399 75.8581L74.2229 77.3521L71.6969 76.7851L73.5089 73.9021L75.5399 75.8581Z" fill="#FFC3BD"/>
    <path d="M51.3902 56.8769C51.3902 56.8769 54.9902 65.3429 52.3982 81.1109H37.3981C37.2151 78.8099 38.2711 67.5809 35.6761 56.7329C37.3275 56.4125 38.9981 56.2011 40.6771 56.0999C42.8004 55.9768 44.9289 55.9768 47.0521 56.0999C48.516 56.2467 49.9663 56.5065 51.3902 56.8769Z" fill="#592CB8"/>
    <path opacity="0.3" d="M39.0269 59.3999C39.3269 61.1999 38.9249 65.4539 37.3949 70.3919C37.2777 66.1566 36.7847 61.9401 35.9219 57.7919V57.7709C36.8999 57.6899 38.7299 57.7379 39.0269 59.3999Z" fill="black"/>
    <path d="M41.0581 48.9207C41.5321 50.9727 42.0631 54.7317 40.6771 56.0997C40.6771 56.0997 41.2771 57.7977 45.0871 57.7977C49.2871 57.7977 47.0521 56.0997 47.0521 56.0997C44.7451 55.5537 44.7451 53.8557 45.0871 52.2627L41.0581 48.9207Z" fill="#FFC3BD"/>
    <path d="M45.3451 57.9568L46.2451 58.9078C46.2724 58.9359 46.2905 58.9716 46.2969 59.0102C46.3034 59.0488 46.2979 59.0885 46.2811 59.1238L45.8311 60.0628C45.8167 60.0949 45.7935 60.1222 45.7644 60.1418C45.7353 60.1614 45.7012 60.1725 45.6661 60.1738L44.9851 60.2068C44.9527 60.2082 44.9205 60.2011 44.8916 60.1864C44.8627 60.1717 44.8381 60.1498 44.8201 60.1228L44.1901 59.2228C44.1648 59.1891 44.1511 59.148 44.1511 59.1058C44.1511 59.0636 44.1648 59.0226 44.1901 58.9888L45.0541 57.9658C45.0712 57.9439 45.0929 57.926 45.1177 57.9134C45.1425 57.9008 45.1697 57.8938 45.1975 57.8929C45.2253 57.8921 45.2529 57.8973 45.2785 57.9084C45.304 57.9194 45.3267 57.936 45.3451 57.9568Z" fill="white"/>
    <path d="M45.1984 57.7977C44.7654 58.4943 44.5147 59.2887 44.4694 60.1077C44.4694 60.1077 39.6004 58.4427 39.8224 56.0067C40.2549 55.797 40.671 55.5554 41.0674 55.2837C41.0674 55.2837 41.2264 56.8227 45.1984 57.7977Z" fill="#263238"/>
    <path d="M45.198 57.7977C45.6311 58.4582 45.943 59.1907 46.119 59.9607C46.119 59.9607 48.375 58.4157 47.733 56.0067L46.407 55.7217C46.407 55.7217 46.686 57.2757 45.198 57.7977Z" fill="#263238"/>
    <path d="M45.7501 60.0719C46.0501 61.0679 48.3121 68.4539 48.3691 70.2209C48.3706 70.2359 48.3706 70.251 48.3691 70.2659C48.1591 71.2169 47.2171 72.8849 46.8331 73.5389C46.8183 73.5648 46.7966 73.586 46.7705 73.6001C46.7443 73.6142 46.7147 73.6207 46.685 73.6188C46.6553 73.6169 46.6267 73.6068 46.6025 73.5895C46.5783 73.5722 46.5595 73.5484 46.5481 73.5209C46.2841 72.8759 45.6481 71.3309 45.2281 70.4279C45.2203 70.4108 45.2153 70.3926 45.2131 70.3739C45.0151 67.1489 44.9611 62.1329 44.8621 60.1289C44.8608 60.1073 44.8641 60.0857 44.8715 60.0653C44.8789 60.045 44.8905 60.0264 44.9053 60.0106C44.9202 59.9949 44.9382 59.9824 44.9581 59.9738C44.978 59.9653 44.9994 59.9609 45.0211 59.9609H45.6001C45.6336 59.9613 45.6661 59.9722 45.6931 59.9921C45.72 60.0121 45.74 60.04 45.7501 60.0719Z" fill="white"/>
    <path opacity="0.2" d="M42.7032 50.283L45.0882 52.26C45.0019 52.6315 44.9487 53.01 44.9292 53.391C44.0502 53.265 42.8292 52.308 42.6942 51.393C42.6282 51.0256 42.6312 50.6492 42.7032 50.283Z" fill="black"/>
    <path d="M46.9325 42.8219C47.4995 43.2449 48.4685 45.0329 47.2325 45.5009C45.9965 45.9689 45.5435 41.7839 46.9325 42.8219Z" fill="#263238"/>
    <path d="M40.3207 46.4607C40.8877 49.1937 41.0827 50.8167 42.6817 52.0737C43.197 52.4887 43.816 52.7547 44.4716 52.8432C45.1272 52.9316 45.7946 52.8391 46.4014 52.5755C47.0082 52.312 47.5313 51.8875 47.9142 51.348C48.2971 50.8085 48.5252 50.1745 48.5737 49.5147C48.8077 46.9797 47.8357 42.9387 44.9737 42.1407C44.3589 41.9523 43.7053 41.9288 43.0785 42.0726C42.4517 42.2164 41.8736 42.5224 41.4024 42.9599C40.9311 43.3975 40.5831 43.9512 40.3932 44.5657C40.2034 45.1801 40.1784 45.8336 40.3207 46.4607Z" fill="#FFC3BD"/>
    <path d="M40.678 48.5189L41.824 47.7539L41.899 47.0879C42.0043 46.1222 41.8238 45.1469 41.38 44.2829C41.38 44.2829 46.951 44.4899 47.641 42.7469C48.331 41.0039 46.369 39.6929 46.369 39.6929C46.369 39.6929 44.398 40.8239 43.069 40.9139C41.74 41.0039 37.669 39.3419 37.669 42.7829C35.869 43.3379 35.929 46.2989 40.669 48.5189" fill="#263238"/>
    <path d="M37.8698 42.9179C37.8698 42.9179 37.1318 42.3329 37.6808 40.5449C37.0058 40.8809 36.6818 42.7079 37.8698 42.9179Z" fill="#263238"/>
    <path d="M39.5141 49.6321C39.9679 50.1747 40.6118 50.5234 41.3141 50.6071C42.2441 50.7061 42.5141 49.8481 42.1121 49.0591C41.7401 48.3511 40.8101 47.4451 39.9521 47.7121C39.0941 47.9791 38.9591 48.9571 39.5141 49.6321Z" fill="#FFC3BD"/>
    <path d="M53.664 90.2278H44.079C43.218 85.0258 42.525 81.1108 42.525 81.1108H52.398C52.398 81.1108 52.953 84.9598 53.664 90.2278Z" fill="#263238"/>
    <path d="M37.7646 90.2278C37.5486 85.0258 37.3866 81.1108 37.3866 81.1108H47.0646C47.0646 81.1108 47.1126 85.0738 47.1336 90.2278H37.7646Z" fill="#263238"/>
    <path d="M44.6196 46.7701C44.6526 46.9951 44.7966 47.1632 44.9436 47.1482C45.0906 47.1332 45.1836 46.9352 45.1506 46.7131C45.1176 46.4911 44.9736 46.3201 44.8266 46.3351C44.6796 46.3501 44.5866 46.5451 44.6196 46.7701Z" fill="#263238"/>
    <path d="M47.1601 46.4999C47.1931 46.7249 47.3371 46.8929 47.4841 46.8749C47.6311 46.8569 47.7241 46.6649 47.6911 46.4429C47.6581 46.2209 47.5141 46.0499 47.3671 46.0649C47.2201 46.0799 47.1271 46.2659 47.1601 46.4999Z" fill="#263238"/>
    <path d="M46.369 46.6919C46.7372 47.3491 47.1912 47.9544 47.719 48.4919C47.377 48.9059 46.675 48.8099 46.675 48.8099L46.369 46.6919Z" fill="#ED847E"/>
    <path d="M45.6422 49.4998C45.7968 49.5163 45.9526 49.5163 46.1072 49.4998C46.1159 49.4991 46.1243 49.4966 46.132 49.4926C46.1398 49.4885 46.1466 49.483 46.1522 49.4763C46.1578 49.4696 46.162 49.4619 46.1645 49.4536C46.1671 49.4453 46.168 49.4365 46.1672 49.4278C46.1649 49.41 46.1558 49.3938 46.1418 49.3826C46.1278 49.3714 46.11 49.3661 46.0922 49.3678C45.8096 49.4038 45.5225 49.3743 45.253 49.2817C44.9836 49.1892 44.739 49.0359 44.5382 48.8338C44.5325 48.8271 44.5255 48.8216 44.5177 48.8176C44.5098 48.8136 44.5013 48.8112 44.4925 48.8105C44.4837 48.8098 44.4749 48.8109 44.4665 48.8136C44.4582 48.8163 44.4504 48.8206 44.4437 48.8263C44.437 48.832 44.4315 48.839 44.4275 48.8469C44.4235 48.8547 44.4211 48.8633 44.4204 48.872C44.4197 48.8808 44.4207 48.8896 44.4234 48.898C44.4261 48.9064 44.4305 48.9141 44.4362 48.9208C44.7564 49.2513 45.1841 49.4566 45.6422 49.4998Z" fill="#263238"/>
    <path d="M43.7009 46.0382C43.7265 46.0413 43.7525 46.0367 43.7755 46.025C43.7985 46.0132 43.8175 45.9948 43.8299 45.9722C43.9069 45.8271 44.0182 45.7032 44.1542 45.6111C44.2902 45.5191 44.4466 45.4617 44.6099 45.4441C44.6452 45.4418 44.6782 45.4258 44.7017 45.3994C44.7253 45.373 44.7376 45.3385 44.7359 45.3031C44.7351 45.2858 44.7309 45.2688 44.7236 45.2531C44.7162 45.2373 44.7059 45.2232 44.693 45.2115C44.6802 45.1998 44.6652 45.1908 44.6489 45.1849C44.6326 45.179 44.6152 45.1763 44.5979 45.1771C44.3899 45.1978 44.1902 45.269 44.016 45.3846C43.8419 45.5001 43.6987 45.6565 43.5989 45.8402C43.5899 45.8554 43.5841 45.8724 43.5818 45.89C43.5795 45.9075 43.5808 45.9254 43.5855 45.9425C43.5903 45.9596 43.5984 45.9755 43.6095 45.9894C43.6206 46.0032 43.6343 46.0147 43.6499 46.0232C43.6653 46.0326 43.6829 46.0377 43.7009 46.0382Z" fill="#263238"/>
    <path d="M48.1109 45.5009C48.1428 45.5033 48.1745 45.4949 48.2009 45.4769C48.2293 45.4569 48.2489 45.4267 48.2556 45.3926C48.2623 45.3585 48.2556 45.3232 48.2369 45.2939C48.1229 45.1136 47.9683 44.9624 47.7855 44.8525C47.6027 44.7426 47.3967 44.677 47.1839 44.6609C47.1492 44.6609 47.1157 44.6743 47.0906 44.6983C47.0654 44.7223 47.0505 44.7551 47.049 44.7899C47.0489 44.8252 47.0628 44.8591 47.0874 44.8843C47.1121 44.9095 47.1457 44.9241 47.181 44.9249C47.3503 44.9408 47.5137 44.9957 47.6584 45.0852C47.8031 45.1747 47.9251 45.2964 48.0149 45.4409C48.0259 45.457 48.0401 45.4706 48.0567 45.481C48.0732 45.4913 48.0917 45.4981 48.1109 45.5009Z" fill="#263238"/>
    <path d="M38.5422 60.9479L37.8762 62.0999C37.6522 62.4999 37.4332 62.8999 37.2192 63.2999C36.7872 64.0999 36.3732 64.9059 35.9772 65.7179C35.5872 66.5309 35.2152 67.3469 34.8822 68.1689C34.7232 68.5769 34.5612 68.9879 34.4232 69.3989L34.2102 70.0139L34.0332 70.6139L33.9882 70.7669L33.9642 70.8449C33.9642 70.8719 33.9642 70.8449 33.9642 70.8629C33.9642 70.8809 33.9642 70.8959 33.9432 70.9289C33.931 71.0466 33.931 71.1652 33.9432 71.2829C33.9808 71.6396 34.0552 71.9915 34.1652 72.3329C34.4286 73.1544 34.7494 73.9564 35.1252 74.7329C35.8842 76.3619 36.8082 78.0059 37.7172 79.6109L36.0582 80.9069C35.3502 80.1959 34.7142 79.4729 34.0902 78.7109C33.4662 77.9489 32.8902 77.1569 32.3232 76.3109C31.7457 75.4468 31.2438 74.5344 30.8232 73.5839C30.5835 73.0417 30.3986 72.4769 30.2712 71.8979C30.1966 71.5478 30.1584 71.1909 30.1572 70.8329C30.1548 70.6179 30.1708 70.4031 30.2052 70.1909L30.2292 70.0349L30.2502 69.9389L30.2892 69.7439C30.4836 68.7271 30.7472 67.7248 31.0782 66.7439C31.3962 65.7779 31.7682 64.8479 32.1642 63.9299C32.5602 63.0119 32.9952 62.1299 33.4602 61.2479C33.6942 60.8129 33.9312 60.3809 34.1802 59.9489C34.4292 59.5169 34.6752 59.1089 34.9722 58.6499L38.5422 60.9479Z" fill="#FFC3BD"/>
    <path d="M35.68 56.7329C33.04 57.1199 30.319 66.3119 30.319 66.3119L36.001 69.4589C36.001 69.4589 38.302 65.0849 39.4 61.8389C40.549 58.4369 38.509 56.3189 35.68 56.7329Z" fill="#592CB8"/>
    <path d="M30.4362 65.0159L30.1962 66.3659L36.0342 69.5789L36.8112 68.4659L30.4362 65.0159Z" fill="#592CB8"/>
    <path opacity="0.3" d="M30.4362 65.0159L30.1962 66.3659L36.0342 69.5789L36.8112 68.4659L30.4362 65.0159Z" fill="#263238"/>
    <path d="M36.9611 78.987L39.7511 78.501L38.3201 81.732C38.3201 81.732 35.7701 81.717 35.8871 80.403L36.9611 78.987Z" fill="#FFC3BD"/>
    <path d="M41.8361 80.124L40.5221 82.734L38.3201 81.732L39.7511 78.501L41.8361 80.124Z" fill="#FFC3BD"/>
    <path d="M129.092 91.9258H88.6494C88.5105 91.9263 88.373 91.8988 88.245 91.8449C88.1171 91.7909 88.0013 91.7117 87.9047 91.612C87.808 91.5123 87.7325 91.3941 87.6827 91.2645C87.6328 91.1349 87.6096 90.9966 87.6144 90.8578L88.5714 61.9438C88.5844 61.6578 88.7063 61.3875 88.9121 61.1884C89.1179 60.9892 89.3921 60.8764 89.6784 60.8728H130.118C130.258 60.8719 130.396 60.8992 130.524 60.9532C130.652 61.0072 130.768 61.0866 130.865 61.1867C130.962 61.2869 131.037 61.4056 131.087 61.5357C131.136 61.6659 131.159 61.8047 131.153 61.9438L130.199 90.8578C130.188 91.1441 130.066 91.4149 129.86 91.6138C129.654 91.8128 129.379 91.9245 129.092 91.9258Z" fill="#592CB8"/>
    <path opacity="0.6" d="M129.092 91.9258H88.6494C88.5105 91.9263 88.373 91.8988 88.245 91.8449C88.1171 91.7909 88.0013 91.7117 87.9047 91.612C87.808 91.5123 87.7325 91.3941 87.6827 91.2645C87.6328 91.1349 87.6096 90.9966 87.6144 90.8578L88.5714 61.9438C88.5844 61.6578 88.7063 61.3875 88.9121 61.1884C89.1179 60.9892 89.3921 60.8764 89.6784 60.8728H130.118C130.258 60.8719 130.396 60.8992 130.524 60.9532C130.652 61.0072 130.768 61.0866 130.865 61.1867C130.962 61.2869 131.037 61.4056 131.087 61.5357C131.136 61.6659 131.159 61.8047 131.153 61.9438L130.199 90.8578C130.188 91.1441 130.066 91.4149 129.86 91.6138C129.654 91.8128 129.379 91.9245 129.092 91.9258Z" fill="#263238"/>
    <path d="M128.762 91.9261H88.3191C88.1802 91.9266 88.0427 91.899 87.9147 91.8451C87.7868 91.7912 87.671 91.712 87.5744 91.6123C87.4777 91.5125 87.4022 91.3944 87.3523 91.2648C87.3024 91.1352 87.2792 90.9968 87.2841 90.8581L88.2411 61.9441C88.2541 61.658 88.376 61.3877 88.5818 61.1886C88.7876 60.9895 89.0617 60.8766 89.3481 60.8731H129.788C129.927 60.8725 130.065 60.9002 130.193 60.9543C130.321 61.0084 130.437 61.0878 130.534 61.1879C130.631 61.2879 130.706 61.4065 130.756 61.5364C130.805 61.6664 130.828 61.805 130.823 61.9441L129.866 90.8581C129.855 91.1438 129.733 91.4142 129.528 91.613C129.322 91.8119 129.048 91.924 128.762 91.9261Z" fill="#592CB8"/>
    <path d="M128.24 91.875H79.3971C79.1569 91.8749 78.9215 91.9424 78.7178 92.0697C78.5141 92.197 78.3503 92.379 78.2451 92.595C78.2182 92.6515 78.206 92.7139 78.2098 92.7764C78.2136 92.8388 78.2332 92.8993 78.2668 92.9521C78.3004 93.0049 78.3469 93.0483 78.4019 93.0782C78.4569 93.1081 78.5185 93.1235 78.5811 93.123H129.056C129.119 93.124 129.181 93.109 129.236 93.0793C129.292 93.0496 129.339 93.0063 129.373 92.9534C129.407 92.9005 129.427 92.8398 129.43 92.7771C129.434 92.7144 129.422 92.6517 129.395 92.595C129.289 92.3788 129.125 92.1967 128.921 92.0694C128.717 91.9421 128.481 91.8747 128.24 91.875Z" fill="#592CB8"/>
    <path opacity="0.6" d="M128.241 91.875H120.741C120.5 91.8747 120.264 91.9421 120.06 92.0694C119.856 92.1967 119.692 92.3788 119.586 92.595C119.559 92.6517 119.547 92.7144 119.551 92.7771C119.555 92.8398 119.574 92.9005 119.608 92.9534C119.642 93.0063 119.689 93.0496 119.745 93.0793C119.8 93.109 119.862 93.124 119.925 93.123H129.042C129.105 93.124 129.167 93.109 129.222 93.0793C129.278 93.0496 129.325 93.0063 129.359 92.9534C129.392 92.9005 129.412 92.8398 129.416 92.7771C129.42 92.7144 129.408 92.6517 129.381 92.595C129.276 92.3811 129.114 92.2005 128.913 92.0733C128.712 91.9462 128.479 91.8775 128.241 91.875Z" fill="#263238"/>
    <path opacity="0.2" d="M102.696 92.667H92.5561C92.4357 92.6678 92.3205 92.7162 92.2356 92.8016C92.1508 92.887 92.1031 93.0026 92.1031 93.123H103.152C103.152 93.002 103.104 92.8861 103.019 92.8005C102.933 92.715 102.817 92.667 102.696 92.667Z" fill="black"/>
    <path opacity="0.9" d="M88.2504 89.811L89.1504 62.991C89.1557 62.8795 89.2034 62.7743 89.2837 62.6968C89.364 62.6193 89.4708 62.5754 89.5824 62.574H129.482C129.537 62.5735 129.59 62.5841 129.64 62.6051C129.69 62.6261 129.735 62.657 129.773 62.6961C129.811 62.7351 129.84 62.7813 129.859 62.8321C129.878 62.8828 129.887 62.9368 129.884 62.991L128.984 89.811C128.981 89.9224 128.934 90.028 128.854 90.1057C128.774 90.1835 128.667 90.2273 128.555 90.228H88.6554C88.6011 90.2284 88.5472 90.2178 88.4971 90.1969C88.447 90.1759 88.4016 90.145 88.3637 90.1061C88.3259 90.0671 88.2963 90.0208 88.2769 89.9701C88.2574 89.9194 88.2484 89.8653 88.2504 89.811Z" fill="white"/>
    <path d="M116.616 90.228H111.117L117.456 62.574H122.955L116.616 90.228Z" fill="white"/>
    <path d="M92.7382 90.228H90.7582L97.0972 62.574H99.0742L92.7382 90.228Z" fill="white"/>
    <path d="M121.125 90.228H119.145L125.484 62.574H127.464L121.125 90.228Z" fill="white"/>
    <path opacity="0.4" d="M109.853 61.7697C109.845 61.8509 109.808 61.9265 109.748 61.9819C109.689 62.0373 109.61 62.0686 109.529 62.0697C109.449 62.0697 109.373 62.0381 109.317 61.9819C109.26 61.9256 109.229 61.8493 109.229 61.7697C109.235 61.688 109.272 61.6117 109.332 61.556C109.392 61.5003 109.471 61.4695 109.553 61.4697C109.632 61.4697 109.709 61.5013 109.765 61.5576C109.821 61.6139 109.853 61.6902 109.853 61.7697Z" fill="black"/>
    <path d="M106.938 48.9209C106.467 50.9729 105.933 54.7319 107.322 56.0999C107.322 56.0999 106.722 57.7979 102.912 57.7979C98.712 57.7979 100.947 56.0999 100.947 56.0999C103.254 55.5539 103.254 53.8559 102.909 52.2629L106.938 48.9209Z" fill="#B55B52"/>
    <path d="M113.043 58.668C113.343 59.127 113.589 59.529 113.835 59.967C114.081 60.405 114.324 60.831 114.558 61.266C115.02 62.142 115.458 63.033 115.854 63.948C116.25 64.863 116.622 65.796 116.937 66.762C117.269 67.7428 117.533 68.7451 117.729 69.762L117.768 69.957L117.786 70.053L117.813 70.209C117.844 70.4215 117.86 70.6361 117.861 70.851C117.857 71.2088 117.818 71.5654 117.747 71.916C117.618 72.4951 117.433 73.0599 117.192 73.602C116.772 74.553 116.27 75.4655 115.692 76.329C115.134 77.166 114.546 77.958 113.922 78.729C113.303 79.4935 112.646 80.2264 111.954 80.925L110.298 79.629C111.198 78.024 112.131 76.38 112.89 74.751C113.265 73.9744 113.584 73.1724 113.847 72.351C113.957 72.0096 114.031 71.6577 114.069 71.301C114.082 71.1834 114.082 71.0646 114.069 70.947C114.069 70.914 114.069 70.884 114.045 70.881V70.863L114.024 70.785L113.979 70.632L113.799 70.032L113.589 69.417C113.448 69.006 113.289 68.595 113.127 68.187C112.794 67.365 112.422 66.549 112.035 65.736C111.648 64.923 111.222 64.119 110.793 63.318C110.581 62.918 110.362 62.518 110.136 62.118L109.47 60.969L113.043 58.668Z" fill="#B65B52"/>
    <path d="M112.32 56.7331C114.96 57.1201 117.678 66.3121 117.678 66.3121L111.999 69.4591C111.999 69.4591 109.695 65.1001 108.6 61.8391C107.448 58.4371 109.5 56.3191 112.32 56.7331Z" fill="#263238"/>
    <path opacity="0.3" d="M110.601 61.7698L110.172 65.6998C110.601 66.6448 111.021 67.4998 111.348 68.1748C111.471 66.5998 111.468 64.0378 110.601 61.7698Z" fill="black"/>
    <path d="M117.56 65.0159L117.803 66.3659L111.965 69.5789L111.188 68.4659L117.56 65.0159Z" fill="#592CB8"/>
    <path opacity="0.3" d="M117.56 65.0159L117.803 66.3659L111.965 69.5789L111.188 68.4659L117.56 65.0159Z" fill="#263238"/>
    <path d="M111.039 78.9867L108.246 78.5007L109.68 81.7317C109.68 81.7317 112.227 81.7167 112.11 80.4027L111.039 78.9867Z" fill="#B55B52"/>
    <path d="M106.163 80.1237L107.474 82.7337L109.679 81.7317L108.245 78.5007L106.163 80.1237Z" fill="#B55B52"/>
    <path d="M96.599 56.8771C96.599 56.8771 92.999 65.3431 95.594 81.1111H110.594C110.777 78.8101 109.718 67.5811 112.316 56.7331C110.667 56.4133 108.998 56.2018 107.321 56.1001C105.198 55.977 103.069 55.977 100.946 56.1001C99.4791 56.2464 98.0257 56.5062 96.599 56.8771Z" fill="#263238"/>
    <path opacity="0.3" d="M94.9944 64.119C94.7764 66.0163 94.6652 67.9243 94.6614 69.834C96.7014 68.505 97.4274 65.457 97.7154 63.249L94.9944 64.119Z" fill="black"/>
    <path d="M98.6336 60.9838C98.0606 61.9678 97.4816 62.8738 96.8756 63.7978C96.2696 64.7218 95.6486 65.6188 94.9976 66.4978C93.69 68.3141 92.2565 70.0363 90.7076 71.6518C89.8861 72.5046 88.9939 73.2864 88.0406 73.9888L87.6506 74.2588C87.4826 74.3608 87.3086 74.4718 87.1466 74.5588C86.8341 74.72 86.5102 74.8584 86.1776 74.9728C85.5847 75.1694 84.9781 75.3218 84.3626 75.4288C83.2261 75.6145 82.0762 75.7059 80.9246 75.7018C80.3636 75.7018 79.8026 75.7018 79.2476 75.6448C78.6926 75.5878 78.1436 75.5638 77.5676 75.4798V73.3798C78.5786 73.2058 79.6286 73.0108 80.6306 72.7978C81.1346 72.6928 81.6356 72.5788 82.1306 72.4528C82.6256 72.3268 83.0966 72.1948 83.5466 72.0418C83.9767 71.9079 84.3959 71.7414 84.8006 71.5438C84.9669 71.4602 85.1281 71.367 85.2836 71.2648C85.3586 71.2198 85.4036 71.1718 85.4636 71.1298L85.7216 70.9258C86.4551 70.304 87.1419 69.6292 87.7766 68.9068C89.1226 67.3547 90.3815 65.7292 91.5476 64.0378C92.1476 63.1858 92.7266 62.3158 93.3086 61.4458C93.8906 60.5758 94.4516 59.6728 94.9856 58.8208L98.6336 60.9838Z" fill="#B65B52"/>
    <path d="M100.023 59.4001C100.323 62.0341 94.4491 68.4241 94.4491 68.4241L89.8021 64.7881C91.0454 62.6813 92.4223 60.6561 93.9241 58.7251C96.3361 55.7281 99.6901 56.4211 100.023 59.4001Z" fill="#263238"/>
    <path d="M90.1438 63.5669L89.6968 64.8629L94.4458 68.7629L95.3878 67.7879L90.1438 63.5669Z" fill="#592CB8"/>
    <path opacity="0.3" d="M90.1438 63.5669L89.6968 64.8629L94.4458 68.7629L95.3878 67.7879L90.1438 63.5669Z" fill="#263238"/>
    <path d="M77.5679 73.3889L74.2229 73.4369L75.5699 76.5689C75.9839 76.7039 77.8319 76.0469 78.7619 75.0209L77.5679 73.3889Z" fill="#B55B52"/>
    <path d="M71.9155 75.06L73.7425 77.352L75.5695 76.566L74.2225 73.437L71.9155 75.06Z" fill="#B55B52"/>
    <path d="M100.004 46.4999C99.971 46.7249 99.827 46.8929 99.68 46.8749C99.533 46.8569 99.44 46.6649 99.47 46.4429C99.5 46.2209 99.65 46.0499 99.797 46.0649C99.944 46.0799 100.037 46.2659 100.004 46.4999Z" fill="#263238"/>
    <path d="M100.067 46.6919C99.6989 47.3496 99.2439 47.955 98.7145 48.4919C99.0595 48.9059 99.7615 48.8099 99.7615 48.8099L100.067 46.6919Z" fill="#A02724"/>
    <path d="M99.6864 48.3479C99.1854 48.3479 98.7324 47.6249 98.6514 46.7009C98.5749 46.1872 98.6996 45.6639 98.9994 45.2399C99.0508 45.1779 99.1148 45.1276 99.1873 45.0924C99.2597 45.0572 99.3389 45.0379 99.4194 45.0359C99.9204 45.0359 100.373 45.7559 100.454 46.6799C100.534 47.1938 100.411 47.7185 100.112 48.1439C100.061 48.2053 99.9963 48.2552 99.924 48.2904C99.8517 48.3255 99.7728 48.3451 99.6924 48.3479H99.6864ZM99.4164 45.1859C99.3585 45.1891 99.3019 45.2044 99.2503 45.2308C99.1986 45.2571 99.153 45.2939 99.1164 45.3389C98.8483 45.7343 98.741 46.2171 98.8164 46.6889C98.8884 47.5079 99.2934 48.1889 99.7164 48.1889C99.7745 48.1851 99.8311 48.1693 99.8828 48.1424C99.9344 48.1156 99.9799 48.0783 100.016 48.0329C100.286 47.6392 100.393 47.1568 100.316 46.6859C100.229 45.8759 99.8244 45.1859 99.4164 45.1859Z" fill="#263238"/>
    <path d="M100.799 45.5009C100.83 45.5034 100.861 45.4949 100.886 45.4769C100.901 45.4675 100.914 45.4553 100.923 45.4409C100.933 45.4266 100.94 45.4105 100.944 45.3935C100.947 45.3765 100.948 45.3589 100.945 45.3419C100.941 45.3248 100.935 45.3085 100.925 45.2939C100.811 45.1136 100.657 44.9624 100.474 44.8525C100.291 44.7426 100.085 44.677 99.8723 44.6609C99.8375 44.6609 99.8041 44.6743 99.7789 44.6983C99.7538 44.7223 99.7389 44.7551 99.7373 44.7899C99.7373 44.8252 99.7511 44.8591 99.7758 44.8843C99.8005 44.9095 99.834 44.9241 99.8693 44.9249C100.039 44.9408 100.202 44.9957 100.347 45.0852C100.491 45.1747 100.613 45.2964 100.703 45.4409C100.714 45.457 100.729 45.4706 100.745 45.481C100.762 45.4913 100.78 45.4981 100.799 45.5009Z" fill="#263238"/>
    <path d="M107.679 46.4611C107.109 49.1941 106.917 50.8171 105.315 52.0741C104.799 52.4882 104.181 52.7535 103.526 52.8415C102.87 52.9295 102.204 52.8368 101.597 52.5733C100.991 52.3099 100.468 51.8857 100.086 51.3467C99.7028 50.8077 99.4746 50.1743 99.4257 49.5151C99.1917 46.9801 100.161 42.9391 103.026 42.1411C103.641 41.9536 104.294 41.9308 104.92 42.075C105.546 42.2191 106.124 42.5251 106.595 42.9624C107.066 43.3998 107.414 43.953 107.604 44.567C107.794 45.181 107.82 45.8341 107.679 46.4611Z" fill="#B55B52"/>
    <path d="M111.404 90.2281C111.545 87.1673 111.277 84.1014 110.609 81.1111H100.931C101.683 84.0913 102.054 87.1546 102.038 90.2281H111.404Z" fill="#592CB8"/>
    <path opacity="0.3" d="M111.404 90.2281C111.545 87.1673 111.277 84.1014 110.609 81.1111H100.931C101.683 84.0913 102.054 87.1546 102.038 90.2281H111.404Z" fill="white"/>
    <path d="M101.75 47.2831C101.216 47.0161 100.55 44.3492 100.733 43.4012C100.916 42.4532 103.067 41.4332 105.182 41.8172C107.297 42.2012 108.206 42.9422 108.617 44.8682C109.04 46.8661 107.498 50.1931 106.736 50.4511C106.285 50.6111 105.804 50.673 105.327 50.6327C104.849 50.5923 104.386 50.4507 103.967 50.2171C103.286 49.8001 102.932 46.7341 101.75 47.2831Z" fill="#263238"/>
    <path d="M101.189 44.3579C100.157 44.4179 99.1734 42.7739 100.121 41.3069C100.394 40.8888 100.781 40.558 101.236 40.3542C101.692 40.1504 102.196 40.0823 102.689 40.1579C102.689 40.1579 102.257 41.0009 103.697 40.8239C105.137 40.6469 107.819 41.0489 108.755 42.0569C109.913 43.2989 109.214 45.7409 107.471 45.1409C105.728 44.5409 101.189 44.3579 101.189 44.3579Z" fill="#263238"/>
    <path d="M100.913 44.3998C100.697 44.3895 100.486 44.3333 100.294 44.2351C100.101 44.1368 99.9321 43.9986 99.7973 43.8298C99.5277 43.5075 99.353 43.1166 99.2926 42.7007C99.2322 42.2849 99.2885 41.8605 99.4553 41.4748C99.459 41.4655 99.4645 41.4571 99.4715 41.45C99.4785 41.4429 99.4869 41.4372 99.4961 41.4333C99.5053 41.4294 99.5151 41.4273 99.5251 41.4272C99.5351 41.4272 99.545 41.429 99.5543 41.4328C99.5635 41.4365 99.572 41.4421 99.5791 41.4491C99.5862 41.4561 99.5919 41.4644 99.5958 41.4736C99.5997 41.4828 99.6017 41.4927 99.6018 41.5026C99.6019 41.5126 99.6 41.5225 99.5963 41.5318C99.4379 41.8911 99.3835 42.2876 99.4392 42.6763C99.4949 43.065 99.6584 43.4304 99.9113 43.7308C100.05 43.9169 100.237 44.0612 100.453 44.148C100.668 44.2347 100.903 44.2606 101.132 44.2228C101.151 44.219 101.171 44.2224 101.188 44.2324C101.204 44.2424 101.217 44.2582 101.222 44.2768C101.227 44.2963 101.224 44.3168 101.214 44.3341C101.204 44.3514 101.187 44.3642 101.168 44.3698C101.085 44.3901 100.999 44.4002 100.913 44.3998Z" fill="#263238"/>
    <path d="M103.445 46.9377C103.489 47.6464 103.26 48.345 102.806 48.8907C102.206 49.6017 101.405 49.1727 101.162 48.3177C100.943 47.5467 100.994 46.2507 101.801 45.8517C102.608 45.4527 103.382 46.0707 103.445 46.9377Z" fill="#B55B52"/>
    <path d="M94.3342 90.2281H105.089C105.61 87.2183 105.738 84.1538 105.47 81.1111H95.6002C95.6002 81.1111 95.0452 84.9601 94.3342 90.2281Z" fill="#592CB8"/>
    <path opacity="0.3" d="M94.3342 90.2281H105.089C105.61 87.2183 105.738 84.1538 105.47 81.1111H95.6002C95.6002 81.1111 95.0452 84.9601 94.3342 90.2281Z" fill="white"/>
</svg>
