<svg width="150" height="150" viewBox="0 0 150 150" fill="none" xmlns="http://www.w3.org/2000/svg">
    <path d="M150 114.72H0V114.795H150V114.72Z" fill="#EBEBEB"/>
    <path d="M134.971 119.547H125.035V119.622H134.971V119.547Z" fill="#EBEBEB"/>
    <path d="M99.3665 120.363H96.7595V120.438H99.3665V120.363Z" fill="#EBEBEB"/>
    <path d="M124.734 116.763H118.977V116.838H124.734V116.763Z" fill="#EBEBEB"/>
    <path d="M28.6943 117.267H15.7373V117.342H28.6943V117.267Z" fill="#EBEBEB"/>
    <path d="M33.2667 117.267H31.3677V117.342H33.2667V117.267Z" fill="#EBEBEB"/>
    <path d="M67.5445 118.533H39.4406V118.608H67.5445V118.533Z" fill="#EBEBEB"/>
    <path d="M71.0994 101.34H13.1724C12.7186 101.339 12.2837 101.158 11.9631 100.837C11.6425 100.516 11.4624 100.081 11.4624 99.627V18.198C11.4664 17.7468 11.6482 17.3154 11.9683 16.9975C12.2885 16.6795 12.7212 16.5008 13.1724 16.5H71.0994C71.5537 16.5 71.9894 16.6805 72.3107 17.0017C72.6319 17.323 72.8124 17.7587 72.8124 18.213V99.627C72.8124 100.081 72.6319 100.517 72.3107 100.838C71.9894 101.16 71.5537 101.34 71.0994 101.34ZM13.1724 16.56C12.7385 16.5608 12.3226 16.7337 12.0161 17.0408C11.7096 17.3479 11.5374 17.7641 11.5374 18.198V99.627C11.5374 100.061 11.7096 100.477 12.0161 100.784C12.3226 101.091 12.7385 101.264 13.1724 101.265H71.0994C71.5336 101.264 71.9498 101.091 72.2568 100.784C72.5638 100.477 72.7366 100.061 72.7374 99.627V18.198C72.7366 17.7638 72.5638 17.3476 72.2568 17.0406C71.9498 16.7336 71.5336 16.5608 71.0994 16.56H13.1724Z" fill="#EBEBEB"/>
    <path d="M135.993 101.34H78.063C77.6089 101.339 77.1737 101.158 76.8526 100.837C76.5315 100.516 76.3508 100.081 76.35 99.627V18.198C76.3547 17.7465 76.5372 17.3151 76.8578 16.9973C77.1785 16.6794 77.6115 16.5008 78.063 16.5H135.993C136.444 16.5016 136.876 16.6807 137.195 16.9985C137.515 17.3164 137.696 17.7473 137.7 18.198V99.627C137.7 100.08 137.52 100.515 137.2 100.836C136.88 101.157 136.446 101.338 135.993 101.34ZM78.063 16.56C77.6288 16.5608 77.2126 16.7336 76.9056 17.0406C76.5986 17.3476 76.4258 17.7638 76.425 18.198V99.627C76.4258 100.061 76.5986 100.477 76.9056 100.784C77.2126 101.091 77.6288 101.264 78.063 101.265H135.993C136.427 101.264 136.843 101.091 137.15 100.784C137.457 100.477 137.63 100.061 137.631 99.627V18.198C137.63 17.7638 137.457 17.3476 137.15 17.0406C136.843 16.7336 136.427 16.5608 135.993 16.56H78.063Z" fill="#EBEBEB"/>
    <path d="M25.6137 103.749C25.6137 103.629 26.0187 91.845 27.9357 89.982C29.7987 88.182 31.9377 89.913 32.0277 89.982L32.2197 89.7511C32.1957 89.7331 29.7807 87.7621 27.7197 89.7511C25.7157 91.6981 25.3197 103.233 25.3197 103.722L25.6137 103.749Z" fill="#E0E0E0"/>
    <path d="M25.4517 106.062C25.4517 105.924 26.7597 91.9171 21.6447 86.0461L21.4197 86.2441C26.4507 92.0161 25.1667 105.894 25.1517 106.044L25.4517 106.062Z" fill="#E0E0E0"/>
    <path d="M25.6406 104.583L25.9406 104.562C25.9406 104.403 24.9416 88.6378 28.6916 85.1878L28.4906 84.9658C24.6296 88.5148 25.5956 103.926 25.6406 104.583Z" fill="#E0E0E0"/>
    <path d="M25.1514 104.574H25.4514C25.4514 104.139 25.3284 93.9269 22.4244 92.2739C22.149 92.0964 21.8352 91.9871 21.5091 91.9553C21.183 91.9235 20.854 91.97 20.5494 92.0909C18.7944 92.8169 17.9244 95.9399 17.8884 96.0719L18.1884 96.1529C18.1884 96.1199 19.0554 93.0389 20.6724 92.3699C20.9352 92.267 21.2187 92.2283 21.4994 92.257C21.7801 92.2857 22.0499 92.381 22.2864 92.5349C25.0284 94.0979 25.1514 104.469 25.1514 104.574Z" fill="#E0E0E0"/>
    <path d="M26.2795 104.58L26.5795 104.562C26.5795 104.484 26.1415 96.4919 28.2985 93.6779C28.8205 92.9999 29.3995 92.6699 29.9995 92.6999C31.4125 92.7989 32.5975 94.8659 32.6095 94.8869L32.8705 94.7399C32.8195 94.6469 31.5955 92.5109 30.0205 92.3999C29.3185 92.3489 28.6615 92.6999 28.0735 93.4829C25.8355 96.3989 26.2615 104.247 26.2795 104.58Z" fill="#E0E0E0"/>
    <path d="M25.7995 105.666C25.8565 104.892 27.2094 86.6461 24.8305 83.4331L24.5905 83.6101C26.9005 86.7361 25.5145 105.456 25.4905 105.645L25.7995 105.666Z" fill="#E0E0E0"/>
    <path d="M19.9021 93.9268C19.9021 93.9268 21.3301 94.4518 20.9041 95.6939C20.4781 96.9359 15.9721 98.9759 15.9721 98.9759C15.9721 98.9759 14.0821 97.2449 15.8161 94.4308C17.5501 91.6168 19.8631 93.0388 19.9021 93.9268Z" fill="#EBEBEB"/>
    <path d="M26.1001 91.563C26.1001 91.563 24.6001 91.5 24.4981 92.808C24.3961 94.116 27.7981 97.737 27.7981 97.737C27.7981 97.737 30.1981 96.867 29.6911 93.6C29.1841 90.333 26.4811 90.759 26.1001 91.563Z" fill="#EBEBEB"/>
    <path d="M27.3875 85.2988C27.3875 85.2988 26.3765 85.1908 26.4575 84.5728C26.5385 83.9548 30.3935 82.3708 32.6675 84.9358C32.6675 84.9358 31.2125 87.4378 29.1065 87.4708C27.0005 87.5038 27.3875 85.2988 27.3875 85.2988Z" fill="#EBEBEB"/>
    <path d="M25.5005 83.802C25.5005 83.802 26.4185 84.243 26.6765 83.679C26.9345 83.115 24.5015 79.725 21.2135 80.7C21.2135 80.7 21.1265 83.595 22.8965 84.735C24.6665 85.875 25.5005 83.802 25.5005 83.802Z" fill="#EBEBEB"/>
    <path d="M30.3 93.426C30.3 93.426 29.601 92.862 30.357 92.589C31.113 92.316 34.809 92.391 34.857 96.057C34.857 96.057 30.549 96.771 30.015 95.376C29.481 93.981 30.3 93.426 30.3 93.426Z" fill="#EBEBEB"/>
    <path d="M21.5071 85.1999C21.5071 85.1999 22.2061 84.6359 21.4531 84.3599C20.7001 84.0839 16.9981 84.1649 16.9531 87.8279C16.9531 87.8279 21.2641 88.5449 21.7951 87.1499C22.3261 85.7549 21.5071 85.1999 21.5071 85.1999Z" fill="#EBEBEB"/>
    <path d="M23.7834 88.158C23.7834 88.158 23.8464 87.474 23.2914 87.741C22.7364 88.008 20.8104 90.093 22.8084 92.067C22.8084 92.067 25.5084 90.072 25.0164 89.034C24.5244 87.996 23.7834 88.158 23.7834 88.158Z" fill="#EBEBEB"/>
    <path d="M30.9215 89.136C30.9215 89.136 30.5015 88.59 31.1135 88.521C31.7255 88.452 34.4675 89.184 33.8285 91.923C33.8285 91.923 30.4895 91.671 30.3455 90.534C30.2015 89.397 30.9215 89.136 30.9215 89.136Z" fill="#EBEBEB"/>
    <path d="M19.6349 114.732H31.0949L32.3309 102.186H18.3989L19.6349 114.732Z" fill="#F0F0F0"/>
    <path d="M17.7898 103.572H32.9458V100.803H17.7898V103.572Z" fill="#E6E6E6"/>
    <path d="M124.267 103.749C124.267 103.629 123.865 91.845 121.948 89.982C120.085 88.182 117.943 89.913 117.856 89.982L117.661 89.7511C117.688 89.7331 120.1 87.7621 122.161 89.7511C124.165 91.6981 124.561 103.233 124.561 103.722L124.267 103.749Z" fill="#E0E0E0"/>
    <path d="M124.431 106.062C124.431 105.924 123.123 91.9171 128.238 86.0461L128.463 86.2441C123.432 92.0161 124.716 105.894 124.731 106.044L124.431 106.062Z" fill="#E0E0E0"/>
    <path d="M124.242 104.583L123.942 104.562C123.942 104.403 124.944 88.6378 121.191 85.1878L121.395 84.9658C125.253 88.5148 124.287 103.926 124.242 104.583Z" fill="#E0E0E0"/>
    <path d="M124.731 104.574H124.431C124.431 104.139 124.554 93.927 127.455 92.274C127.731 92.0964 128.046 91.9871 128.372 91.9553C128.699 91.9235 129.028 91.97 129.333 92.091C131.088 92.817 131.958 95.9399 131.994 96.0719L131.694 96.153C131.694 96.12 130.827 93.039 129.21 92.37C128.948 92.267 128.664 92.2283 128.383 92.257C128.103 92.2857 127.833 92.381 127.596 92.535C124.851 94.098 124.731 104.469 124.731 104.574Z" fill="#E0E0E0"/>
    <path d="M123.6 104.58L123.3 104.562C123.3 104.484 123.738 96.4921 121.581 93.6781C121.059 92.9941 120.489 92.6701 119.892 92.7121C118.479 92.8111 117.294 94.8781 117.282 94.8991L117.021 94.7521C117.072 94.6591 118.296 92.5231 119.871 92.4121C120.573 92.3611 121.23 92.7121 121.818 93.4951C124.044 96.3991 123.621 104.247 123.6 104.58Z" fill="#E0E0E0"/>
    <path d="M124.074 105.666C124.014 104.892 122.664 86.6461 125.043 83.4331L125.283 83.6101C122.97 86.7361 124.359 105.456 124.383 105.645L124.074 105.666Z" fill="#E0E0E0"/>
    <path d="M129.981 93.9268C129.981 93.9268 128.553 94.4518 128.979 95.6939C129.405 96.9359 133.911 98.9759 133.911 98.9759C133.911 98.9759 135.801 97.2449 134.064 94.4308C132.327 91.6168 130.017 93.0388 129.981 93.9268Z" fill="#EBEBEB"/>
    <path d="M123.781 91.563C123.781 91.563 125.299 91.5 125.386 92.808C125.473 94.116 122.086 97.737 122.086 97.737C122.086 97.737 119.686 96.867 120.196 93.6C120.706 90.333 123.403 90.759 123.781 91.563Z" fill="#EBEBEB"/>
    <path d="M122.495 85.2988C122.495 85.2988 123.506 85.1908 123.425 84.5728C123.344 83.9548 119.489 82.3708 117.215 84.9358C117.215 84.9358 118.67 87.4378 120.776 87.4708C122.882 87.5038 122.495 85.2988 122.495 85.2988Z" fill="#EBEBEB"/>
    <path d="M124.38 83.802C124.38 83.802 123.465 84.243 123.207 83.679C122.949 83.115 125.382 79.725 128.67 80.7C128.67 80.7 128.757 83.595 126.987 84.735C125.217 85.875 124.38 83.802 124.38 83.802Z" fill="#EBEBEB"/>
    <path d="M119.589 93.426C119.589 93.426 120.288 92.862 119.532 92.589C118.776 92.316 115.077 92.391 115.032 96.057C115.032 96.057 119.34 96.771 119.874 95.376C120.408 93.981 119.589 93.426 119.589 93.426Z" fill="#EBEBEB"/>
    <path d="M128.376 85.1999C128.376 85.1999 127.677 84.6359 128.43 84.3599C129.183 84.0839 132.885 84.1649 132.93 87.8279C132.93 87.8279 128.619 88.5449 128.088 87.1499C127.557 85.7549 128.376 85.1999 128.376 85.1999Z" fill="#EBEBEB"/>
    <path d="M126.097 88.158C126.097 88.158 126.037 87.474 126.589 87.741C127.141 88.008 129.073 90.093 127.075 92.067C127.075 92.067 124.375 90.072 124.867 89.034C125.359 87.996 126.097 88.158 126.097 88.158Z" fill="#EBEBEB"/>
    <path d="M118.962 89.136C118.962 89.136 119.382 88.59 118.77 88.521C118.158 88.452 115.416 89.184 116.07 91.923C116.07 91.923 119.409 91.671 119.553 90.534C119.697 89.397 118.962 89.136 118.962 89.136Z" fill="#EBEBEB"/>
    <path d="M130.245 114.732H118.788L117.552 102.186H131.484L130.245 114.732Z" fill="#F0F0F0"/>
    <path d="M132.095 100.8H116.939V103.569H132.095V100.8Z" fill="#E6E6E6"/>
    <path d="M71.3223 38.3311H40.8063V99.6931H71.3223V38.3311Z" fill="#FAFAFA"/>
    <path d="M72.0271 37.4968H40.1011V40.5088H72.0271V37.4968Z" fill="#F0F0F0"/>
    <path d="M72.0271 40.8418H40.1011V42.3478H72.0271V40.8418Z" fill="#F0F0F0"/>
    <path d="M72.0271 43.0771H40.1011V44.5832H72.0271V43.0771Z" fill="#F0F0F0"/>
    <path d="M72.0271 45.312H40.1011V46.818H72.0271V45.312Z" fill="#F0F0F0"/>
    <path d="M72.0271 47.5469H40.1011V49.0529H72.0271V47.5469Z" fill="#F0F0F0"/>
    <path d="M72.0271 49.7788H40.1011V51.2848H72.0271V49.7788Z" fill="#F0F0F0"/>
    <path d="M72.0271 52.0142H40.1011V53.5202H72.0271V52.0142Z" fill="#F0F0F0"/>
    <path d="M72.0271 54.249H40.1011V55.755H72.0271V54.249Z" fill="#F0F0F0"/>
    <path d="M72.0271 56.4841H40.1011V57.9901H72.0271V56.4841Z" fill="#F0F0F0"/>
    <path d="M72.0271 58.719H40.1011V60.225H72.0271V58.719Z" fill="#F0F0F0"/>
    <path d="M72.0271 60.9539H40.1011V62.4599H72.0271V60.9539Z" fill="#F0F0F0"/>
    <path d="M72.0271 63.186H40.1011V64.692H72.0271V63.186Z" fill="#F0F0F0"/>
    <path d="M72.0271 65.4211H40.1011V66.9271H72.0271V65.4211Z" fill="#F0F0F0"/>
    <path d="M72.0271 67.656H40.1011V69.162H72.0271V67.656Z" fill="#F0F0F0"/>
    <path d="M72.0271 69.8909H40.1011V71.3969H72.0271V69.8909Z" fill="#F0F0F0"/>
    <path d="M72.0271 72.126H40.1011V73.632H72.0271V72.126Z" fill="#F0F0F0"/>
    <path d="M72.0271 74.3582H40.1011V75.8642H72.0271V74.3582Z" fill="#F0F0F0"/>
    <path d="M72.0271 76.593H40.1011V78.099H72.0271V76.593Z" fill="#F0F0F0"/>
    <path d="M72.0271 78.8281H40.1011V80.3341H72.0271V78.8281Z" fill="#F0F0F0"/>
    <path d="M72.0271 81.063H40.1011V82.569H72.0271V81.063Z" fill="#F0F0F0"/>
    <path d="M72.0271 83.2979H40.1011V84.8038H72.0271V83.2979Z" fill="#F0F0F0"/>
    <path d="M72.0271 85.5332H40.1011V87.0392H72.0271V85.5332Z" fill="#F0F0F0"/>
    <path d="M72.0271 87.7651H40.1011V89.2711H72.0271V87.7651Z" fill="#F0F0F0"/>
    <path d="M72.0271 90H40.1011V91.506H72.0271V90Z" fill="#F0F0F0"/>
    <path d="M72.0271 92.2349H40.1011V93.7409H72.0271V92.2349Z" fill="#F0F0F0"/>
    <path d="M72.0271 94.47H40.1011V95.976H72.0271V94.47Z" fill="#F0F0F0"/>
    <path d="M72.0271 96.7048H40.1011V98.2108H72.0271V96.7048Z" fill="#F0F0F0"/>
    <path d="M72.0271 98.937H40.1011V100.443H72.0271V98.937Z" fill="#F0F0F0"/>
    <path d="M109.194 38.3311H78.6782V99.6931H109.194V38.3311Z" fill="#FAFAFA"/>
    <path d="M109.899 37.4968H77.9729V40.5088H109.899V37.4968Z" fill="#F0F0F0"/>
    <path d="M109.899 40.8418H77.9729V41.1178H109.899V40.8418Z" fill="#F0F0F0"/>
    <path d="M109.899 41.4719H77.9729V41.7479H109.899V41.4719Z" fill="#F0F0F0"/>
    <path d="M109.899 42.0989H77.9729V42.3749H109.899V42.0989Z" fill="#F0F0F0"/>
    <path d="M109.899 42.7288H77.9729V43.0048H109.899V42.7288Z" fill="#F0F0F0"/>
    <path d="M109.899 43.356H77.9729V43.632H109.899V43.356Z" fill="#F0F0F0"/>
    <path d="M109.899 43.9858H77.9729V44.2618H109.899V43.9858Z" fill="#F0F0F0"/>
    <path d="M109.899 44.613H77.9729V44.889H109.899V44.613Z" fill="#F0F0F0"/>
    <path d="M109.899 45.2429H77.9729V45.5189H109.899V45.2429Z" fill="#F0F0F0"/>
    <path d="M109.899 45.8728H77.9729V46.1488H109.899V45.8728Z" fill="#F0F0F0"/>
    <path d="M109.899 46.5H77.9729V46.776H109.899V46.5Z" fill="#F0F0F0"/>
    <path d="M109.899 47.1299H77.9729V47.4059H109.899V47.1299Z" fill="#F0F0F0"/>
    <path d="M109.899 47.7571H77.9729V48.0331H109.899V47.7571Z" fill="#F0F0F0"/>
    <path d="M109.899 48.387H77.9729V48.663H109.899V48.387Z" fill="#F0F0F0"/>
    <path d="M109.899 49.0142H77.9729V49.2902H109.899V49.0142Z" fill="#F0F0F0"/>
    <path d="M109.899 49.644H77.9729V49.92H109.899V49.644Z" fill="#F0F0F0"/>
    <path d="M109.899 50.2739H77.9729V50.5499H109.899V50.2739Z" fill="#F0F0F0"/>
    <path d="M109.899 50.9011H77.9729V51.1771H109.899V50.9011Z" fill="#F0F0F0"/>
    <path d="M109.899 51.531H77.9729V51.807H109.899V51.531Z" fill="#F0F0F0"/>
    <path d="M79.4963 29.6153C79.899 27.1344 78.2143 24.7967 75.7333 24.394C73.2523 23.9912 70.9146 25.676 70.5119 28.157C70.1092 30.6379 71.7939 32.9756 74.2749 33.3784C76.7559 33.7811 79.0936 32.0963 79.4963 29.6153Z" fill="#F0F0F0"/>
    <path d="M78.8233 29.5061C79.1658 27.3964 77.7331 25.4085 75.6234 25.066C73.5137 24.7236 71.5258 26.1562 71.1833 28.2659C70.8408 30.3757 72.2735 32.3636 74.3832 32.706C76.493 33.0485 78.4809 31.6158 78.8233 29.5061Z" fill="#FAFAFA"/>
    <path d="M74.817 26.2288V28.9348L73.026 27.9208" fill="#F0F0F0"/>
    <path d="M74.817 26.2288V28.9348L73.026 27.9208" stroke="#E0E0E0" stroke-width="2" stroke-linecap="round" stroke-linejoin="round"/>
    <path d="M75.0005 128.268C107.125 128.268 133.168 126.748 133.168 124.872C133.168 122.997 107.125 121.476 75.0005 121.476C42.8757 121.476 16.8335 122.997 16.8335 124.872C16.8335 126.748 42.8757 128.268 75.0005 128.268Z" fill="#F5F5F5"/>
    <path opacity="0.5" d="M131.543 46.1279H76.7271C76.1223 46.1279 75.6321 46.6182 75.6321 47.2229V107.061C75.6321 107.666 76.1223 108.156 76.7271 108.156H131.543C132.148 108.156 132.638 107.666 132.638 107.061V47.2229C132.638 46.6182 132.148 46.1279 131.543 46.1279Z" fill="#592CB8"/>
    <path d="M129.743 44.928H74.927C74.3223 44.928 73.832 45.4182 73.832 46.023V105.861C73.832 106.466 74.3223 106.956 74.927 106.956H129.743C130.348 106.956 130.838 106.466 130.838 105.861V46.023C130.838 45.4182 130.348 44.928 129.743 44.928Z" fill="#592CB8"/>
    <path opacity="0.8" d="M129.743 44.928H74.927C74.3223 44.928 73.832 45.4182 73.832 46.023V105.861C73.832 106.466 74.3223 106.956 74.927 106.956H129.743C130.348 106.956 130.838 106.466 130.838 105.861V46.023C130.838 45.4182 130.348 44.928 129.743 44.928Z" fill="white"/>
    <path opacity="0.5" d="M56.7297 44.6611H28.9137C28.309 44.6611 27.8187 45.1514 27.8187 45.7561V96.5941C27.8187 97.1989 28.309 97.6891 28.9137 97.6891H56.7297C57.3345 97.6891 57.8247 97.1989 57.8247 96.5941V45.7561C57.8247 45.1514 57.3345 44.6611 56.7297 44.6611Z" fill="#592CB8"/>
    <path d="M54.9297 42.8611H27.1137C26.5089 42.8611 26.0187 43.3513 26.0187 43.9561V94.7941C26.0187 95.3988 26.5089 95.8891 27.1137 95.8891H54.9297C55.5344 95.8891 56.0247 95.3988 56.0247 94.7941V43.9561C56.0247 43.3513 55.5344 42.8611 54.9297 42.8611Z" fill="#592CB8"/>
    <path opacity="0.8" d="M54.9297 42.8611H27.1137C26.5089 42.8611 26.0187 43.3513 26.0187 43.9561V94.7941C26.0187 95.3988 26.5089 95.8891 27.1137 95.8891H54.9297C55.5344 95.8891 56.0247 95.3988 56.0247 94.7941V43.9561C56.0247 43.3513 55.5344 42.8611 54.9297 42.8611Z" fill="white"/>
    <path d="M129.924 27.3931H27.1737C26.5358 27.3931 26.0187 27.9102 26.0187 28.5481V33.2161C26.0187 33.854 26.5358 34.3711 27.1737 34.3711H129.924C130.562 34.3711 131.079 33.854 131.079 33.2161V28.5481C131.079 27.9102 130.562 27.3931 129.924 27.3931Z" fill="#592CB8"/>
    <path opacity="0.6" d="M120.417 30.8823C120.414 31.148 120.333 31.407 120.183 31.6265C120.033 31.846 119.822 32.0163 119.575 32.116C119.329 32.2156 119.058 32.2402 118.798 32.1865C118.538 32.1329 118.299 32.0034 118.112 31.8144C117.926 31.6255 117.799 31.3855 117.748 31.1246C117.697 30.8637 117.725 30.5936 117.827 30.3484C117.929 30.1031 118.102 29.8936 118.323 29.7463C118.544 29.5989 118.804 29.5203 119.07 29.5203C119.248 29.521 119.424 29.5569 119.588 29.6258C119.752 29.6947 119.901 29.7953 120.026 29.9218C120.151 30.0484 120.25 30.1983 120.317 30.3631C120.384 30.5279 120.418 30.7043 120.417 30.8823Z" fill="white"/>
    <path opacity="0.6" d="M124.628 30.8823C124.625 31.148 124.544 31.407 124.394 31.6265C124.244 31.846 124.033 32.0163 123.787 32.116C123.54 32.2156 123.27 32.2402 123.009 32.1865C122.749 32.1329 122.511 32.0034 122.324 31.8144C122.137 31.6255 122.01 31.3855 121.959 31.1246C121.908 30.8637 121.936 30.5936 122.038 30.3484C122.141 30.1031 122.313 29.8936 122.535 29.7463C122.756 29.5989 123.016 29.5203 123.281 29.5203C123.459 29.521 123.635 29.5569 123.799 29.6258C123.963 29.6947 124.112 29.7953 124.237 29.9218C124.363 30.0484 124.461 30.1983 124.529 30.3631C124.596 30.5279 124.63 30.7043 124.628 30.8823Z" fill="white"/>
    <path opacity="0.6" d="M128.838 30.882C128.835 31.1482 128.753 31.4075 128.603 31.6272C128.453 31.8469 128.241 32.0172 127.994 32.1166C127.747 32.216 127.476 32.24 127.216 32.1856C126.955 32.1312 126.717 32.0008 126.53 31.811C126.344 31.6211 126.217 31.3803 126.168 31.1188C126.118 30.8573 126.147 30.587 126.25 30.3419C126.354 30.0968 126.528 29.888 126.751 29.7417C126.973 29.5954 127.234 29.5183 127.5 29.52C127.858 29.524 128.199 29.6695 128.45 29.9248C128.701 30.18 128.84 30.5242 128.838 30.882Z" fill="white"/>
    <path opacity="0.6" d="M31.9286 29.1301H28.4666V32.6311H31.9286V29.1301Z" fill="white"/>
    <path d="M54.153 51.312H21.801V57.501H54.153V51.312Z" fill="#592CB8"/>
    <path opacity="0.2" d="M54.153 51.312H21.801V57.501H54.153V51.312Z" fill="black"/>
    <path d="M26.4569 53.1152H23.8739V55.6982H26.4569V53.1152Z" fill="white"/>
    <path d="M24.4374 54.414L24.9204 55.032L25.8924 53.781" stroke="#592CB8" stroke-width="1.5" stroke-linecap="round" stroke-linejoin="round"/>
    <path d="M52.4491 55.8571H49.8511V54.0991H52.4491V55.8571ZM51.1501 52.8C50.8578 52.8 50.5774 52.916 50.3705 53.1223C50.1635 53.3287 50.0469 53.6088 50.0461 53.901H50.3461C50.3586 53.6967 50.4486 53.5048 50.5977 53.3645C50.7468 53.2242 50.9438 53.1461 51.1486 53.1461C51.3533 53.1461 51.5503 53.2242 51.6995 53.3645C51.8486 53.5048 51.9386 53.6967 51.9511 53.901H52.2511C52.2503 53.6093 52.134 53.3297 51.9277 53.1234C51.7214 52.9171 51.4418 52.8008 51.1501 52.8Z" fill="#592CB8"/>
    <path d="M49.3978 62.7539H17.0458V68.9429H49.3978V62.7539Z" fill="#592CB8"/>
    <path opacity="0.4" d="M49.3978 62.7539H17.0458V68.9429H49.3978V62.7539Z" fill="white"/>
    <path d="M21.7017 64.554H19.1187V67.137H21.7017V64.554Z" fill="white"/>
    <path d="M47.6938 65.541H45.0958V67.296H47.6938V65.541Z" fill="white"/>
    <path d="M47.4957 65.349H47.1957C47.1957 65.1366 47.1113 64.9329 46.9611 64.7827C46.8109 64.6324 46.6071 64.548 46.3947 64.548C46.1823 64.548 45.9785 64.6324 45.8283 64.7827C45.6781 64.9329 45.5937 65.1366 45.5937 65.349H45.2937C45.2937 65.057 45.4097 64.777 45.6162 64.5705C45.8227 64.364 46.1027 64.248 46.3947 64.248C46.6867 64.248 46.9668 64.364 47.1732 64.5705C47.3797 64.777 47.4957 65.057 47.4957 65.349Z" fill="white"/>
    <path d="M54.3206 74.73H21.9686V80.919H54.3206V74.73Z" fill="#592CB8"/>
    <path opacity="0.4" d="M54.3206 74.73H21.9686V80.919H54.3206V74.73Z" fill="white"/>
    <path d="M26.6245 76.5332H24.0415V79.1162H26.6245V76.5332Z" fill="white"/>
    <path d="M24.6063 77.829L25.0893 78.45L26.0613 77.199" stroke="#592CB8" stroke-width="1.5" stroke-linecap="round" stroke-linejoin="round"/>
    <g opacity="0.6">
        <path opacity="0.6" d="M52.6167 77.5168H50.0187V79.2718H52.6167V77.5168Z" fill="white"/>
        <path opacity="0.6" d="M52.419 77.328H52.119C52.1257 77.2185 52.1099 77.1088 52.0726 77.0056C52.0353 76.9024 51.9773 76.808 51.9021 76.7281C51.827 76.6482 51.7362 76.5845 51.6355 76.5409C51.5348 76.4974 51.4262 76.4749 51.3165 76.4749C51.2068 76.4749 51.0982 76.4974 50.9975 76.5409C50.8968 76.5845 50.8061 76.6482 50.7309 76.7281C50.6557 76.808 50.5977 76.9024 50.5604 77.0056C50.5231 77.1088 50.5073 77.2185 50.514 77.328H50.214C50.2062 77.1784 50.2289 77.0288 50.2808 76.8882C50.3327 76.7477 50.4127 76.6191 50.5158 76.5105C50.6189 76.4018 50.7431 76.3153 50.8808 76.2561C51.0184 76.197 51.1667 76.1665 51.3165 76.1665C51.4663 76.1665 51.6146 76.197 51.7523 76.2561C51.8899 76.3153 52.0141 76.4018 52.1172 76.5105C52.2204 76.6191 52.3003 76.7477 52.3522 76.8882C52.4041 77.0288 52.4268 77.1784 52.419 77.328Z" fill="white"/>
    </g>
    <path d="M123.353 67.9858H98.0905V84.4168H123.353V67.9858Z" fill="#592CB8"/>
    <path opacity="0.5" d="M123.353 67.9858H98.0905V84.4168H123.353V67.9858Z" fill="white"/>
    <path d="M122.429 71.064H99.0144V83.592H122.429V71.064Z" fill="#592CB8"/>
    <path d="M118.242 72.9358H100.923V73.4758H118.242V72.9358Z" fill="white"/>
    <path d="M109.233 74.5891H100.923V75.1291H109.233V74.5891Z" fill="white"/>
    <path d="M111.39 76.239H100.923V76.779H111.39V76.239Z" fill="white"/>
    <path d="M104.613 77.8889H100.923V78.4289H104.613V77.8889Z" fill="white"/>
    <path d="M103.311 79.5391H100.923V80.079H103.311V79.5391Z" fill="white"/>
    <path d="M124.076 100.386V109.548C124.077 109.796 123.988 110.036 123.826 110.224C123.664 110.411 123.44 110.535 123.194 110.571C123.142 110.575 123.09 110.575 123.038 110.571H111.269C110.995 110.571 110.731 110.462 110.537 110.268C110.343 110.073 110.234 109.81 110.234 109.536V100.386C110.233 100.229 110.269 100.073 110.339 99.9327C110.424 99.7578 110.556 99.6101 110.72 99.5067C110.885 99.4032 111.075 99.3481 111.269 99.3477H115.883C116.099 99.3441 116.308 99.2751 116.483 99.1497C116.66 99.0212 116.792 98.8409 116.861 98.6337C116.929 98.4253 117.061 98.2437 117.238 98.1149C117.415 97.9861 117.629 97.9168 117.848 97.9168H120.299C120.518 97.9163 120.732 97.9855 120.91 98.1144C121.087 98.2432 121.219 98.4251 121.286 98.6337C121.354 98.8416 121.487 99.0225 121.664 99.1508C121.841 99.279 122.054 99.3479 122.273 99.3477H123.026C123.163 99.3462 123.3 99.3718 123.427 99.4233C123.554 99.4747 123.67 99.5509 123.768 99.6475C123.866 99.744 123.943 99.859 123.996 99.9857C124.049 100.112 124.076 100.248 124.076 100.386Z" fill="#592CB8"/>
    <path opacity="0.3" d="M123.194 100.818V110.571H111.269C110.995 110.571 110.731 110.462 110.537 110.267C110.343 110.073 110.234 109.81 110.234 109.536V100.386C110.233 100.228 110.269 100.073 110.339 99.9326H122.309C122.543 99.9365 122.766 100.031 122.931 100.196C123.096 100.361 123.19 100.584 123.194 100.818Z" fill="white"/>
    <path d="M95.9907 86.9009V98.3579L93.7527 100.596H85.5447V86.9009H95.9907Z" fill="#592CB8"/>
    <path opacity="0.4" d="M95.9907 86.9009V98.3579L93.7527 100.596H85.5447V86.9009H95.9907Z" fill="white"/>
    <path d="M95.9912 98.3577H93.7532V100.596L95.9912 98.3577Z" fill="#592CB8"/>
    <path d="M94.7248 89.2261H86.8468V89.6551H94.7248V89.2261Z" fill="#592CB8"/>
    <path d="M93.4738 90.543H86.8468V90.972H93.4738V90.543Z" fill="#592CB8"/>
    <path d="M94.7248 91.8569H86.8468V92.2859H94.7248V91.8569Z" fill="#592CB8"/>
    <path d="M89.7868 93.1738H86.8468V93.6028H89.7868V93.1738Z" fill="#592CB8"/>
    <path d="M88.7518 94.4907H86.8468V94.9197H88.7518V94.4907Z" fill="#592CB8"/>
    <path d="M103.032 43.1702H81.675V60.8162H103.032V43.1702Z" fill="#592CB8"/>
    <path opacity="0.6" d="M81.675 43.1702V60.8162H103.032V43.1702H81.675ZM102.336 60.1202H82.374V43.8662H102.336V60.1202Z" fill="white"/>
    <path opacity="0.3" d="M82.374 55.302L88.494 50.856L93.042 55.302L97.59 52.704L102.336 55.626V60.12H82.374V55.302Z" fill="white"/>
    <path opacity="0.6" d="M96.7931 47.8771C96.7925 48.1659 96.7063 48.4481 96.5454 48.6879C96.3845 48.9278 96.1561 49.1146 95.8891 49.2247C95.6221 49.3348 95.3284 49.3634 95.0452 49.3066C94.762 49.2499 94.502 49.1105 94.298 48.9061C94.0939 48.7017 93.9551 48.4413 93.8989 48.158C93.8428 47.8747 93.8719 47.5811 93.9826 47.3143C94.0933 47.0475 94.2805 46.8195 94.5207 46.6591C94.7609 46.4987 95.0433 46.4131 95.3321 46.4131C95.5242 46.4131 95.7144 46.451 95.8919 46.5246C96.0693 46.5982 96.2305 46.7061 96.3662 46.8421C96.5019 46.978 96.6095 47.1395 96.6827 47.3171C96.756 47.4947 96.7935 47.685 96.7931 47.8771Z" fill="white"/>
    <path d="M104.427 61.5479V62.1479H103.827" stroke="#263238" stroke-miterlimit="10"/>
    <path d="M102.885 62.1511H81.4053" stroke="#263238" stroke-miterlimit="10" stroke-dasharray="4.18 3.14"/>
    <path d="M80.9345 62.1479H80.3345V61.5479" stroke="#263238" stroke-miterlimit="10"/>
    <path d="M80.3345 60.6811V42.9031" stroke="#263238" stroke-miterlimit="10" stroke-dasharray="3.85 2.89"/>
    <path d="M80.3345 42.4679V41.8679H80.9345" stroke="#263238" stroke-miterlimit="10"/>
    <path d="M81.8761 41.8679H103.356" stroke="#263238" stroke-miterlimit="10" stroke-dasharray="4.18 3.14"/>
    <path d="M103.827 41.8679H104.427V42.4679" stroke="#263238" stroke-miterlimit="10"/>
    <path d="M104.427 43.335V61.116" stroke="#263238" stroke-miterlimit="10" stroke-dasharray="3.85 2.89"/>
    <path d="M104.898 41.394H103.953V42.339H104.898V41.394Z" fill="#263238"/>
    <path d="M104.898 61.6772H103.953V62.6222H104.898V61.6772Z" fill="#263238"/>
    <path d="M80.8056 61.6772H79.8606V62.6222H80.8056V61.6772Z" fill="#263238"/>
    <path d="M80.8056 41.394H79.8606V42.339H80.8056V41.394Z" fill="#263238"/>
    <path d="M92.8263 41.394H91.8813V42.339H92.8263V41.394Z" fill="#263238"/>
    <path d="M92.8535 61.6772H91.9084V62.6222H92.8535V61.6772Z" fill="#263238"/>
    <path d="M104.898 51.5371H103.953V52.4821H104.898V51.5371Z" fill="#263238"/>
    <path d="M80.8056 51.5371H79.8606V52.4821H80.8056V51.5371Z" fill="#263238"/>
    <path d="M52.5001 70.9858L49.3081 73.5778C49.3081 73.5778 48.5281 73.5928 48.2821 73.8508C48.0361 74.1088 47.0821 76.0258 47.2291 76.2868C47.3761 76.5478 48.9361 77.0638 49.2691 76.7548C49.6021 76.4458 50.1691 74.6728 50.1691 74.4838L54.2491 71.7478L52.5001 70.9858Z" fill="#EBB376"/>
    <path d="M50.7845 72.1829L51.4985 73.7399C51.4985 73.7399 55.8875 71.6999 56.8385 70.4999C57.0815 70.1999 57.4175 69.6989 57.7805 69.1379C58.3805 68.2109 59.0525 67.0949 59.5205 66.3119C59.8685 65.7269 60.1025 65.3279 60.1025 65.3279L57.6185 61.4099C57.0755 61.8269 55.4135 68.5229 55.1165 68.8829C54.8195 69.2429 50.7845 72.1829 50.7845 72.1829Z" fill="#592CB8"/>
    <path opacity="0.1" d="M57.7797 69.1259C58.3797 68.1989 59.0517 67.083 59.5197 66.3L58.3647 63.45C58.3647 63.45 57.7377 66.7199 57.7797 69.1259Z" fill="black"/>
    <path d="M78.0144 56.1748L81.1584 53.7328C81.1584 53.7328 81.4134 52.9948 81.7344 52.8328C82.0554 52.6708 84.1674 52.3678 84.3744 52.5748C84.5814 52.7818 84.5904 54.4408 84.1944 54.6748C83.7984 54.9088 81.9354 54.9028 81.7584 54.8338L78.3234 57.3418L78.0144 56.1748Z" fill="#EBB376"/>
    <path d="M51.4595 123.3L53.3405 123.633L54.1145 121.065L54.8165 118.707L52.6475 117.948L52.0175 120.78L51.4595 123.3Z" fill="#EBB376"/>
    <path opacity="0.2" d="M52.0052 120.84L54.1052 121.116L54.8132 118.734L52.6442 117.96L52.0052 120.84Z" fill="black"/>
    <path d="M64.0292 123.345H65.9432L66.2552 120.78L66.5402 118.386L64.2692 118.041L64.1432 120.855L64.0292 123.345Z" fill="#EBB376"/>
    <path opacity="0.2" d="M64.1426 121.023L66.2546 120.93L66.5396 118.461L64.2686 118.077L64.1426 121.023Z" fill="black"/>
    <path d="M51.8281 118.779L54.9241 119.325C58.0471 111.543 60.2701 105.045 61.8241 99.6538C62.6701 96.7438 63.3391 94.1578 63.8461 91.8538L63.7141 100.329V119.442H66.8371C74.4841 83.1419 69.0661 74.7028 69.0661 74.7028L59.9161 73.1729C59.5533 74.867 59.2978 76.5825 59.1511 78.3088L58.7371 81.3419L55.1611 99.8158L51.8281 118.779Z" fill="#263238"/>
    <path d="M55.4097 118.944L51.5697 117.669L51.6207 119.304L54.7977 120.315L55.4097 118.944Z" fill="#592CB8"/>
    <path opacity="0.6" d="M55.4097 118.944L51.5697 117.669L51.6207 119.304L54.7977 120.315L55.4097 118.944Z" fill="white"/>
    <path d="M67.2636 119.121L63.2616 118.533L63.5946 120.135L66.8976 120.579L67.2636 119.121Z" fill="#592CB8"/>
    <path opacity="0.6" d="M67.2636 119.121L63.2616 118.533L63.5946 120.135L66.8976 120.579L67.2636 119.121Z" fill="white"/>
    <path opacity="0.2" d="M61.4187 101.079C61.5627 100.593 61.7187 100.119 61.8507 99.6541C62.6187 97.0111 63.1287 94.6381 63.7287 92.5051L64.0287 88.5811C64.0287 88.5811 62.0697 84.2701 62.8017 81.2371C62.7357 81.4081 61.4397 84.7141 61.9497 88.0171C62.0693 92.3781 61.8919 96.7421 61.4187 101.079Z" fill="black"/>
    <path d="M61.155 57.4592C61.1803 57.4771 61.2075 57.4922 61.236 57.5042C61.6187 57.7262 62.0421 57.8691 62.481 57.9242C63.759 58.0502 64.581 57.7712 65.061 57.1382C65.727 56.1962 65.724 54.6812 65.382 52.8962C65.2696 52.1833 65.0448 51.4927 64.716 50.8502C64.716 50.8502 64.716 50.8232 64.716 50.8172C64.716 50.8112 64.689 50.7662 64.674 50.7452C64.473 50.3846 64.1848 50.0801 63.8358 49.8594C63.4868 49.6388 63.088 49.5091 62.676 49.4822C62.3174 49.4494 61.9561 49.4564 61.599 49.5032C58.083 49.9202 58.2 55.8002 61.155 57.4592Z" fill="#EBB376"/>
    <path opacity="0.2" d="M61.2366 57.5041C61.6202 57.7104 62.0417 57.8369 62.4756 57.8761C63.7536 58.0021 64.5756 57.6811 65.0496 57.0391C64.3325 57.3195 63.5433 57.3574 62.8026 57.1471C62.5316 57.0836 62.2497 57.0827 61.9783 57.1446C61.7069 57.2064 61.4533 57.3294 61.2366 57.5041Z" fill="black"/>
    <path d="M60.9719 60.3751C60.6569 61.3531 61.9139 61.8901 61.9139 61.8901C64.1249 61.1911 64.6289 60.0901 64.6289 60.0901C62.9489 58.9921 63.7289 56.4331 63.7289 56.4331L63.3509 56.5741L60.7739 56.8201C60.7739 56.8201 61.3439 58.2361 61.4069 58.5511C61.7159 60.2221 60.9719 60.3751 60.9719 60.3751Z" fill="#EBB376"/>
    <path d="M64.7192 50.8259C64.7192 50.8259 65.2322 53.2589 63.0392 54.6179C63.0392 54.6179 62.3732 57.2999 60.9032 57.5279C58.9022 57.8279 56.7632 55.2119 57.0782 52.2119C57.4892 48.3239 63.1652 47.2739 64.7192 50.8259Z" fill="#263238"/>
    <path d="M64.1284 53.7569C64.0774 53.3729 63.6844 52.7699 63.0994 52.9349C62.5144 53.0999 62.3524 54.6719 63.9124 54.8129C64.1344 54.8339 64.2334 54.5579 64.1284 53.7569Z" fill="#EBB376"/>
    <path d="M66.1445 123H64.0115C63.9671 122.999 63.9237 123.014 63.8892 123.042C63.8546 123.07 63.831 123.109 63.8225 123.153L63.3845 125.13C63.3753 125.172 63.3745 125.216 63.3822 125.258C63.3899 125.301 63.4059 125.341 63.4293 125.378C63.4527 125.414 63.4831 125.445 63.5187 125.47C63.5542 125.494 63.5943 125.511 63.6365 125.52C63.6605 125.523 63.6846 125.523 63.7085 125.52C64.5815 125.52 64.6535 125.454 65.7485 125.454C66.4235 125.454 68.4635 125.523 69.3965 125.523C70.3295 125.523 70.4495 124.602 70.0685 124.518C68.3555 124.143 67.0685 123.618 66.5195 123.135C66.4163 123.044 66.2822 122.996 66.1445 123Z" fill="#263238"/>
    <path d="M66.3008 123.3C66.2902 123.298 66.2805 123.292 66.2735 123.284C66.2664 123.276 66.2623 123.266 66.2618 123.255C66.2603 123.245 66.2618 123.235 66.2661 123.226C66.2704 123.217 66.2772 123.209 66.2858 123.204C66.3668 123.153 67.0838 122.712 67.3298 122.841C67.3576 122.854 67.3809 122.875 67.3969 122.901C67.4129 122.927 67.4209 122.957 67.4198 122.988C67.428 123.041 67.422 123.094 67.4025 123.144C67.383 123.194 67.3506 123.237 67.3088 123.27C67.1846 123.357 67.0338 123.397 66.8828 123.384C66.6862 123.378 66.4909 123.35 66.3008 123.3ZM66.4538 123.228C66.7134 123.314 66.9959 123.3 67.2458 123.189C67.2717 123.165 67.2916 123.136 67.3036 123.103C67.3156 123.07 67.3195 123.035 67.3148 123C67.3148 122.955 67.2968 122.937 67.2818 122.937C67.2605 122.926 67.2367 122.921 67.2128 122.922C66.9423 122.972 66.6837 123.073 66.4508 123.219L66.4538 123.228Z" fill="#592CB8"/>
    <path d="M66.2823 123.3C66.2744 123.295 66.2681 123.288 66.2639 123.279C66.2597 123.271 66.2577 123.261 66.2583 123.252C66.2583 123.222 66.3153 122.583 66.5583 122.373C66.5888 122.347 66.6248 122.327 66.6636 122.316C66.7024 122.304 66.7432 122.301 66.7833 122.307C66.8231 122.306 66.8618 122.32 66.8926 122.345C66.9234 122.371 66.9442 122.406 66.9513 122.445C66.9993 122.679 66.5553 123.168 66.3243 123.291H66.3003C66.2949 123.295 66.2888 123.298 66.2823 123.3ZM66.6393 122.436C66.4822 122.636 66.39 122.879 66.3753 123.132C66.6063 122.958 66.8883 122.589 66.8613 122.445C66.8613 122.43 66.8613 122.391 66.7833 122.391H66.7593C66.7146 122.391 66.6718 122.409 66.6393 122.439V122.436Z" fill="#592CB8"/>
    <path d="M53.4152 123H51.2792C51.2351 123 51.1923 123.016 51.158 123.043C51.1236 123.071 51.0998 123.11 51.0902 123.153L50.6522 125.13C50.643 125.172 50.6422 125.216 50.6499 125.258C50.6576 125.301 50.6736 125.341 50.697 125.378C50.7204 125.414 50.7508 125.445 50.7864 125.469C50.8219 125.494 50.862 125.511 50.9042 125.52C50.9281 125.523 50.9523 125.523 50.9762 125.52C51.8522 125.52 51.9212 125.454 53.0192 125.454C53.6942 125.454 55.7192 125.523 56.6642 125.523C57.6092 125.523 57.7202 124.602 57.3392 124.518C55.6262 124.143 54.3392 123.618 53.7872 123.135C53.6851 123.044 53.552 122.996 53.4152 123Z" fill="#263238"/>
    <path d="M53.5647 123.3C53.5541 123.298 53.5444 123.292 53.5373 123.284C53.5303 123.276 53.5262 123.266 53.5257 123.255C53.5249 123.245 53.527 123.235 53.5318 123.226C53.5366 123.216 53.5438 123.209 53.5527 123.204C53.6307 123.153 54.3477 122.712 54.5967 122.841C54.6238 122.855 54.6465 122.876 54.6624 122.902C54.6783 122.928 54.6867 122.957 54.6867 122.988C54.6949 123.041 54.6889 123.094 54.6694 123.144C54.6499 123.194 54.6176 123.237 54.5757 123.27C54.4511 123.356 54.3006 123.396 54.1497 123.384C53.9521 123.378 53.7558 123.35 53.5647 123.3ZM53.7177 123.228C53.9773 123.314 54.2598 123.3 54.5097 123.189C54.536 123.166 54.5563 123.136 54.5688 123.103C54.5813 123.07 54.5858 123.035 54.5817 123C54.5817 122.955 54.5607 122.937 54.5457 122.937C54.5256 122.926 54.5027 122.92 54.4797 122.922C54.2094 122.973 53.951 123.073 53.7177 123.219V123.228Z" fill="#592CB8"/>
    <path d="M53.5528 123.3C53.5442 123.296 53.5371 123.289 53.5323 123.28C53.5275 123.272 53.5253 123.262 53.5258 123.252C53.5258 123.222 53.5828 122.583 53.8408 122.373C53.8706 122.346 53.906 122.327 53.9444 122.315C53.9828 122.304 54.0233 122.301 54.0628 122.307C54.103 122.306 54.1422 122.32 54.1734 122.345C54.2047 122.37 54.2261 122.406 54.2338 122.445C54.2788 122.679 53.8348 123.168 53.6068 123.291H53.5798L53.5528 123.3ZM53.9068 122.436C53.7507 122.636 53.6596 122.879 53.6458 123.132C53.8738 122.958 54.1558 122.589 54.1288 122.445C54.1288 122.43 54.1288 122.391 54.0538 122.391H54.0268C53.9822 122.391 53.9394 122.409 53.9068 122.439V122.436Z" fill="#592CB8"/>
    <path d="M69.0811 74.742C69.0811 74.742 70.8271 64.107 67.8271 59.34C67.8271 59.34 61.8271 58.968 57.6271 61.401C57.6271 61.401 59.3671 66.135 59.6281 74.742H69.0811Z" fill="#592CB8"/>
    <path opacity="0.1" d="M69.6272 66.5999C69.7562 65.1569 69.3272 63.7679 69.2672 62.5439C68.5168 61.8814 67.8535 61.1264 67.2932 60.2969C67.2932 60.2969 66.7502 64.6079 69.6272 66.5999Z" fill="black"/>
    <path d="M67.0833 59.3189C67.0833 59.3189 73.0203 58.6229 73.9143 58.2479C74.4723 58.0139 78.8373 55.1609 78.8373 55.1609L79.8603 56.6999C79.8603 56.6999 75.3963 60.2999 74.6403 60.7199C72.8703 61.6919 68.8923 63.0659 68.8923 63.0659C68.8923 63.0659 66.4893 61.3799 67.0833 59.3189Z" fill="#592CB8"/>
    <path d="M64.6287 52.437C64.6287 52.437 67.0977 49.968 64.7697 48.306C62.4417 46.644 60.1017 48.813 60.1017 48.813C60.1017 48.813 54.5337 50.157 55.7187 53.862C56.9037 57.567 57.6777 57.879 55.9137 59.778C54.1497 61.677 52.3497 64.5 54.1527 66.3C55.9557 68.1 62.2527 66.249 64.1697 63.534C66.0867 60.819 62.6997 54.984 64.6287 52.437Z" fill="#263238"/>
    <path d="M59.6225 74.7421L59.5835 73.7341L69.1895 73.9771V74.9101L59.6225 74.7421Z" fill="black"/>
    <path d="M62.6673 73.8032H62.2803V74.7962H62.6673V73.8032Z" fill="#263238"/>
    <path d="M67.1015 73.9141H66.7595V75.0001H67.1015V73.9141Z" fill="#263238"/>
    <path d="M60.1738 73.749H59.8468V74.91H60.1738V73.749Z" fill="#263238"/>
</svg>
