<svg width="32" height="32" viewBox="0 0 32 32" fill="none" xmlns="http://www.w3.org/2000/svg">
    <path fill-rule="evenodd" clip-rule="evenodd" d="M27.0315 11.5554C26.5435 8.15403 23.8462 5.4567 20.4449 4.9687V11.5554H27.0315ZM28.2219 13.7767H19.3339C18.7205 13.7767 18.2219 13.2807 18.2219 12.666V3.77668C18.2219 3.16335 18.7205 2.66602 19.3339 2.66602C24.8472 2.66602 29.3339 7.15268 29.3339 12.666C29.3339 13.2807 28.8352 13.7767 28.2219 13.7767ZM17.2462 15.9699H28.1115C28.8342 15.9699 29.3995 16.5992 29.3275 17.3179C28.6022 24.5526 22.1062 30.0886 14.5088 29.2486C8.39551 28.5739 3.42618 23.6046 2.75018 17.4912C1.91284 9.8939 7.44618 3.39657 14.6822 2.67257C15.4022 2.60057 16.0302 3.16457 16.0302 3.88723V14.7552C16.0302 15.4259 16.5742 15.9699 17.2462 15.9699Z" fill="#39B54A"/>
</svg>
