<svg width="48" height="48" viewBox="0 0 48 48" fill="none" xmlns="http://www.w3.org/2000/svg">
    <path fill-rule="evenodd" clip-rule="evenodd" d="M33.2762 21.1887C33.8978 21.1895 34.4545 21.5735 34.676 22.1543C34.7336 22.3055 34.7812 22.4616 34.8187 22.6221L34.8187 22.6221C34.8821 22.894 35.1939 23.0232 35.431 22.8758C38.4932 20.9722 42.0278 24.5069 40.1243 27.569C39.9768 27.8061 40.106 28.1179 40.3779 28.1814C43.8892 29.0006 43.8892 33.9994 40.3779 34.8186C40.106 34.882 39.9768 35.1938 40.1243 35.431C42.0278 38.4931 38.4932 42.0278 35.431 40.1242C35.1939 39.9768 34.8821 40.1059 34.8187 40.3778C33.9994 43.8891 29.0007 43.8891 28.1814 40.3778C28.118 40.1059 27.8062 39.9768 27.5691 40.1242C24.5069 42.0278 20.9722 38.4931 22.8758 35.431C23.0232 35.1938 22.8941 34.8821 22.6222 34.8186C22.6222 34.8186 22.6222 34.8186 22.6222 34.8186M33.2762 21.1887C32.6546 21.188 32.0969 21.5707 31.8741 22.151L33.2762 21.1887ZM31.8741 22.151C31.7725 22.4155 31.5643 22.6445 31.1626 22.7382L31.8741 22.151ZM33.0579 25.1691C32.7002 25.3865 32.2947 25.5547 31.8442 25.6597C31.2304 25.803 30.9089 26.4548 31.1284 27.0152C31.251 27.0051 31.375 27 31.5 27C33.9853 27 36 29.0147 36 31.5C36 33.9853 33.9853 36 31.5 36C29.6589 36 28.0767 34.8948 27.3797 33.3112C26.8082 33.2471 26.2319 33.0537 25.6838 32.7129L26.3101 31.7054L25.6838 32.7129C25.3892 32.5298 25.0483 32.5182 24.7611 32.6366C25.9703 33.6852 26.3491 35.5261 25.4237 37.0148C25.3451 37.1412 25.3441 37.2255 25.3525 37.2806C25.3633 37.3517 25.4031 37.4399 25.4816 37.5184C25.5602 37.597 25.6483 37.6367 25.7194 37.6475C25.7745 37.6559 25.8589 37.6549 25.9852 37.5764C27.967 36.3444 30.5728 37.4238 31.103 39.6962C31.1368 39.8411 31.1957 39.9014 31.2406 39.9345C31.2985 39.9771 31.389 40.0113 31.5 40.0113C31.6111 40.0113 31.7016 39.9771 31.7595 39.9345C31.8044 39.9014 31.8633 39.8411 31.8971 39.6962C32.4273 37.4238 35.0331 36.3444 37.0149 37.5764C37.1412 37.6549 37.2256 37.6559 37.2807 37.6475C37.3517 37.6367 37.4399 37.597 37.5185 37.5184C37.597 37.4399 37.6367 37.3517 37.6476 37.2806C37.656 37.2255 37.655 37.1412 37.5764 37.0148C36.3445 35.0331 37.4238 32.4273 39.6963 31.8971C39.8411 31.8633 39.9015 31.8043 39.9345 31.7594C39.9771 31.7015 40.0114 31.6111 40.0114 31.5C40.0114 31.3889 39.9771 31.2985 39.9345 31.2406C39.9015 31.1957 39.8411 31.1367 39.6963 31.1029C37.4238 30.5727 36.3445 27.9669 37.5764 25.9852C37.655 25.8588 37.656 25.7744 37.6476 25.7194C37.6367 25.6483 37.597 25.5601 37.5185 25.4816C37.4399 25.403 37.3517 25.3633 37.2807 25.3525C37.2256 25.3441 37.1412 25.3451 37.0149 25.4236C35.7095 26.2351 34.1333 26.0437 33.0579 25.1691ZM31.1626 22.7382C28.4854 23.3628 27.2138 26.4328 28.6652 28.7676L31.1626 22.7382ZM31.5 30C31.2783 30 31.0717 30.0471 30.8862 30.1305C30.478 30.314 30.0092 30.3057 29.6078 30.1078C29.2064 29.9099 28.9143 29.543 28.8113 29.1075C28.7879 29.0083 28.7439 28.8941 28.6652 28.7676M31.5 30C32.3285 30 33 30.6716 33 31.5L31.5 30ZM21.2383 32.6626C21.8629 29.9853 24.9328 28.7137 27.2676 30.1651C27.5784 30.3583 27.8477 30.364 28.0716 30.2958C28.5071 30.1631 28.9793 30.2354 29.3552 30.4923C29.7311 30.7492 29.9699 31.1629 30.0045 31.6169C30.0632 32.3899 30.7111 33 31.5 33C32.3285 33 33 32.3284 33 31.5M21.2383 32.6626L22.4193 32.9381L21.2383 32.6626ZM22.6222 34.8186C22.4246 34.7725 22.2337 34.711 22.0508 34.6345C21.3276 34.3321 20.9593 33.5238 21.2055 32.7796C21.2174 32.7434 21.2285 32.7045 21.2383 32.6626L22.4193 32.9381" fill="#5E3FEB"/>
    <path fill-rule="evenodd" clip-rule="evenodd" d="M16.3402 10.1558C17.3054 6.01904 23.1946 6.01903 24.1597 10.1558C24.3176 10.8325 25.0936 11.1539 25.6837 10.787C29.2913 8.54437 33.4556 12.7087 31.2129 16.3163C30.8461 16.9064 31.1675 17.6823 31.8442 17.8402C35.9809 18.8054 35.9809 24.6946 31.8442 25.6597C31.1675 25.8176 30.8461 26.5936 31.2129 27.1837C33.4556 30.7913 29.2913 34.9556 25.6837 32.7129C25.0936 32.3461 24.3176 32.6675 24.1597 33.3442C23.1946 37.4809 17.3054 37.4809 16.3402 33.3442C16.1823 32.6675 15.4064 32.3461 14.8163 32.7129C11.2087 34.9556 7.04437 30.7913 9.28703 27.1837C9.65389 26.5936 9.33248 25.8176 8.65579 25.6597C4.51903 24.6946 4.51904 18.8054 8.65579 17.8402C9.33248 17.6823 9.65389 16.9064 9.28703 16.3163C7.04437 12.7087 11.2087 8.54437 14.8163 10.787C15.4064 11.1539 16.1823 10.8325 16.3402 10.1558ZM21.2382 10.8374C20.9942 9.79182 19.5057 9.79182 19.2618 10.8374C18.6371 13.5146 15.5672 14.7863 13.2324 13.3349C12.3206 12.768 11.268 13.8206 11.8349 14.7324C13.2863 17.0672 12.0146 20.1371 9.33742 20.7618C8.29182 21.0057 8.29183 22.4942 9.33742 22.7382C12.0146 23.3628 13.2863 26.4328 11.8349 28.7675C11.268 29.6794 12.3206 30.7319 13.2324 30.1651C15.5672 28.7137 18.6371 29.9853 19.2618 32.6625C19.5057 33.7081 20.9942 33.7081 21.2382 32.6625C21.8628 29.9853 24.9328 28.7137 27.2675 30.1651C28.1794 30.7319 29.2319 29.6794 28.6651 28.7675C27.2137 26.4328 28.4853 23.3628 31.1625 22.7382C32.2081 22.4942 32.2081 21.0057 31.1625 20.7618C28.4853 20.1371 27.2137 17.0672 28.6651 14.7324C29.2319 13.8206 28.1794 12.768 27.2675 13.3349C24.9328 14.7863 21.8628 13.5146 21.2382 10.8374Z" fill="white"/>
    <path fill-rule="evenodd" clip-rule="evenodd" d="M20.25 19.5C19.0074 19.5 18 20.5074 18 21.75C18 22.9926 19.0074 24 20.25 24C21.4926 24 22.5 22.9926 22.5 21.75C22.5 20.5074 21.4926 19.5 20.25 19.5ZM15 21.75C15 18.8505 17.3505 16.5 20.25 16.5C23.1495 16.5 25.5 18.8505 25.5 21.75C25.5 24.6495 23.1495 27 20.25 27C17.3505 27 15 24.6495 15 21.75Z" fill="#5E3FEB"/>
</svg>
