<svg width="1600" height="231" viewBox="0 0 1600 231" fill="none" xmlns="http://www.w3.org/2000/svg">
    <path d="M-6 244.87C65.2236 244.837 138.192 246.515 209.17 243.581C290.651 240.24 370.253 229.933 451.433 225.627C519.558 222.017 582.515 225.375 648.223 234.442C704.48 242.209 758.968 249.987 817.977 250.004C876.325 250.004 928.229 239.664 983.602 232.116C1046.68 223.52 1104.85 226.022 1166.49 236.406C1229.22 246.97 1286.82 259.444 1354.59 259.17C1439.04 258.797 1520.14 244.617 1604.84 244.87" stroke="url(#paint0_linear_518_2497)" stroke-miterlimit="10"/>
    <path d="M-6 237.442C63.4226 237.393 135.295 239.258 204.304 235.649C289.521 231.194 372.099 218.896 457.015 213.345C526.091 208.831 586.05 213.658 650.696 225.737C704.032 235.703 756.418 246.504 814.464 246.844C875.81 247.206 931.115 233.005 987.853 223.444C1053.37 212.402 1109.31 214.749 1172.63 228.205C1232.92 241.019 1289.15 257.469 1357.2 256.548C1441.36 255.407 1520.32 237.969 1604.81 237.442" stroke="url(#paint1_linear_518_2497)" stroke-miterlimit="10"/>
    <path d="M-6 230.136C61.644 230.07 132.398 232.056 199.538 227.848C288.403 222.281 373.967 208.052 462.418 201.261C532.892 195.847 589.45 202.045 652.732 217.306C702.779 229.373 753.051 243.312 810.291 244.047C874.635 244.864 934.382 226.417 992.428 215.078C1022.83 209.171 1054.88 203.636 1088.03 204.909C1120.47 206.159 1151.18 212.857 1179.55 220.268C1236.74 235.171 1292.45 255.687 1360.49 254.118C1444.28 252.182 1520.6 231.496 1604.85 230.152" stroke="url(#paint2_linear_518_2497)" stroke-miterlimit="10"/>
    <path d="M-5.94531 222.955C60.0542 222.873 129.656 224.908 194.962 220.213C287.216 213.597 375.454 197.53 467.182 189.566C539.267 183.301 592.559 190.756 654.129 209.16C700.809 223.114 748.978 240.168 805.704 241.326C872.822 242.692 937.703 219.905 996.856 207.009C1027.84 200.251 1062.02 193.126 1096.63 194.695C1129.07 196.165 1159.46 204.195 1186.59 212.522C1240.67 229.132 1295.81 253.789 1364.03 251.589C1447.45 248.89 1520.84 225.062 1604.86 222.955" stroke="url(#paint3_linear_518_2497)" stroke-miterlimit="10"/>
    <path d="M-5.93216 215.901C58.4901 215.802 127.063 217.838 190.702 212.796C285.965 205.243 376.574 187.481 471.144 178.452C507.153 175.019 541.283 173.033 576.553 179.056C605.291 183.965 630.572 192.583 654.958 201.294C698.585 216.867 744.639 236.839 801.231 238.402C870.81 240.328 940.904 213.411 1001.02 199.198C1032.54 191.744 1068.82 183.11 1104.75 184.936C1137.34 186.582 1167.33 195.836 1193.29 204.974C1244.5 222.988 1298.98 251.501 1367.56 248.742C1450.69 245.391 1521.03 218.611 1604.9 215.874" stroke="url(#paint4_linear_518_2497)" stroke-miterlimit="10"/>
    <path d="M-5.92123 208.962C57.1475 208.858 124.791 210.882 186.965 205.611C284.645 197.328 376.977 178.041 473.929 168.162C510.061 164.481 544.09 162.199 579.182 169.034C607.651 174.613 631.914 184.185 655.115 193.751C696.18 210.663 740.31 233.142 797.182 235.034C833.526 236.247 870.072 226.949 901.461 219.077C936.284 210.345 969.765 200.394 1004.58 191.65C1036.57 183.62 1074.6 173.768 1111.74 175.825C1144.56 177.641 1174.08 187.838 1199.12 197.657C1247.98 216.856 1301.43 248.594 1370.67 245.38C1453.65 241.54 1521.05 212.094 1604.92 208.94" stroke="url(#paint5_linear_518_2497)" stroke-miterlimit="10"/>
    <path d="M-5.91031 202.149C56.0286 202.045 122.957 204.075 183.934 198.704C283.336 189.955 376.742 169.352 475.316 158.858C511.28 155.019 545.566 152.567 580.3 159.89C608.736 165.885 632.272 176.28 654.633 186.505C693.987 204.491 736.45 228.836 794.016 230.937C831.356 232.286 868.964 222.215 900.845 213.888C936.832 204.48 971.319 193.773 1007.31 184.355C1039.75 175.858 1078.9 165.233 1117.03 167.399C1150.2 169.286 1179.22 180.12 1203.57 190.504C1250.92 210.684 1302.74 244.699 1373.09 241.271C1456.07 237.228 1520.89 205.418 1604.93 202.171" stroke="url(#paint6_linear_518_2497)" stroke-miterlimit="10"/>
    <path d="M-5.88843 195.457C55.1779 195.369 121.692 197.437 181.774 192.111C282.015 183.225 375.678 161.541 475.013 150.762C510.485 146.922 545.409 144.421 579.651 151.793C608.321 157.964 631.533 168.919 653.481 179.577C692.208 198.414 733.418 223.734 792.192 225.775C830.359 227.102 868.069 216.927 900.397 208.222C937.144 198.348 972.27 187.092 1009.01 177.207C1041.86 168.365 1081.18 157.57 1120.1 159.72C1153.66 161.574 1182.18 172.605 1206.23 183.433C1253.22 204.579 1302.56 239.455 1374.55 236.06C1457.75 232.138 1520.61 198.37 1604.99 195.468" stroke="url(#paint7_linear_518_2497)" stroke-miterlimit="10"/>
    <path d="M-5.87747 188.875C54.9652 188.688 121.267 191.014 181.091 185.583C280.65 176.527 373.117 154.196 471.669 143.165C507.04 139.21 541.941 136.84 576.16 144.125C605.245 150.329 628.915 161.415 651.187 172.204C690.63 191.316 732.277 216.96 791.822 219.351C830.259 220.893 867.744 210.844 900.218 202.001C937.021 191.974 972.079 180.498 1008.87 170.466C1041.88 161.459 1081 150.811 1120.21 153.115C1153.99 155.101 1182.35 166.154 1206.44 177.103C1253.62 198.545 1302.02 232.961 1374.59 229.763C1458.02 226.098 1520.23 191.409 1604.96 188.875" stroke="url(#paint8_linear_518_2497)" stroke-miterlimit="10"/>
    <path d="M-5.86655 182.44C55.2334 182.1 121.334 185.035 181.371 179.226C279.162 169.764 369.548 147.065 466.299 135.644C502.095 131.415 536.079 129.216 570.791 136.549C600.401 142.797 624.91 153.768 647.999 164.465C688.751 183.367 732.154 209.269 791.699 212.533C829.9 214.629 867.52 204.552 899.715 195.715C936.07 185.737 970.603 174.251 1006.95 164.262C1039.89 155.205 1079.01 144.64 1118.16 147.378C1151.84 149.731 1180.62 160.943 1205.05 171.771C1252.47 192.78 1302.27 226.548 1373.96 223.444C1457.59 219.818 1520.01 184.931 1604.94 182.44" stroke="url(#paint9_linear_518_2497)" stroke-miterlimit="10"/>
    <path d="M-5.84247 176.116C55.6042 175.71 121.525 179.462 181.932 173.313C277.732 163.56 365.757 140.565 460.472 128.881C496.571 124.416 529.761 122.425 564.864 129.665C594.932 135.869 620.426 146.555 644.376 157.169C686.493 175.819 731.898 201.628 791.387 205.682C829.242 208.265 866.571 198.397 898.475 189.599C934.215 179.725 968.02 168.31 1003.74 158.442C1036.58 149.369 1075.33 139.106 1114.3 142.232C1148.02 144.942 1177.31 156.204 1202.29 166.917C1250.33 187.487 1301.77 220.41 1372.91 217.349C1456.91 213.74 1519.68 178.628 1604.97 176.148" stroke="url(#paint10_linear_518_2497)" stroke-miterlimit="10"/>
    <path d="M-5.82059 169.912C56.0512 169.522 121.939 174.267 182.77 167.805C276.378 157.871 361.842 134.641 454.331 122.754C490.574 118.097 523.138 116.347 558.532 123.379C589.137 129.457 615.582 139.835 640.461 150.258C684.334 168.573 731.327 194.009 790.984 198.809C828.392 201.815 865.06 192.374 896.651 183.636C931.608 173.96 964.552 162.644 999.487 152.956C1032.21 143.878 1070.21 134.125 1108.95 137.597C1142.82 140.642 1172.71 151.859 1198.44 162.424C1247.44 182.539 1300.71 214.453 1371.48 211.409C1455.99 207.772 1519.24 172.424 1605.05 169.928" stroke="url(#paint11_linear_518_2497)" stroke-miterlimit="10"/>
    <path d="M-5.80966 163.828C56.5655 163.521 122.431 169.407 183.81 162.665C275.069 152.644 357.814 129.205 447.921 117.252C484.142 112.436 516.258 110.938 551.831 117.663C582.985 123.555 610.358 133.571 636.254 143.675C682.118 161.574 730.544 186.401 790.425 191.892C862.689 198.523 935.713 164.009 994.274 147.74C1026.87 138.678 1063.84 129.6 1102.24 133.401C1136.39 136.785 1166.9 147.893 1193.51 158.299C1243.76 177.942 1299.02 208.715 1369.61 205.654C1454.75 201.968 1518.6 166.363 1605.03 163.828" stroke="url(#paint12_linear_518_2497)" stroke-miterlimit="10"/>
    <path d="M-5.78778 157.871C57.1355 157.701 123.012 164.849 185.029 157.871C273.838 147.844 353.731 124.295 441.331 112.304C477.43 107.367 509.233 106.138 544.906 112.474C576.63 118.119 604.954 127.691 631.869 137.476C679.724 154.865 729.593 178.864 789.775 185.035C860.943 192.319 930.824 158.804 988.3 142.797C1020.08 133.96 1057.13 125.052 1094.48 129.605C1129.16 133.829 1159.71 144.07 1187.83 154.492C1239.52 173.636 1296.91 203.164 1367.5 200.07C1453.36 196.313 1517.9 160.438 1605.05 157.833" stroke="url(#paint13_linear_518_2497)" stroke-miterlimit="10"/>
    <path d="M-5.7659 152.029C57.7503 152.029 123.694 160.548 186.405 153.313C272.685 143.357 349.647 119.709 434.664 107.784C582.324 87.0548 659.353 163.582 789.059 178.228C858.974 186.132 925.32 153.823 981.755 138.14C1013.39 129.364 1049.01 121.371 1085.89 126.182C1121 130.762 1152.27 140.779 1181.52 151.004C1234.82 169.654 1294.44 197.838 1365.17 194.695C1451.83 190.855 1517.12 154.701 1605.08 152.029" stroke="url(#paint14_linear_518_2497)" stroke-miterlimit="10"/>
    <path d="M-5.74182 146.313C58.3896 146.544 124.445 156.461 187.905 149.012C271.613 139.188 345.633 115.485 427.998 103.664C572.604 82.9187 660.675 155.776 788.289 171.469C856.995 179.928 919.359 149.051 974.765 133.67C1006.27 124.926 1040.33 117.987 1076.68 123.017C1112.27 127.954 1144.33 137.718 1174.76 147.729C1229.77 165.83 1291.65 192.659 1362.69 189.445C1450.2 185.49 1516.31 149.073 1605.12 146.313" stroke="url(#paint15_linear_518_2497)" stroke-miterlimit="10"/>
    <path d="M-5.71994 140.718C59.0491 141.185 125.239 152.55 189.493 144.915C270.639 135.271 341.628 111.542 421.443 99.8796C562.984 79.1942 661.95 148.069 787.494 164.81C854.97 173.806 913.095 144.448 967.528 129.369C998.916 120.675 1031.29 114.849 1067.09 120.044C1103.16 125.304 1136.05 134.854 1167.69 144.618C1224.47 162.172 1288.63 187.602 1360.02 184.316C1448.4 180.241 1515.38 143.549 1605.07 140.696" stroke="url(#paint16_linear_518_2497)" stroke-miterlimit="10"/>
    <path d="M-5.69806 135.244C59.6974 135.952 126.077 148.771 191.182 140.976C269.822 131.552 337.88 107.811 415.122 96.347C553.654 75.7822 663.202 140.521 786.688 158.266C852.945 167.789 906.707 139.994 960.211 125.206C991.466 116.566 1022.26 111.887 1057.47 117.268C1094.04 122.863 1127.79 132.172 1160.61 141.695C1219.18 158.699 1285.6 182.725 1357.44 179.357C1446.74 175.167 1514.55 138.217 1605.14 135.244" stroke="url(#paint17_linear_518_2497)" stroke-miterlimit="10"/>
    <path d="M-5.67618 129.896C60.3234 130.839 126.927 145.079 192.781 137.153C269.005 127.976 334.188 104.24 408.969 93.0009C544.76 72.5953 664.465 133.121 785.949 151.859C850.998 161.897 900.386 135.666 953.018 121.141C984.138 112.556 1013.42 109.024 1047.96 114.558C1085.04 120.494 1119.64 129.588 1153.63 138.848C1213.92 155.271 1282.56 177.942 1354.89 174.503C1445.08 170.197 1513.73 132.946 1605.21 129.907" stroke="url(#paint18_linear_518_2497)" stroke-miterlimit="10"/>
    <path d="M-5.6543 124.663C61.0053 125.831 127.765 141.437 194.425 133.401C268.356 124.487 330.787 100.768 403.241 89.7701C536.426 69.5509 665.707 125.875 785.155 145.606C849.118 156.171 894.088 131.393 945.992 117.159C977.012 108.656 1004.77 106.188 1038.72 111.882C1076.28 118.157 1111.72 127.071 1146.82 136.061C1208.76 151.92 1279.51 173.258 1352.35 169.731C1443.39 165.315 1512.85 127.795 1605.16 124.663" stroke="url(#paint19_linear_518_2497)" stroke-miterlimit="10"/>
    <path d="M-5.63025 119.556C61.6557 120.916 128.606 137.806 196.015 129.687C267.832 121.042 327.679 97.3234 397.963 86.583C466.144 76.1608 538.676 87.9269 602.36 100.499C663.773 112.628 722.155 128.535 784.485 139.534C847.643 150.68 887.925 127.071 939.439 113.204C1007.84 94.8001 1077.9 118.14 1140.51 133.275C1203.95 148.59 1276.7 168.655 1350.01 165.052C1441.86 160.543 1512.08 122.759 1605.21 119.55" stroke="url(#paint20_linear_518_2497)" stroke-miterlimit="10"/>
    <path d="M-5.60837 114.564C62.3041 116.084 129.266 134.141 197.536 125.963C267.44 117.581 324.904 93.8787 393.297 83.3742C460.852 72.9849 535.297 84.2683 599.283 95.7821C661.938 107.06 721.572 121.953 783.892 133.67C846.211 145.387 882.611 122.935 933.465 109.265C1000.31 91.3006 1073.29 116.396 1134.82 130.466C1199.59 145.277 1274.18 164.125 1347.9 160.471C1440.46 155.88 1511.37 117.844 1605.18 114.564" stroke="url(#paint21_linear_518_2497)" stroke-miterlimit="10"/>
    <path d="M-5.58649 109.698C62.9636 111.344 129.869 130.411 198.934 122.183C267.171 114.059 322.521 90.3679 389.102 80.0663C456.142 69.7264 532.288 80.5491 596.564 91.1084C660.327 101.591 721.158 115.59 783.377 128.025C812.73 133.889 834.241 134.13 862.621 126.566C885.687 120.417 905.196 111.487 928.229 105.294C958.958 97.0217 983.434 97.2521 1015.62 103.401C1054.29 110.801 1091.96 119.309 1129.91 127.575C1195.76 141.881 1271.97 159.632 1346.03 155.946C1439.23 151.305 1510.74 113.017 1605.22 109.698" stroke="url(#paint22_linear_518_2497)" stroke-miterlimit="10"/>
    <path d="M-5.56461 104.948C63.6231 106.594 130.327 126.572 200.197 118.316C267.081 110.412 320.54 86.6325 385.779 76.5942C452.472 66.3311 530.016 76.7039 594.55 86.4679C659.084 96.2319 721.046 109.507 783.063 122.672C811.722 128.755 832.675 129.616 860.808 122.09C883.114 116.122 901.728 107.312 923.978 101.3C954.539 93.0394 978.634 93.9171 1010.26 100.269C1049.12 108.075 1087.38 116.566 1126.04 124.602C1192.72 138.458 1270.42 155.222 1344.58 151.525C1438.3 146.857 1510.29 108.338 1605.23 104.998" stroke="url(#paint23_linear_518_2497)" stroke-miterlimit="10"/>
    <path d="M-5.54053 100.329C64.2959 101.931 130.62 122.6 201.273 114.323C267.161 106.594 318.954 82.6335 383.286 72.8915C449.89 62.7929 528.273 72.694 593.21 81.7614C658.672 90.8945 721.171 103.615 782.93 117.504C811.008 123.812 831.725 125.14 859.647 117.614C881.348 111.772 899.213 103.017 920.847 97.1205C951.263 88.832 975.336 90.176 1006.48 96.7694C1045.4 104.997 1084.1 113.511 1123.35 121.377C1190.47 134.833 1269.47 150.729 1343.58 147.059C1437.67 142.397 1510 103.659 1605.34 100.329" stroke="url(#paint24_linear_518_2497)" stroke-miterlimit="10"/>
    <path d="M-5.51865 95.8259C64.9555 97.2795 130.709 118.448 202.145 110.148C267.35 102.573 318.025 78.5085 381.586 68.8816C447.977 58.8324 527.389 68.5196 592.493 77.022C658.627 85.6614 721.405 98.0365 782.874 112.677C810.493 119.259 831.322 120.85 859.098 113.275C880.352 107.477 897.657 98.7167 918.878 92.8638C949.182 84.504 973.59 86.0838 1004.36 92.979C1043.2 101.679 1082.2 110.252 1121.89 117.987C1189.21 131.102 1269.12 146.286 1342.93 142.671C1437.24 138.058 1509.75 99.1116 1605.32 95.8259" stroke="url(#paint25_linear_518_2497)" stroke-miterlimit="10"/>
    <path d="M-5.48584 91.4378C65.3462 92.7433 130.641 114.142 202.513 105.766C267.495 98.1958 317.867 74.1533 381.227 64.5813C447.551 54.565 527.321 64.4497 592.448 72.771C658.816 81.2514 721.393 93.5332 782.94 108.24C810.459 114.822 831.579 116.193 859.164 108.667C880.273 102.908 897.466 94.2244 918.575 88.4482C948.778 80.1872 973.634 81.7232 1004.12 88.8158C1042.79 97.8118 1081.83 106.451 1121.69 114.109C1188.68 126.983 1269.64 141.997 1342.87 138.245C1437.05 133.428 1510.03 95.1404 1605.35 91.4542" stroke="url(#paint26_linear_518_2497)" stroke-miterlimit="10"/>
    <path d="M-5.46396 87.1205C65.5247 88.3602 130.629 109.901 202.67 101.426C267.55 93.7908 318.18 69.9512 381.584 60.4396C447.908 50.4891 527.499 60.8071 592.526 69.1833C658.682 77.7076 720.99 89.9674 782.962 103.977C841.624 117.235 870.697 96.8461 919.011 84.131C949.214 76.1827 974.227 77.6308 1004.43 84.7508C1042.93 93.8291 1081.91 102.447 1121.75 110.017C1188.36 122.666 1270.36 137.751 1343.07 133.681C1436.85 128.426 1510.72 91.6953 1605.41 87.2028" stroke="url(#paint27_linear_518_2497)" stroke-miterlimit="10"/>
    <path d="M-5.43988 82.8694C65.7613 84.0652 130.709 105.765 202.973 97.2192C267.854 89.5397 318.685 65.9525 382.123 56.5286C448.447 46.6549 527.803 57.3678 592.729 65.7715C658.628 74.3012 720.701 86.5062 783.031 99.8083C841.2 112.227 871.314 92.2001 919.661 80.0609C949.865 72.4582 975.101 73.8624 1005.04 80.9934C1043.36 90.1211 1082.22 98.6728 1122.06 106.111C1188.39 118.503 1271.22 133.428 1343.32 129.084C1436.63 123.467 1511.41 88.3329 1605.4 83.1272" stroke="url(#paint28_linear_518_2497)" stroke-miterlimit="10"/>
    <path d="M-5.418 78.695C66.0293 79.8579 130.877 101.734 203.409 93.149C268.212 85.4804 319.345 62.162 382.827 52.8369C449.151 43.1277 528.25 54.1095 593.053 62.5186C658.638 71.021 720.577 83.1327 783.131 95.6997C840.887 107.29 872.029 87.7075 920.5 76.1333C950.781 68.9091 976.208 70.3133 1005.92 77.4389C1044.03 86.583 1082.81 95.036 1122.58 102.299C1188.75 114.394 1272.08 128.952 1343.69 124.383C1436.54 118.464 1512.18 84.9813 1605.45 79.1338" stroke="url(#paint29_linear_518_2497)" stroke-miterlimit="10"/>
    <path d="M-5.39612 74.592C66.3532 75.7439 131.078 97.7897 203.979 89.1996C268.726 81.5749 320.172 58.5198 383.71 49.3811C450.012 39.842 528.708 51.0706 593.488 59.4523C658.716 67.8998 720.465 79.8854 783.276 91.6954C840.595 102.474 872.834 83.407 921.529 72.4582C951.911 65.6234 977.539 67.077 1007.06 74.1806C1044.87 83.3712 1083.68 91.5491 1123.3 98.6784C1189.41 110.439 1272.97 124.46 1344.17 119.682C1436.41 113.522 1512.99 81.7285 1605.44 75.327" stroke="url(#paint30_linear_518_2497)" stroke-miterlimit="10"/>
    <path d="M-5.36331 70.5658C66.7104 71.7177 131.412 93.9555 204.672 85.3763C269.363 77.812 321.156 55.0641 384.772 46.1119C451.052 36.7867 529.412 48.1909 594.069 56.5341C658.95 64.8939 720.531 76.7149 783.488 87.757C840.382 97.7404 873.784 79.2382 922.769 68.9531C953.297 62.5406 979.115 64.0766 1008.47 71.1472C1046.05 80.2769 1084.72 88.3016 1124.25 95.1787C1190.39 106.572 1273.94 119.83 1344.76 114.926C1436.41 108.58 1513.86 78.5251 1605.51 71.6245" stroke="url(#paint31_linear_518_2497)" stroke-miterlimit="10"/>
    <path d="M-5.33923 66.6273C67.1037 67.7847 131.794 90.2145 205.468 81.7011C270.114 74.23 322.276 51.8112 385.915 43.073C452.161 33.9782 530.107 45.5195 594.709 53.7915C659.108 62.0196 720.667 73.6541 783.691 83.9118C840.182 93.1108 874.815 75.2394 924.136 65.6509C954.831 59.6828 980.851 61.3339 1010.08 68.3936C1047.41 77.436 1085.9 85.2802 1125.3 91.8765C1191.56 102.847 1274.85 115.222 1345.37 110.203C1436.38 103.73 1514.66 75.4478 1605.49 68.1248" stroke="url(#paint32_linear_518_2497)" stroke-miterlimit="10"/>
    <path d="M-5.31735 62.7655C67.5283 63.9504 132.275 86.5941 206.373 78.1246C270.975 70.7852 323.517 48.7229 387.223 40.2206C453.424 31.3891 530.946 43.0126 595.402 51.1914C659.354 59.3097 720.846 70.6809 783.892 80.1487C839.992 88.5688 875.922 71.3721 925.612 62.5187C956.498 57.0333 982.718 58.8106 1011.86 65.8099C1048.94 74.7451 1087.27 82.3798 1126.55 88.6566C1193.02 99.205 1275.85 110.532 1346.11 105.425C1436.46 98.843 1515.55 72.3979 1605.52 64.6964" stroke="url(#paint33_linear_518_2497)" stroke-miterlimit="10"/>
    <path d="M-5.29547 58.9915C67.9864 60.2093 132.722 83.0724 207.369 74.7182C271.925 67.4884 324.881 45.7992 388.655 37.5601C454.8 29.0194 531.84 40.6813 596.207 48.7558C659.712 56.7261 721.147 67.8121 784.138 76.479C839.857 84.1585 877.163 67.664 927.245 59.573C958.343 54.5539 984.765 56.5231 1013.84 63.4128C1050.66 72.2125 1088.81 79.6139 1127.94 85.5518C1194.67 95.6175 1276.82 105.776 1346.88 100.609C1436.56 94.0267 1516.4 69.3973 1605.52 61.3777" stroke="url(#paint34_linear_518_2497)" stroke-miterlimit="10"/>
    <path d="M-5.27362 55.3109C68.4669 56.5726 133.27 79.6551 208.386 71.416C272.976 64.3564 326.346 43.0401 390.198 35.0863C456.276 26.8582 532.779 38.5147 597.146 46.4685C660.181 54.2687 721.572 65.0365 784.495 72.8971C839.834 79.8142 878.595 64.0876 929.09 56.7975C960.412 52.2775 987.024 54.4388 1016.08 61.2955C1052.63 69.9408 1090.59 77.0835 1129.55 82.6501C1196.53 92.2002 1277.86 101.108 1347.76 95.8809C1436.74 89.26 1517.29 66.5505 1605.56 58.2566" stroke="url(#paint35_linear_518_2497)" stroke-miterlimit="10"/>
    <path d="M-5.24954 51.7399C68.9496 53.04 133.831 76.3419 209.607 68.24C274.096 61.3394 327.914 40.44 391.833 32.7879C457.832 24.8834 533.81 36.5125 598.031 44.3072C660.608 51.9209 721.954 62.3322 784.743 69.3919C839.735 75.5794 880.028 60.6153 930.915 54.1645C962.461 50.1546 989.286 52.5189 1018.35 59.3262C1054.63 67.7986 1092.38 74.6626 1131.15 79.8361C1198.57 88.8321 1278.89 96.3471 1348.68 91.1305C1436.96 84.5481 1518.15 63.7474 1605.59 55.2177" stroke="url(#paint36_linear_518_2497)" stroke-miterlimit="10"/>
    <path d="M-5.22766 48.2292C69.5084 49.6061 134.512 73.1329 210.826 65.1846C275.304 58.4759 329.591 37.9935 393.555 30.6595C459.499 23.1061 534.906 34.6693 599.037 42.3324C661.144 49.7542 722.445 59.7705 785.067 66.0293C839.734 71.5147 881.616 57.3569 932.883 51.7673C964.664 48.2841 991.69 50.9006 1020.8 57.6147C1056.8 65.8971 1094.34 72.464 1132.91 77.225C1200.74 85.6286 1279.94 91.701 1349.64 86.4789C1437.23 79.9238 1519 61.1089 1605.61 52.3817" stroke="url(#paint37_linear_518_2497)" stroke-miterlimit="10"/>
    <path d="M-5.20578 44.8337C70.0673 46.2819 135.183 70.0336 212.134 62.2608C276.556 55.7497 331.28 35.7005 395.356 28.7012C461.21 21.5044 536.035 32.9853 600.066 40.4783C661.725 47.6916 722.948 57.2856 785.368 62.7435C839.756 67.4994 883.26 54.1973 934.919 49.4414C966.923 46.4958 994.139 49.3701 1023.35 56.0239C1059.07 64.1003 1096.39 70.3501 1134.73 74.6742C1202.97 82.4416 1280.96 87.0054 1350.63 81.8053C1437.53 75.327 1519.82 58.4978 1605.63 49.595" stroke="url(#paint38_linear_518_2497)" stroke-miterlimit="10"/>
    <path d="M-5.1839 41.5425C70.6149 43.0674 135.899 67.044 213.442 59.4577C277.876 53.155 333.058 33.5502 397.212 26.8965C462.977 20.0781 537.209 31.4439 601.195 38.7614C662.418 45.7662 723.552 54.8994 785.77 59.562C839.924 63.6157 885.083 51.1803 937.111 47.3021C969.35 44.894 996.757 48.0426 1026.08 54.5977C1061.52 62.4652 1098.63 68.3923 1136.72 72.2716C1205.42 79.3642 1282.08 82.3702 1351.72 77.2085C1437.86 70.8125 1520.64 56.0129 1605.65 46.962" stroke="url(#paint39_linear_518_2497)" stroke-miterlimit="10"/>
    <path d="M-5.16202 38.3555C71.1849 39.9627 136.636 64.1368 214.818 56.7809C279.251 50.6976 334.892 31.5372 399.124 25.2454C464.8 18.8275 538.428 30.0506 602.336 37.1816C663.145 43.9671 724.167 52.612 786.117 56.4847C840.08 59.8582 886.883 48.306 939.247 45.3055C971.687 43.4459 999.306 46.8798 1028.74 53.3526C1063.91 60.9963 1100.79 66.5841 1138.62 70.0007C1207.75 76.3802 1283.06 77.801 1352.71 72.6776C1438.21 66.3913 1521.32 53.6378 1605.6 44.4553" stroke="url(#paint40_linear_518_2497)" stroke-miterlimit="10"/>
    <path d="M-5.13794 35.2837C71.7683 36.9732 137.41 61.3942 216.218 54.2302C280.64 48.3663 336.773 29.6666 401.084 23.7644C466.647 17.7304 539.66 28.8274 603.557 35.7609C663.963 42.3434 724.851 50.4563 786.543 53.5446C840.406 56.2434 888.809 45.5907 941.575 43.4734C974.251 42.1624 1001.98 45.8979 1031.69 52.2829C1066.59 59.6989 1103.25 64.9399 1140.8 67.8834C1298.53 80.6588 1453.09 59.1067 1605.75 42.102" stroke="url(#paint41_linear_518_2497)" stroke-miterlimit="10"/>
    <path d="M-5.11609 32.3107C72.3607 34.0935 138.192 58.7284 217.649 51.7894C282.071 46.1613 338.686 27.9279 403.074 22.3712C468.526 16.7213 540.924 27.6811 604.686 34.4116C664.746 40.7692 725.454 48.3555 786.868 50.6429C840.719 52.667 890.643 42.9634 943.801 41.7017C976.667 40.9338 1004.63 44.993 1034.51 51.2847C1069.01 58.5967 1105.65 63.2593 1142.84 65.8374C1296.55 76.4956 1456.87 56.7098 1605.72 39.8202" stroke="url(#paint42_linear_518_2497)" stroke-miterlimit="10"/>
    <path d="M-5.09421 29.4582C72.9531 31.3342 138.986 56.183 219.092 49.4744C283.525 44.0603 340.609 26.3151 405.076 21.1314C470.416 15.8819 542.188 26.6936 605.883 33.1993C665.618 39.3155 726.114 46.3642 787.247 47.9056C841.199 49.266 892.533 40.4784 946.094 40.1108C979.149 39.8859 1007.29 44.2633 1037.41 50.4782C1071.68 57.5489 1108.07 61.8111 1144.95 63.9284C1215.22 67.9602 1286.46 64.5263 1356.14 59.595C1439.75 53.6762 1523.48 47.1815 1605.74 37.6534" stroke="url(#paint43_linear_518_2497)" stroke-miterlimit="10"/>
    <path d="M-5.07233 26.721C72.8743 28.6574 138.818 53.5501 218.845 47.4174C283.021 42.4806 340.217 25.4265 404.181 20.2538C468.838 15.0262 539.167 25.399 602.303 31.6634C663.335 37.6973 725.162 44.4388 787.638 45.2836C843.1 46.0351 897.142 37.7302 952.481 38.7011C985.883 39.2881 1013.73 44.6418 1044.34 50.588C1076.15 56.7645 1109.73 60.3026 1143.69 61.9756C1215.98 65.5357 1287.67 60.2861 1359.09 55.3328C1441.54 49.6171 1524.72 45.2178 1605.8 35.6622" stroke="url(#paint44_linear_518_2497)" stroke-miterlimit="10"/>
    <path d="M-5.06137 24.1044C73.4222 26.134 139.634 51.2352 220.254 45.3384C284.442 40.6429 342.096 24.0386 406.161 19.2444C470.684 14.4392 540.453 24.664 603.499 30.7253C664.241 36.5727 725.833 42.7932 787.985 42.7932C843.771 42.7932 899.009 35.5909 954.807 37.4285C988.254 38.5255 1016.33 44.1865 1047.18 50.0065C1078.77 55.9636 1112.13 59.1287 1145.8 60.3793C1218.32 63.0727 1288.78 56.1446 1360.19 51.3284C1442.1 45.8046 1525.27 43.4514 1605.78 33.7752" stroke="url(#paint45_linear_518_2497)" stroke-miterlimit="10"/>
    <path d="M-5.03732 21.6141C74.0391 23.737 140.385 49.0411 221.688 43.3747C285.898 38.8986 344 22.7606 408.153 18.3393C472.542 13.8907 541.763 24.0441 604.776 29.908C665.183 35.5415 726.54 41.2024 788.367 40.4016C844.556 39.672 900.879 33.5503 957.147 36.2437C990.639 37.8509 1018.94 43.8135 1049.99 49.5073C1081.32 55.2505 1114.52 58.0426 1147.87 58.8709C1220.59 60.6866 1289.87 52.1129 1361.27 47.4284C1442.66 42.0856 1525.7 41.7894 1605.74 31.9925" stroke="url(#paint46_linear_518_2497)" stroke-miterlimit="10"/>
    <path d="M-5.01544 19.25C74.6091 21.4441 141.235 46.9622 223.108 41.5316C287.329 37.2695 345.878 21.5703 410.133 17.544C474.387 13.5177 543.049 23.5341 605.894 29.195C666.155 34.6255 727.222 39.7544 788.713 38.1471C845.394 36.6661 902.68 31.6415 959.417 35.1795C992.976 37.2695 1021.48 43.5557 1052.82 49.1179C1084.17 54.6801 1116.94 57.0717 1149.99 57.4886C1222.7 58.4157 1291.07 48.2348 1362.38 43.6819C1443.31 38.5147 1526.29 40.27 1605.79 30.3304" stroke="url(#paint47_linear_518_2497)" stroke-miterlimit="10"/>
    <path d="M-5.00449 17.0119C75.1682 19.3157 142.029 44.9874 224.484 39.8092C288.738 35.7555 347.713 20.5335 412.057 16.8473C476.132 13.1776 544.369 23.1281 607.102 28.597C667.184 33.8301 727.915 38.4214 789.104 36.0242C846.345 33.7807 904.481 29.8477 961.721 34.2141C995.18 36.7703 1024.02 43.3856 1055.59 48.8217C1086.57 54.1535 1119.35 56.205 1152.03 56.2214C1224.75 56.2653 1292.24 44.5266 1363.46 40.0944C1444 35.0807 1526.78 38.8821 1605.79 28.7835" stroke="url(#paint48_linear_518_2497)" stroke-miterlimit="10"/>
    <path d="M-4.99356 14.9109C75.7161 17.2915 142.778 43.1771 225.826 38.1964C290.114 34.3566 349.514 19.546 413.936 16.2548C477.944 12.9636 545.499 22.8373 608.243 28.1142C668.202 33.1388 728.631 37.2145 789.462 34.0384C847.318 31.0215 906.203 28.1801 963.969 33.3583C997.417 36.3478 1026.5 43.2978 1058.3 48.6076C1089.14 53.7529 1121.64 55.437 1154.03 55.0639C1226.63 54.2357 1293.42 40.9939 1364.53 36.6659C1444.61 31.7949 1527.18 37.6423 1605.82 27.3408" stroke="url(#paint49_linear_518_2497)" stroke-miterlimit="10"/>
    <path d="M-4.97168 12.9417C76.2413 15.4046 143.539 41.4657 227.134 36.7044C291.456 33.0346 351.303 18.7013 415.759 15.7227C479.633 12.7716 546.639 22.6288 609.35 27.7083C669.197 32.541 729.324 36.1065 789.808 32.1679C848.313 28.3611 907.925 26.5948 966.094 32.5684C999.508 35.9967 1028.84 43.2759 1060.92 48.476C1091.57 53.4129 1123.9 54.7732 1156.01 54.0217C1228.41 52.3377 1294.64 37.6588 1365.63 33.4241C1445.33 28.6683 1527.65 36.5453 1605.91 26.0408" stroke="url(#paint50_linear_518_2497)" stroke-miterlimit="10"/>
    <path d="M-4.95856 11.1096C76.7019 13.6494 144.245 39.8969 228.378 35.3276C292.733 31.8279 352.916 17.928 417.517 15.2785C481.279 12.6675 547.793 22.5083 610.403 27.4122C670.172 32.1022 729.997 35.1301 790.124 30.4456C849.311 25.8379 909.46 25.1248 968.132 31.8718C1001.48 35.7116 1031.09 43.3198 1063.38 48.3993C1093.88 53.1935 1126.03 54.1864 1157.8 53.0783C1229.95 50.5605 1295.71 34.5268 1366.57 30.3469C1445.99 25.6788 1527.98 35.5745 1605.89 24.8176" stroke="url(#paint51_linear_518_2497)" stroke-miterlimit="10"/>
    <path d="M-4.9476 9.42554C77.2274 12.0256 144.95 38.4487 229.552 34.0604C293.963 30.7253 354.515 17.2367 419.183 14.9109C482.845 12.6235 548.845 22.4643 611.399 27.2147C671.112 31.7511 730.645 34.2744 790.437 28.8603C850.228 23.4462 910.97 23.7643 970.101 31.2574C1003.37 35.4757 1033.27 43.3253 1065.74 48.3828C1095.95 53.0947 1128.14 53.6872 1159.52 52.2226C1231.38 48.9313 1296.78 31.603 1367.49 27.478C1446.56 22.8647 1528.31 34.7626 1605.89 23.715" stroke="url(#paint52_linear_518_2497)" stroke-miterlimit="10"/>
    <path d="M-4.88196 7.85669C77.7405 10.5116 145.608 37.1103 230.714 32.892C295.103 29.716 356.013 16.6333 420.759 14.6092C484.275 12.6235 549.85 22.4972 612.337 27.1104C672.016 31.4987 731.27 33.5448 790.715 27.4176C851.278 21.1807 912.378 22.4807 971.934 30.7088C1005.13 35.2836 1035.29 43.4295 1067.96 48.4157C1098.04 53.0069 1130.06 53.2702 1161.12 51.5094C1195 49.5841 1228.03 45.1738 1260.56 40.2808C1295.67 35.0094 1331.79 26.9678 1368.36 24.8395C1447.16 20.2482 1528.63 34.1207 1605.9 22.744" stroke="url(#paint53_linear_518_2497)" stroke-miterlimit="10"/>
    <path d="M-4.88196 6.48535C78.1433 9.18416 146.134 35.9529 231.732 31.8772C296.177 28.8054 357.411 16.0848 422.236 14.3624C485.651 12.6564 550.756 22.5905 613.187 27.0885C672.866 31.3781 731.886 32.9414 790.983 26.1231C852.206 19.0579 913.709 21.3014 973.701 30.2426C1006.76 35.1794 1037.17 43.5721 1070 48.487C1099.96 52.9686 1131.84 52.9356 1162.59 50.8731C1196.41 48.6132 1229.25 43.8189 1261.59 38.6133C1296.44 33.0072 1332.62 24.5487 1369.17 22.404C1447.73 17.8017 1528.95 33.6216 1605.91 21.8554" stroke="url(#paint54_linear_518_2497)" stroke-miterlimit="10"/>
    <path d="M-4.88196 5.24023C78.5236 7.98293 146.693 34.9107 232.661 30.9557C297.15 27.9827 358.675 15.646 423.556 14.1705C486.882 12.7278 551.55 22.777 613.937 27.1599C673.627 31.3452 732.434 32.4697 791.185 24.9657C853.112 17.0832 914.895 20.2099 975.312 29.8367C1008.24 35.0808 1038.88 43.7312 1071.88 48.5913C1101.72 52.9796 1133.41 52.6724 1163.94 50.3411C1197.67 47.763 1230.35 42.6067 1262.52 37.1158C1297.13 31.2081 1333.35 22.3766 1369.91 20.1989C1448.22 15.5363 1529.24 33.2816 1605.94 21.093" stroke="url(#paint55_linear_518_2497)" stroke-miterlimit="10"/>
    <path d="M-4.88196 4.14868C78.8704 6.89138 147.152 34.0057 233.488 30.1439C298.056 27.2531 359.894 15.2566 424.842 14.0224C488.101 12.8156 552.367 23.0129 614.686 27.308C674.399 31.4166 733.038 32.1242 791.431 23.9784C853.996 15.2511 915.935 19.2006 976.777 29.4638C1009.6 35.0095 1040.44 43.8849 1073.57 48.701C1103.31 53.018 1134.89 52.4695 1165.12 49.8914C1198.82 47.017 1231.31 41.5316 1263.34 35.7774C1297.76 29.5844 1334 20.4513 1370.6 18.2242C1448.75 13.4629 1529.57 33.0896 1605.94 20.4184" stroke="url(#paint56_linear_518_2497)" stroke-miterlimit="10"/>
    <path d="M-4.88196 3.21606C79.1948 5.95876 147.543 33.2431 234.215 29.4417C298.794 26.6113 360.912 14.9329 425.916 13.8906C489.108 12.8978 552.949 23.2761 615.268 27.5109C675.014 31.57 733.541 31.8992 791.599 23.1225C854.813 13.5615 916.785 18.257 978.075 29.1565C1010.75 34.971 1041.77 44.0493 1075.03 48.8326C1104.67 53.1002 1136.09 52.3432 1166.12 49.5457C1199.77 46.4025 1232.12 40.6209 1264.01 34.6254C1298.27 28.1801 1334.48 18.811 1371.19 16.5236C1449.17 11.6142 1529.89 33.0895 1605.95 19.8587" stroke="url(#paint57_linear_518_2497)" stroke-miterlimit="10"/>
    <path d="M-4.88196 2.43726C78.7809 5.17995 146.906 32.4643 233.074 28.9262C301.166 26.1341 366.986 13.5232 435.693 13.781C494.433 14.0005 553.374 23.4628 611.397 27.5329C673.045 31.8554 732.053 31.7347 791.755 22.4809C857.956 12.2451 919.984 17.6263 983.791 29.7984C1012.39 35.2509 1039.64 42.6891 1068.46 47.796C1098.95 53.1991 1132.44 52.6725 1163.81 49.672C1199.42 46.271 1233.5 39.7983 1267.09 33.2158C1300.94 26.5565 1336.92 17.182 1373.42 14.9878C1450.61 10.3746 1530.88 33.15 1605.94 19.4145" stroke="url(#paint58_linear_518_2497)" stroke-miterlimit="10"/>
    <path d="M-4.88196 1.82275C79.0158 4.52705 147.141 31.9924 233.544 28.4488C301.658 25.6513 367.781 13.3366 436.465 13.748C495.16 14.1045 553.799 23.8301 611.789 27.9058C673.482 32.2393 732.479 31.8114 791.889 21.9541C858.761 10.8517 920.465 16.8637 984.798 29.6337C1013.27 35.2836 1040.6 42.7877 1069.49 47.9C1099.92 53.3086 1133.25 52.6723 1164.45 49.5018C1200.04 45.8869 1233.99 39.1344 1267.47 32.3764C1301.27 25.5526 1337.25 16.0738 1373.84 13.7699C1450.88 8.95376 1531.24 33.4351 1605.95 19.0359" stroke="url(#paint59_linear_518_2497)" stroke-miterlimit="10"/>
    <path d="M-4.88196 1.38403C79.1836 4.04445 147.253 31.6744 233.902 28.0759C302.027 25.2455 368.295 13.1941 437.069 13.7371C495.741 14.1979 554.101 24.2362 612.069 28.3447C673.795 32.733 732.881 32.0364 791.912 21.5867C859.433 9.63955 920.644 16.1562 985.525 29.4637C1013.93 35.2837 1041.32 42.8646 1070.24 48.0373C1100.64 53.4733 1133.69 52.7876 1164.87 49.469C1236.89 41.7894 1301.43 17.747 1374.15 12.8979C1451.06 7.76903 1531.63 33.9014 1605.95 18.7782" stroke="url(#paint60_linear_518_2497)" stroke-miterlimit="10"/>
    <path d="M-4.88196 1.10498C79.3178 3.71054 147.364 31.505 234.115 27.8188C302.251 24.9171 368.743 13.1015 437.483 13.7323C496.167 14.2809 554.269 24.6702 612.214 28.8501C673.963 33.3042 733.25 32.4046 791.945 21.39C860.059 8.60351 920.588 15.4986 986.085 29.3438C1014.25 35.2845 1041.71 43.156 1070.7 48.1258C1101.48 53.3972 1133.53 52.9694 1165.04 49.5026C1237.2 41.5597 1301.37 17.4953 1374.35 12.2952C1451.16 6.80979 1532.08 34.5384 1605.91 18.6143" stroke="url(#paint61_linear_518_2497)" stroke-miterlimit="10"/>
    <path d="M-4.88196 1C79.4073 3.52877 147.331 31.4878 234.171 27.6645C302.307 24.664 368.888 13.0459 437.762 13.7261C496.457 14.3076 554.336 25.1357 612.27 29.4143C674.018 33.9727 733.619 32.925 791.968 21.3563C860.607 7.73606 920.286 14.878 986.409 29.2498C1046.82 42.3708 1096.58 57.3075 1164.99 49.617C1237.33 41.4822 1301.2 17.6207 1374.44 12.0037C1451.16 6.11787 1532.5 35.344 1606 18.5862" stroke="url(#paint62_linear_518_2497)" stroke-miterlimit="10"/>
    <defs>
        <linearGradient id="paint0_linear_518_2497" x1="1.16131e+06" y1="3779.89" x2="1.16131e+06" y2="1184.2" gradientUnits="userSpaceOnUse">
            <stop stop-color="#592CB8"/>
            <stop offset="1" stop-color="#2C66B8"/>
        </linearGradient>
        <linearGradient id="paint1_linear_518_2497" x1="1.16129e+06" y1="4777.37" x2="1.16129e+06" y2="1444.38" gradientUnits="userSpaceOnUse">
            <stop stop-color="#592CB8"/>
            <stop offset="1" stop-color="#2C66B8"/>
        </linearGradient>
        <linearGradient id="paint2_linear_518_2497" x1="1.16132e+06" y1="5777.85" x2="1.16132e+06" y2="1705.48" gradientUnits="userSpaceOnUse">
            <stop stop-color="#592CB8"/>
            <stop offset="1" stop-color="#2C66B8"/>
        </linearGradient>
        <linearGradient id="paint3_linear_518_2497" x1="1.16129e+06" y1="6728.87" x2="1.16129e+06" y2="1953.53" gradientUnits="userSpaceOnUse">
            <stop stop-color="#592CB8"/>
            <stop offset="1" stop-color="#2C66B8"/>
        </linearGradient>
        <linearGradient id="paint4_linear_518_2497" x1="1.16131e+06" y1="7672.27" x2="1.16131e+06" y2="2199.34" gradientUnits="userSpaceOnUse">
            <stop stop-color="#592CB8"/>
            <stop offset="1" stop-color="#2C66B8"/>
        </linearGradient>
        <linearGradient id="paint5_linear_518_2497" x1="1.16131e+06" y1="8396.76" x2="1.16131e+06" y2="2387.24" gradientUnits="userSpaceOnUse">
            <stop stop-color="#592CB8"/>
            <stop offset="1" stop-color="#2C66B8"/>
        </linearGradient>
        <linearGradient id="paint6_linear_518_2497" x1="1.16131e+06" y1="8933.38" x2="1.16131e+06" y2="2525.21" gradientUnits="userSpaceOnUse">
            <stop stop-color="#592CB8"/>
            <stop offset="1" stop-color="#2C66B8"/>
        </linearGradient>
        <linearGradient id="paint7_linear_518_2497" x1="1.16134e+06" y1="9219.6" x2="1.16134e+06" y2="2596.56" gradientUnits="userSpaceOnUse">
            <stop stop-color="#592CB8"/>
            <stop offset="1" stop-color="#2C66B8"/>
        </linearGradient>
        <linearGradient id="paint8_linear_518_2497" x1="1.16131e+06" y1="9346.35" x2="1.16131e+06" y2="2625.2" gradientUnits="userSpaceOnUse">
            <stop stop-color="#592CB8"/>
            <stop offset="1" stop-color="#2C66B8"/>
        </linearGradient>
        <linearGradient id="paint9_linear_518_2497" x1="1.16129e+06" y1="9474.83" x2="1.16129e+06" y2="2654.3" gradientUnits="userSpaceOnUse">
            <stop stop-color="#592CB8"/>
            <stop offset="1" stop-color="#2C66B8"/>
        </linearGradient>
        <linearGradient id="paint10_linear_518_2497" x1="1.16129e+06" y1="9547.3" x2="1.16129e+06" y2="2668.84" gradientUnits="userSpaceOnUse">
            <stop stop-color="#592CB8"/>
            <stop offset="1" stop-color="#2C66B8"/>
        </linearGradient>
        <linearGradient id="paint11_linear_518_2497" x1="1.16133e+06" y1="9567.75" x2="1.16133e+06" y2="2669.84" gradientUnits="userSpaceOnUse">
            <stop stop-color="#592CB8"/>
            <stop offset="1" stop-color="#2C66B8"/>
        </linearGradient>
        <linearGradient id="paint12_linear_518_2497" x1="1.16131e+06" y1="9542.65" x2="1.16131e+06" y2="2659.01" gradientUnits="userSpaceOnUse">
            <stop stop-color="#592CB8"/>
            <stop offset="1" stop-color="#2C66B8"/>
        </linearGradient>
        <linearGradient id="paint13_linear_518_2497" x1="1.16131e+06" y1="9476.28" x2="1.16131e+06" y2="2637.47" gradientUnits="userSpaceOnUse">
            <stop stop-color="#592CB8"/>
            <stop offset="1" stop-color="#2C66B8"/>
        </linearGradient>
        <linearGradient id="paint14_linear_518_2497" x1="1.16132e+06" y1="9324.65" x2="1.16132e+06" y2="2593.67" gradientUnits="userSpaceOnUse">
            <stop stop-color="#592CB8"/>
            <stop offset="1" stop-color="#2C66B8"/>
        </linearGradient>
        <linearGradient id="paint15_linear_518_2497" x1="1.16133e+06" y1="9223.04" x2="1.16133e+06" y2="2563.12" gradientUnits="userSpaceOnUse">
            <stop stop-color="#592CB8"/>
            <stop offset="1" stop-color="#2C66B8"/>
        </linearGradient>
        <linearGradient id="paint16_linear_518_2497" x1="1.16128e+06" y1="9100.37" x2="1.16128e+06" y2="2527.13" gradientUnits="userSpaceOnUse">
            <stop stop-color="#592CB8"/>
            <stop offset="1" stop-color="#2C66B8"/>
        </linearGradient>
        <linearGradient id="paint17_linear_518_2497" x1="1.16131e+06" y1="8970.16" x2="1.16131e+06" y2="2489.28" gradientUnits="userSpaceOnUse">
            <stop stop-color="#592CB8"/>
            <stop offset="1" stop-color="#2C66B8"/>
        </linearGradient>
        <linearGradient id="paint18_linear_518_2497" x1="1.16134e+06" y1="8832.49" x2="1.16134e+06" y2="2449.56" gradientUnits="userSpaceOnUse">
            <stop stop-color="#592CB8"/>
            <stop offset="1" stop-color="#2C66B8"/>
        </linearGradient>
        <linearGradient id="paint19_linear_518_2497" x1="1.16129e+06" y1="8693.01" x2="1.16129e+06" y2="2409.42" gradientUnits="userSpaceOnUse">
            <stop stop-color="#592CB8"/>
            <stop offset="1" stop-color="#2C66B8"/>
        </linearGradient>
        <linearGradient id="paint20_linear_518_2497" x1="1.16131e+06" y1="8511.4" x2="1.16131e+06" y2="2358.28" gradientUnits="userSpaceOnUse">
            <stop stop-color="#592CB8"/>
            <stop offset="1" stop-color="#2C66B8"/>
        </linearGradient>
        <linearGradient id="paint21_linear_518_2497" x1="1.16128e+06" y1="8381.43" x2="1.16128e+06" y2="2320.78" gradientUnits="userSpaceOnUse">
            <stop stop-color="#592CB8"/>
            <stop offset="1" stop-color="#2C66B8"/>
        </linearGradient>
        <linearGradient id="paint22_linear_518_2497" x1="1.16129e+06" y1="8265.59" x2="1.16129e+06" y2="2287.03" gradientUnits="userSpaceOnUse">
            <stop stop-color="#592CB8"/>
            <stop offset="1" stop-color="#2C66B8"/>
        </linearGradient>
        <linearGradient id="paint23_linear_518_2497" x1="1.16128e+06" y1="8174.56" x2="1.16128e+06" y2="2259.88" gradientUnits="userSpaceOnUse">
            <stop stop-color="#592CB8"/>
            <stop offset="1" stop-color="#2C66B8"/>
        </linearGradient>
        <linearGradient id="paint24_linear_518_2497" x1="1.16134e+06" y1="8096.02" x2="1.16134e+06" y2="2235.96" gradientUnits="userSpaceOnUse">
            <stop stop-color="#592CB8"/>
            <stop offset="1" stop-color="#2C66B8"/>
        </linearGradient>
        <linearGradient id="paint25_linear_518_2497" x1="1.16131e+06" y1="8057.07" x2="1.16131e+06" y2="2222.5" gradientUnits="userSpaceOnUse">
            <stop stop-color="#592CB8"/>
            <stop offset="1" stop-color="#2C66B8"/>
        </linearGradient>
        <linearGradient id="paint26_linear_518_2497" x1="1.16131e+06" y1="8038.38" x2="1.16131e+06" y2="2214.35" gradientUnits="userSpaceOnUse">
            <stop stop-color="#592CB8"/>
            <stop offset="1" stop-color="#2C66B8"/>
        </linearGradient>
        <linearGradient id="paint27_linear_518_2497" x1="1.16134e+06" y1="7986.94" x2="1.16134e+06" y2="2197.54" gradientUnits="userSpaceOnUse">
            <stop stop-color="#592CB8"/>
            <stop offset="1" stop-color="#2C66B8"/>
        </linearGradient>
        <linearGradient id="paint28_linear_518_2497" x1="1.16131e+06" y1="7909.64" x2="1.16131e+06" y2="2173.91" gradientUnits="userSpaceOnUse">
            <stop stop-color="#592CB8"/>
            <stop offset="1" stop-color="#2C66B8"/>
        </linearGradient>
        <linearGradient id="paint29_linear_518_2497" x1="1.16134e+06" y1="7796.87" x2="1.16134e+06" y2="2140.88" gradientUnits="userSpaceOnUse">
            <stop stop-color="#592CB8"/>
            <stop offset="1" stop-color="#2C66B8"/>
        </linearGradient>
        <linearGradient id="paint30_linear_518_2497" x1="1.16131e+06" y1="7661.81" x2="1.16131e+06" y2="2102.01" gradientUnits="userSpaceOnUse">
            <stop stop-color="#592CB8"/>
            <stop offset="1" stop-color="#2C66B8"/>
        </linearGradient>
        <linearGradient id="paint31_linear_518_2497" x1="1.16134e+06" y1="7500.34" x2="1.16134e+06" y2="2056.14" gradientUnits="userSpaceOnUse">
            <stop stop-color="#592CB8"/>
            <stop offset="1" stop-color="#2C66B8"/>
        </linearGradient>
        <linearGradient id="paint32_linear_518_2497" x1="1.1613e+06" y1="7320.32" x2="1.1613e+06" y2="2005.43" gradientUnits="userSpaceOnUse">
            <stop stop-color="#592CB8"/>
            <stop offset="1" stop-color="#2C66B8"/>
        </linearGradient>
        <linearGradient id="paint33_linear_518_2497" x1="1.16131e+06" y1="7116.47" x2="1.16131e+06" y2="1948.44" gradientUnits="userSpaceOnUse">
            <stop stop-color="#592CB8"/>
            <stop offset="1" stop-color="#2C66B8"/>
        </linearGradient>
        <linearGradient id="paint34_linear_518_2497" x1="1.1613e+06" y1="6890.23" x2="1.1613e+06" y2="1885.54" gradientUnits="userSpaceOnUse">
            <stop stop-color="#592CB8"/>
            <stop offset="1" stop-color="#2C66B8"/>
        </linearGradient>
        <linearGradient id="paint35_linear_518_2497" x1="1.16131e+06" y1="6656.88" x2="1.16131e+06" y2="1820.86" gradientUnits="userSpaceOnUse">
            <stop stop-color="#592CB8"/>
            <stop offset="1" stop-color="#2C66B8"/>
        </linearGradient>
        <linearGradient id="paint36_linear_518_2497" x1="1.16131e+06" y1="6404.69" x2="1.16131e+06" y2="1751.22" gradientUnits="userSpaceOnUse">
            <stop stop-color="#592CB8"/>
            <stop offset="1" stop-color="#2C66B8"/>
        </linearGradient>
        <linearGradient id="paint37_linear_518_2497" x1="1.16131e+06" y1="6150.55" x2="1.16131e+06" y2="1681.18" gradientUnits="userSpaceOnUse">
            <stop stop-color="#592CB8"/>
            <stop offset="1" stop-color="#2C66B8"/>
        </linearGradient>
        <linearGradient id="paint38_linear_518_2497" x1="1.16131e+06" y1="5883.13" x2="1.16131e+06" y2="1607.68" gradientUnits="userSpaceOnUse">
            <stop stop-color="#592CB8"/>
            <stop offset="1" stop-color="#2C66B8"/>
        </linearGradient>
        <linearGradient id="paint39_linear_518_2497" x1="1.16131e+06" y1="5616.92" x2="1.16131e+06" y2="1534.62" gradientUnits="userSpaceOnUse">
            <stop stop-color="#592CB8"/>
            <stop offset="1" stop-color="#2C66B8"/>
        </linearGradient>
        <linearGradient id="paint40_linear_518_2497" x1="1.16125e+06" y1="5356.31" x2="1.16125e+06" y2="1463.19" gradientUnits="userSpaceOnUse">
            <stop stop-color="#592CB8"/>
            <stop offset="1" stop-color="#2C66B8"/>
        </linearGradient>
        <linearGradient id="paint41_linear_518_2497" x1="1.16135e+06" y1="5077.19" x2="1.16135e+06" y2="1386.88" gradientUnits="userSpaceOnUse">
            <stop stop-color="#592CB8"/>
            <stop offset="1" stop-color="#2C66B8"/>
        </linearGradient>
        <linearGradient id="paint42_linear_518_2497" x1="1.16131e+06" y1="4905.1" x2="1.16131e+06" y2="1339.52" gradientUnits="userSpaceOnUse">
            <stop stop-color="#592CB8"/>
            <stop offset="1" stop-color="#2C66B8"/>
        </linearGradient>
        <linearGradient id="paint43_linear_518_2497" x1="1.16131e+06" y1="4693.04" x2="1.16131e+06" y2="1281.49" gradientUnits="userSpaceOnUse">
            <stop stop-color="#592CB8"/>
            <stop offset="1" stop-color="#2C66B8"/>
        </linearGradient>
        <linearGradient id="paint44_linear_518_2497" x1="1.16134e+06" y1="4524.48" x2="1.16134e+06" y2="1235.31" gradientUnits="userSpaceOnUse">
            <stop stop-color="#592CB8"/>
            <stop offset="1" stop-color="#2C66B8"/>
        </linearGradient>
        <linearGradient id="paint45_linear_518_2497" x1="1.16131e+06" y1="4388.12" x2="1.16131e+06" y2="1197.89" gradientUnits="userSpaceOnUse">
            <stop stop-color="#592CB8"/>
            <stop offset="1" stop-color="#2C66B8"/>
        </linearGradient>
        <linearGradient id="paint46_linear_518_2497" x1="1.16127e+06" y1="4274.75" x2="1.16127e+06" y2="1166.73" gradientUnits="userSpaceOnUse">
            <stop stop-color="#592CB8"/>
            <stop offset="1" stop-color="#2C66B8"/>
        </linearGradient>
        <linearGradient id="paint47_linear_518_2497" x1="1.16129e+06" y1="4178.32" x2="1.16129e+06" y2="1140.24" gradientUnits="userSpaceOnUse">
            <stop stop-color="#592CB8"/>
            <stop offset="1" stop-color="#2C66B8"/>
        </linearGradient>
        <linearGradient id="paint48_linear_518_2497" x1="1.16128e+06" y1="4099.87" x2="1.16128e+06" y2="1118.65" gradientUnits="userSpaceOnUse">
            <stop stop-color="#592CB8"/>
            <stop offset="1" stop-color="#2C66B8"/>
        </linearGradient>
        <linearGradient id="paint49_linear_518_2497" x1="1.1613e+06" y1="4102.33" x2="1.1613e+06" y2="1118.48" gradientUnits="userSpaceOnUse">
            <stop stop-color="#592CB8"/>
            <stop offset="1" stop-color="#2C66B8"/>
        </linearGradient>
        <linearGradient id="paint50_linear_518_2497" x1="1.16134e+06" y1="4209.18" x2="1.16134e+06" y2="1145.89" gradientUnits="userSpaceOnUse">
            <stop stop-color="#592CB8"/>
            <stop offset="1" stop-color="#2C66B8"/>
        </linearGradient>
        <linearGradient id="paint51_linear_518_2497" x1="1.16132e+06" y1="4319.88" x2="1.16132e+06" y2="1174.44" gradientUnits="userSpaceOnUse">
            <stop stop-color="#592CB8"/>
            <stop offset="1" stop-color="#2C66B8"/>
        </linearGradient>
        <linearGradient id="paint52_linear_518_2497" x1="1.16131e+06" y1="4432.54" x2="1.16131e+06" y2="1203.63" gradientUnits="userSpaceOnUse">
            <stop stop-color="#592CB8"/>
            <stop offset="1" stop-color="#2C66B8"/>
        </linearGradient>
        <linearGradient id="paint53_linear_518_2497" x1="1.16127e+06" y1="4548.43" x2="1.16127e+06" y2="1233.77" gradientUnits="userSpaceOnUse">
            <stop stop-color="#592CB8"/>
            <stop offset="1" stop-color="#2C66B8"/>
        </linearGradient>
        <linearGradient id="paint54_linear_518_2497" x1="1.16128e+06" y1="4655.85" x2="1.16128e+06" y2="1261.77" gradientUnits="userSpaceOnUse">
            <stop stop-color="#592CB8"/>
            <stop offset="1" stop-color="#2C66B8"/>
        </linearGradient>
        <linearGradient id="paint55_linear_518_2497" x1="1.1613e+06" y1="4760.88" x2="1.1613e+06" y2="1289.22" gradientUnits="userSpaceOnUse">
            <stop stop-color="#592CB8"/>
            <stop offset="1" stop-color="#2C66B8"/>
        </linearGradient>
        <linearGradient id="paint56_linear_518_2497" x1="1.1613e+06" y1="4857.75" x2="1.1613e+06" y2="1314.58" gradientUnits="userSpaceOnUse">
            <stop stop-color="#592CB8"/>
            <stop offset="1" stop-color="#2C66B8"/>
        </linearGradient>
        <linearGradient id="paint57_linear_518_2497" x1="1.16131e+06" y1="4946.67" x2="1.16131e+06" y2="1337.9" gradientUnits="userSpaceOnUse">
            <stop stop-color="#592CB8"/>
            <stop offset="1" stop-color="#2C66B8"/>
        </linearGradient>
        <linearGradient id="paint58_linear_518_2497" x1="1.1613e+06" y1="5031.91" x2="1.1613e+06" y2="1360.35" gradientUnits="userSpaceOnUse">
            <stop stop-color="#592CB8"/>
            <stop offset="1" stop-color="#2C66B8"/>
        </linearGradient>
        <linearGradient id="paint59_linear_518_2497" x1="1.16131e+06" y1="5096.06" x2="1.16131e+06" y2="1377.22" gradientUnits="userSpaceOnUse">
            <stop stop-color="#592CB8"/>
            <stop offset="1" stop-color="#2C66B8"/>
        </linearGradient>
        <linearGradient id="paint60_linear_518_2497" x1="1.16131e+06" y1="5151.79" x2="1.16131e+06" y2="1391.95" gradientUnits="userSpaceOnUse">
            <stop stop-color="#592CB8"/>
            <stop offset="1" stop-color="#2C66B8"/>
        </linearGradient>
        <linearGradient id="paint61_linear_518_2497" x1="1.16128e+06" y1="5185.84" x2="1.16128e+06" y2="1400.94" gradientUnits="userSpaceOnUse">
            <stop stop-color="#592CB8"/>
            <stop offset="1" stop-color="#2C66B8"/>
        </linearGradient>
        <linearGradient id="paint62_linear_518_2497" x1="1.16134e+06" y1="5157.47" x2="1.16134e+06" y2="1393.2" gradientUnits="userSpaceOnUse">
            <stop stop-color="#592CB8"/>
            <stop offset="1" stop-color="#2C66B8"/>
        </linearGradient>
    </defs>
</svg>
