<svg width="48" height="48" viewBox="0 0 48 48" fill="none" xmlns="http://www.w3.org/2000/svg">
    <path fill-rule="evenodd" clip-rule="evenodd" d="M9.75 19.5C9.33579 19.5 9 19.8358 9 20.25C9 20.6642 9.33579 21 9.75 21C10.1642 21 10.5 20.6642 10.5 20.25C10.5 19.8358 10.1642 19.5 9.75 19.5ZM6 20.25C6 18.1789 7.67893 16.5 9.75 16.5C11.8211 16.5 13.5 18.1789 13.5 20.25C13.5 22.3211 11.8211 24 9.75 24C7.67893 24 6 22.3211 6 20.25Z" fill="white"/>
    <path fill-rule="evenodd" clip-rule="evenodd" d="M9.74999 25.5C9.07676 25.5 8.55778 25.6644 8.14239 25.902C7.44315 26.302 6.87414 27.2201 6.47461 28.3183C6.2883 28.8305 6.16408 29.3117 6.0868 29.6657C6.04844 29.8414 6.02238 29.9824 6.00638 30.076C5.9984 30.1227 5.99296 30.1574 5.98979 30.1784L5.9867 30.1993C5.87676 31.0201 5.12247 31.5964 4.30156 31.4868C3.48041 31.3772 2.90358 30.6227 3.01317 29.8016L4.49999 30C3.01317 29.8016 3.01312 29.802 3.01317 29.8016L3.01369 29.7977L3.01442 29.7924L3.01653 29.7773L3.02349 29.73C3.02939 29.6909 3.03787 29.6372 3.04928 29.5705C3.07206 29.4373 3.10665 29.2511 3.15582 29.0259C3.25358 28.5781 3.41186 27.9621 3.65536 27.2928C4.11543 26.0281 4.99522 24.2461 6.65285 23.298C7.51979 22.8021 8.55194 22.5 9.74999 22.5C12.7718 22.5 14.4819 24.6141 15.3516 26.3181C15.7967 27.19 16.0759 28.0464 16.244 28.6751C16.3289 28.9924 16.3874 29.2592 16.4253 29.451C16.4443 29.547 16.4583 29.6247 16.4678 29.681C16.4726 29.7092 16.4763 29.7321 16.4791 29.7493L16.4824 29.7708L16.4835 29.7783L16.4839 29.7812C16.484 29.7817 16.4843 29.7835 15.0451 29.9934L16.4843 29.7835C16.6038 30.6033 16.0362 31.3648 15.2165 31.4843C14.3979 31.6037 13.6376 31.0379 13.5162 30.2202L13.5156 30.2163L13.5103 30.1842C13.505 30.1526 13.4959 30.1014 13.4824 30.0334C13.4554 29.897 13.4114 29.6951 13.3458 29.4499C13.2131 28.9536 13.0002 28.31 12.6796 27.6819C12.0181 26.3859 11.1032 25.5 9.74999 25.5ZM13.516 30.2185C13.516 30.2182 13.516 30.2187 13.516 30.2185V30.2185ZM13.516 30.2185C13.5159 30.218 13.5157 30.2167 13.5156 30.2163L15 30C13.5157 30.2165 13.5159 30.218 13.516 30.2185Z" fill="white"/>
    <path fill-rule="evenodd" clip-rule="evenodd" d="M36.75 6C36.3358 6 36 6.33579 36 6.75C36 7.16421 36.3358 7.5 36.75 7.5C37.1642 7.5 37.5 7.16421 37.5 6.75C37.5 6.33579 37.1642 6 36.75 6ZM33 6.75C33 4.67893 34.6789 3 36.75 3C38.8211 3 40.5 4.67893 40.5 6.75C40.5 8.82107 38.8211 10.5 36.75 10.5C34.6789 10.5 33 8.82107 33 6.75Z" fill="white"/>
    <path fill-rule="evenodd" clip-rule="evenodd" d="M36.75 12C36.0768 12 35.5578 12.1644 35.1424 12.402C34.4432 12.802 33.8741 13.7201 33.4746 14.8183C33.2883 15.3305 33.1641 15.8117 33.0868 16.1657C33.0484 16.3414 33.0224 16.4824 33.0064 16.576C32.9984 16.6227 32.993 16.6574 32.9898 16.6784L32.9867 16.6993C32.8768 17.5201 32.1225 18.0964 31.3016 17.9868C30.4804 17.8772 29.9036 17.1227 30.0132 16.3016L31.5 16.5C30.0132 16.3016 30.0131 16.302 30.0132 16.3016L30.0137 16.2977L30.0144 16.2924L30.0165 16.2773L30.0235 16.23C30.0294 16.1909 30.0379 16.1372 30.0493 16.0705C30.0721 15.9373 30.1067 15.7511 30.1558 15.5259C30.2536 15.0781 30.4119 14.4621 30.6554 13.7928C31.1154 12.5281 31.9952 10.7461 33.6529 9.79796C34.5198 9.30207 35.5519 9 36.75 9C39.7718 9 41.4819 11.1141 42.3516 12.8181C42.7967 13.69 43.0759 14.5464 43.244 15.1751C43.3289 15.4924 43.3874 15.7592 43.4253 15.951C43.4443 16.047 43.4583 16.1247 43.4678 16.181C43.4726 16.2092 43.4763 16.2321 43.4791 16.2493L43.4824 16.2708L43.4835 16.2783L43.4839 16.2812C43.484 16.2817 43.4843 16.2835 42.0451 16.4934L43.4843 16.2835C43.6038 17.1033 43.0362 17.8648 42.2165 17.9843C41.3979 18.1037 40.6376 17.5379 40.5162 16.7202L40.5156 16.7163L40.5103 16.6842C40.505 16.6526 40.4959 16.6014 40.4824 16.5334C40.4554 16.397 40.4114 16.1951 40.3458 15.9499C40.2131 15.4536 40.0002 14.81 39.6796 14.1819C39.0181 12.8859 38.1032 12 36.75 12ZM40.516 16.7185C40.516 16.7182 40.516 16.7187 40.516 16.7185V16.7185ZM40.516 16.7185C40.5159 16.718 40.5157 16.7167 40.5156 16.7163L42 16.5C40.5157 16.7165 40.5159 16.718 40.516 16.7185Z" fill="white"/>
    <path fill-rule="evenodd" clip-rule="evenodd" d="M36.75 19.5C36.3358 19.5 36 19.8358 36 20.25C36 20.6642 36.3358 21 36.75 21C37.1642 21 37.5 20.6642 37.5 20.25C37.5 19.8358 37.1642 19.5 36.75 19.5ZM33 20.25C33 18.1789 34.6789 16.5 36.75 16.5C38.8211 16.5 40.5 18.1789 40.5 20.25C40.5 22.3211 38.8211 24 36.75 24C34.6789 24 33 22.3211 33 20.25Z" fill="white"/>
    <path fill-rule="evenodd" clip-rule="evenodd" d="M36.75 25.5C36.0768 25.5 35.5578 25.6644 35.1424 25.902C34.4432 26.302 33.8741 27.2201 33.4746 28.3183C33.2883 28.8305 33.1641 29.3117 33.0868 29.6657C33.0484 29.8414 33.0224 29.9824 33.0064 30.076C32.9984 30.1227 32.993 30.1574 32.9898 30.1784L32.9867 30.1993C32.8768 31.0201 32.1225 31.5964 31.3016 31.4868C30.4804 31.3772 29.9036 30.6227 30.0132 29.8016L31.5 30C30.0132 29.8016 30.0131 29.802 30.0132 29.8016L30.0137 29.7977L30.0144 29.7924L30.0165 29.7773L30.0235 29.73C30.0294 29.6909 30.0379 29.6372 30.0493 29.5705C30.0721 29.4373 30.1067 29.2511 30.1558 29.0259C30.2536 28.5781 30.4119 27.9621 30.6554 27.2928C31.1154 26.0281 31.9952 24.2461 33.6529 23.298C34.5198 22.8021 35.5519 22.5 36.75 22.5C39.7718 22.5 41.4819 24.6141 42.3516 26.3181C42.7967 27.19 43.0759 28.0464 43.244 28.6751C43.3289 28.9924 43.3874 29.2592 43.4253 29.451C43.4443 29.547 43.4583 29.6247 43.4678 29.681C43.4726 29.7092 43.4763 29.7321 43.4791 29.7493L43.4824 29.7708L43.4835 29.7783L43.4839 29.7812C43.484 29.7817 43.4843 29.7835 42.0451 29.9934L43.4843 29.7835C43.6038 30.6033 43.0362 31.3648 42.2165 31.4843C41.3979 31.6037 40.6376 31.0379 40.5162 30.2202L40.5156 30.2163L40.5103 30.1842C40.505 30.1526 40.4959 30.1014 40.4824 30.0334C40.4554 29.897 40.4114 29.6951 40.3458 29.4499C40.2131 28.9536 40.0002 28.31 39.6796 27.6819C39.0181 26.3859 38.1032 25.5 36.75 25.5ZM40.516 30.2185C40.516 30.2182 40.516 30.2187 40.516 30.2185V30.2185ZM40.516 30.2185C40.5159 30.218 40.5157 30.2167 40.5156 30.2163L42 30C40.5157 30.2165 40.5159 30.218 40.516 30.2185Z" fill="white"/>
    <path fill-rule="evenodd" clip-rule="evenodd" d="M36.75 33C36.3358 33 36 33.3358 36 33.75C36 34.1642 36.3358 34.5 36.75 34.5C37.1642 34.5 37.5 34.1642 37.5 33.75C37.5 33.3358 37.1642 33 36.75 33ZM33 33.75C33 31.6789 34.6789 30 36.75 30C38.8211 30 40.5 31.6789 40.5 33.75C40.5 35.8211 38.8211 37.5 36.75 37.5C34.6789 37.5 33 35.8211 33 33.75Z" fill="white"/>
    <path fill-rule="evenodd" clip-rule="evenodd" d="M36.75 39C36.0768 39 35.5578 39.1644 35.1424 39.402C34.4432 39.802 33.8741 40.7201 33.4746 41.8183C33.2883 42.3305 33.1641 42.8117 33.0868 43.1657C33.0484 43.3414 33.0224 43.4824 33.0064 43.576C32.9984 43.6227 32.993 43.6574 32.9898 43.6784L32.9867 43.6993C32.8768 44.5201 32.1225 45.0964 31.3016 44.9868C30.4804 44.8772 29.9036 44.1227 30.0132 43.3016L31.5 43.5C30.0132 43.3016 30.0131 43.302 30.0132 43.3016L30.0137 43.2977L30.0144 43.2924L30.0165 43.2773L30.0235 43.23C30.0294 43.1909 30.0379 43.1372 30.0493 43.0705C30.0721 42.9373 30.1067 42.7511 30.1558 42.5259C30.2536 42.0781 30.4119 41.4621 30.6554 40.7928C31.1154 39.5281 31.9952 37.7461 33.6529 36.798C34.5198 36.3021 35.5519 36 36.75 36C39.7718 36 41.4819 38.1141 42.3516 39.8181C42.7967 40.69 43.0759 41.5464 43.244 42.1751C43.3289 42.4924 43.3874 42.7592 43.4253 42.951C43.4443 43.047 43.4583 43.1247 43.4678 43.181C43.4726 43.2092 43.4763 43.2321 43.4791 43.2493L43.4824 43.2708L43.4835 43.2783L43.4839 43.2812C43.484 43.2817 43.4843 43.2835 42.0451 43.4934L43.4843 43.2835C43.6038 44.1033 43.0362 44.8648 42.2165 44.9843C41.3979 45.1037 40.6376 44.5379 40.5162 43.7202L40.5156 43.7163L40.5103 43.6842C40.505 43.6526 40.4959 43.6014 40.4824 43.5334C40.4554 43.397 40.4114 43.1951 40.3458 42.9499C40.2131 42.4536 40.0002 41.81 39.6796 41.1819C39.0181 39.8859 38.1032 39 36.75 39ZM40.516 43.7185C40.516 43.7182 40.516 43.7187 40.516 43.7185V43.7185ZM40.516 43.7185C40.5159 43.718 40.5157 43.7167 40.5156 43.7163L42 43.5C40.5157 43.7165 40.5159 43.718 40.516 43.7185Z" fill="white"/>
    <path fill-rule="evenodd" clip-rule="evenodd" d="M19.5 10.5C19.5 9.67157 20.1716 9 21 9H28.5C29.3284 9 30 9.67157 30 10.5C30 11.3284 29.3284 12 28.5 12H22.5V22.5H28.5C29.3284 22.5 30 23.1716 30 24C30 24.8284 29.3284 25.5 28.5 25.5H22.5V36H28.5C29.3284 36 30 36.6716 30 37.5C30 38.3284 29.3284 39 28.5 39H21C20.1716 39 19.5 38.3284 19.5 37.5V25.5H16.5C15.6716 25.5 15 24.8284 15 24C15 23.1716 15.6716 22.5 16.5 22.5H19.5V10.5Z" fill="#5E3FEB"/>
</svg>
