<svg width="32" height="32" viewBox="0 0 32 32" fill="none" xmlns="http://www.w3.org/2000/svg">
    <path fill-rule="evenodd" clip-rule="evenodd" d="M12.0001 14.6667C14.9414 14.6667 17.3334 12.2747 17.3334 9.33333C17.3334 6.392 14.9414 4 12.0001 4C9.05875 4 6.66675 6.392 6.66675 9.33333C6.66675 12.2747 9.05875 14.6667 12.0001 14.6667ZM22.6667 17.3333C24.8721 17.3333 26.6667 15.5387 26.6667 13.3333C26.6667 11.128 24.8721 9.33333 22.6667 9.33333C20.4614 9.33333 18.6667 11.128 18.6667 13.3333C18.6667 15.5387 20.4614 17.3333 22.6667 17.3333ZM29.3334 25.3333C29.3334 26.0693 28.7374 26.6667 28.0001 26.6667H21.3334C21.3334 27.4027 20.7374 28 20.0001 28H4.00008C3.26275 28 2.66675 27.4027 2.66675 26.6667C2.66675 21.52 6.85475 17.3333 12.0001 17.3333C14.5694 17.3333 16.8974 18.3773 18.5867 20.0613C19.7454 19.1653 21.1721 18.6667 22.6667 18.6667C26.3427 18.6667 29.3334 21.6573 29.3334 25.3333Z" fill="#39B54A"/>
</svg>
