<svg width="32" height="32" viewBox="0 0 32 32" fill="none" xmlns="http://www.w3.org/2000/svg">
    <path fill-rule="evenodd" clip-rule="evenodd" d="M16.4351 2.9463C16.6481 2.75518 16.9297 2.655 17.218 2.66785C23.3124 2.85029 28.4058 7.27448 29.3289 13.1876C29.3348 13.2229 29.3348 13.2589 29.3289 13.2942C29.3488 13.574 29.2542 13.85 29.0661 14.0612C28.8781 14.2724 28.612 14.4014 28.3267 14.4196L18.0874 15.0949C17.7488 15.1249 17.413 15.0135 17.1624 14.788C16.9119 14.5625 16.7699 14.2438 16.7712 13.9102L16.083 3.8525V3.68665C16.0955 3.40378 16.2222 3.13742 16.4351 2.9463ZM15.7328 17.7248L24.6077 17.1562L24.6681 17.1799C25.0492 17.1861 25.4121 17.3406 25.6771 17.6095C25.942 17.8783 26.0873 18.2394 26.0808 18.6133C25.7311 23.7094 21.9948 27.9674 16.9103 29.0644C11.8258 30.1614 6.61352 27.834 4.117 23.3519C3.38292 22.061 2.91903 20.6393 2.75256 19.1701C2.688 18.7348 2.65973 18.295 2.66804 17.8551C2.68487 12.4362 6.54299 7.75883 11.9414 6.61275C12.5949 6.49043 13.2501 6.81672 13.5352 7.40647C13.6062 7.51348 13.663 7.62893 13.7043 7.75002C13.8055 9.31212 13.9104 10.8594 14.015 12.4002C14.0975 13.6171 14.1798 14.8298 14.2597 16.0426C14.2556 16.3283 14.3005 16.6126 14.3925 16.8837C14.6092 17.4171 15.1484 17.7555 15.7328 17.7248Z" fill="#8C30F5"/>
</svg>
