<svg width="150" height="150" viewBox="0 0 150 150" fill="none" xmlns="http://www.w3.org/2000/svg">
    <path d="M150 114.72H0V114.795H150V114.72Z" fill="#EBEBEB"/>
    <path d="M134.971 119.547H125.035V119.622H134.971V119.547Z" fill="#EBEBEB"/>
    <path d="M99.3668 120.363H96.7598V120.438H99.3668V120.363Z" fill="#EBEBEB"/>
    <path d="M124.734 116.763H118.977V116.838H124.734V116.763Z" fill="#EBEBEB"/>
    <path d="M28.6941 117.267H15.7371V117.342H28.6941V117.267Z" fill="#EBEBEB"/>
    <path d="M33.2663 117.267H31.3673V117.342H33.2663V117.267Z" fill="#EBEBEB"/>
    <path d="M67.5445 118.533H39.4406V118.608H67.5445V118.533Z" fill="#EBEBEB"/>
    <path d="M71.099 101.34H13.172C12.7182 101.339 12.2833 101.158 11.9627 100.837C11.6421 100.516 11.462 100.081 11.462 99.627V18.198C11.466 17.7468 11.6478 17.3154 11.968 16.9975C12.2881 16.6795 12.7208 16.5008 13.172 16.5H71.099C71.5534 16.5 71.9891 16.6805 72.3103 17.0017C72.6316 17.323 72.812 17.7587 72.812 18.213V99.627C72.812 100.081 72.6316 100.517 72.3103 100.838C71.9891 101.16 71.5534 101.34 71.099 101.34ZM13.172 16.56C12.7381 16.5608 12.3223 16.7337 12.0157 17.0408C11.7092 17.3479 11.537 17.7641 11.537 18.198V99.627C11.537 100.061 11.7092 100.477 12.0157 100.784C12.3223 101.091 12.7381 101.264 13.172 101.265H71.099C71.5332 101.264 71.9494 101.091 72.2564 100.784C72.5634 100.477 72.7362 100.061 72.737 99.627V18.198C72.7362 17.7638 72.5634 17.3476 72.2564 17.0406C71.9494 16.7336 71.5332 16.5608 71.099 16.56H13.172Z" fill="#EBEBEB"/>
    <path d="M135.993 101.34H78.0631C77.609 101.339 77.1738 101.158 76.8527 100.837C76.5316 100.516 76.3509 100.081 76.3501 99.627V18.198C76.3548 17.7465 76.5373 17.3151 76.858 16.9973C77.1786 16.6794 77.6116 16.5008 78.0631 16.5H135.993C136.444 16.5016 136.876 16.6807 137.195 16.9985C137.515 17.3164 137.696 17.7473 137.7 18.198V99.627C137.7 100.08 137.52 100.515 137.201 100.836C136.881 101.157 136.446 101.338 135.993 101.34ZM78.0631 16.56C77.6289 16.5608 77.2127 16.7336 76.9057 17.0406C76.5987 17.3476 76.4259 17.7638 76.4251 18.198V99.627C76.4259 100.061 76.5987 100.477 76.9057 100.784C77.2127 101.091 77.6289 101.264 78.0631 101.265H135.993C136.427 101.264 136.843 101.091 137.15 100.784C137.457 100.477 137.63 100.061 137.631 99.627V18.198C137.63 17.7638 137.457 17.3476 137.15 17.0406C136.843 16.7336 136.427 16.5608 135.993 16.56H78.0631Z" fill="#EBEBEB"/>
    <path d="M98.3001 61.1458C96.0022 57.9478 92.1141 56.8108 89.6152 58.6048C87.1162 60.3988 86.9542 64.4488 89.2522 67.6467C91.5502 70.8447 95.4381 71.9997 97.9371 70.1997C100.436 68.3997 100.598 64.3468 98.3001 61.1458Z" fill="#EBEBEB"/>
    <path d="M118.629 46.71L110.7 35.376C110.7 35.376 107.232 45.738 101.052 50.178L105.081 55.782L105.714 56.667L109.746 62.28C115.926 57.84 126.846 57.858 126.846 57.858L118.629 46.71Z" fill="#EBEBEB"/>
    <path d="M98.6587 68.2709C98.6587 68.2709 104.188 74.6129 108.901 76.6199C109.062 76.6819 109.24 76.6859 109.404 76.6311C109.569 76.5764 109.709 76.4664 109.801 76.3199L113.047 71.1989C113.109 71.1023 113.148 70.9926 113.16 70.8784C113.173 70.7643 113.159 70.6488 113.12 70.5408C113.081 70.4328 113.017 70.3354 112.934 70.256C112.851 70.1765 112.751 70.1173 112.642 70.0829C110.677 69.4829 106.081 67.8419 103.228 65.1569C99.5467 61.6679 98.6587 68.2709 98.6587 68.2709Z" fill="#EBEBEB"/>
    <path d="M126.816 58.2002C125.4 59.2172 120.565 54.9002 116.017 48.5822C111.469 42.2642 108.931 36.2822 110.347 35.2772C111.763 34.2722 116.599 38.5772 121.147 44.8982C125.694 51.2192 128.232 57.1952 126.816 58.2002Z" fill="#F0F0F0"/>
    <path d="M125.973 56.289C124.914 57.051 121.14 53.658 117.366 48.594C117.15 48.309 116.934 48.009 116.718 47.709C116.457 47.346 116.205 46.995 115.965 46.644C112.446 41.505 110.484 36.945 111.534 36.192C112.665 35.379 116.817 39.222 120.804 44.772C124.791 50.322 127.101 55.476 125.973 56.289Z" fill="#E6E6E6"/>
    <path d="M97.4668 71.514C97.4668 71.514 95.7118 70.545 92.1718 65.616C88.3408 60.3 88.2478 58.68 88.2478 58.68L102.048 48.78C102.048 48.78 102.459 50.829 106.053 55.83C109.647 60.831 111.267 61.617 111.267 61.617L97.4668 71.514Z" fill="#E0E0E0"/>
    <path d="M117.365 48.6C117.149 48.315 116.933 48.015 116.717 47.715C116.456 47.352 116.204 47.001 115.964 46.65L117.434 45.996C117.592 45.933 117.768 45.9286 117.929 45.9836C118.09 46.0386 118.226 46.1494 118.313 46.296L118.46 46.5C118.571 46.6285 118.632 46.7925 118.632 46.962C118.632 47.1316 118.571 47.2956 118.46 47.424L117.365 48.6Z" fill="white"/>
    <path d="M117.365 48.6C117.149 48.315 116.933 48.015 116.717 47.715C116.456 47.352 116.204 47.001 115.964 46.65L117.434 45.996C117.592 45.933 117.768 45.9286 117.929 45.9836C118.09 46.0386 118.226 46.1494 118.313 46.296L118.46 46.5C118.571 46.6285 118.632 46.7925 118.632 46.962C118.632 47.1316 118.571 47.2956 118.46 47.424L117.365 48.6Z" fill="#FAFAFA"/>
    <path d="M57.5034 85.293H62.6904V69.492H57.5034V85.293Z" fill="#EBEBEB"/>
    <path d="M47.8923 85.2961H53.0793V64.9561H47.8923V85.2961Z" fill="#EBEBEB"/>
    <path d="M38.2764 85.293H43.4634V57H38.2764V85.293Z" fill="#EBEBEB"/>
    <path d="M28.6649 85.293H33.8519L33.8519 47.538H28.6649L28.6649 85.293Z" fill="#EBEBEB"/>
    <path d="M51.8187 61.1039C41.4712 54.1346 32.8179 44.934 26.4957 34.1789L29.0997 32.6609C35.1697 42.9935 43.472 51.8391 53.3997 58.5509C60.8547 63.5729 66.5997 65.5619 66.7077 65.6009L65.7477 68.4419C65.5017 68.3579 59.6217 66.3419 51.8187 61.1039ZM66.7077 65.6039L66.2277 67.0229L66.7077 65.6039Z" fill="#EBEBEB"/>
    <path d="M26.4866 30.8311L32.4926 33.7471L25.7426 37.4701L26.4866 30.8311Z" fill="#EBEBEB"/>
    <path d="M52.6867 36.5466C53.3048 33.9278 51.6829 31.3038 49.0641 30.6858C46.4453 30.0677 43.8213 31.6895 43.2033 34.3083C42.5852 36.9271 44.207 39.5511 46.8258 40.1692C49.4446 40.7873 52.0686 39.1654 52.6867 36.5466Z" fill="#EBEBEB"/>
    <path d="M47.9458 39.204C50.0301 39.204 51.7197 37.5143 51.7197 35.43C51.7197 33.3457 50.0301 31.656 47.9458 31.656C45.8614 31.656 44.1718 33.3457 44.1718 35.43C44.1718 37.5143 45.8614 39.204 47.9458 39.204Z" fill="#E0E0E0"/>
    <path d="M48.2079 37.044V37.548H47.7579V37.056C47.3573 37.0448 46.9682 36.9199 46.6359 36.696L46.8819 36.147C47.1418 36.3264 47.4434 36.4359 47.7579 36.465V35.7C47.2569 35.58 46.6989 35.4 46.6989 34.767C46.6989 34.29 47.0439 33.867 47.7579 33.798V33.3H48.2079V33.792C48.5315 33.8097 48.8462 33.9043 49.1259 34.068L48.8979 34.623C48.6865 34.4978 48.4516 34.4171 48.2079 34.386V35.154C48.7089 35.271 49.2609 35.454 49.2609 36.075C49.2609 36.552 48.9159 36.957 48.2079 37.044ZM47.7579 35.049V34.41C47.5179 34.464 47.4249 34.596 47.4249 34.743C47.4249 34.89 47.5599 34.986 47.7579 35.049ZM48.5349 36.138C48.5349 35.979 48.4029 35.895 48.2079 35.838V36.459C48.4359 36.399 48.5349 36.282 48.5349 36.138Z" fill="#F0F0F0"/>
    <path d="M18.4284 78.5849C19.7737 78.5849 20.8644 77.4943 20.8644 76.1489C20.8644 74.8035 19.7737 73.7129 18.4284 73.7129C17.083 73.7129 15.9924 74.8035 15.9924 76.1489C15.9924 77.4943 17.083 78.5849 18.4284 78.5849Z" fill="#EBEBEB"/>
    <path d="M20.3155 76.1491C20.3161 76.5225 20.2059 76.8876 19.9989 77.1983C19.792 77.509 19.4975 77.7513 19.1527 77.8946C18.808 78.0379 18.4285 78.0757 18.0622 78.0032C17.696 77.9308 17.3595 77.7513 17.0953 77.4875C16.8311 77.2237 16.651 76.8875 16.578 76.5214C16.5049 76.1553 16.5421 75.7757 16.6849 75.4307C16.8276 75.0857 17.0695 74.7908 17.3798 74.5834C17.6902 74.3759 18.0552 74.2651 18.4285 74.2651C18.9284 74.2651 19.408 74.4635 19.7618 74.8168C20.1156 75.17 20.3147 75.6492 20.3155 76.1491Z" fill="#E0E0E0"/>
    <path d="M18.5577 76.9591V77.2111H18.3327V76.9651C18.1327 76.9578 17.9386 76.8955 17.7717 76.7851L17.8947 76.5091C18.0242 76.5996 18.1752 76.6545 18.3327 76.6681V76.2931C18.0837 76.2331 17.8047 76.1491 17.8047 75.8251C17.8047 75.5881 17.9787 75.3811 18.3327 75.3421V75.0901H18.5577V75.3361C18.7193 75.3459 18.8764 75.3931 19.0167 75.4741L18.9027 75.7501C18.796 75.6899 18.679 75.6502 18.5577 75.6331V76.0171C18.8097 76.0771 19.0857 76.1581 19.0857 76.4761C19.0857 76.7131 18.9147 76.9141 18.5577 76.9591ZM18.3327 75.9601V75.6421C18.2127 75.6691 18.1677 75.7321 18.1677 75.8071C18.1677 75.8821 18.2337 75.9301 18.3327 75.9601ZM18.7227 76.5031C18.7227 76.4251 18.6567 76.3831 18.5577 76.3501V76.6501C18.6717 76.6351 18.7227 76.5781 18.7227 76.5001V76.5031Z" fill="#F0F0F0"/>
    <path d="M70.8695 46.653C72.2148 46.653 73.3055 45.5624 73.3055 44.217C73.3055 42.8716 72.2148 41.781 70.8695 41.781C69.5241 41.781 68.4335 42.8716 68.4335 44.217C68.4335 45.5624 69.5241 46.653 70.8695 46.653Z" fill="#EBEBEB"/>
    <path d="M72.7567 44.2168C72.7567 44.59 72.646 44.9549 72.4387 45.2652C72.2313 45.5755 71.9366 45.8174 71.5918 45.9602C71.247 46.103 70.8676 46.1404 70.5015 46.0676C70.1355 45.9948 69.7993 45.815 69.5354 45.5511C69.2715 45.2872 69.0917 44.951 69.0189 44.585C68.9461 44.2189 68.9835 43.8395 69.1263 43.4947C69.2691 43.1499 69.511 42.8552 69.8213 42.6478C70.1316 42.4405 70.4965 42.3298 70.8697 42.3298C71.3701 42.3298 71.8501 42.5286 72.204 42.8825C72.5579 43.2364 72.7567 43.7164 72.7567 44.2168Z" fill="#E0E0E0"/>
    <path d="M71.0004 45.0238V45.2758H70.7754V45.0298C70.5753 45.0229 70.3811 44.9606 70.2144 44.8498L70.3374 44.5738C70.4669 44.6643 70.6179 44.7192 70.7754 44.7328V44.3578C70.5234 44.2978 70.2444 44.2138 70.2444 43.8898C70.2444 43.6528 70.4184 43.4458 70.7754 43.4068V43.1548H71.0004V43.4008C71.161 43.411 71.317 43.4583 71.4564 43.5388L71.3454 43.8178C71.2392 43.7559 71.122 43.7151 71.0004 43.6978V44.0818C71.2494 44.1418 71.5254 44.2258 71.5254 44.5438C71.5254 44.7778 71.3544 44.9788 71.0004 45.0238ZM70.7754 44.0248V43.7068C70.6554 43.7338 70.6074 43.7968 70.6074 43.8718C70.6074 43.9468 70.6764 43.9948 70.7754 44.0248ZM71.1624 44.5708C71.1624 44.4898 71.0964 44.4478 71.0004 44.4148V44.7148C71.0994 44.6998 71.1624 44.6428 71.1624 44.5708Z" fill="#F0F0F0"/>
    <path d="M43.5912 99.0967C45.0978 97.59 45.0978 95.1473 43.5912 93.6406C42.0845 92.134 39.6418 92.134 38.1351 93.6406C36.6285 95.1473 36.6285 97.59 38.1351 99.0967C39.6418 100.603 42.0845 100.603 43.5912 99.0967Z" fill="#EBEBEB"/>
    <path d="M43.8135 96.8536C44.0779 95.2247 42.9717 93.6898 41.3428 93.4254C39.7139 93.161 38.1791 94.2672 37.9147 95.8961C37.6503 97.525 38.7564 99.0598 40.3853 99.3242C42.0142 99.5886 43.5491 98.4825 43.8135 96.8536Z" fill="#E0E0E0"/>
    <path d="M41.0693 97.6472V98.0492H40.7123V97.6592C40.3914 97.6509 40.0794 97.5521 39.8123 97.3742L40.0103 96.9362C40.2149 97.0805 40.4539 97.1684 40.7033 97.1912V96.5912C40.3073 96.4952 39.8633 96.3632 39.8633 95.8532C39.8633 95.4752 40.1393 95.1482 40.7033 95.0852V94.6892H41.0603V95.0762C41.3151 95.0914 41.5628 95.1665 41.7833 95.2952L41.6063 95.7362C41.4386 95.6381 41.2529 95.5748 41.0603 95.5502V96.1502C41.4563 96.2432 41.8913 96.3752 41.8913 96.8792C41.9003 97.2602 41.6303 97.5812 41.0693 97.6472ZM40.7123 96.0692V95.5622C40.5233 95.6042 40.4483 95.7092 40.4483 95.8262C40.4483 95.9432 40.5533 96.0212 40.7123 96.0692ZM41.3123 96.9302C41.3123 96.8042 41.2073 96.7382 41.0543 96.6842V97.1762C41.2463 97.1372 41.3273 97.0442 41.3273 96.9302H41.3123Z" fill="#F0F0F0"/>
    <path d="M118.199 94.5993V92.4423L117.089 92.3403C116.942 91.6299 116.661 90.954 116.261 90.3483L116.975 89.4873L115.451 87.9633L114.599 88.6773C113.994 88.2778 113.318 87.9969 112.607 87.8493L112.502 86.7393H110.348L110.243 87.8493C109.534 87.9963 108.859 88.2773 108.254 88.6773L107.393 87.9633L105.866 89.4873L106.58 90.3483C106.182 90.9546 105.901 91.6303 105.752 92.3403L104.642 92.4423V94.5993L105.752 94.7043C105.902 95.4131 106.183 96.0877 106.58 96.6933L105.866 97.5543L107.393 99.0783L108.254 98.3673C108.86 98.765 109.534 99.0449 110.243 99.1923L110.348 100.302H112.499L112.604 99.1923C113.314 99.0444 113.99 98.7646 114.596 98.3673L115.457 99.0783L116.981 97.5543L116.267 96.6933C116.666 96.0884 116.947 95.4135 117.095 94.7043L118.199 94.5993ZM111.416 96.4383C110.839 96.4383 110.275 96.267 109.794 95.9461C109.314 95.6252 108.94 95.1692 108.719 94.6356C108.499 94.1021 108.441 93.515 108.554 92.9487C108.667 92.3824 108.945 91.8623 109.353 91.4542C109.762 91.046 110.282 90.7683 110.849 90.656C111.415 90.5437 112.002 90.6019 112.536 90.8233C113.069 91.0447 113.525 91.4193 113.845 91.8997C114.165 92.3802 114.336 92.9448 114.335 93.5223C114.335 93.9057 114.26 94.2854 114.113 94.6395C113.966 94.9937 113.751 95.3155 113.479 95.5863C113.208 95.8572 112.886 96.0718 112.531 96.218C112.177 96.3642 111.797 96.439 111.413 96.4383H111.416Z" fill="#E0E0E0"/>
    <path d="M116.806 78.8731C116.25 78.9891 115.72 79.2089 115.246 79.5211L114.571 78.9631L113.371 80.1631L113.929 80.8381C113.617 81.3127 113.397 81.842 113.281 82.3981L112.411 82.4791V84.1681L113.281 84.2521C113.397 84.8073 113.617 85.3356 113.929 85.8091L113.371 86.4841L114.571 87.6841L115.246 87.1261C115.72 87.4396 116.249 87.6595 116.806 87.7741L116.887 88.6441H118.576L118.657 87.7741C119.213 87.6595 119.743 87.4396 120.217 87.1261L120.892 87.6841L122.092 86.4841L121.528 85.8001C121.84 85.3266 122.06 84.7983 122.176 84.2431L123.046 84.1591V82.4701L122.176 82.3891C122.06 81.833 121.84 81.3037 121.528 80.8291L122.086 80.1541L120.886 78.9541L120.211 79.5121C119.736 79.1999 119.207 78.9801 118.651 78.8641L118.57 77.9941H116.881L116.806 78.8731ZM120.019 83.3191C120.019 83.7721 119.886 84.2151 119.634 84.592C119.383 84.9688 119.026 85.2627 118.607 85.4363C118.189 85.6099 117.728 85.6555 117.284 85.5673C116.84 85.4791 116.432 85.261 116.111 84.9407C115.791 84.6204 115.573 84.2123 115.485 83.768C115.397 83.3237 115.442 82.8632 115.616 82.4448C115.789 82.0264 116.083 81.6689 116.46 81.4177C116.837 81.1664 117.28 81.0325 117.733 81.0331C118.339 81.0331 118.921 81.274 119.349 81.7027C119.778 82.1314 120.019 82.7129 120.019 83.3191Z" fill="#E0E0E0"/>
    <path d="M120.572 88.0138L119.999 87.5428L118.994 88.5478L119.465 89.1148C119.203 89.5127 119.018 89.9564 118.919 90.4228L118.19 90.4918V91.9108L118.919 91.9798C119.017 92.4473 119.202 92.8922 119.465 93.2908L118.994 93.8578L119.999 94.8598L120.566 94.3918C120.964 94.6533 121.408 94.8375 121.874 94.9348L121.943 95.6668H123.362L123.431 94.9348C123.899 94.8381 124.343 94.6539 124.742 94.3918L125.309 94.8598L126.311 93.8578L125.849 93.2998C126.111 92.901 126.296 92.4561 126.392 91.9888L127.124 91.9198V90.5008L126.392 90.4318C126.295 89.9656 126.111 89.5218 125.849 89.1238L126.317 88.5568L125.315 87.5518L124.748 88.0228C124.35 87.7597 123.905 87.5745 123.437 87.4768L123.368 86.7478H121.949L121.88 87.4768C121.415 87.5723 120.971 87.7545 120.572 88.0138ZM124.58 91.1998C124.58 91.5795 124.468 91.9508 124.257 92.2665C124.046 92.5822 123.746 92.8283 123.395 92.9737C123.044 93.119 122.658 93.157 122.286 93.0829C121.913 93.0088 121.571 92.826 121.303 92.5574C121.034 92.2889 120.851 91.9468 120.777 91.5744C120.703 91.2019 120.741 90.8159 120.886 90.465C121.032 90.1142 121.278 89.8143 121.594 89.6034C121.909 89.3924 122.281 89.2798 122.66 89.2798C123.169 89.2806 123.657 89.4831 124.017 89.843C124.377 90.2029 124.58 90.6908 124.58 91.1998Z" fill="#E0E0E0"/>
    <path d="M90.8995 27.3691L90.3325 26.8981L89.3245 27.9001L89.7925 28.4641C89.5309 28.8632 89.3467 29.3079 89.2495 29.7751L88.5175 29.8441V31.2631L89.2495 31.3321C89.3467 31.7993 89.5309 32.244 89.7925 32.6431L89.3245 33.2101L90.3265 34.2121L90.8935 33.7441C91.2929 34.005 91.7375 34.1891 92.2045 34.2871L92.2735 35.0191H93.6925L93.7615 34.2871C94.2275 34.1891 94.6711 34.0049 95.0695 33.7441L95.6365 34.2121L96.6415 33.2101L96.1705 32.6431C96.433 32.2441 96.6182 31.7994 96.7165 31.3321L97.4455 31.2631V29.8471L96.7165 29.7781C96.6182 29.3108 96.433 28.866 96.1705 28.4671L96.6415 27.9001L95.6365 26.8951L95.0695 27.3661C94.6719 27.1031 94.228 26.9179 93.7615 26.8201L93.6925 26.1001H92.2735L92.2045 26.8291C91.7394 26.9257 91.2967 27.1088 90.8995 27.3691ZM94.9075 30.5581C94.9069 30.9377 94.7938 31.3086 94.5824 31.624C94.3711 31.9393 94.071 32.1849 93.7201 32.3298C93.3692 32.4747 92.9833 32.5123 92.611 32.4378C92.2388 32.3634 91.897 32.1803 91.6288 31.9117C91.3605 31.643 91.178 31.3009 91.1041 30.9286C91.0303 30.5562 91.0685 30.1703 91.2139 29.8197C91.3593 29.469 91.6054 29.1693 91.9211 28.9585C92.2368 28.7476 92.6078 28.6351 92.9875 28.6351C93.4961 28.6367 93.9834 28.8401 94.3423 29.2006C94.7011 29.5612 94.9023 30.0494 94.9015 30.5581H94.9075Z" fill="#E0E0E0"/>
    <path d="M124.137 33L123.837 32.745L123.3 33.3L123.555 33.6C123.411 33.8158 123.309 34.0571 123.255 34.311L122.859 34.347V35.118L123.255 35.154C123.309 35.409 123.411 35.6514 123.555 35.868L123.3 36.168L123.846 36.714L124.146 36.459C124.362 36.6032 124.604 36.705 124.857 36.759L124.896 37.155H125.667L125.703 36.759C125.957 36.705 126.199 36.6032 126.414 36.459L126.714 36.714L127.257 36.168L127.002 35.868C127.147 35.6514 127.249 35.409 127.302 35.154L127.698 35.118V34.347L127.302 34.311C127.248 34.0571 127.147 33.8158 127.002 33.6L127.257 33.3L126.714 32.754L126.414 33.009C126.198 32.8659 125.957 32.7642 125.703 32.709L125.667 32.313H124.896L124.857 32.709C124.601 32.7604 124.357 32.8591 124.137 33ZM126.315 34.734C126.315 34.9405 126.254 35.1423 126.14 35.314C126.025 35.4857 125.862 35.6195 125.671 35.6985C125.48 35.7775 125.27 35.7982 125.068 35.7579C124.865 35.7176 124.679 35.6182 124.533 35.4722C124.387 35.3262 124.288 35.1402 124.248 34.9377C124.207 34.7351 124.228 34.5252 124.307 34.3345C124.386 34.1437 124.52 33.9806 124.691 33.8659C124.863 33.7512 125.065 33.69 125.271 33.69C125.408 33.6896 125.544 33.7162 125.671 33.7684C125.797 33.8205 125.913 33.8971 126.01 33.9938C126.107 34.0905 126.183 34.2054 126.236 34.3319C126.288 34.4584 126.315 34.594 126.315 34.731V34.734Z" fill="#E0E0E0"/>
    <path d="M80.6129 74.772L80.3129 74.517L79.7669 75.063L80.0219 75.363C79.8785 75.5803 79.7768 75.8225 79.7219 76.077L79.3259 76.113V76.884L79.7219 76.92C79.7768 77.1745 79.8785 77.4167 80.0219 77.634L79.7669 77.934L80.3129 78.48L80.6129 78.225C80.8295 78.3699 81.0719 78.4717 81.3269 78.525L81.3629 78.924H82.1339L82.1699 78.525C82.4239 78.4712 82.6652 78.3693 82.8809 78.225L83.1809 78.48L83.7269 77.934L83.4719 77.634C83.6145 77.4162 83.7162 77.1743 83.7719 76.92L84.1679 76.884V76.113L83.7719 76.077C83.7162 75.8227 83.6145 75.5808 83.4719 75.363L83.7269 75.063L83.1809 74.517L82.8809 74.772C82.6652 74.6277 82.4239 74.5259 82.1699 74.472L82.1339 74.073H81.3629L81.3269 74.472C81.0719 74.5253 80.8295 74.6271 80.6129 74.772ZM82.7999 76.5C82.8005 76.7066 82.7398 76.9088 82.6254 77.0808C82.5111 77.2529 82.3482 77.3872 82.1575 77.4667C81.9668 77.5462 81.7568 77.5673 81.5541 77.5273C81.3514 77.4874 81.1651 77.3882 81.0188 77.2423C80.8725 77.0964 80.7727 76.9104 80.7322 76.7078C80.6917 76.5052 80.7122 76.2951 80.7911 76.1042C80.87 75.9132 81.0038 75.75 81.1756 75.6352C81.3473 75.5203 81.5493 75.459 81.7559 75.459C82.0323 75.459 82.2974 75.5686 82.4931 75.7637C82.6888 75.9589 82.7991 76.2236 82.7999 76.5Z" fill="#E0E0E0"/>
    <path d="M75.0004 128.268C107.125 128.268 133.167 126.748 133.167 124.872C133.167 122.997 107.125 121.476 75.0004 121.476C42.8756 121.476 16.8334 122.997 16.8334 124.872C16.8334 126.748 42.8756 128.268 75.0004 128.268Z" fill="#F5F5F5"/>
    <path d="M121.418 115.833H121.118C121.118 115.428 121.454 105.918 123.11 104.307C124.82 102.645 126.827 104.283 126.848 104.307L126.656 104.538C126.581 104.475 124.835 103.056 123.32 104.538C121.748 106.041 121.421 115.737 121.418 115.833Z" fill="#592CB8"/>
    <path d="M121.282 117.744L120.982 117.714C120.982 117.6 122.05 106.179 117.913 101.433L118.141 101.238C122.365 106.08 121.33 117.27 121.282 117.744Z" fill="#592CB8"/>
    <path d="M121.386 116.523C121.35 115.983 120.552 103.278 123.738 100.347L123.942 100.566C120.861 103.401 121.677 116.37 121.686 116.502L121.386 116.523Z" fill="#592CB8"/>
    <path d="M120.985 116.514C120.985 116.427 120.886 107.901 118.63 106.614C118.44 106.488 118.222 106.409 117.995 106.385C117.767 106.361 117.538 106.393 117.325 106.476C116.005 107.022 115.3 109.548 115.294 109.575L114.994 109.494C115.024 109.386 115.744 106.794 117.202 106.194C117.457 106.093 117.732 106.054 118.005 106.08C118.278 106.107 118.541 106.199 118.771 106.347C121.171 107.724 121.273 116.151 121.276 116.508L120.985 116.514Z" fill="#592CB8"/>
    <path d="M121.915 116.52C121.9 116.247 121.549 109.773 123.385 107.373C123.877 106.734 124.423 106.425 125.014 106.473C126.325 106.566 127.339 108.339 127.381 108.414L127.12 108.561C127.12 108.543 126.142 106.854 124.993 106.761C124.507 106.731 124.048 106.992 123.625 107.547C121.855 109.857 122.209 116.427 122.215 116.493L121.915 116.52Z" fill="#592CB8"/>
    <path d="M121.579 117.417L121.279 117.393C121.279 117.237 122.434 101.829 120.535 99.2639L120.775 99.0869C122.74 101.742 121.627 116.778 121.579 117.417Z" fill="#592CB8"/>
    <path d="M116.701 107.745C116.701 107.745 117.874 108.177 117.526 109.2C117.178 110.223 113.461 111.9 113.461 111.9C113.461 111.9 111.907 110.475 113.335 108.156C114.763 105.837 116.656 107.013 116.701 107.745Z" fill="#592CB8"/>
    <path opacity="0.5" d="M116.701 107.745C116.701 107.745 117.874 108.177 117.526 109.2C117.178 110.223 113.461 111.9 113.461 111.9C113.461 111.9 111.907 110.475 113.335 108.156C114.763 105.837 116.656 107.013 116.701 107.745Z" fill="white"/>
    <path d="M121.801 105.798C121.801 105.798 120.55 105.747 120.478 106.824C120.406 107.901 123.178 110.883 123.178 110.883C123.178 110.883 125.164 110.166 124.735 107.478C124.306 104.79 122.101 105.135 121.801 105.798Z" fill="#592CB8"/>
    <path opacity="0.5" d="M121.801 105.798C121.801 105.798 120.55 105.747 120.478 106.824C120.406 107.901 123.178 110.883 123.178 110.883C123.178 110.883 125.164 110.166 124.735 107.478C124.306 104.79 122.101 105.135 121.801 105.798Z" fill="white"/>
    <path d="M122.85 100.638C122.85 100.638 122.019 100.548 122.085 100.038C122.151 99.5283 125.325 98.2233 127.2 100.338C127.2 100.338 126 102.396 124.266 102.423C122.532 102.45 122.85 100.638 122.85 100.638Z" fill="#592CB8"/>
    <path opacity="0.5" d="M122.85 100.638C122.85 100.638 122.019 100.548 122.085 100.038C122.151 99.5283 125.325 98.2233 127.2 100.338C127.2 100.338 126 102.396 124.266 102.423C122.532 102.45 122.85 100.638 122.85 100.638Z" fill="white"/>
    <path d="M121.3 99.4052C121.3 99.4052 122.053 99.7712 122.266 99.3032C122.479 98.8352 120.466 96.0482 117.766 96.8522C117.766 96.8522 117.694 99.2342 119.152 100.176C120.61 101.118 121.3 99.4052 121.3 99.4052Z" fill="#592CB8"/>
    <path opacity="0.5" d="M121.3 99.4052C121.3 99.4052 122.053 99.7712 122.266 99.3032C122.479 98.8352 120.466 96.0482 117.766 96.8522C117.766 96.8522 117.694 99.2342 119.152 100.176C120.61 101.118 121.3 99.4052 121.3 99.4052Z" fill="white"/>
    <path d="M125.248 107.334C125.248 107.334 124.672 106.869 125.293 106.641C125.914 106.413 128.959 106.479 128.992 109.497C128.992 109.497 125.443 110.097 125.005 108.939C124.567 107.781 125.248 107.334 125.248 107.334Z" fill="#592CB8"/>
    <path opacity="0.5" d="M125.248 107.334C125.248 107.334 124.672 106.869 125.293 106.641C125.914 106.413 128.959 106.479 128.992 109.497C128.992 109.497 125.443 110.097 125.005 108.939C124.567 107.781 125.248 107.334 125.248 107.334Z" fill="white"/>
    <path d="M118.009 100.563C118.009 100.563 118.585 100.098 117.964 99.8734C117.343 99.6484 114.295 99.7083 114.265 102.729C114.265 102.729 117.814 103.329 118.252 102.168C118.69 101.007 118.009 100.563 118.009 100.563Z" fill="#592CB8"/>
    <path opacity="0.5" d="M118.009 100.563C118.009 100.563 118.585 100.098 117.964 99.8734C117.343 99.6484 114.295 99.7083 114.265 102.729C114.265 102.729 117.814 103.329 118.252 102.168C118.69 101.007 118.009 100.563 118.009 100.563Z" fill="white"/>
    <path d="M119.886 102.996C119.886 102.996 119.934 102.429 119.478 102.651C119.022 102.873 117.435 104.586 119.082 106.212C119.082 106.212 121.299 104.571 120.897 103.716C120.495 102.861 119.886 102.996 119.886 102.996Z" fill="#592CB8"/>
    <path opacity="0.5" d="M119.886 102.996C119.886 102.996 119.934 102.429 119.478 102.651C119.022 102.873 117.435 104.586 119.082 106.212C119.082 106.212 121.299 104.571 120.897 103.716C120.495 102.861 119.886 102.996 119.886 102.996Z" fill="white"/>
    <path d="M125.76 103.8C125.76 103.8 125.415 103.35 125.919 103.293C126.423 103.236 128.682 103.839 128.157 106.095C128.157 106.095 125.406 105.888 125.286 104.952C125.166 104.016 125.76 103.8 125.76 103.8Z" fill="#592CB8"/>
    <path opacity="0.5" d="M125.76 103.8C125.76 103.8 125.415 103.35 125.919 103.293C126.423 103.236 128.682 103.839 128.157 106.095C128.157 106.095 125.406 105.888 125.286 104.952C125.166 104.016 125.76 103.8 125.76 103.8Z" fill="white"/>
    <path d="M116.466 124.878H125.904L126.924 114.546H115.449L116.466 124.878Z" fill="#263238"/>
    <path opacity="0.2" d="M116.466 124.878H125.904L126.924 114.546H115.449L116.466 124.878Z" fill="white"/>
    <path d="M114.945 115.687H127.428V113.407H114.945V115.687Z" fill="#263238"/>
    <path opacity="0.4" d="M114.945 115.687H127.428V113.407H114.945V115.687Z" fill="white"/>
    <path d="M31.333 102.6C31.27 103.041 32.464 103.329 33.433 103.5C33.355 104.301 32.833 105.108 32.086 105.864C31.162 105.342 29.839 104.664 29.596 104.823C29.353 104.982 30.682 105.882 31.528 106.395C30.9239 106.924 30.2833 107.409 29.611 107.847C29.197 107.46 28.711 107.121 28.411 107.304C28.111 107.487 28.192 108.093 28.339 108.63C27.334 109.23 26.578 109.575 26.578 109.575C26.2851 108.64 26.0605 107.684 25.906 106.716C25.957 106.614 26.008 106.512 26.053 106.416C26.215 106.041 26.053 105.879 25.789 105.816C25.7171 105.131 25.7171 104.44 25.789 103.755C26.929 103.518 28.315 103.074 27.796 102.39C27.496 101.979 26.896 101.931 26.296 102.036C26.378 101.9 26.4724 101.771 26.578 101.652C28.654 99.3662 30.1 101.652 30.1 101.652C31.3 100.647 32.998 100.92 33.364 102.489C32.701 102.3 31.411 102.048 31.333 102.6Z" fill="#592CB8"/>
    <path opacity="0.3" d="M31.333 102.6C31.27 103.041 32.464 103.329 33.433 103.5C33.355 104.301 32.833 105.108 32.086 105.864C31.162 105.342 29.839 104.664 29.596 104.823C29.353 104.982 30.682 105.882 31.528 106.395C30.9239 106.924 30.2833 107.409 29.611 107.847C29.197 107.46 28.711 107.121 28.411 107.304C28.111 107.487 28.192 108.093 28.339 108.63C27.334 109.23 26.578 109.575 26.578 109.575C26.2851 108.64 26.0605 107.684 25.906 106.716C25.957 106.614 26.008 106.512 26.053 106.416C26.215 106.041 26.053 105.879 25.789 105.816C25.7171 105.131 25.7171 104.44 25.789 103.755C26.929 103.518 28.315 103.074 27.796 102.39C27.496 101.979 26.896 101.931 26.296 102.036C26.378 101.9 26.4724 101.771 26.578 101.652C28.654 99.3662 30.1 101.652 30.1 101.652C31.3 100.647 32.998 100.92 33.364 102.489C32.701 102.3 31.411 102.048 31.333 102.6Z" fill="white"/>
    <path d="M28.7424 119.4L29.0424 119.376C29.0424 119.223 27.8124 103.92 31.2474 102.477C31.4109 102.4 31.5901 102.362 31.7708 102.366C31.9515 102.371 32.1287 102.417 32.2884 102.501C33.5304 103.149 34.1244 105.828 34.1304 105.855L34.4304 105.789C34.4034 105.675 33.8004 102.948 32.4324 102.237C32.2337 102.132 32.0134 102.074 31.7886 102.068C31.5639 102.062 31.3407 102.107 31.1364 102.201C27.4974 103.713 28.6914 118.749 28.7424 119.4Z" fill="#592CB8"/>
    <path d="M28.3113 119.058C28.3713 118.368 29.7723 102.177 27.1533 100.458C26.5233 100.047 25.9532 99.957 25.4882 100.2C24.2492 100.824 24.0872 103.473 24.0782 103.584L24.3782 103.602C24.3782 103.575 24.5372 101.013 25.6232 100.467C25.9953 100.278 26.4542 100.359 26.9883 100.71C29.4603 102.33 28.0263 118.863 28.0113 119.031L28.3113 119.058Z" fill="#592CB8"/>
    <path d="M27.9161 120.366C27.9371 119.838 28.3691 107.445 25.9811 106.359C25.7589 106.255 25.5167 106.202 25.2716 106.202C25.0264 106.202 24.7842 106.255 24.5621 106.359C22.9241 107.079 21.9131 110.13 21.8621 110.259L22.1471 110.352C22.1471 110.322 23.1581 107.298 24.6731 106.632C24.8567 106.545 25.0576 106.499 25.2611 106.499C25.4645 106.499 25.6654 106.545 25.8491 106.632C27.6791 107.466 27.7391 116.832 27.6071 120.354L27.9161 120.366Z" fill="#592CB8"/>
    <path d="M28.5239 119.799L28.8239 119.766C28.4039 116.076 27.5999 106.248 28.9139 105.066C28.9773 104.989 29.0619 104.931 29.1573 104.902C29.2527 104.872 29.3548 104.87 29.4509 104.898C30.3299 105.237 30.8669 108.435 30.9989 109.638L31.2989 109.605C31.2479 109.143 30.7679 105.084 29.5589 104.619C29.4115 104.57 29.2532 104.565 29.1031 104.605C28.953 104.644 28.8175 104.726 28.7129 104.841C26.9999 106.365 28.4609 119.253 28.5239 119.799Z" fill="#592CB8"/>
    <path d="M33.5314 112.806H22.7524L23.6524 124.878H32.6314L33.5314 112.806Z" fill="#592CB8"/>
    <path opacity="0.2" d="M30.2554 112.806L29.9554 124.878H23.6524L22.7524 112.806H30.2554Z" fill="white"/>
    <path d="M32.0608 108.375C32.1748 108.675 33.0118 108.438 33.6688 108.204C33.8938 108.726 33.8428 109.404 33.6478 110.127C32.8978 110.127 31.8478 110.148 31.7548 110.337C31.6618 110.526 32.7868 110.616 33.4858 110.637C33.2948 111.17 33.0662 111.69 32.8018 112.191C32.4118 112.095 31.9978 112.05 31.8808 112.263C31.7638 112.476 32.0188 112.827 32.2918 113.106C31.8718 113.811 31.5298 114.291 31.5298 114.291C31.0287 113.814 30.5625 113.302 30.1348 112.758C30.1348 112.68 30.1348 112.599 30.1348 112.518C30.1078 112.218 29.9548 112.185 29.7718 112.245C29.4861 111.856 29.2408 111.439 29.0398 111C29.6608 110.46 30.3628 109.713 29.8078 109.47C29.4748 109.323 29.1058 109.491 28.7728 109.77C28.7776 109.658 28.7916 109.546 28.8148 109.437C29.3098 107.316 30.9868 108.237 30.9868 108.237C31.3858 107.202 32.5228 106.791 33.2878 107.637C32.8108 107.727 31.9228 108 32.0608 108.375Z" fill="#592CB8"/>
    <path opacity="0.3" d="M32.0608 108.375C32.1748 108.675 33.0118 108.438 33.6688 108.204C33.8938 108.726 33.8428 109.404 33.6478 110.127C32.8978 110.127 31.8478 110.148 31.7548 110.337C31.6618 110.526 32.7868 110.616 33.4858 110.637C33.2948 111.17 33.0662 111.69 32.8018 112.191C32.4118 112.095 31.9978 112.05 31.8808 112.263C31.7638 112.476 32.0188 112.827 32.2918 113.106C31.8718 113.811 31.5298 114.291 31.5298 114.291C31.0287 113.814 30.5625 113.302 30.1348 112.758C30.1348 112.68 30.1348 112.599 30.1348 112.518C30.1078 112.218 29.9548 112.185 29.7718 112.245C29.4861 111.856 29.2408 111.439 29.0398 111C29.6608 110.46 30.3628 109.713 29.8078 109.47C29.4748 109.323 29.1058 109.491 28.7728 109.77C28.7776 109.658 28.7916 109.546 28.8148 109.437C29.3098 107.316 30.9868 108.237 30.9868 108.237C31.3858 107.202 32.5228 106.791 33.2878 107.637C32.8108 107.727 31.9228 108 32.0608 108.375Z" fill="white"/>
    <path d="M24.0602 109.8C24.3955 109.828 24.7261 109.898 25.0442 110.007C25.1311 109.78 25.1797 109.539 25.1882 109.296C25.2572 107.121 23.6882 108.036 22.8782 107.4C22.6927 107.235 22.4743 107.111 22.2375 107.037C22.0006 106.963 21.7507 106.939 21.5042 106.968C21.574 107.088 21.6361 107.212 21.6902 107.34C21.7093 107.388 21.7174 107.439 21.714 107.49C21.7105 107.542 21.6955 107.592 21.6701 107.636C21.6448 107.681 21.6097 107.719 21.5674 107.749C21.5252 107.778 21.4769 107.797 21.4262 107.805C21.2236 107.844 21.0137 107.819 20.8262 107.733C20.7697 107.701 20.7165 107.664 20.6672 107.622C20.5356 107.851 20.4347 108.096 20.3672 108.351C20.284 108.655 20.2367 108.967 20.2262 109.281C20.3491 109.308 20.4704 109.342 20.5892 109.383C20.6367 109.403 20.679 109.434 20.7128 109.473C20.7466 109.512 20.771 109.558 20.784 109.608C20.7971 109.658 20.7985 109.71 20.7881 109.76C20.7777 109.811 20.7559 109.858 20.7242 109.899C20.5953 110.03 20.4439 110.137 20.2772 110.214C20.3327 110.563 20.4242 110.905 20.5502 111.234L20.6612 111.249C20.7402 111.265 20.8183 111.285 20.8952 111.309C20.9402 111.321 20.9843 111.336 21.0272 111.354C21.0804 111.378 21.1267 111.414 21.1619 111.46C21.197 111.506 21.2199 111.561 21.2282 111.618C21.2374 111.677 21.2305 111.738 21.2083 111.793C21.1862 111.848 21.1495 111.897 21.1022 111.933C21.0507 111.97 20.9965 112.003 20.9402 112.032C21.1472 112.392 21.4438 112.691 21.8012 112.902C22.1101 112.757 22.4106 112.595 22.7012 112.416C22.6352 112.329 22.5722 112.242 22.5122 112.152C22.4405 112.054 22.4074 111.934 22.4192 111.813C22.4368 111.694 22.5003 111.586 22.5962 111.513C22.6938 111.44 22.8162 111.408 22.9373 111.423C23.0583 111.439 23.1685 111.501 23.2442 111.597C23.3162 111.705 23.3942 111.807 23.4722 111.897C23.895 111.598 24.2745 111.241 24.6002 110.838H24.5672C24.3708 110.786 24.1699 110.751 23.9672 110.736C23.8455 110.72 23.735 110.657 23.6602 110.559C23.5854 110.462 23.5523 110.339 23.5682 110.217C23.5841 110.095 23.6477 109.985 23.7451 109.91C23.8424 109.835 23.9655 109.802 24.0872 109.818L24.0602 109.8Z" fill="#592CB8"/>
    <path opacity="0.5" d="M24.0602 109.8C24.3955 109.828 24.7261 109.898 25.0442 110.007C25.1311 109.78 25.1797 109.539 25.1882 109.296C25.2572 107.121 23.6882 108.036 22.8782 107.4C22.6927 107.235 22.4743 107.111 22.2375 107.037C22.0006 106.963 21.7507 106.939 21.5042 106.968C21.574 107.088 21.6361 107.212 21.6902 107.34C21.7093 107.388 21.7174 107.439 21.714 107.49C21.7105 107.542 21.6955 107.592 21.6701 107.636C21.6448 107.681 21.6097 107.719 21.5674 107.749C21.5252 107.778 21.4769 107.797 21.4262 107.805C21.2236 107.844 21.0137 107.819 20.8262 107.733C20.7697 107.701 20.7165 107.664 20.6672 107.622C20.5356 107.851 20.4347 108.096 20.3672 108.351C20.284 108.655 20.2367 108.967 20.2262 109.281C20.3491 109.308 20.4704 109.342 20.5892 109.383C20.6367 109.403 20.679 109.434 20.7128 109.473C20.7466 109.512 20.771 109.558 20.784 109.608C20.7971 109.658 20.7985 109.71 20.7881 109.76C20.7777 109.811 20.7559 109.858 20.7242 109.899C20.5953 110.03 20.4439 110.137 20.2772 110.214C20.3327 110.563 20.4242 110.905 20.5502 111.234L20.6612 111.249C20.7402 111.265 20.8183 111.285 20.8952 111.309C20.9402 111.321 20.9843 111.336 21.0272 111.354C21.0804 111.378 21.1267 111.414 21.1619 111.46C21.197 111.506 21.2199 111.561 21.2282 111.618C21.2374 111.677 21.2305 111.738 21.2083 111.793C21.1862 111.848 21.1495 111.897 21.1022 111.933C21.0507 111.97 20.9965 112.003 20.9402 112.032C21.1472 112.392 21.4438 112.691 21.8012 112.902C22.1101 112.757 22.4106 112.595 22.7012 112.416C22.6352 112.329 22.5722 112.242 22.5122 112.152C22.4405 112.054 22.4074 111.934 22.4192 111.813C22.4368 111.694 22.5003 111.586 22.5962 111.513C22.6938 111.44 22.8162 111.408 22.9373 111.423C23.0583 111.439 23.1685 111.501 23.2442 111.597C23.3162 111.705 23.3942 111.807 23.4722 111.897C23.895 111.598 24.2745 111.241 24.6002 110.838H24.5672C24.3708 110.786 24.1699 110.751 23.9672 110.736C23.8455 110.72 23.735 110.657 23.6602 110.559C23.5854 110.462 23.5523 110.339 23.5682 110.217C23.5841 110.095 23.6477 109.985 23.7451 109.91C23.8424 109.835 23.9655 109.802 24.0872 109.818L24.0602 109.8Z" fill="white"/>
    <path d="M23.4358 102.315C23.2493 102.184 23.0479 102.075 22.8358 101.991C22.8913 101.833 22.9713 101.686 23.0728 101.553C23.9908 100.38 24.4078 101.553 25.1188 101.571C25.2869 101.567 25.4539 101.599 25.609 101.664C25.764 101.729 25.9036 101.826 26.0188 101.949C25.9294 101.981 25.8423 102.019 25.7578 102.063C25.7268 102.079 25.6999 102.103 25.6792 102.131C25.6585 102.16 25.6444 102.192 25.6381 102.227C25.6317 102.262 25.6333 102.297 25.6426 102.331C25.6519 102.365 25.6687 102.396 25.6918 102.423C25.7836 102.533 25.9072 102.613 26.0458 102.651C26.0887 102.655 26.1319 102.655 26.1748 102.651C26.1442 102.828 26.0897 103.001 26.0128 103.164C25.9228 103.359 25.8111 103.543 25.6798 103.713C25.6028 103.674 25.5236 103.639 25.4428 103.608C25.4088 103.597 25.3728 103.595 25.3376 103.6C25.3024 103.606 25.269 103.619 25.2399 103.64C25.2109 103.661 25.187 103.688 25.1702 103.719C25.1533 103.75 25.1439 103.785 25.1428 103.821C25.152 103.947 25.1845 104.07 25.2388 104.184C25.053 104.341 24.852 104.48 24.6388 104.598L24.5728 104.559C24.5248 104.532 24.4738 104.508 24.4258 104.487C24.3974 104.472 24.3671 104.461 24.3358 104.454C24.2969 104.441 24.2551 104.438 24.2148 104.446C24.1744 104.454 24.137 104.473 24.1065 104.501C24.0759 104.528 24.0532 104.563 24.0408 104.603C24.0283 104.642 24.0266 104.684 24.0358 104.724C24.0466 104.766 24.0607 104.807 24.0778 104.847C23.8111 104.944 23.5239 104.971 23.2438 104.925C23.1417 104.711 23.0526 104.492 22.9768 104.268L23.1928 104.214C23.2731 104.201 23.3464 104.161 23.3998 104.1C23.4433 104.028 23.4583 103.942 23.4418 103.86C23.4232 103.778 23.373 103.707 23.3022 103.662C23.2314 103.617 23.1457 103.602 23.0638 103.62C22.9798 103.644 22.8928 103.665 22.8058 103.683C22.7214 103.341 22.6851 102.988 22.6978 102.636H22.7188C22.8473 102.696 22.9699 102.769 23.0848 102.852C23.1564 102.895 23.2421 102.909 23.3237 102.891C23.4054 102.872 23.4767 102.823 23.5228 102.753C23.568 102.683 23.5842 102.598 23.5679 102.516C23.5517 102.435 23.5043 102.362 23.4358 102.315Z" fill="#592CB8"/>
    <path opacity="0.3" d="M23.4358 102.315C23.2493 102.184 23.0479 102.075 22.8358 101.991C22.8913 101.833 22.9713 101.686 23.0728 101.553C23.9908 100.38 24.4078 101.553 25.1188 101.571C25.2869 101.567 25.4539 101.599 25.609 101.664C25.764 101.729 25.9036 101.826 26.0188 101.949C25.9294 101.981 25.8423 102.019 25.7578 102.063C25.7268 102.079 25.6999 102.103 25.6792 102.131C25.6585 102.16 25.6444 102.192 25.6381 102.227C25.6317 102.262 25.6333 102.297 25.6426 102.331C25.6519 102.365 25.6687 102.396 25.6918 102.423C25.7836 102.533 25.9072 102.613 26.0458 102.651C26.0887 102.655 26.1319 102.655 26.1748 102.651C26.1442 102.828 26.0897 103.001 26.0128 103.164C25.9228 103.359 25.8111 103.543 25.6798 103.713C25.6028 103.674 25.5236 103.639 25.4428 103.608C25.4088 103.597 25.3728 103.595 25.3376 103.6C25.3024 103.606 25.269 103.619 25.2399 103.64C25.2109 103.661 25.187 103.688 25.1702 103.719C25.1533 103.75 25.1439 103.785 25.1428 103.821C25.152 103.947 25.1845 104.07 25.2388 104.184C25.053 104.341 24.852 104.48 24.6388 104.598L24.5728 104.559C24.5248 104.532 24.4738 104.508 24.4258 104.487C24.3974 104.472 24.3671 104.461 24.3358 104.454C24.2969 104.441 24.2551 104.438 24.2148 104.446C24.1744 104.454 24.137 104.473 24.1065 104.501C24.0759 104.528 24.0532 104.563 24.0408 104.603C24.0283 104.642 24.0266 104.684 24.0358 104.724C24.0466 104.766 24.0607 104.807 24.0778 104.847C23.8111 104.944 23.5239 104.971 23.2438 104.925C23.1417 104.711 23.0526 104.492 22.9768 104.268L23.1928 104.214C23.2731 104.201 23.3464 104.161 23.3998 104.1C23.4433 104.028 23.4583 103.942 23.4418 103.86C23.4232 103.778 23.373 103.707 23.3022 103.662C23.2314 103.617 23.1457 103.602 23.0638 103.62C22.9798 103.644 22.8928 103.665 22.8058 103.683C22.7214 103.341 22.6851 102.988 22.6978 102.636H22.7188C22.8473 102.696 22.9699 102.769 23.0848 102.852C23.1564 102.895 23.2421 102.909 23.3237 102.891C23.4054 102.872 23.4767 102.823 23.5228 102.753C23.568 102.683 23.5842 102.598 23.5679 102.516C23.5517 102.435 23.5043 102.362 23.4358 102.315Z" fill="white"/>
    <path d="M32.2199 104.49C32.2829 104.931 31.0859 105.222 30.1199 105.39C30.1979 106.191 30.7199 107.001 31.4669 107.757C32.3939 107.235 33.7139 106.557 33.9569 106.713C34.1999 106.869 32.8709 107.772 32.0249 108.288C32.6296 108.816 33.2701 109.301 33.9419 109.74C34.3559 109.35 34.8419 109.011 35.1419 109.194C35.4419 109.377 35.3609 109.986 35.2139 110.52C36.2219 111.12 36.9749 111.465 36.9749 111.465C37.2678 110.53 37.4924 109.574 37.6469 108.606C37.5959 108.507 37.5449 108.405 37.4999 108.306C37.3379 107.931 37.4999 107.772 37.7639 107.706C37.8358 107.022 37.8358 106.332 37.7639 105.648C36.6269 105.408 35.2409 104.967 35.7599 104.283C36.0599 103.869 36.6449 103.824 37.2419 103.926C37.1599 103.79 37.0655 103.661 36.9599 103.542C34.8869 101.259 33.4379 103.542 33.4379 103.542C32.2379 102.54 30.5399 102.81 30.1739 104.379C30.8459 104.205 32.1419 103.947 32.2199 104.49Z" fill="#592CB8"/>
    <path opacity="0.5" d="M32.2199 104.49C32.2829 104.931 31.0859 105.222 30.1199 105.39C30.1979 106.191 30.7199 107.001 31.4669 107.757C32.3939 107.235 33.7139 106.557 33.9569 106.713C34.1999 106.869 32.8709 107.772 32.0249 108.288C32.6296 108.816 33.2701 109.301 33.9419 109.74C34.3559 109.35 34.8419 109.011 35.1419 109.194C35.4419 109.377 35.3609 109.986 35.2139 110.52C36.2219 111.12 36.9749 111.465 36.9749 111.465C37.2678 110.53 37.4924 109.574 37.6469 108.606C37.5959 108.507 37.5449 108.405 37.4999 108.306C37.3379 107.931 37.4999 107.772 37.7639 107.706C37.8358 107.022 37.8358 106.332 37.7639 105.648C36.6269 105.408 35.2409 104.967 35.7599 104.283C36.0599 103.869 36.6449 103.824 37.2419 103.926C37.1599 103.79 37.0655 103.661 36.9599 103.542C34.8869 101.259 33.4379 103.542 33.4379 103.542C32.2379 102.54 30.5399 102.81 30.1739 104.379C30.8459 104.205 32.1419 103.947 32.2199 104.49Z" fill="white"/>
    <path d="M87.1368 56.2201C87.0588 56.6701 86.9778 57.0451 86.8788 57.4501C86.7798 57.8551 86.6748 58.2391 86.5578 58.6291C86.3295 59.4176 86.055 60.1919 85.7358 60.9481C85.0818 62.4661 84.2748 63.9901 82.9248 65.2951C82.5764 65.6301 82.1932 65.9268 81.7818 66.1801C81.6768 66.2401 81.5598 66.3121 81.4638 66.3631L81.1878 66.5041C81.0018 66.5971 80.8218 66.6841 80.6358 66.7651C79.9008 67.0981 79.1748 67.3981 78.4368 67.6651C76.9743 68.2153 75.4831 68.686 73.9698 69.0751L73.4058 67.6411C74.7408 66.8911 76.1058 66.1681 77.4258 65.4451C78.0858 65.0791 78.7488 64.7221 79.3788 64.3441C79.5348 64.2511 79.6788 64.1611 79.8438 64.0651L80.0718 63.9241C80.1408 63.8791 80.1858 63.8431 80.2428 63.8041C80.4757 63.6366 80.6899 63.4445 80.8818 63.2311C81.7068 62.3461 82.3518 61.0861 82.8618 59.7721C83.1258 59.1151 83.3448 58.4281 83.5548 57.7381C83.6568 57.3901 83.7528 57.0421 83.8548 56.6911C83.9568 56.3401 84.0288 55.9741 84.0918 55.6711L87.1368 56.2201Z" fill="#CE7A63"/>
    <path d="M80.8738 60.3272L84.1138 62.7452C84.1138 62.7452 84.2398 62.6072 84.4438 62.3702C84.5938 62.1962 84.7888 61.9652 85.0108 61.6952C86.2708 60.1592 88.1128 57.3602 88.1278 55.9952C88.1488 53.9492 86.0278 53.6492 83.6458 55.7402C82.6168 56.6402 82.0798 58.1402 81.5458 59.0672C81.3718 59.3672 81.2278 59.6432 81.1138 59.8502C80.9638 60.1472 80.8738 60.3272 80.8738 60.3272Z" fill="#592CB8"/>
    <path opacity="0.3" d="M88.1483 56.2233C87.4163 55.7403 86.8823 56.9943 85.4333 58.0533C84.7883 58.5243 83.3753 61.6023 83.4893 62.2803L84.1163 62.7453C84.1163 62.7453 88.1633 58.2633 88.1483 56.2233Z" fill="black"/>
    <path d="M73.9834 67.4792L71.3044 66.7712L71.4934 69.4262C71.4934 69.4262 74.1094 69.6902 74.3524 68.9042L73.9834 67.4792Z" fill="#CE7A63"/>
    <path d="M69.2426 68.1452L69.8516 69.9572L71.4926 69.4262L71.3036 66.7712L69.2426 68.1452Z" fill="#CE7A63"/>
    <path d="M84.9205 72.1981H95.8915C95.9665 71.2201 95.7415 68.0311 95.9095 63.9751C96.0148 60.9664 96.3791 57.9723 96.9985 55.0261L97.1515 54.3661C97.1515 54.3661 96.5965 54.2521 95.7985 54.1351C95.1385 54.0391 94.2985 53.9401 93.4945 53.9011C91.9417 53.8126 90.3852 53.8126 88.8325 53.9011C88.1155 53.9671 87.4165 54.0871 86.8585 54.2011C86.1445 54.3451 85.7215 54.4681 85.7215 54.4681C85.7215 54.4681 83.0215 60.6661 84.9205 72.1981Z" fill="#592CB8"/>
    <path opacity="0.3" d="M95.9098 63.9752C96.0151 60.9674 96.3794 57.9743 96.9988 55.0292C96.2668 54.9632 95.0128 55.0292 94.8058 56.2292C94.5808 57.4922 94.8628 60.4862 95.9098 63.9752Z" fill="black"/>
    <path d="M93.3951 49.2L92.1471 50.235L90.4491 51.645C90.4976 51.8718 90.5336 52.1012 90.5571 52.332C90.6471 53.253 90.4101 53.571 89.0571 53.892C89.0571 53.892 87.4491 54.957 89.8341 55.152C89.8431 55.4109 89.8834 55.6677 89.9541 55.917C90.1638 55.626 90.4239 55.3751 90.7221 55.176C93.3321 55.131 93.6771 53.922 93.6771 53.922C92.6571 52.911 93.0501 50.7 93.3951 49.2Z" fill="#CE7A63"/>
    <path opacity="0.2" d="M90.4502 51.6358C90.4987 51.8627 90.5347 52.092 90.5582 52.3228C91.1912 52.1968 92.0372 51.5218 92.1272 50.8738C92.1571 50.6592 92.1641 50.442 92.1482 50.2258L90.4502 51.6358Z" fill="black"/>
    <path d="M85.8946 122.76L83.5876 123.003L83.4706 121.665L83.1556 118.026L85.4626 117.78L85.8136 121.803L85.8946 122.76Z" fill="#9F5B53"/>
    <path d="M97.4123 122.469H95.1773L95.1563 121.962L95.1533 121.899L95.0393 118.656L95.0363 118.59L94.9913 117.345H97.2323L97.4123 122.469Z" fill="#9F5B53"/>
    <path opacity="0.2" d="M85.4626 117.78L85.8136 121.803L83.4706 121.665L83.1556 118.026L85.4626 117.78Z" fill="black"/>
    <path opacity="0.2" d="M97.4001 122.184H97.3971L95.1561 121.899H95.1531L95.0361 118.77H95.0391L97.2831 118.947L97.3971 122.085L97.4001 122.184Z" fill="black"/>
    <path d="M94.8681 122.334H97.5681C97.6128 122.334 97.6562 122.349 97.6912 122.377C97.7261 122.405 97.7505 122.444 97.7601 122.487L98.2011 124.479C98.2189 124.565 98.202 124.654 98.1542 124.727C98.1064 124.8 98.0316 124.851 97.9461 124.869H97.8741C96.9951 124.854 96.3531 124.8 95.2491 124.8C94.5711 124.8 92.5191 124.869 91.5801 124.869C90.6411 124.869 90.5181 123.942 90.9021 123.858C92.6271 123.483 93.9231 122.958 94.4751 122.466C94.5835 122.372 94.7248 122.325 94.8681 122.334Z" fill="#263238"/>
    <path d="M83.3433 122.262H86.0612C86.1059 122.262 86.1494 122.277 86.1844 122.304C86.2193 122.332 86.2436 122.371 86.2533 122.415L86.6943 124.407C86.712 124.492 86.6951 124.582 86.6473 124.655C86.5995 124.728 86.5247 124.779 86.4393 124.797H86.3673C85.4883 124.797 84.8463 124.728 83.7423 124.728C83.0613 124.728 81.0123 124.8 80.0733 124.8C79.1343 124.8 79.0113 123.873 79.3953 123.786C81.1202 123.411 82.4163 122.886 82.9683 122.394C83.0719 122.304 83.206 122.257 83.3433 122.262Z" fill="#263238"/>
    <path d="M97.6975 121.614H94.4605C94.4605 121.614 91.8505 107.655 90.8185 100.542C90.6595 99.4382 90.4855 97.9892 90.3115 96.3032C90.0385 93.5732 89.7565 90.3032 89.5045 87.1532C88.7305 89.2352 88.1395 92.2082 87.6835 95.5832C86.0605 107.673 86.2255 121.329 86.2255 121.329H82.9435C80.4115 101.982 83.7925 78.1742 84.9205 72.1982H95.8885C95.9065 73.6202 96.5095 93.7982 96.9325 101.397C97.3135 108.387 97.6975 121.614 97.6975 121.614Z" fill="#263238"/>
    <path d="M82.5753 120.405L82.7373 121.329H86.6133V120.477L82.5753 120.405Z" fill="#592CB8"/>
    <path d="M94.0851 120.759L94.4571 121.614H97.7091L97.9221 120.759H94.0851Z" fill="#592CB8"/>
    <path d="M93.4587 49.3801C93.4587 49.3801 94.1247 49.7101 94.3257 49.3291C94.5267 48.9481 94.3257 48.3601 94.6527 48.2491C94.9797 48.1381 95.6877 48.1231 95.6427 47.7241C95.5977 47.3251 95.1477 47.0041 95.4567 46.7461C95.7657 46.4881 96.3987 46.1221 96.1167 45.8101C95.8347 45.4981 95.5737 44.9851 95.8167 44.7991C96.0597 44.6131 95.7417 43.5481 95.1117 43.6201C94.4817 43.6921 94.5867 43.1761 94.6017 42.7201C94.6167 42.2641 93.6777 41.8831 93.4557 42.3361C93.2337 42.7891 92.7507 42.2131 92.6187 41.8111C92.4867 41.4091 92.2167 41.2711 91.6497 41.5531C91.0827 41.8351 90.9987 42.7861 90.7077 42.2371C90.4167 41.6881 89.7717 41.3371 89.4567 41.6371C89.1417 41.9371 89.3307 42.3331 88.8357 42.3121C88.3407 42.2911 87.6537 43.1881 87.8967 43.3261C88.1397 43.4641 88.1037 43.7101 87.7707 43.9801C87.4377 44.2501 87.0507 44.6881 87.4857 44.8801C87.9207 45.0721 87.8937 45.3901 87.7647 45.5191C87.6357 45.6481 88.0257 46.2751 88.6107 46.2391C89.1957 46.2031 93.4587 49.3801 93.4587 49.3801Z" fill="#263238"/>
    <path d="M88.3142 43.7161C88.3142 43.7161 87.1983 46.3651 88.3922 47.7961C89.5862 49.2271 90.8822 44.0971 90.8822 44.0971L88.3142 43.7161Z" fill="#263238"/>
    <path d="M92.0991 51.0572C91.6785 51.4334 91.1458 51.6611 90.5831 51.705C90.0205 51.7489 89.459 51.6066 88.9851 51.3002C88.3628 50.9175 87.9108 50.3109 87.7221 49.6052C87.6951 49.5092 87.6741 49.4102 87.6561 49.3052C87.3561 47.4392 87.8751 44.4362 89.9361 43.7822C90.3901 43.6361 90.8738 43.6085 91.3415 43.7019C91.8091 43.7954 92.2451 44.0067 92.6082 44.316C92.9712 44.6252 93.2492 45.0221 93.4158 45.4689C93.5824 45.9157 93.6321 46.3977 93.5601 46.8692C93.2661 48.9002 93.1971 50.1002 92.0991 51.0572Z" fill="#CE7A63"/>
    <path d="M90.4099 47.199C90.4099 47.364 90.2989 47.499 90.1879 47.484C90.0769 47.469 90.0049 47.334 90.0169 47.166C90.0289 46.998 90.1279 46.866 90.2359 46.884C90.3439 46.902 90.4219 47.031 90.4099 47.199Z" fill="#263238"/>
    <path d="M88.5353 47.0522C88.5353 47.2173 88.4213 47.3523 88.3163 47.3373C88.2113 47.3223 88.1303 47.1873 88.1423 47.0192C88.1543 46.8512 88.2563 46.7192 88.3613 46.7372C88.4663 46.7552 88.5473 46.8962 88.5353 47.0522Z" fill="#263238"/>
    <path d="M89.1239 47.1809C88.8883 47.6725 88.5854 48.1289 88.2239 48.5369C88.3315 48.6273 88.4577 48.693 88.5935 48.7293C88.7294 48.7656 88.8715 48.7716 89.0099 48.7469L89.1239 47.1809Z" fill="#BA4D3C"/>
    <path d="M87.9003 46.23C87.9155 46.2396 87.9332 46.2447 87.9513 46.2447C87.9693 46.2447 87.987 46.2396 88.0023 46.23C88.1056 46.1643 88.2227 46.1233 88.3445 46.1103C88.4662 46.0973 88.5894 46.1126 88.7042 46.155C88.7157 46.1608 88.7282 46.1641 88.741 46.1649C88.7538 46.1657 88.7667 46.164 88.7788 46.1597C88.7909 46.1555 88.802 46.1489 88.8115 46.1403C88.821 46.1317 88.8287 46.1213 88.8341 46.1096C88.8395 46.098 88.8426 46.0854 88.843 46.0726C88.8435 46.0598 88.8414 46.047 88.8368 46.035C88.8323 46.023 88.8254 46.0121 88.8165 46.0028C88.8076 45.9935 88.797 45.9861 88.7853 45.981C88.6414 45.9243 88.4861 45.9026 88.3323 45.9178C88.1784 45.9329 88.0303 45.9844 87.9003 46.068C87.8784 46.0812 87.8625 46.1022 87.8558 46.1268C87.8491 46.1514 87.8521 46.1776 87.8643 46.2C87.8748 46.2116 87.8869 46.2217 87.9003 46.23Z" fill="#263238"/>
    <path d="M90.8363 46.4819C90.8549 46.4879 90.8748 46.4879 90.8933 46.4819C90.9113 46.4634 90.9213 46.4387 90.9213 46.4129C90.9213 46.3871 90.9113 46.3624 90.8933 46.3439C90.7873 46.2307 90.6557 46.1444 90.5096 46.0922C90.3635 46.04 90.2071 46.0235 90.0533 46.0439C90.028 46.0496 90.0059 46.0651 89.9919 46.087C89.9778 46.1089 89.973 46.1354 89.9783 46.1609C89.9841 46.1856 89.9991 46.2072 90.0203 46.2212C90.0416 46.2351 90.0673 46.2404 90.0923 46.2359C90.2144 46.2225 90.3378 46.2377 90.4529 46.2805C90.568 46.3232 90.6716 46.3921 90.7553 46.4819C90.768 46.4878 90.7818 46.4908 90.7958 46.4908C90.8098 46.4908 90.8236 46.4878 90.8363 46.4819Z" fill="#263238"/>
    <path d="M92.25 44.2173L92.025 44.5773C92.667 44.8773 92.436 45.6423 92.256 45.9753C91.872 46.6893 92.151 47.9103 92.67 48.4473C92.67 48.4473 92.727 48.1233 92.994 48.2343C93.261 48.3453 92.994 49.7343 92.994 49.7343C92.994 49.7343 93.225 50.1333 93.909 48.4113C94.539 46.8183 94.767 45.4563 94.509 44.7753L92.25 44.2173Z" fill="#263238"/>
    <path d="M94.3025 48.6002C94.1747 48.8214 94.004 49.0149 93.8006 49.1695C93.5971 49.324 93.3649 49.4364 93.1175 49.5002C92.4545 49.6682 92.1425 49.0712 92.3405 48.4562C92.5205 47.9102 93.0815 47.1482 93.7385 47.2562C93.8813 47.2814 94.0155 47.3421 94.1287 47.4327C94.242 47.5232 94.3308 47.6407 94.3869 47.7744C94.443 47.9081 94.4647 48.0538 94.4499 48.1981C94.4352 48.3423 94.3845 48.4806 94.3025 48.6002Z" fill="#CE7A63"/>
    <path d="M89.1001 49.155C89.258 49.4055 89.3974 49.6672 89.5171 49.938L89.6671 49.896C90.3481 49.71 90.6031 49.398 90.6781 49.11C90.7132 48.9682 90.7132 48.8199 90.6781 48.678C90.6594 48.5975 90.6301 48.5199 90.5911 48.447C90.2224 48.7496 89.7926 48.9686 89.3311 49.089C89.1871 49.134 89.1001 49.155 89.1001 49.155Z" fill="#263238"/>
    <path d="M89.3284 49.089L89.4574 49.317C90.0994 49.14 90.5254 48.927 90.6754 48.678C90.6567 48.5975 90.6274 48.5199 90.5884 48.447C90.2197 48.7496 89.7898 48.9686 89.3284 49.089Z" fill="white"/>
    <path d="M89.6631 49.8961C90.3441 49.7101 90.5991 49.3981 90.6741 49.1101C90.4169 49.1861 90.1752 49.307 89.9601 49.4671C89.8182 49.5751 89.7142 49.7253 89.6631 49.8961Z" fill="#DE5753"/>
    <path d="M90.7736 43.0082C90.7736 43.0082 89.6726 43.0082 89.1116 43.4672C88.5506 43.9262 88.1726 44.6372 88.3736 44.7032C88.5746 44.7692 89.1506 44.4392 89.3006 44.5112C89.4506 44.5832 89.4506 45.4562 90.0056 45.1592C90.5606 44.8622 90.2486 44.8592 90.6986 44.7512C91.1486 44.6432 91.4036 45.2012 91.5986 45.1622C91.7403 45.1259 91.8737 45.0628 91.9916 44.9762C91.9916 44.9762 91.3916 44.7782 91.3586 44.5862C91.3256 44.3942 90.7586 44.2862 90.7586 44.2862C90.7586 44.2862 91.4756 44.0432 91.6976 44.2442C91.9196 44.4452 91.7906 44.8892 92.3756 44.8772C92.9606 44.8652 93.8756 45.3782 93.9596 44.6342C94.0436 43.8902 92.0996 42.5162 90.7736 43.0082Z" fill="#263238"/>
    <path d="M93.6753 52.896L90.8823 54.096L89.9523 55.908L90.8823 55.296L92.0253 56.394L94.4433 53.97L93.6753 52.896Z" fill="#592CB8"/>
    <path d="M89.9508 55.908L89.6508 54.303C89.6508 54.303 89.6778 53.832 90.3108 53.373L89.3148 52.896C89.3148 52.896 87.7728 54.75 87.6798 55.896L89.0298 54.996L89.9508 55.908Z" fill="#592CB8"/>
    <path opacity="0.2" d="M93.6753 52.896L90.8823 54.096L89.9523 55.908L90.8823 55.296L92.0253 56.394L94.4433 53.97L93.6753 52.896Z" fill="white"/>
    <path opacity="0.2" d="M89.9508 55.908L89.6508 54.303C89.6508 54.303 89.6778 53.832 90.3108 53.373L89.3148 52.896C89.3148 52.896 87.7728 54.75 87.6798 55.896L89.0298 54.996L89.9508 55.908Z" fill="white"/>
    <path d="M81.8781 122.433C81.8578 122.391 81.8494 122.344 81.8536 122.298C81.8578 122.251 81.8746 122.207 81.9021 122.169C81.9156 122.141 81.9364 122.118 81.9623 122.101C81.9882 122.084 82.0182 122.074 82.0491 122.073C82.3161 122.058 82.7481 122.613 82.7961 122.673C82.8011 122.681 82.8038 122.69 82.8038 122.7C82.8038 122.71 82.8011 122.719 82.7961 122.727C82.7911 122.734 82.7844 122.74 82.7766 122.745C82.7687 122.749 82.76 122.751 82.7511 122.751C82.5671 122.738 82.385 122.704 82.2081 122.652C82.0747 122.623 81.957 122.545 81.8781 122.433ZM82.0551 122.169C82.0397 122.169 82.0246 122.174 82.0118 122.182C81.999 122.191 81.989 122.203 81.9831 122.217C81.9651 122.241 81.9536 122.27 81.9499 122.3C81.9463 122.33 81.9505 122.36 81.9621 122.388C82.0251 122.508 82.2771 122.604 82.6491 122.646C82.4691 122.43 82.1991 122.16 82.0551 122.169Z" fill="#592CB8"/>
    <path d="M82.7214 122.739C82.5654 122.559 82.4064 122.058 82.5204 121.86C82.5401 121.824 82.5719 121.796 82.6103 121.78C82.6486 121.765 82.6911 121.763 82.7304 121.776C82.7668 121.782 82.8013 121.797 82.8311 121.819C82.8608 121.841 82.8849 121.869 82.9014 121.902C83.0364 122.154 82.8114 122.7 82.8024 122.724C82.7993 122.732 82.7943 122.738 82.7881 122.744C82.7818 122.749 82.7744 122.752 82.7664 122.754H82.7424L82.7214 122.739ZM82.7214 121.869C82.6524 121.854 82.6254 121.869 82.6134 121.908C82.5692 122.151 82.6197 122.401 82.7544 122.607C82.849 122.401 82.8742 122.169 82.8264 121.947C82.818 121.93 82.8062 121.915 82.7918 121.903C82.7773 121.89 82.7606 121.881 82.7424 121.875L82.7214 121.869Z" fill="#592CB8"/>
    <path d="M93.401 122.433C93.3808 122.391 93.3723 122.344 93.3765 122.298C93.3808 122.251 93.3975 122.207 93.4251 122.169C93.4386 122.141 93.4594 122.118 93.4853 122.101C93.5112 122.084 93.5412 122.074 93.572 122.073C93.842 122.058 94.271 122.613 94.319 122.673C94.3241 122.681 94.3268 122.69 94.3268 122.7C94.3268 122.71 94.3241 122.719 94.319 122.727C94.3141 122.734 94.3074 122.74 94.2995 122.745C94.2917 122.749 94.2829 122.751 94.274 122.751C94.09 122.737 93.908 122.704 93.731 122.652C93.598 122.622 93.4806 122.544 93.401 122.433ZM93.578 122.169C93.5626 122.169 93.5476 122.174 93.5348 122.182C93.522 122.191 93.512 122.203 93.506 122.217C93.488 122.241 93.4766 122.27 93.4729 122.3C93.4692 122.33 93.4734 122.36 93.485 122.388C93.548 122.508 93.8 122.604 94.172 122.646C93.992 122.43 93.722 122.16 93.578 122.169Z" fill="#592CB8"/>
    <path d="M94.2454 122.739C94.0894 122.559 93.9454 122.058 94.0444 121.86C94.0641 121.824 94.0959 121.796 94.1342 121.78C94.1726 121.765 94.2151 121.763 94.2544 121.776C94.2908 121.782 94.3253 121.797 94.355 121.819C94.3847 121.841 94.4089 121.869 94.4254 121.902C94.5604 122.154 94.3354 122.7 94.3264 122.724C94.3232 122.732 94.3183 122.738 94.312 122.744C94.3058 122.749 94.2984 122.752 94.2904 122.754H94.2664L94.2454 122.739ZM94.2454 121.869C94.1764 121.854 94.1494 121.869 94.1374 121.908C94.0932 122.151 94.1437 122.401 94.2784 122.607C94.3729 122.401 94.3982 122.169 94.3504 121.947C94.3423 121.93 94.3306 121.915 94.3161 121.902C94.3016 121.89 94.2847 121.881 94.2664 121.875L94.2454 121.869Z" fill="#592CB8"/>
    <path opacity="0.3" d="M89.5043 87.1532C88.7302 89.2352 88.1392 92.2082 87.6832 95.5832C86.5822 91.0832 89.2193 82.7222 89.2193 82.7222L89.5043 87.1532Z" fill="black"/>
    <path d="M104.715 71.2171C105.639 71.5561 105.915 73.0981 105.345 74.6641C104.775 76.2301 103.545 77.2171 102.645 76.8781C101.745 76.5391 101.445 74.9941 102.015 73.4311C102.585 71.8681 103.8 70.8751 104.715 71.2171Z" fill="#263238"/>
    <path d="M102.099 68.8652C102.012 68.6568 101.847 68.4902 101.64 68.4002C100.74 68.0672 99.2882 69.7262 98.4122 72.1052C97.5362 74.4842 97.5632 76.6832 98.4692 77.0162C98.6827 77.0837 98.914 77.0654 99.1142 76.9652C99.1872 77.0447 99.2775 77.1063 99.3782 77.1452C99.4832 77.1782 99.5937 77.1901 99.7034 77.1803C99.813 77.1705 99.9197 77.1392 100.017 77.0882C100.092 77.1702 100.184 77.2338 100.287 77.2742C100.392 77.3056 100.503 77.3157 100.612 77.3038C100.721 77.292 100.827 77.2584 100.923 77.2052C100.995 77.2925 101.088 77.3597 101.193 77.4002C101.299 77.4329 101.411 77.4431 101.521 77.4302C101.631 77.4173 101.737 77.3815 101.832 77.3252C101.902 77.4163 101.995 77.4868 102.102 77.5292C102.855 77.8082 104.058 76.4282 104.802 74.4512C105.546 72.4742 105.507 70.6442 104.754 70.3652C104.645 70.3267 104.528 70.3204 104.415 70.3472C104.379 70.243 104.322 70.1473 104.247 70.0663C104.172 69.9852 104.081 69.9205 103.98 69.8762C103.873 69.8385 103.759 69.8292 103.647 69.8492C103.607 69.7467 103.547 69.6532 103.47 69.5743C103.393 69.4955 103.302 69.4329 103.2 69.3902C103.096 69.3519 102.983 69.3406 102.873 69.3572C102.832 69.2551 102.772 69.162 102.695 69.0832C102.619 69.0045 102.527 68.9416 102.426 68.8982C102.321 68.8616 102.209 68.8503 102.099 68.8652Z" fill="#263238"/>
    <path opacity="0.2" d="M102.099 68.8652C102.012 68.6568 101.847 68.4902 101.64 68.4002C100.74 68.0672 99.2882 69.7262 98.4122 72.1052C97.5362 74.4842 97.5632 76.6832 98.4692 77.0162C98.6827 77.0837 98.914 77.0654 99.1142 76.9652C99.1872 77.0447 99.2775 77.1063 99.3782 77.1452C99.4832 77.1782 99.5937 77.1901 99.7034 77.1803C99.813 77.1705 99.9197 77.1392 100.017 77.0882C100.092 77.1702 100.184 77.2338 100.287 77.2742C100.392 77.3056 100.503 77.3157 100.612 77.3038C100.721 77.292 100.827 77.2584 100.923 77.2052C100.995 77.2925 101.088 77.3597 101.193 77.4002C101.299 77.4329 101.411 77.4431 101.521 77.4302C101.631 77.4173 101.737 77.3815 101.832 77.3252C101.902 77.4163 101.995 77.4868 102.102 77.5292C102.855 77.8082 104.058 76.4282 104.802 74.4512C105.546 72.4742 105.507 70.6442 104.754 70.3652C104.645 70.3267 104.528 70.3204 104.415 70.3472C104.379 70.243 104.322 70.1473 104.247 70.0663C104.172 69.9852 104.081 69.9205 103.98 69.8762C103.873 69.8385 103.759 69.8292 103.647 69.8492C103.607 69.7467 103.547 69.6532 103.47 69.5743C103.393 69.4955 103.302 69.4329 103.2 69.3902C103.096 69.3519 102.983 69.3406 102.873 69.3572C102.832 69.2551 102.772 69.162 102.695 69.0832C102.619 69.0045 102.527 68.9416 102.426 68.8982C102.321 68.8616 102.209 68.8503 102.099 68.8652Z" fill="white"/>
    <path d="M95.3644 62.3312C94.079 61.8575 92.6946 61.7166 91.3401 61.9215C89.9855 62.1264 88.7048 62.6705 87.617 63.5032C86.5292 64.3359 85.6696 65.4302 85.1183 66.6842C84.5669 67.9383 84.3416 69.3115 84.4633 70.676C84.585 72.0405 85.0498 73.3521 85.8145 74.4887C86.5792 75.6254 87.6189 76.5502 88.8369 77.1772C90.055 77.8042 91.4118 78.1131 92.7812 78.0749C94.1506 78.0368 95.4881 77.653 96.6694 76.9592C96.8571 76.8465 97.0695 76.7815 97.2882 76.77C97.5068 76.7585 97.7249 76.8008 97.9234 76.8932C97.9425 76.904 97.9626 76.9131 97.9834 76.9202C98.9044 77.2592 100.383 75.5763 101.262 73.1582C102.141 70.7402 102.126 68.5082 101.205 68.1692L101.142 68.1512C100.93 68.0917 100.735 67.981 100.575 67.8288C100.415 67.6767 100.295 67.4876 100.224 67.2782C99.831 66.1453 99.191 65.1138 98.3506 64.2583C97.5101 63.4028 96.4902 62.7446 95.3644 62.3312Z" fill="#592CB8"/>
    <path opacity="0.7" d="M95.3644 62.3312C94.079 61.8575 92.6946 61.7166 91.3401 61.9215C89.9855 62.1264 88.7048 62.6705 87.617 63.5032C86.5292 64.3359 85.6696 65.4302 85.1183 66.6842C84.5669 67.9383 84.3416 69.3115 84.4633 70.676C84.585 72.0405 85.0498 73.3521 85.8145 74.4887C86.5792 75.6254 87.6189 76.5502 88.8369 77.1772C90.055 77.8042 91.4118 78.1131 92.7812 78.0749C94.1506 78.0368 95.4881 77.653 96.6694 76.9592C96.8571 76.8465 97.0695 76.7815 97.2882 76.77C97.5068 76.7585 97.7249 76.8008 97.9234 76.8932C97.9425 76.904 97.9626 76.9131 97.9834 76.9202C98.9044 77.2592 100.383 75.5763 101.262 73.1582C102.141 70.7402 102.126 68.5082 101.205 68.1692L101.142 68.1512C100.93 68.0917 100.735 67.981 100.575 67.8288C100.415 67.6767 100.295 67.4876 100.224 67.2782C99.831 66.1453 99.191 65.1138 98.3506 64.2583C97.5101 63.4028 96.4902 62.7446 95.3644 62.3312Z" fill="white"/>
    <path d="M93.6595 74.7601C93.6473 74.7602 93.6352 74.7578 93.6238 74.7532C93.6125 74.7486 93.6022 74.7418 93.5935 74.7331C93.5786 74.7207 93.568 74.7038 93.5631 74.685C93.5583 74.6661 93.5595 74.6463 93.5665 74.6281L94.0735 73.2541L93.2095 72.4411C93.1964 72.4287 93.187 72.4129 93.1822 72.3954C93.1774 72.3779 93.1775 72.3595 93.1825 72.3421C93.1884 72.3243 93.199 72.3084 93.2133 72.2962C93.2276 72.2841 93.245 72.2761 93.2635 72.2731L95.1775 71.9941L93.8995 70.5421C93.8879 70.5281 93.8803 70.5112 93.8777 70.4932C93.8751 70.4752 93.8774 70.4569 93.8845 70.4401C93.8911 70.4236 93.9022 70.4092 93.9165 70.3986C93.9308 70.388 93.9478 70.3816 93.9655 70.3801L96.0895 70.1791L94.5895 68.6491C94.5762 68.6362 94.5672 68.6195 94.5634 68.6013C94.5597 68.5832 94.5615 68.5643 94.5685 68.5471C94.5757 68.5296 94.5877 68.5144 94.6031 68.5032C94.6184 68.4921 94.6366 68.4855 94.6555 68.4841L95.8375 68.4271L96.3445 67.0531C96.3512 67.0326 96.3646 67.0149 96.3826 67.0029C96.4005 66.991 96.422 66.9854 96.4435 66.9871C96.4649 66.9894 96.4849 66.9985 96.5005 67.0131C96.5162 67.0277 96.5268 67.047 96.5305 67.0681C96.9355 69.3391 100.41 71.2351 100.446 71.2531C100.468 71.2655 100.485 71.2863 100.492 71.3111C100.5 71.3358 100.497 71.3625 100.485 71.3851C100.472 71.4078 100.451 71.4247 100.427 71.432C100.402 71.4393 100.375 71.4365 100.353 71.4241C100.215 71.3491 97.0675 69.6241 96.4135 67.4221L95.9995 68.5531C95.9931 68.5714 95.9814 68.5875 95.966 68.5992C95.9505 68.6109 95.9319 68.6179 95.9125 68.6191L94.8805 68.6701L96.3595 70.1911C96.3722 70.2038 96.381 70.22 96.3847 70.2375C96.3884 70.2551 96.387 70.2734 96.3805 70.2901C96.3742 70.3074 96.3634 70.3227 96.3491 70.3343C96.3349 70.3459 96.3177 70.3535 96.2995 70.3561L94.1605 70.5541L95.4295 72.0001C95.4417 72.0132 95.4499 72.0294 95.4531 72.047C95.4563 72.0645 95.4543 72.0826 95.4475 72.0991C95.4416 72.1152 95.4315 72.1295 95.4184 72.1406C95.4052 72.1516 95.3894 72.159 95.3725 72.1621L93.4795 72.4381L94.2415 73.1551C94.2552 73.1684 94.2648 73.1854 94.2691 73.2041C94.2733 73.2227 94.2721 73.2422 94.2655 73.2601L93.8185 74.4781C94.5475 74.1781 97.0105 73.2781 99.3685 74.1421C99.3921 74.1521 99.4111 74.1706 99.4217 74.194C99.4322 74.2173 99.4336 74.2438 99.4255 74.2681C99.4212 74.2803 99.4145 74.2915 99.4057 74.301C99.397 74.3105 99.3864 74.3181 99.3747 74.3234C99.3629 74.3287 99.3502 74.3316 99.3373 74.3319C99.3244 74.3322 99.3115 74.3299 99.2995 74.3251C96.5995 73.3261 93.7195 74.7331 93.6895 74.7481C93.6802 74.7536 93.6701 74.7576 93.6595 74.7601Z" fill="#263238"/>
    <path d="M97.4101 55.2661C97.758 55.5271 98.037 55.7521 98.334 56.0101C98.631 56.2681 98.913 56.5171 99.192 56.7781C99.756 57.3078 100.29 57.8687 100.791 58.4581C101.309 59.0618 101.78 59.7036 102.201 60.3781C102.653 61.0892 103.014 61.8542 103.275 62.6551C103.335 62.8681 103.401 63.0781 103.446 63.3031C103.505 63.5572 103.54 63.8164 103.551 64.0771C103.565 64.5298 103.527 64.9827 103.44 65.4271C103.294 66.1988 103.085 66.9573 102.816 67.6951C102.311 69.1029 101.687 70.4649 100.95 71.7661L99.531 71.1661C99.885 69.8011 100.242 68.4031 100.512 67.0531C100.647 66.4085 100.744 65.7563 100.8 65.1001C100.822 64.8303 100.817 64.559 100.785 64.2901C100.771 64.1877 100.746 64.087 100.71 63.9901C100.672 63.8579 100.627 63.7277 100.575 63.6001C100.056 62.4554 99.3459 61.4074 98.475 60.5011C98.031 60.0061 97.548 59.5351 97.056 59.0701C96.81 58.8361 96.5581 58.6111 96.3031 58.3891C96.0481 58.1671 95.775 57.9391 95.55 57.7591L97.4101 55.2661Z" fill="#CE7A63"/>
    <path d="M94.856 58.62C95.7178 59.8615 96.6514 61.0515 97.652 62.184C97.871 62.439 98.072 62.667 98.234 62.85C98.534 63.171 98.699 63.363 98.699 63.363L102.119 60.063C102.119 60.063 102.023 59.907 101.855 59.649C101.729 59.454 101.555 59.196 101.366 58.905C100.199 57.18 97.913 54.147 96.521 54.3C94.442 54.552 93.401 56.436 94.856 58.62Z" fill="#592CB8"/>
    <path d="M100.967 71.7001L99.9196 73.7191L98.5546 71.2321C98.5546 71.2321 99.8026 69.615 100.586 70.3321L100.967 71.7001Z" fill="#CE7A63"/>
    <path d="M97.8718 74.2529L96.8428 72.1469L98.5558 71.2319L99.9208 73.7159L97.8718 74.2529Z" fill="#CE7A63"/>
    <path d="M62.0283 84.3782L75.4473 86.3732L75.5553 97.2332L72.2103 100.371L57.7323 97.6892L58.3803 86.1092L62.0283 84.3782Z" fill="#592CB8"/>
    <path opacity="0.4" d="M75.5552 97.2332L74.2532 98.4572L73.9622 98.7272L72.2102 100.371L57.7292 97.6892L58.3803 86.1092L59.9372 85.3712L60.4172 85.1432L62.0282 84.3782L75.4472 86.3732L75.5552 97.2332Z" fill="black"/>
    <path opacity="0.2" d="M58.3801 86.1092L71.6071 88.2422L75.4471 86.3732L62.0281 84.3782L58.3801 86.1092Z" fill="white"/>
    <path opacity="0.1" d="M71.6072 88.2423L72.2102 100.371L75.5552 97.2333L75.4472 86.3733L71.6072 88.2423Z" fill="white"/>
    <path d="M74.2518 98.4573L73.9608 98.7273L73.4418 87.3783L59.9358 85.3713L60.4158 85.1433L73.7388 87.2283L74.2518 98.4573Z" fill="#263238"/>
    <path d="M64.5348 85.8332L65.3718 85.4492L68.7678 85.9082L67.9968 86.3732L64.5348 85.8332Z" fill="#263238"/>
    <path d="M63.2217 85.6715C63.2217 85.6715 64.1637 82.2605 64.3317 82.0715C64.4997 81.8825 69.2427 82.6055 69.5997 82.6505C69.9567 82.6955 70.3857 86.4485 70.3857 86.4485L70.0017 86.7485L69.1017 86.5865C69.1017 86.5865 68.9397 83.4095 68.8497 83.3075C68.7597 83.2055 65.0967 82.6685 64.9767 82.7075C64.8567 82.7465 64.3977 85.4375 64.3977 85.4375L63.9687 85.7645L63.2217 85.6715Z" fill="#263238"/>
    <path d="M75.1758 95.4632L73.8528 96.3872V96.1142L73.7538 93.9692V93.7112L73.7328 93.2522C73.7328 93.2522 73.9068 93.6482 74.1648 94.1162C74.4082 94.6284 74.752 95.0865 75.1758 95.4632Z" fill="#592CB8"/>
    <path opacity="0.2" d="M74.8404 95.4542L73.8414 96.1142L73.7424 93.9692V93.7112C73.9314 94.2272 74.3214 95.0792 74.8404 95.4542Z" fill="white"/>
    <path opacity="0.2" d="M74.1405 94.1162C74.0055 94.0592 73.8675 94.0112 73.7415 93.9692L73.7085 93.2522C73.7085 93.2522 73.8825 93.6482 74.1405 94.1162Z" fill="black"/>
    <path d="M76.3043 93.1772L75.9203 94.9592C75.3132 94.4044 74.5552 94.0422 73.7422 93.9182V93.6512L73.6672 91.9892V91.8152C73.6672 91.8152 75.2662 92.1392 76.3043 93.1772Z" fill="#592CB8"/>
    <path d="M75.4462 89.6671C74.9021 90.2089 74.2715 90.656 73.5802 90.9901V90.7891L73.5622 90.2611L73.5322 89.3821L73.5172 88.9561V88.8331C73.8585 88.5609 74.1756 88.2598 74.4652 87.9331L75.4462 89.6671Z" fill="#592CB8"/>
    <path d="M73.2482 86.5022C72.9879 86.7176 72.7587 86.968 72.5672 87.2462L72.3542 87.2162L72.0542 87.1712L71.5892 87.1052L71.1422 87.0392L70.9832 87.0152C71.2067 86.3564 71.6605 85.8003 72.2612 85.4492L73.2482 86.5022Z" fill="#592CB8"/>
    <path opacity="0.2" d="M72.21 85.6711C71.664 85.9711 71.31 86.6821 71.151 87.0391L71.598 87.1051C71.5641 87.0546 71.5463 86.995 71.547 86.9341C71.547 86.8506 71.5802 86.7705 71.6393 86.7114C71.6983 86.6523 71.7785 86.6191 71.862 86.6191C71.9455 86.6191 72.0257 86.6523 72.0847 86.7114C72.1438 86.7705 72.177 86.8506 72.177 86.9341C72.1772 86.9797 72.1671 87.0247 72.1474 87.0658C72.1276 87.1069 72.0988 87.1429 72.063 87.1711L72.363 87.2161C72.5362 86.944 72.7373 86.6906 72.963 86.4601L72.21 85.6711Z" fill="white"/>
    <path opacity="0.2" d="M73.656 91.989L73.731 93.651C74.742 93.825 75.831 94.641 75.831 94.641L76.176 93.207C75.4568 92.5879 74.588 92.168 73.656 91.989ZM75.003 93.162C74.9875 93.2714 74.9382 93.3733 74.862 93.4534C74.7859 93.5334 74.6866 93.5878 74.5781 93.6088C74.4696 93.6297 74.3573 93.6164 74.2567 93.5705C74.1562 93.5246 74.0725 93.4484 74.0173 93.3527C73.9621 93.257 73.9381 93.1464 73.9487 93.0364C73.9594 92.9264 74.004 92.8224 74.0765 92.739C74.149 92.6556 74.2458 92.5969 74.3532 92.5711C74.4607 92.5453 74.5735 92.5536 74.676 92.595C74.7933 92.6287 74.8927 92.7068 74.9533 92.8127C75.0138 92.9186 75.0305 93.0439 75 93.162H75.003Z" fill="white"/>
    <path opacity="0.2" d="M74.3998 88.2424C74.1474 88.5253 73.8517 88.7663 73.5238 88.9564L73.5388 89.3824H73.5598C73.6679 89.3951 73.7676 89.447 73.84 89.5283C73.9123 89.6096 73.9523 89.7146 73.9523 89.8234C73.9523 89.9323 73.9123 90.0373 73.84 90.1186C73.7676 90.1999 73.6679 90.2518 73.5598 90.2644L73.5778 90.7924C74.1535 90.4818 74.6911 90.1052 75.1798 89.6704L74.3998 88.2424Z" fill="white"/>
    <path d="M62.607 60.675C64.329 61.815 64.488 69.4111 64.644 71.5471C64.8 73.6831 66.144 79.6171 66.144 79.6171L64.719 80.133C64.719 80.133 63.147 74.463 62.601 71.232C62.4 69.984 62.607 60.675 62.607 60.675Z" fill="#263238"/>
    <path opacity="0.2" d="M66.1461 79.62L64.7241 80.133C64.7241 80.133 63.1521 74.4661 62.6061 71.232C62.5876 71.1098 62.5755 70.9866 62.5701 70.8631C62.5071 69.9631 62.5041 67.959 62.5221 65.97C62.5461 63.315 62.6061 60.675 62.6061 60.675C63.6081 61.338 64.0821 64.1881 64.3311 66.8731C64.4241 67.8751 64.4871 68.8561 64.5351 69.6901C64.5801 70.4671 64.6131 71.1181 64.6431 71.5471C64.7991 73.6861 66.1461 79.62 66.1461 79.62Z" fill="white"/>
    <path opacity="0.2" d="M64.5351 69.6902C63.9166 70.1394 63.259 70.532 62.5701 70.8632C62.5071 69.9632 62.5041 67.9592 62.5221 65.9702L62.9901 67.0382L64.3311 66.8732C64.4241 67.8752 64.4991 68.8562 64.5351 69.6902Z" fill="black"/>
    <path d="M67.127 67.6893L69.197 66.5493L69.59 68.7843C69.59 68.7843 67.49 69.5433 67.115 68.9433L67.127 67.6893Z" fill="#FFB573"/>
    <path d="M71.1898 67.2603L71.0578 68.8863L69.5908 68.7843L69.1978 66.5493L71.1898 67.2603Z" fill="#FFB573"/>
    <path d="M53.099 49.7702C53.099 49.7702 53.738 47.6552 57.0771 47.9492C60.4161 48.2432 61.2771 51.2492 60.3771 53.6312C59.8319 55.0211 59.861 56.5707 60.4581 57.9392C60.2733 57.8549 60.1097 57.7304 59.9794 57.5746C59.8491 57.4189 59.7554 57.2359 59.7051 57.0392C59.6563 57.4498 59.7249 57.8659 59.9031 58.2392C59.9031 58.2392 55.517 59.1092 53.303 58.4582C53.6447 57.9597 53.795 57.3546 53.726 56.7542C53.726 56.7542 53.615 57.7352 53.219 58.0652C53.219 58.0652 53.636 56.9132 53.417 56.1032C53.198 55.2932 51.875 55.2032 51.638 53.0582C51.401 50.9132 52.199 49.5512 53.099 49.7702Z" fill="#263238"/>
    <path d="M62.2915 74.2173C62.2915 74.2173 63.8545 86.3673 63.7195 94.0833C64.2595 101.316 64.7125 116.505 65.5375 118.146C65.5075 118.515 64.4515 118.68 64.1035 118.446C64.1035 118.446 58.4605 105.819 59.1895 94.0713C54.2185 81.8163 54.5155 74.2053 54.5155 74.2053L62.2915 74.2173Z" fill="#FFB573"/>
    <path d="M60.1765 74.2173C60.1765 74.2173 56.6245 87.9303 55.2175 94.6653C53.7385 101.736 52.2175 110.265 52.2025 118.32C51.8065 118.554 51.6715 118.968 50.8705 118.722C50.8705 118.722 47.1055 102.546 50.2945 94.9773C48.8935 78.2253 53.3245 74.2173 53.3245 74.2173H60.1765Z" fill="#FFB573"/>
    <path d="M49.685 92.2829C49.9209 92.543 50.2 92.7602 50.51 92.9249C50.552 91.3709 50.999 90.6479 50.999 90.6479C50.9232 91.5332 51.0045 92.4249 51.239 93.2819C53.609 94.2839 58.178 94.9469 63.89 93.5459C63.89 86.8439 62.564 75.5639 62.474 74.4629C62.474 74.4629 55.697 74.6429 52.946 74.6429C49.934 78.2339 49.127 89.7569 49.685 92.2829Z" fill="#263238"/>
    <path d="M50.8706 118.722C50.8706 118.722 50.0276 118.95 49.9346 120.198C49.8416 121.446 50.1956 124.878 50.1956 124.878H50.5106C50.5106 124.878 50.4206 121.767 50.5436 121.206C50.6426 122.832 51.8066 124.878 53.3456 124.878C53.8946 124.878 52.7036 122.394 52.5086 120.882C52.3136 119.37 52.2566 118.842 52.2566 118.842L50.8706 118.722Z" fill="#263238"/>
    <path d="M52.2235 117.741L50.8705 118.722C50.9425 120.405 51.5395 122.559 52.3285 123.258C52.3804 123.297 52.4427 123.319 52.5074 123.322C52.5721 123.324 52.636 123.307 52.6908 123.273C52.7456 123.238 52.7888 123.188 52.8146 123.129C52.8404 123.07 52.8477 123.004 52.8355 122.94C52.4537 121.233 52.2486 119.491 52.2235 117.741Z" fill="#FFB573"/>
    <path d="M64.3712 118.722C64.3712 118.722 63.5282 118.95 63.4382 120.198C63.3482 121.446 63.6992 124.878 63.6992 124.878H63.9992C63.9992 124.878 63.9062 121.767 64.0322 121.206C64.1282 122.832 65.2922 124.878 66.8342 124.878C67.3802 124.878 66.1892 122.394 65.9972 120.882C65.9185 120.155 65.7943 119.434 65.6252 118.722H64.3712Z" fill="#263238"/>
    <path d="M65.3642 117.6C65.2172 117.207 64.0322 118.359 64.0322 118.359C64.1042 120.045 65.0402 122.559 65.8322 123.27C65.8841 123.309 65.9465 123.331 66.0111 123.333C66.0758 123.336 66.1397 123.319 66.1946 123.285C66.2494 123.25 66.2925 123.2 66.3183 123.141C66.3442 123.081 66.3514 123.016 66.3392 122.952C65.7302 120.459 65.7932 118.722 65.3642 117.6Z" fill="#FFB573"/>
    <path opacity="0.2" d="M49.685 92.2829C49.9209 92.543 50.2 92.7602 50.51 92.9249C50.552 91.3709 50.999 90.6479 50.999 90.6479C50.9232 91.5332 51.0045 92.4249 51.239 93.2819C53.609 94.2839 58.178 94.9469 63.89 93.5459C63.89 86.8439 62.564 75.5639 62.474 74.4629C62.474 74.4629 55.697 74.6429 52.946 74.6429C49.934 78.2339 49.127 89.7569 49.685 92.2829Z" fill="white"/>
    <path d="M52.6774 66.8399H63.0784C63.158 65.5915 63.174 64.3399 63.1264 63.0899C63.0754 61.5539 61.7824 60.2129 60.1474 59.9999C59.6944 59.9399 59.2204 59.8859 58.7614 59.8469C57.363 59.7529 55.9599 59.7529 54.5614 59.8469C54.1624 59.8649 53.7724 59.8949 53.4064 59.9279C52.0294 60.0599 51.0814 61.3199 51.5554 62.5739C52.08 63.952 52.4562 65.3821 52.6774 66.8399Z" fill="#592CB8"/>
    <path opacity="0.7" d="M52.6774 66.8399H63.0784C63.158 65.5915 63.174 64.3399 63.1264 63.0899C63.0754 61.5539 61.7824 60.2129 60.1474 59.9999C59.6944 59.9399 59.2204 59.8859 58.7614 59.8469C57.363 59.7529 55.9599 59.7529 54.5614 59.8469C54.1624 59.8649 53.7724 59.8949 53.4064 59.9279C52.0294 60.0599 51.0814 61.3199 51.5554 62.5739C52.08 63.952 52.4562 65.3821 52.6774 66.8399Z" fill="white"/>
    <path d="M54.5124 59.679L58.9554 65.1C58.9554 65.1 59.8194 62.307 59.3634 59.907C59.3634 59.907 61.3194 59.886 62.6064 60.675C62.6064 60.675 64.4844 63.756 62.6064 72.459L63.1524 76.611L59.9994 77.562L58.9644 74.547L57.7134 77.718L51.6564 76.014L53.3574 72.813C53.3574 72.813 52.8054 65.457 51.1434 62.094C51.1554 62.1 51.4194 59.646 54.5124 59.679Z" fill="#263238"/>
    <path d="M61.4388 64.1254L59.2098 65.6254L59.6028 67.0384C58.0398 64.5874 55.0218 64.1254 55.0218 64.1254L55.9668 62.8444H53.6298C53.5788 61.2154 54.7368 59.5024 54.7368 59.5024L55.1478 59.4304C55.4088 59.9734 56.7078 62.1064 58.9248 64.7854C58.9248 64.7854 59.8248 61.1644 58.4748 59.6464C59.1652 59.8729 59.8019 60.2383 60.3458 60.7202C60.8896 61.2021 61.3289 61.7903 61.6368 62.4484L60.2178 62.8864L61.4388 64.1254Z" fill="#263238"/>
    <path opacity="0.2" d="M61.4388 64.1254L59.2098 65.6254L59.6028 67.0384C58.0398 64.5874 55.0218 64.1254 55.0218 64.1254L55.9668 62.8444H53.6298C53.5788 61.2154 54.7368 59.5024 54.7368 59.5024L55.1478 59.4304C55.4088 59.9734 56.7078 62.1064 58.9248 64.7854C58.9248 64.7854 59.8248 61.1644 58.4748 59.6464C59.1652 59.8729 59.8019 60.2383 60.3458 60.7202C60.8896 61.2021 61.3289 61.7903 61.6368 62.4484L60.2178 62.8864L61.4388 64.1254Z" fill="white"/>
    <path d="M54.8463 55.1104C55.2123 56.4664 55.6623 58.9474 54.7803 59.8504C54.7803 59.8504 54.1503 61.0504 57.7263 60.9334C58.0263 61.6774 58.6413 63.0334 58.6413 63.0334C58.6413 63.0334 58.6863 61.4284 58.4373 60.8854C60.7383 60.6874 58.9923 59.8414 58.9923 59.8414C57.4563 59.4814 57.4113 58.3594 57.5943 57.3094L54.8463 55.1104Z" fill="#FFB573"/>
    <path opacity="0.2" d="M55.9636 56.0103L57.5926 57.3153C57.5456 57.5615 57.5205 57.8115 57.5176 58.0623C56.9356 57.9813 56.0956 57.3453 55.9876 56.7423C55.9362 56.5016 55.9281 56.2537 55.9636 56.0103Z" fill="black"/>
    <path d="M53.6993 52.3893C54.1103 54.5793 54.2393 55.5093 55.4993 56.5593C57.3773 58.1373 59.9573 57.3033 60.2033 55.0593C60.4253 53.0523 59.7143 49.8123 57.4613 49.0893C56.9806 48.914 56.4616 48.8713 55.9587 48.9656C55.4558 49.0598 54.9875 49.2876 54.6029 49.625C54.2182 49.9624 53.9314 50.397 53.7724 50.8834C53.6134 51.3697 53.5882 51.8898 53.6993 52.3893Z" fill="#FFB573"/>
    <path d="M55.5682 50.8108C54.3682 52.3678 56.8402 54.1588 54.3682 54.0538C51.8962 53.9488 52.8952 50.4539 54.3682 49.6529C55.8412 48.8519 55.5682 50.8108 55.5682 50.8108Z" fill="#263238"/>
    <path d="M54.3685 49.6804C54.6685 51.1804 54.9205 51.5614 56.2465 51.1564C56.0486 50.8563 55.9606 50.497 55.9975 50.1394C56.1315 50.4984 56.3977 50.7925 56.7415 50.9614C57.0967 50.8075 57.4681 50.6938 57.8485 50.6224C57.7774 50.4153 57.7548 50.1946 57.7825 49.9774C57.8894 50.2208 58.0631 50.4289 58.2835 50.5774C58.6923 50.5816 59.0976 50.6526 59.4835 50.7874C59.4745 49.2244 56.8105 47.5294 54.3685 49.6804Z" fill="#263238"/>
    <path d="M57.1526 52.7552C57.1796 52.9412 57.2966 53.0822 57.4166 53.0732C57.5366 53.0642 57.6086 52.9082 57.5816 52.7222C57.5546 52.5362 57.4376 52.3952 57.3206 52.4042C57.2036 52.4132 57.1256 52.5692 57.1526 52.7552Z" fill="#263238"/>
    <path d="M59.4001 52.6234C59.4271 52.8094 59.5441 52.9504 59.6641 52.9414C59.7841 52.9324 59.8561 52.7764 59.8291 52.5904C59.8021 52.4044 59.6851 52.2634 59.5681 52.2724C59.4511 52.2814 59.3611 52.4374 59.4001 52.6234Z" fill="#263238"/>
    <path d="M59.505 52.287L59.922 52.125C59.922 52.125 59.748 52.5 59.505 52.287Z" fill="#263238"/>
    <path d="M58.7997 52.9712C59.0219 53.3826 59.2962 53.7637 59.6157 54.1052C59.5312 54.1798 59.4308 54.2342 59.3222 54.2644C59.2136 54.2945 59.0995 54.2996 58.9887 54.2792L58.7997 52.9712Z" fill="#ED893E"/>
    <path d="M58.0531 55.038C58.1529 55.0466 58.2532 55.0466 58.3531 55.038C58.3669 55.0357 58.3793 55.0282 58.3877 55.017C58.3961 55.0059 58.3998 54.9918 58.3981 54.978C58.3952 54.9634 58.3874 54.9503 58.3758 54.941C58.3643 54.9317 58.3499 54.9267 58.3351 54.927C58.1034 54.9457 57.8705 54.9117 57.6538 54.8275C57.4371 54.7433 57.2423 54.6112 57.0841 54.441C57.0735 54.4311 57.0595 54.4255 57.0451 54.4255C57.0306 54.4255 57.0166 54.4311 57.0061 54.441C57.0009 54.4457 56.9967 54.4515 56.9939 54.458C56.9911 54.4645 56.9896 54.4714 56.9896 54.4785C56.9896 54.4855 56.9911 54.4925 56.9939 54.4989C56.9967 54.5054 57.0009 54.5112 57.0061 54.516C57.2786 54.8134 57.6515 54.9993 58.0531 55.038Z" fill="#263238"/>
    <path d="M53.4737 54.5012C53.5642 54.6936 53.6935 54.8652 53.8536 55.0051C54.0136 55.1451 54.2009 55.2503 54.4037 55.3142C54.9137 55.4492 55.1357 54.8672 54.9647 54.2822C54.8117 53.7572 54.3647 53.0552 53.8667 53.1842C53.3687 53.3132 53.2187 54.0002 53.4737 54.5012Z" fill="#FFB573"/>
    <path d="M56.5286 51.7591C56.5433 51.7597 56.5578 51.7571 56.5713 51.7514C56.5848 51.7456 56.5969 51.737 56.6066 51.7261C56.6929 51.6257 56.8028 51.5485 56.9264 51.5013C57.05 51.4542 57.1835 51.4386 57.3146 51.4561C57.3283 51.4587 57.3423 51.4584 57.3558 51.4554C57.3694 51.4523 57.3821 51.4466 57.3934 51.4384C57.4046 51.4303 57.414 51.4199 57.4211 51.408C57.4282 51.3961 57.4328 51.3828 57.4346 51.3691C57.4369 51.3401 57.4288 51.3112 57.4118 51.2875C57.3948 51.2639 57.3699 51.2471 57.3416 51.2401C57.1758 51.2164 57.0066 51.2345 56.8495 51.2926C56.6923 51.3508 56.5521 51.4472 56.4416 51.5731C56.4218 51.5942 56.4108 51.6221 56.4108 51.6511C56.4108 51.6801 56.4218 51.708 56.4416 51.7291C56.4529 51.7404 56.4666 51.7489 56.4817 51.7541C56.4967 51.7593 56.5128 51.761 56.5286 51.7591Z" fill="#263238"/>
    <path d="M59.892 51.5614C59.9057 51.5622 59.9194 51.5602 59.9323 51.5555C59.9452 51.5509 59.957 51.5437 59.967 51.5344C59.9865 51.5143 59.9973 51.4874 59.9973 51.4594C59.9973 51.4314 59.9865 51.4045 59.967 51.3844C59.8549 51.2486 59.7128 51.1407 59.552 51.0688C59.3912 50.997 59.216 50.9633 59.0401 50.9704C59.0263 50.9722 59.0131 50.9768 59.0011 50.9839C58.9892 50.991 58.9789 51.0004 58.9707 51.0117C58.9626 51.0229 58.9568 51.0357 58.9538 51.0492C58.9507 51.0628 58.9505 51.0768 58.9531 51.0904C58.9588 51.119 58.9748 51.1445 58.998 51.1621C59.0211 51.1798 59.05 51.1884 59.0791 51.1864C59.2183 51.1829 59.3565 51.2111 59.4833 51.2688C59.6101 51.3265 59.7222 51.4122 59.811 51.5194C59.8315 51.5435 59.8606 51.5586 59.892 51.5614Z" fill="#263238"/>
    <path d="M57.2695 52.4191L57.6865 52.2571C57.6865 52.2571 57.5125 52.6201 57.2695 52.4191Z" fill="#263238"/>
    <path d="M66.7015 83.3311L67.0705 82.7462C67.1386 82.6375 67.1799 82.5141 67.1909 82.3863C67.2018 82.2584 67.1821 82.1299 67.1335 82.0112L66.6715 80.8862C66.5815 80.6629 66.4391 80.4646 66.2564 80.3079C66.0736 80.1513 65.8558 80.0409 65.6215 79.9862L65.3214 79.9202C64.6434 80.8502 64.5984 82.3532 64.5984 82.3532L64.5384 82.7791C64.5234 82.8664 64.5258 82.9558 64.5454 83.0422C64.565 83.1286 64.6016 83.2102 64.6529 83.2824C64.7042 83.3547 64.7692 83.416 64.8443 83.463C64.9194 83.51 65.0031 83.5416 65.0904 83.5561L65.9364 83.6852C66.0846 83.7068 66.2358 83.6848 66.3716 83.622C66.5075 83.5591 66.6221 83.458 66.7015 83.3311Z" fill="#FFB573"/>
    <path d="M62.4232 74.8801C59.252 75.2221 56.053 75.2161 52.8832 74.8621C52.8502 74.8576 52.8187 74.8455 52.7913 74.8267C52.7638 74.8079 52.7411 74.7828 52.7251 74.7537C52.7091 74.7245 52.7001 74.692 52.6989 74.6587C52.6977 74.6254 52.7043 74.5924 52.7182 74.5621C52.7962 74.3851 52.8712 74.2051 52.9492 74.0281C52.9651 73.988 52.9936 73.9541 53.0303 73.9314C53.0671 73.9087 53.1101 73.8984 53.1532 73.9021C56.2023 74.2321 59.2781 74.2321 62.3272 73.9021C62.3816 73.898 62.4355 73.9155 62.4771 73.9509C62.5187 73.9863 62.5446 74.0367 62.5492 74.0911C62.5672 74.2741 62.5852 74.4601 62.6062 74.6461C62.6095 74.6735 62.6075 74.7013 62.6001 74.7278C62.5927 74.7544 62.5802 74.7793 62.5632 74.801C62.5462 74.8227 62.5251 74.8409 62.501 74.8545C62.477 74.8681 62.4506 74.8768 62.4232 74.8801Z" fill="#263238"/>
    <path d="M57.8997 59.3042C57.8997 59.3042 58.5777 60.0302 58.4367 60.8942L59.9997 61.2242C59.9197 60.7133 59.6682 60.2448 59.2865 59.8958C58.9048 59.5468 58.4157 59.3382 57.8997 59.3042Z" fill="#592CB8"/>
    <path d="M57.7257 60.9329C57.7257 60.9329 55.6257 59.7329 55.1697 59.0759L54.2397 59.7749C54.2397 59.7749 53.9397 60.8669 55.2087 61.8449L57.7257 60.9329Z" fill="#592CB8"/>
    <path opacity="0.6" d="M57.8997 59.3042C57.8997 59.3042 58.5777 60.0302 58.4367 60.8942L59.9997 61.2242C59.9197 60.7133 59.6682 60.2448 59.2865 59.8958C58.9048 59.5468 58.4157 59.3382 57.8997 59.3042Z" fill="white"/>
    <path opacity="0.6" d="M57.7257 60.9329C57.7257 60.9329 55.6257 59.7329 55.1697 59.0759L54.2397 59.7749C54.2397 59.7749 53.9397 60.8669 55.2087 61.8449L57.7257 60.9329Z" fill="white"/>
    <path d="M67.2622 69.4291C65.8272 69.7632 64.3737 70.0117 62.9092 70.1732C62.1352 70.2602 61.3552 70.3142 60.5572 70.3322C59.7217 70.3603 58.8854 70.304 58.0612 70.1642C57.5566 70.0781 57.0693 69.9109 56.6182 69.6691L56.4232 69.5462L56.2942 69.4591L56.0362 69.2851C55.8622 69.1681 55.6882 69.0512 55.5262 68.9222C54.864 68.4229 54.2467 67.8668 53.6812 67.2601C53.1193 66.654 52.6029 66.0073 52.1362 65.3251C51.9082 64.9801 51.6892 64.6291 51.4882 64.2631C51.3832 64.0831 51.2902 63.8941 51.1882 63.7081L51.0532 63.4081C51.0052 63.3031 50.9662 63.2191 50.9122 63.0751C50.6122 62.3581 50.8372 61.1731 51.5542 60.8851C52.2712 60.5971 53.1532 61.2871 53.4712 61.9441L53.5132 62.0311L53.6002 62.2201L53.7142 62.4391C53.7892 62.5861 53.8672 62.7391 53.9512 62.8831C54.1132 63.1831 54.2992 63.4831 54.4852 63.7621C54.8552 64.3435 55.2673 64.897 55.7182 65.4181C56.1643 65.9423 56.6486 66.4326 57.1672 66.8851C57.2902 67.0021 57.4222 67.1071 57.5572 67.2151L57.8992 67.5001C58.1123 67.6255 58.3428 67.7185 58.5832 67.7761C59.2474 67.9339 59.9238 68.0343 60.6052 68.0761C61.3192 68.1271 62.0572 68.1391 62.7922 68.1481C64.2292 68.1481 67.1602 67.7221 67.1602 67.7221L67.2622 69.4291Z" fill="#263238"/>
    <path opacity="0.2" d="M67.2622 69.4291C65.8272 69.7632 64.3737 70.0117 62.9092 70.1732C62.1352 70.2602 61.3552 70.3142 60.5572 70.3322C59.7217 70.3603 58.8854 70.304 58.0612 70.1642C57.5566 70.0781 57.0693 69.9109 56.6182 69.6691L56.4232 69.5462L56.2942 69.4591L56.0362 69.2851C55.8622 69.1681 55.6882 69.0512 55.5262 68.9222C54.864 68.4229 54.2467 67.8668 53.6812 67.2601C53.1193 66.654 52.6029 66.0073 52.1362 65.3251C51.9082 64.9801 51.6892 64.6291 51.4882 64.2631C51.3832 64.0831 51.2902 63.8941 51.1882 63.7081L51.0532 63.4081C51.0052 63.3031 50.9662 63.2191 50.9122 63.0751C50.6122 62.3581 50.8372 61.1731 51.5542 60.8851C52.2712 60.5971 53.1532 61.2871 53.4712 61.9441L53.5132 62.0311L53.6002 62.2201L53.7142 62.4391C53.7892 62.5861 53.8672 62.7391 53.9512 62.8831C54.1132 63.1831 54.2992 63.4831 54.4852 63.7621C54.8552 64.3435 55.2673 64.897 55.7182 65.4181C56.1643 65.9423 56.6486 66.4326 57.1672 66.8851C57.2902 67.0021 57.4222 67.1071 57.5572 67.2151L57.8992 67.5001C58.1123 67.6255 58.3428 67.7185 58.5832 67.7761C59.2474 67.9339 59.9238 68.0343 60.6052 68.0761C61.3192 68.1271 62.0572 68.1391 62.7922 68.1481C64.2292 68.1481 67.1602 67.7221 67.1602 67.7221L67.2622 69.4291Z" fill="white"/>
    <path d="M66.3572 67.4883L66.5222 69.6723L67.4282 69.5013L67.2932 67.4583L66.3572 67.4883Z" fill="#592CB8"/>
    <path opacity="0.7" d="M66.3572 67.4883L66.5222 69.6723L67.4282 69.5013L67.2932 67.4583L66.3572 67.4883Z" fill="white"/>
    <path d="M66.4713 79.4612L64.3323 79.9322L64.6293 80.8052L66.6333 80.3822L66.4713 79.4612Z" fill="#592CB8"/>
    <path opacity="0.7" d="M66.4713 79.4612L64.3323 79.9322L64.6293 80.8052L66.6333 80.3822L66.4713 79.4612Z" fill="white"/>
</svg>
