<svg width="1600" height="698" viewBox="0 0 1600 698" fill="none" xmlns="http://www.w3.org/2000/svg">
    <g opacity="0.5">
        <path d="M668.52 777.168C-1078.67 -540.78 1301.97 798.405 1379.16 470.042C1456.34 141.679 1129.21 30.5895 750.61 -55.1772" stroke="white" stroke-opacity="0.24"/>
        <path d="M1567.84 121.665C1119.41 -11.8858 813.914 236.224 615.016 121.665C416.118 7.10527 54.674 85.3166 17.9173 492.504" stroke="white" stroke-opacity="0.24"/>
        <path d="M1659.33 589.706C1232.54 744.494 1003.42 740.944 707.373 666.488C411.326 592.032 203.339 666.488 53.0435 800.855" stroke="white" stroke-opacity="0.24"/>
        <rect x="527.273" y="669.711" width="31.8562" height="31.8562" transform="rotate(-7.16752 527.273 669.711)" fill="url(#paint0_linear_518_2174)"/>
        <rect x="1281.18" y="122.644" width="31.8562" height="31.8562" transform="rotate(85.0654 1281.18 122.644)" fill="url(#paint1_linear_518_2174)"/>
        <rect x="368.476" y="77.8821" width="31.8562" height="31.8562" transform="rotate(124.16 368.476 77.8821)" fill="url(#paint2_linear_518_2174)"/>
        <rect x="807.042" y="414.217" width="31.8562" height="31.8562" transform="rotate(153.453 807.042 414.217)" fill="url(#paint3_linear_518_2174)"/>
        <path d="M286 26H303" stroke="#E25B0F" stroke-width="3" stroke-linecap="round"/>
    </g>
    <defs>
        <linearGradient id="paint0_linear_518_2174" x1="527.273" y1="701.567" x2="559.129" y2="669.711" gradientUnits="userSpaceOnUse">
            <stop stop-color="#254A71"/>
            <stop offset="1" stop-color="#254A71" stop-opacity="0"/>
        </linearGradient>
        <linearGradient id="paint1_linear_518_2174" x1="1284.45" y1="125.094" x2="1313.04" y2="157.359" gradientUnits="userSpaceOnUse">
            <stop stop-color="#254A71"/>
            <stop offset="1" stop-color="#254A71" stop-opacity="0"/>
        </linearGradient>
        <linearGradient id="paint2_linear_518_2174" x1="371.743" y1="80.3326" x2="400.332" y2="112.597" gradientUnits="userSpaceOnUse">
            <stop stop-color="#336498" stop-opacity="0.53"/>
            <stop offset="1" stop-color="#1C4876"/>
        </linearGradient>
        <linearGradient id="paint3_linear_518_2174" x1="810.31" y1="416.667" x2="838.899" y2="448.932" gradientUnits="userSpaceOnUse">
            <stop stop-color="#336498" stop-opacity="0.53"/>
            <stop offset="1" stop-color="#1C4876"/>
        </linearGradient>
    </defs>
</svg>
