<svg width="658" height="12" viewBox="0 0 658 12" fill="none" xmlns="http://www.w3.org/2000/svg">
    <rect x="0.729492" y="1.29639" width="7.13073" height="8.42723" fill="#909090"/>
    <rect width="7.13073" height="8.42723" transform="matrix(-1 0 0 1 657.729 1.29639)" fill="#909090"/>
    <rect x="9.47998" y="3.56494" width="7.13073" height="3.88949" fill="#909090"/>
    <rect width="7.13073" height="3.88949" transform="matrix(-1 0 0 1 648.979 3.56494)" fill="#909090"/>
    <rect x="18.2329" y="4.5376" width="14.2615" height="1.94475" fill="#909090"/>
    <rect width="14.2615" height="1.94475" transform="matrix(-1 0 0 1 640.226 4.5376)" fill="#909090"/>
    <rect x="34.1152" y="4.5376" width="189.937" height="1.94475" fill="#909090"/>
    <rect width="189.937" height="1.94475" transform="matrix(-1 0 0 1 624.344 4.5376)" fill="#909090"/>
    <rect width="67.0937" height="1.94475" transform="matrix(-1 0 0 1 418.526 4.5376)" fill="#909090"/>
    <rect width="67.0937" height="1.94475" transform="matrix(-1 0 0 1 307.352 4.5376)" fill="#909090"/>
    <rect width="15.8821" height="0.648249" transform="matrix(-1 0 0 1 337.494 5.18604)" fill="#909090"/>
    <circle cx="232.802" cy="5.51011" r="5.02393" stroke="#909090" stroke-width="0.972373"/>
    <circle cx="425.98" cy="5.51011" r="5.02393" stroke="#909090" stroke-width="0.972373"/>
    <circle cx="310.754" cy="5.34807" r="2.26887" stroke="#909090" stroke-width="0.972373"/>
    <circle r="2.26887" transform="matrix(-1 0 0 1 348.029 5.34807)" stroke="#909090" stroke-width="0.972373"/>
    <circle cx="316.102" cy="5.50995" r="3.07918" stroke="#909090" stroke-width="0.972373"/>
    <circle r="3.07918" transform="matrix(-1 0 0 1 342.682 5.50995)" stroke="#909090" stroke-width="0.972373"/>
</svg>
