<svg width="123" height="113" viewBox="0 0 123 113" fill="none" xmlns="http://www.w3.org/2000/svg">
    <g opacity="0.5">
        <mask id="path-1-inside-1" fill="white">
            <path d="M60.9722 0C29.9998 0 4.82788 25.1993 4.82788 56.1443C4.82788 83.8334 24.9654 106.899 51.3686 111.468V111.194C25.1296 106.625 5.10149 83.6966 5.10149 56.1443C5.10149 25.3361 30.164 0.273608 60.9722 0.273608C91.7804 0.273608 116.843 25.3361 116.843 56.1443C116.843 83.4777 97.0884 106.297 71.123 111.085V111.358C97.2526 106.57 117.117 83.6145 117.117 56.117C117.117 25.1993 91.9172 0 60.9722 0Z"/>
        </mask>
        <path d="M60.9722 0C29.9998 0 4.82788 25.1993 4.82788 56.1443C4.82788 83.8334 24.9654 106.899 51.3686 111.468V111.194C25.1296 106.625 5.10149 83.6966 5.10149 56.1443C5.10149 25.3361 30.164 0.273608 60.9722 0.273608C91.7804 0.273608 116.843 25.3361 116.843 56.1443C116.843 83.4777 97.0884 106.297 71.123 111.085V111.358C97.2526 106.57 117.117 83.6145 117.117 56.117C117.117 25.1993 91.9172 0 60.9722 0Z" fill="#00FCFC"/>
        <path d="M51.3686 111.468L51.198 112.453L52.3686 112.656V111.468H51.3686ZM51.3686 111.194H52.3686V110.353L51.5401 110.209L51.3686 111.194ZM71.123 111.085L70.9417 110.101L70.123 110.252V111.085H71.123ZM71.123 111.358H70.123V112.558L71.3033 112.342L71.123 111.358ZM60.9722 -1C29.4472 -1 3.82788 24.6473 3.82788 56.1443H5.82788C5.82788 25.7512 30.5524 1 60.9722 1V-1ZM3.82788 56.1443C3.82788 84.3288 24.3244 107.802 51.198 112.453L51.5391 110.482C25.6065 105.995 5.82788 83.338 5.82788 56.1443H3.82788ZM52.3686 111.468V111.194H50.3686V111.468H52.3686ZM51.5401 110.209C25.7707 105.722 6.10149 83.2011 6.10149 56.1443H4.10149C4.10149 84.1921 24.4884 107.528 51.197 112.179L51.5401 110.209ZM6.10149 56.1443C6.10149 25.8884 30.7162 1.27361 60.9722 1.27361V-0.726392C29.6117 -0.726392 4.10149 24.7838 4.10149 56.1443H6.10149ZM60.9722 1.27361C91.2281 1.27361 115.843 25.8884 115.843 56.1443H117.843C117.843 24.7838 92.3327 -0.726392 60.9722 -0.726392V1.27361ZM115.843 56.1443C115.843 82.9857 96.4423 105.399 70.9417 110.101L71.3044 112.068C97.7345 107.194 117.843 83.9698 117.843 56.1443H115.843ZM70.123 111.085V111.358H72.123V111.085H70.123ZM71.3033 112.342C97.8988 107.468 118.117 84.1062 118.117 56.117H116.117C116.117 83.1228 96.6063 105.672 70.9428 110.375L71.3033 112.342ZM118.117 56.117C118.117 24.6467 92.4692 -1 60.9722 -1V1C91.3653 1 116.117 25.7519 116.117 56.117H118.117Z" fill="#00FCFC" mask="url(#path-1-inside-1)"/>
        <path d="M122.123 61.8937L118.211 62.1192C117.277 70.7455 114.298 78.7799 109.743 85.7711C109.597 85.9967 109.481 86.194 109.335 86.3913L109.305 86.6169L108.751 91.2401C106.298 94.3411 103.524 97.2165 100.488 99.7819L97.3927 99.4436L97.2175 99.4154C96.5168 99.951 95.816 100.487 95.1153 100.994L95.0861 101.163L94.7357 104.095C86.6187 109.423 77.0709 112.891 66.7641 113.821L64.9246 111.763L63.6107 110.297L61.2456 107.619L61.2164 107.647L61.1872 107.619L58.8222 110.297L57.5375 111.763L55.698 113.821C45.3912 112.891 35.8434 109.451 27.7264 104.095L27.376 101.163L27.3468 100.994C26.6169 100.487 25.9161 99.951 25.2446 99.4154L25.0694 99.4436L21.9744 99.7819C18.9378 97.2165 16.164 94.3411 13.7114 91.2401L13.1566 86.6169L13.1274 86.3913C12.9814 86.194 12.8354 85.9685 12.7187 85.7711C8.16377 78.7799 5.18558 70.7455 4.25125 62.1192L0.36792 61.8937L1.47744 57.947L7.31703 50.6174C7.28783 50.8148 7.28783 51.0121 7.25864 51.2094C7.11265 52.7317 7.02505 54.2822 6.99585 55.8327C6.99585 56.0018 6.99585 56.171 6.99585 56.3401C6.99585 73.3673 15.3757 88.4774 28.398 98.0623C28.6315 98.2314 28.8651 98.4006 29.0987 98.5697L33.4492 98.9362C41.4786 103.841 50.9972 106.689 61.2164 106.717C71.4357 106.689 80.9543 103.841 88.9837 98.9362L93.3342 98.5697C93.5678 98.4006 93.8014 98.2314 94.0349 98.0623C107.028 88.4774 115.437 73.3391 115.437 56.3401C115.437 56.171 115.437 56.0018 115.437 55.8327C115.408 54.2822 115.349 52.7317 115.174 51.2094C115.145 51.0121 115.145 50.8148 115.116 50.6174L120.955 57.947L122.123 61.8937Z" fill="#00FCFC"/>
    </g>
    <g clip-path="url(#clip0)">
        <path d="M57.8257 112.315L61.2748 108.349L64.6659 112.315C64.6659 112.315 64.434 113.792 61.2458 113.821C58.0576 113.85 57.8257 112.315 57.8257 112.315Z" fill="#00FCFC"/>
    </g>
    <g clip-path="url(#clip1)">
        <path d="M112.219 85.3383C111.398 86.761 110.495 88.1291 109.538 89.4424L109.702 86.8158C110.605 85.3656 111.425 83.8882 112.192 82.356L112.219 85.3383Z" fill="#00FCFC"/>
    </g>
    <g clip-path="url(#clip2)">
        <path d="M10.2179 85.8855C11.0388 87.3083 11.9417 88.6763 12.8993 89.9896L12.7351 87.363C11.8322 85.9129 11.0114 84.4354 10.2453 82.9032L10.2179 85.8855Z" fill="#00FCFC"/>
    </g>
    <defs>
        <clipPath id="clip0">
            <rect width="6.84019" height="5.47216" fill="white" transform="translate(57.8257 108.349)"/>
        </clipPath>
        <clipPath id="clip1">
            <rect width="2.68136" height="7.08644" fill="white" transform="translate(109.538 82.356)"/>
        </clipPath>
        <clipPath id="clip2">
            <rect width="2.68136" height="7.08644" fill="white" transform="matrix(-1 0 0 1 12.8993 82.9032)"/>
        </clipPath>
    </defs>
</svg>
