<svg width="862" height="585" viewBox="0 0 862 585" fill="none" xmlns="http://www.w3.org/2000/svg">
    <path d="M883.635 355.627C889.934 338.001 880.752 318.605 863.126 312.306C845.5 306.007 826.105 315.189 819.806 332.815C813.506 350.441 822.688 369.836 840.314 376.135C857.94 382.434 877.335 373.253 883.635 355.627Z" stroke="url(#paint0_linear)" stroke-opacity="0.9" stroke-linecap="round" stroke-linejoin="round" stroke-dasharray="1 2"/>
    <path d="M890.578 381.572C870.681 402.263 835.375 401.643 814.496 383.089C792.217 363.362 794.447 326.325 812.979 307.008C831.511 287.69 868.391 284.032 889.061 305.49C908.356 325.583 910.448 361.072 890.578 381.572Z" stroke="url(#paint1_linear)" stroke-opacity="0.9" stroke-linecap="round" stroke-linejoin="round" stroke-dasharray="1 2"/>
    <path d="M900.146 400.03C930.948 373.346 934.286 326.743 907.601 295.941C880.916 265.139 834.314 261.801 803.512 288.486C772.709 315.17 769.372 361.773 796.056 392.575C822.741 423.377 869.344 426.715 900.146 400.03Z" stroke="url(#paint2_linear)" stroke-opacity="0.9" stroke-linecap="round" stroke-linejoin="round" stroke-dasharray="1 2"/>
    <path d="M943.793 362.917C954.089 312.075 921.22 262.512 870.378 252.215C819.535 241.919 769.972 274.788 759.676 325.63C749.379 376.473 782.248 426.036 833.091 436.332C883.933 446.629 933.496 413.76 943.793 362.917Z" stroke="url(#paint3_linear)" stroke-opacity="0.9" stroke-linecap="round" stroke-linejoin="round" stroke-dasharray="1 2"/>
    <path d="M933.857 423.194C891.526 467.351 817.438 467.191 772.875 426.368C726.773 383.962 728.543 308.143 769.701 265.386C810.859 222.629 886.628 217.744 930.683 262.212C973.199 305.096 976.188 379.036 933.857 423.194Z" stroke="url(#paint4_linear)" stroke-opacity="0.9" stroke-linecap="round" stroke-linejoin="round" stroke-dasharray="1 2"/>
    <path d="M948.341 437.141C898.695 488.882 810.347 491.427 759.122 440.876C708.558 391.199 705.986 303.043 755.387 251.658C804.568 200.438 893.278 199.508 944.605 247.922C996.976 297.265 997.986 385.399 948.341 437.141Z" stroke="url(#paint5_linear)" stroke-opacity="0.9" stroke-linecap="round" stroke-linejoin="round" stroke-dasharray="1 2"/>
    <path d="M962.63 451.06C904.082 510.556 805.71 513.464 744.984 455.331C684.449 397.224 682.607 298.219 740.713 237.684C799.038 176.984 897.941 177.279 958.168 233.387C1018.97 289.576 1021.86 390.878 962.63 451.06Z" stroke="url(#paint6_linear)" stroke-opacity="0.9" stroke-linecap="round" stroke-linejoin="round" stroke-dasharray="1 2"/>
    <path d="M977.061 465.391C910.623 532.39 800.23 535.969 731.232 469.839C662.948 404.199 660.569 292.213 726.401 223.956C794.087 153.611 899.695 160.512 971.574 220.004C1045.21 280.914 1043.96 397.87 977.061 465.391Z" stroke="url(#paint7_linear)" stroke-opacity="0.9" stroke-linecap="round" stroke-linejoin="round" stroke-dasharray="1 2"/>
    <path d="M991.593 478.955C917.782 552.552 793.94 555.82 717.527 483.963C640.401 411.616 640.546 284.339 712.135 209.845C787.627 131.202 902.839 143.547 984.126 207.089C1023.09 237.55 1048.53 268.277 1048.9 320.342C1049.31 374.955 1030.46 439.985 991.593 478.955Z" stroke="url(#paint8_linear)" stroke-opacity="0.9" stroke-linecap="round" stroke-linejoin="round" stroke-dasharray="1 2"/>
    <path d="M1005.94 492.491C925.797 573.615 787.247 577.179 703.581 498.444C618.157 418.292 618.505 278.333 697.654 195.898C783.899 106.043 901.22 134.131 995.616 194.807C1042.09 224.75 1070.68 248.29 1070.66 308.71C1070.57 371.075 1050.07 447.998 1005.94 492.491Z" stroke="url(#paint9_linear)" stroke-opacity="0.9" stroke-linecap="round" stroke-linejoin="round" stroke-dasharray="1 2"/>
    <path d="M1020.42 506.438C933.052 597.309 780.179 601.223 689.633 512.926C599.939 425.53 593.862 272.747 683.145 182.143C724.388 140.18 782.458 109.363 842.571 115.787C901.534 122.051 955.174 158.078 1006.77 182.088C1063.53 208.381 1093.63 225.288 1092.64 295.544C1091.57 369.115 1072.57 452.113 1020.42 506.438Z" stroke="url(#paint10_linear)" stroke-opacity="0.9" stroke-linecap="round" stroke-linejoin="round" stroke-dasharray="1 2"/>
    <path d="M1034.93 520.192C940.001 619.005 774.394 623.098 675.907 527.242C578.272 432.286 574.178 266.678 668.857 168.222C711.625 123.735 777.76 88.3707 841.277 97.0297C905.561 105.796 957.53 149.606 1018.21 168.82C1042.94 176.569 1076 177.854 1095.24 196.962C1116.21 217.679 1115.54 254.738 1115.11 281.663C1113.41 363.946 1093.47 459.327 1034.93 520.192Z" stroke="url(#paint11_linear)" stroke-opacity="0.9" stroke-linecap="round" stroke-linejoin="round" stroke-dasharray="1 2"/>
    <path d="M1049.21 534.113C945.828 641.718 769.372 645.082 661.958 541.723C554.352 438.338 552.166 261.85 654.347 154.468C699.925 106.656 771.934 67.0271 840.032 77.8892C908.323 88.7779 962.482 140.716 1029.44 155.526C1053.92 160.893 1089.63 158.636 1111.39 172.23C1141.06 190.836 1138.32 237.187 1137.43 267.373C1134.68 358.698 1114.83 466.02 1049.21 534.113Z" stroke="url(#paint12_linear)" stroke-opacity="0.9" stroke-linecap="round" stroke-linejoin="round" stroke-dasharray="1 2"/>
    <path d="M1063.69 548.059C952.776 663.414 763.557 667.15 648.01 556.205C532.656 445.286 530.125 255.844 639.866 140.521C687.763 90.0999 766.792 44.9965 838.789 58.7486C911.17 72.5541 967.048 130.402 1040.9 142.067C1067.87 146.412 1111.58 138.623 1136.01 154.152C1165.65 172.95 1160.57 223.472 1159.57 253.056C1156.02 354.243 1136.21 472.521 1063.69 548.059Z" stroke="url(#paint13_linear)" stroke-opacity="0.9" stroke-linecap="round" stroke-linejoin="round" stroke-dasharray="1 2"/>
    <path d="M1078.2 561.814C959.726 685.11 757.554 689.191 634.285 570.521C510.989 452.042 506.908 249.87 625.579 126.601C676.807 73.32 761.488 22.747 838.205 39.1124C915.498 55.5581 972.188 118.799 1052.91 128.879C1083.27 132.72 1125.25 121.951 1154.05 134.179C1190.04 149.559 1183.31 209.043 1181.96 239.751C1176.91 350.31 1157.57 479.214 1078.2 561.814Z" stroke="url(#paint14_linear)" stroke-opacity="0.9" stroke-linecap="round" stroke-linejoin="round" stroke-dasharray="1 2"/>
    <path d="M1092.49 575.734C966.455 706.971 751.355 711.205 620.337 585.002C489.1 458.964 484.866 243.864 611.07 112.846C664.591 57.1471 757.166 0.439676 837.671 19.093C920.067 38.2054 977.458 106.237 1065.03 116.294C1096.4 119.885 1149.95 104.667 1178.21 119.362C1213.22 137.539 1204.98 196.618 1203.42 228.86C1197.83 347.556 1178.03 486.759 1092.49 575.734Z" stroke="url(#paint15_linear)" stroke-opacity="0.9" stroke-linecap="round" stroke-linejoin="round" stroke-dasharray="1 2"/>
    <path d="M1106.98 589.681C973.185 728.832 745.542 733.273 606.391 599.483C467.24 465.693 462.799 238.05 596.589 98.899C652.867 40.2603 752.52 -20.9356 837.602 -1.44879C876.826 7.53897 909.509 33.9958 943.484 53.9843C985.418 78.6021 1029.14 97.4072 1077.75 103.597C1113.86 108.24 1158.41 94.5046 1193.03 104.22C1236.68 116.562 1226.59 186.137 1224.76 220.297C1218.39 347.294 1198.71 494.139 1106.98 589.681Z" stroke="url(#paint16_linear)" stroke-opacity="0.9" stroke-linecap="round" stroke-linejoin="round" stroke-dasharray="1 2"/>
    <path d="M1121.48 603.436C980.318 749.186 739.561 755.122 592.634 613.991C445.707 472.86 440.948 232.071 582.079 85.1441C641.086 23.7572 748.037 -42.0922 837.722 -21.9636C876.781 -13.1944 908.089 11.8976 941.217 32.3546C987.3 60.8749 1037.69 82.3691 1091.23 91.0071C1129.68 97.149 1175.1 84.1224 1211.87 93.9401C1258.06 106.246 1247.41 179.849 1245.55 215.57C1238.53 348.732 1217.88 503.852 1121.48 603.436Z" stroke="url(#paint17_linear)" stroke-opacity="0.9" stroke-linecap="round" stroke-linejoin="round" stroke-dasharray="1 2"/>
    <path d="M1135.77 617.356C987.793 771.345 733.087 774.947 578.692 628.472C422.949 480.441 420.414 225.102 567.576 71.3891C631.413 4.8093 741.433 -60.6121 837.603 -42.1215C881.208 -33.6963 916.513 -9.22042 953.103 14.4568C999.712 44.8104 1050.84 66.6033 1105.33 78.3057C1145.56 87.0435 1188.51 77.7775 1227.76 86.5735C1278.99 97.8213 1267.6 179.534 1265.83 217.419C1258.91 355.483 1235.04 514.065 1135.77 617.356Z" stroke="url(#paint18_linear)" stroke-opacity="0.9" stroke-linecap="round" stroke-linejoin="round" stroke-dasharray="1 2"/>
    <path d="M1150.28 631.111C994.737 793.041 727.103 796.796 564.767 642.762C401.084 487.171 398.284 218.302 553.117 57.2504C622.168 -14.4688 734.713 -78.3651 838.266 -63.7338C884.85 -57.0443 925.075 -35.5978 963.672 -9.48981C1011.55 22.9959 1064.52 48.3705 1120.18 64.3416C1160.97 76.0904 1206.83 69.7726 1245.98 82.0746C1298.05 98.5235 1288.63 180.12 1286.52 221.868C1279.39 364.206 1251.84 525.401 1150.28 631.111Z" stroke="url(#paint19_linear)" stroke-opacity="0.9" stroke-linecap="round" stroke-linejoin="round" stroke-dasharray="1 2"/>
    <path d="M1164.76 645.058C1001.44 815.094 721.484 818.891 551.015 657.27C379.007 494.065 376.821 212.376 538.803 43.5223C613.368 -34.0768 728.388 -94.6948 839.1 -85.1274C950.03 -75.725 1034.62 10.3736 1135.88 49.9092C1176.85 65.9848 1226.42 65.2693 1265.38 83.2142C1316.43 106.952 1309.57 184.212 1307.45 230.26C1300.38 374.953 1267.71 537.782 1164.76 645.058Z" stroke="url(#paint20_linear)" stroke-opacity="0.9" stroke-linecap="round" stroke-linejoin="round" stroke-dasharray="1 2"/>
    <path d="M1179.05 658.978C1009.81 836.402 713.316 841.021 537.096 671.559C360.85 502.289 352.917 205.72 524.323 29.5755C605.797 -54.1 721.79 -110.476 840.039 -107.288C963.521 -103.762 1048.55 -19.3632 1152.07 33.3937C1192.62 53.9077 1242.39 62.9967 1281.6 86.0624C1333.28 116.536 1330.76 189.317 1328.2 241.365C1321 388.386 1283.23 549.918 1179.05 658.978Z" stroke="url(#paint21_linear)" stroke-opacity="0.9" stroke-linecap="round" stroke-linejoin="round" stroke-dasharray="1 2"/>
    <path d="M1193.56 672.733C1015.42 857.911 708.217 864.949 523.338 686.067C339.337 507.894 332.299 200.695 510.004 15.8474C596.222 -73.815 716.668 -125.659 841.086 -128.847C898.789 -130.384 954.187 -125.204 1004.77 -95.2744C1061.85 -61.5052 1109.23 -14.2278 1168.08 16.6595C1208.91 37.9943 1255.8 62.1297 1293.77 88.5411C1347.8 125.991 1351.92 194.614 1348.83 254.606C1341.34 402.368 1298.53 563.588 1193.56 672.733Z" stroke="url(#paint22_linear)" stroke-opacity="0.9" stroke-linecap="round" stroke-linejoin="round" stroke-dasharray="1 2"/>
    <path d="M1208.04 686.68C1022.34 879.799 702.403 887.017 509.391 700.548C317.45 514.816 310.232 194.881 495.523 1.90057C587.909 -94.137 710.372 -140.812 841.779 -150.651C902.457 -155.293 965.661 -158.411 1020.33 -126.934C1080.04 -92.4069 1122.8 -34.4321 1183.09 0.175293C1227.08 25.4708 1272.94 61.1952 1310.94 95.8232C1361.3 141.365 1372.98 203.417 1369.53 268.833C1362.04 416.595 1312.35 578.03 1208.04 686.68Z" stroke="url(#paint23_linear)" stroke-opacity="0.9" stroke-linecap="round" stroke-linejoin="round" stroke-dasharray="1 2"/>
    <path d="M1222.33 700.6C1029.07 901.66 696.181 909.223 495.446 715.029C295.564 521.737 288.192 188.875 481.016 -11.8546C579.353 -114.102 704.461 -155.911 842.393 -171.88C905.801 -179.27 977.764 -191.921 1036.38 -159.308C1064.5 -143.654 1084.12 -117.454 1105.32 -94.1633C1132.95 -63.718 1162.04 -36.7836 1197.17 -15.2651C1244.9 14.0713 1279.14 54.6281 1317.76 94.6224C1370.03 148.84 1394.12 207.535 1390.37 283.471C1383.37 430.519 1325.5 593.159 1222.33 700.6Z" stroke="url(#paint24_linear)" stroke-opacity="0.9" stroke-linecap="round" stroke-linejoin="round" stroke-dasharray="1 2"/>
    <path d="M1236.84 714.355C1036.04 923.164 690.201 931.073 481.718 729.346C273.894 528.494 266.178 182.678 466.727 -25.7742C570.794 -134.067 698.821 -171.558 842.787 -192.943C908.488 -202.752 990.33 -225.953 1052.35 -191.105C1083.55 -173.654 1101.87 -140.987 1122.86 -113.422C1148.01 -80.5856 1175.49 -51.9202 1210.3 -29.4694C1242.58 -8.54392 1269.43 10.6471 1290.28 43.4708C1302.64 62.793 1315.19 80.7725 1329.9 98.6625C1379.41 158.751 1415.73 216.61 1411.68 297.586C1403.98 443.952 1338.61 608.48 1236.84 714.355Z" stroke="url(#paint25_linear)" stroke-opacity="0.9" stroke-linecap="round" stroke-linejoin="round" stroke-dasharray="1 2"/>
    <path d="M1251.32 728.301C1042.06 945.904 685.564 953.109 467.77 743.827C250.168 534.572 244.332 178.068 452.244 -39.7214C503.063 -92.8639 565.391 -135.994 633.164 -164.872C701.592 -194.246 770.424 -201.271 842.717 -213.485C908.003 -224.525 999.724 -258.277 1063.44 -224.366C1098.94 -205.533 1116.14 -164.809 1137.07 -132.561C1160.25 -96.8692 1186.43 -65.8438 1222.03 -42.1085C1252.78 -21.3969 1281.65 -4.07523 1300.25 29.4134C1313.4 52.9509 1321.99 76.8324 1338.09 98.826C1386.49 165.409 1436.43 223.798 1432.48 311.046C1425.58 455.957 1351.51 623.966 1251.32 728.301Z" stroke="url(#paint26_linear)" stroke-opacity="0.9" stroke-linecap="round" stroke-linejoin="round" stroke-dasharray="1 2"/>
    <path d="M1265.61 742.222C1048.79 967.765 679.367 975.124 453.824 758.308C228.281 541.493 220.922 172.067 437.737 -53.4761C490.795 -108.653 554.68 -153.13 625.186 -183.387C696.103 -213.783 767.594 -220.242 842.376 -233.477C911.547 -245.735 1019.05 -293.126 1085.02 -248.733C1114.89 -228.731 1129.41 -187.011 1145.72 -156.774C1167.77 -115.765 1193.31 -80.1365 1232.27 -53.7832C1263.53 -32.6078 1293.83 -14.3049 1311.4 20.9949C1324.03 46.8074 1329.27 72.3711 1345.4 96.9118C1392.53 168.402 1457.51 229.67 1452.87 321.905C1449.1 398.032 1418.75 471.236 1391 541.282C1361.59 616.181 1321.64 683.94 1265.61 742.222Z" stroke="url(#paint27_linear)" stroke-opacity="0.9" stroke-linecap="round" stroke-linejoin="round" stroke-dasharray="1 2"/>
    <path d="M1280.12 755.976C1055.74 989.461 673.389 996.972 440.096 772.624C206.611 548.249 199.1 165.896 423.448 -67.3967C477.215 -123.452 542 -168.781 613.024 -199.944C687.987 -232.709 762.574 -238.932 841.789 -253.114C913.15 -265.653 1024.11 -319.602 1092.81 -276.587C1127.34 -254.957 1140.73 -206.551 1157.2 -171.796C1177.59 -128.672 1202.1 -89.8625 1242.09 -63.9509C1272.04 -44.5239 1304.28 -26.1455 1320.5 7.59766C1334.74 37.3488 1336.51 68.1007 1354.38 96.9904C1400.65 171.88 1477.94 234.668 1473.41 330.243C1469.89 407.383 1436.26 481.694 1408.35 552.89C1378.67 628.338 1336.61 697.172 1280.12 755.976Z" stroke="url(#paint28_linear)" stroke-opacity="0.9" stroke-linecap="round" stroke-linejoin="round" stroke-dasharray="1 2"/>
    <path d="M1294.6 769.923C1062.69 1011.16 667.574 1019.04 426.149 787.106C184.915 555.198 177.058 159.891 408.966 -81.343C466.827 -141.521 536.725 -189.853 613.771 -222.131C688.301 -253.196 762.365 -259.884 840.93 -272.201C913.884 -283.54 1032.65 -345.787 1102.9 -299.819C1137.84 -276.958 1149.12 -228.847 1163.62 -192.605C1182.65 -145.369 1207.07 -101.684 1251.12 -74.0328C1282.58 -54.2001 1318.64 -40.7646 1332.57 -3.23401C1343.21 25.6254 1341.97 55.5659 1356.42 83.7825C1399.68 167.638 1498 231.012 1493.64 333.846C1490.39 411.806 1454.2 487.714 1426.78 559.566C1397.08 637.945 1352.49 709.553 1294.6 769.923Z" stroke="url(#paint29_linear)" stroke-opacity="0.9" stroke-linecap="round" stroke-linejoin="round" stroke-dasharray="1 2"/>
    <path d="M1308.91 783.651C1069.45 1032.83 661.403 1040.86 412.229 801.395C163.246 561.954 155.017 153.885 394.458 -95.0982C454.148 -157.172 526.423 -207.128 605.957 -240.428C682.976 -272.515 759.12 -280.086 840.673 -291.4C918.449 -302.263 1034.14 -367.676 1109.49 -319.042C1146.79 -294.874 1156.95 -245.745 1171.46 -206.765C1189.32 -158.127 1213.84 -108.171 1260.76 -84.2271C1291.81 -68.5561 1331.45 -58.3373 1344.34 -21.7344C1357.28 14.4849 1348.85 48.3116 1367.87 84.4008C1412.31 168.225 1516.3 231.607 1515.28 334.32C1514.34 413.97 1473.53 493.537 1445.7 566.897C1415.27 647.715 1368.6 721.577 1308.91 783.651Z" stroke="url(#paint30_linear)" stroke-opacity="0.9" stroke-linecap="round" stroke-linejoin="round" stroke-dasharray="1 2"/>
    <path d="M1323.39 797.598C1076.39 1054.52 655.394 1062.9 398.47 815.903C141.546 568.902 133.164 147.906 380.165 -109.018C440.564 -171.971 513.495 -222.422 593.6 -257.012C674.526 -291.878 754.341 -299.132 840.056 -310.844C922.569 -322.024 1035.97 -392.058 1114.69 -335.328C1197.47 -275.489 1170.33 -136.918 1271.69 -96.7806C1302.46 -84.6693 1345.81 -78.6261 1358.73 -42.215C1371.37 -6.62465 1356.65 31.6055 1371.75 67.7353C1412.18 163.515 1537.41 223.21 1538.99 335.281C1540.23 416.211 1491.79 499.994 1464.04 574.148C1433.29 657.268 1384.91 733.628 1323.39 797.598Z" stroke="url(#paint31_linear)" stroke-opacity="0.9" stroke-linecap="round" stroke-linejoin="round" stroke-dasharray="1 2"/>
    <path d="M1337.88 811.545C1083.31 1076.41 649.583 1084.97 384.718 830.411C119.661 575.823 111.126 141.9 365.687 -122.965C430.18 -190.04 508.441 -243.659 594.733 -279.146C675.418 -312.286 754.22 -319.29 839.472 -330.48C923.109 -341.308 1020.95 -410.577 1103.76 -360.708C1200.28 -302.669 1170.44 -143.355 1284.9 -111.561C1321.61 -101.359 1370.4 -99.2512 1379.02 -53.0751C1386.52 -12.9207 1368.02 23.0216 1384.17 62.8179C1424.61 162.706 1561.32 221.458 1565.73 337.052C1567.35 378.733 1552.01 417.267 1535.1 454.409C1515.34 497.997 1498.56 541.219 1481.59 585.783C1449.39 669.484 1400.1 746.696 1337.88 811.545Z" stroke="url(#paint32_linear)" stroke-opacity="0.9" stroke-linecap="round" stroke-linejoin="round" stroke-dasharray="1 2"/>
    <path d="M1352.19 825.273C1090.07 1098.08 643.384 1106.99 370.796 844.7C97.9904 582.58 89.0831 135.894 351.177 -136.72C416.38 -204.674 495.35 -259.172 582.378 -295.729C666.288 -330.962 749.301 -340.117 838.554 -350.553C923.235 -360.453 1020.31 -439.608 1102.41 -377.712C1192.12 -310.064 1181.13 -149.883 1300.07 -129.196C1336.16 -122.991 1389.84 -125.09 1399.74 -79.7127C1409.73 -33.5412 1380.66 10.9002 1399 57.4542C1439.72 160.902 1587.72 221.424 1593.4 339.15C1595.44 383.431 1576.9 422.496 1557.06 460.99C1535.35 503.133 1518.42 544.575 1501.7 588.783C1468.72 676.676 1417.37 757.511 1352.19 825.273Z" stroke="url(#paint33_linear)" stroke-opacity="0.9" stroke-linecap="round" stroke-linejoin="round" stroke-dasharray="1 2"/>
    <path d="M1366.67 839.22C1096.96 1118.79 637.406 1128.84 356.851 859.182C76.296 589.528 67.2354 129.915 336.889 -150.64C402.966 -219.254 482.453 -274.657 569.999 -312.121C658.173 -349.887 744.366 -358.012 837.942 -369.997C927.328 -381.392 1013.67 -467.714 1099.51 -393.369C1185.19 -319.243 1192.47 -159.644 1317.29 -148.892C1351.89 -146.024 1412.78 -152.201 1423.61 -107.867C1435.97 -57.6501 1398.9 -6.30705 1414.46 44.7482C1430.78 98.8412 1479.57 144.361 1517.04 184.195C1557.72 227.606 1618.53 278.124 1622.77 341.68C1625.72 387.848 1601.76 429.286 1579.41 467.625C1555.52 508.488 1538.29 547.931 1521.95 592.193C1487.86 683.842 1434.55 768.902 1366.67 839.22Z" stroke="url(#paint34_linear)" stroke-opacity="0.9" stroke-linecap="round" stroke-linejoin="round" stroke-dasharray="1 2"/>
    <path d="M1381.16 853.167C1103.72 1140.46 631.595 1150.9 342.907 873.663C54.4374 596.257 44.9781 124.075 322.411 -164.587C392.416 -237.542 477.617 -296.059 571.158 -334.447C659.119 -370.679 744.629 -378.117 837.219 -390.043C923.211 -400.934 995.142 -487.7 1081.1 -421.161C1133.68 -380.393 1164.74 -315.641 1198.21 -259.743C1233.74 -200.429 1266.71 -171.783 1336.22 -171.087C1373.91 -170.721 1439.94 -181.462 1450.89 -132.418C1463.21 -77.7091 1423.64 -21.0441 1434.13 35.561C1444.84 93.3704 1493.89 139.903 1533.22 180.388C1575.63 224.039 1647.46 278.245 1652.72 344.29C1656.64 391.961 1627.64 434.457 1602.62 472.229C1575.37 513.405 1557.49 553.344 1540.52 599.278C1505.67 693.56 1450.67 780.925 1381.16 853.167Z" stroke="url(#paint35_linear)" stroke-opacity="0.9" stroke-linecap="round" stroke-linejoin="round" stroke-dasharray="1 2"/>
    <path d="M1395.47 866.895C1111.41 1162.45 624.922 1170.7 328.985 887.953C31.8383 604.058 24.6565 116.94 307.9 -178.341C377.442 -250.774 461.658 -309.234 554.016 -348.959C647.605 -389.1 737.358 -397.511 836.656 -409.871C877.641 -414.912 904.054 -436.064 938.939 -454.861C990.145 -482.725 1040.78 -469.996 1082.65 -430.917C1134.22 -382.859 1167.09 -318.442 1206.83 -261.279C1247.7 -202.394 1287.67 -191.738 1356.11 -194.516C1396.23 -196.159 1470.51 -211.419 1480.78 -156.019C1491.43 -99.1951 1452.8 -36.7268 1454.26 21.5522C1455.82 84.7335 1504.1 132.528 1546.12 174.757C1591.74 220.616 1675.06 277.988 1682.01 347.396C1687.14 397.582 1652.14 441.003 1624.17 478.949C1592.82 521.509 1575.67 561.746 1557.32 610.616C1521.79 705.584 1465.69 793.775 1395.47 866.895Z" stroke="url(#paint36_linear)" stroke-opacity="0.9" stroke-linecap="round" stroke-linejoin="round" stroke-dasharray="1 2"/>
    <path d="M1409.95 880.842C1118.33 1184.34 619.11 1192.77 315.231 902.46C9.97867 610.787 2.80862 110.961 293.612 -192.262C367.276 -269.009 456.794 -330.444 555.339 -371.067C647.894 -409.397 738.468 -418.084 836.508 -429.837C882.257 -435.388 903.009 -462.217 941.092 -482.915C984.233 -506.233 1028.66 -489.676 1064.09 -459.12C1127.41 -404.145 1164.95 -326.953 1217.18 -262.574C1262.56 -206.58 1311.54 -211.484 1378.32 -219.188C1423.22 -224.27 1503.14 -242.069 1511.98 -179.241C1520.87 -115.427 1479.23 -48.1011 1476.37 15.8347C1473.38 85.0295 1522.29 132.521 1568.78 177.72C1613.88 221.746 1704.06 281.833 1712.72 350.112C1718.97 399.282 1680.01 443.127 1651.67 478.089C1616.21 522.031 1596.98 561.783 1577.6 613.833C1540.88 713.133 1482.93 804.782 1409.95 880.842Z" stroke="url(#paint37_linear)" stroke-opacity="0.9" stroke-linecap="round" stroke-linejoin="round" stroke-dasharray="1 2"/>
    <path d="M1424.43 894.788C1125.31 1207.21 613.103 1214.81 301.476 916.968C-11.7177 617.735 -19.2329 104.955 279.104 -206.017C352.33 -282.434 440.89 -344.003 538.391 -385.553C636.138 -427.461 732.073 -438.139 836.14 -449.638C881.808 -454.613 896.708 -478.739 931.793 -503.179C980.95 -537.39 1032.34 -502.068 1068.73 -465.709C1129.85 -404.783 1169.31 -325.954 1228.92 -264.065C1277.79 -213.451 1338.04 -231.842 1400.2 -242.926C1447.72 -251.358 1534.31 -272.138 1543.75 -203.752C1553.18 -135.366 1507.42 -60.987 1498.85 6.06299C1489.63 79.2778 1533.17 126.02 1583.37 174.083C1631.51 220.098 1730.51 281.415 1741.68 352.781C1750.03 406.544 1700.33 453 1668.66 489.453C1632.35 531.125 1615.69 570.649 1596.66 621.575C1558.47 723.016 1499.3 816.449 1424.43 894.788Z" stroke="url(#paint38_linear)" stroke-opacity="0.9" stroke-linecap="round" stroke-linejoin="round" stroke-dasharray="1 2"/>
    <path d="M1438.75 908.516C1132.06 1228.88 606.932 1236.63 287.363 931.231C-33.5797 624.465 -41.3598 98.1555 264.649 -220.155C419.727 -381.564 616.551 -452.483 835.659 -470.042C881.331 -473.647 893.198 -495.653 924.848 -523.506C967.421 -560.981 1018.42 -527.082 1052.77 -494.331C1121.47 -428.83 1164.93 -340.839 1233.27 -275.583C1287.81 -223.592 1356.51 -252.145 1421.46 -266.36C1471.71 -277.541 1567.63 -300.736 1573.92 -223.794C1580 -148.248 1533.37 -71.8388 1520.42 1.44342C1507.38 73.9316 1543.91 119.109 1594.85 167.47C1627.82 198.856 1663.09 227.824 1696.31 258.853C1723.1 284.097 1760.87 316.151 1768.28 354.142C1778.62 407.598 1727.67 453.291 1694.84 488.214C1652.78 533.192 1635.37 575.348 1614.22 631.649C1575 734.902 1514.51 829.325 1438.75 908.516Z" stroke="url(#paint39_linear)" stroke-opacity="0.9" stroke-linecap="round" stroke-linejoin="round" stroke-dasharray="1 2"/>
    <path d="M1453.23 922.464C1139.01 1250.58 600.928 1258.67 273.61 945.739C-55.2736 631.413 -63.2337 92.3684 250.335 -233.883C407.679 -397.518 611.71 -475.254 835.293 -489.843C881.871 -492.931 891.339 -511.752 920.842 -542.445C963.61 -586.933 1016.29 -544.001 1050.83 -509.854C1120.08 -441.342 1166.13 -350.84 1238.14 -285.268C1296.08 -232.412 1376.52 -272.234 1441.77 -288.56C1497.29 -302.524 1596.48 -323.895 1601.17 -239.744C1605.54 -163.07 1561.76 -84.6982 1543.77 -11.7277C1525.21 63.9016 1550.47 108.488 1605.13 161.081C1641.35 195.852 1680.81 226.97 1717.73 260.862C1744.58 285.722 1784.48 317.879 1793.27 355.865C1806.05 411.422 1747.36 459.36 1713.59 493.957C1670.5 538.007 1654.78 579.226 1633.8 635.746C1593.9 742.425 1531.75 840.332 1453.23 922.464Z" stroke="url(#paint40_linear)" stroke-opacity="0.9" stroke-linecap="round" stroke-linejoin="round" stroke-dasharray="1 2"/>
    <path d="M1467.74 936.219C1145.74 1272.44 595.333 1280.58 259.882 960.056C-77.3262 638.116 -84.8642 86.2245 235.827 -247.638C395.271 -413.718 606.895 -498.217 834.951 -509.835C885.558 -512.362 892.425 -530.763 923.422 -565.16C964.571 -610.655 1021.06 -558.588 1052.31 -526.073C1121.08 -454.109 1171.46 -346.969 1253.08 -288.66C1312.99 -245.698 1400.11 -294.17 1461.41 -310.263C1518.85 -325.33 1615.45 -342.173 1624.11 -258.446C1632.41 -177.704 1587.39 -94.6175 1566.29 -18.9523C1544.42 59.3449 1564.02 105.292 1622.36 160.941C1659.12 195.984 1699.38 227.016 1737.26 261.042C1765.07 286.037 1805.96 318.135 1815.89 356.282C1831.32 415.335 1766.05 464.117 1730.1 500.365C1684.82 546.066 1672.02 591.603 1649.81 649.907C1608.95 756.452 1546.26 854.087 1467.74 936.219Z" stroke="url(#paint41_linear)" stroke-opacity="0.9" stroke-linecap="round" stroke-linejoin="round" stroke-dasharray="1 2"/>
    <defs>
        <linearGradient id="paint0_linear" x1="227.5" y1="-139.5" x2="211" y2="608.5" gradientUnits="userSpaceOnUse">
            <stop stop-color="#CE1126"/>
            <stop offset="0.515625" stop-color="#6CA7DD"/>
            <stop offset="1" stop-color="#F9F7F7"/>
        </linearGradient>
        <linearGradient id="paint1_linear" x1="227.5" y1="-139.5" x2="211" y2="608.5" gradientUnits="userSpaceOnUse">
            <stop stop-color="#CE1126"/>
            <stop offset="0.515625" stop-color="#6CA7DD"/>
            <stop offset="1" stop-color="#F9F7F7"/>
        </linearGradient>
        <linearGradient id="paint2_linear" x1="227.5" y1="-139.5" x2="211" y2="608.5" gradientUnits="userSpaceOnUse">
            <stop stop-color="#CE1126"/>
            <stop offset="0.515625" stop-color="#6CA7DD"/>
            <stop offset="1" stop-color="#F9F7F7"/>
        </linearGradient>
        <linearGradient id="paint3_linear" x1="227.5" y1="-139.5" x2="211" y2="608.5" gradientUnits="userSpaceOnUse">
            <stop stop-color="#CE1126"/>
            <stop offset="0.515625" stop-color="#6CA7DD"/>
            <stop offset="1" stop-color="#F9F7F7"/>
        </linearGradient>
        <linearGradient id="paint4_linear" x1="227.5" y1="-139.5" x2="211" y2="608.5" gradientUnits="userSpaceOnUse">
            <stop stop-color="#CE1126"/>
            <stop offset="0.515625" stop-color="#6CA7DD"/>
            <stop offset="1" stop-color="#F9F7F7"/>
        </linearGradient>
        <linearGradient id="paint5_linear" x1="227.5" y1="-139.5" x2="211" y2="608.5" gradientUnits="userSpaceOnUse">
            <stop stop-color="#CE1126"/>
            <stop offset="0.515625" stop-color="#6CA7DD"/>
            <stop offset="1" stop-color="#F9F7F7"/>
        </linearGradient>
        <linearGradient id="paint6_linear" x1="227.5" y1="-139.5" x2="211" y2="608.5" gradientUnits="userSpaceOnUse">
            <stop stop-color="#CE1126"/>
            <stop offset="0.515625" stop-color="#6CA7DD"/>
            <stop offset="1" stop-color="#F9F7F7"/>
        </linearGradient>
        <linearGradient id="paint7_linear" x1="227.5" y1="-139.5" x2="211" y2="608.5" gradientUnits="userSpaceOnUse">
            <stop stop-color="#CE1126"/>
            <stop offset="0.515625" stop-color="#6CA7DD"/>
            <stop offset="1" stop-color="#F9F7F7"/>
        </linearGradient>
        <linearGradient id="paint8_linear" x1="227.5" y1="-139.5" x2="211" y2="608.5" gradientUnits="userSpaceOnUse">
            <stop stop-color="#CE1126"/>
            <stop offset="0.515625" stop-color="#6CA7DD"/>
            <stop offset="1" stop-color="#F9F7F7"/>
        </linearGradient>
        <linearGradient id="paint9_linear" x1="227.5" y1="-139.5" x2="211" y2="608.5" gradientUnits="userSpaceOnUse">
            <stop stop-color="#CE1126"/>
            <stop offset="0.515625" stop-color="#6CA7DD"/>
            <stop offset="1" stop-color="#F9F7F7"/>
        </linearGradient>
        <linearGradient id="paint10_linear" x1="227.5" y1="-139.5" x2="211" y2="608.5" gradientUnits="userSpaceOnUse">
            <stop stop-color="#CE1126"/>
            <stop offset="0.515625" stop-color="#6CA7DD"/>
            <stop offset="1" stop-color="#F9F7F7"/>
        </linearGradient>
        <linearGradient id="paint11_linear" x1="227.5" y1="-139.5" x2="211" y2="608.5" gradientUnits="userSpaceOnUse">
            <stop stop-color="#CE1126"/>
            <stop offset="0.515625" stop-color="#6CA7DD"/>
            <stop offset="1" stop-color="#F9F7F7"/>
        </linearGradient>
        <linearGradient id="paint12_linear" x1="227.5" y1="-139.5" x2="211" y2="608.5" gradientUnits="userSpaceOnUse">
            <stop stop-color="#CE1126"/>
            <stop offset="0.515625" stop-color="#6CA7DD"/>
            <stop offset="1" stop-color="#F9F7F7"/>
        </linearGradient>
        <linearGradient id="paint13_linear" x1="227.5" y1="-139.5" x2="211" y2="608.5" gradientUnits="userSpaceOnUse">
            <stop stop-color="#CE1126"/>
            <stop offset="0.515625" stop-color="#6CA7DD"/>
            <stop offset="1" stop-color="#F9F7F7"/>
        </linearGradient>
        <linearGradient id="paint14_linear" x1="227.5" y1="-139.5" x2="211" y2="608.5" gradientUnits="userSpaceOnUse">
            <stop stop-color="#CE1126"/>
            <stop offset="0.515625" stop-color="#6CA7DD"/>
            <stop offset="1" stop-color="#F9F7F7"/>
        </linearGradient>
        <linearGradient id="paint15_linear" x1="227.5" y1="-139.5" x2="211" y2="608.5" gradientUnits="userSpaceOnUse">
            <stop stop-color="#CE1126"/>
            <stop offset="0.515625" stop-color="#6CA7DD"/>
            <stop offset="1" stop-color="#F9F7F7"/>
        </linearGradient>
        <linearGradient id="paint16_linear" x1="227.5" y1="-139.5" x2="211" y2="608.5" gradientUnits="userSpaceOnUse">
            <stop stop-color="#CE1126"/>
            <stop offset="0.515625" stop-color="#6CA7DD"/>
            <stop offset="1" stop-color="#F9F7F7"/>
        </linearGradient>
        <linearGradient id="paint17_linear" x1="227.5" y1="-139.5" x2="211" y2="608.5" gradientUnits="userSpaceOnUse">
            <stop stop-color="#CE1126"/>
            <stop offset="0.515625" stop-color="#6CA7DD"/>
            <stop offset="1" stop-color="#F9F7F7"/>
        </linearGradient>
        <linearGradient id="paint18_linear" x1="227.5" y1="-139.5" x2="211" y2="608.5" gradientUnits="userSpaceOnUse">
            <stop stop-color="#CE1126"/>
            <stop offset="0.515625" stop-color="#6CA7DD"/>
            <stop offset="1" stop-color="#F9F7F7"/>
        </linearGradient>
        <linearGradient id="paint19_linear" x1="227.5" y1="-139.5" x2="211" y2="608.5" gradientUnits="userSpaceOnUse">
            <stop stop-color="#CE1126"/>
            <stop offset="0.515625" stop-color="#6CA7DD"/>
            <stop offset="1" stop-color="#F9F7F7"/>
        </linearGradient>
        <linearGradient id="paint20_linear" x1="227.5" y1="-139.5" x2="211" y2="608.5" gradientUnits="userSpaceOnUse">
            <stop stop-color="#CE1126"/>
            <stop offset="0.515625" stop-color="#6CA7DD"/>
            <stop offset="1" stop-color="#F9F7F7"/>
        </linearGradient>
        <linearGradient id="paint21_linear" x1="227.5" y1="-139.5" x2="211" y2="608.5" gradientUnits="userSpaceOnUse">
            <stop stop-color="#CE1126"/>
            <stop offset="0.515625" stop-color="#6CA7DD"/>
            <stop offset="1" stop-color="#F9F7F7"/>
        </linearGradient>
        <linearGradient id="paint22_linear" x1="227.5" y1="-139.5" x2="211" y2="608.5" gradientUnits="userSpaceOnUse">
            <stop stop-color="#CE1126"/>
            <stop offset="0.515625" stop-color="#6CA7DD"/>
            <stop offset="1" stop-color="#F9F7F7"/>
        </linearGradient>
        <linearGradient id="paint23_linear" x1="227.5" y1="-139.5" x2="211" y2="608.5" gradientUnits="userSpaceOnUse">
            <stop stop-color="#CE1126"/>
            <stop offset="0.515625" stop-color="#6CA7DD"/>
            <stop offset="1" stop-color="#F9F7F7"/>
        </linearGradient>
        <linearGradient id="paint24_linear" x1="227.5" y1="-139.5" x2="211" y2="608.5" gradientUnits="userSpaceOnUse">
            <stop stop-color="#CE1126"/>
            <stop offset="0.515625" stop-color="#6CA7DD"/>
            <stop offset="1" stop-color="#F9F7F7"/>
        </linearGradient>
        <linearGradient id="paint25_linear" x1="227.5" y1="-139.5" x2="211" y2="608.5" gradientUnits="userSpaceOnUse">
            <stop stop-color="#CE1126"/>
            <stop offset="0.515625" stop-color="#6CA7DD"/>
            <stop offset="1" stop-color="#F9F7F7"/>
        </linearGradient>
        <linearGradient id="paint26_linear" x1="227.5" y1="-139.5" x2="211" y2="608.5" gradientUnits="userSpaceOnUse">
            <stop stop-color="#CE1126"/>
            <stop offset="0.515625" stop-color="#6CA7DD"/>
            <stop offset="1" stop-color="#F9F7F7"/>
        </linearGradient>
        <linearGradient id="paint27_linear" x1="227.5" y1="-139.5" x2="211" y2="608.5" gradientUnits="userSpaceOnUse">
            <stop stop-color="#CE1126"/>
            <stop offset="0.515625" stop-color="#6CA7DD"/>
            <stop offset="1" stop-color="#F9F7F7"/>
        </linearGradient>
        <linearGradient id="paint28_linear" x1="227.5" y1="-139.5" x2="211" y2="608.5" gradientUnits="userSpaceOnUse">
            <stop stop-color="#CE1126"/>
            <stop offset="0.515625" stop-color="#6CA7DD"/>
            <stop offset="1" stop-color="#F9F7F7"/>
        </linearGradient>
        <linearGradient id="paint29_linear" x1="227.5" y1="-139.5" x2="211" y2="608.5" gradientUnits="userSpaceOnUse">
            <stop stop-color="#CE1126"/>
            <stop offset="0.515625" stop-color="#6CA7DD"/>
            <stop offset="1" stop-color="#F9F7F7"/>
        </linearGradient>
        <linearGradient id="paint30_linear" x1="227.5" y1="-139.5" x2="211" y2="608.5" gradientUnits="userSpaceOnUse">
            <stop stop-color="#CE1126"/>
            <stop offset="0.515625" stop-color="#6CA7DD"/>
            <stop offset="1" stop-color="#F9F7F7"/>
        </linearGradient>
        <linearGradient id="paint31_linear" x1="227.5" y1="-139.5" x2="211" y2="608.5" gradientUnits="userSpaceOnUse">
            <stop stop-color="#CE1126"/>
            <stop offset="0.515625" stop-color="#6CA7DD"/>
            <stop offset="1" stop-color="#F9F7F7"/>
        </linearGradient>
        <linearGradient id="paint32_linear" x1="227.5" y1="-139.5" x2="211" y2="608.5" gradientUnits="userSpaceOnUse">
            <stop stop-color="#CE1126"/>
            <stop offset="0.515625" stop-color="#6CA7DD"/>
            <stop offset="1" stop-color="#F9F7F7"/>
        </linearGradient>
        <linearGradient id="paint33_linear" x1="227.5" y1="-139.5" x2="211" y2="608.5" gradientUnits="userSpaceOnUse">
            <stop stop-color="#CE1126"/>
            <stop offset="0.515625" stop-color="#6CA7DD"/>
            <stop offset="1" stop-color="#F9F7F7"/>
        </linearGradient>
        <linearGradient id="paint34_linear" x1="227.5" y1="-139.5" x2="211" y2="608.5" gradientUnits="userSpaceOnUse">
            <stop stop-color="#CE1126"/>
            <stop offset="0.515625" stop-color="#6CA7DD"/>
            <stop offset="1" stop-color="#F9F7F7"/>
        </linearGradient>
        <linearGradient id="paint35_linear" x1="227.5" y1="-139.5" x2="211" y2="608.5" gradientUnits="userSpaceOnUse">
            <stop stop-color="#CE1126"/>
            <stop offset="0.515625" stop-color="#6CA7DD"/>
            <stop offset="1" stop-color="#F9F7F7"/>
        </linearGradient>
        <linearGradient id="paint36_linear" x1="227.5" y1="-139.5" x2="211" y2="608.5" gradientUnits="userSpaceOnUse">
            <stop stop-color="#CE1126"/>
            <stop offset="0.515625" stop-color="#6CA7DD"/>
            <stop offset="1" stop-color="#F9F7F7"/>
        </linearGradient>
        <linearGradient id="paint37_linear" x1="227.5" y1="-139.5" x2="211" y2="608.5" gradientUnits="userSpaceOnUse">
            <stop stop-color="#CE1126"/>
            <stop offset="0.515625" stop-color="#6CA7DD"/>
            <stop offset="1" stop-color="#F9F7F7"/>
        </linearGradient>
        <linearGradient id="paint38_linear" x1="227.5" y1="-139.5" x2="211" y2="608.5" gradientUnits="userSpaceOnUse">
            <stop stop-color="#CE1126"/>
            <stop offset="0.515625" stop-color="#6CA7DD"/>
            <stop offset="1" stop-color="#F9F7F7"/>
        </linearGradient>
        <linearGradient id="paint39_linear" x1="227.5" y1="-139.5" x2="211" y2="608.5" gradientUnits="userSpaceOnUse">
            <stop stop-color="#CE1126"/>
            <stop offset="0.515625" stop-color="#6CA7DD"/>
            <stop offset="1" stop-color="#F9F7F7"/>
        </linearGradient>
        <linearGradient id="paint40_linear" x1="227.5" y1="-139.5" x2="211" y2="608.5" gradientUnits="userSpaceOnUse">
            <stop stop-color="#CE1126"/>
            <stop offset="0.515625" stop-color="#6CA7DD"/>
            <stop offset="1" stop-color="#F9F7F7"/>
        </linearGradient>
        <linearGradient id="paint41_linear" x1="227.5" y1="-139.5" x2="211" y2="608.5" gradientUnits="userSpaceOnUse">
            <stop stop-color="#CE1126"/>
            <stop offset="0.515625" stop-color="#6CA7DD"/>
            <stop offset="1" stop-color="#F9F7F7"/>
        </linearGradient>
    </defs>
</svg>
