<svg width="841" height="800" viewBox="0 0 841 800" fill="none" xmlns="http://www.w3.org/2000/svg">
    <path d="M-484.815 403.639C-467.862 395.704 -460.551 375.529 -468.485 358.576C-476.42 341.624 -496.595 334.312 -513.548 342.247C-530.501 350.181 -537.812 370.356 -529.877 387.309C-521.943 404.262 -501.768 411.573 -484.815 403.639Z" stroke="url(#paint0_linear)" stroke-opacity="0.9" stroke-linecap="round" stroke-linejoin="round" stroke-dasharray="1 2"/>
    <path d="M-498.354 426.835C-527.056 427.27 -551.471 401.758 -552.991 373.868C-554.665 344.158 -526.79 319.668 -500.025 319.231C-473.259 318.793 -444.698 342.412 -445.387 372.197C-446.074 400.046 -469.807 426.516 -498.354 426.835Z" stroke="url(#paint1_linear)" stroke-opacity="0.9" stroke-linecap="round" stroke-linejoin="round" stroke-dasharray="1 2"/>
    <path d="M-504.728 446.625C-464.092 449.716 -428.644 419.279 -425.553 378.643C-422.462 338.007 -452.898 302.559 -493.535 299.468C-534.171 296.377 -569.619 326.813 -572.71 367.449C-575.801 408.086 -545.364 443.534 -504.728 446.625Z" stroke="url(#paint2_linear)" stroke-opacity="0.9" stroke-linecap="round" stroke-linejoin="round" stroke-dasharray="1 2"/>
    <path d="M-447.643 451.497C-404.285 423.018 -392.224 364.782 -420.703 321.424C-449.182 278.066 -507.417 266.004 -550.775 294.483C-594.133 322.962 -606.195 381.198 -577.716 424.556C-549.237 467.914 -491.001 479.976 -447.643 451.497Z" stroke="url(#paint3_linear)" stroke-opacity="0.9" stroke-linecap="round" stroke-linejoin="round" stroke-dasharray="1 2"/>
    <path d="M-497.447 486.873C-558.609 487.895 -610.652 435.163 -613.029 374.775C-615.366 312.179 -560.272 260.061 -500.931 259.193C-441.59 258.324 -384.781 308.698 -385.349 371.291C-385.876 431.677 -436.286 485.852 -497.447 486.873Z" stroke="url(#paint4_linear)" stroke-opacity="0.9" stroke-linecap="round" stroke-linejoin="round" stroke-dasharray="1 2"/>
    <path d="M-497.157 506.978C-568.855 508.144 -632.857 447.188 -633.015 375.221C-633.329 304.338 -572.529 240.451 -501.258 239.363C-430.257 238.235 -367.147 300.584 -365.399 371.12C-363.576 443.051 -425.46 505.813 -497.157 506.978Z" stroke="url(#paint5_linear)" stroke-opacity="0.9" stroke-linecap="round" stroke-linejoin="round" stroke-dasharray="1 2"/>
    <path d="M-496.984 526.926C-580.455 527.227 -651.772 459.408 -653.234 375.354C-654.581 291.456 -585.561 220.451 -501.663 219.104C-417.493 217.797 -348.077 288.247 -345.528 370.521C-342.631 453.259 -412.544 526.626 -496.984 526.926Z" stroke="url(#paint6_linear)" stroke-opacity="0.9" stroke-linecap="round" stroke-linejoin="round" stroke-dasharray="1 2"/>
    <path d="M-497.003 547.264C-591.358 547.244 -671.614 471.359 -673.219 375.801C-674.671 281.096 -596.81 200.571 -501.989 199.274C-404.378 197.826 -334.933 277.689 -326.585 370.62C-318.007 465.798 -401.95 547.246 -497.003 547.264Z" stroke="url(#paint7_linear)" stroke-opacity="0.9" stroke-linecap="round" stroke-linejoin="round" stroke-dasharray="1 2"/>
    <path d="M-496.406 567.133C-600.638 566.522 -690.14 480.866 -692.898 376.011C-695.811 270.304 -605.314 180.806 -502.009 179.208C-393.01 177.462 -320.672 267.98 -308.576 370.443C-302.778 419.564 -306.693 459.262 -343.412 496.176C-381.914 534.908 -441.365 567.306 -496.406 567.133Z" stroke="url(#paint8_linear)" stroke-opacity="0.9" stroke-linecap="round" stroke-linejoin="round" stroke-dasharray="1 2"/>
    <path d="M-495.922 586.849C-609.954 587.041 -710.021 491.149 -713.001 376.301C-716.211 259.205 -616.564 160.924 -502.297 159.106C-377.766 157.104 -315.124 260.2 -291.765 369.957C-280.317 424.041 -276.907 460.919 -319.83 503.444C-364.186 547.283 -433.251 586.875 -495.922 586.849Z" stroke="url(#paint9_linear)" stroke-opacity="0.9" stroke-linecap="round" stroke-linejoin="round" stroke-dasharray="1 2"/>
    <path d="M-495.634 606.952C-621.676 608.874 -732.074 503.056 -733.105 376.589C-734.177 251.362 -629.945 139.49 -502.743 139.118C-443.906 138.869 -381.139 158.417 -343.383 205.633C-306.324 251.92 -294.15 315.378 -274.877 368.928C-253.595 427.748 -244.411 461.03 -295.009 509.782C-348.011 560.817 -420.334 605.751 -495.634 606.952Z" stroke="url(#paint10_linear)" stroke-opacity="0.9" stroke-linecap="round" stroke-linejoin="round" stroke-dasharray="1 2"/>
    <path d="M-495.188 626.94C-632.192 629.083 -751.683 514.347 -752.936 376.918C-754.228 240.729 -639.492 121.237 -502.914 119.171C-441.21 118.227 -369.537 140.302 -330.972 191.509C-291.943 243.337 -286.474 311.088 -257.405 367.708C-245.499 390.728 -223.136 415.114 -223.164 442.228C-223.117 471.705 -249.908 497.318 -269.333 515.968C-328.964 572.69 -410.747 625.671 -495.188 626.94Z" stroke="url(#paint11_linear)" stroke-opacity="0.9" stroke-linecap="round" stroke-linejoin="round" stroke-dasharray="1 2"/>
    <path d="M-495.017 646.887C-644.222 649.211 -770.831 526.256 -773.04 377.206C-775.365 228.001 -651.558 102.205 -503.36 99.1823C-437.317 97.8948 -358.479 121.139 -318.254 177.151C-277.913 233.318 -276.673 308.346 -240.052 366.33C-226.634 387.492 -199.893 411.264 -194.225 436.292C-186.552 470.463 -221.406 501.143 -243.467 521.765C-310.269 584.096 -400.466 645.551 -495.017 646.887Z" stroke="url(#paint12_linear)" stroke-opacity="0.9" stroke-linecap="round" stroke-linejoin="round" stroke-dasharray="1 2"/>
    <path d="M-494.728 666.989C-654.74 669.419 -790.598 537.662 -793.144 377.495C-795.574 217.483 -662.81 82.3231 -503.649 79.0789C-434.121 77.6013 -346.453 101.978 -305.535 162.794C-264.386 223.919 -266.134 304.329 -222.428 364.992C-206.531 387.203 -170.225 412.766 -164.057 441.048C-156.539 475.335 -196.003 507.289 -217.715 527.408C-292.077 596.122 -390.029 665.316 -494.728 666.989Z" stroke="url(#paint13_linear)" stroke-opacity="0.9" stroke-linecap="round" stroke-linejoin="round" stroke-dasharray="1 2"/>
    <path d="M-494.282 686.978C-665.256 689.629 -810.478 548.914 -812.974 377.824C-815.625 206.851 -674.91 61.6283 -503.821 59.1324C-429.915 58.008 -334.385 82.5477 -292.001 148.555C-249.268 215.028 -254.275 299.811 -204.607 364.238C-185.963 388.504 -148.763 410.737 -137.173 439.799C-122.762 476.185 -169.746 513.282 -192.504 533.943C-274.58 608.188 -379.744 685.198 -494.282 686.978Z" stroke="url(#paint14_linear)" stroke-opacity="0.9" stroke-linecap="round" stroke-linejoin="round" stroke-dasharray="1 2"/>
    <path d="M-494.11 706.926C-676.045 709.798 -830.477 560.01 -833.078 378.113C-835.95 196.178 -686.162 41.7458 -504.265 39.1449C-427.029 37.9464 -321.584 63.7745 -278.158 134.082C-233.728 206.057 -241.643 294.71 -187.139 363.984C-167.604 388.794 -119.099 416.112 -109.641 446.528C-97.9044 484.189 -145.661 519.93 -169.66 541.519C-257.9 621.103 -370.702 705.039 -494.11 706.926Z" stroke="url(#paint15_linear)" stroke-opacity="0.9" stroke-linecap="round" stroke-linejoin="round" stroke-dasharray="1 2"/>
    <path d="M-493.82 727.029C-686.833 729.967 -850.242 571.416 -853.18 378.403C-856.118 185.389 -697.567 21.9804 -504.554 19.0423C-423.289 17.7318 -309.673 45.4275 -263.617 119.573C-242.388 153.758 -238.17 195.595 -228.449 233.796C-216.413 280.909 -198.99 325.2 -169.166 364.08C-147.04 392.999 -105.928 414.964 -88.4523 446.396C-66.4925 486.082 -123.01 527.894 -148.559 550.644C-243.234 635.528 -361.387 724.919 -493.82 727.029Z" stroke="url(#paint16_linear)" stroke-opacity="0.9" stroke-linecap="round" stroke-linejoin="round" stroke-dasharray="1 2"/>
    <path d="M-493.377 747.015C-696.267 749.362 -869.971 582.549 -873.169 378.845C-876.367 175.141 -708.704 2.25169 -505 -0.946511C-419.862 -2.253 -297.803 27.3494 -248.963 105.216C-227.694 139.13 -223.475 179.03 -214.683 216.96C-202.497 269.766 -182.292 320.683 -150.731 364.795C-128.027 396.425 -86.7994 419.514 -67.8927 452.535C-44.1143 494.005 -103.887 538.254 -130.561 562.087C-230.082 650.839 -354.786 745.376 -493.377 747.015Z" stroke="url(#paint17_linear)" stroke-opacity="0.9" stroke-linecap="round" stroke-linejoin="round" stroke-dasharray="1 2"/>
    <path d="M-493.201 766.966C-706.744 770.27 -888.608 591.907 -893.269 379.138C-897.773 164.316 -718.209 -17.238 -505.441 -20.9303C-413.214 -22.4619 -289.299 9.62146 -234.73 90.9413C-210.017 127.841 -202.546 170.146 -193.604 212.802C-182.35 267.273 -161.836 318.926 -131.788 365.864C-109.668 400.592 -72.8573 424.567 -51.4727 458.636C-23.3977 502.938 -89.4511 552.372 -117.598 577.791C-220.532 670.065 -349.961 764.751 -493.201 766.966Z" stroke="url(#paint18_linear)" stroke-opacity="0.9" stroke-linecap="round" stroke-linejoin="round" stroke-dasharray="1 2"/>
    <path d="M-492.76 786.95C-717.264 790.475 -908.338 603.039 -913.22 379.308C-917.945 153.524 -728.959 -37.7423 -505.578 -41.1526C-406.03 -42.5991 -281.421 -7.64881 -218.914 76.1969C-190.871 113.991 -177.785 157.658 -169.156 203.45C-158.525 260.322 -139.254 315.809 -111.418 366.579C-91.0435 403.823 -54.2756 431.943 -35.4499 468.411C-10.478 516.97 -75.0609 567.722 -106.193 595.617C-212.305 690.754 -346.189 784.661 -492.76 786.95Z" stroke="url(#paint19_linear)" stroke-opacity="0.9" stroke-linecap="round" stroke-linejoin="round" stroke-dasharray="1 2"/>
    <path d="M-492.469 807.055C-728.206 810.762 -927.986 614.602 -933.205 379.754C-938.383 142.698 -739.86 -57.1572 -505.904 -60.9826C-398.3 -62.6532 -274.276 -23.6365 -203.133 61.7287C-131.718 147.133 -133.315 267.826 -90.1134 367.571C-72.6862 407.988 -37.2807 442.692 -22.6035 482.99C-3.52373 535.959 -63.2248 585.476 -97.42 616.389C-205.161 713.229 -343.806 804.652 -492.469 807.055Z" stroke="url(#paint20_linear)" stroke-opacity="0.9" stroke-linecap="round" stroke-linejoin="round" stroke-dasharray="1 2"/>
    <path d="M-492.295 827.004C-737.446 831.709 -949.454 624.38 -953.152 379.928C-957.006 135.591 -751.96 -78.8209 -506.192 -81.0848C-389.409 -82.1262 -267.713 -39.4321 -186.732 46.7954C-102.308 136.977 -102.393 256.781 -66.9883 367.441C-53.0113 410.682 -24.4302 452.428 -13.2042 496.519C1.53207 554.673 -51.9328 604.12 -90.7026 638.94C-200.188 737.327 -341.501 824.216 -492.295 827.004Z" stroke="url(#paint21_linear)" stroke-opacity="0.9" stroke-linecap="round" stroke-linejoin="round" stroke-dasharray="1 2"/>
    <path d="M-491.853 846.989C-748.778 850.829 -970.038 637.603 -973.142 380.369C-976.131 124.258 -762.906 -97.001 -506.523 -100.919C-382.147 -102.805 -260.535 -53.7588 -170.684 32.3617C-128.97 72.2618 -93.6505 115.254 -79.3004 172.246C-63.0986 236.561 -63.3227 303.493 -43.8277 367.036C-30.2389 411.052 -14.3712 461.345 -6.40036 506.904C5.03671 571.64 -40.7995 622.876 -85.5784 662.919C-195.8 761.615 -340.441 844.705 -491.853 846.989Z" stroke="url(#paint22_linear)" stroke-opacity="0.9" stroke-linecap="round" stroke-linejoin="round" stroke-dasharray="1 2"/>
    <path d="M-491.564 867.092C-759.451 871.153 -989.804 649.01 -993.245 380.659C-996.455 113.586 -774.312 -116.767 -506.812 -121.022C-373.566 -123.015 -254.205 -68.897 -154.71 17.5046C-108.697 57.3317 -61.9891 100.026 -45.8614 161.009C-28.3451 227.727 -39.419 298.908 -21.5546 366.091C-8.55202 415.142 -1.63952 472.862 0.51526 524.225C3.62138 592.051 -32.2224 644.034 -81.1107 687.636C-191.333 786.332 -340.965 864.691 -491.564 867.092Z" stroke="url(#paint23_linear)" stroke-opacity="0.9" stroke-linecap="round" stroke-linejoin="round" stroke-dasharray="1 2"/>
    <path d="M-491.39 887.041C-770.239 891.324 -1009.96 660.223 -1013.35 380.949C-1016.78 102.914 -785.562 -136.648 -507.255 -141.009C-365.41 -143.147 -247.643 -83.7243 -139.2 2.99643C-89.3136 42.8275 -29.6685 85.0314 -11.5691 149.619C-2.88597 180.615 -7.68366 212.992 -9.30423 244.442C-11.477 285.498 -10.1234 325.124 -0.675072 365.223C12.0895 419.773 7.38683 472.64 6.16742 528.222C4.46284 603.518 -20.2709 661.942 -76.836 712.741C-186.206 811.283 -342.456 884.677 -491.39 887.041Z" stroke="url(#paint24_linear)" stroke-opacity="0.9" stroke-linecap="round" stroke-linejoin="round" stroke-dasharray="1 2"/>
    <path d="M-490.946 907.028C-780.602 911.416 -1029.68 671.358 -1033.18 381.277C-1036.83 92.2805 -796.658 -156.646 -507.428 -160.956C-357.255 -163.28 -240.501 -98.7455 -123.963 -11.5516C-70.7454 28.2055 3.34788 69.9983 22.2566 138.577C31.827 173.021 21.5254 209.033 16.7257 243.346C11.1057 284.32 10.0963 324.021 18.6533 364.546C26.5161 402.203 31.7891 434.784 23.151 472.695C18.1313 495.078 14.1969 516.649 11.8491 539.693C4.02233 617.152 -11.5011 683.681 -71.8655 737.807C-181.234 835.381 -344.104 904.778 -490.946 907.028Z" stroke="url(#paint25_linear)" stroke-opacity="0.9" stroke-linecap="round" stroke-linejoin="round" stroke-dasharray="1 2"/>
    <path d="M-490.657 927.13C-792.514 931.699 -1048.6 683.577 -1053.28 381.565C-1057.85 79.7081 -808.762 -175.406 -507.718 -181.06C-434.2 -182.379 -359.69 -168.474 -291.47 -140.67C-222.437 -112.749 -168.991 -68.8088 -109.423 -26.0627C-55.6233 12.533 32.9181 53.9147 53.6855 123.037C65.3046 161.512 48.4906 202.397 40.3178 239.961C31.2886 281.551 27.6833 321.986 35.8902 363.982C42.8247 400.398 50.8475 433.098 40.1577 469.884C32.6941 495.789 21.7863 518.708 17.4978 545.624C4.28313 626.874 -2.03204 703.444 -66.778 762.059C-174.558 859.169 -346.023 924.839 -490.657 927.13Z" stroke="url(#paint26_linear)" stroke-opacity="0.9" stroke-linecap="round" stroke-linejoin="round" stroke-dasharray="1 2"/>
    <path d="M-490.484 947.079C-803.303 951.869 -1068.6 694.674 -1073.39 381.855C-1078.18 69.0361 -820.98 -196.257 -508.162 -201.047C-431.622 -202.207 -355.06 -188.145 -283.936 -159.37C-212.425 -130.401 -157.509 -84.1735 -95.4642 -40.379C-38.0638 0.118331 71.2759 43.1095 86.1853 121.212C93.0047 156.506 73.5968 196.188 63.6083 229.062C50.0055 273.592 42.6789 316.812 51.385 363.03C58.3575 400.144 66.6884 434.548 53.9839 471.875C44.5436 499.017 30.0735 520.732 24.0014 549.466C6.40716 633.268 8.63907 722.551 -60.1383 784.183C-116.858 835.098 -190.213 865.08 -259.499 894.679C-333.397 926.519 -409.645 945.846 -490.484 947.079Z" stroke="url(#paint27_linear)" stroke-opacity="0.9" stroke-linecap="round" stroke-linejoin="round" stroke-dasharray="1 2"/>
    <path d="M-490.039 967.066C-813.82 972.077 -1088.32 705.809 -1093.22 382.183C-1098.23 58.4021 -831.96 -216.1 -508.334 -220.995C-430.672 -222.271 -352.87 -208.169 -280.738 -179.664C-204.696 -149.489 -147.769 -100.897 -81.9308 -54.6193C-22.7889 -12.7645 93.6414 28.0649 111.455 107.139C120.4 146.889 95.4491 190.477 82.3585 226.641C66.0827 271.478 55.7721 316.205 65.5236 362.851C72.8082 397.796 82.4546 433.635 69.9071 468.908C58.7972 499.961 38.206 522.87 30.2701 555.902C9.65286 641.482 19.4663 740.574 -51.5988 804.643C-108.862 856.449 -185.313 884.878 -255.53 915.173C-330.009 947.206 -408.503 965.795 -490.039 967.066Z" stroke="url(#paint28_linear)" stroke-opacity="0.9" stroke-linecap="round" stroke-linejoin="round" stroke-dasharray="1 2"/>
    <path d="M-489.751 987.169C-824.338 992.285 -1108.09 717.215 -1113.32 382.472C-1118.44 47.8844 -843.211 -235.982 -508.624 -241.098C-425.151 -242.368 -341.619 -226.749 -264.455 -194.753C-189.925 -163.689 -133.036 -115.794 -68.9799 -68.6662C-9.56884 -24.8357 118.249 15.6956 135.052 97.9448C143.415 138.856 117.188 180.739 101.658 216.552C81.5065 263.321 67.6676 311.414 79.0417 362.167C87.0995 398.469 102.944 433.54 86.0962 469.855C73.0916 497.729 50.9538 517.926 41.0843 548.05C11.98 637.805 36.1866 752.25 -39.9193 821.543C-97.5708 874.123 -176.965 901.852 -247.299 932.96C-323.872 967.044 -406.123 985.784 -489.751 987.169Z" stroke="url(#paint29_linear)" stroke-opacity="0.9" stroke-linecap="round" stroke-linejoin="round" stroke-dasharray="1 2"/>
    <path d="M-489.423 1007C-834.972 1012.34 -1127.93 728.194 -1133.27 382.645C-1138.49 37.2505 -854.462 -255.865 -509.068 -261.086C-422.961 -262.391 -336.602 -246.227 -256.96 -213.183C-179.952 -181.07 -120.972 -132.321 -55.525 -82.3643C6.94217 -34.7735 134.843 1.34231 153.344 89.0934C162.44 132.601 134.703 174.405 117.233 212.152C95.2616 259.075 77.0411 311.656 93.0638 361.833C103.798 394.923 124.445 430.269 107.521 465.19C90.9072 499.878 60.9475 517.703 48.7062 556.618C20.4532 647.187 48.6452 765.664 -25.0229 837.246C-82.2512 892.653 -167.493 919.679 -239.184 951.56C-318.005 986.843 -403.316 1005.7 -489.423 1007Z" stroke="url(#paint30_linear)" stroke-opacity="0.9" stroke-linecap="round" stroke-linejoin="round" stroke-dasharray="1 2"/>
    <path d="M-489.136 1027.1C-845.492 1032.54 -1147.82 739.443 -1153.26 383.087C-1158.7 26.7302 -865.6 -275.594 -509.244 -281.036C-422.014 -282.457 -334.841 -266.176 -253.882 -233.633C-172.149 -200.703 -110.809 -149.123 -42.1499 -96.4907C23.8775 -45.7587 153.448 -14.5217 168.572 81.3213C184.348 182.239 66.8268 260.515 109.679 360.763C122.74 391.144 148.965 426.187 132.196 460.991C115.815 495.021 78.304 511.483 63.2767 547.645C23.7077 643.78 69.472 774.747 -9.00777 854.768C-65.6188 912.616 -159.225 937.193 -231.42 969.693C-312.101 1006.37 -400.395 1025.76 -489.136 1027.1Z" stroke="url(#paint31_linear)" stroke-opacity="0.9" stroke-linecap="round" stroke-linejoin="round" stroke-dasharray="1 2"/>
    <path d="M-488.845 1047.21C-856.163 1052.87 -1167.58 750.851 -1173.24 383.533C-1179.02 16.0595 -876.849 -295.474 -509.531 -301.137C-416.491 -302.552 -323.316 -284.715 -237.364 -248.411C-157.027 -214.436 -96.5773 -163.4 -28.6152 -110.729C37.9534 -58.9506 156.031 -38.2223 178.903 55.692C205.633 165.104 71.4814 256.067 129.475 359.74C148.072 392.993 180.919 429.126 154.192 467.755C130.956 501.352 92.4028 513.513 75.5128 553.004C33.0358 652.041 87.5462 790.494 8.55825 875.006C-19.9038 905.499 -58.0734 921.728 -96.357 935.865C-141.228 952.513 -183.738 971.023 -227.333 990.344C-309.447 1026.4 -398.981 1045.75 -488.845 1047.21Z" stroke="url(#paint32_linear)" stroke-opacity="0.9" stroke-linecap="round" stroke-linejoin="round" stroke-dasharray="1 2"/>
    <path d="M-488.518 1067.04C-866.798 1072.92 -1187.58 761.946 -1193.19 383.705C-1199.08 5.42461 -888.101 -315.357 -509.976 -321.125C-415.812 -322.655 -321.514 -304.934 -234.284 -268.86C-150.19 -234.068 -85.2492 -181.555 -15.0052 -125.512C51.6394 -72.3393 176.194 -59.1187 190.032 42.7654C205.14 154.102 83.6399 259.061 152.677 358.097C173.679 388.099 212.956 424.743 187.7 463.722C161.94 503.32 109.909 513.956 89.759 559.758C44.9552 661.504 106.157 809.22 26.5467 896.134C-3.46692 928.756 -44.2683 943.084 -85.572 956.094C-130.789 970.34 -172.136 987.495 -215.305 1006.74C-300.946 1045.19 -394.51 1065.62 -488.518 1067.04Z" stroke="url(#paint33_linear)" stroke-opacity="0.9" stroke-linecap="round" stroke-linejoin="round" stroke-dasharray="1 2"/>
    <path d="M-488.228 1087.14C-876.655 1092.4 -1207.31 773.082 -1213.29 383.995C-1219.28 -5.09194 -899.235 -335.083 -510.148 -341.072C-414.9 -342.446 -319.594 -324.995 -231.357 -289.191C-142.461 -253.154 -76.0129 -197.658 -1.62648 -139.635C69.3927 -84.1723 191.481 -83.6202 199.111 29.684C206.779 142.717 98.5521 260.24 178.787 356.46C201.109 383.054 248.362 421.953 224.501 460.856C197.535 504.984 134.97 514.797 109.667 561.794C82.7346 611.461 84.7574 678.163 82.8417 732.814C80.65 792.268 87.5795 871.021 45.4266 918.775C14.7137 953.372 -31.5857 965.525 -74.5529 976.636C-120.387 988.441 -160.531 1003.97 -203.469 1023.53C-292.559 1063.83 -390.501 1085.85 -488.228 1087.14Z" stroke="url(#paint34_linear)" stroke-opacity="0.9" stroke-linecap="round" stroke-linejoin="round" stroke-dasharray="1 2"/>
    <path d="M-487.937 1107.25C-887.287 1112.45 -1227.07 784.49 -1233.4 384.286C-1239.45 -15.8792 -910.755 -355.002 -510.435 -361.174C-409.338 -362.812 -307.798 -343.496 -214.684 -304.085C-127.029 -267.119 -61.5489 -211.624 12.1022 -154.261C80.3734 -100.854 192.634 -110.847 205.886 -2.95995C213.952 63.0895 189.828 130.732 173.689 193.852C156.576 260.844 159.437 304.422 207.88 354.284C234.152 381.308 288.261 420.64 261.143 462.948C230.959 510.211 162.853 521.993 130.035 569.292C96.5193 617.597 97.9989 685.189 96.9335 741.623C95.7861 802.473 107.856 891.65 64.6551 941.882C33.5531 978.221 -17.0428 987.542 -61.4795 996.366C-109.907 1006 -150.864 1021.41 -195.429 1041.7C-286.922 1083.32 -387.692 1105.76 -487.937 1107.25Z" stroke="url(#paint35_linear)" stroke-opacity="0.9" stroke-linecap="round" stroke-linejoin="round" stroke-dasharray="1 2"/>
    <path d="M-487.61 1127.08C-897.498 1133.39 -1245.83 793.688 -1253.35 384.458C-1260.9 -26.438 -919.994 -374.458 -510.881 -381.162C-410.482 -382.763 -309.677 -364.105 -216.445 -326.476C-122.051 -288.264 -52.8938 -230.441 25.7882 -168.618C58.2207 -143.059 91.8376 -139.19 129.746 -127.646C185.583 -110.895 212.185 -65.9746 213.908 -8.72428C216.082 61.7347 193.468 130.425 180.847 198.893C167.799 269.375 188.368 305.264 238.519 351.913C267.928 379.25 331.06 421.264 298.94 467.557C266.084 515.126 194.525 531.669 154.16 573.731C110.382 619.314 110.428 687.253 110.018 746.826C109.564 811.51 127.472 911.075 83.0667 964.869C51.0324 1003.84 -4.44027 1009.55 -51.0828 1016.4C-103.381 1024.09 -144.03 1040.24 -191.656 1061.61C-284.117 1103.23 -386.243 1125.48 -487.61 1127.08Z" stroke="url(#paint36_linear)" stroke-opacity="0.9" stroke-linecap="round" stroke-linejoin="round" stroke-dasharray="1 2"/>
    <path d="M-487.32 1147.18C-908.169 1153.72 -1265.59 805.094 -1273.33 384.902C-1281.07 -37.2262 -931.128 -394.184 -511.053 -401.109C-404.688 -402.82 -298.036 -382.491 -199.811 -341.099C-107.433 -302.348 -37.5009 -244.136 39.8646 -182.779C76.0124 -154.195 109.676 -158.344 151.186 -145.867C198.117 -131.642 217.633 -88.4338 220.877 -41.7563C226.407 41.9144 198.009 122.916 189.054 205.332C181.233 276.982 219.198 308.318 271.678 350.321C306.897 378.633 375.797 422.86 337.398 473.368C298.34 524.612 221.203 542.427 173.787 585.411C122.533 631.994 123.238 700.166 123.868 765.007C124.345 828.027 145.151 934.373 102.759 988.595C72.2354 1027.65 13.6667 1030.84 -31.1142 1035.32C-87.2841 1041.08 -129.054 1055.4 -179.664 1078.28C-276.04 1122.11 -381.924 1145.47 -487.32 1147.18Z" stroke="url(#paint37_linear)" stroke-opacity="0.9" stroke-linecap="round" stroke-linejoin="round" stroke-dasharray="1 2"/>
    <path d="M-487.031 1167.28C-919.502 1174.78 -1285.48 816.345 -1293.32 385.346C-1301.28 -47.7441 -942.379 -414.066 -511.497 -421.097C-405.675 -422.885 -299.603 -403.331 -201.454 -363.334C-102.879 -323.414 -27.7598 -262.796 53.668 -196.98C89.3507 -168.048 116.974 -174.449 159.031 -166.737C217.934 -155.908 229.026 -94.5421 228.818 -43.1039C228.574 43.1947 200.367 126.714 198.38 212.624C196.836 282.963 252.311 312.806 303.944 349.153C343.385 376.966 419.1 423.835 377.172 478.677C335.244 533.519 250.203 553.38 196.553 594.498C138.057 639.485 135.512 703.316 136.719 772.805C137.928 839.39 164.072 952.868 121.25 1011.04C88.9399 1054.82 20.9648 1052.23 -27.2232 1055.39C-82.3838 1058.94 -122.18 1074.93 -171.743 1097.27C-270.676 1141.56 -378.691 1165.3 -487.031 1167.28Z" stroke="url(#paint38_linear)" stroke-opacity="0.9" stroke-linecap="round" stroke-linejoin="round" stroke-dasharray="1 2"/>
    <path d="M-486.704 1187.12C-930.136 1194.83 -1305.32 827.324 -1313.38 385.364C-1321.45 -58.5337 -953.127 -434.568 -511.632 -441.317C-287.825 -444.804 -98.8968 -354.94 67.8203 -211.685C102.534 -181.786 126.517 -188.849 168.579 -185.978C225.165 -182.124 236.994 -122.036 237.914 -74.5858C239.752 20.3139 207.856 113.126 209.618 207.599C211.089 282.938 279.735 311.633 335.552 347.752C378.866 375.569 462.865 427.365 412.644 485.995C363.276 543.502 276.182 564.174 215.016 606.563C154.354 648.333 147.981 706.078 149.497 776.304C150.418 821.817 154.671 867.256 156.018 912.692C156.948 949.49 160.771 998.88 139.008 1030.89C108.323 1075.87 40.001 1071.85 -7.91399 1073.11C-69.4638 1074.91 -111.663 1092.22 -166.535 1116.83C-267.483 1161.66 -377.124 1185.18 -486.704 1187.12Z" stroke="url(#paint39_linear)" stroke-opacity="0.9" stroke-linecap="round" stroke-linejoin="round" stroke-dasharray="1 2"/>
    <path d="M-486.413 1207.22C-940.652 1215.04 -1325.2 838.577 -1333.37 385.809C-1341.65 -69.0497 -964.415 -454.177 -511.959 -461.147C-284.975 -464.592 -86.1317 -374.408 81.6258 -225.885C116.609 -194.978 136.641 -201.503 179.21 -202.156C240.914 -203.1 247.507 -135.464 247.573 -86.8916C247.666 10.5239 215.804 106.938 219.926 204.242C223.176 282.603 308.089 311.703 365.612 346.545C414.618 376.149 499.62 431.549 443.159 494.123C391.778 551.203 305.299 575.283 240.807 613.873C174.027 653.932 160.148 703.265 161.27 779.106C162.071 829.306 167.752 879.24 169.675 929.325C170.916 965.891 176.17 1016.87 155.374 1049.85C124.919 1098.04 49.5507 1090.1 1.21057 1090.48C-60.4153 1090.88 -100.755 1108.73 -155.667 1133.62C-259.522 1180.38 -372.805 1205.17 -486.413 1207.22Z" stroke="url(#paint40_linear)" stroke-opacity="0.9" stroke-linecap="round" stroke-linejoin="round" stroke-dasharray="1 2"/>
    <path d="M-485.969 1227.21C-951.441 1235.21 -1344.69 850.022 -1353.2 386.138C-1361.94 -79.9933 -975.279 -473.865 -512.403 -481.134C-282.204 -484.808 -73.213 -393.994 95.5849 -240.202C133.005 -206.039 150.909 -214.115 197.159 -216.314C258.439 -219.117 261.226 -142.344 260.133 -97.259C257.435 2.24525 216.805 113.447 232.855 212.467C244.516 285.26 340.276 313.014 394.857 345.22C445.993 375.407 525.959 432.158 472.594 497.253C421.091 559.987 330.387 586.503 261.789 624.779C190.788 664.369 171.954 710.636 173.498 791.243C174.491 842.024 180.791 892.462 183.295 943.322C185.116 980.663 191.105 1032.3 171.006 1066.21C139.926 1118.74 59.3334 1106.73 8.2823 1106.71C-56.0545 1106.72 -97.4072 1129.69 -154.449 1154.96C-258.884 1200.95 -372.361 1225.16 -485.969 1227.21Z" stroke="url(#paint41_linear)" stroke-opacity="0.9" stroke-linecap="round" stroke-linejoin="round" stroke-dasharray="1 2"/>
    <defs>
        <linearGradient id="paint0_linear" x1="67.0001" y1="-50" x2="39" y2="885" gradientUnits="userSpaceOnUse">
            <stop stop-color="#111111"/>
            <stop offset="0.515625" stop-color="#0039A6" stop-opacity="0.37"/>
            <stop offset="1" stop-color="#111111"/>
        </linearGradient>
        <linearGradient id="paint1_linear" x1="67.0001" y1="-50" x2="39" y2="885" gradientUnits="userSpaceOnUse">
            <stop stop-color="#111111"/>
            <stop offset="0.515625" stop-color="#0039A6" stop-opacity="0.37"/>
            <stop offset="1" stop-color="#111111"/>
        </linearGradient>
        <linearGradient id="paint2_linear" x1="67.0001" y1="-50" x2="39" y2="885" gradientUnits="userSpaceOnUse">
            <stop stop-color="#111111"/>
            <stop offset="0.515625" stop-color="#0039A6" stop-opacity="0.37"/>
            <stop offset="1" stop-color="#111111"/>
        </linearGradient>
        <linearGradient id="paint3_linear" x1="67.0001" y1="-50" x2="39" y2="885" gradientUnits="userSpaceOnUse">
            <stop stop-color="#111111"/>
            <stop offset="0.515625" stop-color="#0039A6" stop-opacity="0.37"/>
            <stop offset="1" stop-color="#111111"/>
        </linearGradient>
        <linearGradient id="paint4_linear" x1="67.0001" y1="-50" x2="39" y2="885" gradientUnits="userSpaceOnUse">
            <stop stop-color="#111111"/>
            <stop offset="0.515625" stop-color="#0039A6" stop-opacity="0.37"/>
            <stop offset="1" stop-color="#111111"/>
        </linearGradient>
        <linearGradient id="paint5_linear" x1="67.0001" y1="-50" x2="39" y2="885" gradientUnits="userSpaceOnUse">
            <stop stop-color="#111111"/>
            <stop offset="0.515625" stop-color="#0039A6" stop-opacity="0.37"/>
            <stop offset="1" stop-color="#111111"/>
        </linearGradient>
        <linearGradient id="paint6_linear" x1="67.0001" y1="-50" x2="39" y2="885" gradientUnits="userSpaceOnUse">
            <stop stop-color="#111111"/>
            <stop offset="0.515625" stop-color="#0039A6" stop-opacity="0.37"/>
            <stop offset="1" stop-color="#111111"/>
        </linearGradient>
        <linearGradient id="paint7_linear" x1="67.0001" y1="-50" x2="39" y2="885" gradientUnits="userSpaceOnUse">
            <stop stop-color="#111111"/>
            <stop offset="0.515625" stop-color="#0039A6" stop-opacity="0.37"/>
            <stop offset="1" stop-color="#111111"/>
        </linearGradient>
        <linearGradient id="paint8_linear" x1="67.0001" y1="-50" x2="39" y2="885" gradientUnits="userSpaceOnUse">
            <stop stop-color="#111111"/>
            <stop offset="0.515625" stop-color="#0039A6" stop-opacity="0.37"/>
            <stop offset="1" stop-color="#111111"/>
        </linearGradient>
        <linearGradient id="paint9_linear" x1="67.0001" y1="-50" x2="39" y2="885" gradientUnits="userSpaceOnUse">
            <stop stop-color="#111111"/>
            <stop offset="0.515625" stop-color="#0039A6" stop-opacity="0.37"/>
            <stop offset="1" stop-color="#111111"/>
        </linearGradient>
        <linearGradient id="paint10_linear" x1="67.0001" y1="-50" x2="39" y2="885" gradientUnits="userSpaceOnUse">
            <stop stop-color="#111111"/>
            <stop offset="0.515625" stop-color="#0039A6" stop-opacity="0.37"/>
            <stop offset="1" stop-color="#111111"/>
        </linearGradient>
        <linearGradient id="paint11_linear" x1="67.0001" y1="-50" x2="39" y2="885" gradientUnits="userSpaceOnUse">
            <stop stop-color="#111111"/>
            <stop offset="0.515625" stop-color="#0039A6" stop-opacity="0.37"/>
            <stop offset="1" stop-color="#111111"/>
        </linearGradient>
        <linearGradient id="paint12_linear" x1="67.0001" y1="-50" x2="39" y2="885" gradientUnits="userSpaceOnUse">
            <stop stop-color="#111111"/>
            <stop offset="0.515625" stop-color="#0039A6" stop-opacity="0.37"/>
            <stop offset="1" stop-color="#111111"/>
        </linearGradient>
        <linearGradient id="paint13_linear" x1="67.0001" y1="-50" x2="39" y2="885" gradientUnits="userSpaceOnUse">
            <stop stop-color="#111111"/>
            <stop offset="0.515625" stop-color="#0039A6" stop-opacity="0.37"/>
            <stop offset="1" stop-color="#111111"/>
        </linearGradient>
        <linearGradient id="paint14_linear" x1="67.0001" y1="-50" x2="39" y2="885" gradientUnits="userSpaceOnUse">
            <stop stop-color="#111111"/>
            <stop offset="0.515625" stop-color="#0039A6" stop-opacity="0.37"/>
            <stop offset="1" stop-color="#111111"/>
        </linearGradient>
        <linearGradient id="paint15_linear" x1="67.0001" y1="-50" x2="39" y2="885" gradientUnits="userSpaceOnUse">
            <stop stop-color="#111111"/>
            <stop offset="0.515625" stop-color="#0039A6" stop-opacity="0.37"/>
            <stop offset="1" stop-color="#111111"/>
        </linearGradient>
        <linearGradient id="paint16_linear" x1="67.0001" y1="-50" x2="39" y2="885" gradientUnits="userSpaceOnUse">
            <stop stop-color="#111111"/>
            <stop offset="0.515625" stop-color="#0039A6" stop-opacity="0.37"/>
            <stop offset="1" stop-color="#111111"/>
        </linearGradient>
        <linearGradient id="paint17_linear" x1="67.0001" y1="-50" x2="39" y2="885" gradientUnits="userSpaceOnUse">
            <stop stop-color="#111111"/>
            <stop offset="0.515625" stop-color="#0039A6" stop-opacity="0.37"/>
            <stop offset="1" stop-color="#111111"/>
        </linearGradient>
        <linearGradient id="paint18_linear" x1="67.0001" y1="-50" x2="39" y2="885" gradientUnits="userSpaceOnUse">
            <stop stop-color="#111111"/>
            <stop offset="0.515625" stop-color="#0039A6" stop-opacity="0.37"/>
            <stop offset="1" stop-color="#111111"/>
        </linearGradient>
        <linearGradient id="paint19_linear" x1="67.0001" y1="-50" x2="39" y2="885" gradientUnits="userSpaceOnUse">
            <stop stop-color="#111111"/>
            <stop offset="0.515625" stop-color="#0039A6" stop-opacity="0.37"/>
            <stop offset="1" stop-color="#111111"/>
        </linearGradient>
        <linearGradient id="paint20_linear" x1="67.0001" y1="-50" x2="39" y2="885" gradientUnits="userSpaceOnUse">
            <stop stop-color="#111111"/>
            <stop offset="0.515625" stop-color="#0039A6" stop-opacity="0.37"/>
            <stop offset="1" stop-color="#111111"/>
        </linearGradient>
        <linearGradient id="paint21_linear" x1="67.0001" y1="-50" x2="39" y2="885" gradientUnits="userSpaceOnUse">
            <stop stop-color="#111111"/>
            <stop offset="0.515625" stop-color="#0039A6" stop-opacity="0.37"/>
            <stop offset="1" stop-color="#111111"/>
        </linearGradient>
        <linearGradient id="paint22_linear" x1="67.0001" y1="-50" x2="39" y2="885" gradientUnits="userSpaceOnUse">
            <stop stop-color="#111111"/>
            <stop offset="0.515625" stop-color="#0039A6" stop-opacity="0.37"/>
            <stop offset="1" stop-color="#111111"/>
        </linearGradient>
        <linearGradient id="paint23_linear" x1="67.0001" y1="-50" x2="39" y2="885" gradientUnits="userSpaceOnUse">
            <stop stop-color="#111111"/>
            <stop offset="0.515625" stop-color="#0039A6" stop-opacity="0.37"/>
            <stop offset="1" stop-color="#111111"/>
        </linearGradient>
        <linearGradient id="paint24_linear" x1="67.0001" y1="-50" x2="39" y2="885" gradientUnits="userSpaceOnUse">
            <stop stop-color="#111111"/>
            <stop offset="0.515625" stop-color="#0039A6" stop-opacity="0.37"/>
            <stop offset="1" stop-color="#111111"/>
        </linearGradient>
        <linearGradient id="paint25_linear" x1="67.0001" y1="-50" x2="39" y2="885" gradientUnits="userSpaceOnUse">
            <stop stop-color="#111111"/>
            <stop offset="0.515625" stop-color="#0039A6" stop-opacity="0.37"/>
            <stop offset="1" stop-color="#111111"/>
        </linearGradient>
        <linearGradient id="paint26_linear" x1="67.0001" y1="-50" x2="39" y2="885" gradientUnits="userSpaceOnUse">
            <stop stop-color="#111111"/>
            <stop offset="0.515625" stop-color="#0039A6" stop-opacity="0.37"/>
            <stop offset="1" stop-color="#111111"/>
        </linearGradient>
        <linearGradient id="paint27_linear" x1="67.0001" y1="-50" x2="39" y2="885" gradientUnits="userSpaceOnUse">
            <stop stop-color="#111111"/>
            <stop offset="0.515625" stop-color="#0039A6" stop-opacity="0.37"/>
            <stop offset="1" stop-color="#111111"/>
        </linearGradient>
        <linearGradient id="paint28_linear" x1="67.0001" y1="-50" x2="39" y2="885" gradientUnits="userSpaceOnUse">
            <stop stop-color="#111111"/>
            <stop offset="0.515625" stop-color="#0039A6" stop-opacity="0.37"/>
            <stop offset="1" stop-color="#111111"/>
        </linearGradient>
        <linearGradient id="paint29_linear" x1="67.0001" y1="-50" x2="39" y2="885" gradientUnits="userSpaceOnUse">
            <stop stop-color="#111111"/>
            <stop offset="0.515625" stop-color="#0039A6" stop-opacity="0.37"/>
            <stop offset="1" stop-color="#111111"/>
        </linearGradient>
        <linearGradient id="paint30_linear" x1="67.0001" y1="-50" x2="39" y2="885" gradientUnits="userSpaceOnUse">
            <stop stop-color="#111111"/>
            <stop offset="0.515625" stop-color="#0039A6" stop-opacity="0.37"/>
            <stop offset="1" stop-color="#111111"/>
        </linearGradient>
        <linearGradient id="paint31_linear" x1="67.0001" y1="-50" x2="39" y2="885" gradientUnits="userSpaceOnUse">
            <stop stop-color="#111111"/>
            <stop offset="0.515625" stop-color="#0039A6" stop-opacity="0.37"/>
            <stop offset="1" stop-color="#111111"/>
        </linearGradient>
        <linearGradient id="paint32_linear" x1="67.0001" y1="-50" x2="39" y2="885" gradientUnits="userSpaceOnUse">
            <stop stop-color="#111111"/>
            <stop offset="0.515625" stop-color="#0039A6" stop-opacity="0.37"/>
            <stop offset="1" stop-color="#111111"/>
        </linearGradient>
        <linearGradient id="paint33_linear" x1="67.0001" y1="-50" x2="39" y2="885" gradientUnits="userSpaceOnUse">
            <stop stop-color="#111111"/>
            <stop offset="0.515625" stop-color="#0039A6" stop-opacity="0.37"/>
            <stop offset="1" stop-color="#111111"/>
        </linearGradient>
        <linearGradient id="paint34_linear" x1="67.0001" y1="-50" x2="39" y2="885" gradientUnits="userSpaceOnUse">
            <stop stop-color="#111111"/>
            <stop offset="0.515625" stop-color="#0039A6" stop-opacity="0.37"/>
            <stop offset="1" stop-color="#111111"/>
        </linearGradient>
        <linearGradient id="paint35_linear" x1="67.0001" y1="-50" x2="39" y2="885" gradientUnits="userSpaceOnUse">
            <stop stop-color="#111111"/>
            <stop offset="0.515625" stop-color="#0039A6" stop-opacity="0.37"/>
            <stop offset="1" stop-color="#111111"/>
        </linearGradient>
        <linearGradient id="paint36_linear" x1="67.0001" y1="-50" x2="39" y2="885" gradientUnits="userSpaceOnUse">
            <stop stop-color="#111111"/>
            <stop offset="0.515625" stop-color="#0039A6" stop-opacity="0.37"/>
            <stop offset="1" stop-color="#111111"/>
        </linearGradient>
        <linearGradient id="paint37_linear" x1="67.0001" y1="-50" x2="39" y2="885" gradientUnits="userSpaceOnUse">
            <stop stop-color="#111111"/>
            <stop offset="0.515625" stop-color="#0039A6" stop-opacity="0.37"/>
            <stop offset="1" stop-color="#111111"/>
        </linearGradient>
        <linearGradient id="paint38_linear" x1="67.0001" y1="-50" x2="39" y2="885" gradientUnits="userSpaceOnUse">
            <stop stop-color="#111111"/>
            <stop offset="0.515625" stop-color="#0039A6" stop-opacity="0.37"/>
            <stop offset="1" stop-color="#111111"/>
        </linearGradient>
        <linearGradient id="paint39_linear" x1="67.0001" y1="-50" x2="39" y2="885" gradientUnits="userSpaceOnUse">
            <stop stop-color="#111111"/>
            <stop offset="0.515625" stop-color="#0039A6" stop-opacity="0.37"/>
            <stop offset="1" stop-color="#111111"/>
        </linearGradient>
        <linearGradient id="paint40_linear" x1="67.0001" y1="-50" x2="39" y2="885" gradientUnits="userSpaceOnUse">
            <stop stop-color="#111111"/>
            <stop offset="0.515625" stop-color="#0039A6" stop-opacity="0.37"/>
            <stop offset="1" stop-color="#111111"/>
        </linearGradient>
        <linearGradient id="paint41_linear" x1="67.0001" y1="-50" x2="39" y2="885" gradientUnits="userSpaceOnUse">
            <stop stop-color="#111111"/>
            <stop offset="0.515625" stop-color="#0039A6" stop-opacity="0.37"/>
            <stop offset="1" stop-color="#111111"/>
        </linearGradient>
    </defs>
</svg>
