<svg width="841" height="938" viewBox="0 0 841 938" fill="none" xmlns="http://www.w3.org/2000/svg">
    <path d="M-484.815 363.639C-467.862 355.704 -460.551 335.529 -468.485 318.576C-476.42 301.624 -496.595 294.312 -513.548 302.247C-530.501 310.181 -537.812 330.356 -529.877 347.309C-521.943 364.262 -501.768 371.573 -484.815 363.639Z" stroke="url(#paint0_linear)" stroke-opacity="0.9" stroke-linecap="round" stroke-linejoin="round" stroke-dasharray="1 2"/>
    <path d="M-498.354 386.835C-527.056 387.27 -551.471 361.758 -552.991 333.868C-554.665 304.158 -526.79 279.668 -500.025 279.231C-473.259 278.793 -444.698 302.412 -445.387 332.197C-446.074 360.046 -469.807 386.516 -498.354 386.835Z" stroke="url(#paint1_linear)" stroke-opacity="0.9" stroke-linecap="round" stroke-linejoin="round" stroke-dasharray="1 2"/>
    <path d="M-504.728 406.625C-464.092 409.716 -428.644 379.279 -425.553 338.643C-422.462 298.007 -452.898 262.559 -493.535 259.468C-534.171 256.377 -569.619 286.813 -572.71 327.449C-575.801 368.086 -545.364 403.534 -504.728 406.625Z" stroke="url(#paint2_linear)" stroke-opacity="0.9" stroke-linecap="round" stroke-linejoin="round" stroke-dasharray="1 2"/>
    <path d="M-447.643 411.497C-404.285 383.018 -392.224 324.782 -420.703 281.424C-449.182 238.066 -507.417 226.004 -550.775 254.483C-594.133 282.962 -606.195 341.198 -577.716 384.556C-549.237 427.914 -491.001 439.976 -447.643 411.497Z" stroke="url(#paint3_linear)" stroke-opacity="0.9" stroke-linecap="round" stroke-linejoin="round" stroke-dasharray="1 2"/>
    <path d="M-497.447 446.873C-558.609 447.895 -610.652 395.163 -613.029 334.775C-615.366 272.179 -560.272 220.061 -500.931 219.193C-441.59 218.324 -384.781 268.698 -385.349 331.291C-385.876 391.677 -436.286 445.852 -497.447 446.873Z" stroke="url(#paint4_linear)" stroke-opacity="0.9" stroke-linecap="round" stroke-linejoin="round" stroke-dasharray="1 2"/>
    <path d="M-497.157 466.978C-568.855 468.144 -632.857 407.188 -633.015 335.221C-633.329 264.338 -572.529 200.451 -501.258 199.363C-430.257 198.235 -367.147 260.584 -365.399 331.12C-363.576 403.051 -425.46 465.813 -497.157 466.978Z" stroke="url(#paint5_linear)" stroke-opacity="0.9" stroke-linecap="round" stroke-linejoin="round" stroke-dasharray="1 2"/>
    <path d="M-496.984 486.926C-580.455 487.227 -651.772 419.408 -653.234 335.354C-654.581 251.456 -585.561 180.451 -501.663 179.104C-417.493 177.797 -348.077 248.247 -345.528 330.521C-342.631 413.259 -412.544 486.626 -496.984 486.926Z" stroke="url(#paint6_linear)" stroke-opacity="0.9" stroke-linecap="round" stroke-linejoin="round" stroke-dasharray="1 2"/>
    <path d="M-497.003 507.264C-591.358 507.244 -671.614 431.359 -673.219 335.801C-674.671 241.096 -596.81 160.571 -501.989 159.274C-404.378 157.826 -334.933 237.689 -326.585 330.62C-318.007 425.798 -401.95 507.246 -497.003 507.264Z" stroke="url(#paint7_linear)" stroke-opacity="0.9" stroke-linecap="round" stroke-linejoin="round" stroke-dasharray="1 2"/>
    <path d="M-496.406 527.133C-600.638 526.522 -690.14 440.866 -692.898 336.011C-695.811 230.304 -605.314 140.806 -502.009 139.208C-393.01 137.462 -320.672 227.98 -308.576 330.443C-302.778 379.564 -306.693 419.262 -343.412 456.176C-381.914 494.908 -441.365 527.306 -496.406 527.133Z" stroke="url(#paint8_linear)" stroke-opacity="0.9" stroke-linecap="round" stroke-linejoin="round" stroke-dasharray="1 2"/>
    <path d="M-495.922 546.849C-609.954 547.041 -710.021 451.149 -713.001 336.301C-716.211 219.205 -616.564 120.924 -502.297 119.106C-377.766 117.104 -315.124 220.2 -291.765 329.957C-280.317 384.041 -276.907 420.919 -319.83 463.444C-364.186 507.283 -433.251 546.875 -495.922 546.849Z" stroke="url(#paint9_linear)" stroke-opacity="0.9" stroke-linecap="round" stroke-linejoin="round" stroke-dasharray="1 2"/>
    <path d="M-495.634 566.952C-621.676 568.874 -732.074 463.056 -733.105 336.589C-734.177 211.362 -629.945 99.4901 -502.743 99.1179C-443.906 98.8688 -381.139 118.417 -343.383 165.633C-306.324 211.92 -294.15 275.378 -274.877 328.928C-253.595 387.748 -244.411 421.03 -295.009 469.782C-348.011 520.817 -420.334 565.751 -495.634 566.952Z" stroke="url(#paint10_linear)" stroke-opacity="0.9" stroke-linecap="round" stroke-linejoin="round" stroke-dasharray="1 2"/>
    <path d="M-495.188 586.94C-632.192 589.083 -751.683 474.347 -752.936 336.918C-754.228 200.729 -639.492 81.2374 -502.914 79.1707C-441.21 78.2273 -369.537 100.302 -330.972 151.509C-291.943 203.337 -286.474 271.088 -257.405 327.708C-245.499 350.728 -223.136 375.114 -223.164 402.228C-223.117 431.705 -249.908 457.318 -269.333 475.968C-328.964 532.69 -410.747 585.671 -495.188 586.94Z" stroke="url(#paint11_linear)" stroke-opacity="0.9" stroke-linecap="round" stroke-linejoin="round" stroke-dasharray="1 2"/>
    <path d="M-495.017 606.887C-644.222 609.211 -770.831 486.256 -773.04 337.206C-775.365 188.001 -651.558 62.2054 -503.36 59.1823C-437.317 57.8948 -358.479 81.1391 -318.254 137.151C-277.913 193.318 -276.673 268.346 -240.052 326.33C-226.634 347.492 -199.893 371.264 -194.225 396.292C-186.552 430.463 -221.406 461.143 -243.467 481.765C-310.269 544.096 -400.466 605.551 -495.017 606.887Z" stroke="url(#paint12_linear)" stroke-opacity="0.9" stroke-linecap="round" stroke-linejoin="round" stroke-dasharray="1 2"/>
    <path d="M-494.728 626.989C-654.74 629.419 -790.598 497.662 -793.144 337.495C-795.574 177.483 -662.81 42.3231 -503.649 39.0789C-434.121 37.6013 -346.453 61.978 -305.535 122.794C-264.386 183.919 -266.134 264.329 -222.428 324.992C-206.531 347.203 -170.225 372.766 -164.057 401.048C-156.539 435.335 -196.003 467.289 -217.715 487.408C-292.077 556.122 -390.029 625.316 -494.728 626.989Z" stroke="url(#paint13_linear)" stroke-opacity="0.9" stroke-linecap="round" stroke-linejoin="round" stroke-dasharray="1 2"/>
    <path d="M-494.282 646.978C-665.256 649.629 -810.478 508.914 -812.974 337.824C-815.625 166.851 -674.91 21.6283 -503.821 19.1324C-429.915 18.008 -334.385 42.5477 -292.001 108.555C-249.268 175.028 -254.275 259.811 -204.607 324.238C-185.963 348.504 -148.763 370.737 -137.173 399.799C-122.762 436.185 -169.746 473.282 -192.504 493.943C-274.58 568.188 -379.744 645.198 -494.282 646.978Z" stroke="url(#paint14_linear)" stroke-opacity="0.9" stroke-linecap="round" stroke-linejoin="round" stroke-dasharray="1 2"/>
    <path d="M-494.11 666.926C-676.045 669.798 -830.477 520.01 -833.078 338.113C-835.95 156.178 -686.162 1.74584 -504.265 -0.855134C-427.029 -2.05358 -321.584 23.7745 -278.158 94.0825C-233.728 166.057 -241.643 254.71 -187.139 323.984C-167.604 348.794 -119.099 376.112 -109.641 406.528C-97.9044 444.189 -145.661 479.93 -169.66 501.519C-257.9 581.103 -370.702 665.039 -494.11 666.926Z" stroke="url(#paint15_linear)" stroke-opacity="0.9" stroke-linecap="round" stroke-linejoin="round" stroke-dasharray="1 2"/>
    <path d="M-493.82 687.029C-686.833 689.967 -850.242 531.416 -853.18 338.403C-856.118 145.389 -697.567 -18.0196 -504.554 -20.9577C-423.289 -22.2682 -309.673 5.42753 -263.617 79.5728C-242.388 113.758 -238.17 155.595 -228.449 193.796C-216.413 240.909 -198.99 285.2 -169.166 324.08C-147.04 352.999 -105.928 374.964 -88.4523 406.396C-66.4925 446.082 -123.01 487.894 -148.559 510.644C-243.234 595.528 -361.387 684.919 -493.82 687.029Z" stroke="url(#paint16_linear)" stroke-opacity="0.9" stroke-linecap="round" stroke-linejoin="round" stroke-dasharray="1 2"/>
    <path d="M-493.377 707.015C-696.267 709.362 -869.971 542.549 -873.169 338.845C-876.367 135.141 -708.704 -37.7483 -505 -40.9465C-419.862 -42.253 -297.803 -12.6506 -248.963 65.216C-227.694 99.13 -223.475 139.03 -214.683 176.96C-202.497 229.766 -182.292 280.683 -150.731 324.795C-128.027 356.425 -86.7994 379.514 -67.8927 412.535C-44.1143 454.005 -103.887 498.254 -130.561 522.087C-230.082 610.839 -354.786 705.376 -493.377 707.015Z" stroke="url(#paint17_linear)" stroke-opacity="0.9" stroke-linecap="round" stroke-linejoin="round" stroke-dasharray="1 2"/>
    <path d="M-493.201 726.966C-706.744 730.27 -888.608 551.907 -893.269 339.138C-897.773 124.316 -718.209 -57.238 -505.441 -60.9303C-413.214 -62.4619 -289.299 -30.3785 -234.73 50.9413C-210.017 87.8413 -202.546 130.146 -193.604 172.802C-182.35 227.273 -161.836 278.926 -131.788 325.864C-109.668 360.592 -72.8573 384.567 -51.4727 418.636C-23.3977 462.938 -89.4511 512.372 -117.598 537.791C-220.532 630.065 -349.961 724.751 -493.201 726.966Z" stroke="url(#paint18_linear)" stroke-opacity="0.9" stroke-linecap="round" stroke-linejoin="round" stroke-dasharray="1 2"/>
    <path d="M-492.76 746.95C-717.264 750.475 -908.338 563.039 -913.22 339.308C-917.945 113.524 -728.959 -77.7423 -505.578 -81.1526C-406.03 -82.5991 -281.421 -47.6488 -218.914 36.1969C-190.871 73.9913 -177.785 117.658 -169.156 163.45C-158.525 220.322 -139.254 275.809 -111.418 326.579C-91.0435 363.823 -54.2756 391.943 -35.4499 428.411C-10.478 476.97 -75.0609 527.722 -106.193 555.617C-212.305 650.754 -346.189 744.661 -492.76 746.95Z" stroke="url(#paint19_linear)" stroke-opacity="0.9" stroke-linecap="round" stroke-linejoin="round" stroke-dasharray="1 2"/>
    <path d="M-492.469 767.055C-728.206 770.762 -927.986 574.602 -933.205 339.754C-938.383 102.698 -739.86 -97.1572 -505.904 -100.983C-398.3 -102.653 -274.276 -63.6365 -203.133 21.7287C-131.718 107.133 -133.315 227.826 -90.1134 327.571C-72.6862 367.988 -37.2807 402.692 -22.6035 442.99C-3.52373 495.959 -63.2248 545.476 -97.42 576.389C-205.161 673.229 -343.806 764.652 -492.469 767.055Z" stroke="url(#paint20_linear)" stroke-opacity="0.9" stroke-linecap="round" stroke-linejoin="round" stroke-dasharray="1 2"/>
    <path d="M-492.295 787.004C-737.446 791.709 -949.454 584.38 -953.152 339.928C-957.006 95.5911 -751.96 -118.821 -506.192 -121.085C-389.409 -122.126 -267.713 -79.4321 -186.732 6.79542C-102.308 96.9774 -102.393 216.781 -66.9883 327.441C-53.0113 370.682 -24.4302 412.428 -13.2042 456.519C1.53207 514.673 -51.9328 564.12 -90.7026 598.94C-200.188 697.327 -341.501 784.216 -492.295 787.004Z" stroke="url(#paint21_linear)" stroke-opacity="0.9" stroke-linecap="round" stroke-linejoin="round" stroke-dasharray="1 2"/>
    <path d="M-491.853 806.989C-748.778 810.829 -970.038 597.603 -973.142 340.369C-976.131 84.2585 -762.906 -137.001 -506.523 -140.919C-382.147 -142.805 -260.535 -93.7588 -170.684 -7.63831C-128.97 32.2618 -93.6505 75.254 -79.3004 132.246C-63.0986 196.561 -63.3227 263.493 -43.8277 327.036C-30.2389 371.052 -14.3712 421.345 -6.40036 466.904C5.03671 531.64 -40.7995 582.876 -85.5784 622.919C-195.8 721.615 -340.441 804.705 -491.853 806.989Z" stroke="url(#paint22_linear)" stroke-opacity="0.9" stroke-linecap="round" stroke-linejoin="round" stroke-dasharray="1 2"/>
    <path d="M-491.564 827.092C-759.451 831.153 -989.804 609.01 -993.245 340.659C-996.455 73.5859 -774.312 -156.767 -506.812 -161.022C-373.566 -163.015 -254.205 -108.897 -154.71 -22.4954C-108.697 17.3317 -61.9891 60.0258 -45.8614 121.009C-28.3451 187.727 -39.419 258.908 -21.5546 326.091C-8.55202 375.142 -1.63952 432.862 0.51526 484.225C3.62138 552.051 -32.2224 604.034 -81.1107 647.636C-191.333 746.332 -340.965 824.691 -491.564 827.092Z" stroke="url(#paint23_linear)" stroke-opacity="0.9" stroke-linecap="round" stroke-linejoin="round" stroke-dasharray="1 2"/>
    <path d="M-491.39 847.041C-770.239 851.324 -1009.96 620.223 -1013.35 340.949C-1016.78 62.914 -785.562 -176.648 -507.255 -181.009C-365.41 -183.147 -247.643 -123.724 -139.2 -37.0036C-89.3136 2.82753 -29.6685 45.0314 -11.5691 109.619C-2.88597 140.615 -7.68366 172.992 -9.30423 204.442C-11.477 245.498 -10.1234 285.124 -0.675072 325.223C12.0895 379.773 7.38683 432.64 6.16742 488.222C4.46284 563.518 -20.2709 621.942 -76.836 672.741C-186.206 771.283 -342.456 844.677 -491.39 847.041Z" stroke="url(#paint24_linear)" stroke-opacity="0.9" stroke-linecap="round" stroke-linejoin="round" stroke-dasharray="1 2"/>
    <path d="M-490.946 867.028C-780.602 871.416 -1029.68 631.358 -1033.18 341.277C-1036.83 52.2805 -796.658 -196.646 -507.428 -200.956C-357.255 -203.28 -240.501 -138.745 -123.963 -51.5516C-70.7454 -11.7945 3.34788 29.9983 22.2566 98.5766C31.827 133.021 21.5254 169.033 16.7257 203.346C11.1057 244.32 10.0963 284.021 18.6533 324.546C26.5161 362.203 31.7891 394.784 23.151 432.695C18.1313 455.078 14.1969 476.649 11.8491 499.693C4.02233 577.152 -11.5011 643.681 -71.8655 697.807C-181.234 795.381 -344.104 864.778 -490.946 867.028Z" stroke="url(#paint25_linear)" stroke-opacity="0.9" stroke-linecap="round" stroke-linejoin="round" stroke-dasharray="1 2"/>
    <path d="M-490.657 887.13C-792.514 891.699 -1048.6 643.577 -1053.28 341.565C-1057.85 39.7081 -808.762 -215.406 -507.718 -221.06C-434.2 -222.379 -359.69 -208.474 -291.47 -180.67C-222.437 -152.749 -168.991 -108.809 -109.423 -66.0627C-55.6233 -27.467 32.9181 13.9147 53.6855 83.0372C65.3046 121.512 48.4906 162.397 40.3178 199.961C31.2886 241.551 27.6833 281.986 35.8902 323.982C42.8247 360.398 50.8475 393.098 40.1577 429.884C32.6941 455.789 21.7863 478.708 17.4978 505.624C4.28313 586.874 -2.03204 663.444 -66.778 722.059C-174.558 819.169 -346.023 884.839 -490.657 887.13Z" stroke="url(#paint26_linear)" stroke-opacity="0.9" stroke-linecap="round" stroke-linejoin="round" stroke-dasharray="1 2"/>
    <path d="M-490.484 907.079C-803.303 911.869 -1068.6 654.674 -1073.39 341.855C-1078.18 29.0361 -820.98 -236.257 -508.162 -241.047C-431.622 -242.207 -355.06 -228.145 -283.936 -199.37C-212.425 -170.401 -157.509 -124.174 -95.4642 -80.379C-38.0638 -39.8817 71.2759 3.10953 86.1853 81.2122C93.0047 116.506 73.5968 156.188 63.6083 189.062C50.0055 233.592 42.6789 276.812 51.385 323.03C58.3575 360.144 66.6884 394.548 53.9839 431.875C44.5436 459.017 30.0735 480.732 24.0014 509.466C6.40716 593.268 8.63907 682.551 -60.1383 744.183C-116.858 795.098 -190.213 825.08 -259.499 854.679C-333.397 886.519 -409.645 905.846 -490.484 907.079Z" stroke="url(#paint27_linear)" stroke-opacity="0.9" stroke-linecap="round" stroke-linejoin="round" stroke-dasharray="1 2"/>
    <path d="M-490.039 927.066C-813.82 932.077 -1088.32 665.809 -1093.22 342.183C-1098.23 18.4021 -831.96 -256.1 -508.334 -260.995C-430.672 -262.271 -352.87 -248.169 -280.738 -219.664C-204.696 -189.489 -147.769 -140.897 -81.9308 -94.6193C-22.7889 -52.7645 93.6414 -11.9351 111.455 67.1389C120.4 106.889 95.4491 150.477 82.3585 186.641C66.0827 231.478 55.7721 276.205 65.5236 322.851C72.8082 357.796 82.4546 393.635 69.9071 428.908C58.7972 459.961 38.206 482.87 30.2701 515.902C9.65286 601.482 19.4663 700.574 -51.5988 764.643C-108.862 816.449 -185.313 844.878 -255.53 875.173C-330.009 907.206 -408.503 925.795 -490.039 927.066Z" stroke="url(#paint28_linear)" stroke-opacity="0.9" stroke-linecap="round" stroke-linejoin="round" stroke-dasharray="1 2"/>
    <path d="M-489.751 947.169C-824.338 952.285 -1108.09 677.215 -1113.32 342.472C-1118.44 7.88443 -843.211 -275.982 -508.624 -281.098C-425.151 -282.368 -341.619 -266.749 -264.455 -234.753C-189.925 -203.689 -133.036 -155.794 -68.9799 -108.666C-9.56884 -64.8357 118.249 -24.3044 135.052 57.9448C143.415 98.8563 117.188 140.739 101.658 176.552C81.5065 223.321 67.6676 271.414 79.0417 322.167C87.0995 358.469 102.944 393.54 86.0962 429.855C73.0916 457.729 50.9538 477.926 41.0843 508.05C11.98 597.805 36.1866 712.25 -39.9193 781.543C-97.5708 834.123 -176.965 861.852 -247.299 892.96C-323.872 927.044 -406.123 945.784 -489.751 947.169Z" stroke="url(#paint29_linear)" stroke-opacity="0.9" stroke-linecap="round" stroke-linejoin="round" stroke-dasharray="1 2"/>
    <path d="M-489.423 967.001C-834.972 972.338 -1127.93 688.194 -1133.27 342.645C-1138.49 -2.74951 -854.462 -295.865 -509.068 -301.086C-422.961 -302.391 -336.602 -286.227 -256.96 -253.183C-179.952 -221.07 -120.972 -172.321 -55.525 -122.364C6.94217 -74.7735 134.843 -38.6577 153.344 49.0934C162.44 92.6008 134.703 134.405 117.233 172.152C95.2616 219.075 77.0411 271.656 93.0638 321.833C103.798 354.923 124.445 390.269 107.521 425.19C90.9072 459.878 60.9475 477.703 48.7062 516.618C20.4532 607.187 48.6452 725.664 -25.0229 797.246C-82.2512 852.653 -167.493 879.679 -239.184 911.56C-318.005 946.843 -403.316 965.696 -489.423 967.001Z" stroke="url(#paint30_linear)" stroke-opacity="0.9" stroke-linecap="round" stroke-linejoin="round" stroke-dasharray="1 2"/>
    <path d="M-489.136 987.102C-845.492 992.544 -1147.82 699.443 -1153.26 343.087C-1158.7 -13.2698 -865.6 -315.594 -509.244 -321.036C-422.014 -322.457 -334.841 -306.176 -253.882 -273.633C-172.149 -240.703 -110.809 -189.123 -42.1499 -136.491C23.8775 -85.7587 153.448 -54.5217 168.572 41.3213C184.348 142.239 66.8268 220.515 109.679 320.763C122.74 351.144 148.965 386.187 132.196 420.991C115.815 455.021 78.304 471.483 63.2767 507.645C23.7077 603.78 69.472 734.747 -9.00777 814.768C-65.6188 872.616 -159.225 897.193 -231.42 929.693C-312.101 966.368 -400.395 985.76 -489.136 987.102Z" stroke="url(#paint31_linear)" stroke-opacity="0.9" stroke-linecap="round" stroke-linejoin="round" stroke-dasharray="1 2"/>
    <path d="M-488.845 1007.21C-856.163 1012.87 -1167.58 710.851 -1173.24 343.533C-1179.02 -23.9405 -876.849 -335.474 -509.531 -341.137C-416.491 -342.552 -323.316 -324.715 -237.364 -288.411C-157.027 -254.436 -96.5773 -203.4 -28.6152 -150.729C37.9534 -98.9506 156.031 -78.2223 178.903 15.692C205.633 125.104 71.4814 216.067 129.475 319.74C148.072 352.993 180.919 389.126 154.192 427.755C130.956 461.352 92.4028 473.513 75.5128 513.004C33.0358 612.041 87.5462 750.494 8.55825 835.006C-19.9038 865.499 -58.0734 881.728 -96.357 895.865C-141.228 912.513 -183.738 931.023 -227.333 950.344C-309.447 986.398 -398.981 1005.75 -488.845 1007.21Z" stroke="url(#paint32_linear)" stroke-opacity="0.9" stroke-linecap="round" stroke-linejoin="round" stroke-dasharray="1 2"/>
    <path d="M-488.518 1027.04C-866.798 1032.92 -1187.58 721.946 -1193.19 343.705C-1199.08 -34.5754 -888.101 -355.357 -509.976 -361.125C-415.812 -362.655 -321.514 -344.934 -234.284 -308.86C-150.19 -274.068 -85.2492 -221.555 -15.0052 -165.512C51.6394 -112.339 176.194 -99.1187 190.032 2.76543C205.14 114.102 83.6399 219.061 152.677 318.097C173.679 348.099 212.956 384.743 187.7 423.722C161.94 463.32 109.909 473.956 89.759 519.758C44.9552 621.504 106.157 769.22 26.5467 856.134C-3.46692 888.756 -44.2683 903.084 -85.572 916.094C-130.789 930.34 -172.136 947.495 -215.305 966.74C-300.946 1005.19 -394.51 1025.62 -488.518 1027.04Z" stroke="url(#paint33_linear)" stroke-opacity="0.9" stroke-linecap="round" stroke-linejoin="round" stroke-dasharray="1 2"/>
    <path d="M-488.228 1047.14C-876.655 1052.4 -1207.31 733.082 -1213.29 343.995C-1219.28 -45.0919 -899.235 -375.083 -510.148 -381.072C-414.9 -382.446 -319.594 -364.995 -231.357 -329.191C-142.461 -293.154 -76.0129 -237.658 -1.62648 -179.635C69.3927 -124.172 191.481 -123.62 199.111 -10.316C206.779 102.717 98.5521 220.24 178.787 316.46C201.109 343.054 248.362 381.953 224.501 420.856C197.535 464.984 134.97 474.797 109.667 521.794C82.7346 571.461 84.7574 638.163 82.8417 692.814C80.65 752.268 87.5795 831.021 45.4266 878.775C14.7137 913.372 -31.5857 925.525 -74.5529 936.636C-120.387 948.441 -160.531 963.97 -203.469 983.525C-292.559 1023.83 -390.501 1045.85 -488.228 1047.14Z" stroke="url(#paint34_linear)" stroke-opacity="0.9" stroke-linecap="round" stroke-linejoin="round" stroke-dasharray="1 2"/>
    <path d="M-487.937 1067.25C-887.287 1072.45 -1227.07 744.49 -1233.4 344.286C-1239.45 -55.8792 -910.755 -395.002 -510.435 -401.174C-409.338 -402.812 -307.798 -383.496 -214.684 -344.085C-127.029 -307.119 -61.5489 -251.624 12.1022 -194.261C80.3734 -140.854 192.634 -150.847 205.886 -42.9599C213.952 23.0895 189.828 90.7324 173.689 153.852C156.576 220.844 159.437 264.422 207.88 314.284C234.152 341.308 288.261 380.64 261.143 422.948C230.959 470.211 162.853 481.993 130.035 529.292C96.5193 577.597 97.9989 645.189 96.9335 701.623C95.7861 762.473 107.856 851.65 64.6551 901.882C33.5531 938.221 -17.0428 947.542 -61.4795 956.366C-109.907 966 -150.864 981.412 -195.429 1001.7C-286.922 1043.32 -387.692 1065.76 -487.937 1067.25Z" stroke="url(#paint35_linear)" stroke-opacity="0.9" stroke-linecap="round" stroke-linejoin="round" stroke-dasharray="1 2"/>
    <path d="M-487.61 1087.08C-897.498 1093.39 -1245.83 753.688 -1253.35 344.458C-1260.9 -66.438 -919.994 -414.458 -510.881 -421.162C-410.482 -422.763 -309.677 -404.105 -216.445 -366.476C-122.051 -328.264 -52.8938 -270.441 25.7882 -208.618C58.2207 -183.059 91.8376 -179.19 129.746 -167.646C185.583 -150.895 212.185 -105.975 213.908 -48.7243C216.082 21.7347 193.468 90.425 180.847 158.893C167.799 229.375 188.368 265.264 238.519 311.913C267.928 339.25 331.06 381.264 298.94 427.557C266.084 475.126 194.525 491.669 154.16 533.731C110.382 579.314 110.428 647.253 110.018 706.826C109.564 771.51 127.472 871.075 83.0667 924.869C51.0324 963.841 -4.44027 969.555 -51.0828 976.401C-103.381 984.094 -144.03 1000.24 -191.656 1021.61C-284.117 1063.23 -386.243 1085.48 -487.61 1087.08Z" stroke="url(#paint36_linear)" stroke-opacity="0.9" stroke-linecap="round" stroke-linejoin="round" stroke-dasharray="1 2"/>
    <path d="M-487.32 1107.18C-908.169 1113.72 -1265.59 765.094 -1273.33 344.902C-1281.07 -77.2262 -931.128 -434.184 -511.053 -441.109C-404.688 -442.82 -298.036 -422.491 -199.811 -381.099C-107.433 -342.348 -37.5009 -284.136 39.8646 -222.779C76.0124 -194.195 109.676 -198.344 151.186 -185.867C198.117 -171.642 217.633 -128.434 220.877 -81.7563C226.407 1.9144 198.009 82.9162 189.054 165.332C181.233 236.982 219.198 268.318 271.678 310.321C306.897 338.633 375.797 382.86 337.398 433.368C298.34 484.612 221.203 502.427 173.787 545.411C122.533 591.994 123.238 660.166 123.868 725.007C124.345 788.027 145.151 894.373 102.759 948.595C72.2354 987.646 13.6667 990.839 -31.1142 995.325C-87.2841 1001.08 -129.054 1015.4 -179.664 1038.28C-276.04 1082.11 -381.924 1105.47 -487.32 1107.18Z" stroke="url(#paint37_linear)" stroke-opacity="0.9" stroke-linecap="round" stroke-linejoin="round" stroke-dasharray="1 2"/>
    <path d="M-487.031 1127.28C-919.502 1134.78 -1285.48 776.345 -1293.32 345.346C-1301.28 -87.7441 -942.379 -454.066 -511.497 -461.097C-405.675 -462.885 -299.603 -443.331 -201.454 -403.334C-102.879 -363.414 -27.7598 -302.796 53.668 -236.98C89.3507 -208.048 116.974 -214.449 159.031 -206.737C217.934 -195.908 229.026 -134.542 228.818 -83.1039C228.574 3.1947 200.367 86.7143 198.38 172.624C196.836 242.963 252.311 272.806 303.944 309.153C343.385 336.966 419.1 383.835 377.172 438.677C335.244 493.519 250.203 513.38 196.553 554.498C138.057 599.485 135.512 663.316 136.719 732.805C137.928 799.39 164.072 912.868 121.25 971.041C88.9399 1014.82 20.9648 1012.23 -27.2232 1015.39C-82.3838 1018.94 -122.18 1034.93 -171.743 1057.27C-270.676 1101.56 -378.691 1125.3 -487.031 1127.28Z" stroke="url(#paint38_linear)" stroke-opacity="0.9" stroke-linecap="round" stroke-linejoin="round" stroke-dasharray="1 2"/>
    <path d="M-486.704 1147.12C-930.136 1154.83 -1305.32 787.324 -1313.38 345.364C-1321.45 -98.5337 -953.127 -474.568 -511.632 -481.317C-287.825 -484.804 -98.8968 -394.94 67.8203 -251.685C102.534 -221.786 126.517 -228.849 168.579 -225.978C225.165 -222.124 236.994 -162.036 237.914 -114.586C239.752 -19.6861 207.856 73.1258 209.618 167.599C211.089 242.938 279.735 271.633 335.552 307.752C378.866 335.569 462.865 387.365 412.644 445.995C363.276 503.502 276.182 524.174 215.016 566.563C154.354 608.333 147.981 666.078 149.497 736.304C150.418 781.817 154.671 827.256 156.018 872.692C156.948 909.49 160.771 958.88 139.008 990.89C108.323 1035.87 40.001 1031.85 -7.91399 1033.11C-69.4638 1034.91 -111.663 1052.22 -166.535 1076.83C-267.483 1121.66 -377.124 1145.18 -486.704 1147.12Z" stroke="url(#paint39_linear)" stroke-opacity="0.9" stroke-linecap="round" stroke-linejoin="round" stroke-dasharray="1 2"/>
    <path d="M-486.413 1167.22C-940.652 1175.04 -1325.2 798.577 -1333.37 345.809C-1341.65 -109.05 -964.415 -494.177 -511.959 -501.147C-284.975 -504.592 -86.1317 -414.408 81.6258 -265.885C116.609 -234.978 136.641 -241.503 179.21 -242.156C240.914 -243.1 247.507 -175.464 247.573 -126.892C247.666 -29.4761 215.804 66.9381 219.926 164.242C223.176 242.603 308.089 271.703 365.612 306.545C414.618 336.149 499.62 391.549 443.159 454.123C391.778 511.203 305.299 535.283 240.807 573.873C174.027 613.932 160.148 663.265 161.27 739.106C162.071 789.306 167.752 839.24 169.675 889.325C170.916 925.891 176.17 976.87 155.374 1009.85C124.919 1058.04 49.5507 1050.1 1.21057 1050.48C-60.4153 1050.88 -100.755 1068.73 -155.667 1093.62C-259.522 1140.38 -372.805 1165.17 -486.413 1167.22Z" stroke="url(#paint40_linear)" stroke-opacity="0.9" stroke-linecap="round" stroke-linejoin="round" stroke-dasharray="1 2"/>
    <path d="M-485.969 1187.21C-951.441 1195.21 -1344.69 810.022 -1353.2 346.138C-1361.94 -119.993 -975.279 -513.865 -512.403 -521.134C-282.204 -524.808 -73.213 -433.994 95.5849 -280.202C133.005 -246.039 150.909 -254.115 197.159 -256.314C258.439 -259.117 261.226 -182.344 260.133 -137.259C257.435 -37.7547 216.805 73.4467 232.855 172.467C244.516 245.26 340.276 273.014 394.857 305.22C445.993 335.407 525.959 392.158 472.594 457.253C421.091 519.987 330.387 546.503 261.789 584.779C190.788 624.369 171.954 670.636 173.498 751.243C174.491 802.024 180.791 852.462 183.295 903.322C185.116 940.663 191.105 992.301 171.006 1026.21C139.926 1078.74 59.3334 1066.73 8.2823 1066.71C-56.0545 1066.72 -97.4072 1089.69 -154.449 1114.96C-258.884 1160.95 -372.361 1185.16 -485.969 1187.21Z" stroke="url(#paint41_linear)" stroke-opacity="0.9" stroke-linecap="round" stroke-linejoin="round" stroke-dasharray="1 2"/>
    <defs>
        <linearGradient id="paint0_linear" x1="67.0001" y1="-90" x2="39" y2="845" gradientUnits="userSpaceOnUse">
            <stop stop-color="#F9F7F7"/>
            <stop offset="0.515625" stop-color="#E30A17" stop-opacity="0.37"/>
            <stop offset="1" stop-color="#F9F7F7"/>
        </linearGradient>
        <linearGradient id="paint1_linear" x1="67.0001" y1="-90" x2="39" y2="845" gradientUnits="userSpaceOnUse">
            <stop stop-color="#F9F7F7"/>
            <stop offset="0.515625" stop-color="#E30A17" stop-opacity="0.37"/>
            <stop offset="1" stop-color="#F9F7F7"/>
        </linearGradient>
        <linearGradient id="paint2_linear" x1="67.0001" y1="-90" x2="39" y2="845" gradientUnits="userSpaceOnUse">
            <stop stop-color="#F9F7F7"/>
            <stop offset="0.515625" stop-color="#E30A17" stop-opacity="0.37"/>
            <stop offset="1" stop-color="#F9F7F7"/>
        </linearGradient>
        <linearGradient id="paint3_linear" x1="67.0001" y1="-90" x2="39" y2="845" gradientUnits="userSpaceOnUse">
            <stop stop-color="#F9F7F7"/>
            <stop offset="0.515625" stop-color="#E30A17" stop-opacity="0.37"/>
            <stop offset="1" stop-color="#F9F7F7"/>
        </linearGradient>
        <linearGradient id="paint4_linear" x1="67.0001" y1="-90" x2="39" y2="845" gradientUnits="userSpaceOnUse">
            <stop stop-color="#F9F7F7"/>
            <stop offset="0.515625" stop-color="#E30A17" stop-opacity="0.37"/>
            <stop offset="1" stop-color="#F9F7F7"/>
        </linearGradient>
        <linearGradient id="paint5_linear" x1="67.0001" y1="-90" x2="39" y2="845" gradientUnits="userSpaceOnUse">
            <stop stop-color="#F9F7F7"/>
            <stop offset="0.515625" stop-color="#E30A17" stop-opacity="0.37"/>
            <stop offset="1" stop-color="#F9F7F7"/>
        </linearGradient>
        <linearGradient id="paint6_linear" x1="67.0001" y1="-90" x2="39" y2="845" gradientUnits="userSpaceOnUse">
            <stop stop-color="#F9F7F7"/>
            <stop offset="0.515625" stop-color="#E30A17" stop-opacity="0.37"/>
            <stop offset="1" stop-color="#F9F7F7"/>
        </linearGradient>
        <linearGradient id="paint7_linear" x1="67.0001" y1="-90" x2="39" y2="845" gradientUnits="userSpaceOnUse">
            <stop stop-color="#F9F7F7"/>
            <stop offset="0.515625" stop-color="#E30A17" stop-opacity="0.37"/>
            <stop offset="1" stop-color="#F9F7F7"/>
        </linearGradient>
        <linearGradient id="paint8_linear" x1="67.0001" y1="-90" x2="39" y2="845" gradientUnits="userSpaceOnUse">
            <stop stop-color="#F9F7F7"/>
            <stop offset="0.515625" stop-color="#E30A17" stop-opacity="0.37"/>
            <stop offset="1" stop-color="#F9F7F7"/>
        </linearGradient>
        <linearGradient id="paint9_linear" x1="67.0001" y1="-90" x2="39" y2="845" gradientUnits="userSpaceOnUse">
            <stop stop-color="#F9F7F7"/>
            <stop offset="0.515625" stop-color="#E30A17" stop-opacity="0.37"/>
            <stop offset="1" stop-color="#F9F7F7"/>
        </linearGradient>
        <linearGradient id="paint10_linear" x1="67.0001" y1="-90" x2="39" y2="845" gradientUnits="userSpaceOnUse">
            <stop stop-color="#F9F7F7"/>
            <stop offset="0.515625" stop-color="#E30A17" stop-opacity="0.37"/>
            <stop offset="1" stop-color="#F9F7F7"/>
        </linearGradient>
        <linearGradient id="paint11_linear" x1="67.0001" y1="-90" x2="39" y2="845" gradientUnits="userSpaceOnUse">
            <stop stop-color="#F9F7F7"/>
            <stop offset="0.515625" stop-color="#E30A17" stop-opacity="0.37"/>
            <stop offset="1" stop-color="#F9F7F7"/>
        </linearGradient>
        <linearGradient id="paint12_linear" x1="67.0001" y1="-90" x2="39" y2="845" gradientUnits="userSpaceOnUse">
            <stop stop-color="#F9F7F7"/>
            <stop offset="0.515625" stop-color="#E30A17" stop-opacity="0.37"/>
            <stop offset="1" stop-color="#F9F7F7"/>
        </linearGradient>
        <linearGradient id="paint13_linear" x1="67.0001" y1="-90" x2="39" y2="845" gradientUnits="userSpaceOnUse">
            <stop stop-color="#F9F7F7"/>
            <stop offset="0.515625" stop-color="#E30A17" stop-opacity="0.37"/>
            <stop offset="1" stop-color="#F9F7F7"/>
        </linearGradient>
        <linearGradient id="paint14_linear" x1="67.0001" y1="-90" x2="39" y2="845" gradientUnits="userSpaceOnUse">
            <stop stop-color="#F9F7F7"/>
            <stop offset="0.515625" stop-color="#E30A17" stop-opacity="0.37"/>
            <stop offset="1" stop-color="#F9F7F7"/>
        </linearGradient>
        <linearGradient id="paint15_linear" x1="67.0001" y1="-90" x2="39" y2="845" gradientUnits="userSpaceOnUse">
            <stop stop-color="#F9F7F7"/>
            <stop offset="0.515625" stop-color="#E30A17" stop-opacity="0.37"/>
            <stop offset="1" stop-color="#F9F7F7"/>
        </linearGradient>
        <linearGradient id="paint16_linear" x1="67.0001" y1="-90" x2="39" y2="845" gradientUnits="userSpaceOnUse">
            <stop stop-color="#F9F7F7"/>
            <stop offset="0.515625" stop-color="#E30A17" stop-opacity="0.37"/>
            <stop offset="1" stop-color="#F9F7F7"/>
        </linearGradient>
        <linearGradient id="paint17_linear" x1="67.0001" y1="-90" x2="39" y2="845" gradientUnits="userSpaceOnUse">
            <stop stop-color="#F9F7F7"/>
            <stop offset="0.515625" stop-color="#E30A17" stop-opacity="0.37"/>
            <stop offset="1" stop-color="#F9F7F7"/>
        </linearGradient>
        <linearGradient id="paint18_linear" x1="67.0001" y1="-90" x2="39" y2="845" gradientUnits="userSpaceOnUse">
            <stop stop-color="#F9F7F7"/>
            <stop offset="0.515625" stop-color="#E30A17" stop-opacity="0.37"/>
            <stop offset="1" stop-color="#F9F7F7"/>
        </linearGradient>
        <linearGradient id="paint19_linear" x1="67.0001" y1="-90" x2="39" y2="845" gradientUnits="userSpaceOnUse">
            <stop stop-color="#F9F7F7"/>
            <stop offset="0.515625" stop-color="#E30A17" stop-opacity="0.37"/>
            <stop offset="1" stop-color="#F9F7F7"/>
        </linearGradient>
        <linearGradient id="paint20_linear" x1="67.0001" y1="-90" x2="39" y2="845" gradientUnits="userSpaceOnUse">
            <stop stop-color="#F9F7F7"/>
            <stop offset="0.515625" stop-color="#E30A17" stop-opacity="0.37"/>
            <stop offset="1" stop-color="#F9F7F7"/>
        </linearGradient>
        <linearGradient id="paint21_linear" x1="67.0001" y1="-90" x2="39" y2="845" gradientUnits="userSpaceOnUse">
            <stop stop-color="#F9F7F7"/>
            <stop offset="0.515625" stop-color="#E30A17" stop-opacity="0.37"/>
            <stop offset="1" stop-color="#F9F7F7"/>
        </linearGradient>
        <linearGradient id="paint22_linear" x1="67.0001" y1="-90" x2="39" y2="845" gradientUnits="userSpaceOnUse">
            <stop stop-color="#F9F7F7"/>
            <stop offset="0.515625" stop-color="#E30A17" stop-opacity="0.37"/>
            <stop offset="1" stop-color="#F9F7F7"/>
        </linearGradient>
        <linearGradient id="paint23_linear" x1="67.0001" y1="-90" x2="39" y2="845" gradientUnits="userSpaceOnUse">
            <stop stop-color="#F9F7F7"/>
            <stop offset="0.515625" stop-color="#E30A17" stop-opacity="0.37"/>
            <stop offset="1" stop-color="#F9F7F7"/>
        </linearGradient>
        <linearGradient id="paint24_linear" x1="67.0001" y1="-90" x2="39" y2="845" gradientUnits="userSpaceOnUse">
            <stop stop-color="#F9F7F7"/>
            <stop offset="0.515625" stop-color="#E30A17" stop-opacity="0.37"/>
            <stop offset="1" stop-color="#F9F7F7"/>
        </linearGradient>
        <linearGradient id="paint25_linear" x1="67.0001" y1="-90" x2="39" y2="845" gradientUnits="userSpaceOnUse">
            <stop stop-color="#F9F7F7"/>
            <stop offset="0.515625" stop-color="#E30A17" stop-opacity="0.37"/>
            <stop offset="1" stop-color="#F9F7F7"/>
        </linearGradient>
        <linearGradient id="paint26_linear" x1="67.0001" y1="-90" x2="39" y2="845" gradientUnits="userSpaceOnUse">
            <stop stop-color="#F9F7F7"/>
            <stop offset="0.515625" stop-color="#E30A17" stop-opacity="0.37"/>
            <stop offset="1" stop-color="#F9F7F7"/>
        </linearGradient>
        <linearGradient id="paint27_linear" x1="67.0001" y1="-90" x2="39" y2="845" gradientUnits="userSpaceOnUse">
            <stop stop-color="#F9F7F7"/>
            <stop offset="0.515625" stop-color="#E30A17" stop-opacity="0.37"/>
            <stop offset="1" stop-color="#F9F7F7"/>
        </linearGradient>
        <linearGradient id="paint28_linear" x1="67.0001" y1="-90" x2="39" y2="845" gradientUnits="userSpaceOnUse">
            <stop stop-color="#F9F7F7"/>
            <stop offset="0.515625" stop-color="#E30A17" stop-opacity="0.37"/>
            <stop offset="1" stop-color="#F9F7F7"/>
        </linearGradient>
        <linearGradient id="paint29_linear" x1="67.0001" y1="-90" x2="39" y2="845" gradientUnits="userSpaceOnUse">
            <stop stop-color="#F9F7F7"/>
            <stop offset="0.515625" stop-color="#E30A17" stop-opacity="0.37"/>
            <stop offset="1" stop-color="#F9F7F7"/>
        </linearGradient>
        <linearGradient id="paint30_linear" x1="67.0001" y1="-90" x2="39" y2="845" gradientUnits="userSpaceOnUse">
            <stop stop-color="#F9F7F7"/>
            <stop offset="0.515625" stop-color="#E30A17" stop-opacity="0.37"/>
            <stop offset="1" stop-color="#F9F7F7"/>
        </linearGradient>
        <linearGradient id="paint31_linear" x1="67.0001" y1="-90" x2="39" y2="845" gradientUnits="userSpaceOnUse">
            <stop stop-color="#F9F7F7"/>
            <stop offset="0.515625" stop-color="#E30A17" stop-opacity="0.37"/>
            <stop offset="1" stop-color="#F9F7F7"/>
        </linearGradient>
        <linearGradient id="paint32_linear" x1="67.0001" y1="-90" x2="39" y2="845" gradientUnits="userSpaceOnUse">
            <stop stop-color="#F9F7F7"/>
            <stop offset="0.515625" stop-color="#E30A17" stop-opacity="0.37"/>
            <stop offset="1" stop-color="#F9F7F7"/>
        </linearGradient>
        <linearGradient id="paint33_linear" x1="67.0001" y1="-90" x2="39" y2="845" gradientUnits="userSpaceOnUse">
            <stop stop-color="#F9F7F7"/>
            <stop offset="0.515625" stop-color="#E30A17" stop-opacity="0.37"/>
            <stop offset="1" stop-color="#F9F7F7"/>
        </linearGradient>
        <linearGradient id="paint34_linear" x1="67.0001" y1="-90" x2="39" y2="845" gradientUnits="userSpaceOnUse">
            <stop stop-color="#F9F7F7"/>
            <stop offset="0.515625" stop-color="#E30A17" stop-opacity="0.37"/>
            <stop offset="1" stop-color="#F9F7F7"/>
        </linearGradient>
        <linearGradient id="paint35_linear" x1="67.0001" y1="-90" x2="39" y2="845" gradientUnits="userSpaceOnUse">
            <stop stop-color="#F9F7F7"/>
            <stop offset="0.515625" stop-color="#E30A17" stop-opacity="0.37"/>
            <stop offset="1" stop-color="#F9F7F7"/>
        </linearGradient>
        <linearGradient id="paint36_linear" x1="67.0001" y1="-90" x2="39" y2="845" gradientUnits="userSpaceOnUse">
            <stop stop-color="#F9F7F7"/>
            <stop offset="0.515625" stop-color="#E30A17" stop-opacity="0.37"/>
            <stop offset="1" stop-color="#F9F7F7"/>
        </linearGradient>
        <linearGradient id="paint37_linear" x1="67.0001" y1="-90" x2="39" y2="845" gradientUnits="userSpaceOnUse">
            <stop stop-color="#F9F7F7"/>
            <stop offset="0.515625" stop-color="#E30A17" stop-opacity="0.37"/>
            <stop offset="1" stop-color="#F9F7F7"/>
        </linearGradient>
        <linearGradient id="paint38_linear" x1="67.0001" y1="-90" x2="39" y2="845" gradientUnits="userSpaceOnUse">
            <stop stop-color="#F9F7F7"/>
            <stop offset="0.515625" stop-color="#E30A17" stop-opacity="0.37"/>
            <stop offset="1" stop-color="#F9F7F7"/>
        </linearGradient>
        <linearGradient id="paint39_linear" x1="67.0001" y1="-90" x2="39" y2="845" gradientUnits="userSpaceOnUse">
            <stop stop-color="#F9F7F7"/>
            <stop offset="0.515625" stop-color="#E30A17" stop-opacity="0.37"/>
            <stop offset="1" stop-color="#F9F7F7"/>
        </linearGradient>
        <linearGradient id="paint40_linear" x1="67.0001" y1="-90" x2="39" y2="845" gradientUnits="userSpaceOnUse">
            <stop stop-color="#F9F7F7"/>
            <stop offset="0.515625" stop-color="#E30A17" stop-opacity="0.37"/>
            <stop offset="1" stop-color="#F9F7F7"/>
        </linearGradient>
        <linearGradient id="paint41_linear" x1="67.0001" y1="-90" x2="39" y2="845" gradientUnits="userSpaceOnUse">
            <stop stop-color="#F9F7F7"/>
            <stop offset="0.515625" stop-color="#E30A17" stop-opacity="0.37"/>
            <stop offset="1" stop-color="#F9F7F7"/>
        </linearGradient>
    </defs>
</svg>
