<svg width="504" height="504" viewBox="0 0 504 504" fill="none" xmlns="http://www.w3.org/2000/svg">
    <path d="M248.069 504V498.96H248.472V504H248.069ZM255.679 498.96H256.133V504H255.73L255.679 498.96ZM240.559 504V498.96H240.962V504H240.559ZM263.34 498.96H263.794V504H263.39L263.34 498.96ZM233.1 503.546L233.453 498.506H233.906L233.503 503.546H233.1ZM271.102 498.506H271.505L271.858 503.546H271.454L271.102 498.506ZM225.439 502.841L225.994 497.801H226.397L225.842 502.841H225.439ZM278.611 497.801H279.014L279.569 502.841H279.115L278.611 497.801ZM217.829 501.934L218.484 496.894H218.938L218.232 501.934H217.829ZM286.07 496.894H286.474L287.179 501.934H286.776L286.07 496.894ZM210.47 500.774L211.277 495.734H211.73L210.874 500.774H210.47ZM293.782 495.734H294.185L295.042 500.774H294.588L293.782 495.734ZM203.062 499.313L204.07 494.273H204.473L203.465 499.313H203.062ZM301.342 494.273H301.745L302.702 499.313H302.299L301.342 494.273ZM195.502 497.599L196.661 492.559H197.064L195.905 497.599H195.502ZM308.65 492.559H309.053L310.162 497.599H309.809L308.65 492.559ZM188.042 495.583L189.353 490.543H189.706L188.446 495.583H188.042ZM315.958 490.543H316.361L317.621 495.583H317.268L315.958 490.543ZM180.634 493.315L181.44 488.88H181.843L180.382 493.92L180.634 493.315ZM322.56 488.88H322.963L324.374 493.92H323.971L322.56 488.88ZM172.62 491.4L174.233 486.36H174.636L173.074 491.4H172.62ZM329.717 486.36H330.12L331.733 491.4H331.33L329.717 486.36ZM165.312 488.88L167.076 483.84H167.479L165.766 488.88H165.312ZM336.672 484.142H337.075L338.789 489.182H338.386L336.672 484.142ZM158.004 486.108L159.919 481.421H160.272L158.407 486.108H158.004ZM343.728 481.471H344.131L345.996 486.209H345.593L343.728 481.471ZM151.2 483.034L153.216 478.346H153.619L151.603 482.983L151.2 483.034ZM350.935 478.397H351.338L353.354 483.084H352.951L350.935 478.397ZM144.295 479.808L146.462 475.272H146.815L144.648 479.858L144.295 479.808ZM357.84 475.222H358.243L360.41 479.808H360.007L357.84 475.222ZM137.39 476.431L139.709 471.946H140.062L137.794 476.482L137.39 476.431ZM364.644 471.895H364.997L367.315 476.431H366.912L364.644 471.895ZM130.637 472.853L133.056 468.418H133.459L130.99 472.853H130.637ZM371.347 468.317H371.65L374.069 472.752H373.716L371.347 468.317ZM123.984 469.022L126.554 464.688H126.907L124.337 469.073L123.984 469.022ZM377.849 464.638H378.202L380.772 469.022H380.419L377.849 464.638ZM117.432 465.041L120.154 460.757H120.506L117.785 465.041H117.432ZM384.25 460.656H384.602L387.324 464.94H386.971L384.25 460.656ZM110.88 460.807L113.702 456.624L114.055 456.876L111.182 461.059L110.88 460.807ZM390.398 456.523H390.751L393.624 460.706H393.271L390.398 456.523ZM104.58 456.523L107.554 452.39L107.856 452.642L104.933 456.775L104.58 456.523ZM396.598 452.34H396.9L399.924 456.422L399.571 456.674L396.598 452.34ZM98.4312 451.937L101.506 447.905L101.858 448.157L98.7336 452.189L98.4312 451.937ZM402.646 447.804H402.948L406.073 451.836H405.72L402.646 447.804ZM92.3832 447.048L95.6088 443.117L95.76 443.52L92.5344 447.401L92.3832 447.048ZM408.542 443.016L408.845 442.764L412.07 446.645L411.718 446.947L408.542 443.016ZM86.5368 442.109L89.8632 438.278L90.1656 438.581L86.8392 442.361L86.5368 442.109ZM414.137 438.127L414.439 437.875L417.766 441.706H417.463L414.137 438.127ZM80.64 436.968L84.1176 433.238L84.42 433.541L80.9928 437.27L80.64 436.968ZM419.731 433.087L420.034 432.835L423.511 436.565H423.158L419.731 433.087ZM75.096 431.676L78.6744 428.047L78.9768 428.35L75.3984 431.978L75.096 431.676ZM425.174 427.896L425.477 427.594L429.055 431.222L428.753 431.525L425.174 427.896ZM69.7032 426.182L73.3824 422.654L73.6848 423.007L70.0056 426.485L69.7032 426.182ZM430.466 422.554V422.251L434.146 425.729L433.843 426.031L430.466 422.554ZM64.4616 420.538L68.2416 417.161L68.544 417.463L64.764 420.89L64.4616 420.538ZM435.557 417.01L435.859 416.707L439.639 420.084L439.337 420.386L435.557 417.01ZM59.4216 414.742L63.3024 411.466L63.5544 411.818L59.724 415.094L59.4216 414.742ZM440.496 411.365L440.798 411.012L444.679 414.288L444.377 414.641L440.496 411.365ZM54.5328 408.794L58.5144 405.67V405.972L54.5832 409.147L54.5328 408.794ZM445.284 405.518L445.536 405.216L449.518 408.341V408.694L445.284 405.518ZM49.9968 402.746L54.0792 399.672V400.025L50.4 403.2L49.9968 402.746ZM450.022 399.571V399.218L454.104 402.242L453.852 402.595L450.022 399.571ZM45.36 396.497L49.4928 393.574L49.7448 393.926L45.5616 396.85L45.36 396.497ZM454.306 393.473V393.12L458.489 396.043L458.237 396.346L454.306 393.473ZM41.0256 390.146L45.36 387.324L45.612 387.727L41.328 390.499L41.0256 390.146ZM458.64 387.223V386.87L462.874 389.642V390.046L458.64 387.223ZM37.044 383.645L41.3784 380.974V381.326L37.044 383.998V383.645ZM462.672 380.873V380.52L467.006 383.191V383.544L462.672 380.873ZM33.1128 376.992L37.4976 374.472V374.875L33.0624 377.395L33.1128 376.992ZM466.553 374.422V374.069L470.988 376.589V376.942L466.553 374.422ZM29.3832 370.289L33.8688 367.92V368.323L29.3832 370.692V370.289ZM470.131 367.92V367.567L474.617 369.936V370.339L470.131 367.92ZM25.9056 363.434L30.4416 361.166V361.57L25.8552 363.787L25.9056 363.434ZM473.76 361.166V360.763L478.296 363.031V363.384L473.76 361.166ZM22.5792 356.479L27.216 354.362V354.715L22.5792 356.832V356.479ZM476.784 354.362V354.01L481.37 356.076V356.479L476.784 354.362ZM19.5048 349.322L24.1416 347.407V347.76L19.4544 349.726L19.5048 349.322ZM479.808 347.76V347.357L484.495 349.322V349.726L479.808 347.76ZM16.632 342.72L21.3696 340.956V341.309L16.7832 342.72H16.632ZM482.58 341.057V340.654L487.318 342.468V342.871L482.58 341.057ZM13.86 335.513L18.9 333.85V334.253L13.86 335.916V335.513ZM485.1 333.95V333.598L490.14 335.261V335.664L485.1 333.95ZM11.5416 327.6L16.5816 326.138V326.542L11.5416 328.054V327.6ZM487.57 326.29V325.886L492.61 327.398V327.802L487.57 326.29ZM9.324 320.292L14.364 318.931V319.334L9.324 320.746V320.292ZM489.737 319.082V318.679L494.777 320.04V320.494L489.737 319.082ZM7.3584 312.883L12.3984 311.674V312.077L7.3584 313.286V312.883ZM491.652 311.825V311.422L496.692 312.631V313.034L491.652 311.825ZM5.6448 305.374L10.6848 304.315V304.718L5.6448 305.827V305.374ZM493.366 304.466V304.063L498.406 305.172V305.575L493.366 304.466ZM4.1328 297.864L9.1728 296.957V297.36L4.1328 298.267V297.864ZM494.827 297.36V296.957L499.867 297.864V298.267L494.827 297.36ZM2.8728 290.304L7.9128 289.498V289.951L2.8728 290.707V290.304ZM496.087 289.699V289.246L501.127 290.002V290.455L496.087 289.699ZM1.8144 282.694L6.8544 282.038V282.492L1.8144 283.097V282.694ZM497.095 282.24V281.786L502.135 282.391V282.845L497.095 282.24ZM1.008 275.033L6.048 274.579V274.982L1.008 275.436V275.033ZM497.902 274.73V274.327L502.942 274.781V275.184L497.902 274.73ZM0.4536 267.372L5.4936 267.07V267.473L0.4536 267.775V267.372ZM498.506 267.372V266.969L503.546 267.271V267.674L498.506 267.372ZM0 259.661H5.04V260.114H0V259.661ZM498.96 259.661V259.207H504V259.661H498.96ZM498.96 244.188H504V244.642H498.96V244.188ZM0 244.39V243.986H5.04V244.44L0 244.39ZM498.456 236.88L503.496 236.578V236.88H498.456ZM0.4536 236.88V236.477L5.4936 236.779V236.88H0.4536ZM497.902 229.32L502.942 228.866V229.27L497.902 229.774V229.32ZM1.008 229.068V228.614L6.048 229.118V229.522L1.008 229.068ZM497.095 221.76L502.135 221.105V221.76L497.095 222.365V221.76ZM1.8144 221.458V221.004L6.8544 221.609V222.012L1.8144 221.458ZM496.087 214.25L501.127 213.444V213.898L496.087 214.654V214.25ZM2.8728 213.797V213.394L7.9128 214.15V214.603L2.8728 213.797ZM494.827 206.64L499.867 205.733V206.136L494.827 207.043V206.64ZM4.1328 206.237V205.834L9.1728 206.741V207.144L4.1328 206.237ZM493.315 199.433L498.355 198.324V198.778L493.315 199.836V199.433ZM5.6448 198.677V198.274L10.6848 199.382V199.786L5.6448 198.677ZM491.652 192.074L496.692 190.865V191.268L491.652 192.478V192.074ZM7.3584 191.218V190.814L12.3984 192.024V192.427L7.3584 191.218ZM489.686 184.817L494.726 183.406V183.859L489.686 185.22V184.817ZM9.324 183.758V183.355L14.364 184.766V185.17L9.324 183.758ZM487.519 177.61L492.559 176.047V176.45L487.519 178.013V177.61ZM11.4912 176.4V175.997L16.5312 177.559V177.962L11.4912 176.4ZM485.251 170.402L490.039 168.739V169.142L485.251 170.806V170.402ZM14.0112 169.092V168.689L19.0512 170.352V170.806L14.0112 169.092ZM482.731 163.346L487.469 161.482V161.885L482.731 163.699V163.346ZM16.5816 161.885V161.482L21.3192 163.296V163.699L16.5816 161.885ZM19.404 154.778V154.375L24.0912 156.341V156.744L19.404 154.778ZM479.707 156.24L484.394 154.274V154.627L479.707 156.593V156.24ZM22.4784 147.722V147.37L27.0648 149.486V149.839L22.4784 147.722ZM476.683 149.386L481.32 147.319V147.672L476.734 149.789L476.683 149.386ZM25.7544 140.818V140.465L30.2904 142.682V143.086L25.7544 140.818ZM473.458 142.582L477.994 140.364V140.717L473.458 142.985V142.582ZM29.232 134.014V133.61L33.7176 136.03V136.382L29.232 134.014ZM469.98 136.08L474.466 133.711V134.064L469.98 136.433V136.08ZM32.9616 127.26V126.907L37.3464 129.427V129.78L32.9616 127.26ZM466.402 129.276L470.786 126.756V127.109L466.402 129.629V129.276ZM36.8424 120.658L37.0944 120.305L41.3784 122.976V123.329L36.8424 120.658ZM462.47 122.774L466.805 120.154V120.506L462.47 123.178V122.774ZM40.9752 114.206V113.854L45.2088 116.626V116.978L40.9752 114.206ZM458.64 116.424L462.874 113.652V114.005L458.64 116.777V116.424ZM45.36 107.856V107.503L49.4928 110.426V110.729L45.36 107.856ZM454.306 110.225L458.438 107.302V107.654L454.306 110.527V110.225ZM49.7448 101.606L49.9968 101.254L54.0792 104.328L53.8272 104.63L49.7448 101.606ZM449.77 104.126L453.852 101.052V101.405L449.77 104.429V104.126ZM54.432 95.76V95.4576L58.4136 98.5824L58.1616 98.9352L54.432 95.76ZM445.183 98.3808L449.114 95.2056L449.417 95.5584L445.435 98.7336L445.183 98.3808ZM59.2704 89.8128L59.5728 89.5104L63.4536 92.7864L63.1512 93.0888L59.2704 89.8128ZM440.395 92.5848L444.226 89.2584L444.528 89.6112L440.647 92.8872L440.395 92.5848ZM64.3104 84.0168L64.6128 83.7144L68.3928 87.0912L68.0904 87.444L64.3104 84.0168ZM435.406 86.8896L439.186 83.5128L439.488 83.8152L435.708 87.192L435.406 86.8896ZM69.552 78.12L69.8544 77.8176L73.4832 81.3456L73.2312 81.648L69.552 78.12ZM430.315 81.144L433.944 77.616L434.246 77.9184L430.567 81.4464L430.315 81.144ZM74.9448 72.6768L75.2472 72.3744L78.7752 76.0032L78.4728 76.2552L74.9448 72.6768ZM425.023 75.6L428.551 72.0216H428.854L425.275 75.6504L425.023 75.6ZM80.64 67.3344V67.032L84.0672 70.7616L83.7648 71.064L80.64 67.3344ZM419.53 70.56L423.007 66.8304L423.31 67.1328L419.832 70.8624L419.53 70.56ZM86.184 62.1936L86.4864 61.8912L89.8128 65.7216L89.5104 66.024L86.184 62.1936ZM413.784 65.5704L417.11 61.74L417.413 61.992L414.086 65.8224L413.784 65.5704ZM92.0304 57.204H92.3832L95.6088 61.1352L95.256 61.3872L92.0304 57.204ZM408.24 60.48L411.466 56.5488L411.768 56.8512L408.542 60.7824L408.24 60.48ZM98.0784 52.416L98.3808 52.164L101.506 56.196H101.153L98.0784 52.416ZM402.293 56.0448L405.367 52.0128H405.72L402.595 56.0448H402.293ZM104.227 47.8296L104.58 47.5776L107.554 51.66L107.201 51.912L104.227 47.8296ZM396.245 51.5592L399.218 47.4264L399.571 47.6784L396.598 51.7608L396.245 51.5592ZM110.527 43.3944H110.88L113.702 47.628H113.35L110.527 43.3944ZM390.096 47.2248L393.12 43.0416H393.473L390.65 47.2752L390.096 47.2248ZM116.928 39.1608H117.331L120.053 43.4448H119.65L116.928 39.1608ZM384.048 43.092L386.77 38.808H387.122L384.401 43.092H384.048ZM123.53 35.28H123.883L126.454 39.6648H126.101L123.53 35.28ZM377.395 39.3624L379.966 34.9776H380.318L378 39.4128L377.395 39.3624ZM130.435 31.4496H130.838L133.258 35.8848H132.905L130.435 31.4496ZM370.843 35.28L373.313 30.8448H373.666L371.196 35.28H370.843ZM136.987 27.6696H137.34L139.658 32.1552H139.306L136.987 27.6696ZM364.19 31.9536L366.509 27.4176H366.912L364.594 31.9536H364.19ZM143.892 24.2928H144.295L146.462 28.8792H146.059L143.892 24.2928ZM357.487 28.6272L359.654 24.0408H360.007L357.84 28.8288L357.487 28.6272ZM150.847 21.0672H151.25L153.266 25.704H152.863L150.847 21.0672ZM350.582 25.5528L352.598 20.8656H353.002L350.986 25.5024L350.582 25.5528ZM158.004 18.0936H158.407L160.272 22.7808H159.869L158.004 18.0936ZM343.728 22.6296L345.593 17.9424H345.996L344.081 22.6296H343.728ZM336.672 20.16L338.436 15.12H338.839L337.075 20.16H336.672ZM165.211 15.12H165.614L167.328 20.16H166.925L165.211 15.12ZM329.566 17.2872L331.128 12.2472H331.582L329.969 17.2872H329.566ZM172.469 12.8016H172.872L174.485 17.8416H174.082L172.469 12.8016ZM322.56 15.12L324.022 10.08H324.425L322.56 15.12ZM179.827 10.4832H180.23L181.44 15.12L179.827 10.4832ZM315.101 13.2048L316.411 8.1648H316.814L315.504 13.2048H315.101ZM187.186 8.1648H187.639L188.899 13.2048H188.496L187.186 8.1648ZM307.793 11.1888L308.952 6.1488H309.355L308.246 11.1888H307.793ZM194.695 6.1488H195.098L196.207 11.1888H195.804L194.695 6.1488ZM300.535 9.4248L301.543 4.3848H301.946L300.938 9.4248H300.535ZM202.205 5.04H202.608L203.616 10.08H203.162L202.205 5.04ZM292.925 8.6184L293.782 3.5784H294.185L293.378 8.6184H292.925ZM209.714 3.4776H210.168L210.974 8.5176H210.571L209.714 3.4776ZM285.617 7.308L286.272 2.268H286.726L286.02 7.308H285.617ZM217.325 2.3184H217.778L218.434 7.3584H218.03L217.325 2.3184ZM278.107 6.4008L278.662 1.3608H279.065L278.561 6.4008H278.107ZM224.986 1.4112H225.389L225.943 6.4512H225.49L224.986 1.4112ZM270.346 5.7456L270.749 0.7056H271.152L270.799 5.7456H270.346ZM232.445 0.7056H232.798L233.15 5.7456H232.747L232.445 0.7056ZM262.685 5.292V0.252H263.088V5.292H262.685ZM239.904 0.252H240.307L240.559 5.292H240.106L239.904 0.252ZM247.968 0H248.371V5.04H247.968V0ZM255.578 5.04V0H255.982V5.04H255.578Z" fill="white"/>
    <path d="M251.588 41.199L252.032 41.6743L252.477 41.199L271.063 21.3268C329.015 26.0801 383.065 52.4013 422.493 95.0766C461.987 137.824 483.915 193.847 483.913 252.001C483.915 310.154 461.987 366.178 422.493 408.925C383.066 451.599 329.018 477.92 271.068 482.674L252.451 462.2L251.999 461.704L251.549 462.201L232.996 482.674C175.035 477.935 120.971 451.62 81.531 408.945C42.0235 366.196 20.0871 310.164 20.0871 252.001C20.0872 193.837 42.0235 137.805 81.531 95.0563C120.972 52.3794 175.038 26.0648 233.002 21.3267L251.588 41.199Z" stroke="#00FCFC" stroke-width="1.21739"/>
</svg>
