<svg width="258" height="258" viewBox="0 0 258 258" fill="none" xmlns="http://www.w3.org/2000/svg">
    <path fill-rule="evenodd" clip-rule="evenodd" d="M172 118.25H139.75V86C139.75 80.0553 134.934 75.25 129 75.25C123.066 75.25 118.25 80.0553 118.25 86V129C118.25 134.945 123.066 139.75 129 139.75H172C177.945 139.75 182.75 134.945 182.75 129C182.75 123.055 177.945 118.25 172 118.25ZM129 215C81.5818 215 43 176.418 43 129C43 81.5818 81.5818 43 129 43C176.418 43 215 81.5818 215 129C215 176.418 176.418 215 129 215ZM129 21.5C69.7245 21.5 21.5 69.7245 21.5 129C21.5 188.275 69.7245 236.5 129 236.5C188.275 236.5 236.5 188.275 236.5 129C236.5 69.7245 188.275 21.5 129 21.5Z" fill="#407BFF" fill-opacity="0.5"/>
    <path d="M97.9219 112.879C97.9219 104.871 100.812 98.3281 106.594 93.25C112.414 88.1328 119.934 85.5742 129.152 85.5742C138.02 85.5742 145.266 87.8789 150.891 92.4883C156.438 97.0586 159.211 102.898 159.211 110.008C159.211 114.812 157.648 119.598 154.523 124.363C152.297 127.762 148.41 132.215 142.863 137.723L122.238 157.586V157.938H160.383V172H98.918V160.105L130.793 129.402C135.09 125.105 138.02 121.648 139.582 119.031C141.184 116.414 141.984 113.641 141.984 110.711C141.984 107.508 140.734 104.812 138.234 102.625C135.656 100.438 132.434 99.3438 128.566 99.3438C124.465 99.3438 121.066 100.633 118.371 103.211C115.676 105.75 114.328 108.973 114.328 112.879V113.172H97.9219V112.879Z" fill="#111111"/>
</svg>
