<svg width="295" height="357" viewBox="0 0 295 357" fill="none" xmlns="http://www.w3.org/2000/svg">
    <path d="M7.23901 6.99988L21.2389 6.99993L7.23894 21.5002L7.23901 6.99988Z" fill="#00FCFC" fill-opacity="0.7"/>
    <path d="M11.239 103.496V25.9843L22.6512 14.8848L24.7434 12.8499L26.5933 11H68.2164L65.8115 14.8848H23.2635H22.6512L11.239 25.9843V103.496L22.3385 110.71V158.623L11.239 149.559V103.496Z" fill="#00FCFC" fill-opacity="0.7"/>
    <path d="M11.239 103.496V25.9843L22.6512 14.8848M11.239 103.496L22.3385 110.71V158.623L11.239 149.559V103.496ZM22.6512 14.8848L24.7434 12.8499L26.5933 11H68.2164L65.8115 14.8848H23.2635H22.6512Z" stroke="#00FCFC" stroke-width="0.739966" stroke-linecap="round" stroke-linejoin="round"/>
    <path d="M101.668 345.901L94.268 353.485H67.2592L72.439 345.901H101.668Z" fill="#00FCFC" fill-opacity="0.7"/>
    <path d="M13.2417 180.148V353.485H67.2592M120.239 353.485H94.268M94.268 353.485L101.668 345.901H72.439L67.2592 353.485M94.268 353.485H67.2592" stroke="#00FCFC" stroke-width="0.739966" stroke-linecap="round" stroke-linejoin="round"/>
    <circle cx="13.7539" cy="352.515" r="3.51484" fill="#00FCFC" fill-opacity="0.7"/>
    <rect x="11.9468" y="237.126" width="2.58988" height="2.58988" fill="#00FCFC" fill-opacity="0.7"/>
    <path d="M16.2016 271.904L16.5716 298.358H18.0515V303.908L15.6466 306.868V298.358H16.5716L16.2016 271.904V266.54L22.1213 261.73V267.095L16.2016 271.904Z" fill="#00FCFC" fill-opacity="0.7"/>
    <path d="M16.5716 298.358L16.2016 271.904M16.5716 298.358H15.6466V306.868L18.0515 303.908V298.358H16.5716ZM16.2016 271.904L22.1213 267.095V261.73L16.2016 266.54V271.904Z" stroke="#00FCFC" stroke-width="0.739966" stroke-linecap="round" stroke-linejoin="round"/>
    <path d="M16.5717 319.632V344.606L23.4163 352.191H67.8143" stroke="#00FCFC" stroke-width="0.739966" stroke-linecap="round" stroke-linejoin="round"/>
    <path d="M287.338 6.98914L273.338 6.98918L287.338 21.4894L287.338 6.98914Z" fill="#00FCFC" fill-opacity="0.7"/>
    <path d="M283.338 103.485V25.9736L271.926 14.8741L269.834 12.8392L267.984 10.9893H226.361L228.765 14.8741H271.313H271.926L283.338 25.9736V103.485L272.238 110.7V158.612L283.338 149.548V103.485Z" fill="#00FCFC" fill-opacity="0.7"/>
    <path d="M283.338 103.485V25.9736L271.926 14.8741M283.338 103.485L272.238 110.7V158.612L283.338 149.548V103.485ZM271.926 14.8741L269.834 12.8392L267.984 10.9893H226.361L228.765 14.8741H271.313H271.926Z" stroke="#00FCFC" stroke-width="0.739966" stroke-linecap="round" stroke-linejoin="round"/>
    <path d="M192.909 345.89L200.309 353.475H227.318L222.138 345.89H192.909Z" fill="#00FCFC" fill-opacity="0.7"/>
    <path d="M281.335 180.138V353.475H227.318M171.739 353.475H200.309M200.309 353.475L192.909 345.89H222.138L227.318 353.475M200.309 353.475H227.318" stroke="#00FCFC" stroke-width="0.739966" stroke-linecap="round" stroke-linejoin="round"/>
    <circle r="3.51484" transform="matrix(-1 0 0 1 280.823 352.504)" fill="#00FCFC" fill-opacity="0.7"/>
    <rect width="2.58988" height="2.58988" transform="matrix(-1 0 0 1 282.63 237.115)" fill="#00FCFC" fill-opacity="0.7"/>
    <path d="M278.375 271.894L278.005 298.347H276.525V303.897L278.93 306.857V298.347H278.005L278.375 271.894V266.529L272.456 261.719V267.084L278.375 271.894Z" fill="#00FCFC" fill-opacity="0.7"/>
    <path d="M278.005 298.347L278.375 271.894M278.005 298.347H278.93V306.857L276.525 303.897V298.347H278.005ZM278.375 271.894L272.456 267.084V261.719L278.375 266.529V271.894Z" stroke="#00FCFC" stroke-width="0.739966" stroke-linecap="round" stroke-linejoin="round"/>
    <path d="M278.005 319.621V344.595L271.161 352.18H226.763" stroke="#00FCFC" stroke-width="0.739966" stroke-linecap="round" stroke-linejoin="round"/>
    <path d="M102.365 11L107.193 16.4713H103.009L99.5494 12.046H79.354V13.092H75.4114L73.239 11H102.365Z" fill="#00FCFC" fill-opacity="0.5"/>
    <path d="M80.3195 16.4713H103.009M133.239 16.4713H107.193M107.193 16.4713L102.365 11H73.239L75.4114 13.092H79.354V12.046H99.5494L103.009 16.4713M107.193 16.4713H103.009" stroke="#00FCFC" stroke-width="0.321839" stroke-linecap="round" stroke-linejoin="round"/>
    <circle cx="80.1585" cy="16.4714" r="1.52874" fill="#00FCFC" fill-opacity="0.5"/>
    <path d="M192.228 11L187.4 16.4713H191.584L195.044 12.046H215.239V13.092H219.182L221.354 11H192.228Z" fill="#00FCFC" fill-opacity="0.5"/>
    <path d="M214.274 16.4713H191.584M157.739 16.4713H187.4M187.4 16.4713L192.228 11H221.354L219.182 13.092H215.239V12.046H195.044L191.584 16.4713M187.4 16.4713H191.584" stroke="#00FCFC" stroke-width="0.321839" stroke-linecap="round" stroke-linejoin="round"/>
    <circle r="1.52874" transform="matrix(-1 0 0 1 214.435 16.4714)" fill="#00FCFC" fill-opacity="0.5"/>
</svg>
