<svg width="918" height="720" viewBox="0 0 918 720" fill="none" xmlns="http://www.w3.org/2000/svg">
    <path d="M-17.8712 747.847C-11.5719 730.221 -20.7539 710.825 -38.3798 704.526C-56.0057 698.227 -75.401 707.409 -81.7003 725.035C-87.9996 742.661 -78.8176 762.056 -61.1917 768.355C-43.5657 774.654 -24.1705 765.472 -17.8712 747.847Z" stroke="url(#paint0_linear)" stroke-opacity="0.8" stroke-linecap="round" stroke-linejoin="round" stroke-dasharray="1 2"/>
    <path d="M-10.9279 773.792C-30.8244 794.483 -66.131 793.863 -87.0095 775.309C-109.289 755.582 -107.059 718.545 -88.527 699.228C-69.9953 679.91 -33.1145 676.252 -12.4453 697.71C6.84983 717.803 8.94197 753.292 -10.9279 773.792Z" stroke="url(#paint1_linear)" stroke-opacity="0.8" stroke-linecap="round" stroke-linejoin="round" stroke-dasharray="1 2"/>
    <path d="M-1.35986 792.25C29.4424 765.565 32.7802 718.963 6.09534 688.161C-20.5895 657.359 -67.192 654.021 -97.9942 680.706C-128.796 707.39 -132.134 753.993 -105.449 784.795C-78.7646 815.597 -32.1621 818.935 -1.35986 792.25Z" stroke="url(#paint2_linear)" stroke-opacity="0.8" stroke-linecap="round" stroke-linejoin="round" stroke-dasharray="1 2"/>
    <path d="M42.2867 755.137C52.5832 704.295 19.7142 654.732 -31.1282 644.435C-81.9707 634.139 -131.534 667.008 -141.83 717.85C-152.127 768.693 -119.258 818.256 -68.4152 828.552C-17.5727 838.849 31.9902 805.98 42.2867 755.137Z" stroke="url(#paint3_linear)" stroke-opacity="0.8" stroke-linecap="round" stroke-linejoin="round" stroke-dasharray="1 2"/>
    <path d="M32.3513 815.414C-9.97961 859.571 -84.0675 859.411 -128.631 818.588C-174.733 776.182 -172.963 700.363 -131.805 657.606C-90.6472 614.849 -14.8783 609.964 29.1769 654.432C71.693 697.316 74.6822 771.256 32.3513 815.414Z" stroke="url(#paint4_linear)" stroke-opacity="0.8" stroke-linecap="round" stroke-linejoin="round" stroke-dasharray="1 2"/>
    <path d="M46.8347 829.361C-2.81086 881.102 -91.1593 883.647 -142.384 833.096C-192.948 783.419 -195.519 695.263 -146.119 643.878C-96.9375 592.658 -8.2276 591.728 43.0991 640.142C95.4696 689.485 96.4802 777.619 46.8347 829.361Z" stroke="url(#paint5_linear)" stroke-opacity="0.8" stroke-linecap="round" stroke-linejoin="round" stroke-dasharray="1 2"/>
    <path d="M61.124 843.28C2.57592 902.776 -95.7957 905.684 -156.522 847.551C-217.057 789.444 -218.899 690.439 -160.792 629.904C-102.468 569.204 -3.56466 569.499 56.6621 625.607C117.464 681.796 120.355 783.098 61.124 843.28Z" stroke="url(#paint6_linear)" stroke-opacity="0.8" stroke-linecap="round" stroke-linejoin="round" stroke-dasharray="1 2"/>
    <path d="M75.555 857.611C9.11687 924.61 -101.276 928.189 -170.274 862.059C-238.558 796.419 -240.937 684.433 -175.105 616.176C-107.419 545.831 -1.81052 552.732 70.0681 612.224C143.704 673.134 142.457 790.09 75.555 857.611Z" stroke="url(#paint7_linear)" stroke-opacity="0.8" stroke-linecap="round" stroke-linejoin="round" stroke-dasharray="1 2"/>
    <path d="M90.0868 871.175C16.276 944.772 -107.566 948.04 -183.979 876.183C-261.105 803.836 -260.96 676.559 -189.371 602.065C-113.879 523.422 1.33363 535.767 82.6204 599.309C121.589 629.77 147.028 660.497 147.396 712.562C147.8 767.175 128.957 832.205 90.0868 871.175Z" stroke="url(#paint8_linear)" stroke-opacity="0.8" stroke-linecap="round" stroke-linejoin="round" stroke-dasharray="1 2"/>
    <path d="M104.43 884.711C24.2907 965.835 -114.258 969.398 -197.925 890.664C-283.349 810.512 -283.001 670.553 -203.852 588.118C-117.606 498.263 -0.286156 526.351 94.1102 587.027C140.581 616.97 169.173 640.51 169.158 700.93C169.068 763.295 148.568 840.218 104.43 884.711Z" stroke="url(#paint9_linear)" stroke-opacity="0.8" stroke-linecap="round" stroke-linejoin="round" stroke-dasharray="1 2"/>
    <path d="M118.91 898.658C31.5457 989.529 -121.327 993.443 -211.873 905.146C-301.566 817.75 -307.644 664.967 -218.361 574.363C-177.118 532.4 -119.048 501.583 -58.9347 508.007C0.0277634 514.271 53.668 550.298 105.268 574.308C162.025 600.601 192.128 617.508 191.133 687.764C190.068 761.335 171.067 844.333 118.91 898.658Z" stroke="url(#paint10_linear)" stroke-opacity="0.8" stroke-linecap="round" stroke-linejoin="round" stroke-dasharray="1 2"/>
    <path d="M133.42 912.412C38.4955 1011.22 -127.112 1015.32 -225.599 919.462C-323.234 824.506 -327.328 658.898 -232.649 560.442C-189.881 515.955 -123.746 480.591 -60.229 489.25C4.05539 498.016 56.0238 541.826 116.701 561.04C141.432 568.789 174.495 570.074 193.732 589.182C214.7 609.899 214.031 646.958 213.602 673.883C211.908 756.166 191.963 851.547 133.42 912.412Z" stroke="url(#paint11_linear)" stroke-opacity="0.8" stroke-linecap="round" stroke-linejoin="round" stroke-dasharray="1 2"/>
    <path d="M147.708 926.333C44.3222 1033.94 -132.134 1037.3 -239.548 933.943C-347.153 830.558 -349.34 654.07 -247.159 546.688C-201.581 498.876 -129.572 459.247 -61.4734 470.109C6.81694 480.998 60.9766 532.936 127.938 547.746C152.415 553.113 188.123 550.856 209.888 564.45C239.559 583.056 236.812 629.407 235.928 659.593C233.17 750.918 213.32 858.24 147.708 926.333Z" stroke="url(#paint12_linear)" stroke-opacity="0.8" stroke-linecap="round" stroke-linejoin="round" stroke-dasharray="1 2"/>
    <path d="M162.188 940.279C51.2697 1055.63 -137.949 1059.37 -253.495 948.425C-368.85 837.506 -371.381 648.064 -261.64 532.741C-213.743 482.32 -134.714 437.217 -62.7166 450.969C9.66462 464.774 65.5425 522.622 139.396 534.287C166.361 538.632 210.075 530.843 234.504 546.372C264.148 565.17 259.06 615.692 258.065 645.276C254.518 746.463 234.705 864.741 162.188 940.279Z" stroke="url(#paint13_linear)" stroke-opacity="0.8" stroke-linecap="round" stroke-linejoin="round" stroke-dasharray="1 2"/>
    <path d="M176.699 954.034C58.2203 1077.33 -143.952 1081.41 -267.221 962.74C-390.517 844.262 -394.598 642.09 -275.927 518.821C-224.698 465.54 -140.018 414.967 -63.301 431.332C13.9919 447.778 70.6823 511.019 151.405 521.099C181.765 524.94 223.743 514.171 252.543 526.399C288.529 541.779 281.801 601.263 280.454 631.971C275.405 742.53 256.066 871.434 176.699 954.034Z" stroke="url(#paint14_linear)" stroke-opacity="0.8" stroke-linecap="round" stroke-linejoin="round" stroke-dasharray="1 2"/>
    <path d="M190.987 967.954C64.949 1099.19 -150.15 1103.43 -281.169 977.222C-412.405 851.184 -416.64 636.084 -290.436 505.066C-236.915 449.367 -144.34 392.66 -63.8352 411.313C18.561 430.425 75.9523 498.457 163.522 508.514C194.894 512.105 248.443 496.887 276.704 511.582C311.714 529.759 303.478 588.838 301.916 621.08C296.32 739.776 276.523 878.979 190.987 967.954Z" stroke="url(#paint15_linear)" stroke-opacity="0.8" stroke-linecap="round" stroke-linejoin="round" stroke-dasharray="1 2"/>
    <path d="M205.469 981.901C71.6793 1121.05 -155.963 1125.49 -295.115 991.703C-434.266 857.913 -438.707 630.27 -304.917 491.119C-248.639 432.48 -148.985 371.284 -63.9039 390.771C-24.6797 399.759 8.00283 426.216 41.9781 446.204C83.912 470.822 127.634 489.627 176.243 495.817C212.357 500.46 256.9 486.725 291.526 496.44C335.171 508.782 325.081 578.357 323.252 612.517C316.889 739.514 297.201 886.359 205.469 981.901Z" stroke="url(#paint16_linear)" stroke-opacity="0.8" stroke-linecap="round" stroke-linejoin="round" stroke-dasharray="1 2"/>
    <path d="M219.975 995.656C78.8122 1141.41 -161.945 1147.34 -308.872 1006.21C-455.799 865.08 -460.558 624.291 -319.427 477.364C-260.42 415.977 -153.469 350.128 -63.784 370.256C-24.7249 379.026 6.58352 404.118 39.7114 424.575C85.7941 453.095 136.181 474.589 189.728 483.227C228.176 489.369 273.597 476.342 310.359 486.16C356.552 498.466 345.9 572.069 344.049 607.79C337.022 740.952 316.376 896.072 219.975 995.656Z" stroke="url(#paint17_linear)" stroke-opacity="0.8" stroke-linecap="round" stroke-linejoin="round" stroke-dasharray="1 2"/>
    <path d="M234.269 1009.58C86.2868 1163.57 -168.419 1167.17 -322.814 1020.69C-478.556 872.661 -481.092 617.322 -333.93 463.609C-270.093 397.029 -160.073 331.608 -63.9024 350.099C-20.2979 358.524 15.0073 383 51.5971 406.677C98.2065 437.03 149.333 458.823 203.822 470.526C244.059 479.263 287.001 469.998 326.252 478.793C377.48 490.041 366.089 571.754 364.328 609.639C357.4 747.703 333.533 906.285 234.269 1009.58Z" stroke="url(#paint18_linear)" stroke-opacity="0.8" stroke-linecap="round" stroke-linejoin="round" stroke-dasharray="1 2"/>
    <path d="M248.773 1023.33C93.2308 1185.26 -174.402 1189.02 -336.738 1034.98C-500.422 879.391 -503.222 610.522 -348.389 449.47C-279.337 377.751 -166.793 313.855 -63.2404 328.486C-16.6563 335.176 23.5687 356.622 62.1661 382.73C110.043 415.216 163.017 440.59 218.671 456.562C259.465 468.31 305.321 461.993 344.474 474.295C396.541 490.743 387.122 572.34 385.017 614.088C377.885 756.426 350.33 917.621 248.773 1023.33Z" stroke="url(#paint19_linear)" stroke-opacity="0.8" stroke-linecap="round" stroke-linejoin="round" stroke-dasharray="1 2"/>
    <path d="M263.257 1037.28C99.9363 1207.31 -180.022 1211.11 -350.491 1049.49C-522.499 886.285 -524.685 604.596 -362.703 435.742C-288.138 358.143 -173.118 297.525 -62.4062 307.093C48.5239 316.495 133.119 402.594 234.373 442.129C275.347 458.205 324.918 457.489 363.872 475.434C414.923 499.172 408.064 576.432 405.946 622.48C398.877 767.173 366.205 930.002 263.257 1037.28Z" stroke="url(#paint20_linear)" stroke-opacity="0.8" stroke-linecap="round" stroke-linejoin="round" stroke-dasharray="1 2"/>
    <path d="M277.548 1051.2C108.309 1228.62 -188.19 1233.24 -364.409 1063.78C-540.656 894.509 -548.589 597.94 -377.182 421.795C-295.709 338.12 -179.716 281.744 -61.4665 284.932C62.0153 288.458 147.043 372.857 250.56 425.614C291.111 446.128 340.88 455.217 380.097 478.282C431.774 508.756 429.254 581.537 426.691 633.585C419.493 780.606 381.722 942.138 277.548 1051.2Z" stroke="url(#paint21_linear)" stroke-opacity="0.8" stroke-linecap="round" stroke-linejoin="round" stroke-dasharray="1 2"/>
    <path d="M292.052 1064.95C113.91 1250.13 -193.289 1257.17 -378.168 1078.29C-562.168 900.114 -569.207 592.915 -391.502 408.067C-305.284 318.405 -184.838 266.561 -60.4203 263.373C-2.71675 261.836 52.6814 267.016 103.261 296.946C160.344 330.715 207.723 377.992 266.577 408.88C307.404 430.214 354.294 454.35 392.263 480.761C446.291 518.211 450.413 586.834 447.329 646.826C439.832 794.588 397.021 955.808 292.052 1064.95Z" stroke="url(#paint22_linear)" stroke-opacity="0.8" stroke-linecap="round" stroke-linejoin="round" stroke-dasharray="1 2"/>
    <path d="M306.533 1078.9C120.832 1272.02 -199.103 1279.24 -392.115 1092.77C-584.056 907.036 -591.274 587.101 -405.983 394.121C-313.597 298.083 -191.134 251.408 -59.727 241.569C0.951443 236.926 64.1548 233.809 118.82 265.286C178.536 299.813 221.295 357.788 281.586 392.395C325.576 417.691 371.437 453.415 409.433 488.043C459.791 533.585 471.477 595.637 468.029 661.053C460.531 808.815 410.846 970.25 306.533 1078.9Z" stroke="url(#paint23_linear)" stroke-opacity="0.8" stroke-linecap="round" stroke-linejoin="round" stroke-dasharray="1 2"/>
    <path d="M320.824 1092.82C127.563 1293.88 -205.325 1301.44 -406.06 1107.25C-605.942 913.957 -613.314 581.095 -420.49 380.365C-322.153 278.118 -197.045 236.309 -59.1126 220.34C4.29542 212.95 76.2584 200.299 134.872 232.912C162.999 248.566 182.616 274.766 203.812 298.057C231.441 328.502 260.537 355.436 295.668 376.955C343.397 406.291 377.633 446.848 416.25 486.842C468.528 541.06 492.61 599.755 488.868 675.691C481.861 822.739 423.991 985.379 320.824 1092.82Z" stroke="url(#paint24_linear)" stroke-opacity="0.8" stroke-linecap="round" stroke-linejoin="round" stroke-dasharray="1 2"/>
    <path d="M335.332 1106.57C134.538 1315.38 -211.305 1323.29 -419.788 1121.57C-627.612 920.714 -635.328 574.898 -434.779 366.446C-330.711 258.153 -202.685 220.662 -58.7184 199.277C6.98208 189.468 88.8242 166.267 150.841 201.115C182.042 218.565 200.366 251.233 221.357 278.798C246.502 311.634 273.988 340.3 308.793 362.751C341.074 383.676 367.925 402.867 388.77 435.691C401.133 455.013 413.684 472.992 428.397 490.883C477.901 550.971 514.223 608.83 510.17 689.806C502.476 836.172 437.107 1000.7 335.332 1106.57Z" stroke="url(#paint25_linear)" stroke-opacity="0.8" stroke-linecap="round" stroke-linejoin="round" stroke-dasharray="1 2"/>
    <path d="M349.812 1120.52C140.557 1338.12 -215.942 1345.33 -433.736 1136.05C-651.338 926.792 -657.174 570.288 -449.262 352.499C-398.443 299.356 -336.115 256.226 -268.342 227.348C-199.914 197.974 -131.082 190.949 -58.7888 178.735C6.4967 167.695 98.218 133.943 161.93 167.854C197.435 186.687 214.637 227.411 235.561 259.659C258.744 295.351 284.923 326.376 320.527 350.111C351.273 370.823 380.145 388.145 398.746 421.633C411.89 445.171 420.489 469.052 436.586 491.046C484.989 557.629 534.925 616.018 530.975 703.266C524.071 848.177 450.004 1016.19 349.812 1120.52Z" stroke="url(#paint26_linear)" stroke-opacity="0.8" stroke-linecap="round" stroke-linejoin="round" stroke-dasharray="1 2"/>
    <path d="M364.103 1134.44C147.288 1359.98 -222.139 1367.34 -447.682 1150.53C-673.225 933.713 -680.584 564.287 -463.769 338.744C-410.711 283.567 -346.826 239.09 -276.32 208.833C-205.403 178.437 -133.912 171.978 -59.1297 158.743C10.0409 146.485 117.547 99.0936 183.513 143.487C213.38 163.489 227.901 205.209 244.217 235.446C266.267 276.455 291.805 312.083 330.759 338.437C362.027 359.612 392.327 377.915 409.893 413.215C422.525 439.027 427.76 464.591 443.893 489.132C491.025 560.622 556.008 621.89 551.363 714.125C547.594 790.252 517.249 863.456 489.494 933.502C460.085 1008.4 420.135 1076.16 364.103 1134.44Z" stroke="url(#paint27_linear)" stroke-opacity="0.8" stroke-linecap="round" stroke-linejoin="round" stroke-dasharray="1 2"/>
    <path d="M378.611 1148.2C154.236 1381.68 -228.117 1389.19 -461.41 1164.84C-694.894 940.469 -702.406 558.116 -478.058 324.823C-424.291 268.768 -359.505 223.438 -288.482 192.276C-213.519 159.511 -138.932 153.288 -59.7164 139.106C11.6444 126.567 122.607 72.618 191.307 115.633C225.836 137.263 239.228 185.669 255.697 220.424C276.084 263.548 300.592 302.357 340.585 328.269C370.532 347.696 402.777 366.074 418.996 399.818C433.229 429.569 435.004 460.321 452.877 489.21C499.145 564.1 576.43 626.888 571.906 722.463C568.387 799.603 534.759 873.914 506.844 945.11C477.163 1020.56 435.107 1089.39 378.611 1148.2Z" stroke="url(#paint28_linear)" stroke-opacity="0.8" stroke-linecap="round" stroke-linejoin="round" stroke-dasharray="1 2"/>
    <path d="M393.092 1162.14C161.183 1403.38 -233.932 1411.26 -475.357 1179.33C-716.591 947.418 -724.448 552.111 -492.54 310.877C-434.679 250.699 -364.781 202.367 -287.735 170.089C-213.205 139.024 -139.141 132.336 -60.5757 120.019C12.3777 108.68 131.145 46.4331 201.389 92.4006C236.333 115.262 247.616 163.373 262.118 199.615C281.149 246.851 305.563 290.536 349.616 318.187C381.071 338.02 417.133 351.455 431.065 388.986C441.707 417.845 440.466 447.786 454.914 476.002C498.171 559.858 596.493 623.232 592.13 726.066C588.889 804.026 552.691 879.934 525.271 951.786C495.573 1030.16 450.979 1101.77 393.092 1162.14Z" stroke="url(#paint29_linear)" stroke-opacity="0.8" stroke-linecap="round" stroke-linejoin="round" stroke-dasharray="1 2"/>
    <path d="M407.408 1175.87C167.94 1425.05 -240.103 1433.08 -489.277 1193.61C-738.26 954.174 -746.489 546.105 -507.048 297.122C-447.358 235.048 -375.083 185.092 -295.548 151.792C-218.529 119.705 -142.386 112.134 -60.8325 100.82C16.9431 89.9572 132.632 24.5439 207.98 73.1783C245.283 97.3461 255.447 146.475 269.958 185.455C287.816 234.093 312.334 284.049 359.25 307.993C390.308 323.664 429.947 333.883 442.834 370.486C455.775 406.705 447.344 440.532 466.365 476.621C510.799 560.445 614.791 623.827 613.769 726.54C612.834 806.19 572.02 885.757 544.194 959.117C513.765 1039.94 467.097 1113.8 407.408 1175.87Z" stroke="url(#paint30_linear)" stroke-opacity="0.8" stroke-linecap="round" stroke-linejoin="round" stroke-dasharray="1 2"/>
    <path d="M421.886 1189.82C174.884 1446.74 -246.112 1455.12 -503.036 1208.12C-759.96 961.122 -768.342 540.126 -521.341 283.202C-460.942 220.249 -388.011 169.798 -307.906 135.208C-226.98 100.342 -147.165 93.0876 -61.4496 81.3762C21.0631 70.196 134.463 0.161709 213.18 56.8918C295.96 116.731 268.821 255.301 370.187 295.439C400.959 307.551 444.309 313.594 457.223 350.005C469.86 385.595 455.144 423.825 470.249 459.955C510.67 555.735 635.904 615.43 637.488 727.5C638.721 808.431 590.279 892.214 562.539 966.368C531.788 1049.49 483.404 1125.85 421.886 1189.82Z" stroke="url(#paint31_linear)" stroke-opacity="0.8" stroke-linecap="round" stroke-linejoin="round" stroke-dasharray="1 2"/>
    <path d="M436.369 1203.77C181.808 1468.63 -251.923 1477.19 -516.788 1222.63C-781.845 968.043 -790.38 534.12 -535.819 269.255C-471.326 202.18 -393.065 148.561 -306.773 113.074C-226.087 79.9341 -147.285 72.9296 -62.0338 61.7401C21.6031 50.9122 119.449 -18.3573 202.25 31.5117C298.774 89.551 268.939 248.865 383.396 280.659C420.104 290.861 468.892 292.969 477.511 339.145C485.015 379.299 466.512 415.242 482.669 455.038C523.105 554.926 659.811 613.678 664.228 729.272C665.849 770.953 650.504 809.487 633.594 846.629C613.83 890.217 597.05 933.439 580.082 978.003C547.882 1061.7 498.597 1138.92 436.369 1203.77Z" stroke="url(#paint32_linear)" stroke-opacity="0.8" stroke-linecap="round" stroke-linejoin="round" stroke-dasharray="1 2"/>
    <path d="M450.684 1217.49C188.563 1490.3 -258.122 1499.21 -530.709 1236.92C-803.515 974.8 -812.423 528.114 -550.329 255.5C-485.126 187.546 -406.156 133.048 -319.128 96.4907C-235.218 61.2582 -152.205 52.1031 -62.9521 41.667C21.7287 31.7667 118.801 -47.3876 200.904 14.5076C290.613 82.1561 279.625 242.337 398.563 263.024C434.656 269.229 488.331 267.13 498.235 312.507C508.224 358.679 479.151 403.12 497.495 449.674C538.216 553.122 686.212 613.644 691.897 731.37C693.937 775.651 675.39 814.716 655.554 853.21C633.84 895.353 616.917 936.795 600.195 981.003C567.215 1068.9 515.86 1149.73 450.684 1217.49Z" stroke="url(#paint33_linear)" stroke-opacity="0.8" stroke-linecap="round" stroke-linejoin="round" stroke-dasharray="1 2"/>
    <path d="M465.167 1231.44C195.455 1511.01 -264.099 1521.06 -544.655 1251.4C-825.21 981.748 -834.27 522.135 -564.616 241.58C-498.54 172.966 -419.053 117.563 -331.507 80.0993C-243.333 42.3326 -157.139 34.2075 -63.5642 22.2229C25.8225 10.8278 112.162 -75.4936 198.004 -1.14903C283.682 72.977 290.96 232.576 415.781 243.328C450.383 246.196 511.275 240.019 522.107 284.353C534.465 334.57 497.39 385.913 512.955 436.968C529.271 491.061 578.068 536.581 615.534 576.415C656.217 619.825 717.027 670.344 721.268 733.9C724.218 780.068 700.256 821.506 677.9 859.844C654.018 900.708 636.787 940.151 620.448 984.413C586.358 1076.06 533.046 1161.12 465.167 1231.44Z" stroke="url(#paint34_linear)" stroke-opacity="0.8" stroke-linecap="round" stroke-linejoin="round" stroke-dasharray="1 2"/>
    <path d="M479.651 1245.39C202.214 1532.68 -269.911 1543.12 -558.599 1265.88C-847.068 988.477 -856.528 516.294 -579.095 227.633C-509.089 154.678 -423.888 96.1607 -330.348 57.7732C-242.387 21.541 -156.876 14.1029 -64.287 2.17648C21.7052 -8.71421 93.6363 -95.4798 179.589 -28.9415C232.177 11.8271 263.237 76.5792 296.704 132.477C332.236 191.791 365.2 220.437 434.716 221.133C472.405 221.499 538.431 210.758 549.388 259.802C561.707 314.511 522.129 371.176 532.619 427.781C543.333 485.59 592.38 532.123 631.71 572.607C674.119 616.259 745.953 670.465 751.216 736.51C755.13 784.181 726.131 826.677 701.116 864.449C673.867 905.625 655.98 945.564 639.017 991.498C604.169 1085.78 549.166 1173.15 479.651 1245.39Z" stroke="url(#paint35_linear)" stroke-opacity="0.8" stroke-linecap="round" stroke-linejoin="round" stroke-dasharray="1 2"/>
    <path d="M493.965 1259.12C209.9 1554.67 -276.584 1562.92 -572.521 1280.17C-869.668 996.278 -876.849 509.16 -593.605 213.879C-524.063 141.446 -439.848 82.9862 -347.49 43.2607C-253.9 3.12012 -164.148 -5.29092 -64.8494 -17.6509C-23.865 -22.6923 2.54856 -43.8439 37.4333 -62.6414C88.6387 -90.5051 139.269 -77.7762 181.143 -38.6969C232.715 9.36067 265.58 73.7781 305.324 130.941C346.196 189.826 386.165 200.482 454.601 197.704C494.72 196.061 569.003 180.801 579.269 236.201C589.924 293.025 551.298 355.493 552.755 413.772C554.311 476.953 602.596 524.748 644.617 566.977C690.238 612.836 773.558 670.208 780.503 739.616C785.63 789.802 750.637 833.223 722.664 871.169C691.311 913.729 674.165 953.966 655.815 1002.84C620.285 1097.8 564.189 1186 493.965 1259.12Z" stroke="url(#paint36_linear)" stroke-opacity="0.8" stroke-linecap="round" stroke-linejoin="round" stroke-dasharray="1 2"/>
    <path d="M508.447 1273.06C216.823 1576.56 -282.396 1584.99 -586.275 1294.68C-891.527 1003.01 -898.697 503.181 -607.893 199.958C-534.23 123.211 -444.712 61.7756 -346.166 21.1527C-253.612 -17.1767 -163.038 -25.8644 -64.9976 -37.6175C-19.2493 -43.168 1.50299 -69.9974 39.5859 -90.6955C82.7269 -114.013 127.153 -97.4558 162.589 -66.9C225.906 -11.9254 263.444 65.2668 315.674 129.646C361.056 185.64 410.038 180.736 476.814 173.032C521.715 167.95 601.63 150.151 610.471 212.979C619.369 276.793 577.719 344.119 574.868 408.055C571.87 477.25 620.784 524.741 667.279 569.94C712.374 613.966 802.55 674.053 811.217 742.332C817.464 791.502 778.501 835.347 750.162 870.309C714.705 914.251 695.475 954.003 676.096 1006.05C639.374 1105.35 581.428 1197 508.447 1273.06Z" stroke="url(#paint37_linear)" stroke-opacity="0.8" stroke-linecap="round" stroke-linejoin="round" stroke-dasharray="1 2"/>
    <path d="M522.928 1287.01C223.802 1599.43 -288.402 1607.03 -600.03 1309.19C-913.224 1009.96 -920.739 497.175 -622.402 186.203C-549.176 109.786 -460.616 48.2173 -363.115 6.66669C-265.368 -35.2408 -169.433 -45.9187 -65.3663 -57.4184C-19.6982 -62.3935 -4.79812 -86.5189 30.2867 -110.959C79.4438 -145.17 130.836 -109.848 167.222 -73.4889C228.341 -12.5634 267.802 66.2656 327.418 128.155C376.288 178.769 436.536 160.378 498.699 149.294C546.218 140.862 632.806 120.082 642.241 188.468C651.675 256.854 605.913 331.233 597.348 398.283C588.12 471.498 631.662 518.24 681.865 566.303C730.006 612.318 829.006 673.635 840.176 745.001C848.52 798.764 798.829 845.22 767.154 881.673C730.84 923.345 714.184 962.869 695.157 1013.79C656.964 1115.24 597.791 1208.67 522.928 1287.01Z" stroke="url(#paint38_linear)" stroke-opacity="0.8" stroke-linecap="round" stroke-linejoin="round" stroke-dasharray="1 2"/>
    <path d="M537.244 1300.74C230.557 1621.1 -294.574 1628.85 -614.143 1323.45C-935.086 1016.68 -942.866 490.376 -636.857 172.065C-481.779 10.6564 -284.955 -60.2629 -65.8472 -77.8216C-20.1745 -81.4272 -8.30739 -103.433 23.3422 -131.286C65.9149 -168.761 116.919 -134.862 151.266 -102.111C219.96 -36.61 263.423 51.3808 331.761 116.637C386.304 168.628 455.009 140.075 519.955 125.86C570.203 114.679 666.123 91.4845 672.409 168.426C678.499 243.972 631.868 320.381 618.914 393.663C605.876 466.152 642.402 511.329 693.345 559.69C726.318 591.076 761.583 620.044 794.802 651.073C821.592 676.317 859.36 708.371 866.774 746.362C877.116 799.818 826.163 845.511 793.332 880.434C751.278 925.412 733.864 967.568 712.719 1023.87C673.491 1127.12 613.007 1221.54 537.244 1300.74Z" stroke="url(#paint39_linear)" stroke-opacity="0.8" stroke-linecap="round" stroke-linejoin="round" stroke-dasharray="1 2"/>
    <path d="M551.727 1314.68C237.508 1642.8 -300.578 1650.89 -627.896 1337.96C-956.779 1023.63 -964.74 484.588 -651.171 158.336C-493.827 -5.29803 -289.796 -83.0342 -66.2133 -97.6227C-19.635 -100.711 -10.1673 -119.532 19.3363 -150.225C62.1043 -194.713 114.782 -151.781 149.326 -117.634C218.578 -49.1222 264.624 41.3797 336.633 106.952C394.575 159.808 475.019 119.986 540.259 103.66C595.784 89.6958 694.97 68.3252 699.664 152.476C704.032 229.15 660.256 307.522 642.262 380.492C623.702 456.122 648.969 500.708 703.623 553.301C739.84 588.072 779.303 619.19 816.229 653.082C843.072 677.942 882.977 710.099 891.761 748.085C904.548 803.642 845.851 851.58 812.088 886.177C768.99 930.227 753.271 971.446 732.291 1027.97C692.39 1134.64 630.247 1232.55 551.727 1314.68Z" stroke="url(#paint40_linear)" stroke-opacity="0.8" stroke-linecap="round" stroke-linejoin="round" stroke-dasharray="1 2"/>
    <path d="M566.235 1328.44C244.237 1664.66 -306.173 1672.8 -641.624 1352.28C-978.832 1030.34 -986.37 478.444 -665.679 144.582C-506.234 -21.4977 -294.611 -105.997 -66.5546 -117.615C-15.9482 -120.142 -9.08101 -138.543 21.9165 -172.94C63.0652 -218.435 119.553 -166.368 150.805 -133.853C219.576 -61.8888 269.951 45.251 351.576 103.56C411.484 146.522 498.609 98.0499 559.906 81.9567C617.345 66.89 713.944 50.0473 722.608 133.774C730.907 214.516 685.886 297.602 664.779 373.268C642.914 451.565 662.516 497.512 720.851 553.161C757.616 588.204 797.874 619.236 835.758 653.262C863.561 678.257 904.452 710.355 914.386 748.502C929.814 807.555 864.547 856.337 828.598 892.585C783.315 938.286 770.514 983.823 748.307 1042.13C707.447 1148.67 644.755 1246.31 566.235 1328.44Z" stroke="url(#paint41_linear)" stroke-opacity="0.8" stroke-linecap="round" stroke-linejoin="round" stroke-dasharray="1 2"/>
    <defs>
        <linearGradient id="paint0_linear" x1="57.5" y1="12" x2="455" y2="698" gradientUnits="userSpaceOnUse">
            <stop stop-color="#F9F7F7"/>
            <stop offset="0.515625" stop-color="#6CA7DD" stop-opacity="0.85"/>
            <stop offset="1" stop-color="#F9F7F7"/>
        </linearGradient>
        <linearGradient id="paint1_linear" x1="57.5" y1="12" x2="455" y2="698" gradientUnits="userSpaceOnUse">
            <stop stop-color="#F9F7F7"/>
            <stop offset="0.515625" stop-color="#6CA7DD" stop-opacity="0.85"/>
            <stop offset="1" stop-color="#F9F7F7"/>
        </linearGradient>
        <linearGradient id="paint2_linear" x1="57.5" y1="12" x2="455" y2="698" gradientUnits="userSpaceOnUse">
            <stop stop-color="#F9F7F7"/>
            <stop offset="0.515625" stop-color="#6CA7DD" stop-opacity="0.85"/>
            <stop offset="1" stop-color="#F9F7F7"/>
        </linearGradient>
        <linearGradient id="paint3_linear" x1="57.5" y1="12" x2="455" y2="698" gradientUnits="userSpaceOnUse">
            <stop stop-color="#F9F7F7"/>
            <stop offset="0.515625" stop-color="#6CA7DD" stop-opacity="0.85"/>
            <stop offset="1" stop-color="#F9F7F7"/>
        </linearGradient>
        <linearGradient id="paint4_linear" x1="57.5" y1="12" x2="455" y2="698" gradientUnits="userSpaceOnUse">
            <stop stop-color="#F9F7F7"/>
            <stop offset="0.515625" stop-color="#6CA7DD" stop-opacity="0.85"/>
            <stop offset="1" stop-color="#F9F7F7"/>
        </linearGradient>
        <linearGradient id="paint5_linear" x1="57.5" y1="12" x2="455" y2="698" gradientUnits="userSpaceOnUse">
            <stop stop-color="#F9F7F7"/>
            <stop offset="0.515625" stop-color="#6CA7DD" stop-opacity="0.85"/>
            <stop offset="1" stop-color="#F9F7F7"/>
        </linearGradient>
        <linearGradient id="paint6_linear" x1="57.5" y1="12" x2="455" y2="698" gradientUnits="userSpaceOnUse">
            <stop stop-color="#F9F7F7"/>
            <stop offset="0.515625" stop-color="#6CA7DD" stop-opacity="0.85"/>
            <stop offset="1" stop-color="#F9F7F7"/>
        </linearGradient>
        <linearGradient id="paint7_linear" x1="57.5" y1="12" x2="455" y2="698" gradientUnits="userSpaceOnUse">
            <stop stop-color="#F9F7F7"/>
            <stop offset="0.515625" stop-color="#6CA7DD" stop-opacity="0.85"/>
            <stop offset="1" stop-color="#F9F7F7"/>
        </linearGradient>
        <linearGradient id="paint8_linear" x1="57.5" y1="12" x2="455" y2="698" gradientUnits="userSpaceOnUse">
            <stop stop-color="#F9F7F7"/>
            <stop offset="0.515625" stop-color="#6CA7DD" stop-opacity="0.85"/>
            <stop offset="1" stop-color="#F9F7F7"/>
        </linearGradient>
        <linearGradient id="paint9_linear" x1="57.5" y1="12" x2="455" y2="698" gradientUnits="userSpaceOnUse">
            <stop stop-color="#F9F7F7"/>
            <stop offset="0.515625" stop-color="#6CA7DD" stop-opacity="0.85"/>
            <stop offset="1" stop-color="#F9F7F7"/>
        </linearGradient>
        <linearGradient id="paint10_linear" x1="57.5" y1="12" x2="455" y2="698" gradientUnits="userSpaceOnUse">
            <stop stop-color="#F9F7F7"/>
            <stop offset="0.515625" stop-color="#6CA7DD" stop-opacity="0.85"/>
            <stop offset="1" stop-color="#F9F7F7"/>
        </linearGradient>
        <linearGradient id="paint11_linear" x1="57.5" y1="12" x2="455" y2="698" gradientUnits="userSpaceOnUse">
            <stop stop-color="#F9F7F7"/>
            <stop offset="0.515625" stop-color="#6CA7DD" stop-opacity="0.85"/>
            <stop offset="1" stop-color="#F9F7F7"/>
        </linearGradient>
        <linearGradient id="paint12_linear" x1="57.5" y1="12" x2="455" y2="698" gradientUnits="userSpaceOnUse">
            <stop stop-color="#F9F7F7"/>
            <stop offset="0.515625" stop-color="#6CA7DD" stop-opacity="0.85"/>
            <stop offset="1" stop-color="#F9F7F7"/>
        </linearGradient>
        <linearGradient id="paint13_linear" x1="57.5" y1="12" x2="455" y2="698" gradientUnits="userSpaceOnUse">
            <stop stop-color="#F9F7F7"/>
            <stop offset="0.515625" stop-color="#6CA7DD" stop-opacity="0.85"/>
            <stop offset="1" stop-color="#F9F7F7"/>
        </linearGradient>
        <linearGradient id="paint14_linear" x1="57.5" y1="12" x2="455" y2="698" gradientUnits="userSpaceOnUse">
            <stop stop-color="#F9F7F7"/>
            <stop offset="0.515625" stop-color="#6CA7DD" stop-opacity="0.85"/>
            <stop offset="1" stop-color="#F9F7F7"/>
        </linearGradient>
        <linearGradient id="paint15_linear" x1="57.5" y1="12" x2="455" y2="698" gradientUnits="userSpaceOnUse">
            <stop stop-color="#F9F7F7"/>
            <stop offset="0.515625" stop-color="#6CA7DD" stop-opacity="0.85"/>
            <stop offset="1" stop-color="#F9F7F7"/>
        </linearGradient>
        <linearGradient id="paint16_linear" x1="57.5" y1="12" x2="455" y2="698" gradientUnits="userSpaceOnUse">
            <stop stop-color="#F9F7F7"/>
            <stop offset="0.515625" stop-color="#6CA7DD" stop-opacity="0.85"/>
            <stop offset="1" stop-color="#F9F7F7"/>
        </linearGradient>
        <linearGradient id="paint17_linear" x1="57.5" y1="12" x2="455" y2="698" gradientUnits="userSpaceOnUse">
            <stop stop-color="#F9F7F7"/>
            <stop offset="0.515625" stop-color="#6CA7DD" stop-opacity="0.85"/>
            <stop offset="1" stop-color="#F9F7F7"/>
        </linearGradient>
        <linearGradient id="paint18_linear" x1="57.5" y1="12" x2="455" y2="698" gradientUnits="userSpaceOnUse">
            <stop stop-color="#F9F7F7"/>
            <stop offset="0.515625" stop-color="#6CA7DD" stop-opacity="0.85"/>
            <stop offset="1" stop-color="#F9F7F7"/>
        </linearGradient>
        <linearGradient id="paint19_linear" x1="57.5" y1="12" x2="455" y2="698" gradientUnits="userSpaceOnUse">
            <stop stop-color="#F9F7F7"/>
            <stop offset="0.515625" stop-color="#6CA7DD" stop-opacity="0.85"/>
            <stop offset="1" stop-color="#F9F7F7"/>
        </linearGradient>
        <linearGradient id="paint20_linear" x1="57.5" y1="12" x2="455" y2="698" gradientUnits="userSpaceOnUse">
            <stop stop-color="#F9F7F7"/>
            <stop offset="0.515625" stop-color="#6CA7DD" stop-opacity="0.85"/>
            <stop offset="1" stop-color="#F9F7F7"/>
        </linearGradient>
        <linearGradient id="paint21_linear" x1="57.5" y1="12" x2="455" y2="698" gradientUnits="userSpaceOnUse">
            <stop stop-color="#F9F7F7"/>
            <stop offset="0.515625" stop-color="#6CA7DD" stop-opacity="0.85"/>
            <stop offset="1" stop-color="#F9F7F7"/>
        </linearGradient>
        <linearGradient id="paint22_linear" x1="57.5" y1="12" x2="455" y2="698" gradientUnits="userSpaceOnUse">
            <stop stop-color="#F9F7F7"/>
            <stop offset="0.515625" stop-color="#6CA7DD" stop-opacity="0.85"/>
            <stop offset="1" stop-color="#F9F7F7"/>
        </linearGradient>
        <linearGradient id="paint23_linear" x1="57.5" y1="12" x2="455" y2="698" gradientUnits="userSpaceOnUse">
            <stop stop-color="#F9F7F7"/>
            <stop offset="0.515625" stop-color="#6CA7DD" stop-opacity="0.85"/>
            <stop offset="1" stop-color="#F9F7F7"/>
        </linearGradient>
        <linearGradient id="paint24_linear" x1="57.5" y1="12" x2="455" y2="698" gradientUnits="userSpaceOnUse">
            <stop stop-color="#F9F7F7"/>
            <stop offset="0.515625" stop-color="#6CA7DD" stop-opacity="0.85"/>
            <stop offset="1" stop-color="#F9F7F7"/>
        </linearGradient>
        <linearGradient id="paint25_linear" x1="57.5" y1="12" x2="455" y2="698" gradientUnits="userSpaceOnUse">
            <stop stop-color="#F9F7F7"/>
            <stop offset="0.515625" stop-color="#6CA7DD" stop-opacity="0.85"/>
            <stop offset="1" stop-color="#F9F7F7"/>
        </linearGradient>
        <linearGradient id="paint26_linear" x1="57.5" y1="12" x2="455" y2="698" gradientUnits="userSpaceOnUse">
            <stop stop-color="#F9F7F7"/>
            <stop offset="0.515625" stop-color="#6CA7DD" stop-opacity="0.85"/>
            <stop offset="1" stop-color="#F9F7F7"/>
        </linearGradient>
        <linearGradient id="paint27_linear" x1="57.5" y1="12" x2="455" y2="698" gradientUnits="userSpaceOnUse">
            <stop stop-color="#F9F7F7"/>
            <stop offset="0.515625" stop-color="#6CA7DD" stop-opacity="0.85"/>
            <stop offset="1" stop-color="#F9F7F7"/>
        </linearGradient>
        <linearGradient id="paint28_linear" x1="57.5" y1="12" x2="455" y2="698" gradientUnits="userSpaceOnUse">
            <stop stop-color="#F9F7F7"/>
            <stop offset="0.515625" stop-color="#6CA7DD" stop-opacity="0.85"/>
            <stop offset="1" stop-color="#F9F7F7"/>
        </linearGradient>
        <linearGradient id="paint29_linear" x1="57.5" y1="12" x2="455" y2="698" gradientUnits="userSpaceOnUse">
            <stop stop-color="#F9F7F7"/>
            <stop offset="0.515625" stop-color="#6CA7DD" stop-opacity="0.85"/>
            <stop offset="1" stop-color="#F9F7F7"/>
        </linearGradient>
        <linearGradient id="paint30_linear" x1="57.5" y1="12" x2="455" y2="698" gradientUnits="userSpaceOnUse">
            <stop stop-color="#F9F7F7"/>
            <stop offset="0.515625" stop-color="#6CA7DD" stop-opacity="0.85"/>
            <stop offset="1" stop-color="#F9F7F7"/>
        </linearGradient>
        <linearGradient id="paint31_linear" x1="57.5" y1="12" x2="455" y2="698" gradientUnits="userSpaceOnUse">
            <stop stop-color="#F9F7F7"/>
            <stop offset="0.515625" stop-color="#6CA7DD" stop-opacity="0.85"/>
            <stop offset="1" stop-color="#F9F7F7"/>
        </linearGradient>
        <linearGradient id="paint32_linear" x1="57.5" y1="12" x2="455" y2="698" gradientUnits="userSpaceOnUse">
            <stop stop-color="#F9F7F7"/>
            <stop offset="0.515625" stop-color="#6CA7DD" stop-opacity="0.85"/>
            <stop offset="1" stop-color="#F9F7F7"/>
        </linearGradient>
        <linearGradient id="paint33_linear" x1="57.5" y1="12" x2="455" y2="698" gradientUnits="userSpaceOnUse">
            <stop stop-color="#F9F7F7"/>
            <stop offset="0.515625" stop-color="#6CA7DD" stop-opacity="0.85"/>
            <stop offset="1" stop-color="#F9F7F7"/>
        </linearGradient>
        <linearGradient id="paint34_linear" x1="57.5" y1="12" x2="455" y2="698" gradientUnits="userSpaceOnUse">
            <stop stop-color="#F9F7F7"/>
            <stop offset="0.515625" stop-color="#6CA7DD" stop-opacity="0.85"/>
            <stop offset="1" stop-color="#F9F7F7"/>
        </linearGradient>
        <linearGradient id="paint35_linear" x1="57.5" y1="12" x2="455" y2="698" gradientUnits="userSpaceOnUse">
            <stop stop-color="#F9F7F7"/>
            <stop offset="0.515625" stop-color="#6CA7DD" stop-opacity="0.85"/>
            <stop offset="1" stop-color="#F9F7F7"/>
        </linearGradient>
        <linearGradient id="paint36_linear" x1="57.5" y1="12" x2="455" y2="698" gradientUnits="userSpaceOnUse">
            <stop stop-color="#F9F7F7"/>
            <stop offset="0.515625" stop-color="#6CA7DD" stop-opacity="0.85"/>
            <stop offset="1" stop-color="#F9F7F7"/>
        </linearGradient>
        <linearGradient id="paint37_linear" x1="57.5" y1="12" x2="455" y2="698" gradientUnits="userSpaceOnUse">
            <stop stop-color="#F9F7F7"/>
            <stop offset="0.515625" stop-color="#6CA7DD" stop-opacity="0.85"/>
            <stop offset="1" stop-color="#F9F7F7"/>
        </linearGradient>
        <linearGradient id="paint38_linear" x1="57.5" y1="12" x2="455" y2="698" gradientUnits="userSpaceOnUse">
            <stop stop-color="#F9F7F7"/>
            <stop offset="0.515625" stop-color="#6CA7DD" stop-opacity="0.85"/>
            <stop offset="1" stop-color="#F9F7F7"/>
        </linearGradient>
        <linearGradient id="paint39_linear" x1="57.5" y1="12" x2="455" y2="698" gradientUnits="userSpaceOnUse">
            <stop stop-color="#F9F7F7"/>
            <stop offset="0.515625" stop-color="#6CA7DD" stop-opacity="0.85"/>
            <stop offset="1" stop-color="#F9F7F7"/>
        </linearGradient>
        <linearGradient id="paint40_linear" x1="57.5" y1="12" x2="455" y2="698" gradientUnits="userSpaceOnUse">
            <stop stop-color="#F9F7F7"/>
            <stop offset="0.515625" stop-color="#6CA7DD" stop-opacity="0.85"/>
            <stop offset="1" stop-color="#F9F7F7"/>
        </linearGradient>
        <linearGradient id="paint41_linear" x1="57.5" y1="12" x2="455" y2="698" gradientUnits="userSpaceOnUse">
            <stop stop-color="#F9F7F7"/>
            <stop offset="0.515625" stop-color="#6CA7DD" stop-opacity="0.85"/>
            <stop offset="1" stop-color="#F9F7F7"/>
        </linearGradient>
    </defs>
</svg>
