<svg width="1168" height="720" viewBox="0 0 1168 720" fill="none" xmlns="http://www.w3.org/2000/svg">
    <path d="M1186.77 -105.528C1201.82 -116.47 1222.79 -113.109 1233.73 -98.0632C1244.67 -83.0174 1241.31 -62.0511 1226.26 -51.1084C1211.22 -40.1656 1190.25 -43.5269 1179.31 -58.5727C1168.27 -73.7869 1171.64 -94.7531 1186.77 -105.528Z" stroke="url(#paint0_linear)" stroke-linecap="round" stroke-linejoin="round" stroke-dasharray="1 3"/>
    <path d="M1175.01 -121.659C1198.09 -138.352 1232.45 -131.406 1249.69 -109.732C1268.03 -86.4672 1259.25 -50.6478 1237.77 -35.0526C1216.28 -19.4573 1179.49 -22.4308 1163.09 -46.9793C1147.85 -70.1986 1152.11 -105.059 1175.01 -121.659Z" stroke="url(#paint1_linear)" stroke-linecap="round" stroke-linejoin="round" stroke-dasharray="1 3"/>
    <path d="M1271.78 -111.371C1253.55 -147.496 1209.49 -162.004 1173.36 -143.775C1137.24 -125.547 1122.73 -81.4855 1140.96 -45.3607C1159.19 -9.23599 1203.25 5.27208 1239.38 -12.9561C1275.5 -31.1843 1290.01 -75.2461 1271.78 -111.371Z" stroke="url(#paint2_linear)" stroke-linecap="round" stroke-linejoin="round" stroke-dasharray="1 3"/>
    <path d="M1295.98 -52.5064C1310.26 -101.995 1281.72 -153.691 1232.23 -167.972C1182.74 -182.253 1131.05 -153.712 1116.77 -104.223C1102.48 -54.7339 1131.03 -3.03815 1180.51 11.2429C1230 25.524 1281.7 -3.0176 1295.98 -52.5064Z" stroke="url(#paint3_linear)" stroke-linecap="round" stroke-linejoin="round" stroke-dasharray="1 3"/>
    <path d="M1140.16 -170.07C1189.32 -205.559 1261.81 -192.424 1298.01 -144.756C1335.5 -95.1611 1320.43 -21.3864 1272.7 13.0974C1224.79 47.6742 1150.06 38.8479 1114.84 -12.2166C1080.81 -61.5223 1090.92 -134.32 1140.16 -170.07Z" stroke="url(#paint4_linear)" stroke-linecap="round" stroke-linejoin="round" stroke-dasharray="1 3"/>
    <path d="M1128.49 -186.033C1186.09 -227.719 1272.87 -214.565 1314.07 -156.256C1354.63 -98.6966 1341.55 -12.1785 1284.29 29.3217C1227.1 70.5606 1140.44 56.0247 1098.71 -0.454852C1056.17 -58.0199 1070.89 -144.347 1128.49 -186.033Z" stroke="url(#paint5_linear)" stroke-linecap="round" stroke-linejoin="round" stroke-dasharray="1 3"/>
    <path d="M1116.89 -202.257C1184.58 -249.95 1281.31 -235.48 1330.29 -167.85C1379.18 -100.387 1363.44 -3.17418 1296.05 45.4529C1228.42 94.4342 1131.81 76.6035 1082.75 11.214C1033.5 -54.5122 1048.46 -153.932 1116.89 -202.257Z" stroke="url(#paint6_linear)" stroke-linecap="round" stroke-linejoin="round" stroke-dasharray="1 3"/>
    <path d="M1105.38 -218.743C1182.12 -272.313 1290.61 -256.431 1346.25 -179.519C1401.36 -103.187 1383.88 6.40556 1307.55 61.5089C1229.05 118.25 1126.97 92.8963 1067.44 22.0813C1006.2 -50.6433 1027.96 -164.8 1105.38 -218.743Z" stroke="url(#paint7_linear)" stroke-linecap="round" stroke-linejoin="round" stroke-dasharray="1 3"/>
    <path d="M1093.71 -234.706C1178.75 -293.521 1300.45 -274.821 1362.48 -191.112C1425.05 -106.822 1402.42 17.6985 1319.31 77.6401C1231.36 141.136 1121.15 108.626 1053.05 32.2226C1020.31 -4.39745 1001 -38.9835 1009.76 -89.9506C1018.77 -143.252 1048.67 -203.689 1093.71 -234.706Z" stroke="url(#paint8_linear)" stroke-linecap="round" stroke-linejoin="round" stroke-dasharray="1 3"/>
    <path d="M1081.96 -250.407C1174.76 -315.478 1310.49 -294.425 1378.44 -202.781C1447.75 -109.471 1422.6 27.2028 1330.81 93.696C1230.58 166.387 1120.85 118.02 1039.33 41.9923C999.164 4.64282 975.462 -23.5671 986.226 -82.4483C997.257 -143.234 1030.92 -214.755 1081.96 -250.407Z" stroke="url(#paint9_linear)" stroke-linecap="round" stroke-linejoin="round" stroke-dasharray="1 3"/>
    <path d="M1070.2 -266.538C1171.61 -339.88 1321.72 -316.659 1394.4 -214.45C1466.53 -113.25 1445.48 37.1995 1342.31 109.752C1294.54 143.376 1232.35 163.216 1174.68 146.291C1118.05 129.668 1072.08 84.9816 1025.99 52.4354C975.207 16.5521 948.76 -5.09058 962.146 -73.5465C976.529 -144.97 1009.59 -222.75 1070.2 -266.538Z" stroke="url(#paint10_linear)" stroke-linecap="round" stroke-linejoin="round" stroke-dasharray="1 3"/>
    <path d="M1058.61 -282.763C1168.79 -362.487 1331.47 -337.198 1410.8 -226.136C1489.31 -116.16 1464.02 46.5127 1354.17 126.051C1304.6 161.987 1233.58 184.941 1173.04 165.207C1111.72 145.247 1068.71 93.2096 1012.94 63.813C990.243 51.7433 958.024 44.7101 942.579 22.7043C925.758 -1.39699 932.895 -37.4075 938.287 -63.4487C954.113 -143.796 990.473 -233.503 1058.61 -282.763Z" stroke="url(#paint11_linear)" stroke-linecap="round" stroke-linejoin="round" stroke-dasharray="1 3"/>
    <path d="M1046.94 -298.726C1167.08 -385.484 1339.92 -357.684 1426.85 -237.636C1513.61 -117.496 1484.6 55.1401 1365.76 142.276C1312.86 180.93 1235.33 206.818 1170.81 184.234C1106.02 161.575 1062.32 101.131 999.539 74.9468C976.684 65.3795 941.319 61.4013 922.537 44.0934C896.787 20.5289 907.701 -24.1569 913.904 -53.5019C932.388 -142.565 970.944 -243.808 1046.94 -298.726Z" stroke="url(#paint12_linear)" stroke-linecap="round" stroke-linejoin="round" stroke-dasharray="1 3"/>
    <path d="M1035.35 -314.95C1164.26 -408.091 1349.84 -378.315 1442.98 -249.398C1536.12 -120.481 1504.87 64.8126 1377.43 158.238C1321.78 199.071 1236.51 229.234 1168.55 202.831C1100.17 176.446 1055.89 110.172 985.95 85.744C960.367 76.8046 916.288 76.5389 895.178 57.0023C869.427 33.4377 883.545 -14.9937 889.598 -43.8162C910.813 -141.856 951.079 -253.928 1035.35 -314.95Z" stroke="url(#paint13_linear)" stroke-linecap="round" stroke-linejoin="round" stroke-dasharray="1 3"/>
    <path d="M1023.68 -330.913C1161.37 -430.438 1359.51 -398.592 1459.04 -260.899C1558.56 -123.205 1526.72 74.9375 1389.02 174.463C1329.5 217.432 1237.77 251.819 1165.9 222.305C1093.42 192.472 1049.18 120.689 972.101 96.4659C943.155 87.4055 900.076 90.5418 874.328 73.3463C842.035 51.8564 858.995 -4.95395 865.61 -34.7462C889.726 -141.855 931.458 -264.402 1023.68 -330.913Z" stroke="url(#paint14_linear)" stroke-linecap="round" stroke-linejoin="round" stroke-dasharray="1 3"/>
    <path d="M1012.08 -347.137C1158.55 -453.045 1369.26 -419.131 1475.17 -272.66C1581.08 -126.19 1547.16 84.5172 1400.69 190.426C1338.66 235.219 1238.09 274.27 1162.66 241.889C1085.65 208.627 1041.64 132.1 957.804 106.776C927.738 97.6749 872.699 103.021 847.722 83.6423C816.706 59.6903 835.233 3.33237 842.487 -27.6909C868.772 -142.807 912.678 -275.341 1012.08 -347.137Z" stroke="url(#paint15_linear)" stroke-linecap="round" stroke-linejoin="round" stroke-dasharray="1 3"/>
    <path d="M1000.42 -363.1C1155.66 -475.391 1378.93 -439.408 1491.23 -284.161C1603.52 -128.914 1567.53 94.3582 1412.29 206.65C1346.83 253.993 1238.89 296.013 1159 261.921C1122.21 246.209 1095.1 214.61 1065.39 189.055C1028.74 157.673 989.285 131.569 942.984 116.935C908.366 105.954 862.628 111.437 830.581 95.9616C790.009 76.1869 812.354 10.0333 820.043 -22.9873C848.665 -146.204 893.823 -286.018 1000.42 -363.1Z" stroke="url(#paint16_linear)" stroke-linecap="round" stroke-linejoin="round" stroke-dasharray="1 3"/>
    <path d="M988.822 -379.324C1152.64 -496.785 1388.85 -460.039 1507.36 -295.923C1625.94 -132.067 1588.07 104.106 1423.96 222.613C1355.32 272.152 1239.34 317.513 1155.18 282.046C1118.57 266.671 1092.46 236.493 1063.69 210.642C1023.74 174.488 978.455 144.578 927.549 126.774C891.049 113.977 844.417 118.635 810.279 102.557C767.281 82.3651 790.757 12.2923 798.898 -22.296C829.272 -151.092 876.936 -299.1 988.822 -379.324Z" stroke="url(#paint17_linear)" stroke-linecap="round" stroke-linejoin="round" stroke-dasharray="1 3"/>
    <path d="M977.06 -395.455C1148.94 -519.787 1398.35 -478.244 1523.32 -307.591C1649.39 -135.349 1606.57 114.54 1435.46 238.669C1361.48 292.471 1242.11 336.851 1151.59 301.816C1110.49 285.85 1080.25 255.755 1048.75 226.142C1008.56 188.363 962.394 158.058 911.348 136.818C873.529 121.234 829.857 122.501 793.084 107.219C745.097 87.1442 770.499 9.41852 779.075 -27.1672C810.696 -161.265 861.86 -312.083 977.06 -395.455Z" stroke="url(#paint18_linear)" stroke-linecap="round" stroke-linejoin="round" stroke-dasharray="1 3"/>
    <path d="M965.56 -411.511C1146.22 -542.227 1408.36 -498.707 1539.54 -319.185C1671.9 -138.334 1626.96 124.81 1447.22 254.8C1367.12 312.639 1245.61 355.127 1147.36 322.388C1102.94 307.59 1067.45 279.517 1034.46 247.21C993.476 206.796 946.217 172.92 894.566 147.401C856.793 128.717 810.925 126.803 774.946 107.787C726.918 82.4641 750.676 4.54733 760.122 -36.0331C792.125 -173.417 847.515 -326.129 965.56 -411.511Z" stroke="url(#paint19_linear)" stroke-linecap="round" stroke-linejoin="round" stroke-dasharray="1 3"/>
    <path d="M953.798 -427.642C1143.4 -564.834 1417.77 -519.059 1555.51 -330.854C1694.7 -140.814 1647.07 134.576 1458.72 270.856C1372.11 333.608 1248.98 372.376 1142.54 343.499C1035.83 314.547 968.443 215.564 876.623 159.064C839.365 136.142 790.75 128.057 755.925 103.572C710.286 71.4377 730.487 -2.9771 740.971 -47.6453C773.466 -187.717 834.256 -340.994 953.798 -427.642Z" stroke="url(#paint20_linear)" stroke-linecap="round" stroke-linejoin="round" stroke-dasharray="1 3"/>
    <path d="M942.297 -443.698C1139.05 -587.035 1429.52 -539.163 1571.73 -342.447C1713.95 -145.731 1669.19 145.206 1470.48 286.987C1376.05 354.276 1252.84 388.916 1137.81 364.779C1017.74 339.472 949.808 241.888 857.967 172.22C821.991 144.856 774.801 127.417 740.717 97.9096C695.489 58.9592 710.935 -11.7325 722.649 -62.1315C755.654 -204.462 821.182 -355.523 942.297 -443.698Z" stroke="url(#paint21_linear)" stroke-linecap="round" stroke-linejoin="round" stroke-dasharray="1 3"/>
    <path d="M930.535 -459.829C1137.28 -609.341 1438.75 -561.832 1587.86 -354.209C1736.16 -147.671 1688.65 153.793 1482.24 303.118C1382.26 375.455 1255.21 404.742 1133.09 386.06C1076.44 377.356 1023.15 362.404 979.082 324.353C929.29 281.113 891.349 226.717 839.252 186.067C803.241 157.844 761.58 126.149 729.092 93.5644C682.968 47.4207 691.048 -20.302 704.686 -78.3538C738.33 -221.915 808.73 -371.712 930.535 -459.829Z" stroke="url(#paint22_linear)" stroke-linecap="round" stroke-linejoin="round" stroke-dasharray="1 3"/>
    <path d="M919.035 -475.885C1134.56 -631.78 1448.59 -582.202 1604.09 -365.802C1758.86 -150.319 1709.19 163.541 1494 319.249C1386.83 396.871 1258.7 420.609 1128.6 406.986C1068.44 400.663 1006.06 392.71 958.445 352.222C906.114 307.967 874.662 243.838 821.885 199.17C783.289 166.663 745.038 123.64 713.953 83.2517C672.779 29.762 672.291 -32.7909 687.176 -96.1438C720.576 -239.351 797.641 -388.215 919.035 -475.885Z" stroke="url(#paint23_linear)" stroke-linecap="round" stroke-linejoin="round" stroke-dasharray="1 3"/>
    <path d="M907.273 -492.017C1131.57 -654.294 1458.17 -602.648 1620.05 -377.471C1781.11 -153.38 1729.47 173.213 1505.5 335.305C1391.39 417.858 1261.75 436.493 1124.12 427.911C1060.87 423.953 988.384 423.556 936.739 381.339C911.988 361.176 897.459 332.075 880.962 305.379C859.406 270.712 835.657 239.233 805.191 211.902C763.824 174.774 737.516 129.112 706.893 83.1957C665.537 21.0205 652.177 -40.5766 669.312 -114.178C702.224 -256.677 787.47 -405.444 907.273 -492.017Z" stroke="url(#paint24_linear)" stroke-linecap="round" stroke-linejoin="round" stroke-dasharray="1 3"/>
    <path d="M895.512 -508.148C1128.68 -676.641 1467.91 -623.186 1636.01 -389.14C1803.46 -156.272 1749.84 183.054 1517 351.361C1396.28 438.66 1264.57 452.731 1119.96 448.222C1054.03 446.18 970.017 454.345 915.672 409.225C888.406 386.497 876.134 351.537 860.507 320.846C841.888 284.338 819.972 251.407 789.994 223.367C762.066 197.051 739.34 173.794 724.792 137.894C716.181 116.728 707.025 96.9616 695.796 77.0215C658.096 9.53269 632.804 -53.3847 651.204 -131.857C684.413 -273.422 777.299 -422.673 895.512 -508.148Z" stroke="url(#paint25_linear)" stroke-linecap="round" stroke-linejoin="round" stroke-dasharray="1 3"/>
    <path d="M884.011 -524.204C1126.87 -699.806 1476.63 -643.596 1652.24 -400.733C1827.84 -157.87 1770.42 191.682 1528.77 367.492C1469.67 410.445 1401.13 441.474 1329.76 457.816C1257.79 474.268 1189.24 469.062 1116.47 468.161C1050.76 467.315 955.145 484.302 898.93 439.775C867.449 414.981 858.13 372.241 843.262 336.957C827.04 298.027 806.849 263.046 776.295 233.567C749.859 207.964 724.44 186.194 712.469 150.189C703.944 124.802 699.658 99.9306 687.807 75.2821C652.27 1.76609 613.856 -64.2304 633.131 -148.678C665.44 -289.086 767.557 -439.92 884.011 -524.204Z" stroke="url(#paint26_linear)" stroke-linecap="round" stroke-linejoin="round" stroke-dasharray="1 3"/>
    <path d="M872.249 -540.335C1123.89 -722.32 1486.21 -664.042 1668.2 -412.402C1850.18 -160.762 1791.91 201.563 1540.27 383.548C1478.74 428.063 1408.18 460.208 1334.17 477.346C1259.47 494.425 1188.55 488.112 1113.22 487.745C1043.41 487.411 930.13 514.587 873.402 459.581C847.86 434.803 840.839 391.452 830.391 359C816.031 315.088 797.551 275.648 764.111 242.929C737.396 216.822 710.467 193.908 700.145 156.114C692.56 128.451 691.937 102.656 680.335 75.6733C646.846 -2.48807 594.27 -73.8451 615.07 -163.088C632.112 -236.858 674.946 -302.901 714.356 -366.395C756.26 -434.122 807.463 -493.363 872.249 -540.335Z" stroke="url(#paint27_linear)" stroke-linecap="round" stroke-linejoin="round" stroke-dasharray="1 3"/>
    <path d="M860.749 -556.391C1121.17 -744.759 1496.06 -684.412 1684.42 -423.995C1872.79 -163.579 1812.45 211.311 1552.03 399.679C1489.58 444.92 1418.28 477.698 1343.35 495.562C1264.33 514.367 1190.37 507.317 1110.39 506.882C1038.43 506.636 920.558 539.422 860.95 485.566C831.006 458.386 826.394 408.653 816.629 371.87C804.347 326.152 787.219 283.988 752.844 251.566C727.152 227.311 698.881 203.16 689.076 167.497C680.306 136.096 683.972 105.735 671.765 74.474C639.779 -6.93333 575.352 -81.8517 596.702 -174.474C613.878 -249.196 659.87 -315.885 699.581 -380.424C741.881 -449.027 795.121 -508.954 860.749 -556.391Z" stroke="url(#paint28_linear)" stroke-linecap="round" stroke-linejoin="round" stroke-dasharray="1 3"/>
    <path d="M848.987 -572.522C1118.18 -767.274 1505.8 -704.95 1700.39 -435.664C1895.14 -166.471 1832.82 221.152 1563.53 415.735C1496.48 464.176 1419.42 499.255 1338.55 517.103C1260.24 534.416 1186.73 527.778 1107.73 525.926C1034.49 524.183 907.269 563.892 846.83 506.541C816.834 478.072 814.404 429.111 806.399 391.137C796.107 341.464 779.982 294.354 741.99 259.756C715.438 235.535 682.778 211.392 675.556 173.644C669.898 144.697 676.044 116.043 667.025 86.9754C639.525 -2.61956 554.694 -81.8689 577.128 -181.68C594.269 -257.26 642.972 -325.007 682.387 -390.48C725.609 -461.79 781.693 -523.727 848.987 -572.522Z" stroke="url(#paint29_linear)" stroke-linecap="round" stroke-linejoin="round" stroke-dasharray="1 3"/>
    <path d="M837.487 -588.578C1115.46 -789.713 1515.64 -725.321 1716.61 -447.258C1917.58 -169.195 1853.35 230.9 1575.29 431.867C1507.16 481.127 1429.59 516.484 1347.73 535.32C1265.2 554.527 1188.13 547.431 1104.78 544.465C1025.65 541.586 898.004 585.702 833.812 520.758C803.821 490.309 803.225 439.896 796.101 400.336C787.175 350.35 771.896 300.795 731.21 267.684C704.409 245.798 668.76 222.207 661.834 185.393C655.501 150.449 667.517 120.092 656.068 84.2383C627.448 -5.39696 537.148 -85.8002 556.295 -185.993C571.368 -263.727 625.383 -334.187 665.436 -400.891C709.598 -474.477 768.097 -538.406 837.487 -588.578Z" stroke="url(#paint30_linear)" stroke-linecap="round" stroke-linejoin="round" stroke-dasharray="1 3"/>
    <path d="M825.725 -604.709C1112.56 -812.059 1525.22 -745.766 1732.57 -458.926C1939.92 -172.087 1873.63 240.572 1586.79 447.923C1517.91 497.816 1439.42 533.899 1356.74 553.629C1269.96 574.3 1189.42 568.466 1101.7 563.957C1019.42 559.743 901.29 607.171 832.877 542.141C797.329 508.39 794.579 453.676 786.872 408.287C777.898 355.032 761.675 309.733 718.318 276.559C691.924 256.205 651.734 233.144 645.256 196.743C639.365 164.191 656.704 133.53 649.042 99.7596C626.427 -0.879713 514.686 -81.5263 533.018 -191.154C546.226 -270.275 608.299 -343.645 648.486 -411.302C693.587 -487.164 754.501 -553.085 825.725 -604.709Z" stroke="url(#paint31_linear)" stroke-linecap="round" stroke-linejoin="round" stroke-dasharray="1 3"/>
    <path d="M814.224 -620.765C1109.84 -834.498 1535.23 -766.229 1748.97 -470.613C1962.7 -174.996 1894.34 250.227 1598.81 464.129C1525.16 517.316 1440.99 555.439 1352.2 575.246C1266.31 594.332 1186.03 588.572 1099.22 583.338C1014.93 578.259 902.104 631.323 831.89 562.236C793.961 524.967 786.789 461.052 777.897 411.925C768.011 357.416 749.101 317.993 703.8 285.673C673.916 264.171 625.383 239.126 625.44 196.261C625.29 160.979 644.727 135.311 635.467 98.2483C610.129 -3.74303 491.705 -85.752 508.062 -197.364C520.005 -277.983 590.879 -352.918 631.796 -421.638C677.838 -499.776 740.737 -567.671 814.224 -620.765Z" stroke="url(#paint32_linear)" stroke-linecap="round" stroke-linejoin="round" stroke-dasharray="1 3"/>
    <path d="M802.463 -636.896C1106.86 -857.013 1544.81 -786.675 1764.93 -482.282C1985.05 -177.888 1914.71 260.068 1610.31 480.185C1535.91 534.005 1450.82 572.854 1361.21 593.555C1271 614.367 1187.4 607.366 1096.48 602.643C1010.06 598.082 898.536 659.872 830.316 578.482C793.226 534.379 782.595 472.154 769.289 418.215C755.28 361.809 735.066 328.378 686.832 295.92C656.74 275.631 602.511 250.217 602.55 206.922C602.506 174.217 627.173 148.077 623.192 113.812C609.729 -0.886351 465.195 -83.6367 481.184 -204.271C487.169 -249.53 513.86 -285.134 540.83 -320.233C568.699 -356.488 591.488 -392.793 614.77 -431.787C662.611 -512.237 726.804 -582.165 802.463 -636.896Z" stroke="url(#paint33_linear)" stroke-linecap="round" stroke-linejoin="round" stroke-dasharray="1 3"/>
    <path d="M790.869 -653.12C1104.04 -879.62 1554.65 -807.045 1781.06 -494.043C2007.56 -180.874 1934.98 269.741 1621.98 496.148C1542.9 553.429 1451.87 594.243 1356.22 614.76C1266.46 634.004 1183.53 626.631 1093.48 621.873C1009.03 617.317 912.262 681.948 841.483 607.461C800.022 563.795 784.205 498.942 766.852 442.844C747.128 379.269 723.504 342.449 667.548 306.347C637.491 286.917 578.164 261.023 576.578 217.967C575.237 180.925 608.201 153.5 604.102 114.247C598.332 57.246 554.626 0.76121 524.601 -45.2653C493.107 -93.5556 446.004 -151.021 452.704 -212.49C457.91 -259.955 490.673 -296.496 520.332 -331.102C551.882 -367.851 574.88 -405.37 599.793 -446.582C648.922 -527.084 714.294 -597.663 790.869 -653.12Z" stroke="url(#paint34_linear)" stroke-linecap="round" stroke-linejoin="round" stroke-dasharray="1 3"/>
    <path d="M779.2 -669.083C1101.11 -900.846 1564.23 -827.49 1797.12 -505.544C2030 -183.597 1955.52 279.489 1633.58 512.372C1554.74 569.299 1464.75 610.414 1370.02 632.185C1274.09 654.177 1187.2 646.794 1090.67 641.44C998.711 636.416 912.271 713.794 838.578 618.511C799.32 567.697 781.355 502.932 758.724 444.037C735.332 383.366 700.73 351.728 646.598 318.133C615.513 298.832 550.792 271.522 548.143 227.735C545.798 189.271 584.149 158.872 583.266 118.282C582.036 60.7518 542.656 6.93057 511.958 -38.7241C478.135 -89.2433 417.792 -154.775 423.98 -220.354C428.419 -267.616 464.301 -303.681 495.335 -336.192C529.255 -371.833 553.554 -406.995 578.339 -449.235C629.145 -535.056 698.265 -610.78 779.2 -669.083Z" stroke="url(#paint35_linear)" stroke-linecap="round" stroke-linejoin="round" stroke-dasharray="1 3"/>
    <path d="M767.607 -685.308C1097.41 -923.848 1574.16 -845.712 1813.25 -517.306C2053.43 -187.308 1974.19 289.829 1645.25 528.335C1561.9 588.631 1466.13 631.617 1365.29 653.465C1270.5 673.947 1182.92 666.507 1087.59 660.932C997.52 655.744 928.286 739.219 851.946 648.692C802.474 590.119 781.666 512.645 749.533 444.498C722.304 386.824 677.411 362.406 624.132 330.756C588.849 309.819 519.182 281.506 517.722 233.108C516.474 196.235 555.318 163.147 561.281 125.808C570.681 67.2403 528.844 10.1628 497.903 -35.1377C462.291 -87.3052 390.218 -159.76 395.424 -228.312C399.235 -278.302 441.318 -314.276 474.948 -346.463C512.809 -382.523 536.812 -418.62 563.564 -463.264C615.549 -549.735 686.016 -626.202 767.607 -685.308Z" stroke="url(#paint36_linear)" stroke-linecap="round" stroke-linejoin="round" stroke-dasharray="1 3"/>
    <path d="M755.938 -701.27C1094.52 -946.194 1583.83 -865.989 1829.3 -528.806C2075.96 -189.864 1994.66 299.839 1656.84 544.559C1573.83 604.669 1478.94 648.05 1378.92 670.984C1278.39 694.196 1185.65 686.966 1084.44 680.685C1040.08 677.934 1015.45 698.564 976.096 712.823C922.495 732.312 878.819 699.754 847.983 657.031C800.994 591.815 778.787 513.795 739.129 444.751C708.359 391.009 651.612 371.378 600.117 343.356C564.027 323.743 483.001 289.181 485.68 236.741C487.706 197.84 527.63 165.913 538.337 128.81C556.3 67.053 512.227 7.91495 478.695 -39.6897C441.423 -92.478 363.713 -165.993 367.222 -236.025C369.727 -286.393 415.206 -321.387 450.12 -351.646C493.346 -389.13 517.628 -424.722 546.8 -473.338C599.968 -562.44 672.083 -640.696 755.938 -701.27Z" stroke="url(#paint37_linear)" stroke-linecap="round" stroke-linejoin="round" stroke-dasharray="1 3"/>
    <path d="M744.345 -717.495C1091.7 -968.802 1593.75 -886.621 1845.43 -540.568C2098.48 -192.849 2015.04 310.109 1668.51 560.522C1492.69 687.683 1293.5 720.777 1081.53 700.083C1037.2 695.782 1017.06 717.003 979.737 734.536C928.048 758.681 885.636 721.251 855.915 680.548C805.424 611.774 780.184 529.059 735.342 457.386C699.241 399.558 633.385 384.516 576.194 356.125C537.974 337.029 454.712 300.406 453.396 247.096C452.39 203.5 501.945 167.134 516.785 127.969C539.451 67.5688 499.815 11.6924 465.947 -35.7264C426.59 -91.0977 337.033 -170.154 338.927 -243.907C340.317 -296.295 394.522 -332.592 430.778 -361.615C475.194 -397.34 499.174 -431.887 527.841 -480.224C582.494 -573.001 657.234 -654.463 744.345 -717.495Z" stroke="url(#paint38_linear)" stroke-linecap="round" stroke-linejoin="round" stroke-dasharray="1 3"/>
    <path d="M732.676 -733.458C1088.81 -991.148 1603.42 -906.898 1861.58 -551.9C2121.01 -195.404 2035.34 320.211 1680.03 577.008C1501.2 706.271 1294.19 743.902 1078.04 720.022C1033.6 715.123 1017.5 734.113 982.483 755.425C930.924 786.967 885.699 739.667 856.989 698.407C806.34 625.766 778.307 539.98 729.173 466.503C689.379 406.76 612.151 397.778 552.232 370.014C509.773 350.402 420.303 309.299 422.271 250.003C423.977 205.349 475.36 169.511 493.487 130.728C522.922 67.4691 484.371 10.7738 447.355 -39.9593C421.189 -75.8149 392.346 -109.754 366.012 -145.516C345.149 -173.756 312.81 -213.233 312.741 -250.757C312.563 -303.596 369.381 -339.14 406.38 -366.816C455.243 -403.239 480.03 -439.11 510.63 -490.71C566.838 -585.445 643.469 -669.049 732.676 -733.458Z" stroke="url(#paint39_linear)" stroke-linecap="round" stroke-linejoin="round" stroke-dasharray="1 3"/>
    <path d="M721.083 -749.682C1086.13 -1014.71 1613.17 -927.436 1877.71 -563.662C2143.26 -198.465 2055.78 329.791 1691.69 592.971C1510.19 724.151 1294.95 766.765 1074.96 739.513C1026.08 733.332 1015.73 753.981 978.948 778.464C927.831 812.397 882.191 752.807 856.163 714.019C803.381 635.527 774.44 540.138 715.726 466.019C673.524 412.658 586.417 410.448 529.012 385.25C483.79 365.406 388.529 317.396 393.963 254.429C398.048 206.924 451.376 170.232 472.382 130.298C504.314 69.1757 472.703 15.8981 436.116 -34.8525C407.29 -74.7309 374.365 -111.688 344.79 -150.933C322.585 -180.409 290.967 -216.989 289.388 -255.656C286.828 -312.013 349.267 -346.925 388.826 -375.136C440.511 -412.019 464.147 -450.769 495.797 -504.048C553.056 -600.461 630.715 -684.193 721.083 -749.682Z" stroke="url(#paint40_linear)" stroke-linecap="round" stroke-linejoin="round" stroke-dasharray="1 3"/>
    <path d="M709.321 -765.813C1083.48 -1037.41 1622.58 -947.789 1893.68 -575.33C2166.23 -201.038 2075.89 339.556 1703.2 609.026C1519.28 742.199 1295.47 789.983 1071.55 759.19C1022.82 752.487 1011.62 769.212 976.341 796.818C924.889 837.306 876.621 768.183 851.528 729.099C799.855 648.237 769.595 550.062 707.705 476.159C662.182 421.556 565.66 426.96 505.846 401.774C456.797 380.968 368.363 329.409 369.134 263.964C369.636 215.142 420.671 177.08 444.772 139.172C482.696 79.354 465.443 27.814 426.701 -27.2382C398.194 -67.732 365.008 -104.764 334.254 -143.359C308.675 -175.365 269.955 -217.25 266.987 -260.422C262.644 -320.407 331.939 -356.03 373.536 -384.926C425.761 -421.229 446.75 -461.592 478.492 -514.702C537.568 -612.997 616.875 -698.518 709.321 -765.813Z" stroke="url(#paint41_linear)" stroke-linecap="round" stroke-linejoin="round" stroke-dasharray="1 3"/>
    <defs>
        <linearGradient id="paint0_linear" x1="653" y1="12" x2="881.5" y2="711.5" gradientUnits="userSpaceOnUse">
            <stop stop-color="#F9F7F7"/>
            <stop offset="0.464239" stop-color="#E30A17"/>
            <stop offset="1" stop-color="#F9F7F7"/>
        </linearGradient>
        <linearGradient id="paint1_linear" x1="653" y1="12" x2="881.5" y2="711.5" gradientUnits="userSpaceOnUse">
            <stop stop-color="#F9F7F7"/>
            <stop offset="0.464239" stop-color="#E30A17"/>
            <stop offset="1" stop-color="#F9F7F7"/>
        </linearGradient>
        <linearGradient id="paint2_linear" x1="653" y1="12" x2="881.5" y2="711.5" gradientUnits="userSpaceOnUse">
            <stop stop-color="#F9F7F7"/>
            <stop offset="0.464239" stop-color="#E30A17"/>
            <stop offset="1" stop-color="#F9F7F7"/>
        </linearGradient>
        <linearGradient id="paint3_linear" x1="653" y1="12" x2="881.5" y2="711.5" gradientUnits="userSpaceOnUse">
            <stop stop-color="#F9F7F7"/>
            <stop offset="0.464239" stop-color="#E30A17"/>
            <stop offset="1" stop-color="#F9F7F7"/>
        </linearGradient>
        <linearGradient id="paint4_linear" x1="653" y1="12" x2="881.5" y2="711.5" gradientUnits="userSpaceOnUse">
            <stop stop-color="#F9F7F7"/>
            <stop offset="0.464239" stop-color="#E30A17"/>
            <stop offset="1" stop-color="#F9F7F7"/>
        </linearGradient>
        <linearGradient id="paint5_linear" x1="653" y1="12" x2="881.5" y2="711.5" gradientUnits="userSpaceOnUse">
            <stop stop-color="#F9F7F7"/>
            <stop offset="0.464239" stop-color="#E30A17"/>
            <stop offset="1" stop-color="#F9F7F7"/>
        </linearGradient>
        <linearGradient id="paint6_linear" x1="653" y1="12" x2="881.5" y2="711.5" gradientUnits="userSpaceOnUse">
            <stop stop-color="#F9F7F7"/>
            <stop offset="0.464239" stop-color="#E30A17"/>
            <stop offset="1" stop-color="#F9F7F7"/>
        </linearGradient>
        <linearGradient id="paint7_linear" x1="653" y1="12" x2="881.5" y2="711.5" gradientUnits="userSpaceOnUse">
            <stop stop-color="#F9F7F7"/>
            <stop offset="0.464239" stop-color="#E30A17"/>
            <stop offset="1" stop-color="#F9F7F7"/>
        </linearGradient>
        <linearGradient id="paint8_linear" x1="653" y1="12" x2="881.5" y2="711.5" gradientUnits="userSpaceOnUse">
            <stop stop-color="#F9F7F7"/>
            <stop offset="0.464239" stop-color="#E30A17"/>
            <stop offset="1" stop-color="#F9F7F7"/>
        </linearGradient>
        <linearGradient id="paint9_linear" x1="653" y1="12" x2="881.5" y2="711.5" gradientUnits="userSpaceOnUse">
            <stop stop-color="#F9F7F7"/>
            <stop offset="0.464239" stop-color="#E30A17"/>
            <stop offset="1" stop-color="#F9F7F7"/>
        </linearGradient>
        <linearGradient id="paint10_linear" x1="653" y1="12" x2="881.5" y2="711.5" gradientUnits="userSpaceOnUse">
            <stop stop-color="#F9F7F7"/>
            <stop offset="0.464239" stop-color="#E30A17"/>
            <stop offset="1" stop-color="#F9F7F7"/>
        </linearGradient>
        <linearGradient id="paint11_linear" x1="653" y1="12" x2="881.5" y2="711.5" gradientUnits="userSpaceOnUse">
            <stop stop-color="#F9F7F7"/>
            <stop offset="0.464239" stop-color="#E30A17"/>
            <stop offset="1" stop-color="#F9F7F7"/>
        </linearGradient>
        <linearGradient id="paint12_linear" x1="653" y1="12" x2="881.5" y2="711.5" gradientUnits="userSpaceOnUse">
            <stop stop-color="#F9F7F7"/>
            <stop offset="0.464239" stop-color="#E30A17"/>
            <stop offset="1" stop-color="#F9F7F7"/>
        </linearGradient>
        <linearGradient id="paint13_linear" x1="653" y1="12" x2="881.5" y2="711.5" gradientUnits="userSpaceOnUse">
            <stop stop-color="#F9F7F7"/>
            <stop offset="0.464239" stop-color="#E30A17"/>
            <stop offset="1" stop-color="#F9F7F7"/>
        </linearGradient>
        <linearGradient id="paint14_linear" x1="653" y1="12" x2="881.5" y2="711.5" gradientUnits="userSpaceOnUse">
            <stop stop-color="#F9F7F7"/>
            <stop offset="0.464239" stop-color="#E30A17"/>
            <stop offset="1" stop-color="#F9F7F7"/>
        </linearGradient>
        <linearGradient id="paint15_linear" x1="653" y1="12" x2="881.5" y2="711.5" gradientUnits="userSpaceOnUse">
            <stop stop-color="#F9F7F7"/>
            <stop offset="0.464239" stop-color="#E30A17"/>
            <stop offset="1" stop-color="#F9F7F7"/>
        </linearGradient>
        <linearGradient id="paint16_linear" x1="653" y1="12" x2="881.5" y2="711.5" gradientUnits="userSpaceOnUse">
            <stop stop-color="#F9F7F7"/>
            <stop offset="0.464239" stop-color="#E30A17"/>
            <stop offset="1" stop-color="#F9F7F7"/>
        </linearGradient>
        <linearGradient id="paint17_linear" x1="653" y1="12" x2="881.5" y2="711.5" gradientUnits="userSpaceOnUse">
            <stop stop-color="#F9F7F7"/>
            <stop offset="0.464239" stop-color="#E30A17"/>
            <stop offset="1" stop-color="#F9F7F7"/>
        </linearGradient>
        <linearGradient id="paint18_linear" x1="653" y1="12" x2="881.5" y2="711.5" gradientUnits="userSpaceOnUse">
            <stop stop-color="#F9F7F7"/>
            <stop offset="0.464239" stop-color="#E30A17"/>
            <stop offset="1" stop-color="#F9F7F7"/>
        </linearGradient>
        <linearGradient id="paint19_linear" x1="653" y1="12" x2="881.5" y2="711.5" gradientUnits="userSpaceOnUse">
            <stop stop-color="#F9F7F7"/>
            <stop offset="0.464239" stop-color="#E30A17"/>
            <stop offset="1" stop-color="#F9F7F7"/>
        </linearGradient>
        <linearGradient id="paint20_linear" x1="653" y1="12" x2="881.5" y2="711.5" gradientUnits="userSpaceOnUse">
            <stop stop-color="#F9F7F7"/>
            <stop offset="0.464239" stop-color="#E30A17"/>
            <stop offset="1" stop-color="#F9F7F7"/>
        </linearGradient>
        <linearGradient id="paint21_linear" x1="653" y1="12" x2="881.5" y2="711.5" gradientUnits="userSpaceOnUse">
            <stop stop-color="#F9F7F7"/>
            <stop offset="0.464239" stop-color="#E30A17"/>
            <stop offset="1" stop-color="#F9F7F7"/>
        </linearGradient>
        <linearGradient id="paint22_linear" x1="653" y1="12" x2="881.5" y2="711.5" gradientUnits="userSpaceOnUse">
            <stop stop-color="#F9F7F7"/>
            <stop offset="0.464239" stop-color="#E30A17"/>
            <stop offset="1" stop-color="#F9F7F7"/>
        </linearGradient>
        <linearGradient id="paint23_linear" x1="653" y1="12" x2="881.5" y2="711.5" gradientUnits="userSpaceOnUse">
            <stop stop-color="#F9F7F7"/>
            <stop offset="0.464239" stop-color="#E30A17"/>
            <stop offset="1" stop-color="#F9F7F7"/>
        </linearGradient>
        <linearGradient id="paint24_linear" x1="653" y1="12" x2="881.5" y2="711.5" gradientUnits="userSpaceOnUse">
            <stop stop-color="#F9F7F7"/>
            <stop offset="0.464239" stop-color="#E30A17"/>
            <stop offset="1" stop-color="#F9F7F7"/>
        </linearGradient>
        <linearGradient id="paint25_linear" x1="653" y1="12" x2="881.5" y2="711.5" gradientUnits="userSpaceOnUse">
            <stop stop-color="#F9F7F7"/>
            <stop offset="0.464239" stop-color="#E30A17"/>
            <stop offset="1" stop-color="#F9F7F7"/>
        </linearGradient>
        <linearGradient id="paint26_linear" x1="653" y1="12" x2="881.5" y2="711.5" gradientUnits="userSpaceOnUse">
            <stop stop-color="#F9F7F7"/>
            <stop offset="0.464239" stop-color="#E30A17"/>
            <stop offset="1" stop-color="#F9F7F7"/>
        </linearGradient>
        <linearGradient id="paint27_linear" x1="653" y1="12" x2="881.5" y2="711.5" gradientUnits="userSpaceOnUse">
            <stop stop-color="#F9F7F7"/>
            <stop offset="0.464239" stop-color="#E30A17"/>
            <stop offset="1" stop-color="#F9F7F7"/>
        </linearGradient>
        <linearGradient id="paint28_linear" x1="653" y1="12" x2="881.5" y2="711.5" gradientUnits="userSpaceOnUse">
            <stop stop-color="#F9F7F7"/>
            <stop offset="0.464239" stop-color="#E30A17"/>
            <stop offset="1" stop-color="#F9F7F7"/>
        </linearGradient>
        <linearGradient id="paint29_linear" x1="653" y1="12" x2="881.5" y2="711.5" gradientUnits="userSpaceOnUse">
            <stop stop-color="#F9F7F7"/>
            <stop offset="0.464239" stop-color="#E30A17"/>
            <stop offset="1" stop-color="#F9F7F7"/>
        </linearGradient>
        <linearGradient id="paint30_linear" x1="653" y1="12" x2="881.5" y2="711.5" gradientUnits="userSpaceOnUse">
            <stop stop-color="#F9F7F7"/>
            <stop offset="0.464239" stop-color="#E30A17"/>
            <stop offset="1" stop-color="#F9F7F7"/>
        </linearGradient>
        <linearGradient id="paint31_linear" x1="653" y1="12" x2="881.5" y2="711.5" gradientUnits="userSpaceOnUse">
            <stop stop-color="#F9F7F7"/>
            <stop offset="0.464239" stop-color="#E30A17"/>
            <stop offset="1" stop-color="#F9F7F7"/>
        </linearGradient>
        <linearGradient id="paint32_linear" x1="653" y1="12" x2="881.5" y2="711.5" gradientUnits="userSpaceOnUse">
            <stop stop-color="#F9F7F7"/>
            <stop offset="0.464239" stop-color="#E30A17"/>
            <stop offset="1" stop-color="#F9F7F7"/>
        </linearGradient>
        <linearGradient id="paint33_linear" x1="653" y1="12" x2="881.5" y2="711.5" gradientUnits="userSpaceOnUse">
            <stop stop-color="#F9F7F7"/>
            <stop offset="0.464239" stop-color="#E30A17"/>
            <stop offset="1" stop-color="#F9F7F7"/>
        </linearGradient>
        <linearGradient id="paint34_linear" x1="653" y1="12" x2="881.5" y2="711.5" gradientUnits="userSpaceOnUse">
            <stop stop-color="#F9F7F7"/>
            <stop offset="0.464239" stop-color="#E30A17"/>
            <stop offset="1" stop-color="#F9F7F7"/>
        </linearGradient>
        <linearGradient id="paint35_linear" x1="653" y1="12" x2="881.5" y2="711.5" gradientUnits="userSpaceOnUse">
            <stop stop-color="#F9F7F7"/>
            <stop offset="0.464239" stop-color="#E30A17"/>
            <stop offset="1" stop-color="#F9F7F7"/>
        </linearGradient>
        <linearGradient id="paint36_linear" x1="653" y1="12" x2="881.5" y2="711.5" gradientUnits="userSpaceOnUse">
            <stop stop-color="#F9F7F7"/>
            <stop offset="0.464239" stop-color="#E30A17"/>
            <stop offset="1" stop-color="#F9F7F7"/>
        </linearGradient>
        <linearGradient id="paint37_linear" x1="653" y1="12" x2="881.5" y2="711.5" gradientUnits="userSpaceOnUse">
            <stop stop-color="#F9F7F7"/>
            <stop offset="0.464239" stop-color="#E30A17"/>
            <stop offset="1" stop-color="#F9F7F7"/>
        </linearGradient>
        <linearGradient id="paint38_linear" x1="653" y1="12" x2="881.5" y2="711.5" gradientUnits="userSpaceOnUse">
            <stop stop-color="#F9F7F7"/>
            <stop offset="0.464239" stop-color="#E30A17"/>
            <stop offset="1" stop-color="#F9F7F7"/>
        </linearGradient>
        <linearGradient id="paint39_linear" x1="653" y1="12" x2="881.5" y2="711.5" gradientUnits="userSpaceOnUse">
            <stop stop-color="#F9F7F7"/>
            <stop offset="0.464239" stop-color="#E30A17"/>
            <stop offset="1" stop-color="#F9F7F7"/>
        </linearGradient>
        <linearGradient id="paint40_linear" x1="653" y1="12" x2="881.5" y2="711.5" gradientUnits="userSpaceOnUse">
            <stop stop-color="#F9F7F7"/>
            <stop offset="0.464239" stop-color="#E30A17"/>
            <stop offset="1" stop-color="#F9F7F7"/>
        </linearGradient>
        <linearGradient id="paint41_linear" x1="653" y1="12" x2="881.5" y2="711.5" gradientUnits="userSpaceOnUse">
            <stop stop-color="#F9F7F7"/>
            <stop offset="0.464239" stop-color="#E30A17"/>
            <stop offset="1" stop-color="#F9F7F7"/>
        </linearGradient>
    </defs>
</svg>
