<svg width="1203" height="21" viewBox="0 0 1203 21" fill="none" xmlns="http://www.w3.org/2000/svg">
    <rect y="2.37354" width="13.0567" height="15.4307" fill="#00FCFC" fill-opacity="0.5"/>
    <rect width="13.0567" height="15.4307" transform="matrix(-1 0 0 1 1203 2.37354)" fill="#00FCFC" fill-opacity="0.5"/>
    <rect x="16.0239" y="6.52759" width="13.0567" height="7.12185" fill="#00FCFC" fill-opacity="0.5"/>
    <rect width="13.0567" height="7.12185" transform="matrix(-1 0 0 1 1186.98 6.52759)" fill="#00FCFC" fill-opacity="0.5"/>
    <rect x="32.0505" y="8.30859" width="26.1135" height="3.56093" fill="#00FCFC" fill-opacity="0.5"/>
    <rect width="26.1135" height="3.56093" transform="matrix(-1 0 0 1 1170.95 8.30859)" fill="#00FCFC" fill-opacity="0.5"/>
    <rect x="61.1313" y="8.30859" width="347.784" height="3.56093" fill="#00FCFC" fill-opacity="0.5"/>
    <rect width="347.784" height="3.56093" transform="matrix(-1 0 0 1 1141.87 8.30859)" fill="#00FCFC" fill-opacity="0.5"/>
    <rect width="122.852" height="3.56093" transform="matrix(-1 0 0 1 765.005 8.30859)" fill="#00FCFC" fill-opacity="0.5"/>
    <rect width="122.852" height="3.56093" transform="matrix(-1 0 0 1 561.441 8.30859)" fill="#00FCFC" fill-opacity="0.5"/>
    <rect width="29.0809" height="1.18698" transform="matrix(-1 0 0 1 616.634 9.49585)" fill="#00FCFC" fill-opacity="0.5"/>
    <circle cx="424.936" cy="10.089" r="9.19906" stroke="#00FCFC" stroke-opacity="0.5" stroke-width="1.78046"/>
    <circle cx="778.657" cy="10.089" r="9.19906" stroke="#00FCFC" stroke-opacity="0.5" stroke-width="1.78046"/>
    <circle cx="567.671" cy="9.79245" r="4.15442" stroke="#00FCFC" stroke-opacity="0.5" stroke-width="1.78046"/>
    <circle r="4.15442" transform="matrix(-1 0 0 1 635.923 9.79245)" stroke="#00FCFC" stroke-opacity="0.5" stroke-width="1.78046"/>
    <circle cx="577.464" cy="10.0892" r="5.63813" stroke="#00FCFC" stroke-opacity="0.5" stroke-width="1.78046"/>
    <circle r="5.63813" transform="matrix(-1 0 0 1 626.132 10.0892)" stroke="#00FCFC" stroke-opacity="0.5" stroke-width="1.78046"/>
</svg>
