<svg width="371" height="27" viewBox="0 0 371 27" fill="none" xmlns="http://www.w3.org/2000/svg">
    <g opacity="0.5">
        <path d="M76.002 21.0328V20.1514H133.856L134.617 21.0729L142.51 13.18V12.2986H186.341V14.2217H142.51V13.18L134.617 21.0729L135.379 21.9943H76.002V21.0328Z" fill="#00FCFC"/>
        <path d="M43.6294 21.9142L47.8763 26.2413H68.4698L76.002 21.0328M76.002 21.0328V20.1514H133.856L134.617 21.0729M76.002 21.0328V21.9943H135.379L134.617 21.0729M134.617 21.0729L142.51 13.18M142.51 13.18V12.2986H186.341V14.2217H142.51V13.18Z" stroke="#00FCFC" stroke-width="0.320521" stroke-linecap="round" stroke-linejoin="round"/>
    </g>
    <path opacity="0.5" d="M64.1426 1H217.752L222.24 6.04821" stroke="#00FCFC" stroke-width="0.320521" stroke-linecap="round" stroke-linejoin="round"/>
    <rect x="96.5151" y="10.3752" width="4.64756" height="2.88469" fill="#00FCFC"/>
    <rect x="104.688" y="10.3752" width="4.64756" height="2.88469" fill="#00FCFC"/>
    <rect x="112.862" y="10.3752" width="4.64756" height="2.88469" fill="#00FCFC"/>
    <rect x="121.035" y="10.3752" width="4.64756" height="2.88469" fill="#00FCFC"/>
    <rect x="128.888" y="10.3752" width="4.64756" height="2.88469" fill="#00FCFC"/>
    <path d="M123.279 8.29171L125.122 6.84937H218.794L220.317 8.29171" stroke="#00FCFC" stroke-width="0.801303" stroke-linecap="round" stroke-linejoin="round"/>
    <path opacity="0.2" d="M87.1401 15.2632H132.895L138.103 10.3752H200.925" stroke="#00FCFC" stroke-width="0.160261" stroke-linecap="round" stroke-linejoin="round"/>
    <circle cx="52.604" cy="16.1447" r="5.68925" stroke="#00FCFC" stroke-width="0.480782"/>
    <circle cx="52.604" cy="16.1446" r="8.7342" stroke="#00FCFC" stroke-width="0.480782"/>
    <path d="M5.83711 11.1189L0.993781 16.1305L6.0875 21.0519" stroke="#00FCFC" stroke-width="0.801303" stroke-linecap="round" stroke-linejoin="round"/>
    <path opacity="0.95" d="M9.04316 11.1182L4.19984 16.1298L9.29355 21.0512" stroke="#00FCFC" stroke-width="0.801303" stroke-linecap="round" stroke-linejoin="round"/>
    <path opacity="0.85" d="M12.2497 11.1175L7.40638 16.1291L12.5001 21.0505" stroke="#00FCFC" stroke-width="0.801303" stroke-linecap="round" stroke-linejoin="round"/>
    <path opacity="0.7" d="M15.4558 11.1169L10.6124 16.1285L15.7061 21.0499" stroke="#00FCFC" stroke-width="0.801303" stroke-linecap="round" stroke-linejoin="round"/>
    <path opacity="0.65" d="M18.6618 11.1161L13.8185 16.1277L18.9122 21.0491" stroke="#00FCFC" stroke-width="0.801303" stroke-linecap="round" stroke-linejoin="round"/>
    <path opacity="0.45" d="M21.8684 11.1156L17.025 16.1272L22.1187 21.0486" stroke="#00FCFC" stroke-width="0.801303" stroke-linecap="round" stroke-linejoin="round"/>
    <path opacity="0.35" d="M25.0744 11.1147L20.2311 16.1263L25.3248 21.0477" stroke="#00FCFC" stroke-width="0.801303" stroke-linecap="round" stroke-linejoin="round"/>
    <path opacity="0.25" d="M28.2805 11.1143L23.4371 16.1259L28.5309 21.0473" stroke="#00FCFC" stroke-width="0.801303" stroke-linecap="round" stroke-linejoin="round"/>
    <path opacity="0.15" d="M31.487 11.1133L26.6437 16.1249L31.7374 21.0463" stroke="#00FCFC" stroke-width="0.801303" stroke-linecap="round" stroke-linejoin="round"/>
    <path opacity="0.1" d="M34.6931 11.1126L29.8497 16.1242L34.9435 21.0456" stroke="#00FCFC" stroke-width="0.801303" stroke-linecap="round" stroke-linejoin="round"/>
    <path opacity="0.05" d="M37.8991 11.1124L33.0558 16.1239L38.1495 21.0454" stroke="#00FCFC" stroke-width="0.801303" stroke-linecap="round" stroke-linejoin="round"/>
    <path d="M225.846 9.65402H318.476M318.476 9.65402H342.355L343.717 11.497V15.9843H319.999L316.473 11.497L318.476 9.65402ZM341.794 9.41362L344.439 8.21167H370" stroke="#00FCFC" stroke-width="0.801303" stroke-linecap="round" stroke-linejoin="round"/>
</svg>
