<svg width="352" height="26" viewBox="0 0 352 26" fill="none" xmlns="http://www.w3.org/2000/svg">
    <g opacity="0.5">
        <path d="M71.3434 20.0556V19.2171H126.375L127.099 20.0937L134.607 12.5859V11.7474H176.3V13.5768H134.607V12.5859L127.099 20.0937L127.823 20.9702H71.3434V20.0556Z" fill="#00FCFC"/>
        <path d="M40.5499 20.894L44.5896 25.01H64.1785L71.3434 20.0556M71.3434 20.0556V19.2171H126.375L127.099 20.0937M71.3434 20.0556V20.9702H127.823L127.099 20.0937M127.099 20.0937L134.607 12.5859M134.607 12.5859V11.7474H176.3V13.5768H134.607V12.5859Z" stroke="#00FCFC" stroke-width="0.304886" stroke-linecap="round" stroke-linejoin="round"/>
    </g>
    <path opacity="0.5" d="M60.0626 1H206.179L210.448 5.80195" stroke="#00FCFC" stroke-width="0.304886" stroke-linecap="round" stroke-linejoin="round"/>
    <rect x="90.8561" y="9.91785" width="4.42085" height="2.74397" fill="#00FCFC"/>
    <rect x="98.6306" y="9.91785" width="4.42085" height="2.74397" fill="#00FCFC"/>
    <rect x="106.405" y="9.91785" width="4.42085" height="2.74397" fill="#00FCFC"/>
    <rect x="114.18" y="9.91785" width="4.42085" height="2.74397" fill="#00FCFC"/>
    <rect x="121.65" y="9.91785" width="4.42085" height="2.74397" fill="#00FCFC"/>
    <path d="M116.314 7.93607L118.067 6.56409H207.17L208.618 7.93607" stroke="#00FCFC" stroke-width="0.762215" stroke-linecap="round" stroke-linejoin="round"/>
    <path opacity="0.2" d="M81.9383 14.5674H125.461L130.415 9.91785H190.173" stroke="#00FCFC" stroke-width="0.152443" stroke-linecap="round" stroke-linejoin="round"/>
    <circle cx="49.0867" cy="15.4059" r="5.41173" stroke="#00FCFC" stroke-width="0.457329"/>
    <circle cx="49.0867" cy="15.4059" r="8.30814" stroke="#00FCFC" stroke-width="0.457329"/>
    <path d="M4.60103 10.6254L-0.00603203 15.3925L4.83921 20.0739" stroke="#00FCFC" stroke-width="0.762215" stroke-linecap="round" stroke-linejoin="round"/>
    <path opacity="0.95" d="M7.65096 10.6246L3.04389 15.3917L7.88914 20.073" stroke="#00FCFC" stroke-width="0.762215" stroke-linecap="round" stroke-linejoin="round"/>
    <path opacity="0.85" d="M10.7009 10.6238L6.09385 15.391L10.9391 20.0723" stroke="#00FCFC" stroke-width="0.762215" stroke-linecap="round" stroke-linejoin="round"/>
    <path opacity="0.7" d="M13.7506 10.6233L9.14353 15.3905L13.9888 20.0718" stroke="#00FCFC" stroke-width="0.762215" stroke-linecap="round" stroke-linejoin="round"/>
    <path opacity="0.65" d="M16.8003 10.6226L12.1932 15.3897L17.0385 20.0711" stroke="#00FCFC" stroke-width="0.762215" stroke-linecap="round" stroke-linejoin="round"/>
    <path opacity="0.45" d="M19.8502 10.6221L15.2432 15.3892L20.0884 20.0706" stroke="#00FCFC" stroke-width="0.762215" stroke-linecap="round" stroke-linejoin="round"/>
    <path opacity="0.35" d="M22.9002 10.6214L18.2931 15.3885L23.1383 20.0699" stroke="#00FCFC" stroke-width="0.762215" stroke-linecap="round" stroke-linejoin="round"/>
    <path opacity="0.25" d="M25.9498 10.6209L21.3428 15.388L26.188 20.0694" stroke="#00FCFC" stroke-width="0.762215" stroke-linecap="round" stroke-linejoin="round"/>
    <path opacity="0.15" d="M28.9996 10.6199L24.3925 15.387L29.2377 20.0684" stroke="#00FCFC" stroke-width="0.762215" stroke-linecap="round" stroke-linejoin="round"/>
    <path opacity="0.1" d="M32.0495 10.6194L27.4424 15.3866L32.2877 20.0679" stroke="#00FCFC" stroke-width="0.762215" stroke-linecap="round" stroke-linejoin="round"/>
    <path opacity="0.05" d="M35.0992 10.6192L30.4921 15.3863L35.3373 20.0677" stroke="#00FCFC" stroke-width="0.762215" stroke-linecap="round" stroke-linejoin="round"/>
    <path d="M213.877 9.23197H301.99M301.99 9.23197H324.704L325.999 10.9851V15.2535H303.438L300.084 10.9851L301.99 9.23197ZM324.17 9.00331L326.685 7.85999H351" stroke="#00FCFC" stroke-width="0.762215" stroke-linecap="round" stroke-linejoin="round"/>
</svg>
