<svg width="222" height="52" viewBox="0 0 222 52" fill="none" xmlns="http://www.w3.org/2000/svg">
    <path d="M111.458 28.3271C106.99 28.3271 103.347 31.7262 103.347 36.4078C103.347 41.0609 106.99 44.4885 111.458 44.4885C115.929 44.4885 119.571 41.0609 119.571 36.4078C119.569 31.7262 115.927 28.3271 111.458 28.3271ZM111.458 41.3079C109.009 41.3079 106.898 39.2882 106.898 36.4097C106.898 33.5008 109.011 31.5115 111.458 31.5115C113.908 31.5115 116.018 33.5008 116.018 36.4097C116.018 39.2863 113.908 41.3079 111.458 41.3079ZM93.7618 28.3271C89.293 28.3271 85.6507 31.7262 85.6507 36.4078C85.6507 41.0609 89.293 44.4885 93.7618 44.4885C98.2325 44.4885 101.875 41.0609 101.875 36.4078C101.875 31.7262 98.2325 28.3271 93.7618 28.3271ZM93.7618 41.3079C91.3127 41.3079 89.2018 39.2882 89.2018 36.4097C89.2018 33.5008 91.3146 31.5115 93.7618 31.5115C96.2109 31.5115 98.3218 33.5008 98.3218 36.4097C98.3237 39.2863 96.2109 41.3079 93.7618 41.3079ZM72.7136 30.8085V34.2361H80.9178C80.6727 36.1646 80.0305 37.5725 79.0501 38.551C77.8569 39.7442 75.9892 41.0609 72.7136 41.0609C67.6634 41.0609 63.7152 36.9892 63.7152 31.939C63.7152 26.8888 67.6634 22.8171 72.7136 22.8171C75.4382 22.8171 77.4275 23.8887 78.8962 25.2662L81.3149 22.8475C79.2629 20.8886 76.5402 19.3895 72.7136 19.3895C65.7957 19.3895 59.9798 25.0211 59.9798 31.939C59.9798 38.8569 65.7957 44.4885 72.7136 44.4885C76.4471 44.4885 79.2648 43.263 81.4669 40.9678C83.7317 38.703 84.4366 35.5186 84.4366 32.9479C84.4366 32.1537 84.3758 31.4184 84.2523 30.8066H72.7136V30.8085ZM158.799 33.4704C158.126 31.6654 156.074 28.3271 151.881 28.3271C147.718 28.3271 144.258 31.6027 144.258 36.4078C144.258 40.9374 147.688 44.4885 152.278 44.4885C155.981 44.4885 158.124 42.2237 159.013 40.907L156.258 39.0697C155.341 40.4168 154.085 41.3041 152.278 41.3041C150.473 41.3041 149.187 40.4776 148.36 38.855L159.166 34.3862L158.799 33.4704ZM147.779 36.1646C147.688 33.041 150.197 31.4507 152.004 31.4507C153.412 31.4507 154.605 32.1556 155.004 33.1645L147.779 36.1646ZM138.995 44.0002H142.544V20.2483H138.995V44.0002ZM133.177 30.134H133.056C132.26 29.184 130.728 28.3271 128.802 28.3271C124.76 28.3271 121.057 31.8782 121.057 36.4401C121.057 40.9697 124.76 44.4904 128.802 44.4904C130.73 44.4904 132.26 43.6335 133.056 42.655H133.177V43.8178C133.177 46.9091 131.524 48.5621 128.862 48.5621C126.689 48.5621 125.342 47.0022 124.791 45.6855L121.699 46.9718C122.587 49.1131 124.943 51.7465 128.862 51.7465C133.025 51.7465 136.546 49.2974 136.546 43.3276V28.8192H133.179V30.134H133.177ZM129.108 41.3079C126.658 41.3079 124.608 39.2559 124.608 36.4401C124.608 33.592 126.658 31.5115 129.108 31.5115C131.524 31.5115 133.422 33.592 133.422 36.4401C133.422 39.2559 131.524 41.3079 129.108 41.3079ZM175.431 20.2483H166.936V44.0002H170.48V35.0018H175.429C179.359 35.0018 183.223 32.1575 183.223 27.626C183.223 23.0945 179.361 20.2483 175.431 20.2483ZM175.523 31.6958H170.48V23.5543H175.523C178.173 23.5543 179.678 25.7488 179.678 27.626C179.678 29.4652 178.173 31.6958 175.523 31.6958ZM197.433 28.2853C194.866 28.2853 192.208 29.4158 191.108 31.9219L194.255 33.2348C194.927 31.9219 196.181 31.4925 197.494 31.4925C199.328 31.4925 201.192 32.5926 201.222 34.5477V34.7928C200.58 34.4261 199.204 33.877 197.525 33.877C194.133 33.877 190.679 35.7409 190.679 39.2236C190.679 42.4023 193.46 44.4486 196.576 44.4486C198.959 44.4486 200.274 43.3789 201.099 42.1249H201.22V43.9584H204.644V34.8517C204.646 30.6375 201.496 28.2853 197.433 28.2853ZM197.004 41.3022C195.845 41.3022 194.224 40.7208 194.224 39.2844C194.224 37.4509 196.242 36.7479 197.984 36.7479C199.541 36.7479 200.276 37.0842 201.222 37.5421C200.946 39.7442 199.052 41.3022 197.004 41.3022ZM217.112 28.804L213.048 39.102H212.926L208.708 28.804H204.889L211.214 43.1965L207.608 51.2031H211.305L221.054 28.804H217.112ZM185.18 44.0002H188.724V20.2483H185.18V44.0002Z" fill="white"/>
    <path d="M72.0943 6.4616C72.0943 8.0538 71.6231 9.3211 70.6788 10.2673C69.6072 11.3921 68.2088 11.9545 66.4912 11.9545C64.8458 11.9545 63.4455 11.3845 62.296 10.2445C61.1446 9.1026 60.5689 7.689 60.5689 6.0018C60.5689 4.3127 61.1446 2.8991 62.296 1.7591C63.4455 0.617198 64.8458 0.0472 66.4912 0.0472C67.3082 0.0472 68.0891 0.206799 68.8301 0.524099C69.573 0.843299 70.1677 1.267 70.6123 1.7971L69.611 2.8003C68.8567 1.8978 67.8174 1.4475 66.4893 1.4475C65.2885 1.4475 64.2511 1.8693 63.3752 2.7129C62.4993 3.5565 62.0623 4.6528 62.0623 5.9999C62.0623 7.347 62.4993 8.4433 63.3752 9.2869C64.2511 10.1305 65.2885 10.5523 66.4893 10.5523C67.7623 10.5523 68.8244 10.1286 69.6737 9.2793C70.2247 8.7264 70.5439 7.9569 70.6294 6.9708H66.4893V5.6009H72.0126C72.0696 5.8992 72.0943 6.1861 72.0943 6.4616Z" fill="white"/>
    <path d="M80.8535 1.70031H75.6627V5.31411H80.3443V6.68401H75.6627V10.2978H80.8535V11.7H74.1978V0.300007H80.8535V1.70031Z" fill="white"/>
    <path d="M87.0302 11.7H85.5653V1.70031H82.3809V0.300007H90.2146V1.70031H87.0302V11.7Z" fill="white"/>
    <path d="M95.8822 11.7V0.300007H97.3471V11.7H95.8822Z" fill="white"/>
    <path d="M103.843 11.7H102.379V1.70031H99.1942V0.300007H107.028V1.70031H103.843V11.7Z" fill="white"/>
    <path d="M121.857 10.2275C120.736 11.3789 119.343 11.9546 117.677 11.9546C116.011 11.9546 114.618 11.3789 113.499 10.2275C112.378 9.07609 111.819 7.66629 111.819 5.99999C111.819 4.33369 112.378 2.92389 113.499 1.77249C114.618 0.621087 116.011 0.0434875 117.677 0.0434875C119.334 0.0434875 120.725 0.622987 121.849 1.78009C122.974 2.93719 123.537 4.34319 123.537 5.99999C123.537 7.66629 122.976 9.07609 121.857 10.2275ZM114.58 9.27179C115.424 10.1268 116.455 10.5524 117.677 10.5524C118.899 10.5524 119.932 10.1249 120.774 9.27179C121.618 8.41679 122.041 7.32619 122.041 5.99999C122.041 4.67379 121.618 3.58319 120.774 2.72819C119.932 1.87319 118.899 1.44759 117.677 1.44759C116.455 1.44759 115.424 1.87509 114.58 2.72819C113.738 3.58319 113.315 4.67379 113.315 5.99999C113.315 7.32619 113.738 8.41679 114.58 9.27179Z" fill="white"/>
    <path d="M125.592 11.7V0.300007H127.375L132.915 9.16731H132.978L132.915 6.97091V0.300007H134.38V11.7H132.85L127.054 2.40141H126.991L127.054 4.5978V11.7H125.592Z" fill="white"/>
    <path fill-rule="evenodd" clip-rule="evenodd" d="M1.29714 2.13628C1.07271 2.64454 0.94873 3.26731 0.94873 3.99171V46.0121C0.94873 46.7381 1.07287 47.3609 1.29756 47.869L24.1621 25.0012L1.29714 2.13628ZM2.6181 49.2355C3.4656 49.5981 4.57112 49.4831 5.77663 48.7994L32.6752 33.5143L25.5056 26.3447L2.6181 49.2355ZM34.3898 32.542L42.8285 27.7474C45.4828 26.2369 45.4828 23.7688 42.8285 22.2602L34.386 17.463L26.849 25.0011L34.3898 32.542ZM32.6727 16.4894L5.77663 1.20632C4.57104 0.521237 3.46545 0.406919 2.61793 0.77006L25.5055 23.6576L32.6727 16.4894Z" fill="white"/>
</svg>
