<svg width="191" height="49" viewBox="0 0 191 49" fill="none" xmlns="http://www.w3.org/2000/svg">
    <path d="M136.899 21.4817V25.8347H134.171V28.6893H136.899V38.3888C136.899 41.7008 138.397 43.0256 142.167 43.0256C142.829 43.0256 143.46 42.9467 144.012 42.8521V40.029C143.539 40.0763 143.239 40.1079 142.719 40.1079C141.031 40.1079 140.29 39.3193 140.29 37.5213V28.6893H144.012V25.8347H140.29V21.4817H136.899Z" fill="white"/>
    <path d="M153.614 43.2622C158.63 43.2622 161.705 39.9028 161.705 34.3355C161.705 28.7997 158.614 25.4246 153.614 25.4246C148.599 25.4246 145.508 28.7997 145.508 34.3355C145.508 39.9028 148.583 43.2622 153.614 43.2622ZM153.614 40.2498C150.665 40.2498 149.009 38.0891 149.009 34.3355C149.009 30.6134 150.665 28.437 153.614 28.437C156.548 28.437 158.22 30.6134 158.22 34.3355C158.22 38.0733 156.548 40.2498 153.614 40.2498Z" fill="white"/>
    <path d="M164.336 42.931H167.727V32.7899C167.727 30.3769 169.541 28.7524 172.112 28.7524C172.711 28.7524 173.72 28.8628 174.004 28.9574V25.6139C173.642 25.5192 172.995 25.4719 172.49 25.4719C170.251 25.4719 168.342 26.7021 167.854 28.3897H167.601V25.7558H164.336V42.931Z" fill="white"/>
    <path d="M182.424 28.3108C184.931 28.3108 186.572 30.0614 186.651 32.7584H177.976C178.166 30.0772 179.916 28.3108 182.424 28.3108ZM186.635 38.2941C186.004 39.6347 184.6 40.376 182.55 40.376C179.837 40.376 178.087 38.4676 177.976 35.4553V35.266H190.105V34.0832C190.105 28.6893 187.218 25.4246 182.44 25.4246C177.598 25.4246 174.522 28.9101 174.522 34.3986C174.522 39.8871 177.535 43.2622 182.455 43.2622C186.382 43.2622 189.127 41.3696 189.9 38.2941H186.635Z" fill="white"/>
    <path d="M114.662 36.5885C114.924 40.8059 118.438 43.5031 123.669 43.5031C129.26 43.5031 132.758 40.6751 132.758 36.1634C132.758 32.6162 130.764 30.6546 125.925 29.5267L123.326 28.8892C120.253 28.1699 119.011 27.2055 119.011 25.5217C119.011 23.3967 120.939 22.0072 123.833 22.0072C126.579 22.0072 128.475 23.364 128.819 25.5381H132.382C132.17 21.5659 128.671 18.7706 123.882 18.7706C118.733 18.7706 115.3 21.5659 115.3 25.7669C115.3 29.2324 117.245 31.2921 121.512 32.2893L124.552 33.0249C127.674 33.7605 129.047 34.8394 129.047 36.6375C129.047 38.7299 126.89 40.2501 123.947 40.2501C120.792 40.2501 118.602 38.8279 118.291 36.5885H114.662Z" fill="white"/>
    <path d="M79.5364 25.4719C77.2022 25.4719 75.1835 26.639 74.1425 28.5947H73.8902V25.7558H70.6255V48.6402H74.0164V40.3287H74.2845C75.1835 42.1424 77.1233 43.2148 79.5679 43.2148C83.9051 43.2148 86.6651 39.7924 86.6651 34.3355C86.6651 28.8786 83.9051 25.4719 79.5364 25.4719ZM78.5743 40.171C75.7355 40.171 73.9533 37.9314 73.9533 34.3513C73.9533 30.7554 75.7355 28.5158 78.5901 28.5158C81.4605 28.5158 83.1796 30.7081 83.1796 34.3355C83.1796 37.9787 81.4605 40.171 78.5743 40.171Z" fill="white"/>
    <path d="M98.5303 25.4719C96.1961 25.4719 94.1774 26.639 93.1364 28.5947H92.8841V25.7558H89.6194V48.6402H93.0103V40.3287H93.2784C94.1774 42.1424 96.1173 43.2148 98.5618 43.2148C102.899 43.2148 105.659 39.7924 105.659 34.3355C105.659 28.8786 102.899 25.4719 98.5303 25.4719ZM97.5682 40.171C94.7294 40.171 92.9472 37.9314 92.9472 34.3513C92.9472 30.7554 94.7294 28.5158 97.584 28.5158C100.454 28.5158 102.174 30.7081 102.174 34.3355C102.174 37.9787 100.454 40.171 97.5682 40.171Z" fill="white"/>
    <path d="M64.5417 42.931H68.4322L59.9156 19.3427H55.976L47.4594 42.931H51.2191L53.3933 36.6702H62.3839L64.5417 42.931ZM57.7578 23.6255H58.0357L61.4522 33.597H54.325L57.7578 23.6255Z" fill="white"/>
    <path d="M49.7371 1.55079V12.9299H53.8456C57.2365 12.9299 59.2 10.8402 59.2 7.20487C59.2 3.62474 57.2207 1.55079 53.8456 1.55079H49.7371ZM51.5035 3.15948H53.6484C56.0063 3.15948 57.4021 4.65778 57.4021 7.22853C57.4021 9.83871 56.0299 11.3212 53.6484 11.3212H51.5035V3.15948Z" fill="white"/>
    <path d="M65.2137 13.0955C67.7213 13.0955 69.2591 11.4159 69.2591 8.63219C69.2591 5.86429 67.7135 4.17675 65.2137 4.17675C62.706 4.17675 61.1604 5.86429 61.1604 8.63219C61.1604 11.4159 62.6981 13.0955 65.2137 13.0955ZM65.2137 11.5893C63.739 11.5893 62.911 10.509 62.911 8.63219C62.911 6.77115 63.739 5.68292 65.2137 5.68292C66.6804 5.68292 67.5163 6.77115 67.5163 8.63219C67.5163 10.5011 66.6804 11.5893 65.2137 11.5893Z" fill="white"/>
    <path d="M82.3541 4.34235H80.6587L79.1289 10.8954H78.9948L77.2284 4.34235H75.6039L73.8375 10.8954H73.7114L72.1736 4.34235H70.4545L72.8203 12.9299H74.563L76.3294 6.60555H76.4635L78.2378 12.9299H79.9963L82.3541 4.34235Z" fill="white"/>
    <path d="M84.3066 12.9299H86.0021V7.9067C86.0021 6.56613 86.7985 5.73024 88.0524 5.73024C89.3062 5.73024 89.9055 6.4163 89.9055 7.7963V12.9299H91.6009V7.37047C91.6009 5.32806 90.5443 4.17675 88.628 4.17675C87.3348 4.17675 86.4831 4.7524 86.0652 5.70658H85.939V4.34235H84.3066V12.9299Z" fill="white"/>
    <path d="M94.2711 12.9299H95.9665V0.990906H94.2711V12.9299Z" fill="white"/>
    <path d="M102.343 13.0955C104.851 13.0955 106.388 11.4159 106.388 8.63219C106.388 5.86429 104.843 4.17675 102.343 4.17675C99.8352 4.17675 98.2896 5.86429 98.2896 8.63219C98.2896 11.4159 99.8274 13.0955 102.343 13.0955ZM102.343 11.5893C100.868 11.5893 100.04 10.509 100.04 8.63219C100.04 6.77115 100.868 5.68292 102.343 5.68292C103.81 5.68292 104.646 6.77115 104.646 8.63219C104.646 10.5011 103.81 11.5893 102.343 11.5893Z" fill="white"/>
    <path d="M111.44 11.6445C110.517 11.6445 109.847 11.1951 109.847 10.4223C109.847 9.66522 110.383 9.26305 111.566 9.18419L113.664 9.05013V9.76774C113.664 10.8323 112.717 11.6445 111.44 11.6445ZM111.006 13.0719C112.134 13.0719 113.072 12.5829 113.585 11.7234H113.719V12.9299H115.351V7.06293C115.351 5.24921 114.137 4.17675 111.984 4.17675C110.036 4.17675 108.648 5.12303 108.475 6.59767H110.115C110.304 5.99047 110.959 5.64349 111.905 5.64349C113.064 5.64349 113.664 6.15607 113.664 7.06293V7.80419L111.337 7.93824C109.295 8.06442 108.144 8.95551 108.144 10.5011C108.144 12.0704 109.35 13.0719 111.006 13.0719Z" fill="white"/>
    <path d="M121.105 13.0719C122.288 13.0719 123.289 12.512 123.802 11.5736H123.936V12.9299H125.56V0.990906H123.865V5.70658H123.738C123.273 4.76029 122.28 4.2004 121.105 4.2004C118.936 4.2004 117.54 5.91949 117.54 8.63219C117.54 11.3528 118.92 13.0719 121.105 13.0719ZM121.586 5.72235C123.005 5.72235 123.896 6.85001 123.896 8.64008C123.896 10.438 123.013 11.5499 121.586 11.5499C120.15 11.5499 119.291 10.4538 119.291 8.63219C119.291 6.82635 120.158 5.72235 121.586 5.72235Z" fill="white"/>
    <path d="M136.554 13.0955C139.062 13.0955 140.6 11.4159 140.6 8.63219C140.6 5.86429 139.054 4.17675 136.554 4.17675C134.047 4.17675 132.501 5.86429 132.501 8.63219C132.501 11.4159 134.039 13.0955 136.554 13.0955ZM136.554 11.5893C135.08 11.5893 134.252 10.509 134.252 8.63219C134.252 6.77115 135.08 5.68292 136.554 5.68292C138.021 5.68292 138.857 6.77115 138.857 8.63219C138.857 10.5011 138.021 11.5893 136.554 11.5893Z" fill="white"/>
    <path d="M142.844 12.9299H144.54V7.9067C144.54 6.56613 145.336 5.73024 146.59 5.73024C147.844 5.73024 148.443 6.4163 148.443 7.7963V12.9299H150.138V7.37047C150.138 5.32806 149.082 4.17675 147.165 4.17675C145.872 4.17675 145.021 4.7524 144.603 5.70658H144.476V4.34235H142.844V12.9299Z" fill="white"/>
    <path d="M157.947 2.20531V4.38177H156.583V5.80909H157.947V10.6588C157.947 12.3148 158.696 12.9772 160.581 12.9772C160.912 12.9772 161.227 12.9378 161.503 12.8905V11.4789C161.267 11.5026 161.117 11.5184 160.857 11.5184C160.013 11.5184 159.642 11.1241 159.642 10.2251V5.80909H161.503V4.38177H159.642V2.20531H157.947Z" fill="white"/>
    <path d="M163.779 12.9299H165.475V7.91459C165.475 6.61344 166.247 5.73812 167.635 5.73812C168.834 5.73812 169.473 6.43207 169.473 7.80419V12.9299H171.168V7.38624C171.168 5.34384 170.04 4.18463 168.211 4.18463C166.918 4.18463 166.011 4.76029 165.593 5.72235H165.459V0.990906H163.779V12.9299Z" fill="white"/>
    <path d="M177.284 5.61984C178.538 5.61984 179.358 6.49515 179.398 7.84362H175.06C175.155 6.50304 176.03 5.61984 177.284 5.61984ZM179.39 10.6115C179.074 11.2818 178.372 11.6524 177.347 11.6524C175.991 11.6524 175.116 10.6983 175.06 9.19208V9.09745H181.125V8.50602C181.125 5.80909 179.682 4.17675 177.292 4.17675C174.871 4.17675 173.334 5.91949 173.334 8.66373C173.334 11.408 174.84 13.0955 177.3 13.0955C179.264 13.0955 180.636 12.1492 181.022 10.6115H179.39Z" fill="white"/>
    <path d="M29.0611 23.5716C29.1022 20.3777 30.8175 17.3555 33.5386 15.6826C31.822 13.231 28.9467 11.6766 25.9554 11.5831C22.7648 11.2482 19.6717 13.4922 18.0458 13.4922C16.3885 13.4922 13.8853 11.6163 11.1897 11.6718C7.67611 11.7853 4.40057 13.7829 2.69114 16.8547C-0.983456 23.2167 1.75746 32.5667 5.27742 37.7093C7.03853 40.2274 9.09677 43.0403 11.7899 42.9405C14.4253 42.8312 15.4096 41.26 18.5908 41.26C21.7424 41.26 22.6659 42.9405 25.4137 42.8771C28.2416 42.8312 30.0233 40.3478 31.7227 37.8058C32.988 36.0115 33.9617 34.0284 34.6076 31.93C31.2843 30.5244 29.065 27.1799 29.0611 23.5716Z" fill="white"/>
    <path d="M23.8709 8.20106C25.4128 6.35006 26.1725 3.97092 25.9885 1.56888C23.6328 1.8163 21.4568 2.94216 19.8941 4.72214C18.366 6.46127 17.5707 8.79855 17.7211 11.1088C20.0776 11.133 22.3943 10.0377 23.8709 8.20106Z" fill="white"/>
</svg>
