<svg width="423" height="297" viewBox="0 0 423 297" fill="none" xmlns="http://www.w3.org/2000/svg">
    <g clip-path="url(#clip0)">
        <line y1="15.2129" x2="423" y2="15.2129" stroke="#909090" stroke-opacity="0.05" stroke-width="0.742105"/>
        <line y1="33.7657" x2="423" y2="33.7657" stroke="#909090" stroke-opacity="0.05" stroke-width="0.742105"/>
        <line y1="52.3184" x2="423" y2="52.3184" stroke="#909090" stroke-opacity="0.05" stroke-width="0.742105"/>
        <line y1="70.8711" x2="423" y2="70.8711" stroke="#909090" stroke-opacity="0.05" stroke-width="0.742105"/>
        <line y1="89.4239" x2="423" y2="89.4239" stroke="#909090" stroke-opacity="0.05" stroke-width="0.742105"/>
        <line y1="107.977" x2="423" y2="107.977" stroke="#909090" stroke-opacity="0.05" stroke-width="0.742105"/>
        <line y1="126.53" x2="423" y2="126.53" stroke="#909090" stroke-opacity="0.05" stroke-width="0.742105"/>
        <line y1="145.083" x2="423" y2="145.083" stroke="#909090" stroke-opacity="0.05" stroke-width="0.742105"/>
        <line y1="163.636" x2="423" y2="163.636" stroke="#909090" stroke-opacity="0.05" stroke-width="0.742105"/>
        <line y1="182.189" x2="423" y2="182.189" stroke="#909090" stroke-opacity="0.05" stroke-width="0.742105"/>
        <line y1="200.738" x2="423" y2="200.738" stroke="#909090" stroke-opacity="0.05" stroke-width="0.742105"/>
        <line y1="219.292" x2="423" y2="219.292" stroke="#909090" stroke-opacity="0.05" stroke-width="0.742105"/>
        <line y1="237.845" x2="423" y2="237.845" stroke="#909090" stroke-opacity="0.05" stroke-width="0.742105"/>
        <line y1="256.398" x2="423" y2="256.397" stroke="#909090" stroke-opacity="0.05" stroke-width="0.742105"/>
        <line y1="274.95" x2="423" y2="274.95" stroke="#909090" stroke-opacity="0.05" stroke-width="0.742105"/>
        <line y1="293.503" x2="423" y2="293.503" stroke="#909090" stroke-opacity="0.05" stroke-width="0.742105"/>
        <line x1="297.955" y1="-56.4019" x2="297.955" y2="366.598" stroke="#909090" stroke-opacity="0.05" stroke-width="0.742105"/>
        <line x1="279.402" y1="-56.4019" x2="279.402" y2="366.598" stroke="#909090" stroke-opacity="0.05" stroke-width="0.742105"/>
        <line x1="260.85" y1="-56.4019" x2="260.85" y2="366.598" stroke="#909090" stroke-opacity="0.05" stroke-width="0.742105"/>
        <line x1="242.297" y1="-56.4019" x2="242.297" y2="366.598" stroke="#909090" stroke-opacity="0.05" stroke-width="0.742105"/>
        <line x1="223.744" y1="-56.4019" x2="223.744" y2="366.598" stroke="#909090" stroke-opacity="0.05" stroke-width="0.742105"/>
        <line x1="205.191" y1="-56.4019" x2="205.191" y2="366.598" stroke="#909090" stroke-opacity="0.05" stroke-width="0.742105"/>
        <line x1="186.639" y1="-56.4019" x2="186.639" y2="366.598" stroke="#909090" stroke-opacity="0.05" stroke-width="0.742105"/>
        <line x1="168.086" y1="-56.4019" x2="168.086" y2="366.598" stroke="#909090" stroke-opacity="0.05" stroke-width="0.742105"/>
        <line x1="149.533" y1="-56.4019" x2="149.533" y2="366.598" stroke="#909090" stroke-opacity="0.05" stroke-width="0.742105"/>
        <line x1="130.98" y1="-56.4019" x2="130.98" y2="366.598" stroke="#909090" stroke-opacity="0.05" stroke-width="0.742105"/>
        <line x1="112.426" y1="-56.4019" x2="112.426" y2="366.598" stroke="#909090" stroke-opacity="0.05" stroke-width="0.742105"/>
        <line x1="93.8769" y1="-56.4019" x2="93.8769" y2="366.598" stroke="#909090" stroke-opacity="0.05" stroke-width="0.742105"/>
        <line x1="75.3242" y1="-56.4019" x2="75.3242" y2="366.598" stroke="#909090" stroke-opacity="0.05" stroke-width="0.742105"/>
        <line x1="56.7714" y1="-56.4019" x2="56.7714" y2="366.598" stroke="#909090" stroke-opacity="0.05" stroke-width="0.742105"/>
        <line x1="38.2168" y1="-56.4019" x2="38.2167" y2="366.598" stroke="#909090" stroke-opacity="0.05" stroke-width="0.742105"/>
        <line x1="19.664" y1="-56.4019" x2="19.664" y2="366.598" stroke="#909090" stroke-opacity="0.05" stroke-width="0.742105"/>
        <line x1="409.271" y1="-56.4019" x2="409.271" y2="366.598" stroke="#909090" stroke-opacity="0.05" stroke-width="0.742105"/>
        <line x1="390.719" y1="-56.4019" x2="390.719" y2="366.598" stroke="#909090" stroke-opacity="0.05" stroke-width="0.742105"/>
        <line x1="372.166" y1="-56.4019" x2="372.166" y2="366.598" stroke="#909090" stroke-opacity="0.05" stroke-width="0.742105"/>
        <line x1="353.613" y1="-56.4019" x2="353.613" y2="366.598" stroke="#909090" stroke-opacity="0.05" stroke-width="0.742105"/>
        <line x1="335.059" y1="-56.4019" x2="335.059" y2="366.598" stroke="#909090" stroke-opacity="0.05" stroke-width="0.742105"/>
        <line x1="316.51" y1="-56.4019" x2="316.51" y2="366.598" stroke="#909090" stroke-opacity="0.05" stroke-width="0.742105"/>
        <path d="M-40.0127 238.74C-102.241 209.996 -143.161 212.301 -155.842 217.047V337.657H671.606V215.691C615.899 217.386 592.122 180.1 557.815 135.017C523.507 89.9352 482.407 30.6166 435.192 26.888C387.977 23.1594 353.33 80.4443 312.569 139.085C271.809 197.726 219.159 148.576 156.999 209.59C94.8381 270.603 37.7727 274.671 -40.0127 238.74Z" fill="url(#paint0_linear)" fill-opacity="0.5" stroke="url(#paint1_linear)" stroke-width="2.22632"/>
        <line x1="384.781" y1="51.2046" x2="384.781" y2="517.989" stroke="url(#paint2_linear)" stroke-width="0.742105" stroke-dasharray="0.74 0.74"/>
        <circle cx="384.409" cy="47.4948" r="7.42105" fill="#407BFF"/>
        <circle cx="384.41" cy="47.4942" r="3.71053" fill="#111111"/>
        <line x1="283.855" y1="166.233" x2="283.855" y2="633.018" stroke="url(#paint3_linear)" stroke-width="0.742105" stroke-dasharray="0.74 0.74"/>
        <circle cx="283.486" cy="162.523" r="7.42105" fill="#407BFF"/>
        <circle cx="283.486" cy="162.522" r="3.71053" fill="#111111"/>
        <line x1="123.559" y1="241.184" x2="123.559" y2="707.968" stroke="url(#paint4_linear)" stroke-width="0.742105" stroke-dasharray="0.74 0.74"/>
        <circle cx="123.189" cy="237.474" r="7.42105" fill="#407BFF"/>
        <circle cx="123.189" cy="237.473" r="3.71053" fill="#111111"/>
        <line x1="15.955" y1="264.188" x2="15.955" y2="730.973" stroke="url(#paint5_linear)" stroke-width="0.742105" stroke-dasharray="0.74 0.74"/>
        <circle cx="15.5851" cy="260.479" r="7.42105" fill="#407BFF"/>
        <circle cx="15.5836" cy="260.478" r="3.71053" fill="#111111"/>
    </g>
    <defs>
        <linearGradient id="paint0_linear" x1="404.795" y1="34.7943" x2="404.795" y2="306.721" gradientUnits="userSpaceOnUse">
            <stop stop-color="#407BFF" stop-opacity="0.61"/>
            <stop offset="1" stop-color="#407BFF" stop-opacity="0"/>
        </linearGradient>
        <linearGradient id="paint1_linear" x1="514.438" y1="142.58" x2="3.34586" y2="273.213" gradientUnits="userSpaceOnUse">
            <stop stop-color="#407BFF"/>
            <stop offset="1" stop-color="#407BFF"/>
        </linearGradient>
        <linearGradient id="paint2_linear" x1="384.41" y1="517.989" x2="384.41" y2="108.897" gradientUnits="userSpaceOnUse">
            <stop stop-color="#407BFF" stop-opacity="0"/>
            <stop offset="1" stop-color="#407BFF"/>
        </linearGradient>
        <linearGradient id="paint3_linear" x1="283.484" y1="633.018" x2="283.484" y2="223.926" gradientUnits="userSpaceOnUse">
            <stop stop-color="#407BFF" stop-opacity="0"/>
            <stop offset="1" stop-color="#407BFF"/>
        </linearGradient>
        <linearGradient id="paint4_linear" x1="123.187" y1="707.968" x2="123.187" y2="298.876" gradientUnits="userSpaceOnUse">
            <stop stop-color="#407BFF" stop-opacity="0"/>
            <stop offset="1" stop-color="#407BFF"/>
        </linearGradient>
        <linearGradient id="paint5_linear" x1="15.584" y1="730.973" x2="15.584" y2="321.881" gradientUnits="userSpaceOnUse">
            <stop stop-color="#407BFF" stop-opacity="0"/>
            <stop offset="1" stop-color="#407BFF"/>
        </linearGradient>
        <clipPath id="clip0">
            <rect width="423" height="296.842" rx="3.71053" fill="white"/>
        </clipPath>
    </defs>
</svg>
