<svg width="365" height="170" viewBox="0 0 365 170" fill="none" xmlns="http://www.w3.org/2000/svg">
    <path opacity="0.2" d="M1.20779 138.388C-3.67532 142.279 -8.96537 159.463 -11 167.568V170H365V1C361.338 2.21583 358.896 30.1798 356.455 32.6114C354.013 35.0431 349.13 18.0215 344.247 19.2373C339.364 20.4532 332.039 37.4747 324.714 41.1222C317.39 44.7697 310.065 38.6906 306.403 38.6906C302.74 38.6906 302.74 44.7697 295.416 48.4172C288.091 52.0647 284.429 45.9855 278.325 49.633C272.221 53.2805 262.455 54.4963 257.571 54.4963C252.688 54.4963 252.711 48.4719 248.649 48.4719C244.251 48.4719 238.039 56.9279 231.935 56.9279C225.831 56.9279 223.39 54.4963 216.065 54.4963C208.74 54.4963 202.636 61.7912 196.532 65.4387C190.429 69.0862 178.221 63.007 173.338 61.7912C168.455 60.5754 158.688 75.1653 156.247 75.1653C153.805 75.1653 155.839 80.9532 149.735 85.8165C143.631 90.6798 137.863 77.597 134.201 75.1653C130.538 72.7337 130.713 75.1653 128.169 80.0286C125.343 85.4296 122.065 86.1078 117.182 88.5394C112.299 90.9711 108.85 76.3882 100.912 70.309C94.0637 65.0642 91.4013 80.0286 86.0118 87.3989C83.1394 91.3269 83 100.698 78.1169 100.698C73.2338 100.698 74.4545 98.2659 69.5714 97.0501C65.6649 96.0774 62.2467 101.508 61.026 104.345C55.7359 103.534 47.4225 103.612 45.1558 106.777C42.2614 110.818 32.9481 134.741 28.0649 138.388C23.1818 142.036 15.8571 128.662 12.1948 126.23C8.53247 123.798 7.31169 133.525 1.20779 138.388Z" fill="url(#paint0_linear)" stroke="#2CE378"/>
    <defs>
        <linearGradient id="paint0_linear" x1="176.683" y1="43.4082" x2="176.999" y2="170" gradientUnits="userSpaceOnUse">
            <stop stop-color="#2CE377" stop-opacity="0.36"/>
            <stop offset="0.950958" stop-color="#2CE378" stop-opacity="0"/>
        </linearGradient>
    </defs>
</svg>
