<svg width="365" height="187" viewBox="0 0 365 187" fill="none" xmlns="http://www.w3.org/2000/svg">
    <g opacity="0.5">
        <path opacity="0.5" d="M393.308 152.208C398.668 156.49 404.474 175.403 406.708 184.323V187H-5.99954V1C-1.97968 2.33813 0.700256 33.115 3.38019 35.7913C6.06009 38.4675 11.42 19.7337 16.7798 21.0719C22.1396 22.41 30.1794 41.1438 38.2191 45.1582C46.2589 49.1726 54.2986 42.4819 58.3185 42.4819C62.3383 42.4819 62.3383 49.1726 70.3781 53.187C78.4178 57.2014 82.4377 50.5107 89.1375 54.5251C95.8373 58.5395 106.557 59.8775 111.917 59.8775C117.277 59.8775 117.252 53.2472 121.71 53.2472C126.538 53.2472 133.356 62.5538 140.056 62.5538C146.756 62.5538 149.436 59.8775 157.475 59.8775C165.515 59.8775 172.215 67.9063 178.915 71.9207C185.614 75.9351 199.014 69.2444 204.374 67.9063C209.734 66.5682 220.453 82.6257 223.133 82.6257C225.813 82.6257 223.581 88.9958 230.28 94.3483C236.98 99.7008 243.312 85.302 247.332 82.6257C251.351 79.9495 251.159 82.6257 253.952 87.9782C257.054 93.9225 260.652 94.6689 266.012 97.3452C271.372 100.021 275.157 83.9716 283.87 77.2809C291.387 71.5085 294.309 87.9783 300.225 96.0899C303.378 100.413 303.531 110.726 308.891 110.726C314.25 110.726 312.91 108.05 318.27 106.712C322.558 105.641 326.31 111.618 327.65 114.741C333.456 113.849 342.582 113.934 345.069 117.417C348.246 121.865 358.469 148.194 363.829 152.208C369.189 156.223 377.228 141.503 381.248 138.827C385.268 136.151 386.608 146.856 393.308 152.208Z" fill="url(#paint0_linear)"/>
        <path opacity="0.5" d="M393.308 152.208C386.608 146.856 385.268 136.151 381.248 138.827C377.228 141.503 369.188 156.223 363.829 152.208C358.469 148.194 348.246 121.865 345.069 117.417C342.581 113.934 333.456 113.849 327.65 114.741C326.31 111.618 322.558 105.641 318.27 106.712C312.91 108.05 314.25 110.726 308.89 110.726C303.53 110.726 303.377 100.413 300.225 96.0899C294.309 87.9783 291.387 71.5085 283.869 77.2809C275.156 83.9716 271.371 100.021 266.012 97.3452C260.652 94.6689 257.054 93.9225 253.952 87.9782C251.159 82.6257 251.351 79.9495 247.331 82.6257C243.311 85.302 236.98 99.7008 230.28 94.3483C223.58 88.9958 225.813 82.6257 223.133 82.6257C220.453 82.6257 209.733 66.5682 204.374 67.9063C199.014 69.2444 185.614 75.9351 178.914 71.9207C172.215 67.9063 165.515 59.8775 157.475 59.8775C149.435 59.8775 146.755 62.5538 140.056 62.5538C133.356 62.5538 126.537 53.2472 121.71 53.2472C117.251 53.2472 117.276 59.8775 111.916 59.8775C106.557 59.8775 95.8369 58.5395 89.1371 54.5251C82.4374 50.5107 78.4175 57.2014 70.3777 53.187C62.338 49.1726 62.338 42.4819 58.3181 42.4819C54.2982 42.4819 46.2585 49.1726 38.2188 45.1582C30.179 41.1438 22.1393 22.41 16.7794 21.0719C11.4196 19.7337 6.05975 38.4675 3.37983 35.7913C0.699916 33.115 -1.98001 2.33813 -5.99989 1" stroke="#FA5054"/>
    </g>
    <defs>
        <linearGradient id="paint0_linear" x1="200.702" y1="47.6742" x2="200.353" y2="187" gradientUnits="userSpaceOnUse">
            <stop stop-color="#FA5054" stop-opacity="0.36"/>
            <stop offset="0.950958" stop-color="#FA5054" stop-opacity="0"/>
        </linearGradient>
    </defs>
</svg>
