<svg width="100" height="96" viewBox="0 0 100 96" fill="none" xmlns="http://www.w3.org/2000/svg">
    <path d="M85.2574 62.8922C88.3592 55.4932 89.0732 47.3042 87.299 39.4766C85.5249 31.649 81.3518 24.5765 75.3665 19.2534C69.3813 13.9303 61.8848 10.6243 53.9311 9.80024C45.9773 8.97618 37.9664 10.6755 31.0244 14.6592L26.2823 6.32285C33.5371 2.16 41.7524 -0.0200717 50.1085 0.000139259C58.4646 0.0203502 66.6694 2.24014 73.9041 6.43803C95.3679 18.8778 103.59 45.514 93.5848 67.7251L100 71.4398L80.0899 82.0655L79.3011 59.4415L85.2574 62.8922ZM14.7474 33.1078C11.6456 40.5068 10.9316 48.6958 12.7058 56.5234C14.4799 64.351 18.653 71.4235 24.6382 76.7466C30.6235 82.0697 38.12 85.3757 46.0737 86.1998C54.0275 87.0238 62.0384 85.3245 68.9804 81.3408L73.7225 89.6772C66.4677 93.84 58.2524 96.0201 49.8963 95.9999C41.5402 95.9797 33.3354 93.7599 26.1007 89.562C4.63693 77.1222 -3.58526 50.486 6.42 28.2749L0 24.565L19.9101 13.9393L20.6989 36.5633L14.7426 33.1126L14.7474 33.1078ZM56.7666 61.5724L43.2334 48L29.7146 61.5724L22.9552 54.7862L43.2382 34.4276L56.7618 48L70.2854 34.4276L77.0448 41.2138L56.7618 61.5724H56.7666Z" fill="#F1F1F1"/>
</svg>
