<svg width="182" height="182" viewBox="0 0 182 182" fill="none" xmlns="http://www.w3.org/2000/svg">
    <path d="M22.2953 70.7097C11.0864 108.657 32.7622 148.506 70.7096 159.715C108.657 170.924 148.506 149.248 159.715 111.301C170.924 73.3533 149.248 33.5043 111.301 22.2955C73.3532 11.0866 33.5042 32.7624 22.2953 70.7097Z" stroke="#D9D9D9" stroke-width="2" stroke-miterlimit="10" stroke-linecap="round" stroke-linejoin="round"/>
    <path d="M68.4564 22.9821C70.0329 22.467 71.6279 21.9965 73.263 21.5723C111.608 11.7823 150.613 34.9527 160.403 73.298C170.193 111.643 147.023 150.648 108.678 160.438C70.3324 170.228 31.3273 147.058 21.5373 108.713C17.3462 92.2576 19.2135 75.6755 25.7325 61.3367" stroke="url(#paint0_linear)" stroke-width="4" stroke-miterlimit="10" stroke-linecap="round" stroke-linejoin="round"/>
    <path d="M60.4381 34.2632C29.1051 51.1215 17.3711 90.1884 34.2294 121.521C51.0878 152.854 90.1547 164.588 121.488 147.73C152.821 130.872 164.555 91.8049 147.696 60.4718C130.838 29.1388 91.7711 17.4048 60.4381 34.2632Z" stroke="#D9D9D9" stroke-miterlimit="10" stroke-linecap="round" stroke-linejoin="round"/>
    <path d="M75.0567 28.5748C109.536 19.7853 144.613 40.5913 153.424 75.0716C162.214 109.55 141.408 144.628 106.927 153.439" stroke="url(#paint1_linear)" stroke-width="4" stroke-miterlimit="10" stroke-linecap="round" stroke-linejoin="round"/>
    <path d="M148.577 93.4584C149.93 61.6576 125.246 34.7816 93.4457 33.4292C61.6449 32.0768 34.7689 56.7601 33.4165 88.5609C32.0641 120.362 56.7474 147.238 88.5482 148.59C120.349 149.942 147.225 125.259 148.577 93.4584Z" stroke="#D9D9D9" stroke-width="0.5" stroke-miterlimit="10" stroke-linecap="round" stroke-linejoin="round"/>
    <path fill-rule="evenodd" clip-rule="evenodd" d="M116.369 84.8304C116.861 84.8309 117.341 84.6777 117.742 84.3924C118.142 84.107 118.444 83.7038 118.603 83.2391C118.763 82.7744 118.773 82.2714 118.632 81.8007C118.491 81.33 118.207 80.9149 117.818 80.6137L96.5761 64.1238C96.1618 63.8021 95.6518 63.6274 95.1269 63.6274C94.602 63.6274 94.0921 63.8021 93.6778 64.1238L72.4361 80.6137C72.0472 80.9149 71.7624 81.33 71.6216 81.8007C71.4808 82.2714 71.4909 82.7744 71.6506 83.2391C71.8103 83.7038 72.1116 84.107 72.5123 84.3924C72.913 84.6777 73.393 84.8309 73.8852 84.8304L83.3024 84.8304C83.038 97.5018 80.6283 103.589 78.0085 106.647C75.5185 109.554 72.5895 110.086 69.5212 110.64L68.7306 110.783C68.1648 110.889 67.6572 111.197 67.3034 111.65C66.9495 112.104 66.7737 112.67 66.8091 113.244C66.8445 113.817 67.0886 114.358 67.4955 114.764C67.9024 115.17 68.444 115.414 69.0185 115.45C75.5043 115.853 84.9026 115.247 92.7644 110.675C100.395 106.237 106.262 98.2438 106.876 84.8304L116.369 84.8304Z" fill="#5D5FEF"/>
    <path d="M107.173 145.564C76.5831 154.329 44.6722 136.651 35.8864 106.061C27.1222 75.4711 44.7998 43.5602 75.3902 34.7745" stroke="url(#paint2_linear)" stroke-width="5.5" stroke-miterlimit="10" stroke-linecap="round" stroke-linejoin="round"/>
    <defs>
        <linearGradient id="paint0_linear" x1="164.634" y1="96.3092" x2="17.3445" y2="85.6933" gradientUnits="userSpaceOnUse">
            <stop stop-color="#5D5FEF"/>
            <stop offset="1" stop-color="#359FAF"/>
        </linearGradient>
        <linearGradient id="paint1_linear" x1="156.468" y1="94.0544" x2="69.7087" y2="87.8013" gradientUnits="userSpaceOnUse">
            <stop stop-color="#5D5FEF"/>
            <stop offset="1" stop-color="#359FAF"/>
        </linearGradient>
        <linearGradient id="paint2_linear" x1="69.1333" y1="147.471" x2="73.9512" y2="34.1797" gradientUnits="userSpaceOnUse">
            <stop stop-color="#5D5FEF"/>
            <stop offset="1" stop-color="#359FAF"/>
        </linearGradient>
    </defs>
</svg>
