<svg width="569" height="257" viewBox="0 0 569 257" fill="none" xmlns="http://www.w3.org/2000/svg">
    <rect width="568.426" height="256.885" rx="8.19845" fill="#191E2C"/>
    <path d="M67.6372 67.5529V72.5266H46.9006V45.745H67.1399V50.7187H53.0604V56.5342H65.4947V61.3549H53.0604V67.5529H67.6372ZM83.7023 72.9857C79.8764 72.9857 76.8921 71.9272 74.7496 69.8102C72.6326 67.6932 71.5741 64.6707 71.5741 60.7427V45.745H77.7721V60.5131C77.7721 65.3083 79.7616 67.7059 83.7406 67.7059C85.6791 67.7059 87.1584 67.132 88.1787 65.9842C89.1989 64.811 89.7091 62.9873 89.7091 60.5131V45.745H95.8306V60.7427C95.8306 64.6707 94.7593 67.6932 92.6168 69.8102C90.4998 71.9272 87.5283 72.9857 83.7023 72.9857ZM118.254 72.5266L113.089 65.066H112.783H107.388V72.5266H101.19V45.745H112.783C115.155 45.745 117.208 46.1404 118.943 46.931C120.702 47.7217 122.054 48.844 122.998 50.2979C123.942 51.7517 124.414 53.4734 124.414 55.4629C124.414 57.4524 123.929 59.1741 122.96 60.6279C122.016 62.0563 120.664 63.153 118.904 63.9182L124.911 72.5266H118.254ZM118.139 55.4629C118.139 53.958 117.654 52.8102 116.685 52.0196C115.716 51.2034 114.3 50.7953 112.438 50.7953H107.388V60.1306H112.438C114.3 60.1306 115.716 59.7225 116.685 58.9063C117.654 58.09 118.139 56.9423 118.139 55.4629ZM140.458 72.9857C136.632 72.9857 133.648 71.9272 131.505 69.8102C129.388 67.6932 128.33 64.6707 128.33 60.7427V45.745H134.528V60.5131C134.528 65.3083 136.517 67.7059 140.496 67.7059C142.435 67.7059 143.914 67.132 144.934 65.9842C145.954 64.811 146.465 62.9873 146.465 60.5131V45.745H152.586V60.7427C152.586 64.6707 151.515 67.6932 149.372 69.8102C147.255 71.9272 144.284 72.9857 140.458 72.9857ZM166.745 72.9857C164.628 72.9857 162.575 72.7052 160.586 72.144C158.622 71.5574 157.04 70.8049 155.841 69.8867L157.946 65.2191C159.093 66.0608 160.458 66.7367 162.039 67.2468C163.621 67.7569 165.202 68.012 166.784 68.012C168.544 68.012 169.844 67.7569 170.686 67.2468C171.528 66.7112 171.949 66.0098 171.949 65.1425C171.949 64.5049 171.694 63.982 171.183 63.5739C170.699 63.1403 170.061 62.796 169.27 62.5409C168.505 62.2858 167.46 62.0053 166.133 61.6992C164.093 61.2146 162.422 60.73 161.121 60.2453C159.82 59.7607 158.698 58.9828 157.754 57.9115C156.836 56.8402 156.377 55.4119 156.377 53.6264C156.377 52.0706 156.798 50.6677 157.64 49.4179C158.481 48.1426 159.744 47.1351 161.427 46.3954C163.136 45.6557 165.215 45.2859 167.664 45.2859C169.372 45.2859 171.043 45.4899 172.676 45.898C174.308 46.3061 175.736 46.8928 176.961 47.658L175.048 52.3639C172.574 50.961 170.099 50.2596 167.625 50.2596C165.891 50.2596 164.603 50.5402 163.761 51.1013C162.945 51.6625 162.537 52.4021 162.537 53.3204C162.537 54.2386 163.009 54.9273 163.952 55.3864C164.922 55.82 166.388 56.2536 168.352 56.6872C170.393 57.1718 172.063 57.6564 173.364 58.1411C174.665 58.6257 175.775 59.3909 176.693 60.4366C177.637 61.4824 178.108 62.898 178.108 64.6834C178.108 66.2138 177.675 67.6166 176.808 68.892C175.966 70.1418 174.691 71.1365 172.982 71.8762C171.273 72.6159 169.194 72.9857 166.745 72.9857ZM181.578 45.745H193.745C196.653 45.745 199.216 46.3061 201.435 47.4284C203.68 48.5252 205.414 50.0811 206.638 52.0961C207.888 54.1111 208.513 56.4576 208.513 59.1358C208.513 61.814 207.888 64.1605 206.638 66.1755C205.414 68.1905 203.68 69.7592 201.435 70.8815C199.216 71.9782 196.653 72.5266 193.745 72.5266H181.578V45.745ZM193.439 67.4381C196.117 67.4381 198.247 66.6984 199.828 65.2191C201.435 63.7142 202.238 61.6864 202.238 59.1358C202.238 56.5852 201.435 54.5702 199.828 53.0908C198.247 51.5859 196.117 50.8335 193.439 50.8335H187.776V67.4381H193.439Z" fill="white"/>
    <path d="M562.963 248.686C562.963 250.196 561.739 251.419 560.23 251.419L478.182 251.419C476.672 251.419 475.449 250.196 475.449 248.686C475.449 247.177 476.672 245.953 478.182 245.953L560.23 245.953C561.739 245.953 562.963 247.177 562.963 248.686Z" fill="#D5CE41"/>
    <path d="M468.966 248.686C468.966 250.196 467.742 251.419 466.233 251.419L384.185 251.419C382.675 251.419 381.452 250.196 381.452 248.686C381.452 247.177 382.675 245.953 384.185 245.953L466.233 245.953C467.742 245.953 468.966 247.177 468.966 248.686Z" fill="#D5CE41"/>
    <rect x="374.969" y="251.419" width="87.5141" height="5.46562" rx="2.73281" transform="rotate(180 374.969 251.419)" fill="#D5CE41"/>
    <rect x="280.971" y="251.419" width="87.5141" height="5.46562" rx="2.73281" transform="rotate(180 280.971 251.419)" fill="#D5CE41"/>
    <rect x="186.976" y="251.419" width="87.5141" height="5.46562" rx="2.73281" transform="rotate(180 186.976 251.419)" fill="#D64730"/>
    <path d="M92.98 248.686C92.98 250.196 91.7565 251.419 90.2472 251.419L8.19867 251.419C6.68938 251.419 5.46586 250.196 5.46586 248.686C5.46586 247.177 6.68938 245.953 8.19867 245.953L90.2472 245.953C91.7565 245.953 92.98 247.177 92.98 248.686Z" fill="#D64730"/>
    <path d="M418.115 126.394C420.738 127.225 422.793 128.624 424.28 130.592C425.767 132.516 426.51 134.899 426.51 137.741C426.51 141.764 424.936 144.868 421.788 147.054C418.683 149.197 414.136 150.268 408.145 150.268H384.403V104.357H406.834C412.431 104.357 416.716 105.428 419.689 107.571C422.706 109.713 424.214 112.621 424.214 116.294C424.214 118.524 423.668 120.513 422.575 122.262C421.525 124.011 420.039 125.388 418.115 126.394ZM394.962 112.358V123.18H405.522C408.145 123.18 410.135 122.721 411.49 121.803C412.846 120.885 413.524 119.529 413.524 117.737C413.524 115.944 412.846 114.61 411.49 113.736C410.135 112.818 408.145 112.358 405.522 112.358H394.962ZM407.358 142.266C410.157 142.266 412.256 141.807 413.655 140.889C415.098 139.971 415.819 138.55 415.819 136.626C415.819 132.822 412.999 130.92 407.358 130.92H394.962V142.266H407.358ZM454.952 151.055C448.393 151.055 443.277 149.241 439.604 145.611C435.975 141.982 434.161 136.801 434.161 130.067V104.357H444.786V129.674C444.786 137.894 448.196 142.004 455.018 142.004C458.341 142.004 460.877 141.02 462.626 139.053C464.375 137.041 465.249 133.915 465.249 129.674V104.357H475.743V130.067C475.743 136.801 473.907 141.982 470.234 145.611C466.605 149.241 461.511 151.055 454.952 151.055ZM507.64 134.002V150.268H497.015V133.871L479.24 104.357H490.521L502.786 124.754L515.051 104.357H525.48L507.64 134.002Z" fill="#C0FFCC" fill-opacity="0.89"/>
    <path opacity="0.5" d="M109.712 189.59V210.633H105.804V192.867H101.355V189.59H109.712ZM121.161 189.59V210.633H117.253V192.867H112.804V189.59H121.161ZM127.68 199.39C126.998 199.39 126.417 199.16 125.936 198.699C125.455 198.218 125.215 197.617 125.215 196.895C125.215 196.154 125.445 195.553 125.906 195.092C126.387 194.631 126.978 194.4 127.68 194.4C128.381 194.4 128.962 194.631 129.423 195.092C129.904 195.553 130.145 196.154 130.145 196.895C130.145 197.617 129.904 198.218 129.423 198.699C128.942 199.16 128.361 199.39 127.68 199.39ZM127.68 210.844C126.998 210.844 126.417 210.613 125.936 210.152C125.455 209.671 125.215 209.07 125.215 208.349C125.215 207.607 125.445 207.006 125.906 206.545C126.387 206.084 126.978 205.853 127.68 205.853C128.381 205.853 128.962 206.084 129.423 206.545C129.904 207.006 130.145 207.607 130.145 208.349C130.145 209.07 129.904 209.671 129.423 210.152C128.942 210.613 128.361 210.844 127.68 210.844ZM139.257 197.737C142.223 197.737 144.418 198.318 145.841 199.481C147.264 200.623 147.975 202.186 147.975 204.17C147.975 205.433 147.664 206.575 147.043 207.597C146.422 208.619 145.49 209.431 144.248 210.032C143.005 210.633 141.472 210.934 139.648 210.934C138.145 210.934 136.692 210.723 135.289 210.303C133.887 209.862 132.704 209.26 131.742 208.499L133.396 205.463C134.177 206.104 135.109 206.615 136.191 206.996C137.293 207.357 138.426 207.537 139.588 207.537C140.971 207.537 142.053 207.256 142.835 206.695C143.636 206.114 144.037 205.322 144.037 204.32C144.037 203.238 143.606 202.427 142.744 201.885C141.903 201.324 140.45 201.044 138.386 201.044H133.305L134.388 189.59H146.743V192.867H137.694L137.243 197.737H139.257ZM159.041 198.278C160.985 198.519 162.468 199.18 163.49 200.262C164.512 201.344 165.023 202.697 165.023 204.32C165.023 205.543 164.712 206.655 164.091 207.657C163.47 208.659 162.528 209.461 161.265 210.062C160.023 210.643 158.5 210.934 156.696 210.934C155.193 210.934 153.74 210.723 152.337 210.303C150.954 209.862 149.772 209.26 148.79 208.499L150.473 205.463C151.235 206.104 152.157 206.615 153.239 206.996C154.341 207.357 155.473 207.537 156.636 207.537C158.019 207.537 159.101 207.256 159.882 206.695C160.684 206.114 161.085 205.332 161.085 204.35C161.085 203.368 160.704 202.607 159.942 202.066C159.201 201.505 158.059 201.224 156.515 201.224H154.592V198.549L159.371 192.867H149.812V189.59H164.151V192.206L159.041 198.278Z" fill="white"/>
    <g opacity="0.5">
        <path fill-rule="evenodd" clip-rule="evenodd" d="M68.3026 181.277C58.2458 181.277 50.1021 189.439 50.1021 199.496C50.1021 209.552 58.2458 217.714 68.3026 217.714C78.3776 217.714 86.5396 209.552 86.5396 199.496C86.5396 189.439 78.3776 181.277 68.3026 181.277ZM68.3214 214.07C60.2687 214.07 53.7464 207.548 53.7464 199.495C53.7464 191.443 60.2687 184.92 68.3214 184.92C76.3741 184.92 82.8964 191.443 82.8964 199.495C82.8964 207.548 76.3741 214.07 68.3214 214.07ZM66.4994 190.386H69.2323V199.951L77.4307 204.815L76.0643 207.056L66.4994 201.317V190.386Z" fill="white"/>
    </g>
    <path opacity="0.5" d="M262.058 197.737C265.024 197.737 267.218 198.318 268.641 199.481C270.064 200.623 270.776 202.186 270.776 204.17C270.776 205.433 270.465 206.575 269.844 207.597C269.222 208.619 268.291 209.431 267.048 210.032C265.805 210.633 264.272 210.934 262.449 210.934C260.946 210.934 259.493 210.723 258.09 210.303C256.687 209.862 255.505 209.26 254.543 208.499L256.196 205.463C256.978 206.104 257.909 206.615 258.992 206.996C260.094 207.357 261.226 207.537 262.389 207.537C263.771 207.537 264.854 207.256 265.635 206.695C266.437 206.114 266.838 205.322 266.838 204.32C266.838 203.238 266.407 202.427 265.545 201.885C264.703 201.324 263.25 201.044 261.186 201.044H256.106L257.188 189.59H269.543V192.867H260.495L260.044 197.737H262.058ZM302.741 194.4C304.765 194.4 306.368 194.991 307.551 196.174C308.733 197.336 309.324 199.09 309.324 201.435V210.633H305.567V201.915C305.567 200.513 305.256 199.461 304.635 198.759C304.014 198.038 303.122 197.677 301.959 197.677C300.697 197.677 299.685 198.098 298.923 198.939C298.162 199.761 297.781 200.944 297.781 202.487V210.633H294.023V201.915C294.023 200.513 293.713 199.461 293.091 198.759C292.47 198.038 291.578 197.677 290.416 197.677C289.133 197.677 288.111 198.088 287.35 198.909C286.608 199.731 286.237 200.923 286.237 202.487V210.633H282.48V194.581H286.057V196.625C286.658 195.903 287.41 195.352 288.312 194.971C289.214 194.591 290.216 194.4 291.318 194.4C292.52 194.4 293.582 194.631 294.504 195.092C295.446 195.533 296.188 196.194 296.729 197.076C297.39 196.234 298.242 195.583 299.284 195.122C300.326 194.641 301.478 194.4 302.741 194.4ZM314.126 194.581H317.884V210.633H314.126V194.581ZM316.02 191.935C315.339 191.935 314.767 191.725 314.306 191.304C313.846 190.863 313.615 190.322 313.615 189.681C313.615 189.039 313.846 188.508 314.306 188.087C314.767 187.647 315.339 187.426 316.02 187.426C316.701 187.426 317.272 187.637 317.733 188.057C318.194 188.458 318.425 188.969 318.425 189.59C318.425 190.252 318.194 190.813 317.733 191.274C317.293 191.715 316.721 191.935 316.02 191.935ZM331.924 194.4C333.948 194.4 335.571 194.991 336.794 196.174C338.016 197.356 338.628 199.11 338.628 201.435V210.633H334.87V201.915C334.87 200.513 334.539 199.461 333.878 198.759C333.217 198.038 332.275 197.677 331.052 197.677C329.67 197.677 328.577 198.098 327.776 198.939C326.974 199.761 326.573 200.954 326.573 202.517V210.633H322.816V194.581H326.393V196.655C327.014 195.913 327.796 195.352 328.738 194.971C329.68 194.591 330.742 194.4 331.924 194.4Z" fill="white"/>
    <g opacity="0.5">
        <path fill-rule="evenodd" clip-rule="evenodd" d="M420.307 199.496L411.927 207.876L414.477 210.427L425.408 199.496L414.477 188.564L411.927 191.115L420.307 199.496ZM394.072 199.496L402.453 207.876L399.902 210.427L388.971 199.496L399.902 188.564L402.453 191.115L394.072 199.496Z" fill="white"/>
    </g>
    <path opacity="0.5" d="M451.467 189.59C453.29 189.59 454.874 189.891 456.216 190.492C457.579 191.094 458.621 191.955 459.343 193.078C460.064 194.2 460.425 195.533 460.425 197.076C460.425 198.599 460.064 199.931 459.343 201.074C458.621 202.196 457.579 203.058 456.216 203.659C454.874 204.26 453.29 204.561 451.467 204.561H446.717V210.633H442.809V189.59H451.467ZM451.286 201.254C452.99 201.254 454.282 200.893 455.164 200.172C456.046 199.45 456.487 198.418 456.487 197.076C456.487 195.733 456.046 194.701 455.164 193.979C454.282 193.258 452.99 192.897 451.286 192.897H446.717V201.254H451.286ZM471.144 210.934C469.521 210.934 467.948 210.703 466.425 210.242C464.922 209.781 463.729 209.17 462.847 208.409L464.2 205.373C465.062 206.054 466.114 206.615 467.357 207.056C468.619 207.477 469.882 207.687 471.144 207.687C472.707 207.687 473.87 207.437 474.631 206.936C475.413 206.435 475.804 205.773 475.804 204.952C475.804 204.35 475.583 203.859 475.142 203.479C474.721 203.078 474.18 202.767 473.519 202.547C472.858 202.326 471.956 202.076 470.814 201.795C469.21 201.414 467.908 201.034 466.906 200.653C465.924 200.272 465.072 199.681 464.35 198.879C463.649 198.058 463.298 196.955 463.298 195.573C463.298 194.41 463.609 193.358 464.23 192.416C464.871 191.454 465.823 190.693 467.086 190.132C468.369 189.57 469.932 189.29 471.775 189.29C473.058 189.29 474.321 189.45 475.563 189.771C476.806 190.092 477.878 190.552 478.78 191.154L477.547 194.19C476.625 193.649 475.663 193.238 474.661 192.957C473.659 192.677 472.687 192.536 471.745 192.536C470.202 192.536 469.05 192.797 468.288 193.318C467.547 193.839 467.176 194.531 467.176 195.392C467.176 195.993 467.387 196.484 467.807 196.865C468.248 197.246 468.799 197.547 469.461 197.767C470.122 197.988 471.024 198.238 472.166 198.519C473.729 198.879 475.012 199.26 476.014 199.661C477.016 200.042 477.868 200.633 478.569 201.435C479.291 202.236 479.651 203.318 479.651 204.681C479.651 205.843 479.331 206.896 478.69 207.838C478.068 208.779 477.116 209.531 475.834 210.092C474.551 210.653 472.988 210.934 471.144 210.934ZM497.174 205.763H486.653L484.579 210.633H480.55L490.02 189.59H493.867L503.367 210.633H499.278L497.174 205.763ZM495.882 202.697L491.914 193.498L487.976 202.697H495.882ZM519.811 210.633L515.512 204.471C515.332 204.491 515.061 204.501 514.7 204.501H509.951V210.633H506.043V189.59H514.7C516.524 189.59 518.107 189.891 519.45 190.492C520.813 191.094 521.855 191.955 522.576 193.078C523.298 194.2 523.659 195.533 523.659 197.076C523.659 198.659 523.268 200.022 522.486 201.164C521.725 202.306 520.622 203.158 519.18 203.719L524.019 210.633H519.811ZM519.721 197.076C519.721 195.733 519.28 194.701 518.398 193.979C517.516 193.258 516.224 192.897 514.52 192.897H509.951V201.284H514.52C516.224 201.284 517.516 200.923 518.398 200.202C519.28 199.461 519.721 198.418 519.721 197.076Z" fill="white"/>
    <rect x="437.25" y="62.8549" width="10.9313" height="13.6641" rx="5.46563" fill="white"/>
    <rect x="456.38" y="57.3892" width="10.9313" height="19.1297" rx="5.46563" fill="white"/>
    <rect x="475.51" y="51.9236" width="10.9313" height="24.5954" rx="5.46563" fill="white"/>
    <rect x="494.64" y="46.4579" width="10.9313" height="30.061" rx="5.46563" fill="white"/>
    <rect x="513.77" y="40.9923" width="10.9313" height="35.5266" rx="5.46563" fill="white"/>
    <g opacity="0.5">
        <path fill-rule="evenodd" clip-rule="evenodd" d="M226.53 213.987C226.41 213.987 226.287 213.982 226.163 213.969C224.585 213.813 223.348 212.7 223.007 211.131L218.196 188.909L213.241 200.353C212.956 201.01 212.309 201.435 211.595 201.435H206.216C205.224 201.435 204.422 200.631 204.422 199.642C204.422 198.65 205.224 197.848 206.216 197.848H210.419L214.912 187.468C215.549 186.004 216.951 185.153 218.545 185.312C220.123 185.468 221.361 186.582 221.701 188.151L226.513 210.372L231.467 198.928C231.752 198.272 232.398 197.848 233.113 197.848H238.493C239.484 197.848 240.286 198.65 240.286 199.642C240.286 200.631 239.484 201.435 238.493 201.435H234.29L229.796 211.814C229.209 213.164 227.952 213.987 226.53 213.987Z" fill="#F2F2F2"/>
    </g>
    <g clip-path="url(#clip0)">
        <rect x="31.082" y="90.8545" width="209.204" height="37.0591" rx="6.85916" fill="#1BC53C"/>
        <path d="M89.0642 108.673C91.1312 109.01 92.7151 109.785 93.816 110.999C94.9169 112.189 95.4673 113.672 95.4673 115.447C95.4673 116.818 95.1078 118.087 94.3889 119.255C93.6699 120.401 92.5691 121.322 91.0862 122.019C89.6259 122.715 87.8285 123.063 85.6942 123.063C84.0316 123.063 82.3915 122.85 80.7739 122.423C79.1787 121.974 77.8195 121.345 76.6961 120.536L78.8193 116.357C79.7179 117.031 80.7514 117.559 81.9197 117.941C83.1105 118.3 84.3237 118.48 85.5594 118.48C86.9298 118.48 88.0083 118.222 88.7946 117.705C89.5809 117.166 89.9741 116.413 89.9741 115.447C89.9741 113.515 88.5025 112.549 85.5594 112.549H83.0655V108.943L87.9184 103.45H77.8756V99.0687H94.3889V102.607L89.0642 108.673ZM109.345 107.865C110.85 107.865 112.221 108.168 113.457 108.774C114.692 109.381 115.67 110.246 116.388 111.369C117.107 112.47 117.467 113.751 117.467 115.211C117.467 116.784 117.074 118.166 116.287 119.356C115.501 120.547 114.423 121.468 113.052 122.12C111.704 122.749 110.199 123.063 108.536 123.063C105.234 123.063 102.65 122.052 100.785 120.03C98.9204 118.008 97.988 115.121 97.988 111.369C97.988 108.696 98.4935 106.404 99.5045 104.494C100.516 102.585 101.92 101.136 103.717 100.147C105.537 99.1586 107.638 98.6643 110.019 98.6643C111.277 98.6643 112.479 98.8103 113.625 99.1024C114.793 99.372 115.782 99.7652 116.591 100.282L114.569 104.292C113.4 103.506 111.929 103.113 110.154 103.113C108.154 103.113 106.57 103.697 105.402 104.865C104.234 106.033 103.605 107.73 103.515 109.954C104.908 108.561 106.851 107.865 109.345 107.865ZM108.233 118.986C109.401 118.986 110.345 118.671 111.064 118.042C111.805 117.413 112.176 116.559 112.176 115.481C112.176 114.402 111.805 113.549 111.064 112.92C110.345 112.268 109.379 111.942 108.166 111.942C106.975 111.942 105.997 112.279 105.234 112.953C104.47 113.605 104.088 114.447 104.088 115.481C104.088 116.514 104.458 117.357 105.2 118.008C105.941 118.66 106.952 118.986 108.233 118.986ZM127.736 98.6643C131.039 98.6643 133.622 99.6753 135.487 101.697C137.352 103.697 138.284 106.584 138.284 110.358C138.284 113.032 137.779 115.324 136.768 117.233C135.779 119.143 134.375 120.592 132.555 121.581C130.735 122.569 128.635 123.063 126.253 123.063C124.995 123.063 123.793 122.929 122.647 122.659C121.501 122.367 120.524 121.963 119.715 121.446L121.737 117.435C122.883 118.222 124.355 118.615 126.152 118.615C128.152 118.615 129.736 118.031 130.904 116.863C132.072 115.672 132.701 113.964 132.791 111.74C131.376 113.156 129.421 113.863 126.927 113.863C125.422 113.863 124.051 113.56 122.816 112.953C121.58 112.347 120.603 111.493 119.884 110.392C119.165 109.269 118.805 107.977 118.805 106.517C118.805 104.944 119.199 103.562 119.985 102.371C120.771 101.181 121.838 100.271 123.186 99.6416C124.557 98.9901 126.074 98.6643 127.736 98.6643ZM128.14 109.785C129.331 109.785 130.297 109.46 131.039 108.808C131.803 108.134 132.185 107.28 132.185 106.247C132.185 105.213 131.814 104.371 131.072 103.719C130.353 103.068 129.354 102.742 128.073 102.742C126.905 102.742 125.95 103.057 125.209 103.686C124.49 104.315 124.13 105.168 124.13 106.247C124.13 107.325 124.49 108.19 125.209 108.842C125.95 109.471 126.927 109.785 128.14 109.785ZM157.046 110.257C158.214 110.841 159.102 111.605 159.708 112.549C160.337 113.493 160.652 114.582 160.652 115.818C160.652 117.278 160.236 118.559 159.405 119.66C158.574 120.738 157.406 121.581 155.9 122.187C154.395 122.771 152.654 123.063 150.677 123.063C148.7 123.063 146.958 122.771 145.453 122.187C143.97 121.581 142.813 120.738 141.982 119.66C141.173 118.559 140.769 117.278 140.769 115.818C140.769 114.582 141.072 113.493 141.679 112.549C142.308 111.605 143.195 110.841 144.341 110.257C143.465 109.718 142.791 109.044 142.319 108.235C141.847 107.404 141.611 106.46 141.611 105.404C141.611 104.034 141.993 102.843 142.757 101.832C143.521 100.821 144.588 100.046 145.959 99.5068C147.329 98.9451 148.902 98.6643 150.677 98.6643C152.474 98.6643 154.058 98.9451 155.428 99.5068C156.821 100.046 157.9 100.821 158.664 101.832C159.428 102.843 159.809 104.034 159.809 105.404C159.809 106.46 159.574 107.404 159.102 108.235C158.63 109.044 157.945 109.718 157.046 110.257ZM150.677 102.675C149.576 102.675 148.688 102.944 148.014 103.483C147.363 104 147.037 104.719 147.037 105.64C147.037 106.539 147.363 107.247 148.014 107.763C148.666 108.28 149.553 108.539 150.677 108.539C151.8 108.539 152.699 108.28 153.373 107.763C154.047 107.247 154.384 106.539 154.384 105.64C154.384 104.719 154.047 104 153.373 103.483C152.699 102.944 151.8 102.675 150.677 102.675ZM150.677 119.053C152.047 119.053 153.126 118.75 153.912 118.143C154.721 117.514 155.125 116.683 155.125 115.649C155.125 114.616 154.721 113.796 153.912 113.189C153.126 112.583 152.047 112.279 150.677 112.279C149.329 112.279 148.261 112.583 147.475 113.189C146.689 113.796 146.296 114.616 146.296 115.649C146.296 116.705 146.689 117.537 147.475 118.143C148.261 118.75 149.329 119.053 150.677 119.053ZM181.619 99.0687V102.607L172.857 122.659H166.926L175.384 103.517H167.566V107.359H162.713V99.0687H181.619ZM185.504 122.929C184.583 122.929 183.808 122.614 183.179 121.985C182.55 121.356 182.235 120.57 182.235 119.626C182.235 118.66 182.55 117.885 183.179 117.301C183.808 116.694 184.583 116.391 185.504 116.391C186.425 116.391 187.201 116.694 187.83 117.301C188.459 117.885 188.773 118.66 188.773 119.626C188.773 120.57 188.459 121.356 187.83 121.985C187.201 122.614 186.425 122.929 185.504 122.929ZM199.796 99.0687V122.659H194.337V103.45H189.619V99.0687H199.796Z" fill="white"/>
    </g>
    <path fill-rule="evenodd" clip-rule="evenodd" d="M66.6347 102.583C66.6347 101.763 65.8607 101.095 64.9018 101.09L50.9671 101.016H50.9566C49.9978 101.016 49.2202 101.679 49.2133 102.501C49.2063 103.326 49.9821 104 50.9462 104.004L60.6358 104.056L46.2373 116.397C45.5557 116.981 45.5557 117.927 46.2373 118.509C46.5773 118.802 47.0236 118.947 47.4699 118.947C47.9162 118.947 48.3625 118.802 48.7024 118.509L63.1515 106.125L63.1602 114.466C63.1602 115.291 63.9412 115.959 64.9036 115.959H64.9053C65.8677 115.959 66.6469 115.288 66.6469 114.463L66.6347 102.583Z" fill="white"/>
    <g clip-path="url(#clip1)">
        <rect x="31.082" y="135.086" width="209.204" height="37.0591" rx="6.85916" fill="#D64730"/>
        <path d="M88.8432 152.905C90.9101 153.242 92.4941 154.017 93.5949 155.23C94.6958 156.421 95.2463 157.904 95.2463 159.679C95.2463 161.049 94.8868 162.319 94.1679 163.487C93.4489 164.633 92.348 165.554 90.8652 166.25C89.4049 166.947 87.6075 167.295 85.4731 167.295C83.8106 167.295 82.1705 167.082 80.5529 166.655C78.9577 166.206 77.5984 165.576 76.4751 164.768L78.5982 160.589C79.4969 161.263 80.5304 161.791 81.6987 162.173C82.8894 162.532 84.1026 162.712 85.3383 162.712C86.7088 162.712 87.7872 162.454 88.5736 161.937C89.3599 161.398 89.7531 160.645 89.7531 159.679C89.7531 157.747 88.2815 156.781 85.3383 156.781H82.8445V153.175L87.6974 147.681H77.6546V143.3H94.1679V146.839L88.8432 152.905ZM105.526 152.164C108.851 152.164 111.3 152.826 112.873 154.152C114.468 155.478 115.265 157.252 115.265 159.477C115.265 160.915 114.906 162.229 114.187 163.42C113.468 164.588 112.367 165.531 110.884 166.25C109.424 166.947 107.615 167.295 105.459 167.295C103.796 167.295 102.156 167.082 100.538 166.655C98.9431 166.206 97.5839 165.576 96.4605 164.768L98.6174 160.589C99.5161 161.263 100.55 161.791 101.718 162.173C102.886 162.532 104.088 162.712 105.324 162.712C106.694 162.712 107.773 162.442 108.559 161.903C109.345 161.364 109.739 160.611 109.739 159.645C109.739 158.634 109.323 157.87 108.492 157.354C107.683 156.837 106.267 156.578 104.245 156.578H98.213L99.4262 143.3H113.816V147.681H103.976L103.605 152.164H105.526ZM134.941 162.442V166.891H117.114V163.352L126.213 154.759C127.179 153.837 127.83 153.051 128.167 152.4C128.504 151.726 128.673 151.063 128.673 150.411C128.673 149.468 128.347 148.749 127.696 148.254C127.067 147.738 126.134 147.479 124.899 147.479C123.865 147.479 122.933 147.681 122.101 148.086C121.27 148.468 120.574 149.052 120.012 149.838L116.035 147.277C116.956 145.907 118.226 144.839 119.843 144.076C121.461 143.289 123.315 142.896 125.404 142.896C127.156 142.896 128.684 143.188 129.987 143.772C131.313 144.334 132.335 145.143 133.054 146.199C133.795 147.232 134.166 148.457 134.166 149.872C134.166 151.153 133.897 152.355 133.357 153.478C132.818 154.601 131.773 155.882 130.223 157.32L124.797 162.442H134.941ZM145.484 142.896C148.787 142.896 151.371 143.907 153.235 145.929C155.1 147.929 156.033 150.816 156.033 154.59C156.033 157.264 155.527 159.555 154.516 161.465C153.527 163.375 152.123 164.824 150.303 165.812C148.484 166.801 146.383 167.295 144.001 167.295C142.743 167.295 141.541 167.16 140.395 166.891C139.25 166.599 138.272 166.194 137.464 165.678L139.486 161.667C140.631 162.454 142.103 162.847 143.9 162.847C145.9 162.847 147.484 162.263 148.652 161.094C149.82 159.904 150.449 158.196 150.539 155.972C149.124 157.387 147.169 158.095 144.675 158.095C143.17 158.095 141.8 157.792 140.564 157.185C139.328 156.578 138.351 155.725 137.632 154.624C136.913 153.5 136.554 152.209 136.554 150.748C136.554 149.176 136.947 147.794 137.733 146.603C138.519 145.412 139.587 144.502 140.935 143.873C142.305 143.222 143.822 142.896 145.484 142.896ZM145.889 154.017C147.079 154.017 148.045 153.691 148.787 153.04C149.551 152.366 149.933 151.512 149.933 150.479C149.933 149.445 149.562 148.603 148.821 147.951C148.102 147.3 147.102 146.974 145.821 146.974C144.653 146.974 143.698 147.288 142.957 147.917C142.238 148.546 141.878 149.4 141.878 150.479C141.878 151.557 142.238 152.422 142.957 153.074C143.698 153.703 144.675 154.017 145.889 154.017ZM174.794 154.489C175.962 155.073 176.85 155.837 177.457 156.781C178.086 157.724 178.4 158.814 178.4 160.05C178.4 161.51 177.985 162.791 177.153 163.891C176.322 164.97 175.154 165.812 173.648 166.419C172.143 167.003 170.402 167.295 168.425 167.295C166.448 167.295 164.707 167.003 163.201 166.419C161.718 165.812 160.561 164.97 159.73 163.891C158.921 162.791 158.517 161.51 158.517 160.05C158.517 158.814 158.82 157.724 159.427 156.781C160.056 155.837 160.943 155.073 162.089 154.489C161.213 153.95 160.539 153.276 160.067 152.467C159.595 151.636 159.359 150.692 159.359 149.636C159.359 148.266 159.741 147.075 160.505 146.064C161.269 145.053 162.336 144.278 163.707 143.738C165.077 143.177 166.65 142.896 168.425 142.896C170.222 142.896 171.806 143.177 173.177 143.738C174.57 144.278 175.648 145.053 176.412 146.064C177.176 147.075 177.558 148.266 177.558 149.636C177.558 150.692 177.322 151.636 176.85 152.467C176.378 153.276 175.693 153.95 174.794 154.489ZM168.425 146.906C167.324 146.906 166.436 147.176 165.762 147.715C165.111 148.232 164.785 148.951 164.785 149.872C164.785 150.771 165.111 151.478 165.762 151.995C166.414 152.512 167.301 152.77 168.425 152.77C169.548 152.77 170.447 152.512 171.121 151.995C171.795 151.478 172.132 150.771 172.132 149.872C172.132 148.951 171.795 148.232 171.121 147.715C170.447 147.176 169.548 146.906 168.425 146.906ZM168.425 163.285C169.795 163.285 170.874 162.981 171.66 162.375C172.469 161.746 172.873 160.915 172.873 159.881C172.873 158.848 172.469 158.028 171.66 157.421C170.874 156.814 169.795 156.511 168.425 156.511C167.077 156.511 166.01 156.814 165.223 157.421C164.437 158.028 164.044 158.848 164.044 159.881C164.044 160.937 164.437 161.768 165.223 162.375C166.01 162.981 167.077 163.285 168.425 163.285ZM184.329 167.16C183.408 167.16 182.633 166.846 182.003 166.217C181.374 165.588 181.06 164.801 181.06 163.858C181.06 162.892 181.374 162.117 182.003 161.532C182.633 160.926 183.408 160.622 184.329 160.622C185.25 160.622 186.025 160.926 186.654 161.532C187.283 162.117 187.598 162.892 187.598 163.858C187.598 164.801 187.283 165.588 186.654 166.217C186.025 166.846 185.25 167.16 184.329 167.16ZM199.731 167.295C197.776 167.295 196.035 166.812 194.507 165.846C192.979 164.88 191.777 163.487 190.901 161.667C190.047 159.825 189.621 157.634 189.621 155.096C189.621 152.557 190.047 150.377 190.901 148.558C191.777 146.715 192.979 145.311 194.507 144.345C196.035 143.379 197.776 142.896 199.731 142.896C201.685 142.896 203.427 143.379 204.954 144.345C206.482 145.311 207.673 146.715 208.527 148.558C209.403 150.377 209.841 152.557 209.841 155.096C209.841 157.634 209.403 159.825 208.527 161.667C207.673 163.487 206.482 164.88 204.954 165.846C203.427 166.812 201.685 167.295 199.731 167.295ZM199.731 162.678C201.169 162.678 202.292 162.06 203.101 160.825C203.932 159.589 204.348 157.679 204.348 155.096C204.348 152.512 203.932 150.602 203.101 149.366C202.292 148.131 201.169 147.513 199.731 147.513C198.315 147.513 197.192 148.131 196.361 149.366C195.552 150.602 195.147 152.512 195.147 155.096C195.147 157.679 195.552 159.589 196.361 160.825C197.192 162.06 198.315 162.678 199.731 162.678Z" fill="white"/>
        <path fill-rule="evenodd" clip-rule="evenodd" d="M66.1357 145.685C65.454 145.101 64.3522 145.101 63.6706 145.685L49.2128 158.078V149.731C49.2128 148.906 48.4335 148.236 47.4694 148.236C46.5054 148.236 45.7261 148.906 45.7261 149.731V161.685C45.7261 162.51 46.5054 163.179 47.4694 163.179H61.4164C62.3805 163.179 63.1598 162.51 63.1598 161.685C63.1598 160.86 62.3805 160.191 61.4164 160.191H51.6779L66.1357 147.798C66.8174 147.214 66.8174 146.27 66.1357 145.685Z" fill="white"/>
    </g>
    <defs>
        <clipPath id="clip0">
            <rect x="31.082" y="90.8545" width="209.204" height="37.0591" rx="6.85916" fill="white"/>
        </clipPath>
        <clipPath id="clip1">
            <rect x="31.082" y="135.086" width="209.204" height="37.0591" rx="6.85916" fill="white"/>
        </clipPath>
    </defs>
</svg>
