<svg width="97" height="81" viewBox="0 0 97 81" fill="none" xmlns="http://www.w3.org/2000/svg">
    <path d="M92.9583 36.4154L72.75 36.375C70.5271 36.375 68.7083 38.1938 68.7083 40.4167V76.7917C68.7083 79.0146 70.5271 80.8333 72.75 80.8333H92.9583C95.1812 80.8333 97 79.0146 97 76.7917V40.4167C97 38.1938 95.1812 36.4154 92.9583 36.4154ZM92.9583 72.75H72.75V44.4583H92.9583V72.75ZM80.8333 0H8.08333C3.6375 0 0 3.6375 0 8.08333V56.5833C0 61.0292 3.6375 64.6667 8.08333 64.6667H36.375V72.75H32.3333C30.1104 72.75 28.2917 74.5688 28.2917 76.7917C28.2917 79.0146 30.1104 80.8333 32.3333 80.8333H56.5833C58.8062 80.8333 60.625 79.0146 60.625 76.7917C60.625 74.5688 58.8062 72.75 56.5833 72.75H52.5417V64.6667H56.5833C58.8062 64.6667 60.625 62.8479 60.625 60.625C60.625 58.4021 58.8062 56.5833 56.5833 56.5833H12.125C9.90208 56.5833 8.08333 54.7646 8.08333 52.5417V12.125C8.08333 9.90208 9.90208 8.08333 12.125 8.08333H76.7917C79.0146 8.08333 80.8333 9.90208 80.8333 12.125V24.25C80.8333 26.4729 82.6521 28.2917 84.875 28.2917C87.0979 28.2917 88.9167 26.4729 88.9167 24.25V8.08333C88.9167 3.6375 85.2792 0 80.8333 0Z" fill="#F1F1F1"/>
</svg>
