<svg width="1600" height="3039" viewBox="0 0 1600 3039" fill="none" xmlns="http://www.w3.org/2000/svg">
    <g opacity="0.1">
        <path d="M1383.79 1902.58C1480.28 1722.73 1504.83 1336.38 831.049 1229.79C157.271 1123.19 -47.3778 851.474 -65.4797 728.939" stroke="url(#paint0_linear)" stroke-width="3"/>
        <path d="M1392.16 1946.33C1488.66 1766.48 1513.2 1380.13 839.423 1273.54C165.645 1166.94 -39.0037 895.224 -57.1057 772.689" stroke="url(#paint1_linear)" stroke-width="3"/>
        <path d="M1400.54 1990.08C1497.03 1810.23 1521.57 1423.88 847.796 1317.29C174.018 1210.69 -30.6307 938.975 -48.7326 816.44" stroke="url(#paint2_linear)" stroke-width="3"/>
        <path d="M1408.91 2033.83C1505.4 1853.98 1529.95 1467.63 856.17 1361.04C182.392 1254.44 -22.2567 982.725 -40.3586 860.19" stroke="url(#paint3_linear)" stroke-width="3"/>
        <path d="M1417.28 2077.58C1513.78 1897.73 1538.32 1511.38 864.544 1404.79C190.765 1298.19 -13.8831 1026.48 -31.9851 903.941" stroke="url(#paint4_linear)" stroke-width="3"/>
        <path d="M1425.66 2121.33C1522.15 1941.48 1546.7 1555.13 872.918 1448.54C199.139 1341.94 -5.5091 1070.23 -23.611 947.691" stroke="url(#paint5_linear)" stroke-width="3"/>
        <path d="M1434.03 2165.09C1530.52 1985.23 1555.07 1598.88 881.291 1492.29C207.512 1385.7 2.86394 1113.98 -15.238 991.442" stroke="url(#paint6_linear)" stroke-width="3"/>
        <path d="M1442.4 2208.84C1538.9 2028.98 1563.44 1642.63 889.665 1536.04C215.886 1429.45 11.238 1157.73 -6.86396 1035.19" stroke="url(#paint7_linear)" stroke-width="3"/>
        <path d="M1450.78 2252.59C1547.27 2072.73 1571.82 1686.38 898.038 1579.79C224.26 1473.2 19.6115 1201.48 1.50957 1078.94" stroke="url(#paint8_linear)" stroke-width="3"/>
        <path d="M1459.15 2296.34C1555.65 2116.49 1580.19 1730.13 906.412 1623.54C232.633 1516.95 27.985 1245.23 9.88311 1122.69" stroke="url(#paint9_linear)" stroke-width="3"/>
        <path d="M1467.53 2340.09C1564.02 2160.24 1588.56 1773.88 914.785 1667.29C241.007 1560.7 36.3586 1288.98 18.2566 1166.44" stroke="url(#paint10_linear)" stroke-width="3"/>
        <path d="M1475.9 2383.84C1572.39 2203.99 1596.94 1817.63 923.159 1711.04C249.381 1604.45 44.7321 1332.73 26.6302 1210.19" stroke="url(#paint11_linear)" stroke-width="3"/>
        <path d="M1484.27 2427.59C1580.77 2247.74 1605.31 1861.38 931.532 1754.79C257.754 1648.2 53.1056 1376.48 35.0037 1253.94" stroke="url(#paint12_linear)" stroke-width="3"/>
        <path d="M1492.65 2471.34C1589.14 2291.49 1613.68 1905.14 939.906 1798.54C266.128 1691.95 61.4792 1420.23 43.3772 1297.7" stroke="url(#paint13_linear)" stroke-width="3"/>
    </g>
    <defs>
        <linearGradient id="paint0_linear" x1="1012.06" y1="2044.58" x2="436.269" y2="537.271" gradientUnits="userSpaceOnUse">
            <stop stop-color="#0A086A"/>
            <stop offset="1" stop-color="#3FFFDC" stop-opacity="0.8"/>
        </linearGradient>
        <linearGradient id="paint1_linear" x1="1020.44" y1="2088.33" x2="444.643" y2="581.021" gradientUnits="userSpaceOnUse">
            <stop stop-color="#0A086A"/>
            <stop offset="1" stop-color="#3FFFDC" stop-opacity="0.8"/>
        </linearGradient>
        <linearGradient id="paint2_linear" x1="1028.81" y1="2132.08" x2="453.016" y2="624.771" gradientUnits="userSpaceOnUse">
            <stop stop-color="#0A086A"/>
            <stop offset="1" stop-color="#3FFFDC" stop-opacity="0.8"/>
        </linearGradient>
        <linearGradient id="paint3_linear" x1="1037.18" y1="2175.83" x2="461.39" y2="668.522" gradientUnits="userSpaceOnUse">
            <stop stop-color="#0A086A"/>
            <stop offset="1" stop-color="#3FFFDC" stop-opacity="0.8"/>
        </linearGradient>
        <linearGradient id="paint4_linear" x1="1045.56" y1="2219.58" x2="469.764" y2="712.272" gradientUnits="userSpaceOnUse">
            <stop stop-color="#0A086A"/>
            <stop offset="1" stop-color="#3FFFDC" stop-opacity="0.8"/>
        </linearGradient>
        <linearGradient id="paint5_linear" x1="1053.93" y1="2263.33" x2="478.138" y2="756.023" gradientUnits="userSpaceOnUse">
            <stop stop-color="#0A086A"/>
            <stop offset="1" stop-color="#3FFFDC" stop-opacity="0.8"/>
        </linearGradient>
        <linearGradient id="paint6_linear" x1="1062.3" y1="2307.09" x2="486.511" y2="799.773" gradientUnits="userSpaceOnUse">
            <stop stop-color="#0A086A"/>
            <stop offset="1" stop-color="#3FFFDC" stop-opacity="0.8"/>
        </linearGradient>
        <linearGradient id="paint7_linear" x1="1070.68" y1="2350.84" x2="494.885" y2="843.524" gradientUnits="userSpaceOnUse">
            <stop stop-color="#0A086A"/>
            <stop offset="1" stop-color="#3FFFDC" stop-opacity="0.8"/>
        </linearGradient>
        <linearGradient id="paint8_linear" x1="1079.05" y1="2394.59" x2="503.258" y2="887.274" gradientUnits="userSpaceOnUse">
            <stop stop-color="#0A086A"/>
            <stop offset="1" stop-color="#3FFFDC" stop-opacity="0.8"/>
        </linearGradient>
        <linearGradient id="paint9_linear" x1="1087.43" y1="2438.34" x2="511.632" y2="931.025" gradientUnits="userSpaceOnUse">
            <stop stop-color="#0A086A"/>
            <stop offset="1" stop-color="#3FFFDC" stop-opacity="0.8"/>
        </linearGradient>
        <linearGradient id="paint10_linear" x1="1095.8" y1="2482.09" x2="520.005" y2="974.775" gradientUnits="userSpaceOnUse">
            <stop stop-color="#0A086A"/>
            <stop offset="1" stop-color="#3FFFDC" stop-opacity="0.8"/>
        </linearGradient>
        <linearGradient id="paint11_linear" x1="1104.17" y1="2525.84" x2="528.379" y2="1018.53" gradientUnits="userSpaceOnUse">
            <stop stop-color="#0A086A"/>
            <stop offset="1" stop-color="#3FFFDC" stop-opacity="0.8"/>
        </linearGradient>
        <linearGradient id="paint12_linear" x1="1112.55" y1="2569.59" x2="536.752" y2="1062.28" gradientUnits="userSpaceOnUse">
            <stop stop-color="#0A086A"/>
            <stop offset="1" stop-color="#3FFFDC" stop-opacity="0.8"/>
        </linearGradient>
        <linearGradient id="paint13_linear" x1="1120.92" y1="2613.34" x2="545.126" y2="1106.03" gradientUnits="userSpaceOnUse">
            <stop stop-color="#0A086A"/>
            <stop offset="1" stop-color="#3FFFDC" stop-opacity="0.8"/>
        </linearGradient>
    </defs>
</svg>
