<svg width="96" height="96" viewBox="0 0 96 96" fill="none" xmlns="http://www.w3.org/2000/svg">
    <path d="M81.823 14.177C77.3892 9.69937 72.1144 6.14191 66.3016 3.70899C60.4888 1.27607 54.2526 0.0156542 47.9512 0.000144894C41.6499 -0.0153644 35.4075 1.21434 29.5828 3.61862C23.7581 6.02289 18.4659 9.55435 14.0101 14.0101C9.55435 18.4659 6.02289 23.7581 3.61862 29.5828C1.21434 35.4075 -0.0153644 41.6499 0.000144894 47.9512C0.0156542 54.2526 1.27607 60.4888 3.70899 66.3016C6.14191 72.1144 9.69937 77.3892 14.177 81.823C18.6108 86.3006 23.8856 89.8581 29.6984 92.291C35.5112 94.7239 41.7474 95.9843 48.0488 95.9999C54.3501 96.0154 60.5925 94.7857 66.4172 92.3814C72.2419 89.9771 77.5341 86.4457 81.9899 81.9899C86.4457 77.5341 89.9771 72.2419 92.3814 66.4172C94.7857 60.5925 96.0154 54.3501 95.9999 48.0488C95.9843 41.7474 94.7239 35.5112 92.291 29.6984C89.8581 23.8856 86.3006 18.6108 81.823 14.177ZM6.99985 48C6.99832 44.3713 7.47945 40.7585 8.43059 37.2567C9.99799 40.6306 12.2743 43.5455 13.8225 47.007C15.8234 51.4572 21.1962 50.223 23.5686 54.1223C25.6741 57.5838 23.4255 61.9614 25.0015 65.5831C26.1461 68.2118 28.8452 68.7862 30.7073 70.7081C32.61 72.6471 32.5694 75.3035 32.8598 77.8319C33.1876 80.8025 33.7191 83.7471 34.4507 86.6448C34.4507 86.6661 34.4507 86.6896 34.4678 86.711C18.4884 81.0991 6.99985 65.8671 6.99985 48ZM48 89.0002C45.7103 88.9994 43.4246 88.808 41.1666 88.4279C41.1901 87.8492 41.2008 87.3089 41.2585 86.9331C41.7774 83.5377 43.4772 80.2171 45.7706 77.676C48.0363 75.169 51.1412 73.4735 53.0546 70.6291C54.9295 67.853 55.4911 64.1161 54.718 60.8723C53.5799 56.0804 47.069 54.481 43.5583 51.8822C41.5403 50.3874 39.7444 48.0769 37.0944 47.889C35.8729 47.8035 34.8501 48.0662 33.6393 47.7544C32.5289 47.4661 31.6576 46.8682 30.4746 47.0241C28.2644 47.3145 26.87 49.6763 24.4954 49.356C22.2425 49.0549 19.9213 46.4176 19.4088 44.2715C18.7511 41.5126 20.9335 40.6178 23.2718 40.3723C24.2477 40.2698 25.3431 40.1587 26.2806 40.5175C27.5149 40.9745 28.0978 42.1831 29.2061 42.7938C31.2839 43.9342 31.7046 42.1126 31.3864 40.2676C30.9102 37.5044 30.355 36.379 32.8193 34.4764C34.5276 33.1652 35.9882 32.2171 35.7149 29.8617C35.5526 28.4779 34.7945 27.8523 35.5014 26.4749C36.0374 25.4264 37.5087 24.4804 38.4675 23.8548C40.9424 22.2404 49.0698 22.36 45.7493 17.8414C44.7734 16.5153 42.9732 14.145 41.2649 13.8204C39.1294 13.4168 38.1813 15.7999 36.6929 16.8506C35.1554 17.9375 32.1616 19.1718 30.6219 17.4912C28.5506 15.2298 31.995 14.4888 32.7573 12.9086C33.1097 12.1719 32.7573 11.149 32.1637 10.1859C32.9339 9.86132 33.7169 9.56023 34.5127 9.28262C35.0114 9.65098 35.603 9.87285 36.221 9.92325C37.6496 10.0172 38.997 9.24418 40.2441 10.2179C41.6279 11.2856 42.6251 12.6352 44.4616 12.9684C46.2383 13.2908 48.1196 12.2551 48.5595 10.4358C48.8264 9.3296 48.5595 8.16152 48.3032 7.01907C56.2898 7.06502 64.0867 9.45684 70.7252 13.8973C70.2981 13.735 69.7877 13.7542 69.1578 14.0468C67.8616 14.6489 66.0251 16.1822 65.8735 17.7026C65.7005 19.428 68.246 19.6715 69.4546 19.6715C71.2697 19.6715 73.1083 18.86 72.5232 16.763C72.2691 15.8533 71.9232 14.9073 71.3658 14.335C72.7056 15.2647 73.9891 16.273 75.2096 17.3545C75.1904 17.3737 75.1711 17.3908 75.1519 17.4122C73.9219 18.6934 72.4933 19.7078 71.652 21.2666C71.0583 22.3642 70.3899 22.8853 69.1877 23.1693C68.5257 23.3252 67.7698 23.3828 67.2146 23.827C65.6685 25.0442 66.5483 27.9697 68.0132 28.8474C69.8646 29.9557 72.6108 29.4346 74.0073 27.8523C75.0985 26.6137 75.7413 24.4634 77.7038 24.4655C78.5677 24.4637 79.3977 24.802 80.0143 25.4072C80.8257 26.2486 80.6656 27.0344 80.8386 28.085C81.1439 29.9514 82.7903 28.9392 83.7918 27.9975C84.5219 29.2967 85.1806 30.6348 85.765 32.0057C84.6631 33.5923 83.7876 35.322 81.1375 33.4727C79.5509 32.3644 78.575 30.7564 76.5827 30.2568C74.8423 29.8297 73.0592 30.2738 71.3402 30.5707C69.3863 30.9102 67.0693 31.0597 65.5874 32.5395C64.1545 33.966 63.3964 35.8751 61.8717 37.3079C58.9227 40.084 57.6777 43.1141 59.5868 47.0391C61.4233 50.8124 65.2649 52.8602 69.4098 52.5912C73.482 52.32 77.7123 49.9582 77.5948 55.8755C77.5521 57.9703 77.9899 59.4202 78.6327 61.3656C79.2284 63.1594 79.1879 64.8976 79.3245 66.749C79.4545 68.917 79.7934 71.0674 80.3367 73.1702C76.5092 78.0983 71.6059 82.0864 66.0016 84.83C60.3972 87.5735 54.2399 88.9999 48 89.0002Z" fill="#F1F1F1"/>
</svg>
