<svg width="1429" height="1137" viewBox="0 0 1429 1137" fill="none" xmlns="http://www.w3.org/2000/svg">
    <g opacity="0.2">
        <path d="M428.752 814.034C462.554 959.462 635.594 1183.64 1057.35 916.922C1479.1 650.205 1722.75 700.73 1791.86 759.332" stroke="url(#paint0_linear)" stroke-width="3"/>
        <path d="M403.373 799.999C437.175 945.427 610.215 1169.61 1031.97 902.888C1453.72 636.17 1697.37 686.695 1766.48 745.298" stroke="url(#paint1_linear)" stroke-width="3"/>
        <path d="M377.995 785.965C411.796 931.393 584.837 1155.57 1006.59 888.854C1428.34 622.136 1672 672.661 1741.1 731.264" stroke="url(#paint2_linear)" stroke-width="3"/>
        <path d="M352.617 771.93C386.418 917.359 559.459 1141.54 981.211 874.819C1402.96 608.101 1646.62 658.627 1715.72 717.229" stroke="url(#paint3_linear)" stroke-width="3"/>
        <path d="M327.238 757.895C361.039 903.324 534.08 1127.5 955.832 860.784C1377.58 594.067 1621.24 644.592 1690.35 703.194" stroke="url(#paint4_linear)" stroke-width="3"/>
        <path d="M301.859 743.861C335.661 889.29 508.701 1113.47 930.454 846.75C1352.21 580.033 1595.86 630.558 1664.97 689.16" stroke="url(#paint5_linear)" stroke-width="3"/>
        <path d="M276.481 729.827C310.282 875.255 483.323 1099.43 905.075 832.715C1326.83 565.998 1570.48 616.523 1639.59 675.125" stroke="url(#paint6_linear)" stroke-width="3"/>
        <path d="M251.102 715.792C284.903 861.22 457.944 1085.4 879.696 818.681C1301.45 551.963 1545.1 602.488 1614.21 661.091" stroke="url(#paint7_linear)" stroke-width="3"/>
        <path d="M225.724 701.757C259.525 847.186 432.566 1071.36 854.318 804.646C1276.07 537.929 1519.72 588.454 1588.83 647.056" stroke="url(#paint8_linear)" stroke-width="3"/>
        <path d="M200.345 687.723C234.146 833.152 407.187 1057.33 828.939 790.612C1250.69 523.894 1494.35 574.42 1563.45 633.022" stroke="url(#paint9_linear)" stroke-width="3"/>
        <path d="M174.966 673.688C208.768 819.117 381.808 1043.29 803.561 776.577C1225.31 509.86 1468.97 560.385 1538.07 618.987" stroke="url(#paint10_linear)" stroke-width="3"/>
        <path d="M149.588 659.654C183.389 805.082 356.43 1029.26 778.182 762.543C1199.93 495.825 1443.59 546.35 1512.7 604.952" stroke="url(#paint11_linear)" stroke-width="3"/>
        <path d="M124.209 645.62C158.01 791.048 331.051 1015.23 752.803 748.508C1174.56 481.791 1418.21 532.316 1487.32 590.918" stroke="url(#paint12_linear)" stroke-width="3"/>
        <path d="M98.8304 631.585C132.632 777.013 305.673 1001.19 727.425 734.474C1149.18 467.756 1392.83 518.281 1461.94 576.884" stroke="url(#paint13_linear)" stroke-width="3"/>
    </g>
    <defs>
        <linearGradient id="paint0_linear" x1="564.485" y1="556.526" x2="1608.65" y2="1106.91" gradientUnits="userSpaceOnUse">
            <stop stop-color="#0A086A"/>
            <stop offset="1" stop-color="#3FFFDC" stop-opacity="0.8"/>
        </linearGradient>
        <linearGradient id="paint1_linear" x1="539.107" y1="542.492" x2="1583.27" y2="1092.88" gradientUnits="userSpaceOnUse">
            <stop stop-color="#0A086A"/>
            <stop offset="1" stop-color="#3FFFDC" stop-opacity="0.8"/>
        </linearGradient>
        <linearGradient id="paint2_linear" x1="513.728" y1="528.458" x2="1557.89" y2="1078.84" gradientUnits="userSpaceOnUse">
            <stop stop-color="#0A086A"/>
            <stop offset="1" stop-color="#3FFFDC" stop-opacity="0.8"/>
        </linearGradient>
        <linearGradient id="paint3_linear" x1="488.35" y1="514.423" x2="1532.51" y2="1064.81" gradientUnits="userSpaceOnUse">
            <stop stop-color="#0A086A"/>
            <stop offset="1" stop-color="#3FFFDC" stop-opacity="0.8"/>
        </linearGradient>
        <linearGradient id="paint4_linear" x1="462.971" y1="500.388" x2="1507.14" y2="1050.77" gradientUnits="userSpaceOnUse">
            <stop stop-color="#0A086A"/>
            <stop offset="1" stop-color="#3FFFDC" stop-opacity="0.8"/>
        </linearGradient>
        <linearGradient id="paint5_linear" x1="437.592" y1="486.354" x2="1481.76" y2="1036.74" gradientUnits="userSpaceOnUse">
            <stop stop-color="#0A086A"/>
            <stop offset="1" stop-color="#3FFFDC" stop-opacity="0.8"/>
        </linearGradient>
        <linearGradient id="paint6_linear" x1="412.214" y1="472.319" x2="1456.38" y2="1022.7" gradientUnits="userSpaceOnUse">
            <stop stop-color="#0A086A"/>
            <stop offset="1" stop-color="#3FFFDC" stop-opacity="0.8"/>
        </linearGradient>
        <linearGradient id="paint7_linear" x1="386.835" y1="458.285" x2="1431" y2="1008.67" gradientUnits="userSpaceOnUse">
            <stop stop-color="#0A086A"/>
            <stop offset="1" stop-color="#3FFFDC" stop-opacity="0.8"/>
        </linearGradient>
        <linearGradient id="paint8_linear" x1="361.457" y1="444.25" x2="1405.62" y2="994.634" gradientUnits="userSpaceOnUse">
            <stop stop-color="#0A086A"/>
            <stop offset="1" stop-color="#3FFFDC" stop-opacity="0.8"/>
        </linearGradient>
        <linearGradient id="paint9_linear" x1="336.078" y1="430.216" x2="1380.24" y2="980.6" gradientUnits="userSpaceOnUse">
            <stop stop-color="#0A086A"/>
            <stop offset="1" stop-color="#3FFFDC" stop-opacity="0.8"/>
        </linearGradient>
        <linearGradient id="paint10_linear" x1="310.699" y1="416.181" x2="1354.86" y2="966.565" gradientUnits="userSpaceOnUse">
            <stop stop-color="#0A086A"/>
            <stop offset="1" stop-color="#3FFFDC" stop-opacity="0.8"/>
        </linearGradient>
        <linearGradient id="paint11_linear" x1="285.321" y1="402.146" x2="1329.49" y2="952.531" gradientUnits="userSpaceOnUse">
            <stop stop-color="#0A086A"/>
            <stop offset="1" stop-color="#3FFFDC" stop-opacity="0.8"/>
        </linearGradient>
        <linearGradient id="paint12_linear" x1="259.942" y1="388.112" x2="1304.11" y2="938.496" gradientUnits="userSpaceOnUse">
            <stop stop-color="#0A086A"/>
            <stop offset="1" stop-color="#3FFFDC" stop-opacity="0.8"/>
        </linearGradient>
        <linearGradient id="paint13_linear" x1="234.564" y1="374.078" x2="1278.73" y2="924.462" gradientUnits="userSpaceOnUse">
            <stop stop-color="#0A086A"/>
            <stop offset="1" stop-color="#3FFFDC" stop-opacity="0.8"/>
        </linearGradient>
    </defs>
</svg>
