<svg width="184" height="184" viewBox="0 0 184 184" fill="none" xmlns="http://www.w3.org/2000/svg">
    <path d="M91.697 20.5088C52.1295 20.7389 20.2402 53.0012 20.4703 92.5686C20.7003 132.136 52.9626 164.025 92.5301 163.795C132.098 163.565 163.987 131.303 163.757 91.7355C163.527 52.168 131.264 20.2788 91.697 20.5088Z" stroke="#D9D9D9" stroke-width="2" stroke-miterlimit="10" stroke-linecap="round" stroke-linejoin="round"/>
    <path d="M158.276 64.6357C158.906 66.1699 159.493 67.7257 160.037 69.3249C172.636 106.841 152.414 147.453 114.898 160.052C77.3817 172.651 36.7698 152.429 24.1707 114.913C11.5716 77.3964 31.794 36.7846 69.3101 24.1855C85.4101 18.7889 102.085 19.4247 116.867 24.8654" stroke="url(#paint0_linear)" stroke-width="4" stroke-miterlimit="10" stroke-linecap="round" stroke-linejoin="round"/>
    <path d="M137.607 46.498C112.417 21.3701 71.6261 21.4208 46.4982 46.6112C21.3704 71.8015 21.4211 112.593 46.6114 137.72C71.8018 162.848 112.593 162.798 137.721 137.607C162.848 112.417 162.798 71.6258 137.607 46.498Z" stroke="#D9D9D9" stroke-miterlimit="10" stroke-linecap="round" stroke-linejoin="round"/>
    <path d="M147.276 58.8504C165.65 89.3206 155.863 128.913 125.398 147.308C94.9275 165.682 55.3352 155.895 36.94 125.43" stroke="url(#paint1_linear)" stroke-width="4" stroke-miterlimit="10" stroke-linecap="round" stroke-linejoin="round"/>
    <path d="M106.394 147.979C137.23 140.088 155.831 108.693 147.94 77.8573C140.049 47.0214 108.655 28.4209 77.8187 36.3119C46.9828 44.2028 28.3822 75.5972 36.2732 106.433C44.1642 137.269 75.5585 155.869 106.394 147.979Z" stroke="#D9D9D9" stroke-width="0.5" stroke-miterlimit="10" stroke-linecap="round" stroke-linejoin="round"/>
    <path d="M43.6582 123.339C26.4318 96.5851 34.1384 60.9281 60.887 43.6808C87.641 26.4544 123.298 34.1609 140.545 60.9096" stroke="url(#paint2_linear)" stroke-width="5.5" stroke-miterlimit="10" stroke-linecap="round" stroke-linejoin="round"/>
    <path d="M111.978 86.0247C112.148 85.6859 112.226 85.3056 112.203 84.9245C112.18 84.5433 112.058 84.1758 111.849 83.8614L93.6738 56.6366C93.4879 56.3584 93.2398 56.1311 92.9507 55.9741C92.6616 55.817 92.3401 55.735 92.0138 55.735C91.6874 55.735 91.3659 55.817 91.0768 55.9741C90.7877 56.1311 90.5396 56.3584 90.3538 56.6366L72.1786 83.8614C71.969 84.1756 71.8462 84.5433 71.8236 84.9246C71.801 85.3059 71.8795 85.6864 72.0505 86.0249C72.2214 86.3633 72.4784 86.6468 72.7936 86.8446C73.1088 87.0424 73.4702 87.1471 73.8386 87.1472L110.189 87.1472C110.558 87.1473 110.919 87.0427 111.235 86.8448C111.55 86.647 111.807 86.3633 111.978 86.0247Z" fill="#369DB1"/>
    <path d="M111.978 97.8629C112.148 98.1948 112.226 98.5674 112.203 98.9407C112.18 99.3141 112.058 99.6741 111.849 99.9821L93.6738 126.651C93.4879 126.924 93.2398 127.146 92.9507 127.3C92.6616 127.454 92.3401 127.534 92.0138 127.534C91.6874 127.534 91.3659 127.454 91.0768 127.3C90.7877 127.146 90.5396 126.924 90.3538 126.651L72.1786 99.9821C71.969 99.6743 71.8462 99.3141 71.8236 98.9406C71.801 98.567 71.8795 98.1943 72.0505 97.8628C72.2214 97.5312 72.4784 97.2535 72.7936 97.0597C73.1088 96.8659 73.4702 96.7634 73.8386 96.7633L110.189 96.7633C110.558 96.7632 110.919 96.8657 111.235 97.0595C111.55 97.2533 111.807 97.5312 111.978 97.8629Z" fill="#5D5FEF"/>
    <defs>
        <linearGradient id="paint0_linear" x1="92.2626" y1="165.973" x2="91.9563" y2="18.3017" gradientUnits="userSpaceOnUse">
            <stop stop-color="#5D5FEF"/>
            <stop offset="1" stop-color="#359FAF"/>
        </linearGradient>
        <linearGradient id="paint1_linear" x1="108.103" y1="155.705" x2="89.0292" y2="70.838" gradientUnits="userSpaceOnUse">
            <stop stop-color="#5D5FEF"/>
            <stop offset="1" stop-color="#359FAF"/>
        </linearGradient>
        <linearGradient id="paint2_linear" x1="30.8448" y1="87.4721" x2="140.699" y2="59.3602" gradientUnits="userSpaceOnUse">
            <stop stop-color="#5D5FEF"/>
            <stop offset="1" stop-color="#359FAF"/>
        </linearGradient>
    </defs>
</svg>
