<svg width="257" height="76" viewBox="0 0 257 76" fill="none" xmlns="http://www.w3.org/2000/svg">
    <path d="M129.459 41.3271C124.99 41.3271 121.347 44.7262 121.347 49.4078C121.347 54.0609 124.99 57.4885 129.459 57.4885C133.929 57.4885 137.572 54.0609 137.572 49.4078C137.57 44.7262 133.927 41.3271 129.459 41.3271ZM129.459 54.3079C127.009 54.3079 124.899 52.2882 124.899 49.4097C124.899 46.5008 127.011 44.5115 129.459 44.5115C131.908 44.5115 134.019 46.5008 134.019 49.4097C134.019 52.2863 131.908 54.3079 129.459 54.3079ZM111.762 41.3271C107.293 41.3271 103.651 44.7262 103.651 49.4078C103.651 54.0609 107.293 57.4885 111.762 57.4885C116.233 57.4885 119.875 54.0609 119.875 49.4078C119.875 44.7262 116.233 41.3271 111.762 41.3271ZM111.762 54.3079C109.313 54.3079 107.202 52.2882 107.202 49.4097C107.202 46.5008 109.315 44.5115 111.762 44.5115C114.211 44.5115 116.322 46.5008 116.322 49.4097C116.324 52.2863 114.211 54.3079 111.762 54.3079ZM90.7138 43.8085V47.2361H98.918C98.6729 49.1646 98.0307 50.5725 97.0503 51.551C95.8571 52.7442 93.9894 54.0609 90.7138 54.0609C85.6636 54.0609 81.7154 49.9892 81.7154 44.939C81.7154 39.8888 85.6636 35.8171 90.7138 35.8171C93.4384 35.8171 95.4277 36.8887 96.8964 38.2662L99.3151 35.8475C97.2631 33.8886 94.5404 32.3895 90.7138 32.3895C83.7959 32.3895 77.98 38.0211 77.98 44.939C77.98 51.8569 83.7959 57.4885 90.7138 57.4885C94.4473 57.4885 97.265 56.263 99.4671 53.9678C101.732 51.703 102.437 48.5186 102.437 45.9479C102.437 45.1537 102.376 44.4184 102.252 43.8066H90.7138V43.8085ZM176.799 46.4704C176.126 44.6654 174.074 41.3271 169.881 41.3271C165.718 41.3271 162.258 44.6027 162.258 49.4078C162.258 53.9374 165.688 57.4885 170.278 57.4885C173.981 57.4885 176.124 55.2237 177.014 53.907L174.259 52.0697C173.341 53.4168 172.085 54.3041 170.278 54.3041C168.473 54.3041 167.187 53.4776 166.36 51.855L177.166 47.3862L176.799 46.4704ZM165.779 49.1646C165.688 46.041 168.198 44.4507 170.005 44.4507C171.412 44.4507 172.606 45.1556 173.005 46.1645L165.779 49.1646ZM156.995 57.0002H160.544V33.2483H156.995V57.0002ZM151.177 43.134H151.056C150.26 42.184 148.728 41.3271 146.802 41.3271C142.76 41.3271 139.057 44.8782 139.057 49.4401C139.057 53.9697 142.76 57.4904 146.802 57.4904C148.73 57.4904 150.26 56.6335 151.056 55.655H151.177V56.8178C151.177 59.9091 149.524 61.5621 146.863 61.5621C144.689 61.5621 143.342 60.0022 142.791 58.6855L139.7 59.9718C140.587 62.1131 142.943 64.7465 146.863 64.7465C151.025 64.7465 154.546 62.2974 154.546 56.3276V41.8192H151.179V43.134H151.177ZM147.108 54.3079C144.659 54.3079 142.608 52.2559 142.608 49.4401C142.608 46.592 144.659 44.5115 147.108 44.5115C149.524 44.5115 151.423 46.592 151.423 49.4401C151.423 52.2559 149.524 54.3079 147.108 54.3079ZM193.432 33.2483H184.937V57.0002H188.48V48.0018H193.43C197.359 48.0018 201.223 45.1575 201.223 40.626C201.223 36.0945 197.361 33.2483 193.432 33.2483ZM193.523 44.6958H188.48V36.5543H193.523C196.173 36.5543 197.678 38.7488 197.678 40.626C197.678 42.4652 196.173 44.6958 193.523 44.6958ZM215.434 41.2853C212.867 41.2853 210.209 42.4158 209.108 44.9219L212.255 46.2348C212.927 44.9219 214.181 44.4925 215.494 44.4925C217.328 44.4925 219.192 45.5926 219.222 47.5477V47.7928C218.58 47.4261 217.204 46.877 215.525 46.877C212.133 46.877 208.679 48.7409 208.679 52.2236C208.679 55.4023 211.461 57.4486 214.577 57.4486C216.959 57.4486 218.274 56.3789 219.099 55.1249H219.22V56.9584H222.644V47.8517C222.646 43.6375 219.496 41.2853 215.434 41.2853ZM215.004 54.3022C213.845 54.3022 212.224 53.7208 212.224 52.2844C212.224 50.4509 214.242 49.7479 215.985 49.7479C217.541 49.7479 218.276 50.0842 219.222 50.5421C218.947 52.7442 217.052 54.3022 215.004 54.3022ZM235.112 41.804L231.048 52.102H230.926L226.708 41.804H222.889L229.214 56.1965L225.608 64.2031H229.305L239.054 41.804H235.112ZM203.18 57.0002H206.724V33.2483H203.18V57.0002Z" fill="white"/>
    <path d="M90.0942 19.4616C90.0942 21.0538 89.623 22.3211 88.6787 23.2673C87.6071 24.3921 86.2087 24.9545 84.4911 24.9545C82.8457 24.9545 81.4454 24.3845 80.2959 23.2445C79.1445 22.1026 78.5688 20.689 78.5688 19.0018C78.5688 17.3127 79.1445 15.8991 80.2959 14.7591C81.4454 13.6172 82.8457 13.0472 84.4911 13.0472C85.3081 13.0472 86.089 13.2068 86.83 13.5241C87.5729 13.8433 88.1676 14.267 88.6122 14.7971L87.6109 15.8003C86.8566 14.8978 85.8173 14.4475 84.4892 14.4475C83.2884 14.4475 82.251 14.8693 81.3751 15.7129C80.4992 16.5565 80.0622 17.6528 80.0622 18.9999C80.0622 20.347 80.4992 21.4433 81.3751 22.2869C82.251 23.1305 83.2884 23.5523 84.4892 23.5523C85.7622 23.5523 86.8243 23.1286 87.6736 22.2793C88.2246 21.7264 88.5438 20.9569 88.6293 19.9708H84.4892V18.6009H90.0125C90.0695 18.8992 90.0942 19.1861 90.0942 19.4616Z" fill="white"/>
    <path d="M98.8534 14.7003H93.6626V18.3141H98.3442V19.684H93.6626V23.2978H98.8534V24.7H92.1977V13.3H98.8534V14.7003Z" fill="white"/>
    <path d="M105.03 24.7H103.565V14.7003H100.381V13.3H108.215V14.7003H105.03V24.7Z" fill="white"/>
    <path d="M113.882 24.7V13.3H115.347V24.7H113.882Z" fill="white"/>
    <path d="M121.843 24.7H120.379V14.7003H117.194V13.3H125.028V14.7003H121.843V24.7Z" fill="white"/>
    <path d="M139.857 23.2275C138.736 24.3789 137.343 24.9546 135.677 24.9546C134.011 24.9546 132.618 24.3789 131.499 23.2275C130.378 22.0761 129.819 20.6663 129.819 19C129.819 17.3337 130.378 15.9239 131.499 14.7725C132.618 13.6211 134.011 13.0435 135.677 13.0435C137.334 13.0435 138.725 13.623 139.849 14.7801C140.974 15.9372 141.537 17.3432 141.537 19C141.537 20.6663 140.976 22.0761 139.857 23.2275ZM132.58 22.2718C133.424 23.1268 134.455 23.5524 135.677 23.5524C136.899 23.5524 137.932 23.1249 138.774 22.2718C139.618 21.4168 140.041 20.3262 140.041 19C140.041 17.6738 139.618 16.5832 138.774 15.7282C137.932 14.8732 136.899 14.4476 135.677 14.4476C134.455 14.4476 133.424 14.8751 132.58 15.7282C131.738 16.5832 131.315 17.6738 131.315 19C131.315 20.3262 131.738 21.4168 132.58 22.2718Z" fill="white"/>
    <path d="M143.592 24.7V13.3H145.375L150.915 22.1673H150.978L150.915 19.9709V13.3H152.38V24.7H150.85L145.053 15.4014H144.991L145.053 17.5978V24.7H143.592Z" fill="white"/>
    <path d="M90.0942 19.4616C90.0942 21.0538 89.623 22.3211 88.6787 23.2673C87.6071 24.3921 86.2087 24.9545 84.4911 24.9545C82.8457 24.9545 81.4454 24.3845 80.2959 23.2445C79.1445 22.1026 78.5688 20.689 78.5688 19.0018C78.5688 17.3127 79.1445 15.8991 80.2959 14.7591C81.4454 13.6172 82.8457 13.0472 84.4911 13.0472C85.3081 13.0472 86.089 13.2068 86.83 13.5241C87.5729 13.8433 88.1676 14.267 88.6122 14.7971L87.6109 15.8003C86.8566 14.8978 85.8173 14.4475 84.4892 14.4475C83.2884 14.4475 82.251 14.8693 81.3751 15.7129C80.4992 16.5565 80.0622 17.6528 80.0622 18.9999C80.0622 20.347 80.4992 21.4433 81.3751 22.2869C82.251 23.1305 83.2884 23.5523 84.4892 23.5523C85.7622 23.5523 86.8243 23.1286 87.6736 22.2793C88.2246 21.7264 88.5438 20.9569 88.6293 19.9708H84.4892V18.6009H90.0125C90.0695 18.8992 90.0942 19.1861 90.0942 19.4616Z" stroke="black" stroke-width="0.38" stroke-miterlimit="10"/>
    <path d="M98.8534 14.7003H93.6626V18.3141H98.3442V19.684H93.6626V23.2978H98.8534V24.7H92.1977V13.3H98.8534V14.7003Z" stroke="black" stroke-width="0.38" stroke-miterlimit="10"/>
    <path d="M105.03 24.7H103.565V14.7003H100.381V13.3H108.215V14.7003H105.03V24.7Z" stroke="black" stroke-width="0.38" stroke-miterlimit="10"/>
    <path d="M113.882 24.7V13.3H115.347V24.7H113.882Z" stroke="black" stroke-width="0.38" stroke-miterlimit="10"/>
    <path d="M121.843 24.7H120.379V14.7003H117.194V13.3H125.028V14.7003H121.843V24.7Z" stroke="black" stroke-width="0.38" stroke-miterlimit="10"/>
    <path d="M139.857 23.2275C138.736 24.3789 137.343 24.9546 135.677 24.9546C134.011 24.9546 132.618 24.3789 131.499 23.2275C130.378 22.0761 129.819 20.6663 129.819 19C129.819 17.3337 130.378 15.9239 131.499 14.7725C132.618 13.6211 134.011 13.0435 135.677 13.0435C137.334 13.0435 138.725 13.623 139.849 14.7801C140.974 15.9372 141.537 17.3432 141.537 19C141.537 20.6663 140.976 22.0761 139.857 23.2275ZM132.58 22.2718C133.424 23.1268 134.455 23.5524 135.677 23.5524C136.899 23.5524 137.932 23.1249 138.774 22.2718C139.618 21.4168 140.041 20.3262 140.041 19C140.041 17.6738 139.618 16.5832 138.774 15.7282C137.932 14.8732 136.899 14.4476 135.677 14.4476C134.455 14.4476 133.424 14.8751 132.58 15.7282C131.738 16.5832 131.315 17.6738 131.315 19C131.315 20.3262 131.738 21.4168 132.58 22.2718Z" stroke="black" stroke-width="0.38" stroke-miterlimit="10"/>
    <path d="M143.592 24.7V13.3H145.375L150.915 22.1673H150.978L150.915 19.9709V13.3H152.38V24.7H150.85L145.053 15.4014H144.991L145.053 17.5978V24.7H143.592Z" stroke="black" stroke-width="0.38" stroke-miterlimit="10"/>
    <path fill-rule="evenodd" clip-rule="evenodd" d="M19.2975 15.1365C19.0731 15.6447 18.9492 16.2673 18.9492 16.9916V59.0119C18.9492 59.7378 19.0733 60.3605 19.2979 60.8685L42.1621 38.0011L19.2975 15.1365ZM20.6183 62.2352C21.4658 62.598 22.5715 62.483 23.7771 61.7993L50.6753 46.5144L43.5056 39.3446L20.6183 62.2352ZM52.39 45.542L60.829 40.7473C63.4833 39.2368 63.4833 36.7687 60.829 35.2601L52.3862 30.4627L44.849 38.001L52.39 45.542ZM50.6729 29.4891L23.7771 14.2062C22.5714 13.521 21.4656 13.4067 20.618 13.7701L43.5055 36.6575L50.6729 29.4891Z" fill="white"/>
    <path d="M9.5 1.9H247V-1.9H9.5V1.9ZM254.6 9.5V66.5H258.4V9.5H254.6ZM247 74.1H9.49999V77.9H247V74.1ZM1.9 66.5V9.5H-1.9V66.5H1.9ZM9.49999 74.1C5.30263 74.1 1.9 70.6974 1.9 66.5H-1.9C-1.9 72.796 3.20395 77.9 9.49999 77.9V74.1ZM254.6 66.5C254.6 70.6974 251.197 74.1 247 74.1V77.9C253.296 77.9 258.4 72.796 258.4 66.5H254.6ZM247 1.9C251.197 1.9 254.6 5.30263 254.6 9.5H258.4C258.4 3.20396 253.296 -1.9 247 -1.9V1.9ZM9.5 -1.9C3.20395 -1.9 -1.9 3.20395 -1.9 9.5H1.9C1.9 5.30264 5.30264 1.9 9.5 1.9V-1.9Z" fill="white"/>
</svg>
