<svg width="607" height="854" viewBox="0 0 607 854" fill="none" xmlns="http://www.w3.org/2000/svg">
    <g opacity="0.2">
        <rect x="-9.40771" y="60.6223" width="13.0059" height="804.691" fill="#5758BB"/>
        <rect x="4.80005" y="115.372" width="13.0059" height="749.943" fill="#5A5BBC"/>
        <rect x="19.0007" y="11.386" width="13.0059" height="853.927" fill="#5C5DBD"/>
        <rect x="33.2087" y="36.5181" width="13.0059" height="828.795" fill="#5F60BE"/>
        <rect x="47.4165" y="120.977" width="13.0059" height="744.337" fill="#5F60BE"/>
        <rect x="61.6172" y="111.167" width="13.0059" height="754.147" fill="#6263BF"/>
        <rect x="75.8176" y="230.941" width="13.0059" height="634.373" fill="#6364C0"/>
        <rect x="90.0203" y="36.5181" width="13.0059" height="828.795" fill="#6666C1"/>
        <rect x="104.226" y="53.6157" width="13.0059" height="811.698" fill="#6666C1"/>
        <rect x="118.434" y="227.297" width="13.0059" height="638.016" fill="#6969C2"/>
        <rect x="132.635" y="112.289" width="13.0059" height="753.026" fill="#696AC2"/>
        <rect x="146.848" y="200.951" width="13.0059" height="664.363" fill="#6C6DC4"/>
        <rect x="161.045" y="75.5706" width="13.0059" height="789.743" fill="#6D6EC4"/>
        <rect x="175.251" y="38.854" width="13.0059" height="826.46" fill="#6D6EC4"/>
        <rect x="189.459" y="90.7068" width="13.0059" height="774.607" fill="#6D6EC4"/>
        <rect x="203.66" y="193.104" width="13.0059" height="672.211" fill="#6D6EC4"/>
        <rect x="217.862" y="96.7786" width="13.0059" height="768.535" fill="#7071C5"/>
        <rect x="232.068" y="208.612" width="13.0059" height="656.702" fill="#7172C5"/>
        <rect x="246.276" y="227.578" width="13.0059" height="637.736" fill="#7172C6"/>
        <rect x="260.477" y="121.351" width="13.0059" height="743.963" fill="#7273C6"/>
        <rect x="274.679" y="170.961" width="13.0059" height="694.353" fill="#7374C6"/>
        <rect x="288.885" y="233.931" width="13.0059" height="631.383" fill="#7475C7"/>
        <rect x="303.088" y="103.506" width="13.0059" height="761.808" fill="#7475C7"/>
        <rect x="317.288" y="161.524" width="13.0059" height="703.789" fill="#7576C7"/>
        <rect x="331.502" y="216.74" width="13.0059" height="648.574" fill="#7676C7"/>
        <rect x="345.702" y="185.535" width="13.0059" height="679.778" fill="#7677C8"/>
        <rect x="359.91" y="254.298" width="13.0059" height="611.016" fill="#7677C8"/>
        <rect x="374.113" y="109.672" width="13.0059" height="755.642" fill="#7878C8"/>
        <rect x="388.319" y="213.003" width="13.0059" height="652.311" fill="#7879C8"/>
        <rect x="402.521" y="269.339" width="13.0059" height="595.974" fill="#797AC9"/>
        <rect x="416.727" y="344.269" width="13.0059" height="521.045" fill="#7B7CCA"/>
        <rect x="430.93" y="255.98" width="13.0059" height="609.334" fill="#7C7DCA"/>
        <rect x="445.136" y="306.617" width="13.0059" height="558.696" fill="#7C7DCA"/>
        <rect x="459.338" y="204.875" width="13.0059" height="660.439" fill="#7D7DCA"/>
        <rect x="473.544" y="242.619" width="13.0059" height="622.694" fill="#7D7ECA"/>
        <rect x="487.747" y="327.545" width="13.0059" height="537.769" fill="#7D7ECA"/>
        <rect x="501.947" y="168.344" width="13.0059" height="696.969" fill="#8181CC"/>
        <rect x="516.161" y="208.893" width="13.0059" height="656.422" fill="#8182CC"/>
        <rect x="530.361" y="324.462" width="13.0059" height="540.852" fill="#8383CD"/>
        <rect x="544.569" y="226.829" width="13.0059" height="638.483" fill="#8384CD"/>
        <rect x="558.77" y="269.62" width="13.0059" height="595.694" fill="#8484CD"/>
        <rect x="572.972" y="361.178" width="13.0059" height="504.135" fill="#8485CD"/>
        <rect x="587.18" y="268.031" width="13.0059" height="597.282" fill="#8485CD"/>
        <rect x="601.381" y="186.469" width="13.0059" height="678.844" fill="#8585CD"/>
    </g>
    <rect width="2303.51" height="865.313" transform="matrix(-1 8.74228e-08 8.74228e-08 1 2290.51 0)" fill="url(#paint0_linear)"/>
    <defs>
        <linearGradient id="paint0_linear" x1="0" y1="865.313" x2="2303.51" y2="865.313" gradientUnits="userSpaceOnUse">
            <stop stop-color="#22283C" stop-opacity="0"/>
            <stop offset="0.255208" stop-color="#22283C"/>
            <stop offset="0.682292" stop-color="#22283C"/>
            <stop offset="1" stop-color="#22283C" stop-opacity="0"/>
        </linearGradient>
    </defs>
</svg>
