<svg width="576" height="320" viewBox="0 0 576 320" fill="none" xmlns="http://www.w3.org/2000/svg">
    <g filter="url(#filter0_dd)">
        <path d="M50.1719 46.8523C50.1719 43.0679 53.2404 40 57.0257 40H518.518C522.303 40 525.372 43.0679 525.372 46.8523V247.853C525.372 251.637 522.303 254.705 518.518 254.705H57.0257C53.2404 254.705 50.1719 251.637 50.1719 247.853V46.8523Z" fill="#191E2C"/>
        <path d="M520.285 248.091C520.285 249.496 519.275 250.635 518.029 250.635L450.295 250.635C449.049 250.635 448.038 249.496 448.038 248.091C448.038 246.686 449.049 245.547 450.295 245.547L518.029 245.547C519.275 245.547 520.285 246.686 520.285 248.091Z" fill="#EA712C"/>
        <path d="M441.93 248.091C441.93 249.496 440.905 250.635 439.642 250.635L370.953 250.635C369.69 250.635 368.665 249.496 368.665 248.091C368.665 246.686 369.69 245.547 370.953 245.547L439.642 245.547C440.905 245.547 441.93 246.686 441.93 248.091Z" fill="#EA712C"/>
        <path d="M363.582 248.091C363.582 249.496 362.558 250.635 361.294 250.635L292.606 250.635C291.342 250.635 290.318 249.496 290.318 248.091C290.318 246.686 291.342 245.547 292.606 245.547L361.294 245.547C362.558 245.547 363.582 246.686 363.582 248.091Z" fill="#D5CE41"/>
        <path d="M285.227 248.091C285.227 249.496 284.202 250.635 282.939 250.635L214.25 250.635C212.987 250.635 211.962 249.496 211.962 248.091C211.962 246.686 212.987 245.547 214.25 245.547L282.939 245.547C284.202 245.547 285.227 246.686 285.227 248.091Z" fill="#D5CE41"/>
        <path d="M206.875 248.091C206.875 249.496 205.851 250.635 204.587 250.635L135.899 250.635C134.635 250.635 133.611 249.496 133.611 248.091C133.611 246.686 134.635 245.547 135.899 245.547L204.587 245.547C205.851 245.547 206.875 246.686 206.875 248.091Z" fill="#D5CE41"/>
        <path d="M127.508 248.091C127.508 249.496 126.484 250.635 125.22 250.635L56.5314 250.635C55.2679 250.635 54.2436 249.496 54.2436 248.091C54.2436 246.686 55.2679 245.547 56.5314 245.547L125.22 245.547C126.484 245.547 127.508 246.686 127.508 248.091Z" fill="#D5CE41"/>
        <path fill-rule="evenodd" clip-rule="evenodd" d="M107.14 191.616C98.7142 191.616 91.8914 198.454 91.8914 206.88C91.8914 215.305 98.7142 222.143 107.14 222.143C115.58 222.143 122.418 215.305 122.418 206.88C122.418 198.454 115.58 191.616 107.14 191.616ZM107.155 219.091C100.408 219.091 94.9441 213.626 94.9441 206.88C94.9441 200.133 100.408 194.669 107.155 194.669C113.901 194.669 119.366 200.133 119.366 206.88C119.366 213.626 113.901 219.091 107.155 219.091ZM105.628 199.248H107.918V207.261L114.786 211.337L113.642 213.214L105.628 208.406V199.248Z" fill="#8C8E95"/>
        <path fill-rule="evenodd" clip-rule="evenodd" d="M235.365 191.616C226.94 191.616 220.102 198.454 220.102 206.88C220.102 215.305 226.94 222.143 235.365 222.143C243.79 222.143 250.628 215.305 250.628 206.88C250.628 198.454 243.79 191.616 235.365 191.616ZM241.837 200.408C240.051 198.622 237.716 197.722 235.365 197.722V206.88L228.893 213.351C232.465 216.923 238.265 216.923 241.852 213.351C245.424 209.78 245.424 203.98 241.837 200.408ZM223.154 206.88C223.154 213.626 228.619 219.09 235.365 219.09C242.111 219.09 247.576 213.626 247.576 206.88C247.576 200.133 242.111 194.669 235.365 194.669C228.619 194.669 223.154 200.133 223.154 206.88Z" fill="#8C8E95"/>
        <path fill-rule="evenodd" clip-rule="evenodd" d="M379.047 206.879L386.068 213.901L383.931 216.037L374.773 206.879L383.931 197.721L386.068 199.858L379.047 206.879ZM401.026 206.879L394.005 213.901L396.142 216.037L405.3 206.879L396.142 197.721L394.005 199.858L401.026 206.879Z" fill="#8C8E95"/>
        <path d="M462.397 131.813C464.156 128.789 468.554 128.789 470.313 131.813L488.122 162.427C489.881 165.45 487.683 169.23 484.165 169.23L448.545 169.23C445.028 169.23 442.829 165.45 444.588 162.427L462.397 131.813Z" fill="#1BC53C"/>
        <path d="M415.477 97.3899C415.477 94.9171 417.527 92.9126 420.056 92.9126C422.584 92.9126 424.635 94.9171 424.635 97.3899V99.6285C424.635 102.101 422.584 104.106 420.056 104.106C417.527 104.106 415.477 102.101 415.477 99.6285V97.3899Z" fill="white"/>
        <path d="M431.758 92.4769C431.758 89.9078 433.808 87.8252 436.337 87.8252C438.866 87.8252 440.916 89.9078 440.916 92.4769V99.4544C440.916 102.024 438.866 104.106 436.337 104.106C433.808 104.106 431.758 102.024 431.758 99.4544V92.4769Z" fill="white"/>
        <path d="M448.039 88.2774C448.039 85.7797 450.089 83.7549 452.618 83.7549C455.147 83.7549 457.197 85.7797 457.197 88.2774V99.5836C457.197 102.081 455.147 104.106 452.618 104.106C450.089 104.106 448.039 102.081 448.039 99.5836V88.2774Z" fill="white"/>
        <path d="M463.301 83.2923C463.301 80.7378 465.351 78.667 467.88 78.667C470.408 78.667 472.459 80.7378 472.459 83.2923V99.4807C472.459 102.035 470.408 104.106 467.88 104.106C465.351 104.106 463.301 102.035 463.301 99.4807V83.2923Z" fill="white"/>
        <path d="M479.581 79.1368C479.581 76.6295 481.632 74.5969 484.16 74.5969C486.689 74.5969 488.739 76.6295 488.739 79.1368V99.5663C488.739 102.074 486.689 104.106 484.16 104.106C481.632 104.106 479.581 102.074 479.581 99.5663V79.1368Z" fill="white"/>
    </g>
    <path d="M106.359 97.84V102H89.0154V79.6H105.943V83.76H94.1674V88.624H104.567V92.656H94.1674V97.84H106.359ZM120.436 102.384C117.236 102.384 114.74 101.499 112.948 99.728C111.177 97.9573 110.292 95.4293 110.292 92.144V79.6H115.476V91.952C115.476 95.9627 117.14 97.968 120.468 97.968C122.089 97.968 123.327 97.488 124.18 96.528C125.033 95.5467 125.46 94.0213 125.46 91.952V79.6H130.58V92.144C130.58 95.4293 129.684 97.9573 127.892 99.728C126.121 101.499 123.636 102.384 120.436 102.384ZM149.975 102L145.655 95.76H145.399H140.887V102H135.703V79.6H145.399C147.383 79.6 149.1 79.9307 150.551 80.592C152.023 81.2533 153.154 82.192 153.943 83.408C154.732 84.624 155.127 86.064 155.127 87.728C155.127 89.392 154.722 90.832 153.911 92.048C153.122 93.2427 151.991 94.16 150.519 94.8L155.543 102H149.975ZM149.879 87.728C149.879 86.4693 149.474 85.5093 148.663 84.848C147.852 84.1653 146.668 83.824 145.111 83.824H140.887V91.632H145.111C146.668 91.632 147.852 91.2907 148.663 90.608C149.474 89.9253 149.879 88.9653 149.879 87.728ZM169.186 102.384C165.986 102.384 163.49 101.499 161.698 99.728C159.927 97.9573 159.042 95.4293 159.042 92.144V79.6H164.226V91.952C164.226 95.9627 165.89 97.968 169.218 97.968C170.839 97.968 172.077 97.488 172.93 96.528C173.783 95.5467 174.21 94.0213 174.21 91.952V79.6H179.33V92.144C179.33 95.4293 178.434 97.9573 176.642 99.728C174.871 101.499 172.386 102.384 169.186 102.384ZM191.813 102.384C190.042 102.384 188.325 102.149 186.661 101.68C185.018 101.189 183.696 100.56 182.693 99.792L184.453 95.888C185.413 96.592 186.554 97.1573 187.877 97.584C189.2 98.0107 190.522 98.224 191.845 98.224C193.317 98.224 194.405 98.0107 195.109 97.584C195.813 97.136 196.165 96.5493 196.165 95.824C196.165 95.2907 195.952 94.8533 195.525 94.512C195.12 94.1493 194.586 93.8613 193.925 93.648C193.285 93.4347 192.41 93.2 191.301 92.944C189.594 92.5387 188.197 92.1333 187.109 91.728C186.021 91.3227 185.082 90.672 184.293 89.776C183.525 88.88 183.141 87.6853 183.141 86.192C183.141 84.8907 183.493 83.7173 184.197 82.672C184.901 81.6053 185.957 80.7627 187.365 80.144C188.794 79.5253 190.533 79.216 192.581 79.216C194.01 79.216 195.408 79.3867 196.773 79.728C198.138 80.0693 199.333 80.56 200.357 81.2L198.757 85.136C196.688 83.9627 194.618 83.376 192.549 83.376C191.098 83.376 190.021 83.6107 189.317 84.08C188.634 84.5493 188.293 85.168 188.293 85.936C188.293 86.704 188.688 87.28 189.477 87.664C190.288 88.0267 191.514 88.3893 193.157 88.752C194.864 89.1573 196.261 89.5627 197.349 89.968C198.437 90.3733 199.365 91.0133 200.133 91.888C200.922 92.7627 201.317 93.9467 201.317 95.44C201.317 96.72 200.954 97.8933 200.229 98.96C199.525 100.005 198.458 100.837 197.029 101.456C195.6 102.075 193.861 102.384 191.813 102.384ZM204.859 79.6H215.035C217.467 79.6 219.611 80.0693 221.467 81.008C223.344 81.9253 224.795 83.2267 225.819 84.912C226.864 86.5973 227.387 88.56 227.387 90.8C227.387 93.04 226.864 95.0027 225.819 96.688C224.795 98.3733 223.344 99.6853 221.467 100.624C219.611 101.541 217.467 102 215.035 102H204.859V79.6ZM214.779 97.744C217.019 97.744 218.8 97.1253 220.123 95.888C221.467 94.6293 222.139 92.9333 222.139 90.8C222.139 88.6667 221.467 86.9813 220.123 85.744C218.8 84.4853 217.019 83.856 214.779 83.856H210.043V97.744H214.779Z" fill="white"/>
    <path d="M106.363 126.8V166H97.2906V134.08H89.4506V126.8H106.363ZM118.324 166.448C116.794 166.448 115.506 165.925 114.46 164.88C113.415 163.835 112.892 162.528 112.892 160.96C112.892 159.355 113.415 158.067 114.46 157.096C115.506 156.088 116.794 155.584 118.324 155.584C119.855 155.584 121.143 156.088 122.188 157.096C123.234 158.067 123.756 159.355 123.756 160.96C123.756 162.528 123.234 163.835 122.188 164.88C121.143 165.925 119.855 166.448 118.324 166.448ZM142.074 126.8V166H133.002V134.08H125.162V126.8H142.074ZM175.707 145.392C177.649 146.363 179.123 147.632 180.131 149.2C181.177 150.768 181.699 152.579 181.699 154.632C181.699 157.059 181.009 159.187 179.627 161.016C178.246 162.808 176.305 164.208 173.803 165.216C171.302 166.187 168.409 166.672 165.123 166.672C161.838 166.672 158.945 166.187 156.443 165.216C153.979 164.208 152.057 162.808 150.675 161.016C149.331 159.187 148.659 157.059 148.659 154.632C148.659 152.579 149.163 150.768 150.171 149.2C151.217 147.632 152.691 146.363 154.595 145.392C153.139 144.496 152.019 143.376 151.235 142.032C150.451 140.651 150.059 139.083 150.059 137.328C150.059 135.051 150.694 133.072 151.963 131.392C153.233 129.712 155.006 128.424 157.283 127.528C159.561 126.595 162.174 126.128 165.123 126.128C168.11 126.128 170.742 126.595 173.019 127.528C175.334 128.424 177.126 129.712 178.395 131.392C179.665 133.072 180.299 135.051 180.299 137.328C180.299 139.083 179.907 140.651 179.123 142.032C178.339 143.376 177.201 144.496 175.707 145.392ZM165.123 132.792C163.294 132.792 161.819 133.24 160.699 134.136C159.617 134.995 159.075 136.189 159.075 137.72C159.075 139.213 159.617 140.389 160.699 141.248C161.782 142.107 163.257 142.536 165.123 142.536C166.99 142.536 168.483 142.107 169.603 141.248C170.723 140.389 171.283 139.213 171.283 137.72C171.283 136.189 170.723 134.995 169.603 134.136C168.483 133.24 166.99 132.792 165.123 132.792ZM165.123 160.008C167.401 160.008 169.193 159.504 170.499 158.496C171.843 157.451 172.515 156.069 172.515 154.352C172.515 152.635 171.843 151.272 170.499 150.264C169.193 149.256 167.401 148.752 165.123 148.752C162.883 148.752 161.11 149.256 159.803 150.264C158.497 151.272 157.843 152.635 157.843 154.352C157.843 156.107 158.497 157.488 159.803 158.496C161.11 159.504 162.883 160.008 165.123 160.008ZM202.652 166.672C199.404 166.672 196.511 165.869 193.972 164.264C191.433 162.659 189.436 160.344 187.98 157.32C186.561 154.259 185.852 150.619 185.852 146.4C185.852 142.181 186.561 138.56 187.98 135.536C189.436 132.475 191.433 130.141 193.972 128.536C196.511 126.931 199.404 126.128 202.652 126.128C205.9 126.128 208.793 126.931 211.332 128.536C213.871 130.141 215.849 132.475 217.268 135.536C218.724 138.56 219.452 142.181 219.452 146.4C219.452 150.619 218.724 154.259 217.268 157.32C215.849 160.344 213.871 162.659 211.332 164.264C208.793 165.869 205.9 166.672 202.652 166.672ZM202.652 159C205.041 159 206.908 157.973 208.252 155.92C209.633 153.867 210.324 150.693 210.324 146.4C210.324 142.107 209.633 138.933 208.252 136.88C206.908 134.827 205.041 133.8 202.652 133.8C200.3 133.8 198.433 134.827 197.052 136.88C195.708 138.933 195.036 142.107 195.036 146.4C195.036 150.693 195.708 153.867 197.052 155.92C198.433 157.973 200.3 159 202.652 159ZM242.732 141.416C245.233 141.416 247.51 141.92 249.564 142.928C251.617 143.936 253.241 145.373 254.436 147.24C255.63 149.069 256.228 151.197 256.228 153.624C256.228 156.237 255.574 158.533 254.268 160.512C252.961 162.491 251.169 164.021 248.892 165.104C246.652 166.149 244.15 166.672 241.388 166.672C235.9 166.672 231.606 164.992 228.508 161.632C225.409 158.272 223.86 153.475 223.86 147.24C223.86 142.797 224.7 138.989 226.38 135.816C228.06 132.643 230.393 130.235 233.38 128.592C236.404 126.949 239.894 126.128 243.852 126.128C245.942 126.128 247.94 126.371 249.844 126.856C251.785 127.304 253.428 127.957 254.772 128.816L251.412 135.48C249.47 134.173 247.025 133.52 244.076 133.52C240.753 133.52 238.121 134.491 236.18 136.432C234.238 138.373 233.193 141.192 233.044 144.888C235.358 142.573 238.588 141.416 242.732 141.416ZM240.884 159.896C242.825 159.896 244.393 159.373 245.588 158.328C246.82 157.283 247.436 155.864 247.436 154.072C247.436 152.28 246.82 150.861 245.588 149.816C244.393 148.733 242.788 148.192 240.772 148.192C238.793 148.192 237.169 148.752 235.9 149.872C234.63 150.955 233.996 152.355 233.996 154.072C233.996 155.789 234.612 157.189 235.844 158.272C237.076 159.355 238.756 159.896 240.884 159.896ZM295.412 157.768H289.028V166H280.18V157.768H259.068V151.664L277.548 126.8H287.068L269.932 150.376H280.46V143.04H289.028V150.376H295.412V157.768Z" fill="#1BC53C"/>
    <path opacity="0.5" d="M429.697 216.3C427.913 216.3 426.297 215.917 424.847 215.15C423.413 214.367 422.28 213.292 421.447 211.925C420.63 210.542 420.222 208.983 420.222 207.25C420.222 205.517 420.63 203.967 421.447 202.6C422.28 201.217 423.413 200.142 424.847 199.375C426.297 198.592 427.922 198.2 429.722 198.2C431.238 198.2 432.605 198.467 433.822 199C435.055 199.533 436.088 200.3 436.922 201.3L434.322 203.7C433.138 202.333 431.672 201.65 429.922 201.65C428.838 201.65 427.872 201.892 427.022 202.375C426.172 202.842 425.505 203.5 425.022 204.35C424.555 205.2 424.322 206.167 424.322 207.25C424.322 208.333 424.555 209.3 425.022 210.15C425.505 211 426.172 211.667 427.022 212.15C427.872 212.617 428.838 212.85 429.922 212.85C431.672 212.85 433.138 212.158 434.322 210.775L436.922 213.175C436.088 214.192 435.055 214.967 433.822 215.5C432.588 216.033 431.213 216.3 429.697 216.3ZM447.665 216.3C445.882 216.3 444.265 215.917 442.815 215.15C441.382 214.367 440.249 213.292 439.415 211.925C438.599 210.542 438.19 208.983 438.19 207.25C438.19 205.517 438.599 203.967 439.415 202.6C440.249 201.217 441.382 200.142 442.815 199.375C444.265 198.592 445.89 198.2 447.69 198.2C449.207 198.2 450.574 198.467 451.79 199C453.024 199.533 454.057 200.3 454.89 201.3L452.29 203.7C451.107 202.333 449.64 201.65 447.89 201.65C446.807 201.65 445.84 201.892 444.99 202.375C444.14 202.842 443.474 203.5 442.99 204.35C442.524 205.2 442.29 206.167 442.29 207.25C442.29 208.333 442.524 209.3 442.99 210.15C443.474 211 444.14 211.667 444.99 212.15C445.84 212.617 446.807 212.85 447.89 212.85C449.64 212.85 451.107 212.158 452.29 210.775L454.89 213.175C454.057 214.192 453.024 214.967 451.79 215.5C450.557 216.033 449.182 216.3 447.665 216.3ZM457.625 198.5H461.675V216H457.625V198.5Z" fill="white"/>
    <path opacity="0.5" d="M267.988 205.075C270.455 205.075 272.272 205.567 273.438 206.55C274.622 207.533 275.213 208.85 275.213 210.5C275.213 211.567 274.947 212.542 274.413 213.425C273.88 214.292 273.063 214.992 271.963 215.525C270.88 216.042 269.538 216.3 267.938 216.3C266.705 216.3 265.488 216.142 264.288 215.825C263.105 215.492 262.097 215.025 261.263 214.425L262.863 211.325C263.53 211.825 264.297 212.217 265.163 212.5C266.03 212.767 266.922 212.9 267.838 212.9C268.855 212.9 269.655 212.7 270.238 212.3C270.822 211.9 271.113 211.342 271.113 210.625C271.113 209.875 270.805 209.308 270.188 208.925C269.588 208.542 268.538 208.35 267.038 208.35H262.563L263.463 198.5H274.138V201.75H266.838L266.563 205.075H267.988ZM301.986 202.35C303.67 202.35 305.003 202.85 305.986 203.85C306.986 204.833 307.486 206.317 307.486 208.3V216H303.586V208.9C303.586 207.833 303.361 207.042 302.911 206.525C302.478 205.992 301.853 205.725 301.036 205.725C300.12 205.725 299.395 206.025 298.861 206.625C298.328 207.208 298.061 208.083 298.061 209.25V216H294.161V208.9C294.161 206.783 293.311 205.725 291.611 205.725C290.711 205.725 289.995 206.025 289.461 206.625C288.928 207.208 288.661 208.083 288.661 209.25V216H284.761V202.55H288.486V204.1C288.986 203.533 289.595 203.1 290.311 202.8C291.045 202.5 291.845 202.35 292.711 202.35C293.661 202.35 294.52 202.542 295.286 202.925C296.053 203.292 296.67 203.833 297.136 204.55C297.686 203.85 298.378 203.308 299.211 202.925C300.061 202.542 300.986 202.35 301.986 202.35ZM310.982 202.55H314.882V216H310.982V202.55ZM312.932 200.675C312.215 200.675 311.632 200.467 311.182 200.05C310.732 199.633 310.507 199.117 310.507 198.5C310.507 197.883 310.732 197.367 311.182 196.95C311.632 196.533 312.215 196.325 312.932 196.325C313.649 196.325 314.232 196.525 314.682 196.925C315.132 197.325 315.357 197.825 315.357 198.425C315.357 199.075 315.132 199.617 314.682 200.05C314.232 200.467 313.649 200.675 312.932 200.675ZM326.677 202.35C328.343 202.35 329.685 202.85 330.702 203.85C331.735 204.85 332.252 206.333 332.252 208.3V216H328.352V208.9C328.352 207.833 328.118 207.042 327.652 206.525C327.185 205.992 326.51 205.725 325.627 205.725C324.643 205.725 323.86 206.033 323.277 206.65C322.693 207.25 322.402 208.15 322.402 209.35V216H318.502V202.55H322.227V204.125C322.743 203.558 323.385 203.125 324.152 202.825C324.918 202.508 325.76 202.35 326.677 202.35Z" fill="white"/>
    <path opacity="0.5" d="M142.906 216.3C141.456 216.3 140.164 215.942 139.031 215.225C137.897 214.508 137.006 213.475 136.356 212.125C135.722 210.758 135.406 209.133 135.406 207.25C135.406 205.367 135.722 203.75 136.356 202.4C137.006 201.033 137.897 199.992 139.031 199.275C140.164 198.558 141.456 198.2 142.906 198.2C144.356 198.2 145.647 198.558 146.781 199.275C147.914 199.992 148.797 201.033 149.431 202.4C150.081 203.75 150.406 205.367 150.406 207.25C150.406 209.133 150.081 210.758 149.431 212.125C148.797 213.475 147.914 214.508 146.781 215.225C145.647 215.942 144.356 216.3 142.906 216.3ZM142.906 212.875C143.972 212.875 144.806 212.417 145.406 211.5C146.022 210.583 146.331 209.167 146.331 207.25C146.331 205.333 146.022 203.917 145.406 203C144.806 202.083 143.972 201.625 142.906 201.625C141.856 201.625 141.022 202.083 140.406 203C139.806 203.917 139.506 205.333 139.506 207.25C139.506 209.167 139.806 210.583 140.406 211.5C141.022 212.417 141.856 212.875 142.906 212.875ZM158.977 198.5V216H154.927V201.75H151.427V198.5H158.977ZM164.317 207.225C163.634 207.225 163.059 206.992 162.592 206.525C162.125 206.058 161.892 205.475 161.892 204.775C161.892 204.058 162.125 203.483 162.592 203.05C163.059 202.6 163.634 202.375 164.317 202.375C165 202.375 165.575 202.6 166.042 203.05C166.509 203.483 166.742 204.058 166.742 204.775C166.742 205.475 166.509 206.058 166.042 206.525C165.575 206.992 165 207.225 164.317 207.225ZM164.317 216.2C163.634 216.2 163.059 215.967 162.592 215.5C162.125 215.033 161.892 214.45 161.892 213.75C161.892 213.033 162.125 212.458 162.592 212.025C163.059 211.575 163.634 211.35 164.317 211.35C165 211.35 165.575 211.575 166.042 212.025C166.509 212.458 166.742 213.033 166.742 213.75C166.742 214.45 166.509 215.033 166.042 215.5C165.575 215.967 165 216.2 164.317 216.2ZM184.585 212.325H181.735V216H177.785V212.325H168.36V209.6L176.61 198.5H180.86L173.21 209.025H177.91V205.75H181.735V209.025H184.585V212.325ZM198.015 206.8C198.882 207.233 199.54 207.8 199.99 208.5C200.457 209.2 200.69 210.008 200.69 210.925C200.69 212.008 200.382 212.958 199.765 213.775C199.149 214.575 198.282 215.2 197.165 215.65C196.049 216.083 194.757 216.3 193.29 216.3C191.824 216.3 190.532 216.083 189.415 215.65C188.315 215.2 187.457 214.575 186.84 213.775C186.24 212.958 185.94 212.008 185.94 210.925C185.94 210.008 186.165 209.2 186.615 208.5C187.082 207.8 187.74 207.233 188.59 206.8C187.94 206.4 187.44 205.9 187.09 205.3C186.74 204.683 186.565 203.983 186.565 203.2C186.565 202.183 186.849 201.3 187.415 200.55C187.982 199.8 188.774 199.225 189.79 198.825C190.807 198.408 191.974 198.2 193.29 198.2C194.624 198.2 195.799 198.408 196.815 198.825C197.849 199.225 198.649 199.8 199.215 200.55C199.782 201.3 200.065 202.183 200.065 203.2C200.065 203.983 199.89 204.683 199.54 205.3C199.19 205.9 198.682 206.4 198.015 206.8ZM193.29 201.175C192.474 201.175 191.815 201.375 191.315 201.775C190.832 202.158 190.59 202.692 190.59 203.375C190.59 204.042 190.832 204.567 191.315 204.95C191.799 205.333 192.457 205.525 193.29 205.525C194.124 205.525 194.79 205.333 195.29 204.95C195.79 204.567 196.04 204.042 196.04 203.375C196.04 202.692 195.79 202.158 195.29 201.775C194.79 201.375 194.124 201.175 193.29 201.175ZM193.29 213.325C194.307 213.325 195.107 213.1 195.69 212.65C196.29 212.183 196.59 211.567 196.59 210.8C196.59 210.033 196.29 209.425 195.69 208.975C195.107 208.525 194.307 208.3 193.29 208.3C192.29 208.3 191.499 208.525 190.915 208.975C190.332 209.425 190.04 210.033 190.04 210.8C190.04 211.583 190.332 212.2 190.915 212.65C191.499 213.1 192.29 213.325 193.29 213.325Z" fill="white"/>
    <defs>
        <filter id="filter0_dd" x="0.171875" y="0" width="575.2" height="319.705" filterUnits="userSpaceOnUse" color-interpolation-filters="sRGB">
            <feFlood flood-opacity="0" result="BackgroundImageFix"/>
            <feColorMatrix in="SourceAlpha" type="matrix" values="0 0 0 0 0 0 0 0 0 0 0 0 0 0 0 0 0 0 127 0"/>
            <feOffset dx="10" dy="25"/>
            <feGaussianBlur stdDeviation="20"/>
            <feColorMatrix type="matrix" values="0 0 0 0 0 0 0 0 0 0 0 0 0 0 0 0 0 0 0.5 0"/>
            <feBlend mode="normal" in2="BackgroundImageFix" result="effect1_dropShadow"/>
            <feColorMatrix in="SourceAlpha" type="matrix" values="0 0 0 0 0 0 0 0 0 0 0 0 0 0 0 0 0 0 127 0"/>
            <feOffset dx="-10"/>
            <feGaussianBlur stdDeviation="20"/>
            <feColorMatrix type="matrix" values="0 0 0 0 0 0 0 0 0 0 0 0 0 0 0 0 0 0 0.25 0"/>
            <feBlend mode="normal" in2="effect1_dropShadow" result="effect2_dropShadow"/>
            <feBlend mode="normal" in="SourceGraphic" in2="effect2_dropShadow" result="shape"/>
        </filter>
    </defs>
</svg>
