<svg width="576" height="320" viewBox="0 0 576 320" fill="none" xmlns="http://www.w3.org/2000/svg">
    <g filter="url(#filter0_dd)">
        <path d="M50.1719 46.8523C50.1719 43.0679 53.2404 40 57.0257 40H518.518C522.303 40 525.372 43.0679 525.372 46.8523V247.853C525.372 251.637 522.303 254.705 518.518 254.705H57.0257C53.2404 254.705 50.1719 251.637 50.1719 247.853V46.8523Z" fill="#191E2C"/>
        <path d="M98.9648 102.071C95.7707 102.071 93.2792 101.177 91.4905 99.3878C89.723 97.5991 88.8393 95.0454 88.8393 91.7266V79.0549H94.0139V91.5326C94.0139 95.5841 95.6748 97.6099 98.9968 97.6099C100.615 97.6099 101.85 97.125 102.702 96.1552C103.554 95.1639 103.98 93.623 103.98 91.5326V79.0549H109.09V91.7266C109.09 95.0454 108.196 97.5991 106.407 99.3878C104.64 101.177 102.159 102.071 98.9648 102.071Z" fill="white"/>
        <path d="M120.912 102.071C119.144 102.071 117.43 101.834 115.769 101.36C114.129 100.864 112.809 100.228 111.808 99.4525L113.565 95.5087C114.523 96.2199 115.662 96.791 116.983 97.222C118.303 97.653 119.623 97.8685 120.944 97.8685C122.413 97.8685 123.499 97.653 124.202 97.222C124.904 96.7694 125.256 96.1768 125.256 95.4441C125.256 94.9053 125.043 94.4635 124.617 94.1187C124.212 93.7524 123.68 93.4614 123.02 93.2459C122.381 93.0304 121.508 92.7934 120.401 92.5347C118.697 92.1253 117.302 91.7158 116.216 91.3064C115.13 90.8969 114.193 90.2396 113.405 89.3345C112.639 88.4294 112.255 87.2225 112.255 85.714C112.255 84.3994 112.607 83.2142 113.309 82.1582C114.012 81.0806 115.066 80.2294 116.472 79.6044C117.898 78.9795 119.634 78.667 121.678 78.667C123.105 78.667 124.5 78.8394 125.863 79.1842C127.225 79.529 128.418 80.0247 129.44 80.6712L127.843 84.6473C125.777 83.462 123.712 82.8693 121.646 82.8693C120.198 82.8693 119.123 83.1064 118.42 83.5805C117.739 84.0546 117.398 84.6796 117.398 85.4554C117.398 86.2312 117.792 86.8131 118.58 87.201C119.389 87.5674 120.613 87.9337 122.253 88.3001C123.957 88.7095 125.352 89.119 126.438 89.5285C127.524 89.9379 128.45 90.5844 129.216 91.468C130.004 92.3516 130.398 93.5476 130.398 95.0562C130.398 96.3492 130.036 97.5345 129.312 98.612C128.61 99.668 127.545 100.508 126.118 101.133C124.691 101.758 122.956 102.071 120.912 102.071Z" fill="white"/>
        <path d="M133.295 79.0549H143.453C145.88 79.0549 148.02 79.529 149.873 80.4772C151.747 81.4039 153.195 82.7185 154.217 84.421C155.261 86.1235 155.782 88.1061 155.782 90.3689C155.782 92.6317 155.261 94.6144 154.217 96.3169C153.195 98.0194 151.747 99.3447 149.873 100.293C148.02 101.22 145.88 101.683 143.453 101.683H133.295V79.0549ZM143.197 97.3836C145.433 97.3836 147.211 96.7586 148.532 95.5087C149.873 94.2372 150.544 92.524 150.544 90.3689C150.544 88.2139 149.873 86.5114 148.532 85.2614C147.211 83.99 145.433 83.3542 143.197 83.3542H138.47V97.3836H143.197Z" fill="white"/>
        <path d="M176.358 97.4806V101.683H159.046V79.0549H175.943V83.2573H164.188V88.1708H174.57V92.2438H164.188V97.4806H176.358Z" fill="white"/>
        <path d="M189.771 102.071C186.576 102.071 184.085 101.177 182.296 99.3878C180.529 97.5991 179.645 95.0454 179.645 91.7266V79.0549H184.82V91.5326C184.82 95.5841 186.481 97.6099 189.803 97.6099C191.421 97.6099 192.656 97.125 193.508 96.1552C194.36 95.1639 194.785 93.623 194.785 91.5326V79.0549H199.896V91.7266C199.896 95.0454 199.002 97.5991 197.213 99.3878C195.446 101.177 192.965 102.071 189.771 102.071Z" fill="white"/>
        <path d="M218.617 101.683L214.305 95.3794H214.049H209.545V101.683H204.371V79.0549H214.049C216.03 79.0549 217.744 79.3889 219.192 80.057C220.661 80.7251 221.79 81.6733 222.578 82.9017C223.365 84.13 223.759 85.5847 223.759 87.2656C223.759 88.9466 223.355 90.4012 222.546 91.6296C221.758 92.8365 220.629 93.7631 219.16 94.4096L224.175 101.683H218.617ZM218.521 87.2656C218.521 85.9942 218.116 85.0244 217.307 84.3563C216.498 83.6667 215.316 83.3219 213.762 83.3219H209.545V91.2094H213.762C215.316 91.2094 216.498 90.8646 217.307 90.175C218.116 89.4853 218.521 88.5156 218.521 87.2656Z" fill="white"/>
        <path d="M520.285 248.091C520.285 249.496 519.275 250.635 518.029 250.635L450.295 250.635C449.049 250.635 448.038 249.496 448.038 248.091C448.038 246.686 449.049 245.547 450.295 245.547L518.029 245.547C519.275 245.547 520.285 246.686 520.285 248.091Z" fill="#EA712C"/>
        <path d="M441.93 248.091C441.93 249.496 440.905 250.635 439.642 250.635L370.953 250.635C369.69 250.635 368.665 249.496 368.665 248.091C368.665 246.686 369.69 245.547 370.953 245.547L439.642 245.547C440.905 245.547 441.93 246.686 441.93 248.091Z" fill="#EA712C"/>
        <path d="M363.582 248.091C363.582 249.496 362.558 250.635 361.294 250.635L292.606 250.635C291.342 250.635 290.318 249.496 290.318 248.091C290.318 246.686 291.342 245.547 292.606 245.547L361.294 245.547C362.558 245.547 363.582 246.686 363.582 248.091Z" fill="#D5CE41"/>
        <path d="M285.227 248.091C285.227 249.496 284.202 250.635 282.939 250.635L214.25 250.635C212.987 250.635 211.962 249.496 211.962 248.091C211.962 246.686 212.987 245.547 214.25 245.547L282.939 245.547C284.202 245.547 285.227 246.686 285.227 248.091Z" fill="#D5CE41"/>
        <path d="M206.875 248.091C206.875 249.496 205.851 250.635 204.587 250.635L135.899 250.635C134.635 250.635 133.611 249.496 133.611 248.091C133.611 246.686 134.635 245.547 135.899 245.547L204.587 245.547C205.851 245.547 206.875 246.686 206.875 248.091Z" fill="#D5CE41"/>
        <path d="M127.508 248.091C127.508 249.496 126.484 250.635 125.22 250.635L56.5314 250.635C55.2679 250.635 54.2436 249.496 54.2436 248.091C54.2436 246.686 55.2679 245.547 56.5314 245.547L125.22 245.547C126.484 245.547 127.508 246.686 127.508 248.091Z" fill="#D5CE41"/>
        <path d="M103.404 127.15V165.519H94.4997V134.276H86.8046V127.15H103.404Z" fill="#1BC53C"/>
        <path d="M126.578 166.177C123.39 166.177 120.55 165.391 118.058 163.82C115.566 162.249 113.606 159.983 112.177 157.023C110.784 154.027 110.088 150.464 110.088 146.335C110.088 142.205 110.784 138.661 112.177 135.701C113.606 132.704 115.566 130.42 118.058 128.849C120.55 127.278 123.39 126.492 126.578 126.492C129.766 126.492 132.606 127.278 135.097 128.849C137.589 130.42 139.531 132.704 140.924 135.701C142.353 138.661 143.067 142.205 143.067 146.335C143.067 150.464 142.353 154.027 140.924 157.023C139.531 159.983 137.589 162.249 135.097 163.82C132.606 165.391 129.766 166.177 126.578 166.177ZM126.578 158.668C128.923 158.668 130.755 157.663 132.074 155.653C133.43 153.643 134.108 150.537 134.108 146.335C134.108 142.132 133.43 139.026 132.074 137.016C130.755 135.007 128.923 134.002 126.578 134.002C124.269 134.002 122.437 135.007 121.081 137.016C119.762 139.026 119.102 142.132 119.102 146.335C119.102 150.537 119.762 153.643 121.081 155.653C122.437 157.663 124.269 158.668 126.578 158.668Z" fill="#1BC53C"/>
        <path d="M163.884 166.177C160.696 166.177 157.856 165.391 155.364 163.82C152.872 162.249 150.912 159.983 149.483 157.023C148.09 154.027 147.394 150.464 147.394 146.335C147.394 142.205 148.09 138.661 149.483 135.701C150.912 132.704 152.872 130.42 155.364 128.849C157.856 127.278 160.696 126.492 163.884 126.492C167.072 126.492 169.911 127.278 172.403 128.849C174.895 130.42 176.837 132.704 178.23 135.701C179.659 138.661 180.373 142.205 180.373 146.335C180.373 150.464 179.659 154.027 178.23 157.023C176.837 159.983 174.895 162.249 172.403 163.82C169.911 165.391 167.072 166.177 163.884 166.177ZM163.884 158.668C166.229 158.668 168.061 157.663 169.38 155.653C170.736 153.643 171.414 150.537 171.414 146.335C171.414 142.132 170.736 139.026 169.38 137.016C168.061 135.007 166.229 134.002 163.884 134.002C161.575 134.002 159.743 135.007 158.387 137.016C157.068 139.026 156.408 142.132 156.408 146.335C156.408 150.537 157.068 153.643 158.387 155.653C159.743 157.663 161.575 158.668 163.884 158.668Z" fill="#1BC53C"/>
        <path d="M189.059 165.958C187.556 165.958 186.292 165.446 185.266 164.423C184.24 163.4 183.727 162.121 183.727 160.586C183.727 159.015 184.24 157.754 185.266 156.804C186.292 155.817 187.556 155.324 189.059 155.324C190.561 155.324 191.825 155.817 192.851 156.804C193.877 157.754 194.39 159.015 194.39 160.586C194.39 162.121 193.877 163.4 192.851 164.423C191.825 165.446 190.561 165.958 189.059 165.958Z" fill="#1BC53C"/>
        <path d="M227.65 127.15V132.905L213.359 165.519H203.685L217.481 134.385H204.729V140.634H196.814V127.15H227.65Z" fill="#1BC53C"/>
        <path d="M257.03 145.348C258.935 146.298 260.382 147.54 261.372 149.075C262.398 150.61 262.911 152.382 262.911 154.392C262.911 156.767 262.233 158.85 260.877 160.641C259.521 162.395 257.616 163.765 255.161 164.752C252.706 165.702 249.866 166.177 246.641 166.177C243.416 166.177 240.577 165.702 238.121 164.752C235.703 163.765 233.816 162.395 232.46 160.641C231.141 158.85 230.481 156.767 230.481 154.392C230.481 152.382 230.976 150.61 231.965 149.075C232.991 147.54 234.439 146.298 236.308 145.348C234.878 144.471 233.779 143.375 233.01 142.059C232.24 140.707 231.855 139.172 231.855 137.455C231.855 135.226 232.478 133.289 233.724 131.645C234.97 130 236.711 128.74 238.946 127.863C241.181 126.949 243.746 126.492 246.641 126.492C249.573 126.492 252.156 126.949 254.391 127.863C256.663 128.74 258.422 130 259.668 131.645C260.914 133.289 261.537 135.226 261.537 137.455C261.537 139.172 261.152 140.707 260.382 142.059C259.613 143.375 258.495 144.471 257.03 145.348ZM246.641 133.015C244.846 133.015 243.398 133.453 242.299 134.33C241.236 135.171 240.705 136.34 240.705 137.839C240.705 139.3 241.236 140.451 242.299 141.292C243.361 142.132 244.809 142.552 246.641 142.552C248.473 142.552 249.939 142.132 251.038 141.292C252.138 140.451 252.687 139.3 252.687 137.839C252.687 136.34 252.138 135.171 251.038 134.33C249.939 133.453 248.473 133.015 246.641 133.015ZM246.641 159.654C248.876 159.654 250.635 159.161 251.918 158.174C253.237 157.151 253.897 155.799 253.897 154.118C253.897 152.437 253.237 151.103 251.918 150.117C250.635 149.13 248.876 148.637 246.641 148.637C244.442 148.637 242.702 149.13 241.419 150.117C240.137 151.103 239.496 152.437 239.496 154.118C239.496 155.836 240.137 157.188 241.419 158.174C242.702 159.161 244.442 159.654 246.641 159.654Z" fill="#1BC53C"/>
        <path d="M284.961 142.772C288.332 143.32 290.915 144.581 292.711 146.554C294.506 148.491 295.404 150.902 295.404 153.789C295.404 156.018 294.818 158.083 293.645 159.983C292.473 161.847 290.677 163.345 288.259 164.478C285.877 165.611 282.945 166.177 279.464 166.177C276.753 166.177 274.077 165.83 271.439 165.136C268.837 164.405 266.62 163.382 264.788 162.066L268.251 155.269C269.717 156.365 271.403 157.224 273.308 157.845C275.25 158.43 277.229 158.722 279.244 158.722C281.48 158.722 283.238 158.302 284.521 157.462C285.803 156.585 286.445 155.361 286.445 153.789C286.445 150.647 284.045 149.075 279.244 149.075H275.177V143.21L283.092 134.276H266.712V127.15H293.645V132.905L284.961 142.772Z" fill="#1BC53C"/>
        <g opacity="0.5">
            <path d="M141.709 198.739V215.794H138.398V201.395H134.63V198.739H141.709Z" fill="white"/>
            <path d="M151.407 198.739V215.794H148.096V201.395H144.328V198.739H151.407Z" fill="white"/>
            <path d="M156.929 206.682C156.351 206.682 155.859 206.495 155.452 206.122C155.044 205.732 154.841 205.244 154.841 204.66C154.841 204.059 155.036 203.571 155.426 203.198C155.834 202.824 156.334 202.638 156.929 202.638C157.523 202.638 158.015 202.824 158.405 203.198C158.813 203.571 159.017 204.059 159.017 204.66C159.017 205.244 158.813 205.732 158.405 206.122C157.998 206.495 157.506 206.682 156.929 206.682ZM156.929 215.965C156.351 215.965 155.859 215.778 155.452 215.404C155.044 215.014 154.841 214.527 154.841 213.942C154.841 213.341 155.036 212.854 155.426 212.481C155.834 212.107 156.334 211.92 156.929 211.92C157.523 211.92 158.015 212.107 158.405 212.481C158.813 212.854 159.017 213.341 159.017 213.942C159.017 214.527 158.813 215.014 158.405 215.404C157.998 215.778 157.506 215.965 156.929 215.965Z" fill="white"/>
            <path d="M166.736 205.342C169.248 205.342 171.107 205.813 172.312 206.755C173.517 207.681 174.12 208.948 174.12 210.556C174.12 211.579 173.857 212.505 173.331 213.333C172.804 214.162 172.015 214.82 170.963 215.307C169.91 215.794 168.611 216.038 167.067 216.038C165.793 216.038 164.563 215.867 163.374 215.526C162.186 215.169 161.185 214.681 160.37 214.064L161.77 211.603C162.432 212.123 163.222 212.537 164.138 212.846C165.072 213.138 166.031 213.285 167.016 213.285C168.187 213.285 169.104 213.057 169.766 212.602C170.445 212.131 170.784 211.49 170.784 210.678C170.784 209.801 170.419 209.143 169.689 208.704C168.976 208.249 167.746 208.022 165.997 208.022H161.694L162.611 198.739H173.076V201.395H165.412L165.03 205.342H166.736Z" fill="white"/>
            <path d="M183.493 205.78C185.14 205.975 186.396 206.511 187.262 207.389C188.128 208.266 188.56 209.362 188.56 210.678C188.56 211.668 188.297 212.57 187.771 213.382C187.245 214.194 186.447 214.844 185.377 215.331C184.325 215.802 183.035 216.038 181.507 216.038C180.234 216.038 179.003 215.867 177.815 215.526C176.643 215.169 175.642 214.681 174.81 214.064L176.236 211.603C176.881 212.123 177.662 212.537 178.579 212.846C179.512 213.138 180.471 213.285 181.456 213.285C182.627 213.285 183.544 213.057 184.206 212.602C184.885 212.131 185.225 211.498 185.225 210.702C185.225 209.906 184.902 209.289 184.257 208.85C183.629 208.396 182.661 208.168 181.354 208.168H179.725V206L183.773 201.395H175.676V198.739H187.822V200.859L183.493 205.78Z" fill="white"/>
        </g>
        <path fill-rule="evenodd" clip-rule="evenodd" d="M107.14 191.616C98.7142 191.616 91.8914 198.454 91.8914 206.88C91.8914 215.305 98.7142 222.143 107.14 222.143C115.58 222.143 122.418 215.305 122.418 206.88C122.418 198.454 115.58 191.616 107.14 191.616ZM107.155 219.091C100.408 219.091 94.9441 213.626 94.9441 206.88C94.9441 200.133 100.408 194.669 107.155 194.669C113.901 194.669 119.366 200.133 119.366 206.88C119.366 213.626 113.901 219.091 107.155 219.091ZM105.628 199.248H107.918V207.261L114.786 211.337L113.642 213.214L105.628 208.406V199.248Z" fill="#8C8E95"/>
        <path fill-rule="evenodd" clip-rule="evenodd" d="M235.365 191.616C226.94 191.616 220.102 198.454 220.102 206.88C220.102 215.305 226.94 222.143 235.365 222.143C243.79 222.143 250.628 215.305 250.628 206.88C250.628 198.454 243.79 191.616 235.365 191.616ZM241.837 200.408C240.051 198.622 237.716 197.722 235.365 197.722V206.88L228.893 213.351C232.465 216.923 238.265 216.923 241.852 213.351C245.424 209.78 245.424 203.98 241.837 200.408ZM223.154 206.88C223.154 213.626 228.619 219.09 235.365 219.09C242.111 219.09 247.576 213.626 247.576 206.88C247.576 200.133 242.111 194.669 235.365 194.669C228.619 194.669 223.154 200.133 223.154 206.88Z" fill="#8C8E95"/>
        <g opacity="0.5">
            <path d="M271.419 205.629C273.045 205.827 274.285 206.371 275.14 207.261C275.995 208.151 276.423 209.264 276.423 210.599C276.423 211.604 276.163 212.519 275.643 213.343C275.123 214.167 274.336 214.826 273.279 215.321C272.24 215.799 270.966 216.038 269.457 216.038C268.2 216.038 266.984 215.865 265.811 215.519C264.654 215.156 263.665 214.661 262.844 214.035L264.252 211.538C264.889 212.066 265.66 212.486 266.565 212.799C267.487 213.096 268.435 213.244 269.407 213.244C270.564 213.244 271.469 213.013 272.123 212.552C272.793 212.074 273.129 211.431 273.129 210.623C273.129 209.816 272.81 209.189 272.173 208.744C271.553 208.283 270.597 208.052 269.306 208.052H267.697V205.852L271.695 201.179H263.699V198.484H275.693V200.635L271.419 205.629Z" fill="white"/>
            <path d="M285.904 216.038C284.495 216.038 283.238 215.692 282.132 214.999C281.025 214.291 280.154 213.269 279.516 211.934C278.879 210.582 278.561 208.983 278.561 207.137C278.561 205.291 278.879 203.701 279.516 202.366C280.154 201.014 281.025 199.992 282.132 199.3C283.238 198.591 284.495 198.237 285.904 198.237C287.312 198.237 288.569 198.591 289.676 199.3C290.799 199.992 291.679 201.014 292.316 202.366C292.953 203.701 293.271 205.291 293.271 207.137C293.271 208.983 292.953 210.582 292.316 211.934C291.679 213.269 290.799 214.291 289.676 214.999C288.569 215.692 287.312 216.038 285.904 216.038ZM285.904 213.244C287.161 213.244 288.15 212.733 288.871 211.711C289.609 210.689 289.977 209.165 289.977 207.137C289.977 205.11 289.609 203.585 288.871 202.564C288.15 201.542 287.161 201.031 285.904 201.031C284.663 201.031 283.674 201.542 282.936 202.564C282.216 203.585 281.855 205.11 281.855 207.137C281.855 209.165 282.216 210.689 282.936 211.711C283.674 212.733 284.663 213.244 285.904 213.244Z" fill="white"/>
            <path d="M320.334 202.44C322.028 202.44 323.369 202.926 324.358 203.899C325.347 204.855 325.841 206.297 325.841 208.225V215.79H322.698V208.621C322.698 207.467 322.438 206.602 321.919 206.025C321.399 205.431 320.653 205.135 319.681 205.135C318.624 205.135 317.778 205.481 317.141 206.173C316.504 206.849 316.185 207.821 316.185 209.09V215.79H313.042V208.621C313.042 207.467 312.782 206.602 312.262 206.025C311.743 205.431 310.997 205.135 310.024 205.135C308.951 205.135 308.096 205.473 307.459 206.148C306.839 206.824 306.529 207.805 306.529 209.09V215.79H303.386V202.588H306.378V204.269C306.881 203.676 307.51 203.223 308.264 202.91C309.019 202.596 309.857 202.44 310.779 202.44C311.785 202.44 312.673 202.629 313.444 203.009C314.232 203.371 314.852 203.915 315.305 204.64C315.858 203.948 316.571 203.412 317.443 203.033C318.314 202.638 319.278 202.44 320.334 202.44Z" fill="white"/>
            <path d="M329.858 202.588H333.001V215.79H329.858V202.588ZM331.442 200.413C330.872 200.413 330.395 200.24 330.009 199.893C329.623 199.531 329.431 199.086 329.431 198.558C329.431 198.031 329.623 197.594 330.009 197.248C330.395 196.885 330.872 196.704 331.442 196.704C332.012 196.704 332.49 196.877 332.876 197.223C333.261 197.553 333.454 197.973 333.454 198.484C333.454 199.028 333.261 199.49 332.876 199.869C332.507 200.231 332.029 200.413 331.442 200.413Z" fill="white"/>
            <path d="M344.746 202.44C346.439 202.44 347.797 202.926 348.82 203.899C349.843 204.871 350.354 206.313 350.354 208.225V215.79H347.211V208.621C347.211 207.467 346.934 206.602 346.381 206.025C345.828 205.431 345.04 205.135 344.017 205.135C342.86 205.135 341.947 205.481 341.276 206.173C340.605 206.849 340.27 207.83 340.27 209.115V215.79H337.127V202.588H340.119V204.294C340.639 203.684 341.293 203.223 342.081 202.91C342.869 202.596 343.757 202.44 344.746 202.44Z" fill="white"/>
        </g>
        <path fill-rule="evenodd" clip-rule="evenodd" d="M379.047 206.879L386.068 213.901L383.931 216.037L374.773 206.879L383.931 197.721L386.068 199.858L379.047 206.879ZM401.026 206.879L394.005 213.901L396.142 216.037L405.3 206.879L396.142 197.721L394.005 199.858L401.026 206.879Z" fill="#8C8E95"/>
        <g opacity="0.5">
            <path d="M427.722 197.976C429.23 197.976 430.54 198.23 431.65 198.739C432.777 199.248 433.639 199.977 434.235 200.927C434.832 201.876 435.13 203.004 435.13 204.31C435.13 205.599 434.832 206.727 434.235 207.693C433.639 208.643 432.777 209.372 431.65 209.881C430.54 210.39 429.23 210.644 427.722 210.644H423.794V215.783H420.562V197.976H427.722ZM427.573 207.846C428.982 207.846 430.051 207.541 430.78 206.93C431.509 206.32 431.874 205.446 431.874 204.31C431.874 203.174 431.509 202.3 430.78 201.69C430.051 201.079 428.982 200.774 427.573 200.774H423.794V207.846H427.573Z" fill="white"/>
            <path d="M443.995 216.037C442.652 216.037 441.351 215.842 440.092 215.452C438.849 215.062 437.863 214.545 437.134 213.9L438.252 211.331C438.965 211.908 439.835 212.383 440.863 212.756C441.907 213.112 442.951 213.29 443.995 213.29C445.288 213.29 446.249 213.078 446.879 212.654C447.525 212.23 447.848 211.67 447.848 210.975C447.848 210.466 447.666 210.051 447.301 209.728C446.953 209.389 446.506 209.126 445.959 208.94C445.412 208.753 444.666 208.541 443.721 208.304C442.396 207.982 441.318 207.659 440.49 207.337C439.678 207.015 438.973 206.515 438.377 205.836C437.797 205.141 437.507 204.208 437.507 203.038C437.507 202.054 437.763 201.164 438.277 200.367C438.808 199.553 439.595 198.908 440.639 198.433C441.7 197.959 442.992 197.721 444.517 197.721C445.578 197.721 446.622 197.857 447.649 198.128C448.677 198.4 449.563 198.79 450.309 199.298L449.29 201.868C448.528 201.41 447.732 201.062 446.903 200.825C446.075 200.587 445.271 200.469 444.492 200.469C443.216 200.469 442.263 200.689 441.633 201.13C441.02 201.571 440.713 202.156 440.713 202.885C440.713 203.394 440.887 203.81 441.235 204.132C441.6 204.454 442.056 204.708 442.603 204.895C443.15 205.082 443.895 205.294 444.84 205.531C446.133 205.836 447.194 206.158 448.022 206.498C448.851 206.82 449.555 207.32 450.135 207.999C450.732 208.677 451.03 209.593 451.03 210.746C451.03 211.73 450.765 212.62 450.235 213.417C449.721 214.214 448.934 214.85 447.873 215.325C446.812 215.8 445.52 216.037 443.995 216.037Z" fill="white"/>
            <path d="M465.521 211.662H456.82L455.105 215.783H451.774L459.604 197.976H462.787L470.642 215.783H467.261L465.521 211.662ZM464.452 209.067L461.171 201.283L457.914 209.067H464.452Z" fill="white"/>
            <path d="M484.241 215.783L480.686 210.568C480.537 210.585 480.313 210.593 480.015 210.593H476.087V215.783H472.855V197.976H480.015C481.523 197.976 482.832 198.23 483.943 198.739C485.07 199.248 485.931 199.977 486.528 200.927C487.125 201.876 487.423 203.004 487.423 204.31C487.423 205.65 487.1 206.803 486.454 207.77C485.824 208.736 484.912 209.457 483.719 209.932L487.721 215.783H484.241ZM484.166 204.31C484.166 203.174 483.802 202.3 483.073 201.69C482.343 201.079 481.274 200.774 479.866 200.774H476.087V207.871H479.866C481.274 207.871 482.343 207.566 483.073 206.956C483.802 206.328 484.166 205.446 484.166 204.31Z" fill="white"/>
        </g>
        <path d="M462.397 131.813C464.156 128.789 468.554 128.789 470.313 131.813L488.122 162.427C489.881 165.45 487.683 169.23 484.165 169.23L448.545 169.23C445.028 169.23 442.829 165.45 444.588 162.427L462.397 131.813Z" fill="#1BC53C"/>
        <path d="M415.477 97.3899C415.477 94.9171 417.527 92.9126 420.056 92.9126C422.584 92.9126 424.635 94.9171 424.635 97.3899V99.6285C424.635 102.101 422.584 104.106 420.056 104.106C417.527 104.106 415.477 102.101 415.477 99.6285V97.3899Z" fill="white"/>
        <path d="M431.758 92.4769C431.758 89.9078 433.808 87.8252 436.337 87.8252C438.866 87.8252 440.916 89.9078 440.916 92.4769V99.4544C440.916 102.024 438.866 104.106 436.337 104.106C433.808 104.106 431.758 102.024 431.758 99.4544V92.4769Z" fill="white"/>
        <path d="M448.039 88.2774C448.039 85.7797 450.089 83.7549 452.618 83.7549C455.147 83.7549 457.197 85.7797 457.197 88.2774V99.5836C457.197 102.081 455.147 104.106 452.618 104.106C450.089 104.106 448.039 102.081 448.039 99.5836V88.2774Z" fill="white"/>
        <path d="M463.301 83.2923C463.301 80.7378 465.351 78.667 467.88 78.667C470.408 78.667 472.459 80.7378 472.459 83.2923V99.4807C472.459 102.035 470.408 104.106 467.88 104.106C465.351 104.106 463.301 102.035 463.301 99.4807V83.2923Z" fill="white"/>
        <path d="M479.581 79.1368C479.581 76.6295 481.632 74.5969 484.16 74.5969C486.689 74.5969 488.739 76.6295 488.739 79.1368V99.5663C488.739 102.074 486.689 104.106 484.16 104.106C481.632 104.106 479.581 102.074 479.581 99.5663V79.1368Z" fill="white"/>
    </g>
    <defs>
        <filter id="filter0_dd" x="0.171875" y="0" width="575.2" height="319.705" filterUnits="userSpaceOnUse" color-interpolation-filters="sRGB">
            <feFlood flood-opacity="0" result="BackgroundImageFix"/>
            <feColorMatrix in="SourceAlpha" type="matrix" values="0 0 0 0 0 0 0 0 0 0 0 0 0 0 0 0 0 0 127 0"/>
            <feOffset dx="10" dy="25"/>
            <feGaussianBlur stdDeviation="20"/>
            <feColorMatrix type="matrix" values="0 0 0 0 0 0 0 0 0 0 0 0 0 0 0 0 0 0 0.5 0"/>
            <feBlend mode="normal" in2="BackgroundImageFix" result="effect1_dropShadow"/>
            <feColorMatrix in="SourceAlpha" type="matrix" values="0 0 0 0 0 0 0 0 0 0 0 0 0 0 0 0 0 0 127 0"/>
            <feOffset dx="-10"/>
            <feGaussianBlur stdDeviation="20"/>
            <feColorMatrix type="matrix" values="0 0 0 0 0 0 0 0 0 0 0 0 0 0 0 0 0 0 0.25 0"/>
            <feBlend mode="normal" in2="effect1_dropShadow" result="effect2_dropShadow"/>
            <feBlend mode="normal" in="SourceGraphic" in2="effect2_dropShadow" result="shape"/>
        </filter>
    </defs>
</svg>
