<svg width="103" height="776" viewBox="0 0 103 776" fill="none" xmlns="http://www.w3.org/2000/svg">
    <path d="M6.7303 6.49782L19.7464 6.49786L6.73023 19.9791L6.7303 6.49782Z" fill="#202020" fill-opacity="0.7"/>
    <path d="M10.4492 96.212V24.1476L21.0594 13.8281L23.0046 11.9362L24.7245 10.2163H63.4226L61.1867 13.8281H21.6287H21.0594L10.4492 24.1476V96.212L20.7687 102.92V147.465L10.4492 139.038V96.212Z" fill="#202020" fill-opacity="0.7"/>
    <path d="M10.4492 96.212V24.1476L21.0594 13.8281M10.4492 96.212L20.7687 102.92V147.465L10.4492 139.038V96.212ZM21.0594 13.8281L23.0046 11.9362L24.7245 10.2163H63.4225L61.1867 13.8281H21.6287H21.0594Z" stroke="#22283C" stroke-width="0.687965" stroke-linecap="round" stroke-linejoin="round"/>
    <path d="M85.0034 766.104L78.1237 773.156H53.013L57.8287 766.104H85.0034Z" fill="#202020" fill-opacity="0.7"/>
    <path d="M2.7915 612V773.156H53.013M102.27 773.156H78.1237M78.1237 773.156L85.0034 766.104H57.8287L53.013 773.156M78.1237 773.156H53.013" stroke="#22283C" stroke-width="0.687965" stroke-linecap="round" stroke-linejoin="round"/>
    <circle cx="3.26784" cy="772.253" r="3.26784" fill="#202020" fill-opacity="0.7"/>
    <rect x="1.5874" y="664.974" width="2.40788" height="2.40788" fill="#202020" fill-opacity="0.7"/>
    <path d="M5.54332 697.308L5.8873 721.903H7.26323V727.063L5.02734 729.815V721.903H5.8873L5.54332 697.308V692.32L11.047 687.849V692.836L5.54332 697.308Z" fill="#202020" fill-opacity="0.7"/>
    <path d="M5.8873 721.903L5.54332 697.308M5.8873 721.903H5.02734V729.815L7.26323 727.063V721.903H5.8873ZM5.54332 697.308L11.047 692.836V687.849L5.54332 692.32V697.308Z" stroke="#22283C" stroke-width="0.687965" stroke-linecap="round" stroke-linejoin="round"/>
    <path d="M5.8877 741.681V764.899L12.2514 771.951H53.5293" stroke="#22283C" stroke-width="0.687965" stroke-linecap="round" stroke-linejoin="round"/>
</svg>
