<svg width="104" height="776" viewBox="0 0 104 776" fill="none" xmlns="http://www.w3.org/2000/svg">
    <path d="M96.5392 6.49782L83.5232 6.49786L96.5393 19.9791L96.5392 6.49782Z" fill="#202020" fill-opacity="0.7"/>
    <path d="M92.8203 96.212V24.1476L82.2101 13.8281L80.2649 11.9362L78.545 10.2163H39.847L42.0829 13.8281H81.6409H82.2101L92.8203 24.1476V96.212L82.5008 102.92V147.465L92.8203 139.038V96.212Z" fill="#202020" fill-opacity="0.7"/>
    <path d="M92.8203 96.212V24.1476L82.2101 13.8281M92.8203 96.212L82.5008 102.92V147.465L92.8203 139.038V96.212ZM82.2101 13.8281L80.2649 11.9362L78.545 10.2163H39.847L42.0829 13.8281H81.6409H82.2101Z" stroke="#22283C" stroke-width="0.687965" stroke-linecap="round" stroke-linejoin="round"/>
    <path d="M18.2662 766.104L25.1458 773.156H50.2566L45.4408 766.104H18.2662Z" fill="#202020" fill-opacity="0.7"/>
    <path d="M100.478 612V773.156H50.2566M0.999854 773.156H25.1458M25.1458 773.156L18.2662 766.104H45.4408L50.2566 773.156M25.1458 773.156H50.2566" stroke="#22283C" stroke-width="0.687965" stroke-linecap="round" stroke-linejoin="round"/>
    <circle r="3.26784" transform="matrix(-1 0 0 1 100.002 772.253)" fill="#202020" fill-opacity="0.7"/>
    <rect width="2.40788" height="2.40788" transform="matrix(-1 0 0 1 101.682 664.974)" fill="#202020" fill-opacity="0.7"/>
    <path d="M97.7262 697.308L97.3822 721.903H96.0063V727.063L98.2422 729.815V721.903H97.3822L97.7262 697.308V692.32L92.2225 687.849V692.836L97.7262 697.308Z" fill="#202020" fill-opacity="0.7"/>
    <path d="M97.3822 721.903L97.7262 697.308M97.3822 721.903H98.2422V729.815L96.0063 727.063V721.903H97.3822ZM97.7262 697.308L92.2225 692.836V687.849L97.7262 692.32V697.308Z" stroke="#22283C" stroke-width="0.687965" stroke-linecap="round" stroke-linejoin="round"/>
    <path d="M97.3818 741.681V764.899L91.0182 771.951H49.7402" stroke="#22283C" stroke-width="0.687965" stroke-linecap="round" stroke-linejoin="round"/>
</svg>
