<svg width="22" height="22" viewBox="0 0 22 22" fill="none" xmlns="http://www.w3.org/2000/svg">
    <path d="M11.0418 10.8404C10.2063 10.8404 9.37057 10.5223 8.7346 9.8862C7.46233 8.61409 7.46233 6.54404 8.7346 5.27176C9.35077 4.65543 10.1702 4.31604 11.0418 4.31604C11.9135 4.31604 12.7327 4.65559 13.349 5.27176C14.6213 6.54404 14.6213 8.61409 13.349 9.8862C12.7129 10.5223 11.8774 10.8404 11.0418 10.8404ZM11.0418 5.60762C10.5368 5.60762 10.0317 5.7998 9.64719 6.18434C8.87811 6.95341 8.87811 8.20471 9.64719 8.97378C10.0196 9.34624 10.515 9.55134 11.0418 9.55134C11.5687 9.55134 12.064 9.34624 12.4365 8.97378C13.2055 8.20471 13.2055 6.95341 12.4365 6.18434C12.0519 5.7998 11.5469 5.60762 11.0418 5.60762Z" fill="white"/>
    <path d="M11.0492 22L10.5502 21.4139C10.2581 21.0706 3.39453 12.9469 3.39453 7.64709C3.39453 3.43045 6.82498 0 11.0416 0C15.2583 0 18.6887 3.43045 18.6887 7.64709C18.6887 12.6862 11.8312 21.0527 11.5393 21.4063L11.0492 22ZM11.0416 1.29057C7.53665 1.29057 4.6851 4.14212 4.6851 7.64709C4.6851 9.61694 5.8597 12.4677 8.08199 15.8912C9.23526 17.6679 10.3966 19.1725 11.0346 19.9687C11.6736 19.1506 12.846 17.5965 14.0065 15.7861C16.2254 12.325 17.3981 9.51036 17.3981 7.64709C17.3981 4.14212 14.5466 1.29057 11.0416 1.29057Z" fill="white"/>
</svg>
