<svg width="42" height="40" viewBox="0 0 42 40" fill="none" xmlns="http://www.w3.org/2000/svg">
    <path d="M32.9913 9.23955C32.9913 9.23955 34.6118 10.168 35.1415 11.6534C36.1076 14.4387 31.8071 21.3089 29.8438 24.1561C29.4654 24.7198 28.8802 25.6783 28.1849 26.8172C26.9335 28.8671 25.3251 31.5017 23.9228 33.4712C22.24 35.8232 20.8377 36.9373 20.8377 36.9373C20.8377 36.9373 20.6195 32.7904 19.4977 27.3746C17.4409 17.3168 13.078 2.95727 6.6896 2.95727C2.01513 2.95727 0.519302 6.42336 0.519302 6.42336C-0.976528 6.11389 0.488136 -0.632602 8.49706 0.0482363C18.9679 0.914757 23.767 30.0051 23.767 30.0051C23.767 30.0051 25.8861 27.3436 27.3508 24.8369C27.6983 24.2495 28.0142 23.7231 28.3027 23.2423C29.2302 21.6968 29.8744 20.6234 30.3736 19.514C32.8978 13.8816 29.8126 12.6437 29.8126 12.6437L32.9913 9.23955Z"
          fill="#98A4C4"/>
    <path d="M27.031 1.30615C22.9542 0.212237 18.6421 0.483251 14.7562 1.99502L15.8918 3.25854C19.314 2.04438 23.0636 1.87513 26.6232 2.83028C36.2565 5.41519 42.0134 15.3492 39.4283 25.0106C36.8433 34.672 26.9235 40.3995 17.2644 37.8076C7.60523 35.2158 1.8741 25.2887 4.45918 15.6273C5.26788 12.6049 6.82373 9.89369 8.96121 7.69851L8.95829 7.66867L7.79636 6.61086C5.48654 8.99353 3.7856 11.9375 2.90958 15.2115C0.103324 25.6995 6.34515 36.5112 16.8307 39.3248C27.3163 42.1384 38.12 35.9006 40.9263 25.4126C43.7325 14.9245 37.5166 4.11976 27.031 1.30615Z"
          fill="#98A4C4"/>
</svg>
