<svg width="161" height="66" viewBox="0 0 161 66" fill="none" xmlns="http://www.w3.org/2000/svg">
    <g clip-path="url(#clip0)">
        <path d="M16.6695 32.1177H16.7723L20.0392 24.0954H23.5479V24.6455L17.4865 38.4018H15.9344L9.80908 24.6413V24.0913H13.3206L16.6695 32.1177Z" fill="white"/>
        <path d="M33.4736 33.6538V38.2397H29.7578V24.0956H38.6595V27.3298H33.4736V30.421H38.0675V33.6538H33.4736Z" fill="white"/>
        <path d="M50.5434 33.795L47.9296 38.2393H43.9888V37.6893L48.6036 30.7396L44.4793 24.6369V24.0869H48.2826L50.5434 27.7749H50.6449L52.9307 24.0965H56.709V24.6466L52.5903 30.7437L57.2245 37.6934V38.2434H53.2851L50.6713 33.7991L50.5434 33.795Z" fill="white"/>
        <path d="M83.606 37.0406H77.3529L76.4233 39.0152H72.4532V38.4322L79.5943 23.1096H81.3396L88.5029 38.4322V39.0152H84.5357L83.606 37.0406ZM80.4559 29.4584L78.6869 33.5836H82.2693L80.4559 29.4584Z" fill="white"/>
        <path d="M99.18 35.403H104.938V39.0154H95.0988V23.3119H99.18V35.403Z" fill="white"/>
        <path d="M122.167 26.9009H116.296V29.123H121.69V32.6886H116.296V35.4484H122.371V39.0154H112.26V23.3119H122.167V26.9009Z" fill="white"/>
        <path d="M143.793 38.4323V39.0154H139.26L136.539 34.3937H134.437V39.0154H130.379V23.3119H137.338C143.572 23.3339 144.703 30.7594 140.693 33.4518L143.793 38.4323ZM137.333 26.9009C136.381 26.8789 135.387 26.9009 134.431 26.9009V30.7827H137.333C139.531 30.7827 139.645 26.9242 137.333 26.9009Z" fill="white"/>
        <path d="M149.211 26.9009V23.3119H160.999V26.9009H157.123V39.0154H153.11V26.9009H149.211Z" fill="white"/>
        <path d="M29.7135 -0.00414948C13.3289 -0.00414948 0 13.1884 0 29.4021C0 41.1618 7.01323 51.3292 17.1169 56.0292C12.9731 53.4249 9.56057 49.8277 7.19561 45.5709C4.83065 41.3142 3.58975 36.5355 3.58791 31.6778C3.58791 15.7653 16.6694 2.82028 32.7497 2.82028C39.9239 2.81445 46.8464 5.4365 52.1831 10.1811C49.3982 6.98434 45.9492 4.4196 42.0715 2.66188C38.1938 0.904151 33.9786 -0.00520232 29.7135 -0.00414948Z" fill="#A2C037"/>
        <path d="M47.7158 0.723267C57.3915 6.69251 63.8461 17.3164 63.8461 29.4048C63.8461 48.0276 48.5356 63.1783 29.7151 63.1783C21.2203 63.1861 13.0304 60.0465 6.75781 54.3777C10.0068 58.0318 14.0054 60.9587 18.4874 62.9632C22.9693 64.9678 27.8315 66.0039 32.75 66.0027C51.8734 66.0027 67.4326 50.6017 67.4326 31.6819C67.4326 18.0576 59.3688 6.26211 47.7158 0.723267Z" fill="#C20D19"/>
    </g>
    <defs>
        <clipPath id="clip0">
            <rect width="161" height="66" fill="white"/>
        </clipPath>
    </defs>
</svg>
