<svg width="48" height="48" viewBox="0 0 48 48" fill="none" xmlns="http://www.w3.org/2000/svg">
    <path d="M6.42716 24.0813C6.42716 13.9118 14.7255 5.61354 24.895 5.61354C28.3119 5.61354 31.4034 6.50846 34.1695 8.13558C30.8339 5.28812 26.6034 3.49829 21.8848 3.49829C11.7153 3.49829 3.41699 11.7966 3.41699 21.9661C3.41699 28.8 7.07801 34.739 12.6102 37.9118C8.78648 34.4949 6.42716 29.6135 6.42716 24.0813Z" fill="#94CB40"/>
    <path d="M36.4475 6.02026C40.434 9.92535 42.8746 15.3762 42.8746 21.3965C42.8746 33.2745 33.2746 42.8745 21.3967 42.8745C16.7594 42.8745 12.4475 41.4101 8.94922 38.8881C12.8543 42.7118 18.1424 44.9898 23.9187 44.9898C35.7967 44.9898 45.3967 35.3898 45.3967 23.5118C45.3967 16.2711 41.817 9.92535 36.4475 6.02026Z" fill="#FF001F"/>
    <path d="M14.4812 16.4338L17.7355 20.8271L20.9897 16.4338H24.1626L19.4439 22.861L24.5694 29.7762H21.3151L17.7355 25.0576L14.1558 29.7762H10.9829L16.027 22.9423L11.3083 16.4338C11.3083 16.4338 14.4812 16.4338 14.4812 16.4338Z" fill="white"/>
    <path d="M32.3794 18.7117C31.0777 18.7117 30.2642 19.1185 30.2642 20.0134C30.2642 22.7795 37.8303 21.3151 37.8303 26.0337C37.8303 28.5558 35.5523 29.9388 32.4608 29.9388C30.2642 29.9388 28.0675 29.1253 26.4404 27.8236L27.5794 25.7083C29.0438 27.01 30.915 27.7422 32.4608 27.7422C33.9252 27.7422 34.9014 27.2541 34.9014 26.2778C34.9014 23.5117 27.3353 25.1388 27.3353 20.4202C27.3353 18.1422 29.4506 16.5964 32.6235 16.5964C34.4947 16.5964 36.4472 17.0846 37.6675 17.9795L36.6099 20.0134C35.0642 19.1185 33.437 18.7117 32.3794 18.7117Z" fill="white"/>
</svg>
