<svg width="106" height="43" viewBox="0 0 106 43" fill="none" xmlns="http://www.w3.org/2000/svg">
    <g clip-path="url(#clip0)">
        <path d="M10.9738 20.9246H11.0415L13.1924 15.698H15.5025V16.0564L11.5117 25.0188H10.4898L6.45703 16.0537V15.6953H8.76894L10.9738 20.9246Z" fill="black"/>
        <path d="M22.0401 21.9265V24.9143H19.5938V15.6992H25.4545V17.8063H22.0401V19.8203H25.0647V21.9265H22.0401Z" fill="black"/>
        <path d="M33.2764 22.0183L31.5555 24.9139H28.9609V24.5555L31.9993 20.0277L29.2839 16.0517V15.6934H31.7879L33.2764 18.0961H33.3432L34.8482 15.6996H37.3358V16.058L34.6241 20.0304L37.6752 24.5582V24.9165H35.0815L33.3606 22.021L33.2764 22.0183Z" fill="black"/>
        <path d="M55.046 24.1329H50.929L50.3169 25.4194H47.7031V25.0395L52.4047 15.0566H53.5538L58.27 25.0395V25.4194H55.658L55.046 24.1329ZM52.9719 19.193L51.8073 21.8806H54.1659L52.9719 19.193Z" fill="black"/>
        <path d="M65.3003 23.0651H69.0916V25.4186H62.6133V15.1875H65.3003V23.0651Z" fill="black"/>
        <path d="M80.4323 17.5258H76.567V18.9735H80.1185V21.2966H76.567V23.0946H80.5668V25.4186H73.9102V15.1875H80.4323V17.5258Z" fill="black"/>
        <path d="M94.6712 25.0387V25.4186H91.6868L89.8955 22.4075H88.5113V25.4186H85.8398V15.1875H90.4216C94.5257 15.2018 95.2704 20.0396 92.6301 21.7938L94.6712 25.0387ZM90.4179 17.5258C89.7912 17.5114 89.1371 17.5258 88.5076 17.5258V20.0549H90.4179C91.8652 20.0549 91.9403 17.541 90.4179 17.5258Z" fill="black"/>
        <path d="M98.2383 17.5258V15.1875H105.999V17.5258H103.448V25.4186H100.805V17.5258H98.2383Z" fill="black"/>
        <path d="M19.5629 -0.00390566C8.77554 -0.00390566 0 8.59126 0 19.1547C0 26.8163 4.61741 33.4405 11.2695 36.5027C8.54128 34.806 6.29454 32.4623 4.73748 29.689C3.18043 26.9156 2.36344 23.8022 2.36222 20.6374C2.36222 10.2702 10.9749 1.83625 21.5619 1.83625C26.2853 1.83246 30.8429 3.54076 34.3565 6.63195C32.523 4.5492 30.2523 2.87823 27.6993 1.73305C25.1463 0.587866 22.371 -0.0045916 19.5629 -0.00390566Z" fill="#A2C037"/>
        <path d="M31.4153 0.470703C37.7857 4.35976 42.0353 11.2814 42.0353 19.1572C42.0353 31.2902 31.9551 41.1611 19.564 41.1611C13.9711 41.1662 8.57898 39.1207 4.44922 35.4274C6.58828 37.8081 9.22095 39.715 12.1718 41.021C15.1226 42.327 18.3238 43.002 21.5621 43.0012C34.1527 43.0012 44.3966 32.9673 44.3966 20.6407C44.3966 11.7643 39.0875 4.07934 31.4153 0.470703Z" fill="#C20D19"/>
    </g>
    <defs>
        <clipPath id="clip0">
            <rect width="106" height="43" fill="white"/>
        </clipPath>
    </defs>
</svg>
