<svg width="331" height="369" viewBox="0 0 331 369" fill="none" xmlns="http://www.w3.org/2000/svg">
    <g clip-path="url(#clip0)">
        <path d="M51.3635 324.855V331.533H101.231V324.855H51.3635Z" fill="#E0E0E0"/>
        <path d="M58.1941 325.101C58.3712 325.101 58.5484 326.526 58.5484 328.218C58.5484 329.91 58.3712 331.334 58.1941 331.334C58.0169 331.334 57.8398 329.91 57.8398 328.218C57.8398 326.526 58.0169 325.101 58.1941 325.101Z" fill="#FAFAFA"/>
        <path d="M57.0425 325.012C57.2197 325.012 57.3968 326.437 57.3968 328.129C57.3968 329.821 57.2197 331.245 57.0425 331.245C56.8654 331.245 56.6882 329.821 56.6882 328.129C56.7768 326.348 56.954 325.012 57.0425 325.012Z" fill="#FAFAFA"/>
        <path d="M97.4332 325.101C97.6104 325.101 97.7875 326.526 97.7875 328.218C97.7875 329.91 97.6104 331.334 97.4332 331.334C97.2561 331.334 97.0789 329.91 97.0789 328.218C97.0789 326.526 97.2561 325.101 97.4332 325.101Z" fill="#FAFAFA"/>
        <path d="M96.2817 325.012C96.4588 325.012 96.636 326.437 96.636 328.129C96.636 329.821 96.4588 331.245 96.2817 331.245C96.1045 331.245 95.9274 329.821 95.9274 328.129C96.0159 326.348 96.1045 325.012 96.2817 325.012Z" fill="#FAFAFA"/>
        <path d="M89.8156 328.396C89.8156 328.574 84.1467 328.752 77.0607 328.752C69.9747 328.752 64.3058 328.574 64.3058 328.396C64.3058 328.218 69.9747 328.04 77.0607 328.04C84.0582 328.04 89.8156 328.218 89.8156 328.396Z" fill="#FAFAFA"/>
        <path d="M51.1251 355.024V368.381H100.993V355.024H51.1251Z" fill="#E0E0E0"/>
        <path d="M101.684 364.637C101.684 364.637 101.596 364.726 101.419 364.815C101.241 364.904 100.976 365.082 100.621 365.171C99.9127 365.438 98.7612 365.884 97.2555 366.151C95.7497 366.329 93.7124 366.418 91.7638 365.349C90.7895 364.815 89.9037 364.014 89.1951 362.945C88.4865 361.877 88.0436 360.541 88.3093 359.116C88.3979 358.404 88.7522 357.691 89.1951 357.157C89.7265 356.534 90.4352 356.178 91.3209 356.178C92.1181 356.178 92.9153 356.712 93.4467 357.335C93.9782 357.959 94.3325 358.76 94.421 359.65C94.5982 361.342 93.8896 363.123 92.7381 364.37C91.5866 365.705 89.8151 366.507 87.955 366.685C86.095 366.863 84.2349 366.596 82.3748 365.973C80.6033 365.349 78.7432 364.281 77.5031 362.678C76.8831 361.877 76.4402 360.897 76.3517 359.829C76.2631 358.76 76.6174 357.602 77.4146 356.801C77.8574 356.445 78.3889 356.178 79.0089 356.089C79.629 356.089 80.1604 356.267 80.6033 356.534C81.5776 357.157 82.1976 358.137 82.4634 359.205C82.9062 361.431 82.1091 363.657 80.5147 365.082C78.9204 366.507 76.8831 367.13 74.9345 367.397C72.9858 367.575 70.9486 367.486 69.0885 366.863C67.2284 366.24 65.634 365.082 64.6597 363.39C63.6854 361.787 63.4197 359.739 64.1283 358.048C64.4826 357.246 65.2797 356.445 66.1655 356.356C67.0512 356.178 68.0256 356.445 68.6456 356.979C70.0628 358.137 70.3285 360.007 69.7971 361.52C69.3542 363.034 68.2913 364.192 67.317 365.082C65.1912 366.863 62.6225 367.664 60.4967 367.753C58.2823 367.843 56.4222 367.219 55.0936 366.507C53.7649 365.795 52.7906 364.993 52.2592 364.37C51.9934 364.103 51.8163 363.836 51.6391 363.657C51.5506 363.479 51.462 363.39 51.462 363.39C51.5506 363.301 52.4363 364.815 55.1821 366.24C56.5108 366.863 58.3709 367.486 60.4967 367.308C62.6225 367.219 65.014 366.418 67.0512 364.637C68.0256 363.746 68.9999 362.678 69.3542 361.253C69.7971 359.918 69.5314 358.226 68.2913 357.335C67.6713 356.89 66.9627 356.712 66.1655 356.801C65.4569 356.89 64.8369 357.513 64.5711 358.226C63.9511 359.739 64.2168 361.52 65.1026 363.034C65.9883 364.548 67.4941 365.616 69.2656 366.24C71.0371 366.863 72.8972 366.952 74.8459 366.774C76.706 366.596 78.6546 365.973 80.0718 364.637C81.489 363.39 82.2862 361.253 81.8433 359.383C81.5776 358.404 81.0462 357.602 80.249 357.068C79.4518 356.534 78.4775 356.534 77.8574 357.246C77.2374 357.87 76.8831 358.849 76.9717 359.739C77.0603 360.63 77.4146 361.52 77.946 362.322C79.0975 363.836 80.7804 364.815 82.5519 365.438C84.3234 366.062 86.095 366.329 87.8665 366.151C89.638 365.973 91.2323 365.26 92.2952 364.014C93.4467 362.856 94.0667 361.253 93.8896 359.739C93.801 358.226 92.6495 356.801 91.3209 356.712C90.6123 356.712 89.9923 356.979 89.5494 357.513C89.1065 358.048 88.8408 358.671 88.7522 359.294C88.5751 360.63 88.9294 361.877 89.5494 362.856C90.1694 363.836 91.0552 364.637 92.0295 365.171C93.8896 366.24 95.8383 366.24 97.344 366.062C98.8498 365.884 100.001 365.438 100.71 365.171C101.241 364.726 101.684 364.637 101.684 364.637Z" fill="#FAFAFA"/>
        <path d="M55.6523 331.709V354.95H101.091V331.709H55.6523Z" fill="#EBEBEB"/>
        <path d="M63.1541 332.492C63.3313 332.492 63.5084 337.567 63.5084 343.711C63.5084 349.944 63.3313 354.931 63.1541 354.931C62.977 354.931 62.7998 349.855 62.7998 343.711C62.8884 337.567 62.977 332.492 63.1541 332.492Z" fill="#E0E0E0"/>
        <path d="M66.6083 332.225C66.7854 332.225 66.9626 337.211 66.9626 343.355C66.9626 349.499 66.7854 354.486 66.6083 354.486C66.4311 354.486 66.254 349.499 66.254 343.355C66.254 337.211 66.4311 332.225 66.6083 332.225Z" fill="#E0E0E0"/>
        <path d="M95.9271 331.512C96.1043 331.512 96.2814 336.766 96.2814 343.177C96.2814 349.677 96.1043 354.842 95.9271 354.842C95.75 354.842 95.5728 349.588 95.5728 343.177C95.5728 336.766 95.75 331.512 95.9271 331.512Z" fill="#E0E0E0"/>
        <path d="M91.8522 331.779C92.0294 331.779 92.2065 336.855 92.2065 343.177C92.2065 349.499 92.0294 354.575 91.8522 354.575C91.6751 354.575 91.4979 349.499 91.4979 343.177C91.4979 336.944 91.6751 331.779 91.8522 331.779Z" fill="#E0E0E0"/>
        <path d="M336.321 281.024C341.015 278.62 346.596 278.264 351.821 279.154C354.656 279.599 357.579 280.49 359.439 282.627C361.388 284.764 361.742 288.504 359.528 290.285C358.199 291.353 356.427 291.531 354.744 291.531C350.67 291.442 346.153 290.73 342.875 293.223C341.015 294.648 339.775 296.963 337.561 297.675C335.346 298.388 332.955 297.052 331.803 295.093C330.652 293.134 330.652 290.641 331.183 288.415C331.006 288.326 331.538 283.428 336.321 281.024Z" fill="#EBEBEB"/>
        <path d="M325.514 260.099C328.349 264.195 334.018 262.859 336.586 260.366C339.155 257.873 340.307 254.222 341.281 250.66C343.584 242.735 345.887 234.365 344.204 226.262C343.672 223.858 342.787 221.453 341.104 219.583C339.421 217.803 336.764 216.734 334.461 217.357C331.626 218.07 329.855 220.919 328.615 223.501C324.894 231.248 322.946 239.886 322.857 248.523C322.769 252.53 323.3 256.715 325.514 260.099Z" fill="#EBEBEB"/>
        <path d="M317.631 265.976C320.731 262.236 321.351 256.804 319.934 252.174C318.517 247.544 315.417 243.537 311.785 240.242C307.534 236.413 302.573 233.475 297.17 231.605C295.044 230.892 292.83 230.269 290.616 230.447C288.401 230.625 286.187 231.783 285.124 233.831C283.618 236.769 285.035 240.331 286.63 243.269C289.464 248.434 292.653 253.331 296.196 257.962C299.03 261.702 302.396 265.352 306.736 267.044C311.077 268.736 315.683 268.558 317.985 265.441" fill="#EBEBEB"/>
        <path d="M325.338 322.43C325.426 322.43 325.515 321.806 325.603 320.56C325.692 319.224 325.869 317.443 326.135 315.395C326.4 313.258 326.666 310.676 327.286 307.915C327.906 305.155 328.792 302.127 330.032 299.011C331.272 295.983 332.778 293.223 334.549 290.997C336.321 288.771 338.358 287.168 340.218 286.278C342.167 285.298 343.85 284.942 345.001 284.764C346.153 284.675 346.861 284.586 346.861 284.497C346.861 284.408 346.153 284.408 345.001 284.497C343.761 284.586 341.99 284.853 340.041 285.832C338.004 286.723 335.878 288.326 334.018 290.641C332.158 292.867 330.563 295.716 329.323 298.833C328.083 301.949 327.198 304.977 326.666 307.826C326.135 310.676 325.869 313.258 325.692 315.484C325.515 317.621 325.426 319.402 325.426 320.649C325.249 321.717 325.249 322.43 325.338 322.43Z" fill="#E0E0E0"/>
        <path d="M325.692 318.512C325.692 318.512 325.692 318.245 325.78 317.622C325.78 316.998 325.78 316.108 325.78 315.128C325.78 312.991 325.78 309.875 325.869 305.957C326.046 298.21 326.755 289.929 327.995 278.175C329.235 267.133 330.829 254.311 332.512 245.941C332.866 244.071 333.221 242.379 333.575 240.865C333.929 239.351 334.195 238.105 334.461 237.036C334.726 236.057 334.904 235.255 335.081 234.632C335.169 234.098 335.258 233.742 335.258 233.742C335.258 233.742 335.169 234.009 334.992 234.543C334.815 235.166 334.549 235.968 334.284 236.947C333.929 238.016 333.664 239.262 333.221 240.776C332.866 242.29 332.423 243.982 331.981 245.852C330.298 253.421 328.526 264.017 327.198 275.771C325.957 287.525 325.337 298.21 325.249 305.957C325.16 309.875 325.249 312.991 325.426 315.128C325.515 316.108 325.515 316.998 325.603 317.622C325.603 318.156 325.692 318.512 325.692 318.512Z" fill="#E0E0E0"/>
        <path d="M325.691 297.854C325.78 297.854 325.78 296.963 325.691 295.271C325.603 293.579 325.337 291.175 324.894 288.237C324.363 285.298 323.743 281.737 322.591 277.997C322.148 276.216 320.997 272.12 318.34 265.798C314.797 257.338 310.014 250.393 305.762 246.119C304.788 244.961 303.725 244.16 302.839 243.358C302.396 243.002 301.953 242.557 301.599 242.29C301.156 242.023 300.802 241.756 300.447 241.488C299.03 240.509 298.322 240.064 298.233 240.064C298.144 240.242 301.333 242.112 305.408 246.475C309.482 250.838 314.088 257.695 317.631 266.065C319.58 270.606 320.997 274.702 321.971 278.086C323.123 281.826 323.831 285.298 324.363 288.237C324.894 291.175 325.248 293.579 325.426 295.182C325.603 296.874 325.691 297.854 325.691 297.854Z" fill="#E0E0E0"/>
        <path d="M304.522 331.067L306.559 359.472H342.786L344.823 331.067H304.522Z" fill="#EBEBEB"/>
        <path d="M349.164 319.937H300.979V331.067H349.164V319.937Z" fill="#EBEBEB"/>
        <path d="M300.979 358.315V361.431H303.282H348.367V358.315H300.979Z" fill="#E0E0E0"/>
        <path d="M305.496 366.596L303.282 361.075H346.595L344.027 366.596H305.496Z" fill="#E0E0E0"/>
        <path d="M344.204 340.328C344.204 340.328 344.115 340.417 344.026 340.595C343.849 340.773 343.672 341.04 343.495 341.307C342.964 341.931 342.255 342.91 341.369 343.979L341.281 344.068L341.192 343.979C339.863 342.109 338.092 339.705 335.966 336.766H336.232C334.726 338.992 332.955 341.396 331.094 344.068L330.917 344.335L330.74 344.157C328.88 341.931 326.843 339.437 324.717 336.944H325.071C324.983 337.033 324.894 337.211 324.717 337.389C322.857 339.794 320.997 342.02 319.314 344.246L319.137 344.513L318.96 344.246C317.1 341.663 315.417 339.17 313.822 336.944H314.088C311.608 339.794 309.482 342.287 307.799 344.157L307.711 344.246L307.622 344.068C306.825 342.643 306.116 341.574 305.673 340.773C305.496 340.417 305.319 340.15 305.142 339.883C305.053 339.705 304.965 339.615 304.965 339.526C304.965 339.526 305.053 339.615 305.142 339.794C305.319 340.061 305.496 340.328 305.673 340.684C306.205 341.485 306.913 342.554 307.711 343.979H307.533C309.128 342.109 311.254 339.615 313.734 336.677L313.911 336.499L314.088 336.677C315.682 338.903 317.365 341.307 319.225 343.89H318.871C320.554 341.753 322.414 339.437 324.274 337.033C324.363 336.855 324.54 336.766 324.628 336.588L324.806 336.41L324.983 336.588C327.109 339.17 329.146 341.574 331.006 343.801H330.652C332.512 341.218 334.283 338.725 335.789 336.588L335.966 336.41L336.143 336.588C338.18 339.526 339.952 342.02 341.192 343.89H341.015C341.901 342.732 342.698 341.931 343.229 341.218C343.495 340.951 343.672 340.684 343.849 340.506C344.115 340.417 344.115 340.328 344.204 340.328Z" fill="#F5F5F5"/>
        <path d="M345.355 330.889C345.355 330.978 336.32 331.156 325.071 331.156C313.911 331.156 304.788 331.067 304.788 330.889C304.788 330.8 313.822 330.622 325.071 330.622C336.232 330.711 345.355 330.8 345.355 330.889Z" fill="#F5F5F5"/>
        <path d="M138.886 35.7959C138.886 35.7959 138.798 35.7959 138.709 35.7069C138.532 35.6178 138.355 35.5288 138.089 35.4397C137.557 35.1726 136.76 34.9055 135.875 34.4602C133.926 33.5698 131.091 32.4122 127.726 30.8985C120.817 27.8709 111.251 23.6859 100.799 19.1446C100.444 18.9665 100.179 18.8775 99.8244 18.6994H100.002C89.6382 23.1516 80.3378 27.1586 73.606 30.008C70.2402 31.4327 67.5829 32.5903 65.6342 33.3917C64.7485 33.7479 63.9513 34.1041 63.4199 34.2821C62.8884 34.4602 62.6227 34.5493 62.6227 34.5493C62.6227 34.5493 62.8884 34.3712 63.3313 34.1931C63.8627 33.926 64.5713 33.6588 65.4571 33.2136C67.4058 32.3232 70.063 31.1656 73.3403 29.7409C80.072 26.8024 89.3725 22.7954 99.6472 18.2542H99.7358H99.8244C100.09 18.3432 100.444 18.5213 100.799 18.6994C111.251 23.3297 120.728 27.5148 127.637 30.6313C131.003 32.1451 133.837 33.3917 135.786 34.2821C136.672 34.7274 137.469 35.0835 138 35.2616C138.266 35.3507 138.443 35.4397 138.532 35.5288C138.886 35.7069 138.886 35.7069 138.886 35.7959Z" fill="#E0E0E0"/>
        <path d="M180.96 31.8779H7.9718V162.061H180.96V31.8779Z" fill="#E0E0E0"/>
        <path d="M175.557 37.9331H13.9952V156.718H175.557V37.9331Z" fill="#FAFAFA"/>
        <path d="M49.6912 89.8459C49.6912 89.8459 49.8683 109.792 50.8426 115.847L75.7323 114.689C75.7323 114.689 73.5179 95.0996 74.4037 89.8459H49.6912Z" fill="#E0E0E0"/>
        <path d="M61.9146 92.6064C61.9146 92.6064 61.9146 92.6064 62.0032 92.6064C62.0917 92.6064 62.1803 92.6064 62.2689 92.6064C62.5346 92.6064 62.8889 92.6064 63.3318 92.6954C63.7747 92.7845 64.3061 92.8735 64.9261 93.1406C65.5462 93.4078 66.0776 93.853 66.6091 94.4763C67.1405 95.0996 67.5834 95.901 67.7606 96.8805C67.9377 97.86 67.8491 98.9285 67.4948 99.9971C67.3177 100.531 67.052 101.066 66.7862 101.511C66.5205 102.045 66.2548 102.49 65.989 103.114C65.5462 104.182 65.1033 105.429 65.0147 106.675V106.764H64.9261C64.129 106.764 63.3318 106.764 62.446 106.764C61.5603 106.764 60.6745 106.764 59.8773 106.764H59.7888V106.675C59.7888 105.429 59.1687 104.271 58.6373 103.292C58.3716 102.757 58.0173 102.312 57.663 101.778C57.3972 101.333 57.0429 100.888 56.7772 100.353C56.2458 99.3737 56.2458 98.2162 56.4229 97.3257C56.6001 96.3462 56.9544 95.5448 57.3972 94.8325C57.8401 94.1201 58.4601 93.6749 58.9916 93.4078C59.523 93.0516 60.0545 92.9626 60.4974 92.7845C60.9403 92.6954 61.2946 92.6064 61.4717 92.6064C61.5603 92.6064 61.6488 92.6064 61.7374 92.6064C61.9146 92.6064 61.9146 92.6064 61.9146 92.6064C61.9146 92.6064 61.9146 92.6064 61.826 92.6064C61.7374 92.6064 61.6489 92.6064 61.5603 92.6064C61.2946 92.6064 61.0288 92.6954 60.5859 92.7845C60.1431 92.8735 59.6116 93.0516 59.0802 93.4078C58.5487 93.764 57.9287 94.2092 57.4858 94.8325C57.0429 95.4558 56.7772 96.3462 56.6001 97.2367C56.4229 98.1271 56.5115 99.1957 56.9544 100.175C57.2201 100.62 57.4858 101.066 57.8401 101.6C58.1058 102.045 58.4601 102.579 58.8144 103.114C59.4345 104.182 59.9659 105.34 60.0545 106.586L59.9659 106.497C60.7631 106.497 61.6489 106.497 62.5346 106.497C63.4204 106.497 64.2175 106.497 65.0147 106.497L64.9261 106.586C65.1033 105.251 65.4576 104.093 65.989 103.025C66.2548 102.49 66.5205 101.956 66.7862 101.422C67.052 100.888 67.3177 100.442 67.4948 99.908C67.8491 98.9285 67.9377 97.86 67.7606 96.8805C67.5834 95.9901 67.1405 95.1887 66.6091 94.4763C66.0776 93.853 65.5462 93.4078 64.9261 93.1406C64.3947 92.8735 63.7747 92.6954 63.4204 92.6064C62.9775 92.5173 62.6232 92.5173 62.3575 92.5173C62.2689 92.5173 62.1803 92.5173 62.0917 92.5173C61.9146 92.6954 61.9146 92.6954 61.9146 92.6064Z" fill="white"/>
        <path d="M63.2432 106.586C63.2432 106.586 63.1546 106.497 63.2432 106.586C63.2432 106.408 63.2432 106.408 63.1546 106.319C63.1546 106.141 63.0661 105.785 62.9775 105.429C62.8889 104.627 62.7118 103.559 62.6232 102.134C62.6232 101.778 62.5346 101.422 62.5346 101.066C62.5346 100.71 62.5346 100.264 62.5346 99.9081C62.5346 99.4629 62.6232 99.0177 62.8003 98.6615C62.9775 98.3053 63.3318 97.8601 63.7747 97.682C64.2175 97.5039 64.749 97.593 65.1033 97.9491C65.2804 98.1272 65.369 98.3944 65.369 98.6615C65.369 98.9286 65.2804 99.1958 65.1033 99.3738C64.9261 99.5519 64.749 99.73 64.4833 99.8191C64.2175 99.9081 64.0404 99.9972 63.7747 100.086C63.2432 100.175 62.7118 100.264 62.1803 100.264C61.6489 100.264 61.1174 100.264 60.586 100.175C60.3202 100.175 60.0545 100.086 59.8773 99.9972C59.6116 99.9081 59.4345 99.73 59.2573 99.5519C59.0802 99.3738 58.9916 99.1067 58.903 98.8396C58.8144 98.5724 58.903 98.3053 58.9916 98.1272C59.0802 97.8601 59.2573 97.682 59.523 97.593C59.7888 97.5039 60.0545 97.5039 60.2317 97.593C60.4088 97.682 60.586 97.8601 60.7631 98.0382C60.8517 98.2163 60.9403 98.4834 61.0288 98.6615C61.1174 99.1067 61.1174 99.5519 61.1174 99.9081C61.1174 100.71 61.206 101.511 61.206 102.223C61.2946 103.648 61.2946 104.717 61.3831 105.518C61.3831 105.874 61.3831 106.23 61.3831 106.408C61.3831 106.497 61.3831 106.586 61.3831 106.675C61.3831 106.765 61.3831 106.765 61.3831 106.765C61.3831 106.765 61.3831 106.765 61.3831 106.675C61.3831 106.586 61.3831 106.497 61.3831 106.408C61.3831 106.23 61.3831 105.874 61.2946 105.518C61.206 104.717 61.206 103.559 61.1174 102.223C61.1174 101.511 61.0288 100.799 61.0288 99.9081C61.0288 99.4629 61.0288 99.1067 60.9403 98.6615C60.8517 98.4834 60.8517 98.2163 60.6745 98.0382C60.586 97.8601 60.4088 97.682 60.1431 97.593C59.9659 97.5039 59.7002 97.5039 59.523 97.593C59.3459 97.682 59.1687 97.8601 59.0802 98.0382C58.9916 98.2163 58.903 98.4834 58.9916 98.7505C59.0802 99.0177 59.1687 99.1958 59.3459 99.3738C59.7002 99.73 60.1431 99.9081 60.6745 99.9972C61.206 100.086 61.7374 100.086 62.2689 100.086C62.8003 100.086 63.3318 99.9971 63.8632 99.9081C64.129 99.8191 64.3947 99.8191 64.5718 99.641C64.8376 99.5519 65.0147 99.3738 65.1033 99.1958C65.2804 99.0177 65.369 98.7505 65.369 98.4834C65.369 98.2163 65.2804 98.0382 65.1033 97.8601C64.749 97.5039 64.2175 97.4149 63.8632 97.593C63.4204 97.771 63.1546 98.1272 62.9775 98.4834C62.8003 98.8396 62.7118 99.2848 62.7118 99.73C62.7118 100.175 62.7118 100.531 62.7118 100.888C62.7118 101.244 62.7118 101.6 62.8003 101.956C62.8889 103.381 63.0661 104.449 63.1546 105.251C63.2432 105.607 63.2432 105.963 63.2432 106.141C63.1546 106.319 63.1546 106.408 63.2432 106.586C63.1546 106.497 63.2432 106.586 63.2432 106.586Z" fill="white"/>
        <path d="M59.9661 106.675C59.9661 106.675 59.9661 106.942 60.0547 107.477C60.0547 108.1 60.1432 108.812 60.1432 109.614V109.525C60.6747 110.148 61.2061 110.771 61.8262 111.484H61.7376C62.3576 111.484 62.9776 111.395 63.6862 111.395H63.5977C63.952 111.039 64.2177 110.593 64.572 110.237C64.7492 110.059 64.9263 109.881 65.0149 109.614V109.703C65.0149 108.545 64.9263 107.477 64.9263 106.497L65.0149 106.586C63.5977 106.586 62.3576 106.586 61.3833 106.586C61.029 106.586 60.6747 106.586 60.3204 106.586C60.0547 106.675 59.9661 106.675 59.9661 106.675C59.9661 106.675 60.0547 106.675 60.3204 106.675C60.5861 106.675 60.9404 106.675 61.3833 106.586C62.3576 106.586 63.5977 106.497 65.1035 106.408H65.192V106.497C65.192 107.477 65.2806 108.545 65.2806 109.703C65.1035 109.881 64.9263 110.059 64.8377 110.326C64.4834 110.771 64.2177 111.128 63.8634 111.484H63.7748C63.0662 111.484 62.4462 111.573 61.8262 111.573H61.7376C61.1176 110.86 60.5861 110.148 60.0547 109.614C60.0547 108.723 60.0547 108.011 60.0547 107.388C59.8775 106.942 59.8775 106.675 59.9661 106.675Z" fill="white"/>
        <path d="M64.9264 109.525C64.9264 109.525 64.8378 109.525 64.7492 109.436C64.6606 109.347 64.4835 109.347 64.2178 109.258C63.7749 109.08 63.1548 108.991 62.4462 108.991C61.7376 108.991 61.1176 109.169 60.6747 109.347C60.4976 109.436 60.3204 109.525 60.1433 109.614C60.0547 109.703 59.9661 109.703 59.9661 109.703C59.9661 109.703 60.0547 109.614 60.1433 109.614C60.2319 109.525 60.409 109.436 60.5862 109.347C61.029 109.169 61.6491 108.991 62.3577 108.902C63.0663 108.902 63.6863 108.991 64.1292 109.169C64.3063 109.258 64.4835 109.347 64.6606 109.436C64.8378 109.436 64.9264 109.525 64.9264 109.525Z" fill="white"/>
        <path d="M64.9264 108.723C64.9264 108.723 64.8378 108.723 64.7492 108.634C64.6606 108.545 64.4835 108.545 64.2178 108.456C63.7749 108.278 63.1548 108.189 62.4462 108.189C61.7376 108.189 61.1176 108.367 60.6747 108.545C60.4976 108.634 60.3204 108.723 60.1433 108.812C60.0547 108.902 59.9661 108.902 59.9661 108.902C59.9661 108.902 60.0547 108.812 60.1433 108.812C60.2319 108.723 60.409 108.634 60.5862 108.545C61.029 108.367 61.6491 108.189 62.3577 108.1C63.0663 108.1 63.6863 108.189 64.1292 108.367C64.3063 108.456 64.4835 108.545 64.6606 108.634C64.8378 108.634 64.9264 108.723 64.9264 108.723Z" fill="white"/>
        <path d="M64.8377 108.011C64.8377 108.011 64.7491 108.011 64.6605 107.922C64.5719 107.833 64.3948 107.833 64.1291 107.744C63.6862 107.566 63.0662 107.477 62.3576 107.477C61.6489 107.477 61.0289 107.655 60.586 107.833C60.4089 107.922 60.2317 108.011 60.0546 108.1C59.966 108.189 59.8774 108.189 59.8774 108.189C59.8774 108.189 59.966 108.1 60.0546 108.1C60.1432 108.011 60.3203 107.922 60.4975 107.833C60.9403 107.655 61.5604 107.477 62.269 107.388C62.9776 107.388 63.5976 107.477 64.0405 107.655C64.2176 107.744 64.3948 107.833 64.5719 107.922C64.8377 107.922 64.8377 108.011 64.8377 108.011Z" fill="white"/>
        <path d="M21.9667 57.2556C21.9667 57.2556 22.1439 77.2016 23.1182 83.2566L48.0079 82.099C48.0079 82.099 45.7935 62.5092 46.6793 57.2556H21.9667Z" fill="#EBEBEB"/>
        <path d="M42.9588 65.6256C42.9588 65.8037 39.2386 66.0709 34.6327 66.338C30.0267 66.6051 26.3066 66.6942 26.3066 66.6051C26.3066 66.427 30.0267 66.1599 34.6327 65.8928C39.15 65.6256 42.8702 65.4476 42.9588 65.6256Z" fill="white"/>
        <path d="M42.9588 69.8107C42.9588 69.9888 39.2386 70.256 34.6327 70.5231C30.0267 70.7902 26.3066 70.8793 26.3066 70.7902C26.3066 70.6121 30.0267 70.345 34.6327 70.0779C39.15 69.8107 42.9588 69.7217 42.9588 69.8107Z" fill="white"/>
        <path d="M38.7079 73.9959C38.7079 74.174 36.5821 74.352 33.9249 74.5301C31.2676 74.7082 29.1418 74.7082 29.1418 74.5301C29.1418 74.352 31.2676 74.174 33.9249 73.9959C36.5821 73.8178 38.7079 73.8178 38.7079 73.9959Z" fill="white"/>
        <path d="M20.8151 115.936C20.8151 115.936 20.9923 135.882 21.9666 141.937L46.8563 140.779C46.8563 140.779 44.6419 121.189 45.5277 115.936H20.8151Z" fill="#EBEBEB"/>
        <path d="M41.719 124.306C41.719 124.484 37.9988 124.751 33.3929 125.018C28.7869 125.286 25.0668 125.375 25.0668 125.286C25.0668 125.107 28.7869 124.84 33.3929 124.573C37.9988 124.217 41.719 124.128 41.719 124.306Z" fill="white"/>
        <path d="M41.719 128.491C41.719 128.669 37.9988 128.936 33.3929 129.203C28.7869 129.47 25.0668 129.559 25.0668 129.47C25.0668 129.292 28.7869 129.025 33.3929 128.758C37.9988 128.491 41.719 128.402 41.719 128.491Z" fill="white"/>
        <path d="M37.5563 132.676C37.5563 132.854 35.4304 133.032 32.7732 133.21C30.1159 133.388 27.9901 133.388 27.9901 133.21C27.9901 133.032 30.1159 132.854 32.7732 132.676C35.3419 132.498 37.4677 132.498 37.5563 132.676Z" fill="white"/>
        <path d="M88.7524 62.509L91.2326 120.032L162.713 120.922L159.436 63.3104L88.7524 62.509Z" fill="#EBEBEB"/>
        <path d="M158.904 62.064H87.9556V115.936H158.904V62.064Z" fill="#F5F5F5"/>
        <path d="M158.905 115.936C158.905 115.936 158.905 115.58 158.905 114.956C158.905 114.333 158.905 113.354 158.905 112.107C158.905 109.614 158.905 105.874 158.816 101.244C158.816 91.8939 158.727 78.4482 158.727 62.1531L158.905 62.3311C138.887 62.3311 114.351 62.3311 87.9558 62.3311L88.2215 62.064C88.2215 81.4757 88.2215 99.8188 88.2215 115.936L88.0444 115.758C109.037 115.847 126.752 115.847 139.241 115.847C145.441 115.847 150.401 115.936 153.767 115.936C155.45 115.936 156.779 115.936 157.665 115.936C158.107 115.936 158.462 115.936 158.639 115.936C158.816 115.936 158.905 115.936 158.905 115.936C158.905 115.936 158.816 115.936 158.55 115.936C158.285 115.936 158.019 115.936 157.576 115.936C156.69 115.936 155.45 115.936 153.767 115.936C150.401 115.936 145.441 115.936 139.241 116.025C126.752 116.025 108.948 116.114 87.9558 116.114H87.7786V115.936C87.7786 99.8188 87.7786 81.4757 87.7786 62.064V61.7969H88.0444C114.44 61.7969 138.975 61.7969 158.993 61.7969H159.17V61.975C159.17 78.2701 159.082 91.8048 159.082 101.154C159.082 105.785 159.082 109.525 158.993 112.018C158.993 113.265 158.993 114.155 158.993 114.867C158.905 115.669 158.905 115.936 158.905 115.936Z" fill="#E0E0E0"/>
        <path d="M125.335 73.5508H96.5479V109.97H125.335V73.5508Z" fill="#F5F5F5"/>
        <path d="M125.246 109.881C125.246 109.881 125.246 109.792 125.246 109.703C125.246 109.525 125.246 109.436 125.246 109.169C125.246 108.723 125.246 108.011 125.246 107.21C125.246 105.429 125.246 102.935 125.158 99.7299C125.158 93.3187 125.069 84.2362 125.069 73.4618L125.246 73.6399C116.654 73.6399 106.823 73.6399 96.4593 73.6399C96.3707 73.7289 96.9022 73.1946 96.725 73.3727V73.4618V73.6399V73.996V74.6194V75.866C96.725 76.6674 96.725 77.5578 96.725 78.3592C96.725 80.0511 96.725 81.6539 96.725 83.2567C96.725 86.4623 96.725 89.6679 96.725 92.6954C96.725 98.8394 96.725 104.538 96.725 109.703L96.5479 109.525C105.14 109.525 112.314 109.614 117.363 109.614C119.843 109.614 121.792 109.614 123.209 109.703C123.829 109.703 124.361 109.703 124.715 109.703C125.069 109.881 125.246 109.881 125.246 109.881C125.246 109.881 125.069 109.881 124.715 109.881C124.361 109.881 123.829 109.881 123.209 109.881C121.88 109.881 119.932 109.881 117.452 109.97C112.403 109.97 105.14 110.059 96.4593 110.059H96.2821V109.881C96.2821 104.716 96.2821 98.9285 96.2821 92.8735C96.2821 89.846 96.2821 86.6404 96.2821 83.4348C96.2821 81.832 96.2821 80.1401 96.2821 78.5373C96.2821 77.7359 96.2821 76.8455 96.2821 76.0441V74.7974V74.1741V73.818V73.6399V73.5508C96.105 73.7289 96.5479 73.2837 96.5479 73.2837C106.911 73.2837 116.743 73.2837 125.335 73.2837H125.512V73.4618C125.423 84.3252 125.423 93.4077 125.423 99.8189C125.423 103.025 125.335 105.518 125.335 107.21C125.335 108.011 125.335 108.723 125.335 109.169C125.335 109.347 125.335 109.525 125.335 109.703C125.246 109.881 125.246 109.881 125.246 109.881Z" fill="#E0E0E0"/>
        <path d="M152.705 65.1804H97.611V70.434H152.705V65.1804Z" fill="#F5F5F5"/>
        <path d="M152.705 70.434C152.705 70.434 152.705 70.345 152.705 70.0778C152.705 69.8107 152.705 69.4545 152.705 69.0983C152.705 68.2079 152.705 66.8722 152.616 65.2694L152.705 65.3585C143.404 65.4475 122.235 65.5366 97.6107 65.5366C98.0536 65.0023 97.7879 65.3585 97.8764 65.2694V65.3585V65.5366V65.8927V66.6051C97.8764 67.0503 97.8764 67.4955 97.8764 67.9408C97.8764 68.8312 97.8764 69.7217 97.8764 70.523L97.6107 70.2559C113.023 70.2559 126.752 70.345 136.672 70.345C141.633 70.345 145.619 70.434 148.364 70.434C149.693 70.434 150.756 70.434 151.553 70.434C151.907 70.434 152.173 70.434 152.35 70.434C152.616 70.434 152.705 70.434 152.705 70.434C152.705 70.434 152.616 70.434 152.439 70.434C152.262 70.434 151.996 70.434 151.642 70.434C150.933 70.434 149.87 70.434 148.542 70.434C145.796 70.434 141.81 70.434 136.85 70.523C126.929 70.523 113.111 70.6121 97.6107 70.6121H97.345V70.345C97.345 69.5436 97.345 68.6531 97.345 67.7627C97.345 67.3175 97.345 66.8722 97.345 66.427V65.7147V65.3585V65.1804V65.0913C97.4336 65.0023 97.0793 65.3585 97.6107 64.8242C122.235 64.8242 143.404 64.9133 152.705 65.0023H152.793V65.0913C152.793 66.7832 152.793 68.1189 152.705 69.0093C152.705 69.4545 152.705 69.7217 152.705 69.9888C152.705 70.345 152.705 70.434 152.705 70.434Z" fill="#E0E0E0"/>
        <path d="M152.704 73.5508H128.789V95.4557H152.704V73.5508Z" fill="#F5F5F5"/>
        <path d="M152.704 95.4557C152.704 95.4557 152.704 95.2777 152.704 95.0105C152.704 94.7434 152.704 94.2982 152.704 93.853C152.704 92.7844 152.704 91.2707 152.616 89.4007C152.616 85.5718 152.527 80.0511 152.527 73.5508L152.704 73.7289C145.795 73.7289 137.558 73.7289 128.789 73.7289C128.7 73.818 129.232 73.2837 129.055 73.4618V73.5508V73.6399V73.907V74.2632V74.9755C129.055 75.5098 129.055 75.955 129.055 76.4893C129.055 77.4688 129.055 78.4483 129.055 79.4278C129.055 81.3867 129.055 83.2567 129.055 85.1266C129.055 88.7774 129.055 92.2502 129.055 95.5448L128.878 95.3667C135.964 95.4558 141.898 95.4557 146.15 95.4557C148.187 95.4557 149.87 95.4558 151.021 95.5448C151.553 95.5448 151.996 95.5448 152.35 95.5448C152.527 95.4558 152.704 95.4557 152.704 95.4557C152.704 95.4557 152.527 95.4557 152.261 95.4557C151.907 95.4557 151.553 95.4557 151.021 95.4557C149.87 95.4557 148.187 95.4558 146.15 95.5448C141.898 95.5448 135.875 95.6338 128.7 95.6338H128.523V95.4557C128.523 92.2502 128.523 88.7774 128.523 85.0376C128.523 83.1676 128.523 81.2977 128.523 79.3387C128.523 78.3592 128.523 77.3797 128.523 76.4002C128.523 75.866 128.523 75.4208 128.523 74.8865V74.1741V73.907V73.7289V73.6399V73.5508C128.346 73.7289 128.789 73.2837 128.789 73.2837C137.558 73.2837 145.795 73.2837 152.704 73.2837H152.881V73.4618C152.881 80.0511 152.793 85.5718 152.793 89.4007C152.793 91.2707 152.793 92.7844 152.704 93.853C152.704 94.2982 152.704 94.7434 152.704 95.0105C152.793 95.3667 152.704 95.4557 152.704 95.4557Z" fill="#E0E0E0"/>
        <path d="M152.704 98.8394H128.788V109.881H152.704V98.8394Z" fill="#F5F5F5"/>
        <path d="M152.704 109.881C152.704 109.881 152.704 109.614 152.704 109.079C152.704 108.545 152.704 107.833 152.704 106.853C152.704 104.894 152.616 102.223 152.616 98.8393L152.793 99.0174C146.592 99.0174 138.089 99.0174 128.877 99.1065C128.7 99.2845 129.143 98.8393 129.143 98.8393V98.9284V99.0174V99.1955V99.5517V100.264C129.143 100.709 129.143 101.244 129.143 101.689C129.143 102.668 129.143 103.559 129.143 104.538C129.143 106.408 129.143 108.189 129.143 109.881L128.877 109.614C135.786 109.703 141.721 109.703 145.972 109.703C148.098 109.703 149.781 109.792 150.933 109.792C151.464 109.792 151.907 109.792 152.261 109.792C152.527 109.881 152.704 109.881 152.704 109.881C152.704 109.881 152.527 109.881 152.261 109.881C151.907 109.881 151.464 109.881 150.933 109.881C149.693 109.881 148.098 109.881 145.972 109.97C141.632 109.97 135.698 110.059 128.7 110.059H128.434V109.792C128.434 108.1 128.434 106.319 128.434 104.449C128.434 103.559 128.434 102.579 128.434 101.6C128.434 101.154 128.434 100.62 128.434 100.175V99.4626V99.1065V98.9284V98.8393V98.7503C128.346 98.8393 128.877 98.3051 128.7 98.4831C138.001 98.4831 146.415 98.5722 152.616 98.5722H152.793V98.7503C152.793 102.134 152.704 104.894 152.704 106.853C152.704 107.744 152.704 108.456 152.616 108.99C152.793 109.703 152.704 109.881 152.704 109.881Z" fill="#E0E0E0"/>
        <path d="M124.538 73.5493C115.591 85.9265 105.405 97.5023 96.4591 109.879L124.538 73.5493Z" fill="white"/>
        <path d="M96.5469 109.881C96.5469 109.881 96.6355 109.703 96.8126 109.436C96.9898 109.169 97.2555 108.812 97.5212 108.367C98.1412 107.388 99.2041 106.052 100.444 104.36C102.924 100.976 106.467 96.5242 110.453 91.5377C114.439 86.5512 117.982 82.099 120.551 78.8043C121.791 77.2015 122.765 75.8659 123.562 74.8864C123.917 74.4412 124.182 74.085 124.36 73.8178C124.537 73.5507 124.625 73.4617 124.714 73.4617C124.714 73.4617 124.625 73.6398 124.448 73.9069C124.271 74.174 124.005 74.5302 123.74 74.9754C123.119 75.9549 122.057 77.2906 120.817 78.9824C118.336 82.3661 114.793 86.8183 110.808 91.8048C106.822 96.7913 103.279 101.244 100.71 104.538C99.4699 106.141 98.4955 107.477 97.6984 108.456C97.3441 108.901 97.0783 109.258 96.9012 109.525C96.6355 109.792 96.5469 109.881 96.5469 109.881Z" fill="#E0E0E0"/>
        <path d="M125.246 109.881C125.158 109.97 118.603 101.867 110.631 91.8048C102.66 81.7428 96.3708 73.5507 96.4594 73.4617C96.5479 73.3726 103.103 81.4757 111.074 91.5377C119.046 101.6 125.335 109.792 125.246 109.881Z" fill="#E0E0E0"/>
        <path d="M91.2329 73.5505C91.2329 76.0438 89.1957 78.0918 86.7156 78.0918C84.2355 78.0918 82.1982 76.0438 82.1982 73.5505C82.1982 71.0573 84.2355 69.0093 86.7156 69.0093C89.1957 69.0983 91.2329 71.0573 91.2329 73.5505Z" fill="#E0E0E0"/>
        <path d="M164.839 62.5982C164.839 65.0914 162.802 67.1394 160.322 67.1394C157.842 67.1394 155.805 65.0914 155.805 62.5982C155.805 60.1049 157.842 58.0569 160.322 58.0569C162.802 58.0569 164.839 60.1049 164.839 62.5982Z" fill="#E0E0E0"/>
        <path d="M340.838 94.1199H289.022V169.719H340.838V94.1199Z" fill="#E0E0E0"/>
        <path d="M338.18 94.1191H286.363V169.718H338.18V94.1191Z" fill="#F5F5F5"/>
        <path d="M331.803 102.312H292.83V161.527H331.803V102.312Z" fill="white"/>
        <path d="M331.803 161.527C331.803 161.527 331.803 161.438 331.803 161.26C331.803 161.081 331.803 160.814 331.803 160.458C331.803 159.746 331.803 158.588 331.803 157.253C331.803 154.403 331.803 150.307 331.803 145.053C331.803 134.635 331.803 119.854 331.715 102.401L331.803 102.49C319.934 102.49 306.736 102.49 292.83 102.49L293.007 102.312C293.007 124.662 293.007 145.232 293.007 161.527L292.919 161.438C304.788 161.438 314.531 161.527 321.263 161.527C324.629 161.527 327.286 161.527 329.057 161.527C329.943 161.527 330.652 161.527 331.095 161.527C331.537 161.527 331.803 161.527 331.803 161.527C331.803 161.527 331.537 161.527 331.095 161.527C330.652 161.527 329.943 161.527 329.057 161.527C327.286 161.527 324.629 161.527 321.263 161.527C314.442 161.527 304.699 161.527 292.83 161.616H292.741V161.527C292.741 145.232 292.741 124.662 292.741 102.312V102.134H292.919C306.825 102.134 319.934 102.134 331.892 102.134H331.98V102.223C331.98 119.676 331.892 134.457 331.892 144.964C331.892 150.218 331.892 154.314 331.892 157.163C331.892 158.588 331.892 159.657 331.892 160.369C331.892 160.725 331.892 160.992 331.892 161.17C331.803 161.438 331.803 161.527 331.803 161.527Z" fill="#E0E0E0"/>
        <path d="M286.363 169.63C288.666 166.78 290.881 164.02 293.184 161.17L286.363 169.63Z" fill="white"/>
        <path d="M293.185 161.17C293.273 161.259 291.767 163.129 289.907 165.445C288.047 167.76 286.453 169.63 286.364 169.541C286.276 169.452 287.782 167.582 289.642 165.266C291.59 162.951 293.096 161.17 293.185 161.17Z" fill="#E0E0E0"/>
        <path d="M286.363 94.1199C286.452 94.0309 287.869 95.8117 289.641 98.0379C291.412 100.264 292.741 102.134 292.741 102.134C292.652 102.223 291.235 100.442 289.464 98.2159C287.692 95.9898 286.363 94.2089 286.363 94.1199Z" fill="#E0E0E0"/>
        <path d="M319.668 114.333H306.648V151.554H319.668V114.333Z" fill="#E0E0E0"/>
        <path d="M328.964 13.8707L321.524 13.9106L321.722 51.0421L329.162 51.0022L328.964 13.8707Z" fill="#E0E0E0"/>
        <path d="M276.393 13.9285L257.172 14.032L257.281 34.5122L276.502 34.4087L276.393 13.9285Z" fill="#EBEBEB"/>
        <path d="M295.526 13.8397L276.305 13.9431L276.414 34.4233L295.635 34.3199L295.526 13.8397Z" fill="#F5F5F5"/>
        <path d="M257.223 19.6787C269.978 19.7677 282.821 19.6787 295.576 19.5006C295.842 19.5006 295.842 19.0554 295.576 19.0554C282.821 18.9663 269.978 19.0554 257.223 19.3225C256.957 19.3225 256.957 19.6787 257.223 19.6787Z" fill="#E0E0E0"/>
        <path d="M280.124 34.0996L245.225 34.2876L245.314 51.0279L280.213 50.8399L280.124 34.0996Z" fill="#EBEBEB"/>
        <path d="M314.846 33.9219L279.947 34.1099L280.037 50.8502L314.935 50.6623L314.846 33.9219Z" fill="#F5F5F5"/>
        <path d="M245.177 38.9124C268.384 39.1796 291.679 38.9124 314.886 38.5563C315.152 38.5563 315.152 38.111 314.886 38.111C291.679 38.022 268.384 38.022 245.177 38.5563C245 38.5563 245 38.9124 245.177 38.9124Z" fill="#E0E0E0"/>
        <path d="M367.5 51.0225H232.156V56.9884H367.5V51.0225Z" fill="#E0E0E0"/>
        <path d="M259.792 53.8721H254.3V74.2632H259.792V53.8721Z" fill="#E0E0E0"/>
        <path d="M336.189 -0.0202056L328.749 0.0197754L329.022 51.1313L336.462 51.0913L336.189 -0.0202056Z" fill="#EBEBEB"/>
        <path d="M332.335 10.8635C333.509 10.8635 334.461 9.90669 334.461 8.72642C334.461 7.54615 333.509 6.58936 332.335 6.58936C331.161 6.58936 330.209 7.54615 330.209 8.72642C330.209 9.90669 331.161 10.8635 332.335 10.8635Z" fill="#E0E0E0"/>
        <path d="M383 368.021C383 368.11 297.436 368.288 191.943 368.288C86.4496 368.288 0.885803 368.199 0.885803 368.021C0.885803 367.932 86.4496 367.753 191.943 367.753C297.436 367.842 383 367.932 383 368.021Z" fill="#263238"/>
        <path d="M208.574 297.586L189.531 276.127L189.354 302.217L195.111 318.957L137.98 328.93L135.588 283.695L131.514 248.968C130.982 244.694 133.463 240.687 137.36 239.084L153.038 232.851L175.182 236.947L184.039 240.331C187.759 241.756 191.125 244.071 193.694 247.098L220.444 277.908" fill="#1AA3E0"/>
        <path d="M188.113 270.962C188.113 270.873 189.353 271.051 191.302 270.695C193.251 270.428 195.908 269.448 198.211 267.4C200.425 265.352 201.577 262.681 202.108 260.811C202.551 258.852 202.463 257.605 202.551 257.605C202.551 257.605 202.64 257.873 202.64 258.496C202.64 259.03 202.551 259.921 202.374 260.9C202.02 262.859 200.868 265.619 198.477 267.757C196.174 269.894 193.339 270.873 191.302 271.051C190.328 271.14 189.442 271.14 188.911 271.14C188.379 271.14 188.113 271.051 188.113 270.962Z" fill="white"/>
        <path d="M189.797 301.148C189.974 301.148 189.974 292.066 189.885 280.935C189.797 269.804 189.62 260.722 189.442 260.722C189.265 260.722 189.265 269.804 189.354 280.935C189.442 292.066 189.62 301.148 189.797 301.148Z" fill="#263238"/>
        <path d="M187.671 307.737L153.215 293.847C150.469 292.689 148.52 290.107 148.343 287.079L145.863 253.866C145.863 253.866 146.129 239.708 137.36 239.084L132.4 241.043C125.934 244.516 124.339 253.955 125.225 261.256C126.465 271.585 126.997 286.278 128.414 295.271C129.565 302.662 133.728 309.073 140.903 311.032L183.331 320.293L187.671 307.737Z" fill="#1AA3E0"/>
        <path d="M146.306 258.941C146.306 258.941 146.394 259.208 146.394 259.742C146.483 260.277 146.483 260.989 146.66 261.968C146.837 263.927 147.103 266.688 147.369 270.071C147.635 273.455 147.989 277.551 148.432 282.003C148.52 283.161 148.609 284.319 148.697 285.476C148.786 286.634 148.875 287.88 149.14 289.038C149.406 290.196 149.937 291.353 150.823 292.155C151.709 292.956 152.86 293.579 154.012 294.113C163.49 298.21 172.258 301.682 178.636 304.086C181.825 305.244 184.393 306.224 186.165 306.847C187.051 307.203 187.671 307.381 188.202 307.648C188.645 307.826 188.911 307.915 188.911 307.915C188.911 307.915 188.645 307.826 188.202 307.737C187.671 307.559 186.962 307.381 186.076 307.025C184.305 306.402 181.647 305.511 178.459 304.354C172.081 302.038 163.312 298.655 153.746 294.559C152.595 294.024 151.355 293.401 150.469 292.511C149.495 291.62 148.875 290.374 148.609 289.127C148.343 287.88 148.255 286.723 148.166 285.476C148.077 284.319 147.989 283.161 147.9 282.003C147.546 277.551 147.28 273.455 147.014 270.071C146.749 266.688 146.572 263.927 146.394 261.968C146.306 261.078 146.306 260.277 146.217 259.742C146.306 259.208 146.217 258.941 146.306 258.941Z" fill="#263238"/>
        <path d="M126.554 276.928C126.554 276.928 126.554 277.106 126.643 277.373C126.643 277.729 126.731 278.175 126.731 278.62C126.82 279.777 126.997 281.38 127.174 283.339C127.351 285.298 127.617 287.702 127.971 290.285C128.325 292.867 128.768 295.805 129.566 298.744C129.92 300.258 130.451 301.593 131.248 302.751C132.046 303.908 132.931 304.977 133.817 305.956C135.677 307.826 137.626 309.162 139.309 310.142C142.852 312.011 145.421 312.011 145.332 312.101C145.332 312.101 145.155 312.101 144.889 312.101C144.623 312.101 144.18 312.011 143.649 311.922C142.586 311.744 140.992 311.299 139.132 310.409C137.36 309.518 135.323 308.183 133.463 306.224C132.489 305.244 131.603 304.176 130.806 303.018C130.008 301.771 129.388 300.347 129.034 298.833C128.237 295.894 127.794 292.956 127.528 290.374C127.174 287.702 126.997 285.387 126.82 283.339C126.643 281.38 126.554 279.688 126.554 278.62C126.554 278.086 126.554 277.64 126.554 277.373C126.465 277.106 126.465 276.928 126.554 276.928Z" fill="#263238"/>
        <path d="M141.257 300.258C141.169 300.258 141.346 299.545 141.877 298.388C142.409 297.319 143.383 295.895 144.8 294.648C146.217 293.401 147.723 292.689 148.875 292.333C150.026 291.977 150.823 291.977 150.823 291.977C150.823 292.066 150.115 292.155 149.052 292.6C147.989 293.045 146.483 293.757 145.154 294.915C143.826 296.073 142.851 297.408 142.231 298.388C141.611 299.545 141.346 300.258 141.257 300.258Z" fill="#263238"/>
        <path d="M148.078 274.969C148.078 274.969 148.166 274.969 148.255 275.058C148.432 275.147 148.609 275.236 148.875 275.414C149.406 275.681 150.203 276.127 151.355 276.483C153.481 277.195 156.935 277.997 161.01 277.284C165.084 276.661 169.779 274.257 173.056 269.805C174.65 267.578 175.89 264.907 176.245 261.969C176.422 260.455 176.245 258.941 175.802 257.516C175.359 256.092 174.473 254.756 173.322 253.688C172.17 252.619 170.753 251.907 169.247 251.729C167.741 251.461 166.236 251.907 165.173 252.886C164.641 253.42 164.376 254.044 164.376 254.756C164.376 255.468 164.641 256.092 165.084 256.626C165.881 257.784 167.299 258.229 168.627 258.496C171.284 258.852 173.942 258.407 176.156 257.427C178.37 256.448 180.231 255.023 181.471 253.42C182.799 251.818 183.596 250.126 184.039 248.523C184.482 246.92 184.659 245.495 184.659 244.338C184.659 243.18 184.571 242.29 184.482 241.667C184.394 241.399 184.394 241.132 184.394 240.954C184.394 240.776 184.394 240.687 184.394 240.687C184.394 240.687 184.925 241.934 184.925 244.249C184.925 245.406 184.836 246.92 184.305 248.523C183.862 250.126 183.065 251.907 181.736 253.598C180.408 255.29 178.548 256.715 176.333 257.784C174.03 258.763 171.373 259.297 168.539 258.941C167.21 258.763 165.704 258.229 164.73 256.982C164.287 256.359 163.933 255.646 163.933 254.845C163.933 254.044 164.287 253.242 164.818 252.708C165.97 251.55 167.653 251.194 169.247 251.461C170.842 251.639 172.347 252.441 173.499 253.509C174.739 254.578 175.625 256.003 176.067 257.516C176.599 259.03 176.688 260.633 176.51 262.147C176.245 265.174 174.916 267.935 173.233 270.25C169.867 274.791 165.084 277.195 160.921 277.819C156.758 278.442 153.304 277.64 151.178 276.839C149.052 275.771 148.078 274.969 148.078 274.969Z" fill="white"/>
        <path d="M125.491 266.065C125.491 266.065 125.668 265.798 126.022 265.352C126.377 264.907 126.997 264.373 127.883 263.75C129.565 262.503 132.311 261.345 135.5 260.989C137.094 260.811 138.6 260.9 140.017 261.167C141.346 261.434 142.586 261.88 143.472 262.414C144.446 262.859 145.066 263.393 145.598 263.66C146.04 264.017 146.306 264.195 146.306 264.284C146.218 264.373 145.243 263.571 143.383 262.681C141.523 261.791 138.689 261.078 135.589 261.434C132.488 261.701 129.743 262.77 128.06 263.928C126.377 265.174 125.491 266.154 125.491 266.065Z" fill="white"/>
        <path d="M130.982 242.29C131.071 242.201 131.868 243.358 133.817 244.338C134.791 244.872 135.943 245.228 137.36 245.406C138.777 245.584 140.283 245.406 141.789 244.783C143.294 244.16 144.534 243.18 145.332 242.023C146.217 240.954 146.749 239.797 147.103 238.728C147.723 236.68 147.546 235.255 147.635 235.344C147.635 235.344 147.723 235.7 147.723 236.324C147.723 236.947 147.635 237.838 147.369 238.906C147.103 239.975 146.483 241.221 145.597 242.379C144.712 243.536 143.383 244.605 141.877 245.228C140.283 245.852 138.688 246.03 137.183 245.852C135.765 245.673 134.437 245.228 133.551 244.694C132.577 244.16 131.868 243.536 131.514 243.091C131.16 242.646 130.982 242.379 130.982 242.29Z" fill="white"/>
        <path d="M161.009 296.963C161.009 296.963 161.009 296.696 161.098 296.34C161.186 295.895 161.364 295.271 161.718 294.559C162.427 293.045 164.109 291.175 166.855 290.018C169.513 288.771 173.233 288.593 176.953 289.661C178.813 290.196 180.85 290.908 182.267 292.689C182.976 293.579 183.153 294.915 182.622 295.984C182.09 297.052 181.205 297.764 180.142 298.299C179.079 298.833 178.016 299.1 176.864 299.1C175.713 299.1 174.561 298.833 173.764 298.121C172.878 297.408 172.436 296.34 172.347 295.271C172.258 294.203 172.436 293.223 172.79 292.244C174.296 288.504 177.219 286.189 179.876 285.031C182.622 283.874 185.013 283.695 186.696 283.874C188.291 284.052 189.176 284.408 189.176 284.408C189.176 284.497 188.291 284.141 186.696 284.052C185.102 283.963 182.71 284.141 180.053 285.298C178.724 285.922 177.396 286.723 176.156 287.97C174.916 289.127 173.853 290.641 173.144 292.422C172.79 293.312 172.613 294.292 172.701 295.271C172.79 296.251 173.144 297.23 173.941 297.854C174.739 298.477 175.713 298.744 176.776 298.744C177.839 298.744 178.902 298.477 179.876 297.943C180.85 297.497 181.736 296.785 182.09 295.806C182.533 294.915 182.356 293.757 181.736 293.045C181.116 292.244 180.319 291.62 179.433 291.175C178.547 290.73 177.662 290.463 176.687 290.196C173.056 289.127 169.424 289.305 166.767 290.463C164.109 291.531 162.338 293.312 161.629 294.737C161.098 296.073 161.098 296.963 161.009 296.963Z" fill="white"/>
        <path d="M138.069 309.518C138.069 309.429 139.397 309.34 141.346 308.628C143.295 307.915 145.952 306.491 148.166 304.087C150.292 301.682 151.443 298.922 151.975 296.874C152.506 294.826 152.418 293.49 152.506 293.49C152.506 293.49 152.595 293.846 152.595 294.47C152.595 295.093 152.506 295.983 152.329 296.963C151.886 299.1 150.823 301.949 148.52 304.443C146.306 306.936 143.56 308.361 141.523 308.984C140.46 309.34 139.663 309.429 139.043 309.518C138.423 309.518 138.069 309.518 138.069 309.518Z" fill="white"/>
        <path d="M126.908 283.606C126.908 283.606 127.085 283.517 127.351 283.428C127.616 283.339 128.059 283.25 128.591 283.072C129.654 282.805 131.248 282.449 133.285 282.627C134.259 282.716 135.411 282.894 136.474 283.428C137.537 283.873 138.688 284.675 139.485 285.743C140.283 286.812 140.725 288.326 140.637 289.75C140.548 290.463 140.371 291.264 139.928 291.887C139.485 292.511 138.954 293.134 138.157 293.401C137.36 293.668 136.474 293.49 135.854 292.956C135.234 292.333 135.057 291.531 135.057 290.819C134.968 289.305 135.322 287.88 135.854 286.723C136.917 284.23 138.954 282.627 140.903 281.914C142.851 281.202 144.534 281.291 145.597 281.469C146.129 281.558 146.571 281.647 146.837 281.825C147.103 281.914 147.28 282.003 147.28 282.003C147.28 282.093 146.66 281.825 145.597 281.647C144.534 281.558 142.851 281.558 141.08 282.271C139.308 282.983 137.36 284.586 136.297 286.901C135.765 288.059 135.5 289.394 135.588 290.819C135.588 291.531 135.765 292.244 136.297 292.689C136.74 293.134 137.537 293.223 138.157 293.045C138.777 292.867 139.308 292.333 139.751 291.709C140.105 291.086 140.283 290.463 140.371 289.75C140.46 288.415 140.017 286.99 139.308 286.01C138.6 284.942 137.537 284.23 136.474 283.784C135.411 283.339 134.348 283.072 133.374 282.983C131.425 282.805 129.831 283.072 128.768 283.339C127.528 283.517 126.908 283.695 126.908 283.606Z" fill="white"/>
        <g opacity="0.3">
            <g opacity="0.3">
                <path opacity="0.3" d="M177.75 303.819C174.03 301.682 170.487 300.08 166.59 298.388C162.692 296.607 158.972 294.381 156.403 290.908C151.62 284.497 152.152 275.147 147.28 268.825C147.634 273.099 147.9 277.373 148.254 281.647C148.52 285.565 147.989 289.483 150.469 292.155C152.595 294.381 156.669 296.162 159.592 297.052C165.615 298.922 171.904 301.86 177.75 303.819Z" fill="black"/>
            </g>
        </g>
        <path d="M237.716 352.616C237.716 352.616 266.591 360.63 267.743 361.075C269.514 361.698 269.16 368.109 266.503 368.02C265.263 367.931 244.359 368.822 241.702 368.644C239.044 368.466 231.073 365.349 231.073 365.349L237.716 352.616Z" fill="#1AA3E0"/>
        <path d="M249.762 363.746C249.94 363.746 250.117 362.233 251.002 360.63C251.888 359.027 253.128 358.048 253.04 357.959C252.951 357.87 251.534 358.671 250.56 360.363C249.585 362.055 249.585 363.746 249.762 363.746Z" fill="#263238"/>
        <path d="M246.751 362.322C246.928 362.322 247.194 360.986 247.991 359.472C248.788 357.959 249.674 356.89 249.585 356.801C249.497 356.712 248.345 357.691 247.548 359.294C246.662 360.897 246.574 362.322 246.751 362.322Z" fill="#263238"/>
        <path d="M243.916 361.609C244.094 361.609 243.916 360.185 244.625 358.582C245.245 356.979 246.308 356 246.219 355.911C246.131 355.822 244.891 356.712 244.182 358.404C243.385 360.096 243.739 361.609 243.916 361.609Z" fill="#263238"/>
        <path d="M244.359 357.869C244.448 357.869 244.625 357.068 244.625 355.732C244.625 355.02 244.536 354.219 244.359 353.328C244.27 352.883 244.093 352.438 243.916 351.993C243.828 351.725 243.739 351.458 243.473 351.28C243.208 351.013 242.676 351.102 242.499 351.369C242.233 351.636 242.145 351.903 242.145 352.171C242.145 352.438 242.145 352.705 242.145 352.972C242.145 353.506 242.233 353.951 242.322 354.397C242.499 355.287 242.853 356 243.207 356.623C243.916 357.78 244.448 358.404 244.536 358.404C244.625 358.315 244.093 357.691 243.562 356.534C243.296 355.91 242.942 355.198 242.765 354.397C242.676 353.951 242.587 353.506 242.587 353.061C242.587 352.616 242.587 352.082 242.853 351.814C243.03 351.725 243.119 351.725 243.207 351.814C243.296 351.903 243.473 352.082 243.562 352.349C243.739 352.794 243.916 353.239 244.005 353.595C244.27 354.397 244.359 355.198 244.359 355.821C244.448 356.979 244.359 357.78 244.359 357.869Z" fill="#263238"/>
        <path d="M244.359 357.513C244.359 357.424 243.65 357.246 242.499 357.246C241.879 357.246 241.17 357.335 240.462 357.513C240.107 357.602 239.665 357.691 239.31 357.958C238.956 358.137 238.513 358.671 238.69 359.294C238.779 359.828 239.31 360.185 239.753 360.363C240.196 360.452 240.639 360.452 241.082 360.363C241.879 360.185 242.499 359.828 242.942 359.472C243.828 358.76 244.359 358.226 244.27 358.137C244.182 358.048 243.65 358.582 242.765 359.205C242.322 359.472 241.702 359.828 240.993 360.007C240.639 360.096 240.285 360.096 239.93 360.007C239.576 359.917 239.31 359.65 239.222 359.294C239.133 358.938 239.31 358.671 239.665 358.493C239.93 358.315 240.373 358.226 240.727 358.048C241.436 357.869 242.145 357.78 242.676 357.691C243.65 357.513 244.359 357.602 244.359 357.513Z" fill="#263238"/>
        <path d="M254.191 364.013C254.368 364.013 254.191 362.767 254.722 361.431C255.254 360.096 256.228 359.294 256.14 359.205C256.051 359.116 254.9 359.739 254.28 361.253C253.66 362.767 254.014 364.102 254.191 364.013Z" fill="#263238"/>
        <path d="M233.996 365.349C233.996 365.349 234.35 365.527 235.147 365.884C235.856 366.151 237.007 366.596 238.336 366.863C241.082 367.575 245.068 367.932 249.319 367.932C253.66 367.843 257.557 367.665 260.391 367.575C261.72 367.486 262.871 367.486 263.757 367.397C264.554 367.308 264.997 367.308 264.997 367.308C264.997 367.308 264.554 367.219 263.757 367.219C262.871 367.219 261.72 367.219 260.391 367.219C257.468 367.308 253.66 367.308 249.319 367.397C244.979 367.486 241.17 367.13 238.425 366.507C235.679 365.973 234.084 365.26 233.996 365.349Z" fill="#263238"/>
        <path d="M233.198 366.061C233.198 366.15 233.996 365.705 235.324 365.082C236.653 364.548 238.601 363.835 240.816 364.192C243.03 364.548 244.536 365.972 245.51 367.041C246.485 368.109 247.105 368.822 247.193 368.733C247.193 368.733 246.75 367.931 245.776 366.774C245.333 366.24 244.713 365.527 243.827 364.993C243.03 364.37 241.967 363.924 240.816 363.746C238.513 363.39 236.476 364.192 235.147 364.815C233.818 365.438 233.11 365.972 233.198 366.061Z" fill="#263238"/>
        <path d="M207.069 344.602C207.069 344.602 179.788 362.589 178.813 363.301C177.308 364.459 178.991 369.712 181.559 368.822C182.799 368.377 205.652 361.965 208.132 360.986C210.612 360.006 217.255 354.575 217.255 354.575L207.069 344.602Z" fill="#1AA3E0"/>
        <path d="M199.008 358.849C199.097 358.849 198.654 357.246 197.148 355.911C195.731 354.575 194.048 354.219 194.048 354.308C193.959 354.486 195.465 354.931 196.794 356.267C198.211 357.513 198.831 358.938 199.008 358.849Z" fill="#263238"/>
        <path d="M201.4 356.623C201.489 356.534 200.957 355.198 199.717 353.951C198.477 352.705 197.149 352.082 197.06 352.26C196.972 352.349 198.212 353.15 199.363 354.308C200.603 355.465 201.312 356.712 201.4 356.623Z" fill="#263238"/>
        <path d="M203.88 355.02C203.969 355.02 203.88 353.417 202.729 351.992C201.577 350.568 200.071 350.033 200.071 350.212C199.983 350.301 201.311 350.924 202.374 352.349C203.437 353.684 203.703 355.109 203.88 355.02Z" fill="#263238"/>
        <path d="M202.286 351.636C202.374 351.636 202.02 350.835 201.666 349.588C201.489 348.965 201.4 348.164 201.312 347.273C201.312 346.828 201.312 346.383 201.312 345.937C201.312 345.67 201.4 345.492 201.489 345.314C201.577 345.225 201.666 345.136 201.843 345.225C202.197 345.314 202.286 345.848 202.463 346.294C202.64 346.739 202.729 347.184 202.729 347.629C202.817 348.52 202.729 349.232 202.64 349.944C202.463 351.28 202.197 352.081 202.286 352.081C202.374 352.081 202.729 351.369 202.994 350.033C203.172 349.41 203.26 348.52 203.172 347.629C203.172 347.184 203.083 346.739 202.906 346.205C202.817 345.937 202.729 345.759 202.64 345.492C202.552 345.225 202.374 344.958 202.02 344.869C201.754 344.691 201.223 344.78 201.046 345.136C200.869 345.403 200.869 345.67 200.78 345.937C200.78 346.472 200.78 346.917 200.78 347.362C200.869 348.253 201.046 349.054 201.223 349.677C201.754 350.924 202.197 351.636 202.286 351.636Z" fill="#263238"/>
        <path d="M202.198 351.369C202.198 351.458 202.906 351.102 203.969 350.835C204.501 350.746 205.209 350.568 205.918 350.568C206.272 350.568 206.715 350.568 207.069 350.657C207.424 350.746 207.689 350.924 207.689 351.28C207.689 351.636 207.512 351.992 207.246 352.171C206.981 352.349 206.626 352.438 206.272 352.527C205.563 352.616 204.855 352.438 204.323 352.349C203.26 351.992 202.552 351.725 202.552 351.814C202.552 351.903 203.172 352.26 204.235 352.705C204.766 352.883 205.475 353.061 206.272 352.972C206.626 352.972 207.069 352.883 207.512 352.616C207.955 352.349 208.221 351.903 208.221 351.28C208.221 350.657 207.601 350.301 207.158 350.212C206.715 350.123 206.272 350.123 205.918 350.123C205.121 350.212 204.412 350.301 203.88 350.479C202.729 350.835 202.198 351.28 202.198 351.369Z" fill="#263238"/>
        <path d="M185.014 367.842C185.014 367.842 185.456 367.575 185.722 366.774C185.988 365.972 185.811 364.815 185.191 363.835C184.925 363.301 184.571 362.856 184.305 362.5C184.039 362.144 183.685 361.698 183.419 361.52C183.065 361.253 182.799 361.164 182.533 361.164C182.268 361.164 182.179 361.253 182.179 361.253C182.179 361.342 182.711 361.253 183.154 361.787C183.419 362.054 183.685 362.411 183.951 362.767C184.216 363.212 184.571 363.657 184.836 364.103C185.368 365.082 185.545 366.061 185.457 366.774C185.279 367.397 185.014 367.842 185.014 367.842Z" fill="#263238"/>
        <path d="M194.846 360.452C194.934 360.452 194.934 359.027 193.871 357.78C192.809 356.534 191.48 356.267 191.48 356.356C191.391 356.534 192.543 356.979 193.517 358.048C194.491 359.294 194.669 360.541 194.846 360.452Z" fill="#263238"/>
        <path d="M214.421 355.643C214.421 355.643 213.978 355.91 213.18 356.445C212.383 356.979 211.32 357.691 209.815 358.493C208.309 359.294 206.537 360.096 204.5 360.897C202.463 361.698 200.071 362.411 197.68 363.123C192.808 364.548 188.291 365.883 185.102 366.774C183.596 367.219 182.268 367.664 181.293 367.931C180.408 368.199 179.876 368.377 179.965 368.466C179.965 368.466 180.496 368.377 181.382 368.199C182.356 367.931 183.685 367.575 185.191 367.219C188.468 366.329 192.897 365.082 197.768 363.657C200.248 362.945 202.551 362.233 204.589 361.431C206.626 360.63 208.486 359.739 209.903 358.938C211.409 358.137 212.472 357.335 213.18 356.712C214.066 355.999 214.421 355.643 214.421 355.643Z" fill="#263238"/>
        <path d="M215.395 355.999C215.395 355.91 214.509 355.643 213.092 355.376C211.675 355.109 209.461 355.02 207.335 356.089C206.272 356.623 205.475 357.424 204.855 358.226C204.235 359.027 203.88 359.828 203.615 360.541C203.083 361.876 202.817 362.767 202.817 362.856C202.906 362.856 203.26 362.055 203.88 360.719C204.5 359.472 205.563 357.602 207.512 356.623C209.461 355.643 211.586 355.643 213.004 355.821C214.509 355.91 215.395 356.089 215.395 355.999Z" fill="#263238"/>
        <path d="M263.846 300.792C263.846 300.792 271.995 303.73 272.083 312.991C272.172 330.711 236.565 350.122 236.565 350.122L189.177 318.601L186.165 317.354C186.165 317.354 250.117 293.223 263.846 300.792Z" fill="#263238"/>
        <path d="M213.092 334.539C213.092 334.539 213.535 334.272 214.332 333.738C215.129 333.204 216.192 332.313 217.609 331.245C220.355 329.108 223.987 326.169 227.973 322.697C231.958 319.224 235.413 316.018 237.893 313.703C239.133 312.546 240.107 311.566 240.816 310.854C241.525 310.141 241.879 309.785 241.79 309.785C241.79 309.785 241.347 310.141 240.639 310.765C239.842 311.477 238.867 312.367 237.627 313.525C235.059 315.84 231.604 319.046 227.618 322.429C223.632 325.813 220.001 328.841 217.343 331.067C216.103 332.135 215.041 333.026 214.243 333.649C213.535 334.183 213.092 334.539 213.092 334.539Z" fill="#455A64"/>
        <path d="M250.471 307.381C250.471 307.292 248.345 307.025 245.865 307.826C243.385 308.539 241.702 309.874 241.791 309.963C241.879 310.053 243.562 308.984 245.954 308.272C248.345 307.559 250.471 307.559 250.471 307.381Z" fill="#455A64"/>
        <path d="M246.308 304.621C246.308 304.532 244.713 305.155 243.473 306.758C242.233 308.271 241.879 309.963 241.967 309.963C242.144 310.052 242.587 308.539 243.827 307.025C245.067 305.6 246.396 304.799 246.308 304.621Z" fill="#455A64"/>
        <path d="M266.414 360.63C266.414 360.541 265.883 360.451 265.174 360.986C264.554 361.52 264.023 362.5 263.846 363.746C263.669 364.993 263.934 366.061 264.289 366.774C264.643 367.486 264.997 367.842 264.997 367.842C265.086 367.753 264.82 367.397 264.554 366.685C264.289 365.972 264.111 364.993 264.289 363.835C264.466 362.767 264.909 361.787 265.44 361.253C265.883 360.719 266.414 360.719 266.414 360.63Z" fill="#263238"/>
        <path d="M252.951 271.941L236.033 314.95L163.401 316.107L161.984 312.189L187.494 311.21L199.717 273.099L252.951 271.941Z" fill="#455A64"/>
        <path d="M218.938 290.552C219.912 289.928 221.595 290.196 222.392 290.908C223.189 291.62 223.544 292.956 223.101 294.025C222.658 295.093 221.595 295.805 220.443 295.894C219.292 295.983 217.963 295.182 217.698 294.025C217.432 292.867 217.786 291.175 218.938 290.552Z" fill="#EBEBEB"/>
        <path d="M240.993 352.349C240.993 352.349 174.03 308.183 171.285 307.292C168.539 306.402 161.896 302.039 155.252 303.819C148.609 305.689 142.675 311.655 139.752 320.382C138.069 325.368 137.272 333.916 136.917 340.239C136.474 347.896 138.777 355.465 143.738 361.253C145.952 363.924 148.786 366.15 152.064 367.219C152.772 367.397 153.481 367.664 154.189 367.753C166.856 370.514 179.876 364.815 186.962 353.951L188.557 351.547C188.557 351.547 232.313 367.753 233.022 367.486L240.993 352.349Z" fill="#263238"/>
        <path d="M158.175 340.15C158.175 340.15 158.264 340.239 158.529 340.328C158.795 340.417 159.149 340.595 159.592 340.773C160.567 341.129 161.984 341.663 163.844 342.376C167.564 343.8 172.967 345.848 179.61 348.342C186.342 350.835 194.314 353.862 203.348 357.157C212.383 360.452 222.304 364.103 233.021 367.664L233.198 367.753L233.287 367.575C234.97 364.37 236.741 360.986 238.513 357.513C239.399 355.732 240.373 354.041 241.17 352.349L241.259 352.171L241.082 352.082C220.975 339.259 202.994 327.772 189.974 319.491C183.508 315.395 178.282 312.101 174.65 309.785C172.879 308.628 171.461 307.737 170.487 307.203C170.044 306.936 169.69 306.669 169.424 306.491C169.158 306.313 169.07 306.313 169.07 306.313C169.07 306.313 169.158 306.402 169.424 306.58C169.69 306.758 170.044 307.025 170.487 307.292C171.461 307.916 172.79 308.806 174.65 309.964C178.282 312.279 183.419 315.662 189.885 319.848C202.817 328.129 220.798 339.704 240.904 352.527L240.816 352.171C239.93 353.773 239.044 355.554 238.159 357.335C236.387 360.808 234.616 364.192 232.933 367.397L233.198 367.308C222.569 363.657 212.56 360.096 203.526 356.801C194.491 353.506 186.519 350.568 179.787 348.075C173.056 345.581 167.741 343.622 163.932 342.198C162.072 341.485 160.655 341.04 159.681 340.595C159.238 340.417 158.795 340.328 158.529 340.239C158.264 340.15 158.175 340.15 158.175 340.15Z" fill="#455A64"/>
        <path d="M165.085 183.431C166.236 180.315 168.716 178.979 171.905 178.178C175.094 177.376 178.637 178.356 181.117 180.582C182.711 182.096 183.951 184.144 185.9 185.034C189.177 186.548 193.429 184.322 196.529 186.192C198.389 187.26 199.275 189.754 198.566 191.802C197.858 193.85 195.643 195.185 193.517 194.918C195.643 195.898 196.086 199.192 194.58 201.062C193.074 202.932 190.329 203.466 188.114 202.754C185.811 202.131 183.951 200.528 182.268 198.747C180.674 196.966 179.257 195.007 177.485 193.404C175.714 191.802 173.588 190.466 171.196 190.377C168.008 190.288 164.996 192.425 163.313 195.185C161.63 197.946 161.01 201.24 160.567 204.446C160.124 207.651 159.77 210.946 158.53 213.885C158.353 214.241 158.176 214.597 157.821 214.686C157.29 214.775 156.936 214.241 156.67 213.706C154.278 208.008 152.95 201.864 152.861 195.63C152.861 192.069 153.216 188.685 155.43 185.836C157.644 182.986 162.87 181.294 165.085 183.431Z" fill="#263238"/>
        <path d="M157.556 197.767L152.596 233.741C151.798 239.885 156.139 245.406 162.339 245.94C168.008 246.475 173.145 242.379 173.942 236.68C174.297 234.008 174.651 231.693 174.651 231.426C174.651 231.426 183.863 231.782 185.811 222.878C186.697 218.515 187.937 209.432 188.823 201.24C189.886 192.425 183.951 184.233 175.271 182.541L174.385 182.363C164.996 180.938 158.619 188.24 157.556 197.767Z" fill="#FFBE9D"/>
        <path d="M174.651 231.248C174.651 231.248 168.893 230.536 163.667 225.549C163.667 225.549 165.173 232.584 174.208 233.563L174.651 231.248Z" fill="#EB996E"/>
        <path d="M185.014 206.672C184.926 207.384 184.217 207.83 183.509 207.741C182.8 207.652 182.269 207.028 182.446 206.316C182.534 205.604 183.243 205.158 183.951 205.247C184.66 205.336 185.103 205.96 185.014 206.672Z" fill="#263238"/>
        <path d="M185.989 205.247C185.812 205.425 185.015 204.446 183.597 204.179C182.269 203.912 181.117 204.357 180.94 204.179C180.851 204.09 181.117 203.823 181.649 203.555C182.18 203.288 182.977 203.199 183.774 203.377C184.66 203.555 185.28 204.001 185.635 204.446C185.989 204.802 186.077 205.158 185.989 205.247Z" fill="#263238"/>
        <path d="M171.462 204.446C171.374 205.158 170.665 205.603 169.956 205.514C169.248 205.425 168.716 204.802 168.894 204.09C168.982 203.377 169.691 202.932 170.399 203.021C171.019 203.11 171.551 203.733 171.462 204.446Z" fill="#263238"/>
        <path d="M172.437 202.754C172.259 202.932 171.462 201.952 170.045 201.685C168.717 201.418 167.565 201.863 167.388 201.685C167.299 201.596 167.565 201.329 168.096 201.062C168.628 200.795 169.425 200.706 170.222 200.884C171.108 201.062 171.728 201.507 172.082 201.952C172.437 202.398 172.525 202.665 172.437 202.754Z" fill="#263238"/>
        <path d="M175.448 213.973C175.448 213.884 176.334 213.884 177.751 213.973C178.106 213.973 178.46 213.973 178.549 213.795C178.726 213.528 178.637 213.172 178.549 212.727C178.371 211.836 178.194 210.857 178.017 209.788C177.308 205.692 176.954 202.309 177.043 202.309C177.22 202.309 177.928 205.603 178.549 209.699C178.726 210.679 178.903 211.658 178.991 212.638C179.08 213.083 179.169 213.528 178.903 214.062C178.726 214.33 178.46 214.419 178.194 214.419C177.928 214.419 177.751 214.419 177.574 214.419C176.246 214.241 175.36 214.062 175.448 213.973Z" fill="#263238"/>
        <path d="M171.196 214.152C171.462 214.152 171.108 215.665 172.171 217.001C173.234 218.337 174.828 218.515 174.828 218.693C174.828 218.782 174.385 218.871 173.765 218.782C173.145 218.693 172.171 218.248 171.551 217.446C170.931 216.645 170.754 215.665 170.842 215.042C170.842 214.419 171.108 214.152 171.196 214.152Z" fill="#263238"/>
        <path d="M173.853 197.411C173.676 197.767 172.347 197.322 170.664 197.144C168.981 196.966 167.653 197.233 167.476 196.788C167.387 196.61 167.741 196.343 168.273 196.076C168.893 195.808 169.779 195.63 170.753 195.719C171.727 195.808 172.613 196.165 173.144 196.521C173.764 196.877 173.942 197.233 173.853 197.411Z" fill="#263238"/>
        <path d="M186.343 201.151C186.077 201.418 185.191 200.884 184.04 200.617C182.888 200.35 181.914 200.439 181.737 199.994C181.648 199.815 181.914 199.548 182.357 199.281C182.8 199.103 183.597 198.925 184.394 199.103C185.191 199.281 185.811 199.726 186.166 200.083C186.343 200.617 186.431 200.973 186.343 201.151Z" fill="#263238"/>
        <path d="M156.936 204.535C156.758 204.446 151.178 201.507 150.115 207.652C149.052 213.796 155.518 213.618 155.518 213.439C155.607 213.261 156.936 204.535 156.936 204.535Z" fill="#FFBE9D"/>
        <path d="M154.101 210.768C154.101 210.768 154.013 210.857 153.747 210.857C153.57 210.946 153.215 210.946 152.95 210.768C152.33 210.412 151.975 209.254 152.152 208.186C152.241 207.652 152.418 207.117 152.684 206.672C152.95 206.227 153.304 205.96 153.658 205.96C154.013 205.96 154.19 206.138 154.278 206.405C154.367 206.583 154.278 206.672 154.278 206.761C154.278 206.761 154.455 206.672 154.455 206.405C154.455 206.316 154.367 206.138 154.278 205.96C154.19 205.782 153.924 205.693 153.747 205.693C153.304 205.604 152.773 206.049 152.507 206.494C152.152 206.939 151.975 207.563 151.887 208.186C151.71 209.433 152.152 210.679 153.038 211.124C153.481 211.302 153.835 211.213 154.013 211.124C154.013 210.946 154.101 210.768 154.101 210.768Z" fill="#EB996E"/>
        <path d="M191.037 199.726C186.874 199.994 182.622 198.124 180.054 194.829C178.282 192.514 177.131 189.575 174.562 188.151C172.879 187.171 170.753 187.171 168.893 187.795C167.033 188.418 165.35 189.575 163.933 190.822C164.73 195.72 162.604 200.617 160.479 205.069C160.213 205.603 159.947 206.138 159.504 206.316C158.707 206.761 157.644 206.049 157.201 205.247C156.404 204.001 156.315 202.398 156.315 200.884C156.404 197.5 156.936 194.028 158.353 190.911C159.77 187.795 161.896 185.034 164.819 183.164C168.362 180.849 172.879 180.226 177.042 181.116C181.205 182.007 184.925 184.411 187.76 187.616C189.088 189.13 190.24 190.822 190.683 192.692" fill="#263238"/>
        <path d="M25.7754 344.78C25.7754 344.78 25.8639 344.691 25.9525 344.424C26.0411 344.157 26.2182 343.8 26.484 343.355C26.9268 342.376 27.4583 340.951 27.9897 339.081C28.9641 335.252 29.3184 329.375 27.9012 322.43C27.1926 318.957 26.1297 315.217 24.801 311.299C23.4724 307.292 21.9666 303.107 20.7266 298.566C19.4865 294.025 18.5122 289.127 18.6893 283.963C18.8665 278.798 20.3723 273.633 22.0552 268.469C23.7381 263.304 25.4211 258.318 25.9525 253.242C26.5725 248.167 25.4211 243.269 23.2067 239.173C20.9923 235.077 18.1579 231.515 16.1206 227.954C13.9948 224.303 12.6662 220.563 11.869 217.09C10.2747 210.056 10.8061 204.179 11.6033 200.35C12.4005 196.432 13.3748 194.473 13.3748 194.473C13.3748 194.473 13.3748 194.651 13.2862 194.829C13.1977 195.096 13.1091 195.452 12.9319 195.987C12.6662 196.966 12.2233 198.48 11.869 200.439C11.1604 204.357 10.7175 210.145 12.3119 217.09C13.1091 220.563 14.4377 224.214 16.5635 227.776C18.6893 231.337 21.4352 234.899 23.7381 238.995C26.0411 243.091 27.1926 248.256 26.5725 253.331C26.0411 258.496 24.2696 263.571 22.6752 268.647C20.9923 273.812 19.4865 278.887 19.3094 283.963C19.1322 289.038 20.018 293.936 21.258 298.477C22.4981 303.018 24.0039 307.203 25.2439 311.21C26.5725 315.217 27.6354 318.957 28.2555 322.43C29.6727 329.464 29.2298 335.341 28.2555 339.17C27.724 341.129 27.104 342.554 26.6611 343.444C26.3954 343.89 26.2182 344.246 26.1297 344.513C25.8639 344.602 25.7754 344.78 25.7754 344.78Z" fill="#263238"/>
        <path d="M18.9554 231.426C18.9554 231.426 14.7038 217.802 22.3212 209.788C22.587 209.521 23.0298 209.61 23.1184 210.056C23.4727 212.282 24.0042 219.138 18.9554 231.426Z" fill="#1AA3E0"/>
        <path d="M21.4357 214.33C21.5242 214.33 21.3471 215.309 21.1699 216.823C20.9042 218.515 20.5499 220.563 20.1956 222.878C19.8413 225.104 19.487 227.152 19.2213 228.844C18.9555 230.358 18.867 231.337 18.7784 231.337C18.6898 231.337 18.6898 230.358 18.867 228.844C19.0441 227.33 19.3098 225.104 19.6642 222.789C20.0185 220.474 20.4613 218.337 20.8156 216.823C21.1699 215.22 21.4357 214.33 21.4357 214.33Z" fill="#263238"/>
        <path d="M23.9147 263.571C23.9147 263.571 26.4834 249.502 36.9353 246.03C37.2896 245.941 37.6439 246.208 37.5553 246.653C36.8467 248.79 34.1008 255.112 23.9147 263.571Z" fill="#1AA3E0"/>
        <path d="M34.1017 249.681C34.1903 249.77 33.5703 250.482 32.6845 251.729C31.6216 253.153 30.3816 254.756 29.053 256.626C27.7243 258.407 26.4843 260.099 25.4214 261.523C24.5356 262.77 23.9156 263.571 23.827 263.482C23.7384 263.482 24.2699 262.592 25.0671 261.256C25.9528 259.921 27.1929 258.14 28.6101 256.27C30.0273 254.4 31.3559 252.708 32.4188 251.461C33.3931 250.304 34.0132 249.592 34.1017 249.681Z" fill="#263238"/>
        <path d="M21.0813 298.744C21.0813 298.744 19.4869 284.586 28.5216 278.175C28.8759 277.908 29.2302 278.175 29.2302 278.531C29.2302 280.846 28.433 287.702 21.0813 298.744Z" fill="#1AA3E0"/>
        <path d="M26.8384 282.449C26.927 282.449 26.5727 283.428 26.0412 284.853C25.4212 286.456 24.7126 288.415 23.9154 290.552C23.1182 292.689 22.4096 294.648 21.8782 296.251C21.3467 297.676 21.081 298.655 20.9924 298.566C20.9038 298.566 21.081 297.586 21.5239 296.073C21.9667 294.559 22.6754 292.511 23.4725 290.285C24.2697 288.059 25.0669 286.011 25.6869 284.586C26.3069 283.339 26.7498 282.449 26.8384 282.449Z" fill="#263238"/>
        <path d="M28.9639 334.184C28.9639 334.184 27.901 319.937 37.1129 313.881C37.4672 313.703 37.8215 313.881 37.8215 314.327C37.7329 316.553 36.67 323.409 28.9639 334.184Z" fill="#1AA3E0"/>
        <path d="M35.2529 318.156C35.3415 318.156 34.9872 319.135 34.3672 320.56C33.7472 322.163 32.95 324.122 32.0642 326.17C31.1785 328.307 30.4699 330.177 29.7613 331.779C29.2298 333.204 28.8755 334.095 28.7869 334.095C28.6984 334.095 28.9641 333.115 29.407 331.601C29.8498 330.087 30.647 328.129 31.5328 325.902C32.4185 323.676 33.3043 321.717 34.0129 320.293C34.7215 318.957 35.1644 318.066 35.2529 318.156Z" fill="#263238"/>
        <path d="M12.8434 219.405C12.8434 219.405 0.265726 212.816 0 201.775C0 201.418 0.442877 201.151 0.708603 201.329C2.56869 202.665 7.79464 207.117 12.8434 219.405Z" fill="#1AA3E0"/>
        <path d="M2.65754 205.604C2.74611 205.604 3.27757 206.316 4.2519 207.563C5.3148 208.987 6.46628 210.679 7.79491 212.46C9.12354 214.33 10.3636 215.933 11.3379 217.357C12.2237 218.604 12.8437 219.405 12.7551 219.405C12.6666 219.494 12.0465 218.782 10.9836 217.535C10.0093 216.378 8.68066 214.597 7.26346 212.727C5.84625 210.768 4.69477 208.987 3.80902 207.652C3.01184 206.405 2.56896 205.604 2.65754 205.604Z" fill="#263238"/>
        <path d="M26.3958 248.701C26.3958 248.701 13.4638 242.913 12.4895 231.872C12.4895 231.515 12.8438 231.248 13.1981 231.426C15.1468 232.584 20.5499 236.769 26.3958 248.701Z" fill="#1AA3E0"/>
        <path d="M15.3236 235.522C15.4121 235.433 16.0322 236.235 17.0065 237.392C18.0694 238.728 19.398 240.331 20.8152 242.112C22.2324 243.893 23.5611 245.495 24.624 246.831C25.5983 247.989 26.2183 248.79 26.2183 248.79C26.1298 248.879 25.4211 248.167 24.3582 247.098C23.2953 245.941 21.8781 244.338 20.3724 242.468C18.8666 240.598 17.5379 238.906 16.6522 237.659C15.7664 236.324 15.235 235.522 15.3236 235.522Z" fill="#263238"/>
        <path d="M18.8668 281.38C18.8668 281.38 9.92066 270.25 14.1723 260.01C14.3494 259.653 14.7923 259.564 14.9695 259.921C16.2095 261.88 19.1325 268.024 18.8668 281.38Z" fill="#1AA3E0"/>
        <path d="M15.0582 264.551C15.1468 264.551 15.324 265.441 15.6783 266.955C16.0326 268.647 16.4754 270.695 17.0069 272.921C17.4498 275.147 17.8927 277.195 18.3355 278.887C18.6898 280.401 18.867 281.38 18.7784 281.38C18.6898 281.38 18.3355 280.49 17.8927 278.976C17.4498 277.462 16.9183 275.414 16.4754 273.01C15.944 270.695 15.5897 268.558 15.324 267.044C15.0582 265.531 14.9697 264.551 15.0582 264.551Z" fill="#263238"/>
        <path d="M27.7242 319.758C27.7242 319.758 14.8807 313.703 14.1721 302.662C14.1721 302.306 14.5264 302.039 14.8807 302.217C16.7408 303.463 22.1439 307.737 27.7242 319.758Z" fill="#1AA3E0"/>
        <path d="M16.9179 306.313C17.0065 306.313 17.6265 307.025 18.6009 308.183C19.6638 309.518 20.9924 311.21 22.321 312.991C23.7382 314.772 24.9783 316.375 26.1298 317.71C27.1041 318.957 27.7241 319.669 27.6356 319.758C27.547 319.847 26.8384 319.135 25.8641 317.978C24.8012 316.82 23.3839 315.217 21.9667 313.347C20.461 311.477 19.2209 309.785 18.3351 308.45C17.3608 307.203 16.8294 306.402 16.9179 306.313Z" fill="#263238"/>
        <path d="M53.3227 263.571C53.3227 263.571 53.3227 263.66 53.3227 263.927C53.3227 264.195 53.3227 264.462 53.3227 264.818C53.3227 265.708 53.2342 266.866 53.1456 268.291C52.9684 271.318 52.7913 275.592 52.437 280.668C51.5512 285.832 48.894 291.531 45.351 297.141C42.7823 301.237 40.0364 304.977 37.7335 308.45C35.4305 311.922 33.3933 315.128 32.0647 317.977C30.6474 320.827 29.8503 323.231 29.4074 324.923C29.1417 325.813 29.0531 326.437 28.8759 326.882C28.7874 327.327 28.6988 327.594 28.6988 327.594C28.6988 327.594 28.6988 327.327 28.7874 326.882C28.8759 326.437 28.9645 325.724 29.2302 324.834C29.6731 323.142 30.3817 320.649 31.7989 317.799C33.1276 314.95 35.0762 311.655 37.4677 308.182C39.7707 304.71 42.5165 300.97 44.9967 296.874C48.4511 291.353 51.1084 285.743 52.0827 280.579C52.437 275.503 52.7027 271.229 52.9684 268.202C53.057 266.777 53.1456 265.619 53.2342 264.729C53.2342 264.373 53.3227 264.106 53.3227 263.838C53.3227 263.749 53.3227 263.571 53.3227 263.571Z" fill="#263238"/>
        <path d="M45.7053 296.073C45.7053 296.073 51.1969 282.894 44.288 274.257C44.0223 273.99 43.5794 274.079 43.4909 274.435C42.8708 276.661 41.7194 283.428 45.7053 296.073Z" fill="#1AA3E0"/>
        <path d="M44.7306 278.887C44.8191 278.887 44.9963 279.867 45.1734 281.38C45.3506 282.894 45.6163 285.031 45.7935 287.435C45.9706 289.84 46.0592 291.977 46.0592 293.49C46.0592 295.093 45.9706 295.984 45.882 295.984C45.7935 295.984 45.7935 295.004 45.6163 293.49C45.5277 291.71 45.3506 289.662 45.1734 287.435C44.9963 285.209 44.9077 283.072 44.7306 281.38C44.642 279.867 44.642 278.887 44.7306 278.887Z" fill="#263238"/>
        <g opacity="0.3">
            <g opacity="0.3">
                <path opacity="0.3" d="M45.7053 296.073C45.7053 296.073 51.1969 282.894 44.288 274.257C44.0223 273.99 43.5794 274.079 43.4909 274.435C42.8708 276.661 41.7194 283.428 45.7053 296.073Z" fill="black"/>
            </g>
        </g>
        <path d="M28.7872 327.862C28.7872 327.862 33.1274 314.238 25.5985 306.224C25.3327 305.957 24.8898 306.046 24.8013 306.491C24.447 308.717 23.8269 315.573 28.7872 327.862Z" fill="#1AA3E0"/>
        <path d="M26.3954 310.765C26.484 310.765 26.7497 311.655 27.0155 313.258C27.3698 314.772 27.7241 316.909 28.0784 319.224C28.4327 321.539 28.6984 323.765 28.787 325.279C28.8756 326.882 28.8756 327.772 28.8756 327.772C28.787 327.772 28.6984 326.793 28.4327 325.279C28.167 323.587 27.9012 321.539 27.5469 319.224C27.1926 316.998 26.9269 314.95 26.6612 313.169C26.484 311.744 26.3069 310.765 26.3954 310.765Z" fill="#263238"/>
        <g opacity="0.3">
            <g opacity="0.3">
                <path opacity="0.3" d="M28.7872 327.862C28.7872 327.862 33.1274 314.238 25.5985 306.224C25.3327 305.957 24.8898 306.046 24.8013 306.491C24.447 308.717 23.8269 315.573 28.7872 327.862Z" fill="black"/>
            </g>
        </g>
        <path d="M52.6143 279.956C52.6143 279.956 64.2176 271.763 63.0661 260.811C63.0661 260.455 62.5347 260.277 62.269 260.544C60.586 262.058 56.0687 267.133 52.6143 279.956Z" fill="#1AA3E0"/>
        <g opacity="0.3">
            <g opacity="0.3">
                <path opacity="0.3" d="M52.6143 279.956C52.6143 279.956 64.2176 271.763 63.0661 260.811C63.0661 260.455 62.5347 260.277 62.269 260.544C60.586 262.058 56.0687 267.133 52.6143 279.956Z" fill="black"/>
            </g>
        </g>
        <path d="M60.9405 264.907C61.0291 264.907 60.6748 265.797 59.9662 267.222C59.3462 268.647 58.3718 270.517 57.2204 272.654C56.0689 274.791 55.006 276.572 54.2088 277.907C53.4116 279.243 52.7916 279.956 52.703 279.956C52.6144 279.956 53.1459 279.065 53.8545 277.729C54.6517 276.216 55.7146 274.346 56.7775 272.387C57.8404 270.428 58.8147 268.558 59.7005 267.044C60.4091 265.708 60.9405 264.907 60.9405 264.907Z" fill="#263238"/>
        <path d="M33.4815 314.416C33.4815 314.416 47.4764 312.19 51.2852 301.861C51.3737 301.504 51.108 301.148 50.7537 301.237C48.5393 301.771 42.1619 304.354 33.4815 314.416Z" fill="#1AA3E0"/>
        <g opacity="0.3">
            <g opacity="0.3">
                <path opacity="0.3" d="M33.4815 314.416C33.4815 314.416 47.4764 312.19 51.2852 301.861C51.3737 301.504 51.108 301.148 50.7537 301.237C48.5393 301.771 42.1619 304.354 33.4815 314.416Z" fill="black"/>
            </g>
        </g>
        <path d="M47.5652 304.532C47.6538 304.621 46.8566 305.244 45.7051 306.224C44.4651 307.203 42.7821 308.539 40.8335 309.874C38.8848 311.299 37.1133 312.457 35.7847 313.258C34.4561 314.059 33.5703 314.505 33.5703 314.416C33.5703 314.327 34.2789 313.792 35.6075 312.902C37.0248 311.922 38.7077 310.676 40.5678 309.429C42.4278 308.093 44.1108 306.936 45.528 305.867C46.768 305.066 47.5652 304.532 47.5652 304.532Z" fill="#263238"/>
        <path d="M20.1069 340.328L16.0324 368.02H41.5421L38.1763 340.328H20.1069Z" fill="#455A64"/>
        <path d="M39.2393 348.965C39.2393 349.143 34.6333 349.232 28.9645 349.232C23.2957 349.232 18.6898 349.143 18.6898 348.965C18.6898 348.787 23.2957 348.698 28.9645 348.698C34.6333 348.698 39.2393 348.787 39.2393 348.965Z" fill="#263238"/>
        <path d="M39.77 351.102C39.77 351.28 34.9869 351.369 29.1409 351.369C23.295 351.369 18.5119 351.28 18.5119 351.102C18.5119 350.924 23.295 350.835 29.1409 350.835C34.9869 350.835 39.77 351.013 39.77 351.102Z" fill="#263238"/>
    </g>
    <defs>
        <clipPath id="clip0">
            <rect width="383" height="369" fill="white"/>
        </clipPath>
    </defs>
</svg>
