<svg width="348" height="288" viewBox="0 0 348 288" fill="none" xmlns="http://www.w3.org/2000/svg">
    <path opacity="0.1" d="M151.304 277.362C151.304 282.754 117.408 287.167 75.6522 287.167C33.8961 287.167 0 282.754 0 277.362C0 271.969 33.8961 267.557 75.6522 267.557C117.408 267.459 151.304 271.871 151.304 277.362Z" fill="#301E0A"/>
    <path d="M79.7788 204.416H13.5586V277.46H79.7788V204.416Z" fill="#CA802A"/>
    <path d="M134.111 204.416H61.6025V277.46H134.111V204.416Z" fill="#D59955"/>
    <path d="M40.9704 224.907L32.1279 224.417V204.317L40.9704 204.415V224.907Z" fill="#D59955"/>
    <path opacity="0.1" d="M198.377 205.072C198.377 210.465 164.48 214.877 122.724 214.877C80.9684 214.877 47.0723 210.465 47.0723 205.072C47.0723 199.68 80.9684 195.267 122.724 195.267C164.48 195.169 198.377 199.582 198.377 205.072Z" fill="#301E0A"/>
    <path d="M126.851 132.126H60.6309V205.17H126.851V132.126Z" fill="#CA802A"/>
    <path d="M181.183 132.126H108.675V205.17H181.183V132.126Z" fill="#D59955"/>
    <path d="M88.0427 152.617L79.2002 152.127V132.027L88.0427 132.125V152.617Z" fill="#D59955"/>
    <path opacity="0.1" d="M240.406 277.362C240.406 282.754 206.51 287.167 164.754 287.167C122.998 287.167 89.1016 282.754 89.1016 277.362C89.1016 271.969 122.998 267.557 164.754 267.557C206.51 267.459 240.406 271.871 240.406 277.362Z" fill="#301E0A"/>
    <path d="M168.88 204.416H102.66V277.46H168.88V204.416Z" fill="#CA802A"/>
    <path d="M223.212 204.416H150.704V277.46H223.212V204.416Z" fill="#D59955"/>
    <path d="M130.072 224.907L121.229 224.417V204.317L130.072 204.415V224.907Z" fill="#D59955"/>
    <path opacity="0.1" d="M272.348 287.702C314.13 287.702 348 283.313 348 277.898C348 272.483 314.13 268.093 272.348 268.093C230.566 268.093 196.696 272.483 196.696 277.898C196.696 283.313 230.566 287.702 272.348 287.702Z" fill="#301E0A"/>
    <g clip-path="url(#clip0)">
        <path d="M66.1067 47.7509L66.3619 47.9577C65.9964 48.5083 65.6883 49.1094 65.465 49.6738C65.3807 49.8689 65.307 50.0792 65.2482 50.2791L65.1505 50.2341C65.1546 50.2085 65.1588 50.1829 65.1375 50.1525C63.6841 48.6756 62.4805 46.956 61.0081 45.5151C59.5571 44.1047 57.9981 42.7925 56.2575 41.7888C55.5498 41.3772 54.3706 40.7968 53.4608 40.9801C53.4502 40.9649 53.4395 40.9497 53.4289 40.9345C53.0412 40.4122 53.4299 39.8 53.8195 39.5047C54.0905 39.2923 54.4513 39.3345 54.7908 39.3463C55.3893 39.3809 56.0095 39.6043 56.5745 39.8437C57.7663 40.3472 58.8232 41.1946 59.8524 41.9707C60.9389 42.7974 61.9579 43.7167 62.9768 44.636C64.0425 45.5906 64.8715 46.8696 66.0048 47.7315C66.022 47.7875 66.0623 47.782 66.1067 47.7509Z" fill="#50C400"/>
        <path d="M67.8961 45.6371C67.9558 45.754 68.0304 45.8605 68.105 45.967C68.1582 46.0431 68.2008 46.104 68.2541 46.1801L68.091 46.2942C68.0697 46.2638 68.0336 46.2437 67.9743 46.2852C67.3304 46.6905 66.7996 47.2889 66.3581 47.9833L66.1029 47.7765C66.1177 47.7661 66.1325 47.7558 66.1367 47.7302C65.9496 47.5891 65.6856 47.275 65.643 47.2141C65.1238 46.6933 64.6236 46.1364 64.1086 45.59C63.5148 44.9626 62.8956 44.3303 62.306 43.6773C62.2592 43.642 62.2018 43.5916 62.1698 43.5459C60.7341 42.2835 59.2154 40.9657 57.5767 39.9814C56.8222 39.5345 55.8343 39.0697 54.8898 38.9825C54.8232 37.9408 57.2461 38.6256 57.7112 38.7536C59.0405 39.1382 60.2646 39.8459 61.4378 40.5438C62.6259 41.2314 63.5855 42.1922 64.6721 43.0188C65.748 43.8302 66.9893 44.5939 67.8961 45.6371Z" fill="#50C400"/>
        <path d="M70.5693 40.5899C70.9051 40.7857 70.804 41.8088 70.8114 42.1664C70.8387 42.8048 71.0016 43.4163 71.2049 44.0223C71.793 45.6513 72.773 47.0513 73.7595 48.4922C74.2388 49.177 74.6885 49.8826 75.0089 50.6559C75.2419 51.2411 75.2562 51.798 75.1686 52.3354C75.2389 53.1932 75.0503 54.0281 74.851 54.8478C74.6369 55.6778 74.4548 56.5535 74.0305 57.304C73.9355 57.4839 73.815 57.6589 73.6839 57.8187C74.6136 57.1906 74.9306 55.9711 75.2137 54.798C75.9202 54.0087 76.6574 55.1252 77.0372 55.857C77.3998 56.5328 77.4465 57.2937 77.3955 58.0096C77.3268 59.2368 76.8255 60.54 76.2492 61.5782C75.1684 63.5365 70.9169 66.0135 70.1192 62.2865C70.8853 62.3397 71.6718 62.1066 72.1221 61.5194C71.4634 61.9351 70.6639 62.0866 69.8293 61.8092C69.7677 61.7843 69.7061 61.7594 69.6297 61.7448C68.4365 61.4916 67.4769 60.5308 66.5746 59.6205C65.6687 58.8942 64.7521 58.1527 63.8652 57.3904C63.1612 56.7948 62.4572 56.1992 61.7574 55.578C61.4234 55.2903 61.1233 54.9562 60.8487 54.6269C60.8167 54.5812 60.7699 54.546 60.738 54.5003C60.7273 54.4851 60.7167 54.4699 60.706 54.4547C60.3781 54.0493 60.0947 53.6128 59.7858 53.1715C58.8077 51.6795 57.8615 50.233 56.4707 49.0979C55.505 48.2547 53.0636 47.0386 53.2926 45.4726C53.4423 44.3928 54.6693 44.5996 55.3599 44.9552C56.0143 45.2907 56.6503 45.8205 57.2033 46.2951C58.6752 47.5775 59.5245 49.2958 60.7657 50.7851C61.5215 51.7072 62.3955 52.3878 63.3371 52.9758C63.7239 53.1812 64.1041 53.3459 64.5141 53.4898C64.6266 53.5244 64.735 53.5845 64.8327 53.6295C64.8369 53.6039 64.8156 53.5735 64.8049 53.5582C64.0625 52.8762 63.0857 52.585 62.3136 51.9237C61.3479 51.0805 60.5388 50.0823 59.8335 49.0115C58.7275 47.3368 57.5099 45.9444 55.837 44.848C55.1737 44.4053 54.4113 44.168 53.7925 44.4198C53.7818 44.4045 53.7818 44.4045 53.7712 44.3893C53.3646 43.903 52.7249 43.5572 52.5365 42.9409C52.1873 41.7794 53.3486 41.2614 54.2486 41.3797C55.4436 41.5408 56.6321 42.3868 57.5931 43.0972C59.0516 44.1397 60.3897 45.3571 61.6346 46.6624C62.7688 47.8411 63.7108 49.3131 65.0396 50.265C65.0864 50.3002 65.1161 50.2795 65.1351 50.2435L65.2328 50.2885C64.9404 51.196 64.9112 52.1008 65.264 53.0782C65.3024 53.1647 65.4169 53.1073 65.4039 53.0256C65.0376 51.8082 65.3485 50.7063 65.8165 49.6078C66.0926 48.9611 66.4285 48.4312 66.8598 47.8799C66.9612 47.7409 67.0988 47.6219 67.1896 47.4677C67.2572 47.375 67.9915 46.657 67.9869 46.5242C67.9827 46.5498 68.0188 46.5698 68.0336 46.5595C68.0633 46.5387 68.0823 46.5027 68.1013 46.4668C68.1351 46.4204 68.1221 46.3388 68.0902 46.2931L68.2532 46.179C68.4876 46.5138 68.7516 46.8279 69.041 47.1467C69.6158 47.8101 70.5111 48.5212 70.2252 49.4696C69.9328 50.3771 69.5511 51.1885 69.5709 52.1949C69.6217 53.6558 70.509 55.3022 72.0458 55.5415C72.0713 55.5464 72.0861 55.536 72.1116 55.5408C71.6355 55.2392 71.1445 54.948 70.7698 54.5074C70.2993 53.9298 70.0469 53.2221 70.0109 52.4765C69.9651 51.3068 70.3525 50.2194 70.6273 49.0974C70.618 48.8318 70.5537 48.5821 70.3874 48.313C69.7738 47.4048 68.904 46.6985 68.2565 45.8366C68.2459 45.8214 68.2459 45.8214 68.25 45.7958C68.137 45.6028 68.0092 45.4202 67.8814 45.2376C67.7897 45.075 67.7022 44.8869 67.6401 44.7036C67.5739 44.5459 67.5373 44.3674 67.5007 44.1889C67.1734 42.4907 68.2644 41.1149 69.6929 40.5685C69.9686 40.4889 70.2803 40.4295 70.5693 40.5899ZM71.0289 57.5911C70.7316 56.7562 69.8854 56.1467 69.2051 55.648C68.2908 54.9729 67.1338 54.7397 66.0805 54.434C66.055 54.4291 66.036 54.4651 66.0721 54.4852C67.0448 54.802 68.0217 55.0932 68.9165 55.6459C69.7284 56.1433 70.3967 56.8772 70.9358 57.6789C70.9743 57.7654 71.0567 57.6623 71.0289 57.5911Z" fill="#50C400"/>
        <path d="M94.4632 70.5289C95.3048 71.0056 96.4126 71.8626 95.7492 72.8711C95.3647 73.4577 94.4568 73.549 93.8181 73.5199C92.9056 73.4784 91.9718 73.4065 91.0506 73.2577C89.1251 72.9049 87.2349 72.2554 85.4669 71.3388C84.9825 71.0884 84.5383 70.8325 84.0728 70.5461L84.1868 70.3303C84.4971 70.5212 84.8222 70.7017 85.1367 70.8671C86.7963 71.7234 88.4887 72.2167 90.2785 72.5964C91.1405 72.7867 92.0043 72.8849 92.8723 72.9576C93.2628 72.979 93.6597 73.0413 94.0544 73.0371C94.5296 73.0219 96.1499 72.7494 95.4154 71.8578C94.3636 70.576 92.2704 70.2045 90.8156 69.7037C89.5243 69.2471 88.2454 68.7138 87.0236 68.0725C87.4835 68.6349 87.8545 69.2595 88.1342 69.88C88.1619 69.9513 88.0878 70.0031 88.0452 69.9423C87.4163 68.886 86.6438 68.0663 85.7378 67.34C84.063 66.3356 82.3415 65.2959 80.8061 64.0805C80.0257 63.4704 79.2832 62.7884 78.5556 62.0959C78.2578 61.8282 77.9642 61.5349 77.696 61.2465C77.5066 61.039 77.351 60.7851 77.1764 60.5672L77.3733 60.4067C77.5627 60.6143 77.7076 60.8529 77.9119 61.0501C78.3843 61.5356 78.9054 61.9645 79.3968 62.4141C80.3008 63.2325 81.2471 63.9533 82.2674 64.6222C83.1581 65.2005 84.0594 65.794 84.9797 66.3515C85.2474 66.4816 85.4855 66.6324 85.7342 66.7984C86.5864 67.2902 87.4428 67.7564 88.333 68.1763C89.3719 68.6508 90.434 69.0638 91.5192 69.4152C92.4771 69.7424 93.5642 70.0018 94.4632 70.5289Z" fill="white"/>
        <path d="M70.8123 42.1672C70.8049 41.8096 70.8954 40.7713 70.5702 40.5908C70.296 40.4199 69.9695 40.4898 69.7045 40.5846C68.2653 41.1158 67.1702 42.5172 67.5123 44.205C67.5489 44.3835 67.6003 44.5516 67.6517 44.7196L67.4863 44.7674C67.2298 44.0853 67.1641 43.3604 67.4101 42.576C67.7632 41.3766 68.6364 40.2892 69.9366 40.1273C71.5847 39.9261 71.0245 42.1548 71.2819 43.1536C71.8912 45.5387 73.5576 47.3199 74.8683 49.3501C75.3286 50.0709 75.7236 50.9508 75.7282 51.8092C75.7346 52.5756 75.5478 53.3186 75.3759 54.0511C75.5751 53.957 75.8127 53.9494 76.0698 54.0642C76.739 54.3894 77.2313 55.1558 77.4985 55.853C78.0672 57.3596 77.7808 58.8752 77.2989 60.3008C77.3202 60.3312 77.367 60.3665 77.3883 60.397L77.1914 60.5574C77.1029 60.7781 77.0144 60.9988 76.926 61.2194C76.6225 61.9533 76.1365 62.6789 75.5144 63.2731C76.7621 64.8032 78.5267 66.0622 80.0514 67.2623C81.3529 68.3013 82.7331 69.4212 84.1912 70.3053L84.0772 70.5211C82.7021 69.6924 81.4135 68.735 80.144 67.7417C79.1765 66.9905 78.2469 66.1673 77.3091 65.3953C76.5902 64.8101 75.8862 64.2146 75.2837 63.4799C74.6296 64.0285 73.8584 64.4096 73.0163 64.5002C71.5336 64.6537 70.3493 63.7821 70.0882 62.2417L70.1285 62.2361C70.9304 65.9376 75.1776 63.4862 76.2585 61.5279C76.8348 60.4896 77.3361 59.1864 77.4048 57.9593C77.4451 57.2282 77.3836 56.4777 77.0465 55.8067C76.6667 55.0748 75.9294 53.9584 75.223 54.7476C74.9505 55.936 74.6335 57.1555 73.6932 57.7684C73.8243 57.6086 73.9448 57.4336 74.0397 57.2537C74.4641 56.5032 74.6569 55.6427 74.8603 54.7974C75.0702 53.993 75.2482 53.1428 75.1778 52.2851C75.2548 51.7324 75.2511 51.1908 75.0182 50.6056C74.7126 49.8219 74.2481 49.1267 73.7687 48.4419C72.7929 47.0162 71.7981 45.6266 71.2142 43.9719C70.9877 43.4276 70.8248 42.8161 70.8123 42.1672Z" fill="white"/>
        <path d="M68.2683 45.8528C68.9158 46.7147 69.7897 47.3953 70.3992 48.3292C70.5803 48.5879 70.6405 48.8632 70.6391 49.1136C70.3536 50.2203 69.9811 51.2973 70.0227 52.4926C70.0481 53.2231 70.2856 53.9411 70.7816 54.5235C71.1457 54.949 71.6473 55.2554 72.1234 55.557C72.1086 55.5674 72.0831 55.5625 72.0576 55.5577C70.5208 55.3183 69.6335 53.672 69.5827 52.2111C69.548 51.215 69.9446 50.3933 70.237 49.4857C70.5335 48.5526 69.6382 47.8415 69.0528 47.1629C68.7888 46.8489 68.5142 46.5196 68.265 46.1952C68.2118 46.1191 68.1585 46.043 68.1159 45.9821L68.2683 45.8528Z" fill="white"/>
        <path d="M67.4711 44.7774L67.6364 44.7297C67.6985 44.913 67.786 45.1011 67.8777 45.2637C68.0203 45.4359 68.1333 45.6289 68.2463 45.8219C68.257 45.8371 68.257 45.8371 68.2528 45.8627L68.0898 45.9769C68.0152 45.8703 67.9406 45.7638 67.8809 45.6469C66.9699 44.6294 65.7328 43.8401 64.6569 43.0287C63.5703 42.2021 62.6107 41.2413 61.4226 40.5537C60.224 39.8509 58.9998 39.1432 57.6959 38.7634C57.2309 38.6355 54.808 37.9506 54.8746 38.9924C55.8084 39.0643 56.807 39.5444 57.5615 39.9912C59.2002 40.9756 60.7189 42.2933 62.1546 43.5557C62.2121 43.6062 62.2588 43.6415 62.2908 43.6872C62.8804 44.3402 63.4996 44.9724 64.0934 45.5998C64.6084 46.1463 65.0979 46.6879 65.6278 47.224C65.6958 47.2897 65.9344 47.5989 66.1215 47.74C66.1066 47.7504 66.1025 47.776 66.0877 47.7864C66.058 47.8071 66.0177 47.8127 65.9709 47.7774C64.8376 46.9155 64.0086 45.6365 62.9429 44.6819C61.9239 43.7626 60.9157 42.8585 59.8184 42.0166C58.7935 41.2149 57.7324 40.3931 56.5406 39.8895C55.9756 39.6502 55.3702 39.4164 54.7569 39.3922C54.4322 39.37 54.0566 39.3382 53.7856 39.5506C53.396 39.8459 53.0073 40.4581 53.395 40.9803L53.2764 41.0634C52.5979 40.4726 53.1399 39.3223 53.8458 39.1003C54.0853 39.0006 54.3016 38.9626 54.5244 38.9654C54.304 38.3034 55.0456 37.943 55.6672 37.9161C57.1736 37.8594 58.7243 38.4971 60.0503 39.2242C61.6399 40.1068 63.0048 41.0787 64.4022 42.2546C65.3614 43.0571 66.5772 43.8159 67.4711 44.7774Z" fill="white"/>
        <path d="M67.989 46.2747C68.0335 46.2436 68.0844 46.2533 68.1057 46.2837C68.1377 46.3293 68.1507 46.411 68.1168 46.4573C68.0978 46.4933 68.0682 46.514 68.0492 46.55C68.0196 46.5708 67.9983 46.5403 68.0024 46.5147C68.0177 46.6628 67.2728 47.3655 67.2052 47.4582C67.1037 47.5973 66.9768 47.7315 66.8753 47.8705C66.4334 48.4066 66.1082 48.9516 65.832 49.5984C65.3641 50.6968 65.0425 51.7835 65.4195 53.0162C65.4431 53.113 65.318 53.1552 65.2796 53.0688C64.9267 52.0913 64.9708 51.1762 65.2484 50.279C65.3072 50.0791 65.3915 49.8841 65.4652 49.6738C65.6992 49.1246 66.0072 48.5235 66.3621 47.9576C66.8143 47.2784 67.36 46.6697 67.989 46.2747Z" fill="white"/>
        <path d="M69.206 55.649C69.8864 56.1477 70.7474 56.7468 71.0299 57.5921C71.0577 57.6633 70.99 57.756 70.9261 57.6647C70.3722 56.8734 69.7294 56.1443 68.9068 55.6317C68.0226 55.0942 67.0458 54.803 66.0624 54.471C66.037 54.4661 66.0453 54.4149 66.0708 54.4198C67.1305 54.7663 68.3024 54.9891 69.206 55.649Z" fill="white"/>
        <path d="M65.1368 50.151C65.1581 50.1815 65.1539 50.2071 65.1497 50.2327C65.1307 50.2686 65.1011 50.2894 65.0543 50.2541C63.7403 49.2919 62.7984 47.8199 61.6493 46.6516C60.3895 45.3567 59.0515 44.1392 57.6078 43.0864C56.6319 42.3864 55.4583 41.53 54.2633 41.3688C53.3485 41.2609 52.1872 41.779 52.5363 42.9404C52.7248 43.5567 53.3644 43.9026 53.771 44.3888L53.6779 44.4767C53.1226 43.9358 52.4024 43.601 52.2473 42.7799C52.1417 42.2189 52.416 41.6641 52.7885 41.3127C52.945 41.1578 53.1187 41.0589 53.3096 41.016L53.4282 40.933C53.4388 40.9482 53.4495 40.9634 53.4601 40.9787C54.3699 40.7954 55.5343 41.3861 56.2568 41.7873C57.9974 42.791 59.5564 44.1032 61.0074 45.5137C62.4798 46.9546 63.6834 48.6742 65.1368 50.151Z" fill="white"/>
        <path d="M72.1372 61.5091C71.6763 62.0811 70.9004 62.3295 70.1343 62.2762L70.094 62.2817C69.7183 62.2499 69.3552 62.1413 69.0259 61.9863C67.2431 61.0802 65.6684 59.4615 64.1794 58.123C63.2498 57.2998 62.2865 56.523 61.3908 55.6535C60.5951 54.8954 60.0134 54.0328 59.4146 53.1142C58.7838 52.1499 58.1507 51.1192 57.3421 50.2795C56.5802 49.475 55.6534 48.8767 54.7836 48.1704C54.018 47.5499 52.5081 46.3394 53.0543 45.1635C53.2146 44.8245 53.4198 44.6129 53.6528 44.4724L53.7459 44.3846C53.7566 44.3998 53.7566 44.3998 53.7673 44.415C54.3713 44.1736 55.1337 44.4109 55.8117 44.8432C57.4847 45.9396 58.7023 47.3321 59.8082 49.0068C60.5136 50.0775 61.3227 51.0757 62.2883 51.9189C63.0456 52.5906 64.0373 52.8715 64.7797 53.5535C64.7903 53.5687 64.8117 53.5992 64.8075 53.6248C64.6991 53.5646 64.5865 53.53 64.4888 53.485C64.0789 53.3411 63.6986 53.1765 63.3119 52.9711C62.3809 52.3983 61.5218 51.7073 60.7511 50.7956C59.5206 49.3215 58.6754 47.5776 57.1887 46.3055C56.625 45.8158 56.0146 45.2908 55.3453 44.9657C54.6547 44.6101 53.4171 44.388 53.278 45.483C53.0639 47.0387 55.5052 48.2548 56.5006 49.0773C57.8914 50.2124 58.8227 51.6692 59.8157 53.1509C60.1098 53.6026 60.408 54.0287 60.7359 54.434C60.7466 54.4492 60.7424 54.4748 60.7679 54.4797C60.7998 54.5253 60.8466 54.5606 60.8786 54.6063C61.1532 54.9355 61.4427 55.2544 61.7873 55.5574C62.4871 56.1786 63.1911 56.7741 63.8951 57.3697C64.7968 58.1216 65.6986 58.8735 66.6045 59.5999C67.5216 60.4998 68.4664 61.471 69.6595 61.7242C69.7211 61.7491 69.7827 61.774 69.8592 61.7885C70.679 62.0763 71.4637 61.9352 72.1372 61.5091Z" fill="white"/>
        <path d="M94.0066 73.2416C88.7783 74.0148 79.0334 68.3353 75.4203 63.1733C75.9796 62.1407 77.1887 60.2046 77.5501 60.7209C78.0018 61.3663 90.6508 69.821 91.2961 69.3693C91.9415 68.9176 98.9353 72.5127 94.0066 73.2416Z" fill="#50C400" stroke="white" stroke-width="0.3"/>
    </g>
    <g clip-path="url(#clip1)">
        <path d="M174.62 50.902L174.365 51.1088C174.731 51.6594 175.039 52.2605 175.262 52.825C175.346 53.02 175.42 53.2303 175.479 53.4302L175.577 53.3852C175.572 53.3596 175.568 53.3341 175.59 53.3036C177.043 51.8268 178.247 50.1071 179.719 48.6663C181.17 47.2558 182.729 45.9436 184.47 44.9399C185.177 44.5283 186.356 43.9479 187.266 44.1312C187.277 44.116 187.288 44.1008 187.298 44.0856C187.686 43.5633 187.297 42.9512 186.908 42.6558C186.637 42.4434 186.276 42.4856 185.936 42.4974C185.338 42.532 184.718 42.7554 184.153 42.9948C182.961 43.4984 181.904 44.3457 180.875 45.1219C179.788 45.9485 178.769 46.8678 177.75 47.7871C176.685 48.7417 175.856 50.0207 174.722 50.8826C174.705 50.9386 174.665 50.9331 174.62 50.902Z" fill="#50C400"/>
        <path d="M172.831 48.7882C172.771 48.9051 172.697 49.0116 172.622 49.1181C172.569 49.1942 172.526 49.2551 172.473 49.3312L172.636 49.4453C172.657 49.4149 172.693 49.3948 172.753 49.4363C173.397 49.8417 173.927 50.44 174.369 51.1345L174.624 50.9276C174.609 50.9173 174.595 50.9069 174.59 50.8813C174.777 50.7402 175.041 50.4261 175.084 50.3653C175.603 49.8444 176.103 49.2876 176.618 48.7411C177.212 48.1137 177.831 47.4814 178.421 46.8284C178.468 46.7932 178.525 46.7427 178.557 46.697C179.993 45.4346 181.512 44.1169 183.15 43.1325C183.905 42.6857 184.893 42.2208 185.837 42.1336C185.904 41.0919 183.481 41.7767 183.016 41.9047C181.687 42.2893 180.462 42.997 179.289 43.6949C178.101 44.3825 177.142 45.3433 176.055 46.17C174.979 46.9814 173.738 47.745 172.831 48.7882Z" fill="#50C400"/>
        <path d="M170.158 43.7411C169.822 43.9368 169.923 44.9599 169.916 45.3175C169.888 45.956 169.725 46.5674 169.522 47.1734C168.934 48.8024 167.954 50.2025 166.968 51.6433C166.488 52.3281 166.039 53.0337 165.718 53.8071C165.485 54.3922 165.471 54.9491 165.558 55.4866C165.488 56.3443 165.677 57.1792 165.876 57.9989C166.09 58.8289 166.272 59.7047 166.697 60.4552C166.792 60.635 166.912 60.81 167.043 60.9698C166.113 60.3417 165.796 59.1222 165.513 57.9491C164.807 57.1598 164.07 58.2763 163.69 59.0081C163.327 59.6839 163.281 60.4448 163.332 61.1608C163.4 62.3879 163.902 63.6911 164.478 64.7293C165.559 66.6876 169.81 69.1646 170.608 65.4376C169.842 65.4909 169.055 65.2578 168.605 64.6705C169.264 65.0862 170.063 65.2377 170.898 64.9603C170.959 64.9354 171.021 64.9105 171.097 64.896C172.291 64.6428 173.25 63.682 174.152 62.7716C175.058 62.0453 175.975 61.3038 176.862 60.5415C177.566 59.9459 178.27 59.3503 178.97 58.7292C179.304 58.4414 179.604 58.1073 179.878 57.778C179.91 57.7324 179.957 57.6971 179.989 57.6514C180 57.6362 180.01 57.621 180.021 57.6058C180.349 57.2004 180.632 56.764 180.941 56.3226C181.919 54.8306 182.866 53.3842 184.256 52.249C185.222 51.4058 187.663 50.1897 187.434 48.6237C187.285 47.5439 186.058 47.7508 185.367 48.1063C184.713 48.4418 184.077 48.9717 183.524 49.4462C182.052 50.7287 181.203 52.4469 179.961 53.9362C179.206 54.8583 178.332 55.5389 177.39 56.1269C177.003 56.3324 176.623 56.497 176.213 56.6409C176.1 56.6755 175.992 56.7357 175.894 56.7806C175.89 56.755 175.911 56.7246 175.922 56.7094C176.665 56.0273 177.641 55.7361 178.413 55.0748C179.379 54.2316 180.188 53.2334 180.894 52.1626C182 50.4879 183.217 49.0955 184.89 47.9991C185.553 47.5564 186.316 47.3191 186.935 47.5709C186.945 47.5557 186.945 47.5557 186.956 47.5405C187.362 47.0542 188.002 46.7083 188.191 46.092C188.54 44.9306 187.378 44.4125 186.478 44.5308C185.283 44.692 184.095 45.538 183.134 46.2484C181.675 47.2908 180.337 48.5083 179.092 49.8136C177.958 50.9923 177.016 52.4643 175.687 53.4161C175.641 53.4514 175.611 53.4306 175.592 53.3946L175.494 53.4396C175.787 54.3471 175.816 55.2519 175.463 56.2293C175.425 56.3158 175.31 56.2584 175.323 56.1768C175.689 54.9593 175.379 53.8574 174.911 52.759C174.634 52.1122 174.299 51.5824 173.867 51.0311C173.766 50.892 173.628 50.7731 173.537 50.6188C173.47 50.5261 172.736 49.8081 172.74 49.6753C172.744 49.7009 172.708 49.721 172.693 49.7106C172.664 49.6898 172.645 49.6539 172.626 49.6179C172.592 49.5715 172.605 49.4899 172.637 49.4443L172.474 49.3301C172.239 49.6649 171.975 49.979 171.686 50.2979C171.111 50.9612 170.216 51.6723 170.502 52.6207C170.794 53.5282 171.176 54.3396 171.156 55.3461C171.105 56.807 170.218 58.4533 168.681 58.6926C168.656 58.6975 168.641 58.6871 168.615 58.6919C169.092 58.3903 169.583 58.0991 169.957 57.6585C170.428 57.0809 170.68 56.3733 170.716 55.6276C170.762 54.4579 170.375 53.3705 170.1 52.2485C170.109 51.9829 170.173 51.7332 170.34 51.4641C170.953 50.5559 171.823 49.8496 172.471 48.9877C172.481 48.9725 172.481 48.9725 172.477 48.9469C172.59 48.7539 172.718 48.5713 172.846 48.3887C172.937 48.2261 173.025 48.038 173.087 47.8547C173.153 47.697 173.19 47.5185 173.226 47.34C173.554 45.6419 172.463 44.266 171.034 43.7196C170.758 43.6401 170.447 43.5806 170.158 43.7411ZM169.698 60.7422C169.995 59.9073 170.842 59.2979 171.522 58.7991C172.436 58.124 173.593 57.8909 174.647 57.5851C174.672 57.5803 174.691 57.6162 174.655 57.6363C173.682 57.9531 172.705 58.2443 171.811 58.797C170.999 59.2944 170.33 60.0283 169.791 60.83C169.753 60.9165 169.67 60.8134 169.698 60.7422Z" fill="#50C400"/>
        <path d="M146.264 73.6801C145.422 74.1567 144.314 75.0137 144.978 76.0223C145.362 76.6088 146.27 76.7001 146.909 76.6711C147.821 76.6295 148.755 76.5576 149.677 76.4089C151.602 76.0561 153.492 75.4065 155.26 74.4899C155.745 74.2395 156.189 73.9836 156.654 73.6972L156.54 73.4814C156.23 73.6723 155.905 73.8529 155.59 74.0182C153.931 74.8746 152.238 75.3678 150.449 75.7476C149.587 75.9378 148.723 76.036 147.855 76.1087C147.464 76.1301 147.067 76.1924 146.673 76.1882C146.197 76.173 144.577 75.9005 145.312 75.0089C146.363 73.7271 148.457 73.3556 149.911 72.8548C151.203 72.3982 152.482 71.8649 153.703 71.2237C153.244 71.786 152.873 72.4107 152.593 73.0311C152.565 73.1024 152.639 73.1543 152.682 73.0934C153.311 72.0371 154.083 71.2174 154.989 70.4911C156.664 69.4867 158.386 68.447 159.921 67.2316C160.701 66.6215 161.444 65.9395 162.171 65.2471C162.469 64.9794 162.763 64.6861 163.031 64.3976C163.22 64.1901 163.376 63.9362 163.551 63.7183L163.354 63.5579C163.164 63.7654 163.019 64.004 162.815 64.2012C162.343 64.6868 161.822 65.1156 161.33 65.5653C160.426 66.3836 159.48 67.1044 158.46 67.7733C157.569 68.3516 156.668 68.9451 155.747 69.5026C155.48 69.6327 155.242 69.7835 154.993 69.9495C154.141 70.4413 153.284 70.9075 152.394 71.3274C151.355 71.802 150.293 72.2149 149.208 72.5664C148.25 72.8936 147.163 73.153 146.264 73.6801Z" fill="white"/>
        <path d="M169.915 45.3184C169.922 44.9607 169.832 43.9225 170.157 43.7419C170.431 43.5711 170.758 43.6409 171.023 43.7357C172.462 44.2669 173.557 45.6683 173.215 47.3561C173.178 47.5346 173.127 47.7027 173.075 47.8708L173.241 47.9185C173.497 47.2365 173.563 46.5115 173.317 45.7271C172.964 44.5277 172.091 43.4403 170.79 43.2785C169.142 43.0772 169.703 45.3059 169.445 46.3048C168.836 48.6898 167.169 50.471 165.859 52.5013C165.398 53.222 165.003 54.1019 164.999 54.9603C164.992 55.7268 165.179 56.4697 165.351 57.2022C165.152 57.1081 164.914 57.1005 164.657 57.2154C163.988 57.5405 163.496 58.3069 163.229 59.0042C162.66 60.5107 162.946 62.0263 163.428 63.4519C163.407 63.4824 163.36 63.5176 163.339 63.5481L163.536 63.7086C163.624 63.9292 163.713 64.1499 163.801 64.3705C164.105 65.1044 164.591 65.8301 165.213 66.4242C163.965 67.9543 162.2 69.2133 160.676 70.4135C159.374 71.4524 157.994 72.5724 156.536 73.4564L156.65 73.6722C158.025 72.8435 159.314 71.8862 160.583 70.8928C161.551 70.1416 162.48 69.3184 163.418 68.5465C164.137 67.9613 164.841 67.3657 165.443 66.6311C166.097 67.1796 166.869 67.5607 167.711 67.6513C169.193 67.8049 170.378 66.9333 170.639 65.3928L170.599 65.3873C169.797 69.0887 165.549 66.6373 164.469 64.679C163.892 63.6408 163.391 62.3376 163.322 61.1105C163.282 60.3793 163.343 59.6288 163.681 58.9578C164.06 58.226 164.798 57.1095 165.504 57.8988C165.777 59.0871 166.094 60.3066 167.034 60.9195C166.903 60.7597 166.782 60.5847 166.687 60.4049C166.263 59.6543 166.07 58.7938 165.867 57.9486C165.657 57.1441 165.479 56.294 165.549 55.4362C165.472 54.8836 165.476 54.3419 165.709 53.7567C166.014 52.973 166.479 52.2778 166.958 51.593C167.934 50.1674 168.929 48.7777 169.513 47.1231C169.739 46.5787 169.902 45.9672 169.915 45.3184Z" fill="white"/>
        <path d="M172.459 49.0039C171.811 49.8658 170.937 50.5465 170.328 51.4803C170.147 51.739 170.087 52.0143 170.088 52.2647C170.373 53.3715 170.746 54.4485 170.704 55.6438C170.679 56.3742 170.441 57.0922 169.945 57.6747C169.581 58.1001 169.08 58.4065 168.604 58.7081C168.618 58.7185 168.644 58.7137 168.669 58.7088C170.206 58.4695 171.094 56.8231 171.144 55.3622C171.179 54.3662 170.782 53.5444 170.49 52.6369C170.194 51.7037 171.089 50.9926 171.674 50.314C171.938 50 172.213 49.6707 172.462 49.3463C172.515 49.2702 172.569 49.1941 172.611 49.1333L172.459 49.0039Z" fill="white"/>
        <path d="M173.256 47.9285L173.091 47.8808C173.029 48.0641 172.941 48.2523 172.849 48.4148C172.707 48.587 172.594 48.78 172.481 48.973C172.47 48.9883 172.47 48.9883 172.474 49.0138L172.637 49.128C172.712 49.0215 172.786 48.9149 172.846 48.798C173.757 47.7805 174.994 46.9912 176.07 46.1798C177.157 45.3532 178.116 44.3924 179.304 43.7048C180.503 43.002 181.727 42.2943 183.031 41.9146C183.496 41.7866 185.919 41.1017 185.852 42.1435C184.919 42.2154 183.92 42.6955 183.166 43.1424C181.527 44.1267 180.008 45.4445 178.572 46.7069C178.515 46.7574 178.468 46.7926 178.436 46.8383C177.847 47.4913 177.227 48.1235 176.634 48.7509C176.119 49.2974 175.629 49.839 175.099 50.3751C175.031 50.4408 174.793 50.75 174.606 50.8911C174.62 50.9015 174.625 50.9271 174.639 50.9375C174.669 50.9582 174.709 50.9638 174.756 50.9285C175.889 50.0666 176.718 48.7876 177.784 47.833C178.803 46.9137 179.811 46.0096 180.909 45.1678C181.934 44.366 182.995 43.5443 184.186 43.0407C184.751 42.8013 185.357 42.5675 185.97 42.5433C186.295 42.5212 186.67 42.4893 186.941 42.7017C187.331 42.997 187.72 43.6092 187.332 44.1315L187.451 44.2145C188.129 43.6237 187.587 42.4734 186.881 42.2514C186.642 42.1518 186.425 42.1137 186.203 42.1165C186.423 41.4545 185.681 41.0941 185.06 41.0672C183.553 41.0105 182.003 41.6483 180.677 42.3753C179.087 43.2579 177.722 44.2298 176.325 45.4058C175.366 46.2082 174.15 46.967 173.256 47.9285Z" fill="white"/>
        <path d="M172.738 49.4258C172.694 49.3947 172.643 49.4044 172.621 49.4348C172.589 49.4805 172.576 49.5621 172.61 49.6084C172.629 49.6444 172.659 49.6652 172.678 49.7011C172.707 49.7219 172.729 49.6914 172.725 49.6659C172.709 49.8139 173.454 50.5167 173.522 50.6093C173.623 50.7484 173.75 50.8826 173.852 51.0216C174.294 51.5577 174.619 52.1028 174.895 52.7495C175.363 53.848 175.685 54.9347 175.308 56.1673C175.284 56.2641 175.409 56.3063 175.447 56.2199C175.8 55.2425 175.756 54.3273 175.479 53.4302C175.42 53.2303 175.336 53.0352 175.262 52.8249C175.028 52.2757 174.72 51.6746 174.365 51.1088C173.913 50.4295 173.367 49.8208 172.738 49.4258Z" fill="white"/>
        <path d="M171.521 58.8001C170.841 59.2989 169.98 59.8979 169.697 60.7432C169.669 60.8144 169.737 60.9071 169.801 60.8158C170.355 60.0245 170.998 59.2954 171.82 58.7828C172.704 58.2454 173.681 57.9541 174.665 57.6221C174.69 57.6172 174.682 57.5661 174.656 57.5709C173.597 57.9175 172.425 58.1402 171.521 58.8001Z" fill="white"/>
        <path d="M175.59 53.3022C175.569 53.3326 175.573 53.3582 175.577 53.3838C175.596 53.4198 175.626 53.4405 175.673 53.4052C176.987 52.443 177.929 50.971 179.078 49.8027C180.338 48.5078 181.676 47.2903 183.119 46.2375C184.095 45.5375 185.269 44.6811 186.464 44.5199C187.379 44.412 188.54 44.9301 188.191 46.0915C188.002 46.7078 187.363 47.0537 186.956 47.54L187.049 47.6278C187.604 47.0869 188.325 46.7521 188.48 45.931C188.585 45.37 188.311 44.8153 187.939 44.4639C187.782 44.3089 187.608 44.21 187.417 44.1671L187.299 44.0841C187.288 44.0993 187.278 44.1146 187.267 44.1298C186.357 43.9465 185.193 44.5372 184.47 44.9384C182.73 45.9422 181.171 47.2544 179.72 48.6648C178.247 50.1057 177.044 51.8253 175.59 53.3022Z" fill="white"/>
        <path d="M168.59 64.6602C169.051 65.2323 169.827 65.4806 170.593 65.4273L170.633 65.4328C171.009 65.401 171.372 65.2924 171.701 65.1375C173.484 64.2313 175.059 62.6126 176.548 61.2741C177.477 60.451 178.441 59.6742 179.336 58.8046C180.132 58.0465 180.714 57.1839 181.312 56.2653C181.943 55.301 182.576 54.2704 183.385 53.4306C184.147 52.6261 185.074 52.0278 185.943 51.3215C186.709 50.701 188.219 49.4905 187.673 48.3146C187.512 47.9756 187.307 47.764 187.074 47.6236L186.981 47.5357C186.97 47.5509 186.97 47.5509 186.96 47.5661C186.356 47.3247 185.593 47.562 184.915 47.9944C183.242 49.0908 182.025 50.4832 180.919 52.1579C180.213 53.2287 179.404 54.2268 178.439 55.0701C177.681 55.7417 176.69 56.0226 175.947 56.7046C175.937 56.7198 175.915 56.7503 175.92 56.7759C176.028 56.7157 176.141 56.6811 176.238 56.6361C176.648 56.4923 177.028 56.3276 177.415 56.1222C178.346 55.5494 179.205 54.8584 179.976 53.9467C181.206 52.4726 182.052 50.7288 183.538 49.4567C184.102 48.9669 184.712 48.4419 185.382 48.1168C186.072 47.7612 187.31 47.5392 187.449 48.6342C187.663 50.1898 185.222 51.4059 184.226 52.2284C182.836 53.3635 181.904 54.8203 180.911 56.302C180.617 56.7537 180.319 57.1798 179.991 57.5851C179.98 57.6004 179.985 57.6259 179.959 57.6308C179.927 57.6764 179.88 57.7117 179.848 57.7574C179.574 58.0866 179.284 58.4055 178.94 58.7085C178.24 59.3297 177.536 59.9253 176.832 60.5208C175.93 61.2728 175.028 62.0247 174.123 62.751C173.205 63.6509 172.261 64.6221 171.068 64.8753C171.006 64.9002 170.944 64.9251 170.868 64.9396C170.048 65.2274 169.263 65.0863 168.59 64.6602Z" fill="white"/>
        <path d="M146.72 76.3927C151.949 77.1659 161.694 71.4864 165.307 66.3244C164.747 65.2919 163.538 63.3558 163.177 63.8721C162.725 64.5174 150.076 72.9722 149.431 72.5204C148.786 72.0687 141.792 75.6639 146.72 76.3927Z" fill="#50C400" stroke="white" stroke-width="0.3"/>
    </g>
    <path d="M127.803 27.4884C124.973 22.4564 117.757 22.3751 114.814 27.3422L68.1983 106.023C65.2555 110.99 68.7932 117.28 74.5662 117.345L166.014 118.375C171.787 118.44 175.465 112.231 172.635 107.199L127.803 27.4884Z" fill="#50C400"/>
    <path fill-rule="evenodd" clip-rule="evenodd" d="M69.0048 106.501L115.62 27.82C118.195 23.4738 124.51 23.545 126.986 27.948L171.818 107.659C174.294 112.062 171.076 117.494 166.024 117.438L74.5768 116.408C69.5254 116.351 66.4299 110.847 69.0048 106.501ZM114.814 27.3422C117.757 22.3751 124.973 22.4564 127.803 27.4884L172.635 107.199C175.465 112.231 171.787 118.44 166.014 118.375L74.5662 117.345C68.7932 117.28 65.2555 110.99 68.1983 106.023L114.814 27.3422Z" fill="white"/>
    <g clip-path="url(#clip2)">
        <path d="M140.035 84.6638C140.742 80.3494 137.8 76.2817 133.464 75.5784C129.128 74.8751 125.039 77.8024 124.333 82.1168C123.626 86.4312 126.568 90.4989 130.904 91.2022C135.24 91.9055 139.328 88.9782 140.035 84.6638Z" fill="white"/>
        <path d="M113.754 85.2255C114.77 80.9727 112.129 76.7056 107.855 75.6945C103.581 74.6835 99.292 77.3114 98.2759 81.5641C97.2598 85.8169 99.9009 90.084 104.175 91.0951C108.449 92.1062 112.738 89.4782 113.754 85.2255Z" fill="white"/>
        <path d="M110.693 77.0032C111.507 78.2496 111.976 79.7245 111.976 81.3241C111.976 85.697 108.417 89.2389 104.022 89.2389C102.268 89.2389 100.65 88.6676 99.335 87.712C100.755 89.8829 103.208 91.3059 106.005 91.3059C110.4 91.3059 113.96 87.7639 113.96 83.3911C113.96 80.7632 112.676 78.4469 110.693 77.0032Z" fill="#EFEFEF"/>
        <path d="M136.863 77.0024C137.677 78.2489 138.147 79.7238 138.147 81.3234C138.147 85.6962 134.587 89.2381 130.192 89.2381C128.439 89.2381 126.821 88.6669 125.505 87.7113C126.925 89.8821 129.378 91.3051 132.176 91.3051C136.571 91.3051 140.13 87.7632 140.13 83.3903C140.13 80.7625 138.846 78.4462 136.863 77.0024Z" fill="#EFEFEF"/>
        <path d="M106.016 91.6687C101.433 91.6687 97.6963 87.9502 97.6963 83.3904C97.6963 78.8306 101.433 75.1121 106.016 75.1121C110.599 75.1121 114.336 78.8306 114.336 83.3904C114.336 87.9502 110.609 91.6687 106.016 91.6687ZM106.016 75.8391C101.83 75.8391 98.427 79.2253 98.427 83.3904C98.427 87.5555 101.83 90.9416 106.016 90.9416C110.202 90.9416 113.605 87.5555 113.605 83.3904C113.605 79.2253 110.202 75.8391 106.016 75.8391Z" fill="#231F20"/>
        <path d="M108.18 82.0688C108.18 84.1878 106.458 85.9016 104.328 85.9016C102.198 85.9016 100.476 84.1878 100.476 82.0688C100.476 79.9499 102.198 78.2361 104.328 78.2361C106.458 78.2361 108.18 79.9603 108.18 82.0688Z" fill="#231F20"/>
        <path d="M104.964 81.3726C104.964 82.2347 104.254 82.9411 103.388 82.9411C102.521 82.9411 101.812 82.2347 101.812 81.3726C101.812 80.5105 102.521 79.8042 103.388 79.8042C104.254 79.8042 104.964 80.5105 104.964 81.3726Z" fill="white"/>
        <path d="M132.187 91.6692C127.604 91.6692 123.867 87.9507 123.867 83.3909C123.867 78.831 127.604 75.1125 132.187 75.1125C136.769 75.1125 140.506 78.831 140.506 83.3909C140.506 87.9507 136.769 91.6692 132.187 91.6692ZM132.187 75.8396C128.001 75.8396 124.597 79.2257 124.597 83.3909C124.597 87.556 128.001 90.9421 132.187 90.9421C136.373 90.9421 139.776 87.556 139.776 83.3909C139.776 79.2257 136.373 75.8396 132.187 75.8396Z" fill="#231F20"/>
        <path d="M134.247 82.884C134.699 80.8155 133.379 78.7743 131.301 78.3249C129.222 77.8755 127.17 79.1881 126.719 81.2566C126.267 83.3251 127.586 85.3663 129.665 85.8156C131.744 86.265 133.795 84.9525 134.247 82.884Z" fill="#231F20"/>
        <path d="M131.114 81.3736C131.114 82.2357 130.404 82.942 129.538 82.942C128.671 82.942 127.961 82.2357 127.961 81.3736C127.961 80.5115 128.671 79.8052 129.538 79.8052C130.404 79.8052 131.114 80.5115 131.114 81.3736Z" fill="white"/>
        <path d="M96.6419 67.458C98.3121 68.6421 98.8236 65.6507 102.676 63.8226C105.88 62.2958 108.407 63.4695 108.678 62.0569C108.949 60.6442 105.828 59.5225 101.047 61.5063C97.4875 62.9813 94.7003 66.087 96.6419 67.458Z" fill="#231F20"/>
        <path d="M142.949 67.4059C141.174 68.6731 140.569 65.5051 136.414 63.6043C132.949 62.0151 130.255 63.2823 129.942 61.7866C129.629 60.2909 132.959 59.0652 138.126 61.1322C141.978 62.6591 145.016 65.931 142.949 67.4059Z" fill="#231F20"/>
        <path d="M106.377 98.3014C106.554 98.3014 106.721 98.3949 106.826 98.5507C106.836 98.5611 107.65 99.8595 109.425 101.199C111.054 102.435 113.862 103.952 117.954 104.191C125.814 104.658 130.512 98.5611 130.553 98.4988C130.731 98.2703 131.055 98.2183 131.284 98.3949C131.514 98.5715 131.566 98.8935 131.389 99.122C131.336 99.1947 130.105 100.805 127.829 102.373C125.72 103.817 122.286 105.489 117.891 105.229C113.507 104.97 110.5 103.329 108.747 101.989C106.836 100.535 105.97 99.1428 105.938 99.0804C105.792 98.8312 105.865 98.5196 106.116 98.3638C106.189 98.3326 106.283 98.3014 106.377 98.3014Z" fill="#231F20"/>
        <path d="M132.777 100.909C133.602 99.5901 133.748 97.8866 133.153 96.4533C133.101 96.3286 132.975 96.2351 132.829 96.2767C132.704 96.3078 132.589 96.4636 132.652 96.5987C133.194 97.9178 133.08 99.4447 132.328 100.65C132.151 100.93 132.599 101.2 132.777 100.909Z" fill="#231F20"/>
        <path d="M105.531 100.503C104.539 99.5474 104.164 98.0413 104.571 96.7326C104.675 96.4106 104.164 96.2756 104.07 96.5976C103.6 98.0829 104.038 99.7863 105.166 100.877C105.395 101.105 105.771 100.732 105.531 100.503Z" fill="#231F20"/>
    </g>
    <path d="M130.153 127.094C130.153 123.593 132.831 116.591 143.545 116.591C154.259 116.591 156.937 123.593 156.937 127.094V132.346H130.153V127.094Z" fill="#50C400"/>
    <path d="M130.153 127.094C130.153 123.593 132.831 116.591 143.545 116.591C154.259 116.591 156.937 123.593 156.937 127.094M130.153 127.094H156.937M130.153 127.094V132.346C139.795 132.346 152.027 132.346 156.937 132.346V127.094" stroke="white" stroke-width="0.4"/>
    <path d="M82.8862 127.094C82.8862 123.593 85.5647 116.591 96.2784 116.591C106.992 116.591 109.67 123.593 109.67 127.094V132.346H82.8862V127.094Z" fill="#50C400"/>
    <path d="M82.8862 127.094C82.8862 123.593 85.5647 116.591 96.2784 116.591C106.992 116.591 109.671 123.593 109.671 127.094M82.8862 127.094H109.671M82.8862 127.094V132.346C92.5286 132.346 104.76 132.346 109.671 132.346V127.094" stroke="white" stroke-width="0.4"/>
    <g clip-path="url(#clip3)">
        <path d="M221.852 231.527L222.074 231.399C222.374 231.818 222.726 232.211 223.076 232.531C223.195 232.646 223.328 232.759 223.457 232.857L223.397 232.916C223.38 232.906 223.362 232.896 223.334 232.903C221.852 233.552 220.263 233.951 218.802 234.624C217.369 235.29 215.978 236.063 214.761 237.053C214.264 237.455 213.512 238.154 213.393 238.868C213.379 238.872 213.364 238.875 213.35 238.879C212.862 239.016 212.523 238.562 212.416 238.196C212.337 237.939 212.468 237.688 212.571 237.443C212.763 237.016 213.098 236.626 213.43 236.28C214.129 235.551 215.042 235.016 215.894 234.481C216.8 233.919 217.754 233.431 218.708 232.944C219.701 232.432 220.865 232.183 221.809 231.596C221.855 231.599 221.862 231.568 221.852 231.527Z" fill="#D60C0C"/>
        <path d="M220.808 229.634C220.91 229.623 221.008 229.598 221.107 229.573C221.177 229.555 221.233 229.541 221.304 229.524L221.341 229.674C221.313 229.681 221.289 229.702 221.302 229.757C221.419 230.34 221.708 230.893 222.091 231.409L221.869 231.537C221.866 231.524 221.863 231.51 221.845 231.5C221.69 231.597 221.387 231.702 221.331 231.716C220.807 231.95 220.261 232.16 219.719 232.384C219.096 232.642 218.463 232.918 217.822 233.166C217.784 233.191 217.731 233.219 217.688 233.229C216.368 233.925 214.984 234.666 213.81 235.588C213.274 236.014 212.66 236.605 212.333 237.27C211.555 237.029 212.729 235.452 212.951 235.148C213.602 234.285 214.459 233.589 215.295 232.928C216.127 232.252 217.095 231.82 218 231.257C218.892 230.698 219.794 230.005 220.808 229.634Z" fill="#D60C0C"/>
        <path d="M217.869 226.279C218.106 226.088 218.824 226.447 219.087 226.541C219.56 226.699 220.052 226.75 220.55 226.77C221.902 226.795 223.196 226.469 224.522 226.151C225.155 225.992 225.795 225.86 226.448 225.841C226.94 225.834 227.35 225.979 227.718 226.192C228.363 226.38 228.92 226.75 229.463 227.123C230.008 227.51 230.597 227.887 231.026 228.406C231.131 228.525 231.225 228.661 231.305 228.802C231.106 227.949 230.304 227.378 229.527 226.845C229.148 226.11 230.168 225.883 230.807 225.809C231.401 225.733 231.969 225.911 232.477 226.147C233.353 226.539 234.165 227.267 234.762 227.977C235.889 229.31 236.513 233.101 233.572 232.646C233.824 232.102 233.873 231.463 233.57 230.971C233.69 231.567 233.578 232.193 233.143 232.724C233.108 232.762 233.073 232.8 233.041 232.852C232.524 233.652 231.556 234.085 230.641 234.489C229.859 234.948 229.063 235.41 228.26 235.845C227.629 236.193 226.999 236.541 226.351 236.879C226.048 237.042 225.721 237.168 225.404 237.277C225.362 237.287 225.323 237.312 225.281 237.322C225.267 237.326 225.253 237.329 225.239 237.333C224.852 237.459 224.455 237.545 224.047 237.647C222.686 237.945 221.367 238.233 220.152 238.932C219.268 239.402 217.702 240.844 216.623 240.241C215.877 239.832 216.369 238.994 216.821 238.589C217.248 238.205 217.811 237.889 218.311 237.617C219.657 236.9 221.147 236.759 222.578 236.268C223.461 235.973 224.201 235.525 224.892 235.002C225.15 234.777 225.376 234.545 225.595 234.286C225.651 234.214 225.725 234.152 225.785 234.093C225.768 234.083 225.74 234.09 225.726 234.093C225.022 234.445 224.537 235.077 223.84 235.456C222.956 235.926 222.003 236.238 221.025 236.455C219.496 236.795 218.141 237.296 216.875 238.211C216.368 238.572 215.983 239.062 215.994 239.584C215.98 239.587 215.98 239.587 215.966 239.591C215.498 239.752 215.068 240.122 214.565 240.088C213.621 240.02 213.566 239.028 213.903 238.405C214.353 237.578 215.301 236.946 216.087 236.443C217.253 235.669 218.514 235.032 219.813 234.487C220.988 233.987 222.324 233.71 223.389 233.005C223.427 232.981 223.42 232.954 223.399 232.93L223.459 232.871C224.04 233.337 224.692 233.61 225.503 233.625C225.577 233.621 225.567 233.521 225.504 233.508C224.514 233.436 223.796 232.903 223.125 232.256C222.73 231.874 222.437 231.482 222.155 231.014C222.082 230.901 222.033 230.768 221.946 230.658C221.897 230.583 221.578 229.848 221.48 229.814C221.497 229.824 221.522 229.804 221.519 229.79C221.512 229.762 221.491 229.739 221.47 229.715C221.445 229.677 221.382 229.664 221.34 229.675L221.302 229.524C221.612 229.446 221.914 229.341 222.227 229.218C222.871 228.984 223.639 228.529 224.252 229.001C224.832 229.467 225.318 229.971 226.058 230.237C227.138 230.606 228.586 230.417 229.188 229.363C229.199 229.346 229.195 229.332 229.206 229.315C228.853 229.578 228.504 229.855 228.078 230.006C227.526 230.188 226.94 230.176 226.385 229.994C225.519 229.702 224.834 229.117 224.092 228.604C223.896 228.537 223.696 228.514 223.453 228.561C222.62 228.756 221.862 229.194 221.053 229.426C221.039 229.43 221.039 229.43 221.022 229.419C220.849 229.448 220.681 229.491 220.512 229.533C220.368 229.555 220.206 229.566 220.055 229.56C219.922 229.565 219.781 229.542 219.641 229.519C218.311 229.285 217.611 228.106 217.61 226.912C217.629 226.689 217.672 226.445 217.869 226.279ZM230.4 230.675C229.708 230.66 229.028 231.107 228.475 231.465C227.728 231.944 227.236 232.723 226.72 233.406C226.709 233.424 226.73 233.448 226.755 233.427C227.256 232.805 227.741 232.174 228.393 231.675C228.982 231.221 229.703 230.938 230.438 230.767C230.512 230.764 230.46 230.675 230.4 230.675Z" fill="#D60C0C"/>
        <path d="M246.361 217.181C246.943 216.699 247.877 216.13 248.428 216.894C248.749 217.338 248.563 218.026 248.364 218.484C248.079 219.138 247.767 219.799 247.402 220.43C246.609 221.736 245.609 222.934 244.448 223.969C244.131 224.253 243.82 224.505 243.482 224.765L243.356 224.622C243.582 224.449 243.804 224.262 244.012 224.078C245.099 223.106 245.93 222.009 246.705 220.809C247.083 220.233 247.396 219.63 247.69 219.017C247.814 218.738 247.97 218.466 248.077 218.177C248.198 217.826 248.45 216.568 247.596 216.856C246.368 217.266 245.514 218.69 244.744 219.612C244.051 220.427 243.306 221.211 242.499 221.924C243.037 221.745 243.596 221.648 244.126 221.617C244.186 221.617 244.203 221.685 244.147 221.699C243.201 221.864 242.388 222.2 241.606 222.658C240.407 223.601 239.17 224.567 237.856 225.349C237.193 225.748 236.489 226.1 235.782 226.438C235.503 226.581 235.208 226.714 234.923 226.829C234.719 226.909 234.49 226.952 234.283 227.019L234.22 226.831C234.424 226.75 234.639 226.711 234.839 226.617C235.325 226.407 235.783 226.147 236.248 225.913C237.096 225.481 237.886 224.992 238.658 224.434C239.327 223.945 240.011 223.452 240.674 222.936C240.844 222.777 241.02 222.645 241.21 222.51C241.806 222.025 242.385 221.53 242.939 220.998C243.574 220.372 244.171 219.712 244.729 219.018C245.235 218.411 245.726 217.69 246.361 217.181Z" fill="white"/>
        <path d="M219.088 226.541C218.825 226.447 218.093 226.092 217.87 226.279C217.669 226.431 217.63 226.689 217.625 226.908C217.612 228.106 218.329 229.295 219.656 229.515C219.796 229.538 219.933 229.548 220.07 229.557L220.059 229.691C219.49 229.688 218.943 229.534 218.439 229.136C217.662 228.545 217.112 227.605 217.356 226.612C217.668 225.353 219.138 226.382 219.938 226.473C221.848 226.692 223.611 225.972 225.457 225.581C226.111 225.446 226.863 225.402 227.49 225.638C228.051 225.847 228.541 226.19 229.028 226.519C229.014 226.348 229.075 226.172 229.23 226.016C229.654 225.619 230.35 225.473 230.933 225.472C232.19 225.476 233.216 226.107 234.122 226.856C234.15 226.848 234.189 226.824 234.217 226.817L234.279 227.005C234.416 227.131 234.552 227.257 234.688 227.383C235.139 227.809 235.533 228.365 235.794 228.985C237.257 228.5 238.667 227.563 239.967 226.785C241.087 226.125 242.288 225.43 243.339 224.612L243.465 224.755C242.477 225.528 241.42 226.201 240.342 226.851C239.525 227.348 238.666 227.797 237.841 228.266C237.214 228.628 236.584 228.975 235.88 229.211C236.099 229.84 236.162 230.509 235.994 231.149C235.693 232.273 234.728 232.894 233.531 232.656L233.538 232.625C236.462 233.07 235.855 229.29 234.728 227.956C234.131 227.247 233.319 226.518 232.443 226.127C231.921 225.894 231.357 225.73 230.773 225.789C230.134 225.862 229.114 226.089 229.493 226.824C230.284 227.354 231.086 227.925 231.271 228.781C231.191 228.641 231.097 228.504 230.992 228.385C230.563 227.867 229.989 227.487 229.428 227.103C228.9 226.726 228.329 226.359 227.684 226.172C227.302 225.962 226.906 225.814 226.414 225.821C225.758 225.826 225.121 225.971 224.488 226.13C223.177 226.445 221.886 226.784 220.516 226.75C220.056 226.763 219.565 226.712 219.088 226.541Z" fill="white"/>
        <path d="M221.068 229.422C221.877 229.19 222.617 228.742 223.468 228.557C223.707 228.497 223.925 228.53 224.107 228.6C224.835 229.117 225.517 229.688 226.401 229.991C226.941 230.175 227.531 230.202 228.093 230.002C228.505 229.855 228.868 229.574 229.221 229.311C229.224 229.325 229.214 229.342 229.203 229.359C228.601 230.414 227.153 230.603 226.073 230.233C225.336 229.981 224.847 229.463 224.267 228.997C223.668 228.521 222.901 228.977 222.243 229.215C221.94 229.32 221.623 229.429 221.317 229.52C221.247 229.538 221.177 229.555 221.12 229.57L221.068 229.422Z" fill="white"/>
        <path d="M220.062 229.704L220.073 229.57C220.224 229.576 220.386 229.565 220.53 229.543C220.695 229.487 220.867 229.458 221.04 229.429C221.054 229.426 221.054 229.426 221.071 229.436L221.109 229.587C221.011 229.612 220.912 229.636 220.81 229.647C219.814 230.029 218.894 230.712 218.003 231.271C217.097 231.833 216.129 232.266 215.297 232.941C214.451 233.62 213.594 234.316 212.954 235.162C212.731 235.465 211.557 237.042 212.336 237.284C212.648 236.622 213.276 236.028 213.812 235.602C214.986 234.68 216.37 233.939 217.691 233.243C217.744 233.215 217.782 233.191 217.825 233.18C218.465 232.932 219.099 232.656 219.722 232.397C220.264 232.174 220.795 231.967 221.334 231.73C221.4 231.699 221.692 231.611 221.847 231.513C221.851 231.527 221.868 231.537 221.872 231.551C221.879 231.578 221.872 231.609 221.833 231.634C220.889 232.221 219.725 232.469 218.732 232.981C217.778 233.469 216.837 233.953 215.918 234.519C215.048 235.043 214.153 235.589 213.454 236.318C213.122 236.664 212.783 237.04 212.594 237.481C212.488 237.712 212.36 237.977 212.44 238.233C212.547 238.6 212.885 239.054 213.374 238.916L213.402 239.026C212.782 239.357 212.093 238.641 212.128 238.064C212.122 237.862 212.154 237.693 212.218 237.532C211.674 237.508 211.618 236.867 211.771 236.406C212.149 235.291 213.046 234.337 213.945 233.572C215.032 232.658 216.12 231.933 217.367 231.241C218.22 230.765 219.112 230.089 220.062 229.704Z" fill="white"/>
        <path d="M221.298 229.743C221.288 229.702 221.309 229.668 221.337 229.661C221.38 229.65 221.443 229.663 221.467 229.701C221.488 229.725 221.495 229.752 221.516 229.776C221.523 229.803 221.495 229.81 221.477 229.8C221.589 229.83 221.895 230.569 221.944 230.645C222.017 230.757 222.079 230.887 222.152 231C222.421 231.472 222.728 231.86 223.123 232.242C223.794 232.889 224.497 233.426 225.501 233.494C225.578 233.504 225.574 233.607 225.501 233.611C224.689 233.596 224.034 233.309 223.457 232.857C223.327 232.759 223.208 232.643 223.076 232.531C222.74 232.207 222.387 231.815 222.073 231.399C221.704 230.88 221.411 230.312 221.298 229.743Z" fill="white"/>
        <path d="M228.476 231.465C229.029 231.107 229.706 230.646 230.401 230.675C230.461 230.675 230.509 230.75 230.425 230.771C229.694 230.955 228.983 231.221 228.38 231.678C227.742 232.174 227.257 232.805 226.741 233.43C226.731 233.447 226.696 233.427 226.706 233.41C227.254 232.733 227.743 231.94 228.476 231.465Z" fill="white"/>
        <path d="M223.333 232.903C223.361 232.896 223.378 232.906 223.396 232.916C223.417 232.94 223.424 232.968 223.385 232.992C222.317 233.683 220.981 233.96 219.809 234.473C218.514 235.032 217.253 235.669 216.083 236.429C215.301 236.946 214.35 237.564 213.9 238.391C213.566 239.029 213.621 240.02 214.565 240.088C215.068 240.123 215.498 239.752 215.966 239.591L216.004 239.683C215.455 239.938 215.01 240.37 214.368 240.255C213.929 240.175 213.601 239.821 213.448 239.452C213.379 239.294 213.355 239.14 213.377 238.989L213.349 238.879C213.363 238.876 213.377 238.872 213.391 238.869C213.511 238.154 214.266 237.469 214.76 237.053C215.976 236.063 217.368 235.291 218.8 234.625C220.261 233.952 221.851 233.552 223.333 232.903Z" fill="white"/>
        <path d="M233.567 230.957C233.856 231.453 233.821 232.088 233.569 232.632L233.562 232.663C233.434 232.928 233.254 233.163 233.049 233.36C231.892 234.408 230.273 235.107 228.882 235.82C228.023 236.269 227.188 236.756 226.304 237.167C225.53 237.537 224.739 237.721 223.902 237.902C223.023 238.094 222.095 238.269 221.257 238.625C220.458 238.957 219.764 239.467 219.006 239.905C218.34 240.291 217.037 241.055 216.331 240.329C216.129 240.118 216.031 239.909 215.994 239.7L215.956 239.608C215.97 239.604 215.97 239.604 215.984 239.601C215.976 239.093 216.361 238.603 216.865 238.229C218.131 237.313 219.485 236.813 221.015 236.472C221.992 236.255 222.946 235.943 223.83 235.473C224.53 235.108 225.011 234.462 225.715 234.111C225.73 234.107 225.758 234.1 225.775 234.11C225.701 234.172 225.645 234.245 225.585 234.304C225.366 234.563 225.14 234.794 224.882 235.019C224.205 235.539 223.462 235.973 222.582 236.282C221.164 236.769 219.657 236.901 218.315 237.631C217.801 237.906 217.248 238.205 216.825 238.603C216.373 239.008 215.867 239.849 216.627 240.255C217.702 240.844 219.269 239.402 220.146 238.905C221.361 238.206 222.683 237.932 224.04 237.62C224.452 237.531 224.845 237.432 225.232 237.306C225.246 237.302 225.264 237.312 225.275 237.295C225.317 237.284 225.356 237.26 225.398 237.25C225.714 237.141 226.028 237.018 226.345 236.851C226.992 236.514 227.623 236.166 228.253 235.818C229.053 235.369 229.852 234.921 230.634 234.462C231.546 234.044 232.518 233.625 233.034 232.825C233.07 232.787 233.105 232.749 233.137 232.697C233.575 232.179 233.69 231.567 233.567 230.957Z" fill="white"/>
        <path d="M248.213 218.268C247.322 222.298 240.466 227.826 235.695 229.025C235.097 228.33 234.021 226.909 234.498 226.789C235.095 226.639 244.783 219.764 244.634 219.168C244.484 218.571 249.053 214.47 248.213 218.268Z" fill="#D60C0C" stroke="white" stroke-width="0.3"/>
    </g>
    <g clip-path="url(#clip4)">
        <path d="M311.004 227.747L310.816 227.573C310.431 227.917 310 228.221 309.589 228.456C309.447 228.543 309.293 228.623 309.145 228.691L309.191 228.762C309.21 228.756 309.229 228.75 309.255 228.763C310.558 229.722 312.02 230.462 313.297 231.441C314.548 232.406 315.735 233.466 316.703 234.7C317.1 235.201 317.679 236.048 317.638 236.772C317.651 236.778 317.664 236.785 317.677 236.791C318.123 237.033 318.553 236.665 318.739 236.331C318.873 236.098 318.8 235.824 318.753 235.563C318.66 235.104 318.419 234.65 318.171 234.239C317.65 233.374 316.878 232.651 316.164 231.941C315.405 231.193 314.582 230.507 313.758 229.822C312.902 229.104 311.822 228.605 311.03 227.824C310.985 227.817 310.985 227.785 311.004 227.747Z" fill="#D60C0C"/>
        <path d="M312.44 226.13C312.343 226.097 312.252 226.051 312.161 226.006C312.097 225.973 312.045 225.947 311.98 225.914L311.91 226.053C311.936 226.066 311.955 226.091 311.93 226.142C311.688 226.684 311.284 227.161 310.796 227.579L310.985 227.753C310.991 227.741 310.997 227.728 311.017 227.722C311.146 227.851 311.418 228.02 311.47 228.047C311.93 228.39 312.416 228.715 312.896 229.053C313.446 229.442 314.003 229.851 314.573 230.234C314.606 230.266 314.651 230.305 314.69 230.325C315.825 231.295 317.012 232.322 317.954 233.48C318.383 234.014 318.852 234.726 319.024 235.446C319.836 235.382 319.038 233.585 318.888 233.24C318.444 232.255 317.761 231.387 317.092 230.558C316.429 229.716 315.58 229.081 314.82 228.332C314.074 227.591 313.346 226.716 312.44 226.13Z" fill="#D60C0C"/>
        <path d="M316.045 223.505C315.856 223.267 315.077 223.459 314.799 223.493C314.303 223.542 313.812 223.484 313.321 223.394C311.997 223.12 310.807 222.517 309.584 221.915C309.001 221.62 308.406 221.351 307.773 221.189C307.295 221.073 306.863 221.124 306.457 221.251C305.786 221.292 305.162 221.53 304.55 221.775C303.933 222.032 303.276 222.27 302.743 222.681C302.614 222.774 302.492 222.887 302.383 223.006C302.766 222.218 303.673 221.838 304.549 221.489C305.08 220.856 304.136 220.409 303.528 220.197C302.966 219.991 302.372 220.04 301.825 220.158C300.884 220.347 299.932 220.879 299.193 221.44C297.8 222.492 296.356 226.052 299.325 226.256C299.199 225.67 299.292 225.036 299.696 224.623C299.448 225.178 299.419 225.813 299.726 226.427C299.752 226.472 299.778 226.517 299.798 226.574C300.126 227.469 300.975 228.104 301.778 228.7C302.44 229.32 303.115 229.947 303.802 230.548C304.34 231.026 304.879 231.504 305.436 231.976C305.696 232.202 305.987 232.397 306.272 232.573C306.311 232.593 306.343 232.625 306.382 232.645C306.395 232.651 306.408 232.658 306.421 232.664C306.771 232.873 307.139 233.043 307.515 233.233C308.776 233.824 309.999 234.395 311.03 235.344C311.789 235.997 312.999 237.75 314.184 237.399C315.002 237.164 314.707 236.239 314.355 235.744C314.024 235.276 313.544 234.843 313.116 234.468C311.961 233.472 310.539 233.006 309.251 232.212C308.454 231.73 307.831 231.129 307.273 230.467C307.071 230.191 306.902 229.915 306.745 229.614C306.706 229.531 306.647 229.454 306.602 229.383C306.621 229.377 306.647 229.39 306.66 229.397C307.269 229.895 307.602 230.618 308.199 231.141C308.958 231.794 309.819 232.309 310.725 232.736C312.142 233.405 313.353 234.192 314.385 235.364C314.801 235.827 315.069 236.39 314.943 236.896C314.956 236.903 314.956 236.903 314.969 236.909C315.39 237.17 315.728 237.626 316.225 237.703C317.161 237.845 317.433 236.89 317.242 236.207C316.985 235.301 316.2 234.476 315.544 233.812C314.577 232.8 313.488 231.901 312.341 231.083C311.304 230.337 310.062 229.772 309.179 228.851C309.147 228.818 309.16 228.793 309.185 228.775L309.14 228.704C308.471 229.03 307.774 229.153 306.98 228.989C306.909 228.969 306.941 228.874 307.005 228.875C307.987 229.023 308.804 228.661 309.601 228.177C310.07 227.892 310.443 227.574 310.821 227.18C310.917 227.086 310.994 226.966 311.103 226.879C311.167 226.817 311.641 226.17 311.744 226.158C311.725 226.164 311.705 226.139 311.712 226.126C311.724 226.101 311.75 226.082 311.776 226.064C311.808 226.032 311.872 226.033 311.911 226.053L311.981 225.914C311.697 225.77 311.425 225.601 311.146 225.413C310.57 225.042 309.921 224.429 309.22 224.755C308.551 225.081 307.966 225.466 307.186 225.562C306.051 225.685 304.68 225.181 304.325 224.02C304.318 224.001 304.325 223.988 304.318 223.969C304.604 224.304 304.883 224.651 305.266 224.892C305.764 225.191 306.339 225.308 306.919 225.253C307.828 225.159 308.626 224.739 309.463 224.403C309.669 224.38 309.869 224.402 310.096 224.501C310.866 224.875 311.508 225.469 312.246 225.874C312.259 225.88 312.259 225.88 312.278 225.874C312.44 225.94 312.595 226.019 312.75 226.097C312.886 226.15 313.041 226.197 313.19 226.225C313.319 226.258 313.461 226.267 313.603 226.275C314.952 226.34 315.894 225.345 316.158 224.18C316.189 223.958 316.201 223.711 316.045 223.505ZM302.853 225.033C303.532 225.17 304.096 225.757 304.557 226.227C305.18 226.859 305.489 227.728 305.842 228.508C305.848 228.527 305.822 228.546 305.803 228.52C305.45 227.803 305.117 227.081 304.591 226.45C304.116 225.878 303.475 225.442 302.796 225.115C302.725 225.094 302.795 225.019 302.853 225.033Z" fill="#D60C0C"/>
        <path d="M290.258 208.354C289.796 207.756 289.011 206.995 288.305 207.619C287.894 207.981 287.924 208.693 288.017 209.183C288.151 209.884 288.31 210.598 288.527 211.293C289.012 212.743 289.724 214.132 290.628 215.397C290.875 215.743 291.122 216.058 291.395 216.386L291.549 216.274C291.368 216.056 291.192 215.824 291.029 215.6C290.184 214.412 289.615 213.158 289.123 211.817C288.881 211.172 288.709 210.515 288.557 209.852C288.497 209.553 288.405 209.253 288.364 208.947C288.323 208.578 288.355 207.296 289.125 207.765C290.232 208.436 290.751 210.012 291.3 211.081C291.795 212.029 292.349 212.958 292.98 213.832C292.495 213.539 291.971 213.321 291.46 213.174C291.402 213.16 291.37 213.223 291.422 213.249C292.308 213.618 293.027 214.125 293.689 214.744C294.651 215.928 295.645 217.143 296.754 218.195C297.312 218.731 297.922 219.229 298.538 219.715C298.777 219.915 299.037 220.11 299.289 220.285C299.471 220.409 299.684 220.501 299.872 220.611L299.974 220.442C299.793 220.318 299.592 220.233 299.417 220.096C298.99 219.785 298.6 219.43 298.198 219.1C297.466 218.492 296.804 217.84 296.174 217.126C295.628 216.501 295.07 215.87 294.537 215.221C294.407 215.028 294.264 214.861 294.108 214.687C293.633 214.083 293.178 213.473 292.755 212.831C292.273 212.081 291.836 211.306 291.445 210.506C291.086 209.802 290.765 208.99 290.258 208.354Z" fill="white"/>
        <path d="M314.799 223.492C315.076 223.458 315.868 223.274 316.044 223.505C316.206 223.698 316.189 223.958 316.145 224.173C315.893 225.344 314.932 226.346 313.589 226.269C313.447 226.26 313.312 226.239 313.176 226.218L313.157 226.351C313.713 226.474 314.281 226.444 314.86 226.167C315.748 225.761 316.491 224.966 316.472 223.943C316.445 222.647 314.785 223.327 313.984 223.239C312.073 223.032 310.512 221.941 308.798 221.153C308.19 220.877 307.466 220.669 306.802 220.761C306.209 220.841 305.655 221.067 305.108 221.281C305.159 221.117 305.138 220.932 305.021 220.746C304.696 220.265 304.049 219.97 303.48 219.84C302.253 219.568 301.113 219.957 300.064 220.487C300.039 220.474 300.006 220.442 299.98 220.429L299.878 220.599C299.717 220.692 299.557 220.784 299.396 220.877C298.862 221.193 298.355 221.649 297.965 222.196C296.644 221.401 295.475 220.176 294.379 219.131C293.432 218.24 292.413 217.297 291.568 216.268L291.414 216.38C292.207 217.351 293.09 218.241 293.998 219.112C294.686 219.777 295.425 220.404 296.126 221.044C296.658 221.534 297.196 222.013 297.83 222.397C297.479 222.963 297.27 223.602 297.293 224.262C297.339 225.425 298.143 226.244 299.363 226.275L299.363 226.244C296.413 226.034 297.837 222.48 299.231 221.427C299.97 220.867 300.922 220.335 301.863 220.146C302.423 220.034 303.01 219.998 303.566 220.185C304.174 220.397 305.118 220.843 304.587 221.477C303.698 221.819 302.791 222.199 302.421 222.994C302.53 222.875 302.652 222.762 302.781 222.669C303.314 222.258 303.957 222.013 304.588 221.762C305.187 221.511 305.824 221.279 306.495 221.239C306.914 221.118 307.333 221.061 307.811 221.176C308.45 221.326 309.039 221.608 309.621 221.902C310.831 222.499 312.016 223.114 313.359 223.382C313.805 223.496 314.296 223.555 314.799 223.492Z" fill="white"/>
        <path d="M312.232 225.867C311.494 225.462 310.871 224.862 310.082 224.494C309.862 224.383 309.642 224.367 309.449 224.396C308.625 224.739 307.834 225.146 306.906 225.246C306.338 225.308 305.757 225.203 305.252 224.885C304.883 224.65 304.59 224.297 304.304 223.962C304.298 223.975 304.305 223.994 304.311 224.013C304.666 225.174 306.037 225.678 307.172 225.555C307.946 225.472 308.537 225.074 309.206 224.748C309.894 224.415 310.543 225.028 311.132 225.406C311.404 225.575 311.689 225.751 311.968 225.907C312.032 225.94 312.097 225.973 312.149 225.999L312.232 225.867Z" fill="white"/>
        <path d="M313.151 226.364L313.17 226.231C313.021 226.203 312.866 226.156 312.73 226.103C312.581 226.012 312.42 225.946 312.258 225.88C312.245 225.874 312.245 225.874 312.226 225.88L312.156 226.018C312.246 226.064 312.337 226.11 312.434 226.143C313.321 226.735 314.068 227.603 314.814 228.345C315.574 229.093 316.423 229.729 317.086 230.571C317.762 231.419 318.444 232.287 318.882 233.253C319.033 233.598 319.83 235.395 319.018 235.459C318.859 234.745 318.377 234.026 317.948 233.493C317.006 232.335 315.819 231.307 314.684 230.338C314.639 230.299 314.606 230.266 314.568 230.247C313.998 229.863 313.44 229.455 312.89 229.065C312.41 228.728 311.937 228.41 311.464 228.059C311.406 228.014 311.141 227.864 311.011 227.735C311.004 227.748 310.985 227.754 310.979 227.766C310.966 227.791 310.966 227.823 310.999 227.855C311.79 228.636 312.871 229.135 313.727 229.853C314.55 230.539 315.36 231.218 316.133 231.973C316.866 232.676 317.618 233.405 318.14 234.271C318.387 234.681 318.635 235.123 318.722 235.594C318.775 235.843 318.841 236.13 318.707 236.362C318.522 236.696 318.092 237.065 317.645 236.823L317.594 236.924C318.126 237.383 318.955 236.836 319.048 236.266C319.099 236.07 319.104 235.898 319.077 235.727C319.613 235.824 319.81 235.211 319.762 234.727C319.639 233.557 318.974 232.429 318.265 231.484C317.407 230.353 316.505 229.406 315.441 228.456C314.715 227.804 313.993 226.948 313.151 226.364Z" fill="white"/>
        <path d="M311.937 226.129C311.956 226.091 311.943 226.053 311.917 226.04C311.878 226.02 311.813 226.019 311.781 226.051C311.756 226.069 311.743 226.095 311.717 226.113C311.704 226.138 311.73 226.152 311.75 226.145C311.634 226.15 311.173 226.804 311.109 226.866C311.013 226.96 310.923 227.073 310.827 227.167C310.461 227.568 310.076 227.879 309.607 228.165C308.809 228.648 308.005 229.017 307.011 228.862C306.933 228.854 306.914 228.956 306.986 228.976C307.78 229.14 308.483 229.005 309.145 228.691C309.293 228.623 309.435 228.537 309.589 228.456C309.988 228.215 310.418 227.91 310.816 227.573C311.291 227.148 311.701 226.659 311.937 226.129Z" fill="white"/>
        <path d="M304.556 226.227C304.096 225.756 303.537 225.157 302.853 225.032C302.794 225.019 302.73 225.081 302.808 225.121C303.481 225.461 304.116 225.877 304.603 226.456C305.116 227.08 305.45 227.803 305.815 228.526C305.822 228.545 305.86 228.533 305.854 228.514C305.468 227.733 305.167 226.852 304.556 226.227Z" fill="white"/>
        <path d="M309.256 228.763C309.23 228.75 309.211 228.756 309.192 228.762C309.166 228.781 309.153 228.806 309.186 228.838C310.075 229.747 311.317 230.312 312.347 231.071C313.488 231.901 314.577 232.801 315.551 233.8C316.2 234.477 316.992 235.289 317.248 236.195C317.433 236.89 317.161 237.845 316.225 237.704C315.728 237.626 315.39 237.17 314.969 236.91L314.911 236.991C315.391 237.361 315.729 237.88 316.381 237.909C316.826 237.929 317.225 237.655 317.455 237.328C317.558 237.19 317.615 237.045 317.627 236.893L317.678 236.792C317.665 236.785 317.652 236.779 317.639 236.772C317.68 236.049 317.094 235.214 316.704 234.7C315.736 233.466 314.549 232.406 313.298 231.441C312.021 230.463 310.559 229.723 309.256 228.763Z" fill="white"/>
        <path d="M299.702 224.61C299.311 225.03 299.205 225.657 299.331 226.243L299.332 226.275C299.398 226.562 299.522 226.831 299.678 227.068C300.576 228.346 302.001 229.383 303.201 230.386C303.94 231.013 304.647 231.672 305.419 232.268C306.093 232.799 306.824 233.153 307.6 233.514C308.415 233.895 309.282 234.27 310.021 234.802C310.727 235.302 311.292 235.952 311.934 236.546C312.499 237.069 313.601 238.102 314.45 237.549C314.694 237.388 314.835 237.206 314.918 237.01L314.975 236.929C314.962 236.922 314.962 236.922 314.949 236.915C315.069 236.422 314.801 235.859 314.392 235.383C313.359 234.211 312.148 233.424 310.731 232.755C309.825 232.328 308.964 231.813 308.206 231.16C307.603 230.65 307.276 229.914 306.666 229.416C306.653 229.409 306.627 229.396 306.608 229.402C306.667 229.479 306.706 229.563 306.751 229.633C306.908 229.934 307.077 230.21 307.279 230.486C307.825 231.142 308.454 231.73 309.244 232.224C310.52 233.012 311.961 233.472 313.109 234.48C313.55 234.862 314.024 235.275 314.349 235.757C314.7 236.251 315.009 237.183 314.178 237.412C312.999 237.75 311.789 235.997 311.043 235.319C310.012 234.37 308.783 233.811 307.527 233.208C307.146 233.031 306.783 232.847 306.434 232.639C306.421 232.632 306.401 232.638 306.395 232.619C306.356 232.6 306.324 232.567 306.285 232.548C306 232.372 305.721 232.184 305.449 231.951C304.891 231.479 304.353 231 303.815 230.522C303.134 229.909 302.453 229.295 301.791 228.675C300.994 228.066 300.138 227.443 299.811 226.549C299.784 226.504 299.758 226.459 299.739 226.402C299.425 225.8 299.448 225.178 299.702 224.61Z" fill="white"/>
        <path d="M288.212 209.006C288.193 213.133 293.663 220.036 298.053 222.257C298.789 221.71 300.151 220.561 299.712 220.339C299.163 220.062 291.228 211.221 291.505 210.673C291.783 210.124 288.229 205.116 288.212 209.006Z" fill="#D60C0C" stroke="white" stroke-width="0.3"/>
    </g>
    <path d="M265.587 246.386C267.941 250.231 273.574 250.085 275.726 246.124L309.82 183.381C311.972 179.42 309.03 174.615 304.523 174.731L233.139 176.577C228.633 176.693 225.942 181.644 228.296 185.489L265.587 246.386Z" fill="#D60C0C"/>
    <path fill-rule="evenodd" clip-rule="evenodd" d="M309.177 183.032L275.083 245.775C273.2 249.241 268.271 249.368 266.211 246.004L228.921 185.106C226.861 181.743 229.215 177.41 233.158 177.308L304.542 175.463C308.485 175.361 311.06 179.566 309.177 183.032ZM275.726 246.124C273.574 250.085 267.941 250.231 265.587 246.386L228.296 185.489C225.942 181.644 228.633 176.693 233.139 176.577L304.523 174.731C309.03 174.615 311.972 179.42 309.82 183.381L275.726 246.124Z" fill="white"/>
    <g clip-path="url(#clip5)">
        <path d="M286.003 204.032C286.555 200.663 284.258 197.487 280.872 196.938C277.486 196.389 274.294 198.674 273.743 202.043C273.191 205.412 275.488 208.588 278.873 209.137C282.259 209.686 285.451 207.4 286.003 204.032Z" fill="white"/>
        <path d="M265.482 204.47C266.276 201.15 264.214 197.818 260.876 197.028C257.539 196.239 254.19 198.291 253.397 201.611C252.604 204.932 254.666 208.264 258.003 209.053C261.34 209.843 264.689 207.791 265.482 204.47Z" fill="white"/>
        <path d="M263.092 198.05C263.728 199.023 264.095 200.175 264.095 201.424C264.095 204.838 261.315 207.604 257.884 207.604C256.515 207.604 255.251 207.158 254.224 206.412C255.333 208.107 257.248 209.218 259.433 209.218C262.864 209.218 265.643 206.452 265.643 203.038C265.643 200.986 264.641 199.177 263.092 198.05Z" fill="#EFEFEF"/>
        <path d="M283.526 198.05C284.162 199.023 284.529 200.174 284.529 201.423C284.529 204.838 281.749 207.603 278.318 207.603C276.949 207.603 275.685 207.157 274.658 206.411C275.767 208.106 277.682 209.217 279.867 209.217C283.298 209.217 286.078 206.452 286.078 203.037C286.078 200.985 285.075 199.177 283.526 198.05Z" fill="#EFEFEF"/>
        <path d="M259.441 209.501C255.863 209.501 252.945 206.598 252.945 203.037C252.945 199.477 255.863 196.573 259.441 196.573C263.019 196.573 265.937 199.477 265.937 203.037C265.937 206.598 263.027 209.501 259.441 209.501ZM259.441 197.141C256.173 197.141 253.515 199.785 253.515 203.037C253.515 206.289 256.173 208.933 259.441 208.933C262.71 208.933 265.367 206.289 265.367 203.037C265.367 199.785 262.71 197.141 259.441 197.141Z" fill="#231F20"/>
        <path d="M262.916 203.916C262.916 205.571 261.571 206.909 259.908 206.909C258.245 206.909 256.9 205.571 256.9 203.916C256.9 202.262 258.245 200.924 259.908 200.924C261.571 200.924 262.916 202.27 262.916 203.916Z" fill="#231F20"/>
        <path d="M260.404 203.373C260.404 204.046 259.85 204.597 259.174 204.597C258.497 204.597 257.943 204.046 257.943 203.373C257.943 202.7 258.497 202.148 259.174 202.148C259.85 202.148 260.404 202.7 260.404 203.373Z" fill="white"/>
        <path d="M279.875 209.502C276.297 209.502 273.379 206.598 273.379 203.038C273.379 199.477 276.297 196.574 279.875 196.574C283.453 196.574 286.371 199.477 286.371 203.038C286.371 206.598 283.453 209.502 279.875 209.502ZM279.875 197.142C276.607 197.142 273.949 199.786 273.949 203.038C273.949 206.29 276.607 208.934 279.875 208.934C283.144 208.934 285.801 206.29 285.801 203.038C285.801 199.786 283.144 197.142 279.875 197.142Z" fill="#231F20"/>
        <path d="M283.269 204.553C283.622 202.938 282.592 201.344 280.969 200.993C279.345 200.642 277.744 201.667 277.391 203.282C277.038 204.897 278.068 206.491 279.692 206.842C281.315 207.193 282.916 206.168 283.269 204.553Z" fill="#231F20"/>
        <path d="M280.822 203.374C280.822 204.047 280.268 204.598 279.592 204.598C278.915 204.598 278.361 204.047 278.361 203.374C278.361 202.7 278.915 202.149 279.592 202.149C280.268 202.149 280.822 202.7 280.822 203.374Z" fill="white"/>
        <path d="M252.121 190.597C253.425 191.522 253.825 189.186 256.833 187.759C259.335 186.566 261.307 187.483 261.519 186.38C261.731 185.277 259.294 184.401 255.561 185.95C252.782 187.102 250.605 189.527 252.121 190.597Z" fill="#231F20"/>
        <path d="M288.279 190.556C286.893 191.546 286.42 189.072 283.176 187.588C280.47 186.347 278.367 187.337 278.123 186.169C277.878 185.001 280.478 184.044 284.513 185.658C287.521 186.85 289.893 189.405 288.279 190.556Z" fill="#231F20"/>
        <path d="M278.966 218.522C278.827 218.522 278.697 218.449 278.615 218.327C278.607 218.319 277.971 217.305 276.586 216.259C275.314 215.294 273.122 214.11 269.926 213.923C263.789 213.558 260.121 218.319 260.088 218.368C259.95 218.546 259.697 218.587 259.518 218.449C259.339 218.311 259.298 218.06 259.436 217.881C259.477 217.824 260.439 216.567 262.216 215.343C263.862 214.215 266.544 212.91 269.975 213.112C273.399 213.315 275.746 214.596 277.116 215.643C278.607 216.778 279.284 217.865 279.308 217.914C279.422 218.108 279.365 218.351 279.17 218.473C279.113 218.497 279.039 218.522 278.966 218.522Z" fill="#231F20"/>
        <path d="M258.352 216.486C257.708 217.516 257.594 218.846 258.059 219.965C258.1 220.062 258.197 220.135 258.312 220.103C258.409 220.079 258.499 219.957 258.45 219.851C258.026 218.821 258.116 217.629 258.703 216.688C258.841 216.469 258.491 216.259 258.352 216.486Z" fill="#231F20"/>
        <path d="M279.626 216.803C280.401 217.549 280.694 218.725 280.376 219.747C280.295 219.998 280.694 220.104 280.767 219.852C281.134 218.693 280.792 217.363 279.911 216.511C279.732 216.333 279.439 216.625 279.626 216.803Z" fill="#231F20"/>
    </g>
    <path d="M275.393 249.747C275.393 247.013 277.484 241.546 285.849 241.546C294.215 241.546 296.306 247.013 296.306 249.747V253.848H275.393V249.747Z" fill="#D60C0C"/>
    <path d="M275.393 249.747C275.393 247.013 277.484 241.546 285.849 241.546C294.215 241.546 296.306 247.013 296.306 249.747M275.393 249.747H296.306M275.393 249.747V253.848C282.921 253.848 292.472 253.848 296.306 253.848V249.747" stroke="white" stroke-width="0.4"/>
    <path d="M245.972 249.747C245.972 247.013 248.064 241.546 256.429 241.546C264.794 241.546 266.886 247.013 266.886 249.747V253.848H245.972V249.747Z" fill="#D60C0C"/>
    <path d="M245.972 249.747C245.972 247.013 248.064 241.546 256.429 241.546C264.794 241.546 266.886 247.013 266.886 249.747M245.972 249.747H266.886M245.972 249.747V253.848C253.501 253.848 263.052 253.848 266.886 253.848V249.747" stroke="white" stroke-width="0.4"/>
    <path d="M214.774 221.129H282.173L271.562 245.837H204.261L214.774 221.129Z" fill="#DFB37F"/>
    <path d="M289.345 221.129H214.381V277.8H289.345V221.129Z" fill="#CA802A"/>
    <path d="M329.235 221.129H261.835V277.8H329.235V221.129Z" fill="#D59955"/>
    <path opacity="0.1" d="M329.235 221.129H261.835V248.582H329.235V221.129Z" fill="#654015"/>
    <path d="M329.235 221.129H261.835L272.446 245.837H339.846L329.235 221.129Z" fill="#DFB37F"/>
    <path d="M240.613 277.898L232.753 277.8V265.544H240.613V277.898Z" fill="#DFB37F"/>
    <defs>
        <clipPath id="clip0">
            <rect width="20.4821" height="51.993" fill="white" transform="translate(49.7998 41.6816) rotate(-34.9903)"/>
        </clipPath>
        <clipPath id="clip1">
            <rect width="20.4821" height="51.993" fill="white" transform="matrix(-0.819249 -0.573438 -0.573438 0.819249 190.927 44.8328)"/>
        </clipPath>
        <clipPath id="clip2">
            <rect width="47.6119" height="46.0761" fill="white" transform="translate(96.0059 60.0312)"/>
        </clipPath>
        <clipPath id="clip3">
            <rect width="15.9927" height="40.5968" fill="white" transform="translate(212.885 241.734) rotate(-104.108)"/>
        </clipPath>
        <clipPath id="clip4">
            <rect width="15.9927" height="40.5968" fill="white" transform="matrix(0.451428 -0.892308 -0.892308 -0.451428 317.501 239.679)"/>
        </clipPath>
        <clipPath id="clip5">
            <rect width="37.176" height="35.9768" fill="white" transform="translate(251.625 184.798)"/>
        </clipPath>
    </defs>
</svg>
