<svg width="28" height="28" viewBox="0 0 28 28" fill="none" xmlns="http://www.w3.org/2000/svg">
    <path d="M27.7203 0.0319288C27.614 -0.0106429 27.4954 -0.0106429 27.389 0.0319288L27.3899 0.0332661L0.28129 10.7511C0.0527739 10.8427 -0.0582247 11.1022 0.0334383 11.3307C0.0766229 11.4384 0.160095 11.5251 0.266134 11.5722L11.4551 16.5462L16.4291 27.7352C16.5006 27.8961 16.6601 27.9998 16.8361 28H16.8455C17.0252 27.9964 17.1852 27.8851 17.2511 27.7178L27.9686 0.611439C28.06 0.382867 27.9489 0.123425 27.7203 0.0319288ZM16.8126 26.4046L12.2001 16.0273C12.1553 15.9266 12.0748 15.8461 11.9741 15.8013L1.59684 11.1888L26.761 1.24043L16.8126 26.4046Z" fill="#1AA3E0"/>
</svg>
