<svg width="1600" height="1459" viewBox="0 0 1600 1459" fill="none" xmlns="http://www.w3.org/2000/svg">
    <g opacity="0.4">
        <path d="M-47.4028 1623.77C-29.6927 1609.83 -69.9108 1262.75 514.489 1254.55C1098.89 1246.36 1225.79 1587.17 2028.46 1392.13" stroke="white" stroke-opacity="0.1" stroke-linecap="round" stroke-linejoin="round"/>
        <path d="M-60.0005 1597.03C-42.2904 1583.08 -82.5084 1236 501.891 1227.8C1086.29 1219.61 1213.19 1560.42 2015.86 1365.39" stroke="white" stroke-opacity="0.1" stroke-linecap="round" stroke-linejoin="round"/>
        <path d="M-72.5986 1570.28C-54.8885 1556.34 -95.1066 1209.25 489.293 1201.06C1073.69 1192.86 1200.59 1533.67 2003.26 1338.64" stroke="white" stroke-opacity="0.1" stroke-linecap="round" stroke-linejoin="round"/>
        <path d="M-85.196 1543.53C-67.4859 1529.59 -107.704 1182.5 476.695 1174.31C1061.09 1166.12 1188 1506.92 1990.66 1311.89" stroke="white" stroke-opacity="0.1" stroke-linecap="round" stroke-linejoin="round"/>
        <path d="M-97.7937 1516.78C-80.0836 1502.84 -120.302 1155.76 464.098 1147.56C1048.5 1139.37 1175.4 1480.18 1978.07 1285.14" stroke="white" stroke-opacity="0.1" stroke-linecap="round" stroke-linejoin="round"/>
        <path d="M-111.208 1493.44C-93.4979 1479.5 -133.716 1132.41 450.683 1124.22C1035.08 1116.03 1161.98 1456.84 1964.65 1261.8" stroke="white" stroke-opacity="0.1" stroke-linecap="round" stroke-linejoin="round"/>
        <path d="M-122.989 1463.29C-105.279 1449.35 -145.497 1102.26 438.902 1094.07C1023.3 1085.87 1150.2 1426.68 1952.87 1231.65" stroke="white" stroke-opacity="0.1" stroke-linecap="round" stroke-linejoin="round"/>
        <path d="M-135.587 1436.54C-117.877 1422.6 -158.095 1075.51 426.304 1067.32C1010.7 1059.13 1137.6 1399.93 1940.27 1204.9" stroke="white" stroke-opacity="0.1" stroke-linecap="round" stroke-linejoin="round"/>
        <path d="M-148.185 1409.79C-130.475 1395.85 -170.693 1048.76 413.707 1040.57C998.106 1032.38 1125.01 1373.19 1927.68 1178.15" stroke="white" stroke-opacity="0.1" stroke-linecap="round" stroke-linejoin="round"/>
        <path d="M-160.783 1383.05C-143.073 1369.1 -183.291 1022.02 401.109 1013.82C985.508 1005.63 1112.41 1346.44 1915.08 1151.41" stroke="white" stroke-opacity="0.1" stroke-linecap="round" stroke-linejoin="round"/>
        <path d="M-173.38 1356.3C-155.67 1342.35 -195.888 995.27 388.511 987.076C972.91 978.883 1099.81 1319.69 1902.48 1124.66" stroke="white" stroke-opacity="0.1" stroke-linecap="round" stroke-linejoin="round"/>
        <path d="M-185.978 1329.55C-168.268 1315.61 -208.486 968.522 375.913 960.328C960.312 952.135 1087.21 1292.94 1889.88 1097.91" stroke="white" stroke-opacity="0.1" stroke-linecap="round" stroke-linejoin="round"/>
        <path d="M-198.576 1302.8C-180.866 1288.86 -221.084 941.774 363.316 933.581C947.715 925.387 1074.62 1266.19 1877.28 1071.16" stroke="white" stroke-opacity="0.1" stroke-linecap="round" stroke-linejoin="round"/>
        <path d="M-211.174 1276.06C-193.464 1262.11 -233.682 915.026 350.718 906.833C935.117 898.64 1062.02 1239.45 1864.69 1044.42" stroke="white" stroke-opacity="0.1" stroke-linecap="round" stroke-linejoin="round"/>
        <path d="M-223.771 1249.31C-206.061 1235.36 -246.279 888.279 338.12 880.086C922.519 871.892 1049.42 1212.7 1852.09 1017.67" stroke="white" stroke-opacity="0.1" stroke-linecap="round" stroke-linejoin="round"/>
        <path d="M-236.369 1222.56C-218.659 1208.62 -258.877 861.531 325.522 853.338C909.922 845.145 1036.82 1185.95 1839.49 990.92" stroke="white" stroke-opacity="0.1" stroke-linecap="round" stroke-linejoin="round"/>
        <path d="M-248.967 1195.81C-231.257 1181.87 -271.475 834.783 312.924 826.59C897.324 818.397 1024.22 1159.2 1826.89 964.172" stroke="white" stroke-opacity="0.1" stroke-linecap="round" stroke-linejoin="round"/>
        <path d="M-261.565 1169.06C-243.855 1155.12 -284.073 808.035 300.327 799.842C884.726 791.649 1011.63 1132.46 1814.3 937.424" stroke="white" stroke-opacity="0.1" stroke-linecap="round" stroke-linejoin="round"/>
        <path d="M-274.163 1142.32C-256.452 1128.37 -296.671 781.288 287.729 773.095C872.128 764.901 999.029 1105.71 1801.7 910.677" stroke="white" stroke-opacity="0.1" stroke-linecap="round" stroke-linejoin="round"/>
        <path d="M-286.76 1115.57C-269.05 1101.63 -309.268 754.54 275.131 746.347C859.53 738.154 986.431 1078.96 1789.1 883.929" stroke="white" stroke-opacity="0.1" stroke-linecap="round" stroke-linejoin="round"/>
        <path d="M-299.358 1088.82C-281.648 1074.88 -321.866 727.793 262.533 719.6C846.933 711.406 973.833 1052.21 1776.5 857.182" stroke="white" stroke-opacity="0.1" stroke-linecap="round" stroke-linejoin="round"/>
        <path d="M-311.956 1062.07C-294.246 1048.13 -334.464 701.045 249.936 692.852C834.335 684.658 961.236 1025.47 1763.9 830.434" stroke="white" stroke-opacity="0.1" stroke-linecap="round" stroke-linejoin="round"/>
        <path d="M-324.553 1035.33C-306.843 1021.38 -347.061 674.297 237.338 666.104C821.737 657.911 948.638 998.718 1751.31 803.686" stroke="white" stroke-opacity="0.1" stroke-linecap="round" stroke-linejoin="round"/>
        <path d="M-337.151 1008.58C-319.441 994.635 -359.659 647.55 224.74 639.356C809.14 631.163 936.04 971.971 1738.71 776.939" stroke="white" stroke-opacity="0.1" stroke-linecap="round" stroke-linejoin="round"/>
    </g>
</svg>
