<svg width="29" height="25" viewBox="0 0 29 25" fill="none" xmlns="http://www.w3.org/2000/svg">
    <path d="M9.56477 24.3616C7.83074 24.3616 6.28251 23.9026 4.92006 22.9845C3.55761 22.0445 2.48417 20.6893 1.69973 18.9187C0.915291 17.1263 0.523071 15.006 0.523071 12.5578C0.523071 10.1095 0.915291 8.00016 1.69973 6.22958C2.48417 4.43714 3.55761 3.08189 4.92006 2.16381C6.28251 1.22387 7.83074 0.753906 9.56477 0.753906C11.2988 0.753906 12.847 1.22387 14.2095 2.16381C15.5926 3.08189 16.6763 4.43714 17.4608 6.22958C18.2452 8.00016 18.6374 10.1095 18.6374 12.5578C18.6374 15.006 18.2452 17.1263 17.4608 18.9187C16.6763 20.6893 15.5926 22.0445 14.2095 22.9845C12.847 23.9026 11.2988 24.3616 9.56477 24.3616ZM9.56477 20.6565C11.113 20.6565 12.331 19.9789 13.2186 18.6236C14.1269 17.2684 14.5811 15.2464 14.5811 12.5578C14.5811 9.8691 14.1269 7.84714 13.2186 6.49189C12.331 5.13663 11.113 4.459 9.56477 4.459C8.03718 4.459 6.81923 5.13663 5.91093 6.49189C5.02328 7.84714 4.57945 9.8691 4.57945 12.5578C4.57945 15.2464 5.02328 17.2684 5.91093 18.6236C6.81923 19.9789 8.03718 20.6565 9.56477 20.6565Z" fill="#1AA3E0"/>
    <path d="M28.7 1.08179V24.0337H24.6746V4.65573H20.0918V1.08179H28.7Z" fill="#1AA3E0"/>
</svg>
