<svg width="38" height="24" viewBox="0 0 38 24" fill="none" xmlns="http://www.w3.org/2000/svg">
    <path d="M9.60733 23.477C7.86515 23.477 6.30962 23.0328 4.94076 22.1443C3.5719 21.2347 2.4934 19.9232 1.70527 18.2097C0.917138 16.4751 0.523071 14.4232 0.523071 12.0539C0.523071 9.68471 0.917138 7.64336 1.70527 5.9299C2.4934 4.19528 3.5719 2.88374 4.94076 1.99528C6.30962 1.08567 7.86515 0.630859 9.60733 0.630859C11.3495 0.630859 12.905 1.08567 14.2739 1.99528C15.6635 2.88374 16.7524 4.19528 17.5405 5.9299C18.3286 7.64336 18.7227 9.68471 18.7227 12.0539C18.7227 14.4232 18.3286 16.4751 17.5405 18.2097C16.7524 19.9232 15.6635 21.2347 14.2739 22.1443C12.905 23.0328 11.3495 23.477 9.60733 23.477ZM9.60733 19.8914C11.1629 19.8914 12.3865 19.2357 13.2784 17.9241C14.1909 16.6126 14.6472 14.6559 14.6472 12.0539C14.6472 9.45201 14.1909 7.49528 13.2784 6.18374C12.3865 4.87221 11.1629 4.21644 9.60733 4.21644C8.07255 4.21644 6.84887 4.87221 5.9363 6.18374C5.04446 7.49528 4.59855 9.45201 4.59855 12.0539C4.59855 14.6559 5.04446 16.6126 5.9363 17.9241C6.84887 19.2357 8.07255 19.8914 9.60733 19.8914Z" fill="#1AA3E0"/>
    <path d="M37.0769 19.6693V23.1597H21.0239V20.3991L29.6726 12.0222C30.6474 11.0703 31.3007 10.2453 31.6326 9.54721C31.9852 8.82798 32.1615 8.11932 32.1615 7.42125C32.1615 6.38471 31.8192 5.59144 31.1348 5.04144C30.4504 4.49144 29.4445 4.21644 28.1171 4.21644C25.8979 4.21644 24.1972 4.98855 23.015 6.53278L20.1839 4.31163C21.0343 3.14817 22.175 2.24913 23.6061 1.61451C25.0579 0.958744 26.6756 0.630859 28.4593 0.630859C30.8237 0.630859 32.7111 1.20201 34.1214 2.34432C35.5318 3.48663 36.2369 5.04144 36.2369 7.00874C36.2369 8.21451 35.9881 9.34624 35.4903 10.4039C34.9925 11.4616 34.0385 12.6674 32.6281 14.0212L26.8105 19.6693H37.0769Z" fill="#1AA3E0"/>
</svg>
