<svg width="39" height="24" viewBox="0 0 39 24" fill="none" xmlns="http://www.w3.org/2000/svg">
    <path d="M10.131 23.8616C8.32965 23.8616 6.72135 23.4026 5.30604 22.4845C3.89074 21.5445 2.77565 20.1893 1.96077 18.4187C1.1459 16.6263 0.738464 14.506 0.738464 12.0578C0.738464 9.60955 1.1459 7.50016 1.96077 5.72958C2.77565 3.93714 3.89074 2.58189 5.30604 1.66381C6.72135 0.723874 8.32965 0.253906 10.131 0.253906C11.9323 0.253906 13.5406 0.723874 14.9559 1.66381C16.3926 2.58189 17.5184 3.93714 18.3333 5.72958C19.1482 7.50016 19.5556 9.60955 19.5556 12.0578C19.5556 14.506 19.1482 16.6263 18.3333 18.4187C17.5184 20.1893 16.3926 21.5445 14.9559 22.4845C13.5406 23.4026 11.9323 23.8616 10.131 23.8616ZM10.131 20.1565C11.7393 20.1565 13.0045 19.4789 13.9265 18.1236C14.8701 16.7684 15.3419 14.7464 15.3419 12.0578C15.3419 9.3691 14.8701 7.34714 13.9265 5.99189C13.0045 4.63663 11.7393 3.959 10.131 3.959C8.54409 3.959 7.2789 4.63663 6.33536 5.99189C5.41326 7.34714 4.95222 9.3691 4.95222 12.0578C4.95222 14.7464 5.41326 16.7684 6.33536 18.1236C7.2789 19.4789 8.54409 20.1565 10.131 20.1565Z" fill="#1AA3E0"/>
    <path d="M31.6528 10.0577C33.7329 10.32 35.3197 11.0413 36.4134 12.2217C37.507 13.4021 38.0539 14.8776 38.0539 16.6481C38.0539 17.9815 37.7215 19.1947 37.0567 20.2877C36.3919 21.3806 35.3841 22.255 34.0331 22.9107C32.7036 23.5446 31.0738 23.8616 29.1439 23.8616C27.5356 23.8616 25.9809 23.6321 24.4798 23.173C23.0001 22.6921 21.7349 22.0364 20.6842 21.2057L22.4855 17.8941C23.3004 18.5936 24.2868 19.151 25.4448 19.5663C26.6242 19.9598 27.8358 20.1565 29.0795 20.1565C30.5592 20.1565 31.7171 19.8505 32.5535 19.2384C33.4112 18.6045 33.8401 17.752 33.8401 16.6809C33.8401 15.6098 33.4327 14.7792 32.6178 14.189C31.8244 13.577 30.6021 13.2709 28.9509 13.2709H26.8922V10.3528L32.0066 4.15573H21.7778V0.581791H37.121V3.43439L31.6528 10.0577Z" fill="#1AA3E0"/>
</svg>
