<svg width="42" height="24" viewBox="0 0 42 24" fill="none" xmlns="http://www.w3.org/2000/svg">
    <path d="M9.4308 23.8616C7.62216 23.8616 6.0073 23.4026 4.58623 22.4845C3.16515 21.5445 2.04552 20.1893 1.22732 18.4187C0.409128 16.6263 3.05176e-05 14.506 3.05176e-05 12.0578C3.05176e-05 9.60955 0.409128 7.50016 1.22732 5.72958C2.04552 3.93714 3.16515 2.58189 4.58623 1.66381C6.0073 0.723874 7.62216 0.253906 9.4308 0.253906C11.2394 0.253906 12.8543 0.723874 14.2754 1.66381C15.718 2.58189 16.8484 3.93714 17.6666 5.72958C18.4848 7.50016 18.8939 9.60955 18.8939 12.0578C18.8939 14.506 18.4848 16.6263 17.6666 18.4187C16.8484 20.1893 15.718 21.5445 14.2754 22.4845C12.8543 23.4026 11.2394 23.8616 9.4308 23.8616ZM9.4308 20.1565C11.0457 20.1565 12.316 19.4789 13.2419 18.1236C14.1892 16.7684 14.6629 14.7464 14.6629 12.0578C14.6629 9.3691 14.1892 7.34714 13.2419 5.99189C12.316 4.63663 11.0457 3.959 9.4308 3.959C7.83747 3.959 6.56712 4.63663 5.61974 5.99189C4.69388 7.34714 4.23096 9.3691 4.23096 12.0578C4.23096 14.7464 4.69388 16.7684 5.61974 18.1236C6.56712 19.4789 7.83747 20.1565 9.4308 20.1565Z" fill="#1AA3E0"/>
    <path d="M41.8847 18.3203H37.8798V23.5337H33.8104V18.3203H21.4083V15.3694L32.5508 0.581791H37.0401L26.5435 14.7136H33.9395V10.0904H37.8798V14.7136H41.8847V18.3203Z" fill="#1AA3E0"/>
</svg>
