<svg width="37" height="24" viewBox="0 0 37 24" fill="none" xmlns="http://www.w3.org/2000/svg">
    <path d="M9.30833 23.1154C7.57629 23.1154 6.02983 22.6712 4.66894 21.7827C3.30805 20.8731 2.23583 19.5616 1.45229 17.8481C0.668749 16.1135 0.276978 14.0616 0.276978 11.6924C0.276978 9.32313 0.668749 7.28179 1.45229 5.56833C2.23583 3.83371 3.30805 2.52217 4.66894 1.63371C6.02983 0.724095 7.57629 0.269287 9.30833 0.269287C11.0404 0.269287 12.5868 0.724095 13.9477 1.63371C15.3292 2.52217 16.4118 3.83371 17.1953 5.56833C17.9788 7.28179 18.3706 9.32313 18.3706 11.6924C18.3706 14.0616 17.9788 16.1135 17.1953 17.8481C16.4118 19.5616 15.3292 20.8731 13.9477 21.7827C12.5868 22.6712 11.0404 23.1154 9.30833 23.1154ZM9.30833 19.5299C10.8548 19.5299 12.0714 18.8741 12.958 17.5626C13.8653 16.251 14.3189 14.2943 14.3189 11.6924C14.3189 9.09044 13.8653 7.13371 12.958 5.82217C12.0714 4.51063 10.8548 3.85487 9.30833 3.85487C7.78249 3.85487 6.56594 4.51063 5.65868 5.82217C4.77204 7.13371 4.32872 9.09044 4.32872 11.6924C4.32872 14.2943 4.77204 16.251 5.65868 17.5626C6.56594 18.8741 7.78249 19.5299 9.30833 19.5299Z" fill="#1AA3E0"/>
    <path d="M27.8613 9.18563C30.913 9.18563 33.1709 9.7991 34.6348 11.026C36.0988 12.2318 36.8308 13.8818 36.8308 15.976C36.8308 17.3087 36.5112 18.5145 35.872 19.5933C35.2328 20.6722 34.274 21.5289 32.9956 22.1635C31.7172 22.7981 30.1398 23.1154 28.2634 23.1154C26.7169 23.1154 25.222 22.8933 23.7787 22.4491C22.3353 21.9837 21.1187 21.3491 20.129 20.5452L21.8301 17.3404C22.6343 18.0174 23.5931 18.5568 24.7065 18.9587C25.8406 19.3395 27.0056 19.5299 28.2015 19.5299C29.6243 19.5299 30.7378 19.2337 31.5419 18.6414C32.3667 18.0279 32.7791 17.1924 32.7791 16.1347C32.7791 14.9924 32.3358 14.1356 31.4491 13.5645C30.5831 12.9722 29.0882 12.676 26.9644 12.676H21.7373L22.8508 0.586594H35.5627V4.04525H26.253L25.7891 9.18563H27.8613Z" fill="#1AA3E0"/>
</svg>
