<svg width="41" height="22" viewBox="0 0 41 22" fill="none" xmlns="http://www.w3.org/2000/svg">
    <path d="M10.1408 21.8077C8.34053 21.8077 6.7332 21.3931 5.31874 20.5639C3.90429 19.7149 2.78987 18.4908 1.97548 16.8915C1.1611 15.2726 0.753906 13.3574 0.753906 11.1462C0.753906 8.93488 1.1611 7.02962 1.97548 5.43039C2.78987 3.81141 3.90429 2.58731 5.31874 1.75808C6.7332 0.909106 8.34053 0.484619 10.1408 0.484619C11.941 0.484619 13.5483 0.909106 14.9628 1.75808C16.3986 2.58731 17.5238 3.81141 18.3382 5.43039C19.1526 7.02962 19.5597 8.93488 19.5597 11.1462C19.5597 13.3574 19.1526 15.2726 18.3382 16.8915C17.5238 18.4908 16.3986 19.7149 14.9628 20.5639C13.5483 21.3931 11.941 21.8077 10.1408 21.8077ZM10.1408 18.4612C11.7481 18.4612 13.0125 17.8491 13.9341 16.625C14.877 15.4009 15.3485 13.5746 15.3485 11.1462C15.3485 8.7177 14.877 6.89141 13.9341 5.66731C13.0125 4.44321 11.7481 3.83116 10.1408 3.83116C8.55485 3.83116 7.29041 4.44321 6.34744 5.66731C5.4259 6.89141 4.96513 8.7177 4.96513 11.1462C4.96513 13.5746 5.4259 15.4009 6.34744 16.625C7.29041 17.8491 8.55485 18.4612 10.1408 18.4612Z" fill="#1AA3E0"/>
    <path d="M32.6065 8.7177C34.0853 8.7177 35.414 8.98423 36.5927 9.51731C37.7715 10.0306 38.693 10.771 39.3574 11.7385C40.0217 12.7059 40.3539 13.8214 40.3539 15.085C40.3539 16.4276 39.9896 17.6122 39.2609 18.6388C38.5323 19.6458 37.5464 20.4256 36.3034 20.9785C35.0604 21.5313 33.6674 21.8077 32.1243 21.8077C29.0383 21.8077 26.638 20.9192 24.9235 19.1423C23.2304 17.3654 22.3839 14.8185 22.3839 11.5015C22.3839 9.1718 22.8447 7.18757 23.7662 5.54885C24.6877 3.89039 25.9736 2.63667 27.6238 1.7877C29.2954 0.918978 31.2242 0.484619 33.4102 0.484619C34.5675 0.484619 35.6498 0.603081 36.657 0.840005C37.6857 1.05718 38.5751 1.38295 39.3252 1.81731L37.7822 4.71962C36.6677 4.04834 35.2426 3.7127 33.5067 3.7127C31.3421 3.7127 29.649 4.32475 28.4275 5.54885C27.2059 6.77295 26.5951 8.54 26.5951 10.85V10.8796C27.2595 10.1689 28.106 9.63577 29.1347 9.28039C30.1634 8.90526 31.3207 8.7177 32.6065 8.7177ZM31.8993 18.7869C33.2066 18.7869 34.2675 18.471 35.0818 17.8392C35.8962 17.1877 36.3034 16.3288 36.3034 15.2627C36.3034 14.1768 35.8962 13.318 35.0818 12.6862C34.2675 12.0544 33.1745 11.7385 31.8029 11.7385C30.4527 11.7385 29.349 12.0741 28.4918 12.7454C27.656 13.4167 27.238 14.2656 27.238 15.2923C27.238 16.2992 27.6452 17.1383 28.4596 17.8096C29.2954 18.4612 30.442 18.7869 31.8993 18.7869Z" fill="#1AA3E0"/>
</svg>
