<svg width="39" height="24" viewBox="0 0 39 24" fill="none" xmlns="http://www.w3.org/2000/svg">
    <path d="M10.0505 23.6001C8.26761 23.6001 6.67572 23.1558 5.27486 22.2674C3.874 21.3578 2.7703 20.0462 1.96374 18.3328C1.15718 16.5981 0.753906 14.5462 0.753906 12.177C0.753906 9.80775 1.15718 7.76641 1.96374 6.05294C2.7703 4.31833 3.874 3.00679 5.27486 2.11833C6.67572 1.20871 8.26761 0.753906 10.0505 0.753906C11.8334 0.753906 13.4253 1.20871 14.8262 2.11833C16.2483 3.00679 17.3626 4.31833 18.1691 6.05294C18.9757 7.76641 19.379 9.80775 19.379 12.177C19.379 14.5462 18.9757 16.5981 18.1691 18.3328C17.3626 20.0462 16.2483 21.3578 14.8262 22.2674C13.4253 23.1558 11.8334 23.6001 10.0505 23.6001ZM10.0505 20.0145C11.6424 20.0145 12.8947 19.3587 13.8074 18.0472C14.7413 16.7356 15.2082 14.7789 15.2082 12.177C15.2082 9.57506 14.7413 7.61833 13.8074 6.30679C12.8947 4.99525 11.6424 4.33948 10.0505 4.33948C8.47986 4.33948 7.22758 4.99525 6.29367 6.30679C5.38099 7.61833 4.92465 9.57506 4.92465 12.177C4.92465 14.7789 5.38099 16.7356 6.29367 18.0472C7.22758 19.3587 8.47986 20.0145 10.0505 20.0145Z" fill="#1AA3E0"/>
    <path d="M38.8308 1.07121V3.83179L30.171 23.2828H25.7455L34.1188 4.5616H25.3635V8.33756H21.5111V1.07121H38.8308Z" fill="#1AA3E0"/>
</svg>
