<svg width="40" height="24" viewBox="0 0 40 24" fill="none" xmlns="http://www.w3.org/2000/svg">
    <path d="M9.80752 23.3847C8.05473 23.3847 6.48974 22.9405 5.11255 22.052C3.73535 21.1424 2.65029 19.8309 1.85736 18.1174C1.06443 16.3828 0.667969 14.3309 0.667969 11.9617C0.667969 9.59242 1.06443 7.55107 1.85736 5.83761C2.65029 4.103 3.73535 2.79146 5.11255 1.903C6.48974 0.993382 8.05473 0.538574 9.80752 0.538574C11.5603 0.538574 13.1253 0.993382 14.5025 1.903C15.9006 2.79146 16.9961 4.103 17.789 5.83761C18.5819 7.55107 18.9784 9.59242 18.9784 11.9617C18.9784 14.3309 18.5819 16.3828 17.789 18.1174C16.9961 19.8309 15.9006 21.1424 14.5025 22.052C13.1253 22.9405 11.5603 23.3847 9.80752 23.3847ZM9.80752 19.7992C11.3725 19.7992 12.6036 19.1434 13.5009 17.8318C14.419 16.5203 14.8781 14.5636 14.8781 11.9617C14.8781 9.35973 14.419 7.403 13.5009 6.09146C12.6036 4.77992 11.3725 4.12415 9.80752 4.12415C8.2634 4.12415 7.03227 4.77992 6.11414 6.09146C5.21688 7.403 4.76825 9.35973 4.76825 11.9617C4.76825 14.5636 5.21688 16.5203 6.11414 17.8318C7.03227 19.1434 8.2634 19.7992 9.80752 19.7992Z" fill="#1AA3E0"/>
    <path d="M35.9383 11.3905C37.0859 11.9193 37.9623 12.6386 38.5674 13.5482C39.1934 14.4367 39.5064 15.4838 39.5064 16.6895C39.5064 18.0434 39.1308 19.228 38.3796 20.2434C37.6493 21.2588 36.606 22.0415 35.2497 22.5915C33.8933 23.1203 32.3179 23.3847 30.5234 23.3847C28.7289 23.3847 27.1534 23.1203 25.7971 22.5915C24.4616 22.0415 23.4287 21.2588 22.6984 20.2434C21.9681 19.228 21.6029 18.0434 21.6029 16.6895C21.6029 15.4838 21.9055 14.4367 22.5106 13.5482C23.1157 12.6386 23.9817 11.9193 25.1085 11.3905C24.2321 10.904 23.5539 10.2693 23.074 9.48665C22.6149 8.68281 22.3854 7.76261 22.3854 6.72607C22.3854 5.478 22.7193 4.38858 23.387 3.45781C24.0756 2.52704 25.0355 1.8078 26.2666 1.30011C27.4977 0.79242 28.9167 0.538574 30.5234 0.538574C32.151 0.538574 33.5803 0.79242 34.8115 1.30011C36.0426 1.8078 37.0024 2.52704 37.691 3.45781C38.3796 4.38858 38.7239 5.478 38.7239 6.72607C38.7239 7.76261 38.484 8.67223 38.004 9.45492C37.5241 10.2376 36.8355 10.8828 35.9383 11.3905ZM30.5234 3.77511C29.2505 3.77511 28.2385 4.05011 27.4873 4.60011C26.757 5.15011 26.3918 5.92223 26.3918 6.91646C26.3918 7.86838 26.757 8.62992 27.4873 9.20108C28.2385 9.75108 29.2505 10.0261 30.5234 10.0261C31.8171 10.0261 32.8396 9.75108 33.5908 9.20108C34.342 8.62992 34.7176 7.86838 34.7176 6.91646C34.7176 5.92223 34.3315 5.15011 33.5595 4.60011C32.8083 4.05011 31.7962 3.77511 30.5234 3.77511ZM30.5234 20.1482C32.0258 20.1482 33.2152 19.8309 34.0916 19.1963C34.968 18.5617 35.4062 17.6838 35.4062 16.5626C35.4062 15.4626 34.968 14.5953 34.0916 13.9607C33.2152 13.3261 32.0258 13.0088 30.5234 13.0088C29.021 13.0088 27.842 13.3261 26.9865 13.9607C26.131 14.5953 25.7032 15.4626 25.7032 16.5626C25.7032 17.6838 26.131 18.5617 26.9865 19.1963C27.842 19.8309 29.021 20.1482 30.5234 20.1482Z" fill="#1AA3E0"/>
</svg>
