<svg width="139" height="56" viewBox="0 0 139 56" fill="none" xmlns="http://www.w3.org/2000/svg">
    <path d="M0.341797 21.485V0.000610352H7.8704C10.7384 0.000610352 12.5822 0.0956764 13.4528 0.333336C14.7844 0.666059 15.9111 1.37904 16.7818 2.42474C17.6525 3.51797 18.1134 4.8964 18.1134 6.60755C18.1134 7.93844 17.8573 9.03168 17.3452 9.93478C16.833 10.8379 16.1672 11.5509 15.399 12.0737C14.5796 12.5966 13.8113 12.9293 12.9919 13.0719C11.8652 13.262 10.2775 13.3571 8.12647 13.3571H5.05357V21.485H0.341797ZM5.05357 3.61304V9.69712H7.61432C9.45806 9.69712 10.6872 9.60206 11.3018 9.3644C11.9164 9.12674 12.4285 8.79402 12.787 8.3187C13.1455 7.84338 13.2992 7.273 13.2992 6.65508C13.2992 5.89457 13.0431 5.22912 12.531 4.70627C12.0188 4.18342 11.4042 3.89823 10.636 3.75563C10.0726 3.66057 8.94591 3.61304 7.25582 3.61304H5.05357Z" fill="black"/>
    <path d="M40.4421 21.4847H35.3718L33.3232 16.5889H24.0532L22.1583 21.4847H17.1904L26.2043 0.000305176H31.1721L40.4421 21.4847ZM31.8379 12.9765L28.6626 4.99116L25.5385 12.9765H31.8379Z" fill="black"/>
    <path d="M46.0762 21.4848V12.4537L37.5745 0.000305176H43.0545L48.4833 8.50853L53.8097 0.000305176H59.1872L50.6856 12.5012V21.5323H46.0762V21.4848Z" fill="black"/>
    <path d="M61.5422 21.4847V0.000305176H78.6993V3.66027H66.2028V8.41346H77.8286V12.0259H66.2028V17.8723H79.1602V21.4847H61.5422Z" fill="#64B3DF"/>
    <path d="M83.1027 21.4844V0H100.26V3.65996H87.7632V8.41315H99.389V12.0256H87.7632V17.872H100.721V21.4844H83.1027Z" fill="#64B3DF"/>
    <path d="M104.714 21.4844V0H114.547C117.005 0 118.798 0.19013 119.925 0.570385C121.051 0.950641 121.922 1.66362 122.639 2.61426C123.305 3.61243 123.663 4.75319 123.663 5.98902C123.663 7.60511 123.151 8.93601 122.127 9.98171C121.103 11.0274 119.566 11.6929 117.569 11.978C118.593 12.5484 119.413 13.1188 120.078 13.7843C120.744 14.4497 121.615 15.5905 122.742 17.2541L125.558 21.4369H119.976L116.596 16.7788C115.418 15.1152 114.598 14.0695 114.137 13.6417C113.677 13.2139 113.216 12.9287 112.755 12.7386C112.294 12.5484 111.474 12.5009 110.399 12.5009H109.374V21.4844H104.714ZM109.374 9.0786H112.857C115.111 9.0786 116.493 8.98354 117.057 8.79341C117.62 8.60328 118.03 8.31809 118.388 7.8903C118.696 7.46251 118.849 6.93966 118.849 6.27422C118.849 5.56124 118.644 4.94332 118.235 4.51554C117.825 4.08775 117.21 3.80256 116.493 3.65996C116.135 3.61243 114.957 3.5649 113.062 3.5649H109.374V9.0786Z" fill="#64B3DF"/>
    <path d="M138.779 15.45C138.779 17.1136 138.165 18.5396 136.884 19.6803C135.604 20.8686 134.119 21.439 132.326 21.439C130.534 21.439 129.048 20.8686 127.768 19.6803C126.539 18.492 125.873 17.1136 125.873 15.45C125.873 13.7864 126.488 12.4079 127.768 11.2196C128.997 10.0789 130.534 9.46094 132.326 9.46094C134.119 9.46094 135.655 10.0313 136.884 11.2196C138.165 12.4079 138.779 13.8339 138.779 15.45ZM132.326 10.3165C130.79 10.3165 129.509 10.8394 128.434 11.8375C127.358 12.8357 126.795 14.0715 126.795 15.4975C126.795 16.9235 127.307 18.1593 128.383 19.1575C129.458 20.1556 130.79 20.6785 132.326 20.6785C133.863 20.6785 135.194 20.1556 136.27 19.1575C137.345 18.1593 137.909 16.9235 137.909 15.4975C137.909 14.0715 137.396 12.8832 136.27 11.8375C135.143 10.8394 133.863 10.3165 132.326 10.3165ZM132.224 12.1703C133.094 12.1703 133.76 12.2653 134.17 12.4079C134.887 12.6931 135.245 13.2635 135.245 14.0715C135.245 14.6419 134.989 15.0697 134.58 15.3549C134.324 15.4975 134.016 15.5926 133.555 15.6876C134.119 15.7827 134.528 15.9728 134.785 16.3531C135.041 16.6858 135.194 17.0185 135.194 17.3513V17.8266C135.194 17.9692 135.194 18.1593 135.194 18.3019C135.194 18.492 135.245 18.5871 135.245 18.6346L135.297 18.7297H134.119V18.6821C134.119 18.6821 134.119 18.6346 134.119 18.5871L134.067 18.397V17.8741C134.067 17.1136 133.863 16.6383 133.402 16.3531C133.146 16.2105 132.685 16.163 132.019 16.163H131.046V18.7297H129.817V12.1703H132.224ZM134.016 14.1666C134.016 13.6913 133.863 13.3586 133.555 13.216C133.248 13.0734 132.736 12.9783 132.07 12.9783H130.995V15.3549H132.121C132.633 15.3549 133.043 15.3074 133.299 15.2123C133.76 15.0222 134.016 14.6895 134.016 14.1666Z" fill="black"/>
    <path d="M23.4431 46.3102C21.8537 52.6852 15.3965 56.5646 9.0207 54.9752C2.64788 53.3858 -1.23189 46.9286 0.357871 40.5539C1.94652 34.1781 8.40339 30.298 14.7773 31.8874C21.1527 33.4767 25.0321 39.9347 23.4428 46.3102H23.4431Z" fill="#F7931A" fill-opacity="0.2"/>
    <path fill-rule="evenodd" clip-rule="evenodd" d="M15.484 42.0488C15.6445 40.9746 14.8266 40.3971 13.7083 40.0119L14.071 38.5568L13.185 38.336L12.8319 39.7528C12.5993 39.6948 12.3601 39.64 12.1225 39.5858L12.4782 38.1597L11.5929 37.9389L11.2299 39.3936C11.0372 39.3497 10.848 39.3063 10.6643 39.2606L10.6653 39.2561L9.44382 38.9511L9.20819 39.8971C9.20819 39.8971 9.86537 40.0477 9.85149 40.057C10.2102 40.1466 10.2753 40.384 10.2642 40.5722L9.85099 42.2299C9.87571 42.2362 9.90775 42.2453 9.94307 42.2594L9.84973 42.2362L9.27025 44.5584C9.22636 44.6674 9.1151 44.8308 8.86434 44.7688C8.87317 44.7816 8.22054 44.6081 8.22054 44.6081L7.78082 45.6222L8.93372 45.9096C9.06386 45.9422 9.19243 45.9757 9.31959 46.0089L9.31961 46.0089L9.32013 46.009C9.4023 46.0305 9.48388 46.0518 9.56491 46.0725L9.19835 47.5446L10.0831 47.7653L10.4464 46.3092C10.6878 46.3748 10.9224 46.4353 11.152 46.4923L10.7902 47.9416L11.6759 48.1624L12.0425 46.6934C13.5529 46.9792 14.6889 46.8639 15.1664 45.4981C15.5516 44.3982 15.1475 43.7637 14.3528 43.3497C14.9315 43.2158 15.3675 42.8351 15.4838 42.0488H15.484ZM13.4595 44.8861C13.208 45.8957 11.6275 45.478 10.905 45.287L10.905 45.287C10.8403 45.2699 10.7825 45.2546 10.7331 45.2424L11.2195 43.2925C11.2799 43.3076 11.3536 43.3241 11.4371 43.3429L11.4371 43.3429C12.1846 43.5106 13.7164 43.8543 13.4597 44.8861H13.4595ZM11.5879 42.4389C12.1907 42.5997 13.5048 42.9503 13.7337 42.0332C13.9678 41.095 12.69 40.8123 12.0659 40.6742C11.9957 40.6586 11.9339 40.645 11.8833 40.6324L11.4423 42.4008C11.4841 42.4112 11.533 42.4243 11.5879 42.4389Z" fill="#F7931A"/>
    <path d="M55.468 43.4318C55.468 49.9694 50.1683 55.2691 43.6308 55.2691C37.0932 55.2691 31.7935 49.9694 31.7935 43.4318C31.7935 36.8942 37.0932 31.5945 43.6308 31.5945C50.1683 31.5945 55.468 36.8942 55.468 43.4318Z" fill="#345D9D" fill-opacity="0.2"/>
    <path d="M43.5928 37.9389L43.5197 38.1875V45.3987L43.5928 45.4717L46.9402 43.493L43.5928 37.9389Z" fill="#345D9D"/>
    <path d="M43.5924 37.9389L40.245 43.493L43.5924 45.4717V41.9716V37.9389Z" fill="#345D9D"/>
    <path d="M43.5926 46.5611L43.5514 46.6113V49.1801L43.5926 49.3004L46.942 44.5835L43.5926 46.5611Z" fill="#345D9D"/>
    <path d="M43.5924 49.3005V46.5611L40.245 44.5835L43.5924 49.3005Z" fill="#345D9D"/>
    <path d="M43.5926 45.4711L46.9399 43.4925L43.5926 41.9711V45.4711Z" fill="#345D9D"/>
    <path d="M40.245 43.4925L43.5923 45.4711V41.971L40.245 43.4925Z" fill="#345D9D"/>
    <path d="M118.935 43.4318C118.935 49.9694 113.635 55.2691 107.098 55.2691C100.56 55.2691 95.2603 49.9694 95.2603 43.4318C95.2603 36.8942 100.56 31.5945 107.098 31.5945C113.635 31.5945 118.935 36.8942 118.935 43.4318Z" fill="#202020" fill-opacity="0.2"/>
    <path d="M106.684 45.423L107.215 43.4234L108.472 42.9641L108.785 41.7889L108.774 41.7598L107.536 42.2119L108.428 38.8543H105.899L104.733 43.236L103.759 43.5917L103.438 44.8032L104.411 44.4478L103.723 47.0302H110.454L110.885 45.423H106.684Z" fill="#202020"/>
    <path d="M87.2024 43.4318C87.2024 49.9694 81.9027 55.2691 75.3652 55.2691C68.8276 55.2691 63.5279 49.9694 63.5279 43.4318C63.5279 36.8942 68.8276 31.5945 75.3652 31.5945C81.9026 31.5945 87.2024 36.8942 87.2024 43.4318Z" fill="#00A478" fill-opacity="0.2"/>
    <path d="M74.1514 43.2237V41.1528H71.3426V39.3376H79.1914V41.1784H76.3826V43.2237H74.1514Z" fill="#00A478"/>
    <path fill-rule="evenodd" clip-rule="evenodd" d="M70.1346 43.4533C70.1346 42.763 72.3921 42.2005 75.2008 42.2005C78.0096 42.2005 80.2671 42.763 80.2671 43.4533C80.2671 44.1435 78.0096 44.706 75.2008 44.706C72.3921 44.706 70.1346 44.1435 70.1346 43.4533ZM79.847 43.4538C79.6633 43.1981 78.1408 42.4056 75.2008 42.4056C72.2608 42.4056 70.7383 43.1726 70.5545 43.4538C70.7383 43.7095 72.2608 44.093 75.2008 44.093C78.167 44.093 79.6633 43.7095 79.847 43.4538Z" fill="#00A478"/>
    <path d="M76.3822 43.8625V42.4307C76.0147 42.4052 75.621 42.3796 75.2272 42.3796C74.8597 42.3796 74.5185 42.3796 74.1772 42.4052V43.8369C74.4922 43.8369 74.8597 43.8625 75.2272 43.8625C75.621 43.888 76.0147 43.888 76.3822 43.8625Z" fill="#00A478"/>
    <path d="M75.2014 44.7058C74.8339 44.7058 74.4926 44.7058 74.1514 44.6802V48.4896H76.3564V44.6546C75.9889 44.6802 75.5951 44.7058 75.2014 44.7058Z" fill="#00A478"/>
</svg>
