<svg width="149" height="200" viewBox="0 0 149 200" fill="none" xmlns="http://www.w3.org/2000/svg">
    <circle r="43.5897" transform="matrix(-1 0 0 1 79.4872 143.59)" fill="#FF0000"/>
    <g filter="url(#filter0_bi)">
        <path fill-rule="evenodd" clip-rule="evenodd" d="M116.667 91.6667C98.2833 91.6667 83.3333 76.7167 83.3333 58.3333C83.3333 39.95 98.2833 25 116.667 25C135.05 25 150 39.95 150 58.3333C150 76.7167 135.05 91.6667 116.667 91.6667ZM63.7967 35.3793C60.3217 32.3626 55.0633 32.721 52.0383 36.196L36.4884 54.0709L31.205 48.1626C28.1467 44.7293 22.88 44.4376 19.4384 47.5126C16.0134 50.5793 15.7134 55.8543 18.7884 59.2793L30.3634 72.2209C31.9467 73.9876 34.205 74.9959 36.5717 74.9959H36.63C39.0217 74.9793 41.2967 73.9376 42.8633 72.1376L64.6217 47.1376C67.6383 43.6626 67.2717 38.396 63.7967 35.3793ZM58.3333 166.667C58.3333 171.267 62.0583 175 66.6667 175H166.667C171.275 175 175 171.267 175 166.667C175 134.5 148.825 108.333 116.667 108.333C84.5083 108.333 58.3333 134.5 58.3333 166.667Z" fill="white" fill-opacity="0.1"/>
    </g>
    <defs>
        <filter id="filter0_bi" x="-107.281" y="-107.281" width="414.562" height="414.562" filterUnits="userSpaceOnUse" color-interpolation-filters="sRGB">
            <feFlood flood-opacity="0" result="BackgroundImageFix"/>
            <feGaussianBlur in="BackgroundImage" stdDeviation="53.6406"/>
            <feComposite in2="SourceAlpha" operator="in" result="effect1_backgroundBlur"/>
            <feBlend mode="normal" in="SourceGraphic" in2="effect1_backgroundBlur" result="shape"/>
            <feColorMatrix in="SourceAlpha" type="matrix" values="0 0 0 0 0 0 0 0 0 0 0 0 0 0 0 0 0 0 127 0" result="hardAlpha"/>
            <feOffset dy="2.43821"/>
            <feGaussianBlur stdDeviation="1.2191"/>
            <feComposite in2="hardAlpha" operator="arithmetic" k2="-1" k3="1"/>
            <feColorMatrix type="matrix" values="0 0 0 0 1 0 0 0 0 1 0 0 0 0 1 0 0 0 0.3 0"/>
            <feBlend mode="normal" in2="shape" result="effect2_innerShadow"/>
        </filter>
    </defs>
</svg>
