<svg width="133" height="200" viewBox="0 0 133 200" fill="none" xmlns="http://www.w3.org/2000/svg">
    <circle cx="145.946" cy="145.946" r="45.9459" fill="#FCEA0A"/>
    <g filter="url(#filter0_bi)">
        <path fill-rule="evenodd" clip-rule="evenodd" d="M83.3327 45.8332C83.3327 43.5332 85.1993 41.6666 87.4993 41.6666H112.499C114.799 41.6666 116.666 43.5332 116.666 45.8332V58.3332H83.3327V45.8332ZM58.3327 175H141.666V58.3333H133.333V45.8333C133.333 34.35 123.983 25 112.499 25H87.4994C76.0161 25 66.6661 34.35 66.6661 45.8333V58.3333H58.3327V175ZM158.333 58.3334V175C172.116 175 183.333 163.783 183.333 150V83.3335C183.333 69.5501 172.116 58.3334 158.333 58.3334ZM16.6665 83.3335C16.6665 69.5501 27.8832 58.3334 41.6665 58.3334V175C27.8832 175 16.6665 163.783 16.6665 150V83.3335Z" fill="white" fill-opacity="0.1"/>
    </g>
    <defs>
        <filter id="filter0_bi" x="-113.08" y="-113.08" width="426.16" height="426.16" filterUnits="userSpaceOnUse" color-interpolation-filters="sRGB">
            <feFlood flood-opacity="0" result="BackgroundImageFix"/>
            <feGaussianBlur in="BackgroundImage" stdDeviation="56.5401"/>
            <feComposite in2="SourceAlpha" operator="in" result="effect1_backgroundBlur"/>
            <feBlend mode="normal" in="SourceGraphic" in2="effect1_backgroundBlur" result="shape"/>
            <feColorMatrix in="SourceAlpha" type="matrix" values="0 0 0 0 0 0 0 0 0 0 0 0 0 0 0 0 0 0 127 0" result="hardAlpha"/>
            <feOffset dy="2.57"/>
            <feGaussianBlur stdDeviation="1.285"/>
            <feComposite in2="hardAlpha" operator="arithmetic" k2="-1" k3="1"/>
            <feColorMatrix type="matrix" values="0 0 0 0 1 0 0 0 0 1 0 0 0 0 1 0 0 0 0.3 0"/>
            <feBlend mode="normal" in2="shape" result="effect2_innerShadow"/>
        </filter>
    </defs>
</svg>
