<svg width="249" height="471" viewBox="0 0 249 471" fill="none" xmlns="http://www.w3.org/2000/svg">
    <path d="M95.5 4.5V3H55.5L57 7H95.5V5.75V4.5Z" fill="black"/>
    <path d="M1 8V1H41L43.5 4.5V3H55.5M57 7L54.5 10H12.5V5H4V3H2.5M57 7L55.5 3M57 7H95.5V5.75M55.5 3H95.5V4.5V5.75M95.5 5.75H231" stroke="black" stroke-linecap="round" stroke-linejoin="round"/>
    <path d="M154.5 466.5V468H194.5L193 464H154.5V465.25V466.5Z" fill="black"/>
    <path d="M249 463V470H209L206.5 466.5V468H194.5M193 464L195.5 461H237.5V466H246V468H247.5M193 464L194.5 468M193 464H154.5V465.25M194.5 468H154.5V466.5V465.25M154.5 465.25H19" stroke="black" stroke-linecap="round" stroke-linejoin="round"/>
    <rect x="14.5" y="15" width="10" height="1" fill="black"/>
    <rect x="235.5" y="456" width="10" height="1" transform="rotate(-180 235.5 456)" fill="black"/>
    <rect width="7" height="1" transform="matrix(-4.37114e-08 1 1 4.37114e-08 10.5 20)" fill="black"/>
    <rect width="7" height="1" transform="matrix(4.37114e-08 -1 -1 -4.37114e-08 239.5 451)" fill="black"/>
    <rect width="21" height="1" transform="matrix(-4.37114e-08 1 1 4.37114e-08 8.5 33)" fill="black"/>
    <rect width="21" height="1" transform="matrix(4.37114e-08 -1 -1 -4.37114e-08 241.5 438)" fill="black"/>
    <rect width="7" height="1" transform="matrix(-4.37114e-08 1 1 4.37114e-08 10.5 43)" fill="black"/>
    <rect width="7" height="1" transform="matrix(4.37114e-08 -1 -1 -4.37114e-08 239.5 428)" fill="black"/>
    <rect width="2" height="1" transform="matrix(-4.37114e-08 1 1 4.37114e-08 10.5 52)" fill="black"/>
    <rect width="2" height="1" transform="matrix(4.37114e-08 -1 -1 -4.37114e-08 239.5 419)" fill="black"/>
    <rect width="3" height="1" transform="matrix(-4.37114e-08 1 1 4.37114e-08 10.5 61)" fill="black"/>
    <rect width="3" height="1" transform="matrix(4.37114e-08 -1 -1 -4.37114e-08 239.5 410)" fill="black"/>
    <rect width="2" height="1" transform="matrix(-4.37114e-08 1 1 4.37114e-08 8.5 56)" fill="black"/>
    <rect width="2" height="1" transform="matrix(4.37114e-08 -1 -1 -4.37114e-08 241.5 415)" fill="black"/>
    <circle cx="11" cy="39.5" r="0.5" fill="black"/>
    <circle cx="239" cy="431.5" r="0.5" transform="rotate(-180 239 431.5)" fill="black"/>
    <circle cx="11" cy="16.5" r="0.5" fill="black"/>
    <circle cx="239" cy="454.5" r="0.5" transform="rotate(-180 239 454.5)" fill="black"/>
    <rect x="7.5" y="29" width="4" height="2" fill="black"/>
    <rect x="242.5" y="442" width="4" height="2" transform="rotate(-180 242.5 442)" fill="black"/>
    <path d="M9.5 69V465.5" stroke="black" stroke-linecap="round" stroke-linejoin="round"/>
    <path d="M240 399.5V6" stroke="black" stroke-linecap="round" stroke-linejoin="round"/>
    <circle cx="9.5" cy="462.5" r="1.5" fill="black"/>
    <circle cx="240" cy="21" r="2" fill="black"/>
    <circle cx="9.5" cy="458.5" r="1.5" fill="black"/>
    <circle cx="240" cy="16" r="2" fill="black"/>
    <circle cx="9.5" cy="454.5" r="1.5" fill="black"/>
    <circle cx="240" cy="10" r="2" fill="black"/>
    <path d="M12 438.571L9 434V450H12V438.571Z" fill="black"/>
    <path d="M8 441L9 440H10V448H8V441Z" fill="black"/>
    <path d="M243 40.4286L240 45V29H243V40.4286Z" fill="black"/>
    <path d="M239 38L240 39H241V31H239V38Z" fill="black"/>
</svg>
