<svg width="218" height="447" viewBox="0 0 218 447" fill="none" xmlns="http://www.w3.org/2000/svg">
    <path d="M67.2187 4.78174H216" stroke="#00FCFC" stroke-width="0.5625" stroke-linecap="round" stroke-linejoin="round"/>
    <rect x="58.7812" y="0.28125" width="8.4375" height="8.4375" stroke="#00FCFC" stroke-width="0.5625"/>
    <rect x="47.5311" y="0.28125" width="8.4375" height="8.4375" stroke="#00FCFC" stroke-opacity="0.5" stroke-width="0.5625"/>
    <rect x="21.6563" y="0.28125" width="8.4375" height="8.4375" stroke="#00FCFC" stroke-opacity="0.5" stroke-width="0.5625"/>
    <rect x="0.28125" y="0.28125" width="8.4375" height="8.4375" stroke="#00FCFC" stroke-opacity="0.5" stroke-width="0.5625"/>
    <rect x="0.28125" y="22.7808" width="8.4375" height="8.4375" stroke="#00FCFC" stroke-opacity="0.5" stroke-width="0.5625"/>
    <rect x="0.28125" y="48.6562" width="8.4375" height="8.4375" stroke="#00FCFC" stroke-opacity="0.5" stroke-width="0.5625"/>
    <rect x="0.28125" y="59.906" width="8.4375" height="8.4375" stroke="#00FCFC" stroke-width="0.5625"/>
    <path d="M4.21869 68.6255V216.282" stroke="#00FCFC" stroke-width="0.5625" stroke-linecap="round" stroke-linejoin="round"/>
    <circle cx="187.031" cy="4.78149" r="0.84375" fill="#00FCFC"/>
    <circle cx="190.406" cy="4.78125" r="0.84375" fill="#00FCFC"/>
    <circle cx="193.219" cy="4.78125" r="0.84375" fill="#00FCFC"/>
    <circle cx="208.969" cy="4.78149" r="0.84375" fill="#00FCFC"/>
    <circle cx="212.344" cy="4.78125" r="0.84375" fill="#00FCFC"/>
    <circle cx="215.156" cy="4.78125" r="0.84375" fill="#00FCFC"/>
    <circle cx="4.21887" cy="188.156" r="0.84375" transform="rotate(90 4.21887 188.156)" fill="#00FCFC"/>
    <circle cx="4.21887" cy="191.531" r="0.84375" transform="rotate(90 4.21887 191.531)" fill="#00FCFC"/>
    <circle cx="4.21887" cy="194.344" r="0.84375" transform="rotate(90 4.21887 194.344)" fill="#00FCFC"/>
    <circle cx="4.21887" cy="210.094" r="0.84375" transform="rotate(90 4.21887 210.094)" fill="#00FCFC"/>
    <circle cx="4.21887" cy="213.469" r="0.84375" transform="rotate(90 4.21887 213.469)" fill="#00FCFC"/>
    <circle cx="4.21887" cy="216.281" r="0.84375" transform="rotate(90 4.21887 216.281)" fill="#00FCFC"/>
    <path d="M150.781 442.343H2.00008" stroke="#00FCFC" stroke-width="0.5625" stroke-linecap="round" stroke-linejoin="round"/>
    <rect x="159.219" y="446.844" width="8.4375" height="8.4375" transform="rotate(-180 159.219 446.844)" stroke="#00FCFC" stroke-width="0.5625"/>
    <rect x="170.469" y="446.844" width="8.4375" height="8.4375" transform="rotate(-180 170.469 446.844)" stroke="#00FCFC" stroke-opacity="0.5" stroke-width="0.5625"/>
    <rect x="196.344" y="446.844" width="8.4375" height="8.4375" transform="rotate(-180 196.344 446.844)" stroke="#00FCFC" stroke-opacity="0.5" stroke-width="0.5625"/>
    <rect x="217.719" y="446.844" width="8.4375" height="8.4375" transform="rotate(-180 217.719 446.844)" stroke="#00FCFC" stroke-opacity="0.5" stroke-width="0.5625"/>
    <rect x="217.719" y="424.344" width="8.4375" height="8.4375" transform="rotate(-180 217.719 424.344)" stroke="#00FCFC" stroke-opacity="0.5" stroke-width="0.5625"/>
    <rect x="217.719" y="398.469" width="8.4375" height="8.4375" transform="rotate(-180 217.719 398.469)" stroke="#00FCFC" stroke-opacity="0.5" stroke-width="0.5625"/>
    <rect x="217.719" y="387.219" width="8.4375" height="8.4375" transform="rotate(-180 217.719 387.219)" stroke="#00FCFC" stroke-width="0.5625"/>
    <path d="M213.781 378.5V230.843" stroke="#00FCFC" stroke-width="0.5625" stroke-linecap="round" stroke-linejoin="round"/>
    <circle cx="30.9687" cy="442.344" r="0.84375" transform="rotate(-180 30.9687 442.344)" fill="#00FCFC"/>
    <circle cx="27.5937" cy="442.344" r="0.84375" transform="rotate(-180 27.5937 442.344)" fill="#00FCFC"/>
    <circle cx="24.7812" cy="442.344" r="0.84375" transform="rotate(-180 24.7812 442.344)" fill="#00FCFC"/>
    <circle cx="9.03113" cy="442.344" r="0.84375" transform="rotate(-180 9.03113 442.344)" fill="#00FCFC"/>
    <circle cx="5.65616" cy="442.344" r="0.84375" transform="rotate(-180 5.65616 442.344)" fill="#00FCFC"/>
    <circle cx="2.84369" cy="442.344" r="0.84375" transform="rotate(-180 2.84369 442.344)" fill="#00FCFC"/>
    <circle cx="213.781" cy="258.969" r="0.84375" transform="rotate(-90 213.781 258.969)" fill="#00FCFC"/>
    <circle cx="213.781" cy="255.594" r="0.84375" transform="rotate(-90 213.781 255.594)" fill="#00FCFC"/>
    <circle cx="213.781" cy="252.781" r="0.84375" transform="rotate(-90 213.781 252.781)" fill="#00FCFC"/>
    <circle cx="213.781" cy="237.031" r="0.84375" transform="rotate(-90 213.781 237.031)" fill="#00FCFC"/>
    <circle cx="213.781" cy="233.656" r="0.84375" transform="rotate(-90 213.781 233.656)" fill="#00FCFC"/>
    <circle cx="213.781" cy="230.844" r="0.84375" transform="rotate(-90 213.781 230.844)" fill="#00FCFC"/>
</svg>
