<svg width="185" height="185" viewBox="0 0 185 185" fill="none" xmlns="http://www.w3.org/2000/svg">
    <path d="M61.6666 11.2121H56.0605V16.8182H61.6666V11.2121Z" fill="white"/>
    <path d="M67.2726 11.2121H61.6665V16.8182H67.2726V11.2121Z" fill="white"/>
    <path d="M72.8785 11.2121H67.2725V16.8182H72.8785V11.2121Z" fill="white"/>
    <path d="M89.6969 11.2121H84.0908V16.8182H89.6969V11.2121Z" fill="white"/>
    <path d="M95.3028 11.2121H89.6968V16.8182H95.3028V11.2121Z" fill="white"/>
    <path d="M100.909 11.2121H95.3027V16.8182H100.909V11.2121Z" fill="white"/>
    <path d="M117.727 11.2121H112.121V16.8182H117.727V11.2121Z" fill="white"/>
    <path d="M61.6666 16.8181H56.0605V22.4242H61.6666V16.8181Z" fill="white"/>
    <path d="M67.2726 16.8181H61.6665V22.4242H67.2726V16.8181Z" fill="white"/>
    <path d="M72.8785 16.8181H67.2725V22.4242H72.8785V16.8181Z" fill="white"/>
    <path d="M78.4845 16.8181H72.8784V22.4242H78.4845V16.8181Z" fill="white"/>
    <path d="M84.0909 16.8181H78.4849V22.4242H84.0909V16.8181Z" fill="white"/>
    <path d="M89.6969 16.8181H84.0908V22.4242H89.6969V16.8181Z" fill="white"/>
    <path d="M95.3028 16.8181H89.6968V22.4242H95.3028V16.8181Z" fill="white"/>
    <path d="M100.909 16.8181H95.3027V22.4242H100.909V16.8181Z" fill="white"/>
    <path d="M112.121 16.8181H106.515V22.4242H112.121V16.8181Z" fill="white"/>
    <path d="M117.727 16.8181H112.121V22.4242H117.727V16.8181Z" fill="white"/>
    <path d="M123.333 16.8181H117.727V22.4242H123.333V16.8181Z" fill="white"/>
    <path d="M128.939 16.8181H123.333V22.4242H128.939V16.8181Z" fill="white"/>
    <path d="M61.6666 22.4242H56.0605V28.0303H61.6666V22.4242Z" fill="white"/>
    <path d="M67.2726 22.4242H61.6665V28.0303H67.2726V22.4242Z" fill="white"/>
    <path d="M72.8785 22.4242H67.2725V28.0303H72.8785V22.4242Z" fill="white"/>
    <path d="M78.4845 22.4242H72.8784V28.0303H78.4845V22.4242Z" fill="white"/>
    <path d="M89.6969 22.4242H84.0908V28.0303H89.6969V22.4242Z" fill="white"/>
    <path d="M95.3028 22.4242H89.6968V28.0303H95.3028V22.4242Z" fill="white"/>
    <path d="M128.939 22.4242H123.333V28.0303H128.939V22.4242Z" fill="white"/>
    <path d="M67.2726 28.0303H61.6665V33.6363H67.2726V28.0303Z" fill="white"/>
    <path d="M72.8785 28.0303H67.2725V33.6363H72.8785V28.0303Z" fill="white"/>
    <path d="M78.4845 28.0303H72.8784V33.6363H78.4845V28.0303Z" fill="white"/>
    <path d="M84.0909 28.0303H78.4849V33.6363H84.0909V28.0303Z" fill="white"/>
    <path d="M95.3028 28.0303H89.6968V33.6363H95.3028V28.0303Z" fill="white"/>
    <path d="M100.909 28.0303H95.3027V33.6363H100.909V28.0303Z" fill="white"/>
    <path d="M112.121 28.0303H106.515V33.6363H112.121V28.0303Z" fill="white"/>
    <path d="M123.333 28.0303H117.727V33.6363H123.333V28.0303Z" fill="white"/>
    <path d="M128.939 28.0303H123.333V33.6363H128.939V28.0303Z" fill="white"/>
    <path d="M61.6666 33.6363H56.0605V39.2423H61.6666V33.6363Z" fill="white"/>
    <path d="M67.2726 33.6363H61.6665V39.2423H67.2726V33.6363Z" fill="white"/>
    <path d="M72.8785 33.6363H67.2725V39.2423H72.8785V33.6363Z" fill="white"/>
    <path d="M84.0909 33.6363H78.4849V39.2423H84.0909V33.6363Z" fill="white"/>
    <path d="M89.6969 33.6363H84.0908V39.2423H89.6969V33.6363Z" fill="white"/>
    <path d="M100.909 33.6363H95.3027V39.2423H100.909V33.6363Z" fill="white"/>
    <path d="M112.121 33.6363H106.515V39.2423H112.121V33.6363Z" fill="white"/>
    <path d="M117.727 33.6363H112.121V39.2423H117.727V33.6363Z" fill="white"/>
    <path d="M123.333 33.6363H117.727V39.2423H123.333V33.6363Z" fill="white"/>
    <path d="M67.2726 39.2424H61.6665V44.8484H67.2726V39.2424Z" fill="white"/>
    <path d="M89.6969 39.2424H84.0908V44.8484H89.6969V39.2424Z" fill="white"/>
    <path d="M95.3028 39.2424H89.6968V44.8484H95.3028V39.2424Z" fill="white"/>
    <path d="M112.121 39.2424H106.515V44.8484H112.121V39.2424Z" fill="white"/>
    <path d="M128.939 39.2424H123.333V44.8484H128.939V39.2424Z" fill="white"/>
    <path d="M61.6666 44.8484H56.0605V50.4545H61.6666V44.8484Z" fill="white"/>
    <path d="M72.8785 44.8484H67.2725V50.4545H72.8785V44.8484Z" fill="white"/>
    <path d="M84.0909 44.8484H78.4849V50.4545H84.0909V44.8484Z" fill="white"/>
    <path d="M95.3028 44.8484H89.6968V50.4545H95.3028V44.8484Z" fill="white"/>
    <path d="M106.515 44.8484H100.909V50.4545H106.515V44.8484Z" fill="white"/>
    <path d="M117.727 44.8484H112.121V50.4545H117.727V44.8484Z" fill="white"/>
    <path d="M128.939 44.8484H123.333V50.4545H128.939V44.8484Z" fill="white"/>
    <path d="M67.2726 50.4545H61.6665V56.0605H67.2726V50.4545Z" fill="white"/>
    <path d="M84.0909 50.4545H78.4849V56.0605H84.0909V50.4545Z" fill="white"/>
    <path d="M95.3028 50.4545H89.6968V56.0605H95.3028V50.4545Z" fill="white"/>
    <path d="M16.818 56.0606H11.2119V61.6667H16.818V56.0606Z" fill="white"/>
    <path d="M33.6363 56.0606H28.0303V61.6667H33.6363V56.0606Z" fill="white"/>
    <path d="M39.2423 56.0606H33.6362V61.6667H39.2423V56.0606Z" fill="white"/>
    <path d="M44.8482 56.0606H39.2422V61.6667H44.8482V56.0606Z" fill="white"/>
    <path d="M50.4542 56.0606H44.8481V61.6667H50.4542V56.0606Z" fill="white"/>
    <path d="M56.0602 56.0606H50.4541V61.6667H56.0602V56.0606Z" fill="white"/>
    <path d="M61.6666 56.0606H56.0605V61.6667H61.6666V56.0606Z" fill="white"/>
    <path d="M67.2726 56.0606H61.6665V61.6667H67.2726V56.0606Z" fill="white"/>
    <path d="M84.0909 56.0606H78.4849V61.6667H84.0909V56.0606Z" fill="white"/>
    <path d="M89.6969 56.0606H84.0908V61.6667H89.6969V56.0606Z" fill="white"/>
    <path d="M95.3028 56.0606H89.6968V61.6667H95.3028V56.0606Z" fill="white"/>
    <path d="M100.909 56.0606H95.3027V61.6667H100.909V56.0606Z" fill="white"/>
    <path d="M106.515 56.0606H100.909V61.6667H106.515V56.0606Z" fill="white"/>
    <path d="M112.121 56.0606H106.515V61.6667H112.121V56.0606Z" fill="white"/>
    <path d="M134.545 56.0606H128.939V61.6667H134.545V56.0606Z" fill="white"/>
    <path d="M151.363 56.0606H145.757V61.6667H151.363V56.0606Z" fill="white"/>
    <path d="M162.576 56.0606H156.97V61.6667H162.576V56.0606Z" fill="white"/>
    <path d="M168.182 56.0606H162.576V61.6667H168.182V56.0606Z" fill="white"/>
    <path d="M173.788 56.0606H168.182V61.6667H173.788V56.0606Z" fill="white"/>
    <path d="M16.818 61.6666H11.2119V67.2727H16.818V61.6666Z" fill="white"/>
    <path d="M28.0299 61.6666H22.4238V67.2727H28.0299V61.6666Z" fill="white"/>
    <path d="M61.6666 61.6666H56.0605V67.2727H61.6666V61.6666Z" fill="white"/>
    <path d="M84.0909 61.6666H78.4849V67.2727H84.0909V61.6666Z" fill="white"/>
    <path d="M95.3028 61.6666H89.6968V67.2727H95.3028V61.6666Z" fill="white"/>
    <path d="M112.121 61.6666H106.515V67.2727H112.121V61.6666Z" fill="white"/>
    <path d="M123.333 61.6666H117.727V67.2727H123.333V61.6666Z" fill="white"/>
    <path d="M134.545 61.6666H128.939V67.2727H134.545V61.6666Z" fill="white"/>
    <path d="M145.757 61.6666H140.151V67.2727H145.757V61.6666Z" fill="white"/>
    <path d="M151.363 61.6666H145.757V67.2727H151.363V61.6666Z" fill="white"/>
    <path d="M162.576 61.6666H156.97V67.2727H162.576V61.6666Z" fill="white"/>
    <path d="M168.182 61.6666H162.576V67.2727H168.182V61.6666Z" fill="white"/>
    <path d="M22.4239 67.2727H16.8179V72.8788H22.4239V67.2727Z" fill="white"/>
    <path d="M28.0299 67.2727H22.4238V72.8788H28.0299V67.2727Z" fill="white"/>
    <path d="M39.2423 67.2727H33.6362V72.8788H39.2423V67.2727Z" fill="white"/>
    <path d="M44.8482 67.2727H39.2422V72.8788H44.8482V67.2727Z" fill="white"/>
    <path d="M50.4542 67.2727H44.8481V72.8788H50.4542V67.2727Z" fill="white"/>
    <path d="M67.2726 67.2727H61.6665V72.8788H67.2726V67.2727Z" fill="white"/>
    <path d="M72.8785 67.2727H67.2725V72.8788H72.8785V67.2727Z" fill="white"/>
    <path d="M95.3028 67.2727H89.6968V72.8788H95.3028V67.2727Z" fill="white"/>
    <path d="M112.121 67.2727H106.515V72.8788H112.121V67.2727Z" fill="white"/>
    <path d="M117.727 67.2727H112.121V72.8788H117.727V67.2727Z" fill="white"/>
    <path d="M134.545 67.2727H128.939V72.8788H134.545V67.2727Z" fill="white"/>
    <path d="M145.757 67.2727H140.151V72.8788H145.757V67.2727Z" fill="white"/>
    <path d="M162.576 67.2727H156.97V72.8788H162.576V67.2727Z" fill="white"/>
    <path d="M33.6363 72.8788H28.0303V78.4848H33.6363V72.8788Z" fill="white"/>
    <path d="M39.2423 72.8788H33.6362V78.4848H39.2423V72.8788Z" fill="white"/>
    <path d="M61.6666 72.8788H56.0605V78.4848H61.6666V72.8788Z" fill="white"/>
    <path d="M67.2726 72.8788H61.6665V78.4848H67.2726V72.8788Z" fill="white"/>
    <path d="M72.8785 72.8788H67.2725V78.4848H72.8785V72.8788Z" fill="white"/>
    <path d="M95.3028 72.8788H89.6968V78.4848H95.3028V72.8788Z" fill="white"/>
    <path d="M100.909 72.8788H95.3027V78.4848H100.909V72.8788Z" fill="white"/>
    <path d="M112.121 72.8788H106.515V78.4848H112.121V72.8788Z" fill="white"/>
    <path d="M128.939 72.8788H123.333V78.4848H128.939V72.8788Z" fill="white"/>
    <path d="M134.545 72.8788H128.939V78.4848H134.545V72.8788Z" fill="white"/>
    <path d="M140.151 72.8788H134.545V78.4848H140.151V72.8788Z" fill="white"/>
    <path d="M156.969 72.8788H151.363V78.4848H156.969V72.8788Z" fill="white"/>
    <path d="M173.788 72.8788H168.182V78.4848H173.788V72.8788Z" fill="white"/>
    <path d="M16.818 78.4849H11.2119V84.0909H16.818V78.4849Z" fill="white"/>
    <path d="M22.4239 78.4849H16.8179V84.0909H22.4239V78.4849Z" fill="white"/>
    <path d="M28.0299 78.4849H22.4238V84.0909H28.0299V78.4849Z" fill="white"/>
    <path d="M33.6363 78.4849H28.0303V84.0909H33.6363V78.4849Z" fill="white"/>
    <path d="M50.4542 78.4849H44.8481V84.0909H50.4542V78.4849Z" fill="white"/>
    <path d="M72.8785 78.4849H67.2725V84.0909H72.8785V78.4849Z" fill="white"/>
    <path d="M84.0909 78.4849H78.4849V84.0909H84.0909V78.4849Z" fill="white"/>
    <path d="M89.6969 78.4849H84.0908V84.0909H89.6969V78.4849Z" fill="white"/>
    <path d="M95.3028 78.4849H89.6968V84.0909H95.3028V78.4849Z" fill="white"/>
    <path d="M117.727 78.4849H112.121V84.0909H117.727V78.4849Z" fill="white"/>
    <path d="M128.939 78.4849H123.333V84.0909H128.939V78.4849Z" fill="white"/>
    <path d="M140.151 78.4849H134.545V84.0909H140.151V78.4849Z" fill="white"/>
    <path d="M145.757 78.4849H140.151V84.0909H145.757V78.4849Z" fill="white"/>
    <path d="M173.788 78.4849H168.182V84.0909H173.788V78.4849Z" fill="white"/>
    <path d="M28.0299 84.0909H22.4238V89.6969H28.0299V84.0909Z" fill="white"/>
    <path d="M78.4845 84.0909H72.8784V89.6969H78.4845V84.0909Z" fill="white"/>
    <path d="M84.0909 84.0909H78.4849V89.6969H84.0909V84.0909Z" fill="white"/>
    <path d="M112.121 84.0909H106.515V89.6969H112.121V84.0909Z" fill="white"/>
    <path d="M117.727 84.0909H112.121V89.6969H117.727V84.0909Z" fill="white"/>
    <path d="M134.545 84.0909H128.939V89.6969H134.545V84.0909Z" fill="white"/>
    <path d="M140.151 84.0909H134.545V89.6969H140.151V84.0909Z" fill="white"/>
    <path d="M151.363 84.0909H145.757V89.6969H151.363V84.0909Z" fill="white"/>
    <path d="M156.969 84.0909H151.363V89.6969H156.969V84.0909Z" fill="white"/>
    <path d="M162.576 84.0909H156.97V89.6969H162.576V84.0909Z" fill="white"/>
    <path d="M168.182 84.0909H162.576V89.6969H168.182V84.0909Z" fill="white"/>
    <path d="M173.788 84.0909H168.182V89.6969H173.788V84.0909Z" fill="white"/>
    <path d="M22.4239 89.697H16.8179V95.303H22.4239V89.697Z" fill="white"/>
    <path d="M44.8482 89.697H39.2422V95.303H44.8482V89.697Z" fill="white"/>
    <path d="M50.4542 89.697H44.8481V95.303H50.4542V89.697Z" fill="white"/>
    <path d="M56.0602 89.697H50.4541V95.303H56.0602V89.697Z" fill="white"/>
    <path d="M61.6666 89.697H56.0605V95.303H61.6666V89.697Z" fill="white"/>
    <path d="M72.8785 89.697H67.2725V95.303H72.8785V89.697Z" fill="white"/>
    <path d="M95.3028 89.697H89.6968V95.303H95.3028V89.697Z" fill="white"/>
    <path d="M100.909 89.697H95.3027V95.303H100.909V89.697Z" fill="white"/>
    <path d="M112.121 89.697H106.515V95.303H112.121V89.697Z" fill="white"/>
    <path d="M123.333 89.697H117.727V95.303H123.333V89.697Z" fill="white"/>
    <path d="M128.939 89.697H123.333V95.303H128.939V89.697Z" fill="white"/>
    <path d="M134.545 89.697H128.939V95.303H134.545V89.697Z" fill="white"/>
    <path d="M140.151 89.697H134.545V95.303H140.151V89.697Z" fill="white"/>
    <path d="M145.757 89.697H140.151V95.303H145.757V89.697Z" fill="white"/>
    <path d="M162.576 89.697H156.97V95.303H162.576V89.697Z" fill="white"/>
    <path d="M173.788 89.697H168.182V95.303H173.788V89.697Z" fill="white"/>
    <path d="M16.818 95.303H11.2119V100.909H16.818V95.303Z" fill="white"/>
    <path d="M22.4239 95.303H16.8179V100.909H22.4239V95.303Z" fill="white"/>
    <path d="M39.2423 95.303H33.6362V100.909H39.2423V95.303Z" fill="white"/>
    <path d="M56.0602 95.303H50.4541V100.909H56.0602V95.303Z" fill="white"/>
    <path d="M67.2726 95.303H61.6665V100.909H67.2726V95.303Z" fill="white"/>
    <path d="M72.8785 95.303H67.2725V100.909H72.8785V95.303Z" fill="white"/>
    <path d="M89.6969 95.303H84.0908V100.909H89.6969V95.303Z" fill="white"/>
    <path d="M95.3028 95.303H89.6968V100.909H95.3028V95.303Z" fill="white"/>
    <path d="M106.515 95.303H100.909V100.909H106.515V95.303Z" fill="white"/>
    <path d="M117.727 95.303H112.121V100.909H117.727V95.303Z" fill="white"/>
    <path d="M145.757 95.303H140.151V100.909H145.757V95.303Z" fill="white"/>
    <path d="M151.363 95.303H145.757V100.909H151.363V95.303Z" fill="white"/>
    <path d="M162.576 95.303H156.97V100.909H162.576V95.303Z" fill="white"/>
    <path d="M173.788 95.303H168.182V100.909H173.788V95.303Z" fill="white"/>
    <path d="M39.2423 100.909H33.6362V106.515H39.2423V100.909Z" fill="white"/>
    <path d="M50.4542 100.909H44.8481V106.515H50.4542V100.909Z" fill="white"/>
    <path d="M84.0909 100.909H78.4849V106.515H84.0909V100.909Z" fill="white"/>
    <path d="M100.909 100.909H95.3027V106.515H100.909V100.909Z" fill="white"/>
    <path d="M123.333 100.909H117.727V106.515H123.333V100.909Z" fill="white"/>
    <path d="M128.939 100.909H123.333V106.515H128.939V100.909Z" fill="white"/>
    <path d="M156.969 100.909H151.363V106.515H156.969V100.909Z" fill="white"/>
    <path d="M16.818 106.515H11.2119V112.121H16.818V106.515Z" fill="white"/>
    <path d="M33.6363 106.515H28.0303V112.121H33.6363V106.515Z" fill="white"/>
    <path d="M61.6666 106.515H56.0605V112.121H61.6666V106.515Z" fill="white"/>
    <path d="M67.2726 106.515H61.6665V112.121H67.2726V106.515Z" fill="white"/>
    <path d="M112.121 106.515H106.515V112.121H112.121V106.515Z" fill="white"/>
    <path d="M117.727 106.515H112.121V112.121H117.727V106.515Z" fill="white"/>
    <path d="M123.333 106.515H117.727V112.121H123.333V106.515Z" fill="white"/>
    <path d="M151.363 106.515H145.757V112.121H151.363V106.515Z" fill="white"/>
    <path d="M162.576 106.515H156.97V112.121H162.576V106.515Z" fill="white"/>
    <path d="M168.182 106.515H162.576V112.121H168.182V106.515Z" fill="white"/>
    <path d="M16.818 112.121H11.2119V117.727H16.818V112.121Z" fill="white"/>
    <path d="M22.4239 112.121H16.8179V117.727H22.4239V112.121Z" fill="white"/>
    <path d="M28.0299 112.121H22.4238V117.727H28.0299V112.121Z" fill="white"/>
    <path d="M50.4542 112.121H44.8481V117.727H50.4542V112.121Z" fill="white"/>
    <path d="M56.0602 112.121H50.4541V117.727H56.0602V112.121Z" fill="white"/>
    <path d="M67.2726 112.121H61.6665V117.727H67.2726V112.121Z" fill="white"/>
    <path d="M72.8785 112.121H67.2725V117.727H72.8785V112.121Z" fill="white"/>
    <path d="M89.6969 112.121H84.0908V117.727H89.6969V112.121Z" fill="white"/>
    <path d="M95.3028 112.121H89.6968V117.727H95.3028V112.121Z" fill="white"/>
    <path d="M106.515 112.121H100.909V117.727H106.515V112.121Z" fill="white"/>
    <path d="M117.727 112.121H112.121V117.727H117.727V112.121Z" fill="white"/>
    <path d="M123.333 112.121H117.727V117.727H123.333V112.121Z" fill="white"/>
    <path d="M134.545 112.121H128.939V117.727H134.545V112.121Z" fill="white"/>
    <path d="M140.151 112.121H134.545V117.727H140.151V112.121Z" fill="white"/>
    <path d="M156.969 112.121H151.363V117.727H156.969V112.121Z" fill="white"/>
    <path d="M173.788 112.121H168.182V117.727H173.788V112.121Z" fill="white"/>
    <path d="M16.818 117.727H11.2119V123.333H16.818V117.727Z" fill="white"/>
    <path d="M22.4239 117.727H16.8179V123.333H22.4239V117.727Z" fill="white"/>
    <path d="M39.2423 117.727H33.6362V123.333H39.2423V117.727Z" fill="white"/>
    <path d="M44.8482 117.727H39.2422V123.333H44.8482V117.727Z" fill="white"/>
    <path d="M56.0602 117.727H50.4541V123.333H56.0602V117.727Z" fill="white"/>
    <path d="M61.6666 117.727H56.0605V123.333H61.6666V117.727Z" fill="white"/>
    <path d="M67.2726 117.727H61.6665V123.333H67.2726V117.727Z" fill="white"/>
    <path d="M72.8785 117.727H67.2725V123.333H72.8785V117.727Z" fill="white"/>
    <path d="M78.4845 117.727H72.8784V123.333H78.4845V117.727Z" fill="white"/>
    <path d="M89.6969 117.727H84.0908V123.333H89.6969V117.727Z" fill="white"/>
    <path d="M100.909 117.727H95.3027V123.333H100.909V117.727Z" fill="white"/>
    <path d="M106.515 117.727H100.909V123.333H106.515V117.727Z" fill="white"/>
    <path d="M123.333 117.727H117.727V123.333H123.333V117.727Z" fill="white"/>
    <path d="M134.545 117.727H128.939V123.333H134.545V117.727Z" fill="white"/>
    <path d="M140.151 117.727H134.545V123.333H140.151V117.727Z" fill="white"/>
    <path d="M145.757 117.727H140.151V123.333H145.757V117.727Z" fill="white"/>
    <path d="M151.363 117.727H145.757V123.333H151.363V117.727Z" fill="white"/>
    <path d="M156.969 117.727H151.363V123.333H156.969V117.727Z" fill="white"/>
    <path d="M162.576 117.727H156.97V123.333H162.576V117.727Z" fill="white"/>
    <path d="M16.818 123.333H11.2119V128.939H16.818V123.333Z" fill="white"/>
    <path d="M22.4239 123.333H16.8179V128.939H22.4239V123.333Z" fill="white"/>
    <path d="M28.0299 123.333H22.4238V128.939H28.0299V123.333Z" fill="white"/>
    <path d="M44.8482 123.333H39.2422V128.939H44.8482V123.333Z" fill="white"/>
    <path d="M50.4542 123.333H44.8481V128.939H50.4542V123.333Z" fill="white"/>
    <path d="M67.2726 123.333H61.6665V128.939H67.2726V123.333Z" fill="white"/>
    <path d="M72.8785 123.333H67.2725V128.939H72.8785V123.333Z" fill="white"/>
    <path d="M84.0909 123.333H78.4849V128.939H84.0909V123.333Z" fill="white"/>
    <path d="M89.6969 123.333H84.0908V128.939H89.6969V123.333Z" fill="white"/>
    <path d="M112.121 123.333H106.515V128.939H112.121V123.333Z" fill="white"/>
    <path d="M123.333 123.333H117.727V128.939H123.333V123.333Z" fill="white"/>
    <path d="M128.939 123.333H123.333V128.939H128.939V123.333Z" fill="white"/>
    <path d="M134.545 123.333H128.939V128.939H134.545V123.333Z" fill="white"/>
    <path d="M140.151 123.333H134.545V128.939H140.151V123.333Z" fill="white"/>
    <path d="M145.757 123.333H140.151V128.939H145.757V123.333Z" fill="white"/>
    <path d="M151.363 123.333H145.757V128.939H151.363V123.333Z" fill="white"/>
    <path d="M156.969 123.333H151.363V128.939H156.969V123.333Z" fill="white"/>
    <path d="M162.576 123.333H156.97V128.939H162.576V123.333Z" fill="white"/>
    <path d="M168.182 123.333H162.576V128.939H168.182V123.333Z" fill="white"/>
    <path d="M61.6666 128.939H56.0605V134.545H61.6666V128.939Z" fill="white"/>
    <path d="M78.4845 128.939H72.8784V134.545H78.4845V128.939Z" fill="white"/>
    <path d="M89.6969 128.939H84.0908V134.545H89.6969V128.939Z" fill="white"/>
    <path d="M106.515 128.939H100.909V134.545H106.515V128.939Z" fill="white"/>
    <path d="M112.121 128.939H106.515V134.545H112.121V128.939Z" fill="white"/>
    <path d="M117.727 128.939H112.121V134.545H117.727V128.939Z" fill="white"/>
    <path d="M128.939 128.939H123.333V134.545H128.939V128.939Z" fill="white"/>
    <path d="M151.363 128.939H145.757V134.545H151.363V128.939Z" fill="white"/>
    <path d="M156.969 128.939H151.363V134.545H156.969V128.939Z" fill="white"/>
    <path d="M61.6666 134.546H56.0605V140.152H61.6666V134.546Z" fill="white"/>
    <path d="M89.6969 134.546H84.0908V140.152H89.6969V134.546Z" fill="white"/>
    <path d="M100.909 134.546H95.3027V140.152H100.909V134.546Z" fill="white"/>
    <path d="M106.515 134.546H100.909V140.152H106.515V134.546Z" fill="white"/>
    <path d="M123.333 134.546H117.727V140.152H123.333V134.546Z" fill="white"/>
    <path d="M128.939 134.546H123.333V140.152H128.939V134.546Z" fill="white"/>
    <path d="M140.151 134.546H134.545V140.152H140.151V134.546Z" fill="white"/>
    <path d="M151.363 134.546H145.757V140.152H151.363V134.546Z" fill="white"/>
    <path d="M156.969 134.546H151.363V140.152H156.969V134.546Z" fill="white"/>
    <path d="M61.6666 140.151H56.0605V145.758H61.6666V140.151Z" fill="white"/>
    <path d="M67.2726 140.151H61.6665V145.758H67.2726V140.151Z" fill="white"/>
    <path d="M72.8785 140.151H67.2725V145.758H72.8785V140.151Z" fill="white"/>
    <path d="M84.0909 140.151H78.4849V145.758H84.0909V140.151Z" fill="white"/>
    <path d="M89.6969 140.151H84.0908V145.758H89.6969V140.151Z" fill="white"/>
    <path d="M106.515 140.151H100.909V145.758H106.515V140.151Z" fill="white"/>
    <path d="M112.121 140.151H106.515V145.758H112.121V140.151Z" fill="white"/>
    <path d="M123.333 140.151H117.727V145.758H123.333V140.151Z" fill="white"/>
    <path d="M128.939 140.151H123.333V145.758H128.939V140.151Z" fill="white"/>
    <path d="M151.363 140.151H145.757V145.758H151.363V140.151Z" fill="white"/>
    <path d="M168.182 140.151H162.576V145.758H168.182V140.151Z" fill="white"/>
    <path d="M173.788 140.151H168.182V145.758H173.788V140.151Z" fill="white"/>
    <path d="M61.6666 145.758H56.0605V151.364H61.6666V145.758Z" fill="white"/>
    <path d="M78.4845 145.758H72.8784V151.364H78.4845V145.758Z" fill="white"/>
    <path d="M84.0909 145.758H78.4849V151.364H84.0909V145.758Z" fill="white"/>
    <path d="M89.6969 145.758H84.0908V151.364H89.6969V145.758Z" fill="white"/>
    <path d="M100.909 145.758H95.3027V151.364H100.909V145.758Z" fill="white"/>
    <path d="M106.515 145.758H100.909V151.364H106.515V145.758Z" fill="white"/>
    <path d="M123.333 145.758H117.727V151.364H123.333V145.758Z" fill="white"/>
    <path d="M128.939 145.758H123.333V151.364H128.939V145.758Z" fill="white"/>
    <path d="M134.545 145.758H128.939V151.364H134.545V145.758Z" fill="white"/>
    <path d="M140.151 145.758H134.545V151.364H140.151V145.758Z" fill="white"/>
    <path d="M145.757 145.758H140.151V151.364H145.757V145.758Z" fill="white"/>
    <path d="M151.363 145.758H145.757V151.364H151.363V145.758Z" fill="white"/>
    <path d="M156.969 145.758H151.363V151.364H156.969V145.758Z" fill="white"/>
    <path d="M61.6666 151.364H56.0605V156.97H61.6666V151.364Z" fill="white"/>
    <path d="M84.0909 151.364H78.4849V156.97H84.0909V151.364Z" fill="white"/>
    <path d="M89.6969 151.364H84.0908V156.97H89.6969V151.364Z" fill="white"/>
    <path d="M95.3028 151.364H89.6968V156.97H95.3028V151.364Z" fill="white"/>
    <path d="M106.515 151.364H100.909V156.97H106.515V151.364Z" fill="white"/>
    <path d="M112.121 151.364H106.515V156.97H112.121V151.364Z" fill="white"/>
    <path d="M117.727 151.364H112.121V156.97H117.727V151.364Z" fill="white"/>
    <path d="M123.333 151.364H117.727V156.97H123.333V151.364Z" fill="white"/>
    <path d="M128.939 151.364H123.333V156.97H128.939V151.364Z" fill="white"/>
    <path d="M134.545 151.364H128.939V156.97H134.545V151.364Z" fill="white"/>
    <path d="M145.757 151.364H140.151V156.97H145.757V151.364Z" fill="white"/>
    <path d="M168.182 151.364H162.576V156.97H168.182V151.364Z" fill="white"/>
    <path d="M72.8785 156.97H67.2725V162.576H72.8785V156.97Z" fill="white"/>
    <path d="M89.6969 156.97H84.0908V162.576H89.6969V156.97Z" fill="white"/>
    <path d="M106.515 156.97H100.909V162.576H106.515V156.97Z" fill="white"/>
    <path d="M134.545 156.97H128.939V162.576H134.545V156.97Z" fill="white"/>
    <path d="M145.757 156.97H140.151V162.576H145.757V156.97Z" fill="white"/>
    <path d="M151.363 156.97H145.757V162.576H151.363V156.97Z" fill="white"/>
    <path d="M162.576 156.97H156.97V162.576H162.576V156.97Z" fill="white"/>
    <path d="M168.182 156.97H162.576V162.576H168.182V156.97Z" fill="white"/>
    <path d="M173.788 156.97H168.182V162.576H173.788V156.97Z" fill="white"/>
    <path d="M78.4845 162.576H72.8784V168.182H78.4845V162.576Z" fill="white"/>
    <path d="M89.6969 162.576H84.0908V168.182H89.6969V162.576Z" fill="white"/>
    <path d="M100.909 162.576H95.3027V168.182H100.909V162.576Z" fill="white"/>
    <path d="M134.545 162.576H128.939V168.182H134.545V162.576Z" fill="white"/>
    <path d="M145.757 162.576H140.151V168.182H145.757V162.576Z" fill="white"/>
    <path d="M156.969 162.576H151.363V168.182H156.969V162.576Z" fill="white"/>
    <path d="M162.576 162.576H156.97V168.182H162.576V162.576Z" fill="white"/>
    <path d="M173.788 162.576H168.182V168.182H173.788V162.576Z" fill="white"/>
    <path d="M61.6666 168.182H56.0605V173.788H61.6666V168.182Z" fill="white"/>
    <path d="M78.4845 168.182H72.8784V173.788H78.4845V168.182Z" fill="white"/>
    <path d="M84.0909 168.182H78.4849V173.788H84.0909V168.182Z" fill="white"/>
    <path d="M112.121 168.182H106.515V173.788H112.121V168.182Z" fill="white"/>
    <path d="M117.727 168.182H112.121V173.788H117.727V168.182Z" fill="white"/>
    <path d="M123.333 168.182H117.727V173.788H123.333V168.182Z" fill="white"/>
    <path d="M128.939 168.182H123.333V173.788H128.939V168.182Z" fill="white"/>
    <path d="M140.151 168.182H134.545V173.788H140.151V168.182Z" fill="white"/>
    <path d="M151.363 168.182H145.757V173.788H151.363V168.182Z" fill="white"/>
    <path d="M156.969 168.182H151.363V173.788H156.969V168.182Z" fill="white"/>
    <path d="M44.568 11.2121H17.0983H11.2119V17.0985V44.5682V50.4545H17.0983H44.568H50.4543V44.5682V17.0985V11.2121H44.568ZM44.568 44.5682H17.0983V17.0985H44.568V44.5682Z" fill="white"/>
    <path d="M167.901 11.2121H140.432H134.545V17.0985V44.5682V50.4545H140.432H167.901H173.788V44.5682V17.0985V11.2121H167.901ZM167.901 44.5682H140.432V17.0985H167.901V44.5682Z" fill="white"/>
    <path d="M44.568 134.546H17.0983H11.2119V140.432V167.902V173.788H17.0983H44.568H50.4543V167.902V140.432V134.546H44.568ZM44.568 167.902H17.0983V140.432H44.568V167.902Z" fill="white"/>
    <path d="M39.242 22.4242H22.4238V39.2424H39.242V22.4242Z" fill="white"/>
    <path d="M162.575 22.4242H145.757V39.2424H162.575V22.4242Z" fill="white"/>
    <path d="M39.242 145.758H22.4238V162.576H39.242V145.758Z" fill="white"/>
</svg>
