<svg width="86" height="76" viewBox="0 0 86 76" fill="none" xmlns="http://www.w3.org/2000/svg">
    <path d="M43 22.6875V25.8125H39.875V22.6875H43ZM39.875 41.0469V45.5H43V41.0469H39.875ZM49.25 58V54.875H46.125V51.75H43V58H49.25ZM55.5 34.7969H46.125V37.9219H55.5V34.7969ZM55.5 41.0469H59.875V37.9219H55.5V41.0469ZM55.5 45.5V48.625H63V41.0469H59.875V45.5H55.5ZM46.125 18H43V22.6875H46.125V18ZM43 32.0625H46.125V25.8125H43V28.9375H39.875V37.9219H43V32.0625ZM23 34.7969V41.0469H26.125V37.9219H30.8125V34.7969H23ZM46.125 41.0469V37.9219H43V41.0469H46.125ZM52.375 44.1719H55.5V41.0469H52.375V44.1719ZM59.875 37.9219H63V34.7969H59.875V37.9219ZM49.25 41.0469H46.125V45.5H43V48.625H49.25V41.0469ZM39.875 51.75H43V48.625H39.875V51.75ZM49.25 48.625V51.75H55.5V48.625H49.25ZM58.625 54.875V51.75H55.5V54.875H58.625ZM63 58V54.875H58.625V58H63ZM52.375 58H55.5V54.875H52.375V58ZM37.0625 37.9219V34.7969H33.9375V37.9219H30.8125V41.0469H39.875V37.9219H37.0625ZM37.0625 32.0625H23V18H37.0625V32.0625ZM33.9375 21.125H26.125V28.9375H33.9375V21.125ZM31.5938 23.4688H28.4688V26.5938H31.5938V23.4688ZM63 18V32.0625H48.9375V18H63ZM59.875 21.125H52.0625V28.9375H59.875V21.125ZM57.5312 23.4688H54.4062V26.5938H57.5312V23.4688ZM23 43.9375H37.0625V58H23V43.9375ZM26.125 54.875H33.9375V47.0625H26.125V54.875ZM28.4688 52.5312H31.5938V49.4062H28.4688V52.5312Z" fill="white"/>
    <path d="M1.0124 67.7897L2.76777 67.0626L1.0124 67.7897ZM84.9876 67.7897L86.743 68.5168L84.9876 67.7897ZM77.7897 74.9876L77.0626 73.2322L77.7897 74.9876ZM77.7897 1.0124L77.0626 2.76777L77.7897 1.0124ZM84.9876 8.21031L86.743 7.48321L84.9876 8.21031ZM8.21031 1.0124L8.93741 2.76777L8.21031 1.0124ZM19.95 1.9H66.05V-1.9H19.95V1.9ZM84.1 19.95V56.05H87.9V19.95H84.1ZM66.05 74.1H19.95V77.9H66.05V74.1ZM1.9 56.05V19.95H-1.9V56.05H1.9ZM19.95 74.1C16.8255 74.1 14.5773 74.099 12.8022 73.9779C11.0441 73.8579 9.88939 73.6265 8.93741 73.2322L7.48321 76.743C8.97539 77.361 10.592 77.6359 12.5435 77.769C14.4779 77.901 16.8775 77.9 19.95 77.9V74.1ZM-1.9 56.05C-1.9 59.1225 -1.90103 61.5221 -1.76904 63.4565C-1.63589 65.408 -1.36105 67.0246 -0.742969 68.5168L2.76777 67.0626C2.37345 66.1106 2.14209 64.9559 2.02214 63.1978C1.90103 61.4227 1.9 59.1745 1.9 56.05H-1.9ZM8.93741 73.2322C6.14409 72.0752 3.9248 69.8559 2.76777 67.0626L-0.742969 68.5168C0.799739 72.2412 3.75879 75.2003 7.48321 76.743L8.93741 73.2322ZM84.1 56.05C84.1 59.1745 84.099 61.4227 83.9779 63.1978C83.8579 64.9559 83.6265 66.1106 83.2322 67.0626L86.743 68.5168C87.361 67.0246 87.6359 65.408 87.769 63.4565C87.901 61.5221 87.9 59.1225 87.9 56.05H84.1ZM66.05 77.9C69.1225 77.9 71.5221 77.901 73.4565 77.769C75.408 77.6359 77.0246 77.361 78.5168 76.743L77.0626 73.2322C76.1106 73.6265 74.9559 73.8579 73.1978 73.9779C71.4227 74.099 69.1745 74.1 66.05 74.1V77.9ZM83.2322 67.0626C82.0752 69.8559 79.8559 72.0752 77.0626 73.2322L78.5168 76.743C82.2412 75.2003 85.2003 72.2412 86.743 68.5168L83.2322 67.0626ZM66.05 1.9C69.1745 1.9 71.4227 1.90103 73.1978 2.02214C74.9559 2.14209 76.1106 2.37345 77.0626 2.76777L78.5168 -0.742969C77.0246 -1.36105 75.408 -1.63589 73.4565 -1.76904C71.5221 -1.90103 69.1225 -1.9 66.05 -1.9V1.9ZM87.9 19.95C87.9 16.8775 87.901 14.4779 87.769 12.5435C87.6359 10.592 87.361 8.97539 86.743 7.48321L83.2322 8.93741C83.6265 9.88939 83.8579 11.0441 83.9779 12.8022C84.099 14.5773 84.1 16.8255 84.1 19.95H87.9ZM77.0626 2.76777C79.8559 3.9248 82.0752 6.14409 83.2322 8.93741L86.743 7.48321C85.2003 3.75879 82.2412 0.799739 78.5168 -0.742969L77.0626 2.76777ZM19.95 -1.9C16.8775 -1.9 14.4779 -1.90103 12.5435 -1.76904C10.592 -1.63589 8.97539 -1.36105 7.48321 -0.742969L8.93741 2.76777C9.88939 2.37345 11.0441 2.14209 12.8022 2.02214C14.5773 1.90103 16.8255 1.9 19.95 1.9V-1.9ZM1.9 19.95C1.9 16.8255 1.90103 14.5773 2.02214 12.8022C2.14209 11.0441 2.37345 9.88939 2.76777 8.93741L-0.742969 7.48321C-1.36105 8.97539 -1.63589 10.592 -1.76904 12.5435C-1.90103 14.4779 -1.9 16.8775 -1.9 19.95H1.9ZM7.48321 -0.742969C3.75879 0.799739 0.799739 3.75879 -0.742969 7.48321L2.76777 8.93741C3.9248 6.14409 6.14409 3.9248 8.93741 2.76777L7.48321 -0.742969Z" fill="white"/>
</svg>
