<svg width="150" height="150" viewBox="0 0 150 150" fill="none" xmlns="http://www.w3.org/2000/svg">
    <path d="M44.5932 8.10809H40.5391V12.1621H44.5932V8.10809Z" fill="white"/>
    <path d="M48.6474 8.10809H44.5934V12.1621H48.6474V8.10809Z" fill="white"/>
    <path d="M52.7017 8.10809H48.6476V12.1621H52.7017V8.10809Z" fill="white"/>
    <path d="M56.7559 8.10809H52.7019V12.1621H56.7559V8.10809Z" fill="white"/>
    <path d="M60.8102 8.10809H56.7562V12.1621H60.8102V8.10809Z" fill="white"/>
    <path d="M64.863 8.10809H60.8089V12.1621H64.863V8.10809Z" fill="white"/>
    <path d="M68.9172 8.10809H64.8632V12.1621H68.9172V8.10809Z" fill="white"/>
    <path d="M81.08 8.10809H77.0259V12.1621H81.08V8.10809Z" fill="white"/>
    <path d="M85.1343 8.10809H81.0802V12.1621H85.1343V8.10809Z" fill="white"/>
    <path d="M44.5932 12.1622H40.5391V16.2162H44.5932V12.1622Z" fill="white"/>
    <path d="M48.6474 12.1622H44.5934V16.2162H48.6474V12.1622Z" fill="white"/>
    <path d="M52.7017 12.1622H48.6476V16.2162H52.7017V12.1622Z" fill="white"/>
    <path d="M64.863 12.1622H60.8089V16.2162H64.863V12.1622Z" fill="white"/>
    <path d="M68.9172 12.1622H64.8632V16.2162H68.9172V12.1622Z" fill="white"/>
    <path d="M77.0257 12.1622H72.9717V16.2162H77.0257V12.1622Z" fill="white"/>
    <path d="M85.1343 12.1622H81.0802V16.2162H85.1343V12.1622Z" fill="white"/>
    <path d="M89.187 12.1622H85.1329V16.2162H89.187V12.1622Z" fill="white"/>
    <path d="M93.2412 12.1622H89.1872V16.2162H93.2412V12.1622Z" fill="white"/>
    <path d="M97.297 12.1622H93.243V16.2162H97.297V12.1622Z" fill="white"/>
    <path d="M44.5932 16.2162H40.5391V20.2702H44.5932V16.2162Z" fill="white"/>
    <path d="M60.8102 16.2162H56.7562V20.2702H60.8102V16.2162Z" fill="white"/>
    <path d="M64.863 16.2162H60.8089V20.2702H64.863V16.2162Z" fill="white"/>
    <path d="M68.9172 16.2162H64.8632V20.2702H68.9172V16.2162Z" fill="white"/>
    <path d="M72.9715 16.2162H68.9174V20.2702H72.9715V16.2162Z" fill="white"/>
    <path d="M93.2412 16.2162H89.1872V20.2702H93.2412V16.2162Z" fill="white"/>
    <path d="M97.297 16.2162H93.243V20.2702H97.297V16.2162Z" fill="white"/>
    <path d="M48.6474 20.2703H44.5934V24.3243H48.6474V20.2703Z" fill="white"/>
    <path d="M52.7017 20.2703H48.6476V24.3243H52.7017V20.2703Z" fill="white"/>
    <path d="M60.8102 20.2703H56.7562V24.3243H60.8102V20.2703Z" fill="white"/>
    <path d="M68.9172 20.2703H64.8632V24.3243H68.9172V20.2703Z" fill="white"/>
    <path d="M72.9715 20.2703H68.9174V24.3243H72.9715V20.2703Z" fill="white"/>
    <path d="M77.0257 20.2703H72.9717V24.3243H77.0257V20.2703Z" fill="white"/>
    <path d="M85.1343 20.2703H81.0802V24.3243H85.1343V20.2703Z" fill="white"/>
    <path d="M93.2412 20.2703H89.1872V24.3243H93.2412V20.2703Z" fill="white"/>
    <path d="M101.35 20.2703H97.2957V24.3243H101.35V20.2703Z" fill="white"/>
    <path d="M109.458 20.2703H105.404V24.3243H109.458V20.2703Z" fill="white"/>
    <path d="M44.5932 24.3243H40.5391V28.3784H44.5932V24.3243Z" fill="white"/>
    <path d="M64.863 24.3243H60.8089V28.3784H64.863V24.3243Z" fill="white"/>
    <path d="M72.9715 24.3243H68.9174V28.3784H72.9715V24.3243Z" fill="white"/>
    <path d="M77.0257 24.3243H72.9717V28.3784H77.0257V24.3243Z" fill="white"/>
    <path d="M81.08 24.3243H77.0259V28.3784H81.08V24.3243Z" fill="white"/>
    <path d="M97.297 24.3243H93.243V28.3784H97.297V24.3243Z" fill="white"/>
    <path d="M56.7559 28.3784H52.7019V32.4324H56.7559V28.3784Z" fill="white"/>
    <path d="M60.8102 28.3784H56.7562V32.4324H60.8102V28.3784Z" fill="white"/>
    <path d="M68.9172 28.3784H64.8632V32.4324H68.9172V28.3784Z" fill="white"/>
    <path d="M72.9715 28.3784H68.9174V32.4324H72.9715V28.3784Z" fill="white"/>
    <path d="M77.0257 28.3784H72.9717V32.4324H77.0257V28.3784Z" fill="white"/>
    <path d="M89.187 28.3784H85.1329V32.4324H89.187V28.3784Z" fill="white"/>
    <path d="M97.297 28.3784H93.243V32.4324H97.297V28.3784Z" fill="white"/>
    <path d="M101.35 28.3784H97.2957V32.4324H101.35V28.3784Z" fill="white"/>
    <path d="M105.404 28.3784H101.35V32.4324H105.404V28.3784Z" fill="white"/>
    <path d="M109.458 28.3784H105.404V32.4324H109.458V28.3784Z" fill="white"/>
    <path d="M44.5932 32.4324H40.5391V36.4865H44.5932V32.4324Z" fill="white"/>
    <path d="M52.7017 32.4324H48.6476V36.4865H52.7017V32.4324Z" fill="white"/>
    <path d="M60.8102 32.4324H56.7562V36.4865H60.8102V32.4324Z" fill="white"/>
    <path d="M68.9172 32.4324H64.8632V36.4865H68.9172V32.4324Z" fill="white"/>
    <path d="M77.0257 32.4324H72.9717V36.4865H77.0257V32.4324Z" fill="white"/>
    <path d="M85.1343 32.4324H81.0802V36.4865H85.1343V32.4324Z" fill="white"/>
    <path d="M93.2412 32.4324H89.1872V36.4865H93.2412V32.4324Z" fill="white"/>
    <path d="M101.35 32.4324H97.2957V36.4865H101.35V32.4324Z" fill="white"/>
    <path d="M109.458 32.4324H105.404V36.4865H109.458V32.4324Z" fill="white"/>
    <path d="M48.6474 36.4865H44.5934V40.5405H48.6474V36.4865Z" fill="white"/>
    <path d="M52.7017 36.4865H48.6476V40.5405H52.7017V36.4865Z" fill="white"/>
    <path d="M56.7559 36.4865H52.7019V40.5405H56.7559V36.4865Z" fill="white"/>
    <path d="M60.8102 36.4865H56.7562V40.5405H60.8102V36.4865Z" fill="white"/>
    <path d="M64.863 36.4865H60.8089V40.5405H64.863V36.4865Z" fill="white"/>
    <path d="M72.9715 36.4865H68.9174V40.5405H72.9715V36.4865Z" fill="white"/>
    <path d="M77.0257 36.4865H72.9717V40.5405H77.0257V36.4865Z" fill="white"/>
    <path d="M85.1343 36.4865H81.0802V40.5405H85.1343V36.4865Z" fill="white"/>
    <path d="M109.458 36.4865H105.404V40.5405H109.458V36.4865Z" fill="white"/>
    <path d="M12.1606 40.5405H8.10657V44.5946H12.1606V40.5405Z" fill="white"/>
    <path d="M24.3234 40.5405H20.2693V44.5946H24.3234V40.5405Z" fill="white"/>
    <path d="M28.3777 40.5405H24.3236V44.5946H28.3777V40.5405Z" fill="white"/>
    <path d="M32.4304 40.5405H28.3763V44.5946H32.4304V40.5405Z" fill="white"/>
    <path d="M36.4847 40.5405H32.4306V44.5946H36.4847V40.5405Z" fill="white"/>
    <path d="M40.5389 40.5405H36.4849V44.5946H40.5389V40.5405Z" fill="white"/>
    <path d="M44.5932 40.5405H40.5391V44.5946H44.5932V40.5405Z" fill="white"/>
    <path d="M52.7017 40.5405H48.6476V44.5946H52.7017V40.5405Z" fill="white"/>
    <path d="M56.7559 40.5405H52.7019V44.5946H56.7559V40.5405Z" fill="white"/>
    <path d="M68.9172 40.5405H64.8632V44.5946H68.9172V40.5405Z" fill="white"/>
    <path d="M77.0257 40.5405H72.9717V44.5946H77.0257V40.5405Z" fill="white"/>
    <path d="M81.08 40.5405H77.0259V44.5946H81.08V40.5405Z" fill="white"/>
    <path d="M93.2412 40.5405H89.1872V44.5946H93.2412V40.5405Z" fill="white"/>
    <path d="M109.458 40.5405H105.404V44.5946H109.458V40.5405Z" fill="white"/>
    <path d="M113.513 40.5405H109.458V44.5946H113.513V40.5405Z" fill="white"/>
    <path d="M125.674 40.5405H121.62V44.5946H125.674V40.5405Z" fill="white"/>
    <path d="M133.782 40.5405H129.728V44.5946H133.782V40.5405Z" fill="white"/>
    <path d="M137.837 40.5405H133.783V44.5946H137.837V40.5405Z" fill="white"/>
    <path d="M141.891 40.5405H137.837V44.5946H141.891V40.5405Z" fill="white"/>
    <path d="M40.5389 44.5946H36.4849V48.6486H40.5389V44.5946Z" fill="white"/>
    <path d="M44.5932 44.5946H40.5391V48.6486H44.5932V44.5946Z" fill="white"/>
    <path d="M56.7559 44.5946H52.7019V48.6486H56.7559V44.5946Z" fill="white"/>
    <path d="M60.8102 44.5946H56.7562V48.6486H60.8102V44.5946Z" fill="white"/>
    <path d="M64.863 44.5946H60.8089V48.6486H64.863V44.5946Z" fill="white"/>
    <path d="M68.9172 44.5946H64.8632V48.6486H68.9172V44.5946Z" fill="white"/>
    <path d="M72.9715 44.5946H68.9174V48.6486H72.9715V44.5946Z" fill="white"/>
    <path d="M77.0257 44.5946H72.9717V48.6486H77.0257V44.5946Z" fill="white"/>
    <path d="M81.08 44.5946H77.0259V48.6486H81.08V44.5946Z" fill="white"/>
    <path d="M89.187 44.5946H85.1329V48.6486H89.187V44.5946Z" fill="white"/>
    <path d="M97.297 44.5946H93.243V48.6486H97.297V44.5946Z" fill="white"/>
    <path d="M105.404 44.5946H101.35V48.6486H105.404V44.5946Z" fill="white"/>
    <path d="M113.513 44.5946H109.458V48.6486H113.513V44.5946Z" fill="white"/>
    <path d="M121.62 44.5946H117.565V48.6486H121.62V44.5946Z" fill="white"/>
    <path d="M125.674 44.5946H121.62V48.6486H125.674V44.5946Z" fill="white"/>
    <path d="M129.728 44.5946H125.674V48.6486H129.728V44.5946Z" fill="white"/>
    <path d="M133.782 44.5946H129.728V48.6486H133.782V44.5946Z" fill="white"/>
    <path d="M12.1606 48.6487H8.10657V52.7027H12.1606V48.6487Z" fill="white"/>
    <path d="M20.2691 48.6487H16.2151V52.7027H20.2691V48.6487Z" fill="white"/>
    <path d="M28.3777 48.6487H24.3236V52.7027H28.3777V48.6487Z" fill="white"/>
    <path d="M32.4304 48.6487H28.3763V52.7027H32.4304V48.6487Z" fill="white"/>
    <path d="M36.4847 48.6487H32.4306V52.7027H36.4847V48.6487Z" fill="white"/>
    <path d="M40.5389 48.6487H36.4849V52.7027H40.5389V48.6487Z" fill="white"/>
    <path d="M64.863 48.6487H60.8089V52.7027H64.863V48.6487Z" fill="white"/>
    <path d="M72.9715 48.6487H68.9174V52.7027H72.9715V48.6487Z" fill="white"/>
    <path d="M101.35 48.6487H97.2957V52.7027H101.35V48.6487Z" fill="white"/>
    <path d="M105.404 48.6487H101.35V52.7027H105.404V48.6487Z" fill="white"/>
    <path d="M109.458 48.6487H105.404V52.7027H109.458V48.6487Z" fill="white"/>
    <path d="M117.568 48.6487H113.514V52.7027H117.568V48.6487Z" fill="white"/>
    <path d="M125.674 48.6487H121.62V52.7027H125.674V48.6487Z" fill="white"/>
    <path d="M129.728 48.6487H125.674V52.7027H129.728V48.6487Z" fill="white"/>
    <path d="M133.782 48.6487H129.728V52.7027H133.782V48.6487Z" fill="white"/>
    <path d="M137.837 48.6487H133.783V52.7027H137.837V48.6487Z" fill="white"/>
    <path d="M141.891 48.6487H137.837V52.7027H141.891V48.6487Z" fill="white"/>
    <path d="M20.2691 52.7027H16.2151V56.7567H20.2691V52.7027Z" fill="white"/>
    <path d="M24.3234 52.7027H20.2693V56.7567H24.3234V52.7027Z" fill="white"/>
    <path d="M28.3777 52.7027H24.3236V56.7567H28.3777V52.7027Z" fill="white"/>
    <path d="M44.5932 52.7027H40.5391V56.7567H44.5932V52.7027Z" fill="white"/>
    <path d="M64.863 52.7027H60.8089V56.7567H64.863V52.7027Z" fill="white"/>
    <path d="M85.1343 52.7027H81.0802V56.7567H85.1343V52.7027Z" fill="white"/>
    <path d="M89.187 52.7027H85.1329V56.7567H89.187V52.7027Z" fill="white"/>
    <path d="M93.2412 52.7027H89.1872V56.7567H93.2412V52.7027Z" fill="white"/>
    <path d="M97.297 52.7027H93.243V56.7567H97.297V52.7027Z" fill="white"/>
    <path d="M101.35 52.7027H97.2957V56.7567H101.35V52.7027Z" fill="white"/>
    <path d="M105.404 52.7027H101.35V56.7567H105.404V52.7027Z" fill="white"/>
    <path d="M121.62 52.7027H117.565V56.7567H121.62V52.7027Z" fill="white"/>
    <path d="M133.782 52.7027H129.728V56.7567H133.782V52.7027Z" fill="white"/>
    <path d="M137.837 52.7027H133.783V56.7567H137.837V52.7027Z" fill="white"/>
    <path d="M12.1606 56.7567H8.10657V60.8108H12.1606V56.7567Z" fill="white"/>
    <path d="M16.2149 56.7567H12.1608V60.8108H16.2149V56.7567Z" fill="white"/>
    <path d="M36.4847 56.7567H32.4306V60.8108H36.4847V56.7567Z" fill="white"/>
    <path d="M40.5389 56.7567H36.4849V60.8108H40.5389V56.7567Z" fill="white"/>
    <path d="M44.5932 56.7567H40.5391V60.8108H44.5932V56.7567Z" fill="white"/>
    <path d="M48.6474 56.7567H44.5934V60.8108H48.6474V56.7567Z" fill="white"/>
    <path d="M52.7017 56.7567H48.6476V60.8108H52.7017V56.7567Z" fill="white"/>
    <path d="M56.7559 56.7567H52.7019V60.8108H56.7559V56.7567Z" fill="white"/>
    <path d="M60.8102 56.7567H56.7562V60.8108H60.8102V56.7567Z" fill="white"/>
    <path d="M64.863 56.7567H60.8089V60.8108H64.863V56.7567Z" fill="white"/>
    <path d="M72.9715 56.7567H68.9174V60.8108H72.9715V56.7567Z" fill="white"/>
    <path d="M81.08 56.7567H77.0259V60.8108H81.08V56.7567Z" fill="white"/>
    <path d="M97.297 56.7567H93.243V60.8108H97.297V56.7567Z" fill="white"/>
    <path d="M113.513 56.7567H109.458V60.8108H113.513V56.7567Z" fill="white"/>
    <path d="M117.568 56.7567H113.514V60.8108H117.568V56.7567Z" fill="white"/>
    <path d="M137.837 56.7567H133.783V60.8108H137.837V56.7567Z" fill="white"/>
    <path d="M12.1606 60.8108H8.10657V64.8649H12.1606V60.8108Z" fill="white"/>
    <path d="M24.3234 60.8108H20.2693V64.8649H24.3234V60.8108Z" fill="white"/>
    <path d="M28.3777 60.8108H24.3236V64.8649H28.3777V60.8108Z" fill="white"/>
    <path d="M32.4304 60.8108H28.3763V64.8649H32.4304V60.8108Z" fill="white"/>
    <path d="M40.5389 60.8108H36.4849V64.8649H40.5389V60.8108Z" fill="white"/>
    <path d="M44.5932 60.8108H40.5391V64.8649H44.5932V60.8108Z" fill="white"/>
    <path d="M48.6474 60.8108H44.5934V64.8649H48.6474V60.8108Z" fill="white"/>
    <path d="M64.863 60.8108H60.8089V64.8649H64.863V60.8108Z" fill="white"/>
    <path d="M68.9172 60.8108H64.8632V64.8649H68.9172V60.8108Z" fill="white"/>
    <path d="M81.08 60.8108H77.0259V64.8649H81.08V60.8108Z" fill="white"/>
    <path d="M85.1343 60.8108H81.0802V64.8649H85.1343V60.8108Z" fill="white"/>
    <path d="M89.187 60.8108H85.1329V64.8649H89.187V60.8108Z" fill="white"/>
    <path d="M93.2412 60.8108H89.1872V64.8649H93.2412V60.8108Z" fill="white"/>
    <path d="M105.404 60.8108H101.35V64.8649H105.404V60.8108Z" fill="white"/>
    <path d="M113.513 60.8108H109.458V64.8649H113.513V60.8108Z" fill="white"/>
    <path d="M129.728 60.8108H125.674V64.8649H129.728V60.8108Z" fill="white"/>
    <path d="M16.2149 64.8649H12.1608V68.9189H16.2149V64.8649Z" fill="white"/>
    <path d="M20.2691 64.8649H16.2151V68.9189H20.2691V64.8649Z" fill="white"/>
    <path d="M24.3234 64.8649H20.2693V68.9189H24.3234V64.8649Z" fill="white"/>
    <path d="M28.3777 64.8649H24.3236V68.9189H28.3777V64.8649Z" fill="white"/>
    <path d="M32.4304 64.8649H28.3763V68.9189H32.4304V64.8649Z" fill="white"/>
    <path d="M36.4847 64.8649H32.4306V68.9189H36.4847V64.8649Z" fill="white"/>
    <path d="M40.5389 64.8649H36.4849V68.9189H40.5389V64.8649Z" fill="white"/>
    <path d="M44.5932 64.8649H40.5391V68.9189H44.5932V64.8649Z" fill="white"/>
    <path d="M60.8102 64.8649H56.7562V68.9189H60.8102V64.8649Z" fill="white"/>
    <path d="M72.9715 64.8649H68.9174V68.9189H72.9715V64.8649Z" fill="white"/>
    <path d="M85.1343 64.8649H81.0802V68.9189H85.1343V64.8649Z" fill="white"/>
    <path d="M89.187 64.8649H85.1329V68.9189H89.187V64.8649Z" fill="white"/>
    <path d="M93.2412 64.8649H89.1872V68.9189H93.2412V64.8649Z" fill="white"/>
    <path d="M97.297 64.8649H93.243V68.9189H97.297V64.8649Z" fill="white"/>
    <path d="M121.62 64.8649H117.565V68.9189H121.62V64.8649Z" fill="white"/>
    <path d="M133.782 64.8649H129.728V68.9189H133.782V64.8649Z" fill="white"/>
    <path d="M20.2691 68.9189H16.2151V72.973H20.2691V68.9189Z" fill="white"/>
    <path d="M28.3777 68.9189H24.3236V72.973H28.3777V68.9189Z" fill="white"/>
    <path d="M48.6474 68.9189H44.5934V72.973H48.6474V68.9189Z" fill="white"/>
    <path d="M56.7559 68.9189H52.7019V72.973H56.7559V68.9189Z" fill="white"/>
    <path d="M64.863 68.9189H60.8089V72.973H64.863V68.9189Z" fill="white"/>
    <path d="M68.9172 68.9189H64.8632V72.973H68.9172V68.9189Z" fill="white"/>
    <path d="M77.0257 68.9189H72.9717V72.973H77.0257V68.9189Z" fill="white"/>
    <path d="M85.1343 68.9189H81.0802V72.973H85.1343V68.9189Z" fill="white"/>
    <path d="M93.2412 68.9189H89.1872V72.973H93.2412V68.9189Z" fill="white"/>
    <path d="M101.35 68.9189H97.2957V72.973H101.35V68.9189Z" fill="white"/>
    <path d="M109.458 68.9189H105.404V72.973H109.458V68.9189Z" fill="white"/>
    <path d="M121.62 68.9189H117.565V72.973H121.62V68.9189Z" fill="white"/>
    <path d="M129.728 68.9189H125.674V72.973H129.728V68.9189Z" fill="white"/>
    <path d="M133.782 68.9189H129.728V72.973H133.782V68.9189Z" fill="white"/>
    <path d="M141.891 68.9189H137.837V72.973H141.891V68.9189Z" fill="white"/>
    <path d="M12.1606 72.973H8.10657V77.027H12.1606V72.973Z" fill="white"/>
    <path d="M20.2691 72.973H16.2151V77.027H20.2691V72.973Z" fill="white"/>
    <path d="M24.3234 72.973H20.2693V77.027H24.3234V72.973Z" fill="white"/>
    <path d="M28.3777 72.973H24.3236V77.027H28.3777V72.973Z" fill="white"/>
    <path d="M32.4304 72.973H28.3763V77.027H32.4304V72.973Z" fill="white"/>
    <path d="M36.4847 72.973H32.4306V77.027H36.4847V72.973Z" fill="white"/>
    <path d="M44.5932 72.973H40.5391V77.027H44.5932V72.973Z" fill="white"/>
    <path d="M48.6474 72.973H44.5934V77.027H48.6474V72.973Z" fill="white"/>
    <path d="M52.7017 72.973H48.6476V77.027H52.7017V72.973Z" fill="white"/>
    <path d="M56.7559 72.973H52.7019V77.027H56.7559V72.973Z" fill="white"/>
    <path d="M68.9172 72.973H64.8632V77.027H68.9172V72.973Z" fill="white"/>
    <path d="M72.9715 72.973H68.9174V77.027H72.9715V72.973Z" fill="white"/>
    <path d="M77.0257 72.973H72.9717V77.027H77.0257V72.973Z" fill="white"/>
    <path d="M81.08 72.973H77.0259V77.027H81.08V72.973Z" fill="white"/>
    <path d="M93.2412 72.973H89.1872V77.027H93.2412V72.973Z" fill="white"/>
    <path d="M105.404 72.973H101.35V77.027H105.404V72.973Z" fill="white"/>
    <path d="M109.458 72.973H105.404V77.027H109.458V72.973Z" fill="white"/>
    <path d="M113.513 72.973H109.458V77.027H113.513V72.973Z" fill="white"/>
    <path d="M117.568 72.973H113.514V77.027H117.568V72.973Z" fill="white"/>
    <path d="M121.62 72.973H117.565V77.027H121.62V72.973Z" fill="white"/>
    <path d="M125.674 72.973H121.62V77.027H125.674V72.973Z" fill="white"/>
    <path d="M129.728 72.973H125.674V77.027H129.728V72.973Z" fill="white"/>
    <path d="M20.2691 77.027H16.2151V81.0811H20.2691V77.027Z" fill="white"/>
    <path d="M24.3234 77.027H20.2693V81.0811H24.3234V77.027Z" fill="white"/>
    <path d="M28.3777 77.027H24.3236V81.0811H28.3777V77.027Z" fill="white"/>
    <path d="M40.5389 77.027H36.4849V81.0811H40.5389V77.027Z" fill="white"/>
    <path d="M44.5932 77.027H40.5391V81.0811H44.5932V77.027Z" fill="white"/>
    <path d="M60.8102 77.027H56.7562V81.0811H60.8102V77.027Z" fill="white"/>
    <path d="M72.9715 77.027H68.9174V81.0811H72.9715V77.027Z" fill="white"/>
    <path d="M81.08 77.027H77.0259V81.0811H81.08V77.027Z" fill="white"/>
    <path d="M85.1343 77.027H81.0802V81.0811H85.1343V77.027Z" fill="white"/>
    <path d="M89.187 77.027H85.1329V81.0811H89.187V77.027Z" fill="white"/>
    <path d="M101.35 77.027H97.2957V81.0811H101.35V77.027Z" fill="white"/>
    <path d="M117.568 77.027H113.514V81.0811H117.568V77.027Z" fill="white"/>
    <path d="M125.674 77.027H121.62V81.0811H125.674V77.027Z" fill="white"/>
    <path d="M133.782 77.027H129.728V81.0811H133.782V77.027Z" fill="white"/>
    <path d="M141.891 77.027H137.837V81.0811H141.891V77.027Z" fill="white"/>
    <path d="M12.1606 81.0811H8.10657V85.1352H12.1606V81.0811Z" fill="white"/>
    <path d="M16.2149 81.0811H12.1608V85.1352H16.2149V81.0811Z" fill="white"/>
    <path d="M24.3234 81.0811H20.2693V85.1352H24.3234V81.0811Z" fill="white"/>
    <path d="M32.4304 81.0811H28.3763V85.1352H32.4304V81.0811Z" fill="white"/>
    <path d="M36.4847 81.0811H32.4306V85.1352H36.4847V81.0811Z" fill="white"/>
    <path d="M40.5389 81.0811H36.4849V85.1352H40.5389V81.0811Z" fill="white"/>
    <path d="M44.5932 81.0811H40.5391V85.1352H44.5932V81.0811Z" fill="white"/>
    <path d="M52.7017 81.0811H48.6476V85.1352H52.7017V81.0811Z" fill="white"/>
    <path d="M56.7559 81.0811H52.7019V85.1352H56.7559V81.0811Z" fill="white"/>
    <path d="M64.863 81.0811H60.8089V85.1352H64.863V81.0811Z" fill="white"/>
    <path d="M72.9715 81.0811H68.9174V85.1352H72.9715V81.0811Z" fill="white"/>
    <path d="M77.0257 81.0811H72.9717V85.1352H77.0257V81.0811Z" fill="white"/>
    <path d="M81.08 81.0811H77.0259V85.1352H81.08V81.0811Z" fill="white"/>
    <path d="M85.1343 81.0811H81.0802V85.1352H85.1343V81.0811Z" fill="white"/>
    <path d="M89.187 81.0811H85.1329V85.1352H89.187V81.0811Z" fill="white"/>
    <path d="M97.297 81.0811H93.243V85.1352H97.297V81.0811Z" fill="white"/>
    <path d="M101.35 81.0811H97.2957V85.1352H101.35V81.0811Z" fill="white"/>
    <path d="M105.404 81.0811H101.35V85.1352H105.404V81.0811Z" fill="white"/>
    <path d="M129.728 81.0811H125.674V85.1352H129.728V81.0811Z" fill="white"/>
    <path d="M133.782 81.0811H129.728V85.1352H133.782V81.0811Z" fill="white"/>
    <path d="M141.891 81.0811H137.837V85.1352H141.891V81.0811Z" fill="white"/>
    <path d="M16.2149 85.1352H12.1608V89.1892H16.2149V85.1352Z" fill="white"/>
    <path d="M20.2691 85.1352H16.2151V89.1892H20.2691V85.1352Z" fill="white"/>
    <path d="M32.4304 85.1352H28.3763V89.1892H32.4304V85.1352Z" fill="white"/>
    <path d="M44.5932 85.1352H40.5391V89.1892H44.5932V85.1352Z" fill="white"/>
    <path d="M52.7017 85.1352H48.6476V89.1892H52.7017V85.1352Z" fill="white"/>
    <path d="M72.9715 85.1352H68.9174V89.1892H72.9715V85.1352Z" fill="white"/>
    <path d="M89.187 85.1352H85.1329V89.1892H89.187V85.1352Z" fill="white"/>
    <path d="M101.35 85.1352H97.2957V89.1892H101.35V85.1352Z" fill="white"/>
    <path d="M109.458 85.1352H105.404V89.1892H109.458V85.1352Z" fill="white"/>
    <path d="M113.513 85.1352H109.458V89.1892H113.513V85.1352Z" fill="white"/>
    <path d="M121.62 85.1352H117.565V89.1892H121.62V85.1352Z" fill="white"/>
    <path d="M125.674 85.1352H121.62V89.1892H125.674V85.1352Z" fill="white"/>
    <path d="M129.728 85.1352H125.674V89.1892H129.728V85.1352Z" fill="white"/>
    <path d="M133.782 85.1352H129.728V89.1892H133.782V85.1352Z" fill="white"/>
    <path d="M137.837 85.1352H133.783V89.1892H137.837V85.1352Z" fill="white"/>
    <path d="M16.2149 89.1892H12.1608V93.2433H16.2149V89.1892Z" fill="white"/>
    <path d="M20.2691 89.1892H16.2151V93.2433H20.2691V89.1892Z" fill="white"/>
    <path d="M24.3234 89.1892H20.2693V93.2433H24.3234V89.1892Z" fill="white"/>
    <path d="M36.4847 89.1892H32.4306V93.2433H36.4847V89.1892Z" fill="white"/>
    <path d="M40.5389 89.1892H36.4849V93.2433H40.5389V89.1892Z" fill="white"/>
    <path d="M48.6474 89.1892H44.5934V93.2433H48.6474V89.1892Z" fill="white"/>
    <path d="M52.7017 89.1892H48.6476V93.2433H52.7017V89.1892Z" fill="white"/>
    <path d="M72.9715 89.1892H68.9174V93.2433H72.9715V89.1892Z" fill="white"/>
    <path d="M77.0257 89.1892H72.9717V93.2433H77.0257V89.1892Z" fill="white"/>
    <path d="M85.1343 89.1892H81.0802V93.2433H85.1343V89.1892Z" fill="white"/>
    <path d="M97.297 89.1892H93.243V93.2433H97.297V89.1892Z" fill="white"/>
    <path d="M101.35 89.1892H97.2957V93.2433H101.35V89.1892Z" fill="white"/>
    <path d="M109.458 89.1892H105.404V93.2433H109.458V89.1892Z" fill="white"/>
    <path d="M113.513 89.1892H109.458V93.2433H113.513V89.1892Z" fill="white"/>
    <path d="M121.62 89.1892H117.565V93.2433H121.62V89.1892Z" fill="white"/>
    <path d="M129.728 89.1892H125.674V93.2433H129.728V89.1892Z" fill="white"/>
    <path d="M137.837 89.1892H133.783V93.2433H137.837V89.1892Z" fill="white"/>
    <path d="M12.1606 93.2433H8.10657V97.2973H12.1606V93.2433Z" fill="white"/>
    <path d="M20.2691 93.2433H16.2151V97.2973H20.2691V93.2433Z" fill="white"/>
    <path d="M24.3234 93.2433H20.2693V97.2973H24.3234V93.2433Z" fill="white"/>
    <path d="M40.5389 93.2433H36.4849V97.2973H40.5389V93.2433Z" fill="white"/>
    <path d="M52.7017 93.2433H48.6476V97.2973H52.7017V93.2433Z" fill="white"/>
    <path d="M68.9172 93.2433H64.8632V97.2973H68.9172V93.2433Z" fill="white"/>
    <path d="M97.297 93.2433H93.243V97.2973H97.297V93.2433Z" fill="white"/>
    <path d="M105.404 93.2433H101.35V97.2973H105.404V93.2433Z" fill="white"/>
    <path d="M113.513 93.2433H109.458V97.2973H113.513V93.2433Z" fill="white"/>
    <path d="M125.674 93.2433H121.62V97.2973H125.674V93.2433Z" fill="white"/>
    <path d="M129.728 93.2433H125.674V97.2973H129.728V93.2433Z" fill="white"/>
    <path d="M133.782 93.2433H129.728V97.2973H133.782V93.2433Z" fill="white"/>
    <path d="M12.1606 97.2973H8.10657V101.351H12.1606V97.2973Z" fill="white"/>
    <path d="M20.2691 97.2973H16.2151V101.351H20.2691V97.2973Z" fill="white"/>
    <path d="M24.3234 97.2973H20.2693V101.351H24.3234V97.2973Z" fill="white"/>
    <path d="M32.4304 97.2973H28.3763V101.351H32.4304V97.2973Z" fill="white"/>
    <path d="M36.4847 97.2973H32.4306V101.351H36.4847V97.2973Z" fill="white"/>
    <path d="M44.5932 97.2973H40.5391V101.351H44.5932V97.2973Z" fill="white"/>
    <path d="M48.6474 97.2973H44.5934V101.351H48.6474V97.2973Z" fill="white"/>
    <path d="M52.7017 97.2973H48.6476V101.351H52.7017V97.2973Z" fill="white"/>
    <path d="M56.7559 97.2973H52.7019V101.351H56.7559V97.2973Z" fill="white"/>
    <path d="M68.9172 97.2973H64.8632V101.351H68.9172V97.2973Z" fill="white"/>
    <path d="M81.08 97.2973H77.0259V101.351H81.08V97.2973Z" fill="white"/>
    <path d="M85.1343 97.2973H81.0802V101.351H85.1343V97.2973Z" fill="white"/>
    <path d="M89.187 97.2973H85.1329V101.351H89.187V97.2973Z" fill="white"/>
    <path d="M93.2412 97.2973H89.1872V101.351H93.2412V97.2973Z" fill="white"/>
    <path d="M101.35 97.2973H97.2957V101.351H101.35V97.2973Z" fill="white"/>
    <path d="M105.404 97.2973H101.35V101.351H105.404V97.2973Z" fill="white"/>
    <path d="M109.458 97.2973H105.404V101.351H109.458V97.2973Z" fill="white"/>
    <path d="M113.513 97.2973H109.458V101.351H113.513V97.2973Z" fill="white"/>
    <path d="M117.568 97.2973H113.514V101.351H117.568V97.2973Z" fill="white"/>
    <path d="M121.62 97.2973H117.565V101.351H121.62V97.2973Z" fill="white"/>
    <path d="M133.782 97.2973H129.728V101.351H133.782V97.2973Z" fill="white"/>
    <path d="M137.837 97.2973H133.783V101.351H137.837V97.2973Z" fill="white"/>
    <path d="M141.891 97.2973H137.837V101.351H141.891V97.2973Z" fill="white"/>
    <path d="M12.1606 101.351H8.10657V105.405H12.1606V101.351Z" fill="white"/>
    <path d="M28.3777 101.351H24.3236V105.405H28.3777V101.351Z" fill="white"/>
    <path d="M32.4304 101.351H28.3763V105.405H32.4304V101.351Z" fill="white"/>
    <path d="M48.6474 101.351H44.5934V105.405H48.6474V101.351Z" fill="white"/>
    <path d="M56.7559 101.351H52.7019V105.405H56.7559V101.351Z" fill="white"/>
    <path d="M60.8102 101.351H56.7562V105.405H60.8102V101.351Z" fill="white"/>
    <path d="M68.9172 101.351H64.8632V105.405H68.9172V101.351Z" fill="white"/>
    <path d="M72.9715 101.351H68.9174V105.405H72.9715V101.351Z" fill="white"/>
    <path d="M81.08 101.351H77.0259V105.405H81.08V101.351Z" fill="white"/>
    <path d="M89.187 101.351H85.1329V105.405H89.187V101.351Z" fill="white"/>
    <path d="M93.2412 101.351H89.1872V105.405H93.2412V101.351Z" fill="white"/>
    <path d="M101.35 101.351H97.2957V105.405H101.35V101.351Z" fill="white"/>
    <path d="M117.568 101.351H113.514V105.405H117.568V101.351Z" fill="white"/>
    <path d="M125.674 101.351H121.62V105.405H125.674V101.351Z" fill="white"/>
    <path d="M129.728 101.351H125.674V105.405H129.728V101.351Z" fill="white"/>
    <path d="M133.782 101.351H129.728V105.405H133.782V101.351Z" fill="white"/>
    <path d="M137.837 101.351H133.783V105.405H137.837V101.351Z" fill="white"/>
    <path d="M12.1606 105.405H8.10657V109.459H12.1606V105.405Z" fill="white"/>
    <path d="M16.2149 105.405H12.1608V109.459H16.2149V105.405Z" fill="white"/>
    <path d="M24.3234 105.405H20.2693V109.459H24.3234V105.405Z" fill="white"/>
    <path d="M36.4847 105.405H32.4306V109.459H36.4847V105.405Z" fill="white"/>
    <path d="M40.5389 105.405H36.4849V109.459H40.5389V105.405Z" fill="white"/>
    <path d="M44.5932 105.405H40.5391V109.459H44.5932V105.405Z" fill="white"/>
    <path d="M48.6474 105.405H44.5934V109.459H48.6474V105.405Z" fill="white"/>
    <path d="M52.7017 105.405H48.6476V109.459H52.7017V105.405Z" fill="white"/>
    <path d="M64.863 105.405H60.8089V109.459H64.863V105.405Z" fill="white"/>
    <path d="M68.9172 105.405H64.8632V109.459H68.9172V105.405Z" fill="white"/>
    <path d="M93.2412 105.405H89.1872V109.459H93.2412V105.405Z" fill="white"/>
    <path d="M109.458 105.405H105.404V109.459H109.458V105.405Z" fill="white"/>
    <path d="M113.513 105.405H109.458V109.459H113.513V105.405Z" fill="white"/>
    <path d="M117.568 105.405H113.514V109.459H117.568V105.405Z" fill="white"/>
    <path d="M121.62 105.405H117.565V109.459H121.62V105.405Z" fill="white"/>
    <path d="M125.674 105.405H121.62V109.459H125.674V105.405Z" fill="white"/>
    <path d="M129.728 105.405H125.674V109.459H129.728V105.405Z" fill="white"/>
    <path d="M44.5932 109.46H40.5391V113.514H44.5932V109.46Z" fill="white"/>
    <path d="M68.9172 109.46H64.8632V113.514H68.9172V109.46Z" fill="white"/>
    <path d="M72.9715 109.46H68.9174V113.514H72.9715V109.46Z" fill="white"/>
    <path d="M77.0257 109.46H72.9717V113.514H77.0257V109.46Z" fill="white"/>
    <path d="M81.08 109.46H77.0259V113.514H81.08V109.46Z" fill="white"/>
    <path d="M85.1343 109.46H81.0802V113.514H85.1343V109.46Z" fill="white"/>
    <path d="M97.297 109.46H93.243V113.514H97.297V109.46Z" fill="white"/>
    <path d="M109.458 109.46H105.404V113.514H109.458V109.46Z" fill="white"/>
    <path d="M125.674 109.46H121.62V113.514H125.674V109.46Z" fill="white"/>
    <path d="M133.782 109.46H129.728V113.514H133.782V109.46Z" fill="white"/>
    <path d="M137.837 109.46H133.783V113.514H137.837V109.46Z" fill="white"/>
    <path d="M44.5932 113.514H40.5391V117.568H44.5932V113.514Z" fill="white"/>
    <path d="M52.7017 113.514H48.6476V117.568H52.7017V113.514Z" fill="white"/>
    <path d="M56.7559 113.514H52.7019V117.568H56.7559V113.514Z" fill="white"/>
    <path d="M64.863 113.514H60.8089V117.568H64.863V113.514Z" fill="white"/>
    <path d="M72.9715 113.514H68.9174V117.568H72.9715V113.514Z" fill="white"/>
    <path d="M81.08 113.514H77.0259V117.568H81.08V113.514Z" fill="white"/>
    <path d="M89.187 113.514H85.1329V117.568H89.187V113.514Z" fill="white"/>
    <path d="M93.2412 113.514H89.1872V117.568H93.2412V113.514Z" fill="white"/>
    <path d="M105.404 113.514H101.35V117.568H105.404V113.514Z" fill="white"/>
    <path d="M109.458 113.514H105.404V117.568H109.458V113.514Z" fill="white"/>
    <path d="M117.568 113.514H113.514V117.568H117.568V113.514Z" fill="white"/>
    <path d="M125.674 113.514H121.62V117.568H125.674V113.514Z" fill="white"/>
    <path d="M133.782 113.514H129.728V117.568H133.782V113.514Z" fill="white"/>
    <path d="M44.5932 117.568H40.5391V121.622H44.5932V117.568Z" fill="white"/>
    <path d="M48.6474 117.568H44.5934V121.622H48.6474V117.568Z" fill="white"/>
    <path d="M60.8102 117.568H56.7562V121.622H60.8102V117.568Z" fill="white"/>
    <path d="M64.863 117.568H60.8089V121.622H64.863V117.568Z" fill="white"/>
    <path d="M68.9172 117.568H64.8632V121.622H68.9172V117.568Z" fill="white"/>
    <path d="M81.08 117.568H77.0259V121.622H81.08V117.568Z" fill="white"/>
    <path d="M85.1343 117.568H81.0802V121.622H85.1343V117.568Z" fill="white"/>
    <path d="M89.187 117.568H85.1329V121.622H89.187V117.568Z" fill="white"/>
    <path d="M97.297 117.568H93.243V121.622H97.297V117.568Z" fill="white"/>
    <path d="M101.35 117.568H97.2957V121.622H101.35V117.568Z" fill="white"/>
    <path d="M105.404 117.568H101.35V121.622H105.404V117.568Z" fill="white"/>
    <path d="M109.458 117.568H105.404V121.622H109.458V117.568Z" fill="white"/>
    <path d="M125.674 117.568H121.62V121.622H125.674V117.568Z" fill="white"/>
    <path d="M133.782 117.568H129.728V121.622H133.782V117.568Z" fill="white"/>
    <path d="M137.837 117.568H133.783V121.622H137.837V117.568Z" fill="white"/>
    <path d="M44.5932 121.622H40.5391V125.676H44.5932V121.622Z" fill="white"/>
    <path d="M56.7559 121.622H52.7019V125.676H56.7559V121.622Z" fill="white"/>
    <path d="M68.9172 121.622H64.8632V125.676H68.9172V121.622Z" fill="white"/>
    <path d="M72.9715 121.622H68.9174V125.676H72.9715V121.622Z" fill="white"/>
    <path d="M77.0257 121.622H72.9717V125.676H77.0257V121.622Z" fill="white"/>
    <path d="M81.08 121.622H77.0259V125.676H81.08V121.622Z" fill="white"/>
    <path d="M89.187 121.622H85.1329V125.676H89.187V121.622Z" fill="white"/>
    <path d="M97.297 121.622H93.243V125.676H97.297V121.622Z" fill="white"/>
    <path d="M101.35 121.622H97.2957V125.676H101.35V121.622Z" fill="white"/>
    <path d="M105.404 121.622H101.35V125.676H105.404V121.622Z" fill="white"/>
    <path d="M109.458 121.622H105.404V125.676H109.458V121.622Z" fill="white"/>
    <path d="M113.513 121.622H109.458V125.676H113.513V121.622Z" fill="white"/>
    <path d="M117.568 121.622H113.514V125.676H117.568V121.622Z" fill="white"/>
    <path d="M121.62 121.622H117.565V125.676H121.62V121.622Z" fill="white"/>
    <path d="M125.674 121.622H121.62V125.676H125.674V121.622Z" fill="white"/>
    <path d="M137.837 121.622H133.783V125.676H137.837V121.622Z" fill="white"/>
    <path d="M44.5932 125.676H40.5391V129.73H44.5932V125.676Z" fill="white"/>
    <path d="M48.6474 125.676H44.5934V129.73H48.6474V125.676Z" fill="white"/>
    <path d="M52.7017 125.676H48.6476V129.73H52.7017V125.676Z" fill="white"/>
    <path d="M68.9172 125.676H64.8632V129.73H68.9172V125.676Z" fill="white"/>
    <path d="M77.0257 125.676H72.9717V129.73H77.0257V125.676Z" fill="white"/>
    <path d="M85.1343 125.676H81.0802V129.73H85.1343V125.676Z" fill="white"/>
    <path d="M101.35 125.676H97.2957V129.73H101.35V125.676Z" fill="white"/>
    <path d="M105.404 125.676H101.35V129.73H105.404V125.676Z" fill="white"/>
    <path d="M109.458 125.676H105.404V129.73H109.458V125.676Z" fill="white"/>
    <path d="M113.513 125.676H109.458V129.73H113.513V125.676Z" fill="white"/>
    <path d="M141.891 125.676H137.837V129.73H141.891V125.676Z" fill="white"/>
    <path d="M48.6474 129.73H44.5934V133.784H48.6474V129.73Z" fill="white"/>
    <path d="M56.7559 129.73H52.7019V133.784H56.7559V129.73Z" fill="white"/>
    <path d="M72.9715 129.73H68.9174V133.784H72.9715V129.73Z" fill="white"/>
    <path d="M81.08 129.73H77.0259V133.784H81.08V129.73Z" fill="white"/>
    <path d="M89.187 129.73H85.1329V133.784H89.187V129.73Z" fill="white"/>
    <path d="M101.35 129.73H97.2957V133.784H101.35V129.73Z" fill="white"/>
    <path d="M105.404 129.73H101.35V133.784H105.404V129.73Z" fill="white"/>
    <path d="M121.62 129.73H117.565V133.784H121.62V129.73Z" fill="white"/>
    <path d="M125.674 129.73H121.62V133.784H125.674V129.73Z" fill="white"/>
    <path d="M133.782 129.73H129.728V133.784H133.782V129.73Z" fill="white"/>
    <path d="M137.837 129.73H133.783V133.784H137.837V129.73Z" fill="white"/>
    <path d="M141.891 129.73H137.837V133.784H141.891V129.73Z" fill="white"/>
    <path d="M48.6474 133.784H44.5934V137.838H48.6474V133.784Z" fill="white"/>
    <path d="M60.8102 133.784H56.7562V137.838H60.8102V133.784Z" fill="white"/>
    <path d="M64.863 133.784H60.8089V137.838H64.863V133.784Z" fill="white"/>
    <path d="M85.1343 133.784H81.0802V137.838H85.1343V133.784Z" fill="white"/>
    <path d="M89.187 133.784H85.1329V137.838H89.187V133.784Z" fill="white"/>
    <path d="M93.2412 133.784H89.1872V137.838H93.2412V133.784Z" fill="white"/>
    <path d="M101.35 133.784H97.2957V137.838H101.35V133.784Z" fill="white"/>
    <path d="M113.513 133.784H109.458V137.838H113.513V133.784Z" fill="white"/>
    <path d="M117.568 133.784H113.514V137.838H117.568V133.784Z" fill="white"/>
    <path d="M125.674 133.784H121.62V137.838H125.674V133.784Z" fill="white"/>
    <path d="M133.782 133.784H129.728V137.838H133.782V133.784Z" fill="white"/>
    <path d="M137.837 133.784H133.783V137.838H137.837V133.784Z" fill="white"/>
    <path d="M141.891 133.784H137.837V137.838H141.891V133.784Z" fill="white"/>
    <path d="M44.5932 137.838H40.5391V141.892H44.5932V137.838Z" fill="white"/>
    <path d="M60.8102 137.838H56.7562V141.892H60.8102V137.838Z" fill="white"/>
    <path d="M68.9172 137.838H64.8632V141.892H68.9172V137.838Z" fill="white"/>
    <path d="M72.9715 137.838H68.9174V141.892H72.9715V137.838Z" fill="white"/>
    <path d="M77.0257 137.838H72.9717V141.892H77.0257V137.838Z" fill="white"/>
    <path d="M81.08 137.838H77.0259V141.892H81.08V137.838Z" fill="white"/>
    <path d="M89.187 137.838H85.1329V141.892H89.187V137.838Z" fill="white"/>
    <path d="M109.458 137.838H105.404V141.892H109.458V137.838Z" fill="white"/>
    <path d="M113.513 137.838H109.458V141.892H113.513V137.838Z" fill="white"/>
    <path d="M117.568 137.838H113.514V141.892H117.568V137.838Z" fill="white"/>
    <path d="M121.62 137.838H117.565V141.892H121.62V137.838Z" fill="white"/>
    <path d="M129.728 137.838H125.674V141.892H129.728V137.838Z" fill="white"/>
    <path d="M32.229 8.10812H12.3641H8.10736V12.3649V32.2297V36.4865H12.3641H32.229H36.4857V32.2297V12.3649V8.10812H32.229ZM32.229 32.2297H12.3641V12.3649H32.229V32.2297Z" fill="white"/>
    <path d="M137.636 8.10809H117.771H113.514V12.3649V32.2297V36.4865H117.771H137.636H141.893V32.2297V12.3649V8.10809H137.636ZM137.636 32.2297H117.771V12.3649H137.636V32.2297Z" fill="white"/>
    <path d="M32.2282 113.514H12.3633H8.10657V117.77V137.635V141.892H12.3633H32.2282H36.4849V137.635V117.77V113.514H32.2282ZM32.2282 137.635H12.3633V117.77H32.2282V137.635Z" fill="white"/>
    <path d="M28.3772 16.2162H16.2151V28.3784H28.3772V16.2162Z" fill="white"/>
    <path d="M133.782 16.2162H121.62V28.3784H133.782V16.2162Z" fill="white"/>
    <path d="M28.3772 121.622H16.2151V133.784H28.3772V121.622Z" fill="white"/>
</svg>
