<svg width="150" height="150" viewBox="0 0 150 150" fill="none" xmlns="http://www.w3.org/2000/svg">
    <path d="M52.7027 8.10809H48.6487V12.1622H52.7027V8.10809Z" fill="white"/>
    <path d="M56.7568 8.10809H52.7027V12.1622H56.7568V8.10809Z" fill="white"/>
    <path d="M64.8648 8.10809H60.8108V12.1622H64.8648V8.10809Z" fill="white"/>
    <path d="M68.9189 8.10809H64.8649V12.1622H68.9189V8.10809Z" fill="white"/>
    <path d="M72.9729 8.10809H68.9189V12.1622H72.9729V8.10809Z" fill="white"/>
    <path d="M77.027 8.10809H72.973V12.1622H77.027V8.10809Z" fill="white"/>
    <path d="M81.0811 8.10809H77.027V12.1622H81.0811V8.10809Z" fill="white"/>
    <path d="M89.1892 8.10809H85.1351V12.1622H89.1892V8.10809Z" fill="white"/>
    <path d="M101.351 8.10809H97.2973V12.1622H101.351V8.10809Z" fill="white"/>
    <path d="M105.405 8.10809H101.351V12.1622H105.405V8.10809Z" fill="white"/>
    <path d="M48.6487 12.1621H44.5946V16.2162H48.6487V12.1621Z" fill="white"/>
    <path d="M52.7027 12.1621H48.6487V16.2162H52.7027V12.1621Z" fill="white"/>
    <path d="M56.7568 12.1621H52.7027V16.2162H56.7568V12.1621Z" fill="white"/>
    <path d="M60.8108 12.1621H56.7567V16.2162H60.8108V12.1621Z" fill="white"/>
    <path d="M64.8648 12.1621H60.8108V16.2162H64.8648V12.1621Z" fill="white"/>
    <path d="M68.9189 12.1621H64.8649V16.2162H68.9189V12.1621Z" fill="white"/>
    <path d="M72.9729 12.1621H68.9189V16.2162H72.9729V12.1621Z" fill="white"/>
    <path d="M77.027 12.1621H72.973V16.2162H77.027V12.1621Z" fill="white"/>
    <path d="M85.1351 12.1621H81.0811V16.2162H85.1351V12.1621Z" fill="white"/>
    <path d="M93.2432 12.1621H89.1892V16.2162H93.2432V12.1621Z" fill="white"/>
    <path d="M97.2973 12.1621H93.2432V16.2162H97.2973V12.1621Z" fill="white"/>
    <path d="M101.351 12.1621H97.2973V16.2162H101.351V12.1621Z" fill="white"/>
    <path d="M105.405 12.1621H101.351V16.2162H105.405V12.1621Z" fill="white"/>
    <path d="M48.6487 16.2162H44.5946V20.2702H48.6487V16.2162Z" fill="white"/>
    <path d="M56.7568 16.2162H52.7027V20.2702H56.7568V16.2162Z" fill="white"/>
    <path d="M60.8108 16.2162H56.7567V20.2702H60.8108V16.2162Z" fill="white"/>
    <path d="M64.8648 16.2162H60.8108V20.2702H64.8648V16.2162Z" fill="white"/>
    <path d="M85.1351 16.2162H81.0811V20.2702H85.1351V16.2162Z" fill="white"/>
    <path d="M89.1892 16.2162H85.1351V20.2702H89.1892V16.2162Z" fill="white"/>
    <path d="M93.2432 16.2162H89.1892V20.2702H93.2432V16.2162Z" fill="white"/>
    <path d="M101.351 16.2162H97.2973V20.2702H101.351V16.2162Z" fill="white"/>
    <path d="M105.405 16.2162H101.351V20.2702H105.405V16.2162Z" fill="white"/>
    <path d="M52.7027 20.2703H48.6487V24.3243H52.7027V20.2703Z" fill="white"/>
    <path d="M64.8648 20.2703H60.8108V24.3243H64.8648V20.2703Z" fill="white"/>
    <path d="M68.9189 20.2703H64.8649V24.3243H68.9189V20.2703Z" fill="white"/>
    <path d="M72.9729 20.2703H68.9189V24.3243H72.9729V20.2703Z" fill="white"/>
    <path d="M77.027 20.2703H72.973V24.3243H77.027V20.2703Z" fill="white"/>
    <path d="M81.0811 20.2703H77.027V24.3243H81.0811V20.2703Z" fill="white"/>
    <path d="M85.1351 20.2703H81.0811V24.3243H85.1351V20.2703Z" fill="white"/>
    <path d="M93.2432 20.2703H89.1892V24.3243H93.2432V20.2703Z" fill="white"/>
    <path d="M101.351 20.2703H97.2973V24.3243H101.351V20.2703Z" fill="white"/>
    <path d="M109.459 20.2703H105.405V24.3243H109.459V20.2703Z" fill="white"/>
    <path d="M56.7568 24.3243H52.7027V28.3784H56.7568V24.3243Z" fill="white"/>
    <path d="M60.8108 24.3243H56.7567V28.3784H60.8108V24.3243Z" fill="white"/>
    <path d="M68.9189 24.3243H64.8649V28.3784H68.9189V24.3243Z" fill="white"/>
    <path d="M85.1351 24.3243H81.0811V28.3784H85.1351V24.3243Z" fill="white"/>
    <path d="M89.1892 24.3243H85.1351V28.3784H89.1892V24.3243Z" fill="white"/>
    <path d="M93.2432 24.3243H89.1892V28.3784H93.2432V24.3243Z" fill="white"/>
    <path d="M105.405 24.3243H101.351V28.3784H105.405V24.3243Z" fill="white"/>
    <path d="M44.5946 28.3784H40.5405V32.4324H44.5946V28.3784Z" fill="white"/>
    <path d="M48.6487 28.3784H44.5946V32.4324H48.6487V28.3784Z" fill="white"/>
    <path d="M56.7568 28.3784H52.7027V32.4324H56.7568V28.3784Z" fill="white"/>
    <path d="M64.8648 28.3784H60.8108V32.4324H64.8648V28.3784Z" fill="white"/>
    <path d="M72.9729 28.3784H68.9189V32.4324H72.9729V28.3784Z" fill="white"/>
    <path d="M77.027 28.3784H72.973V32.4324H77.027V28.3784Z" fill="white"/>
    <path d="M81.0811 28.3784H77.027V32.4324H81.0811V28.3784Z" fill="white"/>
    <path d="M85.1351 28.3784H81.0811V32.4324H85.1351V28.3784Z" fill="white"/>
    <path d="M89.1892 28.3784H85.1351V32.4324H89.1892V28.3784Z" fill="white"/>
    <path d="M97.2973 28.3784H93.2432V32.4324H97.2973V28.3784Z" fill="white"/>
    <path d="M101.351 28.3784H97.2973V32.4324H101.351V28.3784Z" fill="white"/>
    <path d="M109.459 28.3784H105.405V32.4324H109.459V28.3784Z" fill="white"/>
    <path d="M44.5946 32.4324H40.5405V36.4865H44.5946V32.4324Z" fill="white"/>
    <path d="M52.7027 32.4324H48.6487V36.4865H52.7027V32.4324Z" fill="white"/>
    <path d="M60.8108 32.4324H56.7567V36.4865H60.8108V32.4324Z" fill="white"/>
    <path d="M68.9189 32.4324H64.8649V36.4865H68.9189V32.4324Z" fill="white"/>
    <path d="M77.027 32.4324H72.973V36.4865H77.027V32.4324Z" fill="white"/>
    <path d="M85.1351 32.4324H81.0811V36.4865H85.1351V32.4324Z" fill="white"/>
    <path d="M93.2432 32.4324H89.1892V36.4865H93.2432V32.4324Z" fill="white"/>
    <path d="M101.351 32.4324H97.2973V36.4865H101.351V32.4324Z" fill="white"/>
    <path d="M109.459 32.4324H105.405V36.4865H109.459V32.4324Z" fill="white"/>
    <path d="M60.8108 36.4865H56.7567V40.5405H60.8108V36.4865Z" fill="white"/>
    <path d="M68.9189 36.4865H64.8649V40.5405H68.9189V36.4865Z" fill="white"/>
    <path d="M72.9729 36.4865H68.9189V40.5405H72.9729V36.4865Z" fill="white"/>
    <path d="M77.027 36.4865H72.973V40.5405H77.027V36.4865Z" fill="white"/>
    <path d="M81.0811 36.4865H77.027V40.5405H81.0811V36.4865Z" fill="white"/>
    <path d="M97.2973 36.4865H93.2432V40.5405H97.2973V36.4865Z" fill="white"/>
    <path d="M105.405 36.4865H101.351V40.5405H105.405V36.4865Z" fill="white"/>
    <path d="M12.1622 40.5405H8.10809V44.5946H12.1622V40.5405Z" fill="white"/>
    <path d="M24.3243 40.5405H20.2703V44.5946H24.3243V40.5405Z" fill="white"/>
    <path d="M32.4324 40.5405H28.3784V44.5946H32.4324V40.5405Z" fill="white"/>
    <path d="M36.4865 40.5405H32.4324V44.5946H36.4865V40.5405Z" fill="white"/>
    <path d="M44.5946 40.5405H40.5405V44.5946H44.5946V40.5405Z" fill="white"/>
    <path d="M48.6487 40.5405H44.5946V44.5946H48.6487V40.5405Z" fill="white"/>
    <path d="M60.8108 40.5405H56.7567V44.5946H60.8108V40.5405Z" fill="white"/>
    <path d="M64.8648 40.5405H60.8108V44.5946H64.8648V40.5405Z" fill="white"/>
    <path d="M97.2973 40.5405H93.2432V44.5946H97.2973V40.5405Z" fill="white"/>
    <path d="M105.405 40.5405H101.351V44.5946H105.405V40.5405Z" fill="white"/>
    <path d="M109.459 40.5405H105.405V44.5946H109.459V40.5405Z" fill="white"/>
    <path d="M113.514 40.5405H109.459V44.5946H113.514V40.5405Z" fill="white"/>
    <path d="M121.622 40.5405H117.568V44.5946H121.622V40.5405Z" fill="white"/>
    <path d="M12.1622 44.5946H8.10809V48.6487H12.1622V44.5946Z" fill="white"/>
    <path d="M32.4324 44.5946H28.3784V48.6487H32.4324V44.5946Z" fill="white"/>
    <path d="M52.7027 44.5946H48.6487V48.6487H52.7027V44.5946Z" fill="white"/>
    <path d="M56.7568 44.5946H52.7027V48.6487H56.7568V44.5946Z" fill="white"/>
    <path d="M64.8648 44.5946H60.8108V48.6487H64.8648V44.5946Z" fill="white"/>
    <path d="M68.9189 44.5946H64.8649V48.6487H68.9189V44.5946Z" fill="white"/>
    <path d="M77.027 44.5946H72.973V48.6487H77.027V44.5946Z" fill="white"/>
    <path d="M81.0811 44.5946H77.027V48.6487H81.0811V44.5946Z" fill="white"/>
    <path d="M101.351 44.5946H97.2973V48.6487H101.351V44.5946Z" fill="white"/>
    <path d="M109.459 44.5946H105.405V48.6487H109.459V44.5946Z" fill="white"/>
    <path d="M113.514 44.5946H109.459V48.6487H113.514V44.5946Z" fill="white"/>
    <path d="M117.568 44.5946H113.513V48.6487H117.568V44.5946Z" fill="white"/>
    <path d="M121.622 44.5946H117.568V48.6487H121.622V44.5946Z" fill="white"/>
    <path d="M137.838 44.5946H133.784V48.6487H137.838V44.5946Z" fill="white"/>
    <path d="M141.892 44.5946H137.838V48.6487H141.892V44.5946Z" fill="white"/>
    <path d="M12.1622 48.6487H8.10809V52.7027H12.1622V48.6487Z" fill="white"/>
    <path d="M16.2162 48.6487H12.1621V52.7027H16.2162V48.6487Z" fill="white"/>
    <path d="M28.3784 48.6487H24.3243V52.7027H28.3784V48.6487Z" fill="white"/>
    <path d="M36.4865 48.6487H32.4324V52.7027H36.4865V48.6487Z" fill="white"/>
    <path d="M44.5946 48.6487H40.5405V52.7027H44.5946V48.6487Z" fill="white"/>
    <path d="M48.6487 48.6487H44.5946V52.7027H48.6487V48.6487Z" fill="white"/>
    <path d="M52.7027 48.6487H48.6487V52.7027H52.7027V48.6487Z" fill="white"/>
    <path d="M56.7568 48.6487H52.7027V52.7027H56.7568V48.6487Z" fill="white"/>
    <path d="M60.8108 48.6487H56.7567V52.7027H60.8108V48.6487Z" fill="white"/>
    <path d="M64.8648 48.6487H60.8108V52.7027H64.8648V48.6487Z" fill="white"/>
    <path d="M68.9189 48.6487H64.8649V52.7027H68.9189V48.6487Z" fill="white"/>
    <path d="M85.1351 48.6487H81.0811V52.7027H85.1351V48.6487Z" fill="white"/>
    <path d="M89.1892 48.6487H85.1351V52.7027H89.1892V48.6487Z" fill="white"/>
    <path d="M97.2973 48.6487H93.2432V52.7027H97.2973V48.6487Z" fill="white"/>
    <path d="M117.568 48.6487H113.513V52.7027H117.568V48.6487Z" fill="white"/>
    <path d="M121.622 48.6487H117.568V52.7027H121.622V48.6487Z" fill="white"/>
    <path d="M125.676 48.6487H121.622V52.7027H125.676V48.6487Z" fill="white"/>
    <path d="M133.784 48.6487H129.73V52.7027H133.784V48.6487Z" fill="white"/>
    <path d="M137.838 48.6487H133.784V52.7027H137.838V48.6487Z" fill="white"/>
    <path d="M141.892 48.6487H137.838V52.7027H141.892V48.6487Z" fill="white"/>
    <path d="M12.1622 52.7027H8.10809V56.7567H12.1622V52.7027Z" fill="white"/>
    <path d="M28.3784 52.7027H24.3243V56.7567H28.3784V52.7027Z" fill="white"/>
    <path d="M48.6487 52.7027H44.5946V56.7567H48.6487V52.7027Z" fill="white"/>
    <path d="M60.8108 52.7027H56.7567V56.7567H60.8108V52.7027Z" fill="white"/>
    <path d="M64.8648 52.7027H60.8108V56.7567H64.8648V52.7027Z" fill="white"/>
    <path d="M85.1351 52.7027H81.0811V56.7567H85.1351V52.7027Z" fill="white"/>
    <path d="M89.1892 52.7027H85.1351V56.7567H89.1892V52.7027Z" fill="white"/>
    <path d="M97.2973 52.7027H93.2432V56.7567H97.2973V52.7027Z" fill="white"/>
    <path d="M101.351 52.7027H97.2973V56.7567H101.351V52.7027Z" fill="white"/>
    <path d="M125.676 52.7027H121.622V56.7567H125.676V52.7027Z" fill="white"/>
    <path d="M129.73 52.7027H125.676V56.7567H129.73V52.7027Z" fill="white"/>
    <path d="M137.838 52.7027H133.784V56.7567H137.838V52.7027Z" fill="white"/>
    <path d="M141.892 52.7027H137.838V56.7567H141.892V52.7027Z" fill="white"/>
    <path d="M12.1622 56.7567H8.10809V60.8108H12.1622V56.7567Z" fill="white"/>
    <path d="M16.2162 56.7567H12.1621V60.8108H16.2162V56.7567Z" fill="white"/>
    <path d="M24.3243 56.7567H20.2703V60.8108H24.3243V56.7567Z" fill="white"/>
    <path d="M32.4324 56.7567H28.3784V60.8108H32.4324V56.7567Z" fill="white"/>
    <path d="M36.4865 56.7567H32.4324V60.8108H36.4865V56.7567Z" fill="white"/>
    <path d="M40.5405 56.7567H36.4865V60.8108H40.5405V56.7567Z" fill="white"/>
    <path d="M60.8108 56.7567H56.7567V60.8108H60.8108V56.7567Z" fill="white"/>
    <path d="M68.9189 56.7567H64.8649V60.8108H68.9189V56.7567Z" fill="white"/>
    <path d="M77.027 56.7567H72.973V60.8108H77.027V56.7567Z" fill="white"/>
    <path d="M85.1351 56.7567H81.0811V60.8108H85.1351V56.7567Z" fill="white"/>
    <path d="M89.1892 56.7567H85.1351V60.8108H89.1892V56.7567Z" fill="white"/>
    <path d="M93.2432 56.7567H89.1892V60.8108H93.2432V56.7567Z" fill="white"/>
    <path d="M101.351 56.7567H97.2973V60.8108H101.351V56.7567Z" fill="white"/>
    <path d="M109.459 56.7567H105.405V60.8108H109.459V56.7567Z" fill="white"/>
    <path d="M113.514 56.7567H109.459V60.8108H113.514V56.7567Z" fill="white"/>
    <path d="M117.568 56.7567H113.513V60.8108H117.568V56.7567Z" fill="white"/>
    <path d="M129.73 56.7567H125.676V60.8108H129.73V56.7567Z" fill="white"/>
    <path d="M141.892 56.7567H137.838V60.8108H141.892V56.7567Z" fill="white"/>
    <path d="M16.2162 60.8108H12.1621V64.8648H16.2162V60.8108Z" fill="white"/>
    <path d="M20.2702 60.8108H16.2162V64.8648H20.2702V60.8108Z" fill="white"/>
    <path d="M24.3243 60.8108H20.2703V64.8648H24.3243V60.8108Z" fill="white"/>
    <path d="M28.3784 60.8108H24.3243V64.8648H28.3784V60.8108Z" fill="white"/>
    <path d="M48.6487 60.8108H44.5946V64.8648H48.6487V60.8108Z" fill="white"/>
    <path d="M52.7027 60.8108H48.6487V64.8648H52.7027V60.8108Z" fill="white"/>
    <path d="M56.7568 60.8108H52.7027V64.8648H56.7568V60.8108Z" fill="white"/>
    <path d="M68.9189 60.8108H64.8649V64.8648H68.9189V60.8108Z" fill="white"/>
    <path d="M72.9729 60.8108H68.9189V64.8648H72.9729V60.8108Z" fill="white"/>
    <path d="M81.0811 60.8108H77.027V64.8648H81.0811V60.8108Z" fill="white"/>
    <path d="M85.1351 60.8108H81.0811V64.8648H85.1351V60.8108Z" fill="white"/>
    <path d="M93.2432 60.8108H89.1892V64.8648H93.2432V60.8108Z" fill="white"/>
    <path d="M97.2973 60.8108H93.2432V64.8648H97.2973V60.8108Z" fill="white"/>
    <path d="M101.351 60.8108H97.2973V64.8648H101.351V60.8108Z" fill="white"/>
    <path d="M109.459 60.8108H105.405V64.8648H109.459V60.8108Z" fill="white"/>
    <path d="M117.568 60.8108H113.513V64.8648H117.568V60.8108Z" fill="white"/>
    <path d="M125.676 60.8108H121.622V64.8648H125.676V60.8108Z" fill="white"/>
    <path d="M133.784 60.8108H129.73V64.8648H133.784V60.8108Z" fill="white"/>
    <path d="M137.838 60.8108H133.784V64.8648H137.838V60.8108Z" fill="white"/>
    <path d="M141.892 60.8108H137.838V64.8648H141.892V60.8108Z" fill="white"/>
    <path d="M16.2162 64.8649H12.1621V68.9189H16.2162V64.8649Z" fill="white"/>
    <path d="M24.3243 64.8649H20.2703V68.9189H24.3243V64.8649Z" fill="white"/>
    <path d="M32.4324 64.8649H28.3784V68.9189H32.4324V64.8649Z" fill="white"/>
    <path d="M36.4865 64.8649H32.4324V68.9189H36.4865V64.8649Z" fill="white"/>
    <path d="M40.5405 64.8649H36.4865V68.9189H40.5405V64.8649Z" fill="white"/>
    <path d="M48.6487 64.8649H44.5946V68.9189H48.6487V64.8649Z" fill="white"/>
    <path d="M56.7568 64.8649H52.7027V68.9189H56.7568V64.8649Z" fill="white"/>
    <path d="M64.8648 64.8649H60.8108V68.9189H64.8648V64.8649Z" fill="white"/>
    <path d="M72.9729 64.8649H68.9189V68.9189H72.9729V64.8649Z" fill="white"/>
    <path d="M77.027 64.8649H72.973V68.9189H77.027V64.8649Z" fill="white"/>
    <path d="M89.1892 64.8649H85.1351V68.9189H89.1892V64.8649Z" fill="white"/>
    <path d="M97.2973 64.8649H93.2432V68.9189H97.2973V64.8649Z" fill="white"/>
    <path d="M101.351 64.8649H97.2973V68.9189H101.351V64.8649Z" fill="white"/>
    <path d="M105.405 64.8649H101.351V68.9189H105.405V64.8649Z" fill="white"/>
    <path d="M109.459 64.8649H105.405V68.9189H109.459V64.8649Z" fill="white"/>
    <path d="M113.514 64.8649H109.459V68.9189H113.514V64.8649Z" fill="white"/>
    <path d="M117.568 64.8649H113.513V68.9189H117.568V64.8649Z" fill="white"/>
    <path d="M121.622 64.8649H117.568V68.9189H121.622V64.8649Z" fill="white"/>
    <path d="M125.676 64.8649H121.622V68.9189H125.676V64.8649Z" fill="white"/>
    <path d="M129.73 64.8649H125.676V68.9189H129.73V64.8649Z" fill="white"/>
    <path d="M137.838 64.8649H133.784V68.9189H137.838V64.8649Z" fill="white"/>
    <path d="M20.2702 68.9189H16.2162V72.973H20.2702V68.9189Z" fill="white"/>
    <path d="M28.3784 68.9189H24.3243V72.973H28.3784V68.9189Z" fill="white"/>
    <path d="M44.5946 68.9189H40.5405V72.973H44.5946V68.9189Z" fill="white"/>
    <path d="M60.8108 68.9189H56.7567V72.973H60.8108V68.9189Z" fill="white"/>
    <path d="M64.8648 68.9189H60.8108V72.973H64.8648V68.9189Z" fill="white"/>
    <path d="M68.9189 68.9189H64.8649V72.973H68.9189V68.9189Z" fill="white"/>
    <path d="M77.027 68.9189H72.973V72.973H77.027V68.9189Z" fill="white"/>
    <path d="M81.0811 68.9189H77.027V72.973H81.0811V68.9189Z" fill="white"/>
    <path d="M93.2432 68.9189H89.1892V72.973H93.2432V68.9189Z" fill="white"/>
    <path d="M97.2973 68.9189H93.2432V72.973H97.2973V68.9189Z" fill="white"/>
    <path d="M109.459 68.9189H105.405V72.973H109.459V68.9189Z" fill="white"/>
    <path d="M117.568 68.9189H113.513V72.973H117.568V68.9189Z" fill="white"/>
    <path d="M121.622 68.9189H117.568V72.973H121.622V68.9189Z" fill="white"/>
    <path d="M125.676 68.9189H121.622V72.973H125.676V68.9189Z" fill="white"/>
    <path d="M129.73 68.9189H125.676V72.973H129.73V68.9189Z" fill="white"/>
    <path d="M137.838 68.9189H133.784V72.973H137.838V68.9189Z" fill="white"/>
    <path d="M12.1622 72.973H8.10809V77.027H12.1622V72.973Z" fill="white"/>
    <path d="M16.2162 72.973H12.1621V77.027H16.2162V72.973Z" fill="white"/>
    <path d="M20.2702 72.973H16.2162V77.027H20.2702V72.973Z" fill="white"/>
    <path d="M24.3243 72.973H20.2703V77.027H24.3243V72.973Z" fill="white"/>
    <path d="M28.3784 72.973H24.3243V77.027H28.3784V72.973Z" fill="white"/>
    <path d="M32.4324 72.973H28.3784V77.027H32.4324V72.973Z" fill="white"/>
    <path d="M36.4865 72.973H32.4324V77.027H36.4865V72.973Z" fill="white"/>
    <path d="M40.5405 72.973H36.4865V77.027H40.5405V72.973Z" fill="white"/>
    <path d="M48.6487 72.973H44.5946V77.027H48.6487V72.973Z" fill="white"/>
    <path d="M60.8108 72.973H56.7567V77.027H60.8108V72.973Z" fill="white"/>
    <path d="M64.8648 72.973H60.8108V77.027H64.8648V72.973Z" fill="white"/>
    <path d="M72.9729 72.973H68.9189V77.027H72.9729V72.973Z" fill="white"/>
    <path d="M77.027 72.973H72.973V77.027H77.027V72.973Z" fill="white"/>
    <path d="M81.0811 72.973H77.027V77.027H81.0811V72.973Z" fill="white"/>
    <path d="M93.2432 72.973H89.1892V77.027H93.2432V72.973Z" fill="white"/>
    <path d="M97.2973 72.973H93.2432V77.027H97.2973V72.973Z" fill="white"/>
    <path d="M101.351 72.973H97.2973V77.027H101.351V72.973Z" fill="white"/>
    <path d="M105.405 72.973H101.351V77.027H105.405V72.973Z" fill="white"/>
    <path d="M109.459 72.973H105.405V77.027H109.459V72.973Z" fill="white"/>
    <path d="M117.568 72.973H113.513V77.027H117.568V72.973Z" fill="white"/>
    <path d="M125.676 72.973H121.622V77.027H125.676V72.973Z" fill="white"/>
    <path d="M129.73 72.973H125.676V77.027H129.73V72.973Z" fill="white"/>
    <path d="M137.838 72.973H133.784V77.027H137.838V72.973Z" fill="white"/>
    <path d="M20.2702 77.027H16.2162V81.0811H20.2702V77.027Z" fill="white"/>
    <path d="M44.5946 77.027H40.5405V81.0811H44.5946V77.027Z" fill="white"/>
    <path d="M52.7027 77.027H48.6487V81.0811H52.7027V77.027Z" fill="white"/>
    <path d="M56.7568 77.027H52.7027V81.0811H56.7568V77.027Z" fill="white"/>
    <path d="M60.8108 77.027H56.7567V81.0811H60.8108V77.027Z" fill="white"/>
    <path d="M77.027 77.027H72.973V81.0811H77.027V77.027Z" fill="white"/>
    <path d="M81.0811 77.027H77.027V81.0811H81.0811V77.027Z" fill="white"/>
    <path d="M85.1351 77.027H81.0811V81.0811H85.1351V77.027Z" fill="white"/>
    <path d="M101.351 77.027H97.2973V81.0811H101.351V77.027Z" fill="white"/>
    <path d="M105.405 77.027H101.351V81.0811H105.405V77.027Z" fill="white"/>
    <path d="M109.459 77.027H105.405V81.0811H109.459V77.027Z" fill="white"/>
    <path d="M121.622 77.027H117.568V81.0811H121.622V77.027Z" fill="white"/>
    <path d="M129.73 77.027H125.676V81.0811H129.73V77.027Z" fill="white"/>
    <path d="M20.2702 81.0811H16.2162V85.1351H20.2702V81.0811Z" fill="white"/>
    <path d="M32.4324 81.0811H28.3784V85.1351H32.4324V81.0811Z" fill="white"/>
    <path d="M36.4865 81.0811H32.4324V85.1351H36.4865V81.0811Z" fill="white"/>
    <path d="M68.9189 81.0811H64.8649V85.1351H68.9189V81.0811Z" fill="white"/>
    <path d="M81.0811 81.0811H77.027V85.1351H81.0811V81.0811Z" fill="white"/>
    <path d="M97.2973 81.0811H93.2432V85.1351H97.2973V81.0811Z" fill="white"/>
    <path d="M109.459 81.0811H105.405V85.1351H109.459V81.0811Z" fill="white"/>
    <path d="M113.514 81.0811H109.459V85.1351H113.514V81.0811Z" fill="white"/>
    <path d="M133.784 81.0811H129.73V85.1351H133.784V81.0811Z" fill="white"/>
    <path d="M141.892 81.0811H137.838V85.1351H141.892V81.0811Z" fill="white"/>
    <path d="M12.1622 85.1351H8.10809V89.1892H12.1622V85.1351Z" fill="white"/>
    <path d="M16.2162 85.1351H12.1621V89.1892H16.2162V85.1351Z" fill="white"/>
    <path d="M20.2702 85.1351H16.2162V89.1892H20.2702V85.1351Z" fill="white"/>
    <path d="M28.3784 85.1351H24.3243V89.1892H28.3784V85.1351Z" fill="white"/>
    <path d="M40.5405 85.1351H36.4865V89.1892H40.5405V85.1351Z" fill="white"/>
    <path d="M48.6487 85.1351H44.5946V89.1892H48.6487V85.1351Z" fill="white"/>
    <path d="M52.7027 85.1351H48.6487V89.1892H52.7027V85.1351Z" fill="white"/>
    <path d="M56.7568 85.1351H52.7027V89.1892H56.7568V85.1351Z" fill="white"/>
    <path d="M72.9729 85.1351H68.9189V89.1892H72.9729V85.1351Z" fill="white"/>
    <path d="M89.1892 85.1351H85.1351V89.1892H89.1892V85.1351Z" fill="white"/>
    <path d="M93.2432 85.1351H89.1892V89.1892H93.2432V85.1351Z" fill="white"/>
    <path d="M101.351 85.1351H97.2973V89.1892H101.351V85.1351Z" fill="white"/>
    <path d="M105.405 85.1351H101.351V89.1892H105.405V85.1351Z" fill="white"/>
    <path d="M117.568 85.1351H113.513V89.1892H117.568V85.1351Z" fill="white"/>
    <path d="M121.622 85.1351H117.568V89.1892H121.622V85.1351Z" fill="white"/>
    <path d="M141.892 85.1351H137.838V89.1892H141.892V85.1351Z" fill="white"/>
    <path d="M12.1622 89.1892H8.10809V93.2432H12.1622V89.1892Z" fill="white"/>
    <path d="M16.2162 89.1892H12.1621V93.2432H16.2162V89.1892Z" fill="white"/>
    <path d="M20.2702 89.1892H16.2162V93.2432H20.2702V89.1892Z" fill="white"/>
    <path d="M24.3243 89.1892H20.2703V93.2432H24.3243V89.1892Z" fill="white"/>
    <path d="M32.4324 89.1892H28.3784V93.2432H32.4324V89.1892Z" fill="white"/>
    <path d="M36.4865 89.1892H32.4324V93.2432H36.4865V89.1892Z" fill="white"/>
    <path d="M44.5946 89.1892H40.5405V93.2432H44.5946V89.1892Z" fill="white"/>
    <path d="M56.7568 89.1892H52.7027V93.2432H56.7568V89.1892Z" fill="white"/>
    <path d="M64.8648 89.1892H60.8108V93.2432H64.8648V89.1892Z" fill="white"/>
    <path d="M81.0811 89.1892H77.027V93.2432H81.0811V89.1892Z" fill="white"/>
    <path d="M89.1892 89.1892H85.1351V93.2432H89.1892V89.1892Z" fill="white"/>
    <path d="M93.2432 89.1892H89.1892V93.2432H93.2432V89.1892Z" fill="white"/>
    <path d="M109.459 89.1892H105.405V93.2432H109.459V89.1892Z" fill="white"/>
    <path d="M113.514 89.1892H109.459V93.2432H113.514V89.1892Z" fill="white"/>
    <path d="M137.838 89.1892H133.784V93.2432H137.838V89.1892Z" fill="white"/>
    <path d="M141.892 89.1892H137.838V93.2432H141.892V89.1892Z" fill="white"/>
    <path d="M16.2162 93.2432H12.1621V97.2973H16.2162V93.2432Z" fill="white"/>
    <path d="M20.2702 93.2432H16.2162V97.2973H20.2702V93.2432Z" fill="white"/>
    <path d="M48.6487 93.2432H44.5946V97.2973H48.6487V93.2432Z" fill="white"/>
    <path d="M60.8108 93.2432H56.7567V97.2973H60.8108V93.2432Z" fill="white"/>
    <path d="M68.9189 93.2432H64.8649V97.2973H68.9189V93.2432Z" fill="white"/>
    <path d="M72.9729 93.2432H68.9189V97.2973H72.9729V93.2432Z" fill="white"/>
    <path d="M89.1892 93.2432H85.1351V97.2973H89.1892V93.2432Z" fill="white"/>
    <path d="M97.2973 93.2432H93.2432V97.2973H97.2973V93.2432Z" fill="white"/>
    <path d="M113.514 93.2432H109.459V97.2973H113.514V93.2432Z" fill="white"/>
    <path d="M117.568 93.2432H113.513V97.2973H117.568V93.2432Z" fill="white"/>
    <path d="M129.73 93.2432H125.676V97.2973H129.73V93.2432Z" fill="white"/>
    <path d="M137.838 93.2432H133.784V97.2973H137.838V93.2432Z" fill="white"/>
    <path d="M141.892 93.2432H137.838V97.2973H141.892V93.2432Z" fill="white"/>
    <path d="M12.1622 97.2973H8.10809V101.351H12.1622V97.2973Z" fill="white"/>
    <path d="M16.2162 97.2973H12.1621V101.351H16.2162V97.2973Z" fill="white"/>
    <path d="M24.3243 97.2973H20.2703V101.351H24.3243V97.2973Z" fill="white"/>
    <path d="M28.3784 97.2973H24.3243V101.351H28.3784V97.2973Z" fill="white"/>
    <path d="M36.4865 97.2973H32.4324V101.351H36.4865V97.2973Z" fill="white"/>
    <path d="M44.5946 97.2973H40.5405V101.351H44.5946V97.2973Z" fill="white"/>
    <path d="M52.7027 97.2973H48.6487V101.351H52.7027V97.2973Z" fill="white"/>
    <path d="M60.8108 97.2973H56.7567V101.351H60.8108V97.2973Z" fill="white"/>
    <path d="M64.8648 97.2973H60.8108V101.351H64.8648V97.2973Z" fill="white"/>
    <path d="M77.027 97.2973H72.973V101.351H77.027V97.2973Z" fill="white"/>
    <path d="M85.1351 97.2973H81.0811V101.351H85.1351V97.2973Z" fill="white"/>
    <path d="M89.1892 97.2973H85.1351V101.351H89.1892V97.2973Z" fill="white"/>
    <path d="M101.351 97.2973H97.2973V101.351H101.351V97.2973Z" fill="white"/>
    <path d="M109.459 97.2973H105.405V101.351H109.459V97.2973Z" fill="white"/>
    <path d="M117.568 97.2973H113.513V101.351H117.568V97.2973Z" fill="white"/>
    <path d="M121.622 97.2973H117.568V101.351H121.622V97.2973Z" fill="white"/>
    <path d="M125.676 97.2973H121.622V101.351H125.676V97.2973Z" fill="white"/>
    <path d="M141.892 97.2973H137.838V101.351H141.892V97.2973Z" fill="white"/>
    <path d="M16.2162 101.351H12.1621V105.405H16.2162V101.351Z" fill="white"/>
    <path d="M20.2702 101.351H16.2162V105.405H20.2702V101.351Z" fill="white"/>
    <path d="M24.3243 101.351H20.2703V105.405H24.3243V101.351Z" fill="white"/>
    <path d="M28.3784 101.351H24.3243V105.405H28.3784V101.351Z" fill="white"/>
    <path d="M40.5405 101.351H36.4865V105.405H40.5405V101.351Z" fill="white"/>
    <path d="M48.6487 101.351H44.5946V105.405H48.6487V101.351Z" fill="white"/>
    <path d="M52.7027 101.351H48.6487V105.405H52.7027V101.351Z" fill="white"/>
    <path d="M56.7568 101.351H52.7027V105.405H56.7568V101.351Z" fill="white"/>
    <path d="M68.9189 101.351H64.8649V105.405H68.9189V101.351Z" fill="white"/>
    <path d="M72.9729 101.351H68.9189V105.405H72.9729V101.351Z" fill="white"/>
    <path d="M89.1892 101.351H85.1351V105.405H89.1892V101.351Z" fill="white"/>
    <path d="M93.2432 101.351H89.1892V105.405H93.2432V101.351Z" fill="white"/>
    <path d="M97.2973 101.351H93.2432V105.405H97.2973V101.351Z" fill="white"/>
    <path d="M109.459 101.351H105.405V105.405H109.459V101.351Z" fill="white"/>
    <path d="M113.514 101.351H109.459V105.405H113.514V101.351Z" fill="white"/>
    <path d="M121.622 101.351H117.568V105.405H121.622V101.351Z" fill="white"/>
    <path d="M137.838 101.351H133.784V105.405H137.838V101.351Z" fill="white"/>
    <path d="M12.1622 105.405H8.10809V109.459H12.1622V105.405Z" fill="white"/>
    <path d="M28.3784 105.405H24.3243V109.459H28.3784V105.405Z" fill="white"/>
    <path d="M32.4324 105.405H28.3784V109.459H32.4324V105.405Z" fill="white"/>
    <path d="M36.4865 105.405H32.4324V109.459H36.4865V105.405Z" fill="white"/>
    <path d="M44.5946 105.405H40.5405V109.459H44.5946V105.405Z" fill="white"/>
    <path d="M48.6487 105.405H44.5946V109.459H48.6487V105.405Z" fill="white"/>
    <path d="M56.7568 105.405H52.7027V109.459H56.7568V105.405Z" fill="white"/>
    <path d="M64.8648 105.405H60.8108V109.459H64.8648V105.405Z" fill="white"/>
    <path d="M77.027 105.405H72.973V109.459H77.027V105.405Z" fill="white"/>
    <path d="M93.2432 105.405H89.1892V109.459H93.2432V105.405Z" fill="white"/>
    <path d="M97.2973 105.405H93.2432V109.459H97.2973V105.405Z" fill="white"/>
    <path d="M101.351 105.405H97.2973V109.459H101.351V105.405Z" fill="white"/>
    <path d="M109.459 105.405H105.405V109.459H109.459V105.405Z" fill="white"/>
    <path d="M113.514 105.405H109.459V109.459H113.514V105.405Z" fill="white"/>
    <path d="M117.568 105.405H113.513V109.459H117.568V105.405Z" fill="white"/>
    <path d="M121.622 105.405H117.568V109.459H121.622V105.405Z" fill="white"/>
    <path d="M125.676 105.405H121.622V109.459H125.676V105.405Z" fill="white"/>
    <path d="M137.838 105.405H133.784V109.459H137.838V105.405Z" fill="white"/>
    <path d="M44.5946 109.459H40.5405V113.514H44.5946V109.459Z" fill="white"/>
    <path d="M56.7568 109.459H52.7027V113.514H56.7568V109.459Z" fill="white"/>
    <path d="M64.8648 109.459H60.8108V113.514H64.8648V109.459Z" fill="white"/>
    <path d="M81.0811 109.459H77.027V113.514H81.0811V109.459Z" fill="white"/>
    <path d="M89.1892 109.459H85.1351V113.514H89.1892V109.459Z" fill="white"/>
    <path d="M93.2432 109.459H89.1892V113.514H93.2432V109.459Z" fill="white"/>
    <path d="M97.2973 109.459H93.2432V113.514H97.2973V109.459Z" fill="white"/>
    <path d="M101.351 109.459H97.2973V113.514H101.351V109.459Z" fill="white"/>
    <path d="M109.459 109.459H105.405V113.514H109.459V109.459Z" fill="white"/>
    <path d="M125.676 109.459H121.622V113.514H125.676V109.459Z" fill="white"/>
    <path d="M129.73 109.459H125.676V113.514H129.73V109.459Z" fill="white"/>
    <path d="M141.892 109.459H137.838V113.514H141.892V109.459Z" fill="white"/>
    <path d="M52.7027 113.514H48.6487V117.568H52.7027V113.514Z" fill="white"/>
    <path d="M56.7568 113.514H52.7027V117.568H56.7568V113.514Z" fill="white"/>
    <path d="M77.027 113.514H72.973V117.568H77.027V113.514Z" fill="white"/>
    <path d="M81.0811 113.514H77.027V117.568H81.0811V113.514Z" fill="white"/>
    <path d="M85.1351 113.514H81.0811V117.568H85.1351V113.514Z" fill="white"/>
    <path d="M93.2432 113.514H89.1892V117.568H93.2432V113.514Z" fill="white"/>
    <path d="M101.351 113.514H97.2973V117.568H101.351V113.514Z" fill="white"/>
    <path d="M109.459 113.514H105.405V117.568H109.459V113.514Z" fill="white"/>
    <path d="M117.568 113.514H113.513V117.568H117.568V113.514Z" fill="white"/>
    <path d="M125.676 113.514H121.622V117.568H125.676V113.514Z" fill="white"/>
    <path d="M129.73 113.514H125.676V117.568H129.73V113.514Z" fill="white"/>
    <path d="M133.784 113.514H129.73V117.568H133.784V113.514Z" fill="white"/>
    <path d="M44.5946 117.568H40.5405V121.622H44.5946V117.568Z" fill="white"/>
    <path d="M52.7027 117.568H48.6487V121.622H52.7027V117.568Z" fill="white"/>
    <path d="M56.7568 117.568H52.7027V121.622H56.7568V117.568Z" fill="white"/>
    <path d="M64.8648 117.568H60.8108V121.622H64.8648V117.568Z" fill="white"/>
    <path d="M68.9189 117.568H64.8649V121.622H68.9189V117.568Z" fill="white"/>
    <path d="M72.9729 117.568H68.9189V121.622H72.9729V117.568Z" fill="white"/>
    <path d="M77.027 117.568H72.973V121.622H77.027V117.568Z" fill="white"/>
    <path d="M81.0811 117.568H77.027V121.622H81.0811V117.568Z" fill="white"/>
    <path d="M85.1351 117.568H81.0811V121.622H85.1351V117.568Z" fill="white"/>
    <path d="M97.2973 117.568H93.2432V121.622H97.2973V117.568Z" fill="white"/>
    <path d="M101.351 117.568H97.2973V121.622H101.351V117.568Z" fill="white"/>
    <path d="M109.459 117.568H105.405V121.622H109.459V117.568Z" fill="white"/>
    <path d="M125.676 117.568H121.622V121.622H125.676V117.568Z" fill="white"/>
    <path d="M56.7568 121.622H52.7027V125.676H56.7568V121.622Z" fill="white"/>
    <path d="M60.8108 121.622H56.7567V125.676H60.8108V121.622Z" fill="white"/>
    <path d="M64.8648 121.622H60.8108V125.676H64.8648V121.622Z" fill="white"/>
    <path d="M72.9729 121.622H68.9189V125.676H72.9729V121.622Z" fill="white"/>
    <path d="M85.1351 121.622H81.0811V125.676H85.1351V121.622Z" fill="white"/>
    <path d="M89.1892 121.622H85.1351V125.676H89.1892V121.622Z" fill="white"/>
    <path d="M93.2432 121.622H89.1892V125.676H93.2432V121.622Z" fill="white"/>
    <path d="M109.459 121.622H105.405V125.676H109.459V121.622Z" fill="white"/>
    <path d="M113.514 121.622H109.459V125.676H113.514V121.622Z" fill="white"/>
    <path d="M117.568 121.622H113.513V125.676H117.568V121.622Z" fill="white"/>
    <path d="M121.622 121.622H117.568V125.676H121.622V121.622Z" fill="white"/>
    <path d="M125.676 121.622H121.622V125.676H125.676V121.622Z" fill="white"/>
    <path d="M129.73 121.622H125.676V125.676H129.73V121.622Z" fill="white"/>
    <path d="M137.838 121.622H133.784V125.676H137.838V121.622Z" fill="white"/>
    <path d="M141.892 121.622H137.838V125.676H141.892V121.622Z" fill="white"/>
    <path d="M44.5946 125.676H40.5405V129.73H44.5946V125.676Z" fill="white"/>
    <path d="M48.6487 125.676H44.5946V129.73H48.6487V125.676Z" fill="white"/>
    <path d="M52.7027 125.676H48.6487V129.73H52.7027V125.676Z" fill="white"/>
    <path d="M64.8648 125.676H60.8108V129.73H64.8648V125.676Z" fill="white"/>
    <path d="M68.9189 125.676H64.8649V129.73H68.9189V125.676Z" fill="white"/>
    <path d="M72.9729 125.676H68.9189V129.73H72.9729V125.676Z" fill="white"/>
    <path d="M77.027 125.676H72.973V129.73H77.027V125.676Z" fill="white"/>
    <path d="M85.1351 125.676H81.0811V129.73H85.1351V125.676Z" fill="white"/>
    <path d="M89.1892 125.676H85.1351V129.73H89.1892V125.676Z" fill="white"/>
    <path d="M101.351 125.676H97.2973V129.73H101.351V125.676Z" fill="white"/>
    <path d="M109.459 125.676H105.405V129.73H109.459V125.676Z" fill="white"/>
    <path d="M117.568 125.676H113.513V129.73H117.568V125.676Z" fill="white"/>
    <path d="M125.676 125.676H121.622V129.73H125.676V125.676Z" fill="white"/>
    <path d="M129.73 125.676H125.676V129.73H129.73V125.676Z" fill="white"/>
    <path d="M133.784 125.676H129.73V129.73H133.784V125.676Z" fill="white"/>
    <path d="M137.838 125.676H133.784V129.73H137.838V125.676Z" fill="white"/>
    <path d="M56.7568 129.73H52.7027V133.784H56.7568V129.73Z" fill="white"/>
    <path d="M68.9189 129.73H64.8649V133.784H68.9189V129.73Z" fill="white"/>
    <path d="M72.9729 129.73H68.9189V133.784H72.9729V129.73Z" fill="white"/>
    <path d="M77.027 129.73H72.973V133.784H77.027V129.73Z" fill="white"/>
    <path d="M85.1351 129.73H81.0811V133.784H85.1351V129.73Z" fill="white"/>
    <path d="M89.1892 129.73H85.1351V133.784H89.1892V129.73Z" fill="white"/>
    <path d="M93.2432 129.73H89.1892V133.784H93.2432V129.73Z" fill="white"/>
    <path d="M97.2973 129.73H93.2432V133.784H97.2973V129.73Z" fill="white"/>
    <path d="M105.405 129.73H101.351V133.784H105.405V129.73Z" fill="white"/>
    <path d="M109.459 129.73H105.405V133.784H109.459V129.73Z" fill="white"/>
    <path d="M125.676 129.73H121.622V133.784H125.676V129.73Z" fill="white"/>
    <path d="M129.73 129.73H125.676V133.784H129.73V129.73Z" fill="white"/>
    <path d="M133.784 129.73H129.73V133.784H133.784V129.73Z" fill="white"/>
    <path d="M141.892 129.73H137.838V133.784H141.892V129.73Z" fill="white"/>
    <path d="M48.6487 133.784H44.5946V137.838H48.6487V133.784Z" fill="white"/>
    <path d="M52.7027 133.784H48.6487V137.838H52.7027V133.784Z" fill="white"/>
    <path d="M68.9189 133.784H64.8649V137.838H68.9189V133.784Z" fill="white"/>
    <path d="M81.0811 133.784H77.027V137.838H81.0811V133.784Z" fill="white"/>
    <path d="M85.1351 133.784H81.0811V137.838H85.1351V133.784Z" fill="white"/>
    <path d="M89.1892 133.784H85.1351V137.838H89.1892V133.784Z" fill="white"/>
    <path d="M93.2432 133.784H89.1892V137.838H93.2432V133.784Z" fill="white"/>
    <path d="M97.2973 133.784H93.2432V137.838H97.2973V133.784Z" fill="white"/>
    <path d="M101.351 133.784H97.2973V137.838H101.351V133.784Z" fill="white"/>
    <path d="M105.405 133.784H101.351V137.838H105.405V133.784Z" fill="white"/>
    <path d="M109.459 133.784H105.405V137.838H109.459V133.784Z" fill="white"/>
    <path d="M113.514 133.784H109.459V137.838H113.514V133.784Z" fill="white"/>
    <path d="M44.5946 137.838H40.5405V141.892H44.5946V137.838Z" fill="white"/>
    <path d="M56.7568 137.838H52.7027V141.892H56.7568V137.838Z" fill="white"/>
    <path d="M68.9189 137.838H64.8649V141.892H68.9189V137.838Z" fill="white"/>
    <path d="M72.9729 137.838H68.9189V141.892H72.9729V137.838Z" fill="white"/>
    <path d="M77.027 137.838H72.973V141.892H77.027V137.838Z" fill="white"/>
    <path d="M89.1892 137.838H85.1351V141.892H89.1892V137.838Z" fill="white"/>
    <path d="M97.2973 137.838H93.2432V141.892H97.2973V137.838Z" fill="white"/>
    <path d="M109.459 137.838H105.405V141.892H109.459V137.838Z" fill="white"/>
    <path d="M113.514 137.838H109.459V141.892H113.514V137.838Z" fill="white"/>
    <path d="M125.676 137.838H121.622V141.892H125.676V137.838Z" fill="white"/>
    <path d="M137.838 137.838H133.784V141.892H137.838V137.838Z" fill="white"/>
    <path d="M32.2297 8.10809H12.3649H8.10809V12.3649V32.2297V36.4865H12.3649H32.2297H36.4865V32.2297V12.3649V8.10809H32.2297ZM32.2297 32.2297H12.3649V12.3649H32.2297V32.2297Z" fill="white"/>
    <path d="M137.635 8.10809H117.77H113.513V12.3649V32.2297V36.4865H117.77H137.635H141.892V32.2297V12.3649V8.10809H137.635ZM137.635 32.2297H117.77V12.3649H137.635V32.2297Z" fill="white"/>
    <path d="M32.2297 113.514H12.3649H8.10809V117.77V137.635V141.892H12.3649H32.2297H36.4865V137.635V117.77V113.514H32.2297ZM32.2297 137.635H12.3649V117.77H32.2297V137.635Z" fill="white"/>
    <path d="M28.3783 16.2162H16.2162V28.3783H28.3783V16.2162Z" fill="white"/>
    <path d="M133.784 16.2162H121.622V28.3783H133.784V16.2162Z" fill="white"/>
    <path d="M28.3783 121.622H16.2162V133.784H28.3783V121.622Z" fill="white"/>
</svg>
