<svg width="23" height="23" viewBox="0 0 23 23" fill="none" xmlns="http://www.w3.org/2000/svg">
    <path d="M22.7189 21.3639L16.1784 14.8233C17.4453 13.2584 18.2081 11.2699 18.2081 9.10408C18.2081 4.08439 14.1237 0 9.10404 0C4.08434 0 0 4.08434 0 9.10404C0 14.1237 4.08439 18.2081 9.10408 18.2081C11.2699 18.2081 13.2584 17.4453 14.8233 16.1784L21.3639 22.7189C21.5508 22.9058 21.7961 22.9997 22.0414 22.9997C22.2868 22.9997 22.5321 22.9058 22.719 22.7189C23.0937 22.3443 23.0937 21.7386 22.7189 21.3639ZM9.10408 16.2915C5.14044 16.2915 1.91666 13.0677 1.91666 9.10404C1.91666 5.1404 5.14044 1.91662 9.10408 1.91662C13.0677 1.91662 16.2915 5.1404 16.2915 9.10404C16.2915 13.0677 13.0677 16.2915 9.10408 16.2915Z" fill="white"/>
</svg>
