<svg width="192" height="212" viewBox="0 0 192 212" fill="none" xmlns="http://www.w3.org/2000/svg">
    <path fill-rule="evenodd" clip-rule="evenodd" d="M96 22.2297L21.3333 64.235V65.7817C21.3333 116.342 48.704 163.158 92.7787 187.958L96 189.771L99.2213 187.958C143.296 163.158 170.667 116.342 170.667 65.7817V64.235L96 22.2297ZM96 211.066C92.384 211.066 88.768 210.17 85.5573 208.357L82.3253 206.533C31.5413 177.978 0 124.037 0 65.7752V64.2285C0 56.5592 4.16 49.4338 10.8587 45.6472L85.5467 3.64184C92 0.0151765 100.011 0.00450969 106.443 3.63118L181.12 45.6365C187.84 49.4338 192 56.5592 192 64.2285V65.7752C192 124.037 160.459 177.978 109.675 206.533L106.453 208.346C103.232 210.159 99.616 211.066 96 211.066Z" fill="#407BFF"/>
</svg>
