<svg width="699" height="317" viewBox="0 0 699 317" fill="none" xmlns="http://www.w3.org/2000/svg">
    <rect y="243.144" width="133.287" height="73.8558" rx="5" fill="#96ED4F"/>
    <rect x="144.249" y="243.144" width="129.825" height="73.8558" rx="5" fill="#96ED4F"/>
    <rect x="286.768" y="243.144" width="129.825" height="73.8558" rx="5" fill="#96ED4F"/>
    <rect x="568.342" y="242.567" width="129.825" height="73.8558" rx="5" fill="#E7F55C"/>
    <rect x="427.555" y="243.144" width="129.825" height="73.2788" rx="5" fill="#E7F55C"/>
    <path d="M52.3888 265.383C53.3177 265.383 54.1525 265.565 54.8929 265.928C55.6334 266.279 56.2123 266.783 56.6297 267.443C57.0471 268.103 57.2557 268.863 57.2557 269.725C57.2557 270.641 57.0269 271.448 56.5691 272.149C56.1114 272.835 55.492 273.367 54.7112 273.744C53.9303 274.121 53.0552 274.309 52.0858 274.309C50.1471 274.309 48.6392 273.704 47.5622 272.492C46.4986 271.28 45.9668 269.543 45.9668 267.282C45.9668 265.693 46.2562 264.34 46.8352 263.222C47.4141 262.091 48.2219 261.237 49.2585 260.658C50.3087 260.065 51.5204 259.769 52.8936 259.769C53.6207 259.769 54.3005 259.85 54.9333 260.011C55.5796 260.159 56.1383 260.382 56.6095 260.678L55.6401 262.657C54.9401 262.199 54.0447 261.97 52.9542 261.97C51.5944 261.97 50.5308 262.388 49.7634 263.222C48.996 264.057 48.6123 265.262 48.6123 266.837V266.857C49.0297 266.373 49.5615 266.009 50.2077 265.767C50.8539 265.511 51.581 265.383 52.3888 265.383ZM51.9445 272.249C52.7657 272.249 53.4322 272.034 53.9438 271.603C54.4554 271.159 54.7112 270.573 54.7112 269.846C54.7112 269.106 54.4554 268.52 53.9438 268.089C53.4322 267.659 52.7455 267.443 51.8839 267.443C51.0357 267.443 50.3423 267.672 49.8038 268.13C49.2787 268.587 49.0162 269.166 49.0162 269.866C49.0162 270.553 49.272 271.125 49.7836 271.583C50.3087 272.027 51.029 272.249 51.9445 272.249ZM71.2297 270.896H68.7255V274.107H66.181V270.896H58.4261V269.079L65.3933 259.971H68.2004L61.6371 268.675H66.2617V265.828H68.7255V268.675H71.2297V270.896ZM74.8736 267.584C73.8639 267.584 73.0493 267.228 72.43 266.514C71.8107 265.801 71.5011 264.865 71.5011 263.707C71.5011 262.549 71.8107 261.613 72.43 260.9C73.0493 260.186 73.8639 259.83 74.8736 259.83C75.8834 259.83 76.6979 260.186 77.3172 260.9C77.95 261.6 78.2664 262.536 78.2664 263.707C78.2664 264.878 77.95 265.821 77.3172 266.534C76.6979 267.234 75.8834 267.584 74.8736 267.584ZM83.3555 259.971H85.3346L75.6814 274.107H73.7023L83.3555 259.971ZM74.8736 266.171C75.4256 266.171 75.8497 265.955 76.1459 265.525C76.4555 265.094 76.6104 264.488 76.6104 263.707C76.6104 262.926 76.4555 262.32 76.1459 261.889C75.8497 261.459 75.4256 261.243 74.8736 261.243C74.3485 261.243 73.9244 261.465 73.6013 261.91C73.2917 262.341 73.1368 262.94 73.1368 263.707C73.1368 264.474 73.2917 265.08 73.6013 265.525C73.9244 265.955 74.3485 266.171 74.8736 266.171ZM84.1431 274.249C83.1333 274.249 82.3188 273.892 81.6995 273.178C81.0802 272.465 80.7705 271.529 80.7705 270.371C80.7705 269.214 81.0802 268.278 81.6995 267.564C82.3188 266.851 83.1333 266.494 84.1431 266.494C85.1528 266.494 85.9674 266.851 86.5867 267.564C87.2194 268.278 87.5358 269.214 87.5358 270.371C87.5358 271.529 87.2194 272.465 86.5867 273.178C85.9674 273.892 85.1528 274.249 84.1431 274.249ZM84.1431 272.835C84.6816 272.835 85.1057 272.62 85.4154 272.189C85.725 271.745 85.8798 271.139 85.8798 270.371C85.8798 269.604 85.725 269.005 85.4154 268.574C85.1057 268.13 84.6816 267.908 84.1431 267.908C83.6045 267.908 83.1805 268.123 82.8708 268.554C82.5611 268.985 82.4063 269.59 82.4063 270.371C82.4063 271.152 82.5611 271.758 82.8708 272.189C83.1805 272.62 83.6045 272.835 84.1431 272.835Z" fill="black"/>
    <path d="M193.112 266.597C195.104 266.597 196.578 266.988 197.534 267.768C198.49 268.536 198.968 269.586 198.968 270.919C198.968 271.767 198.759 272.534 198.342 273.221C197.925 273.908 197.299 274.453 196.464 274.857C195.629 275.261 194.599 275.463 193.374 275.463C192.364 275.463 191.388 275.321 190.446 275.039C189.503 274.742 188.709 274.339 188.063 273.827L189.174 271.787C189.699 272.218 190.325 272.561 191.052 272.817C191.792 273.059 192.553 273.181 193.334 273.181C194.263 273.181 194.99 272.992 195.515 272.615C196.053 272.225 196.323 271.693 196.323 271.02C196.323 270.293 196.033 269.748 195.454 269.384C194.889 269.007 193.913 268.819 192.526 268.819H189.113L189.84 261.124H198.14V263.326H192.061L191.759 266.597H193.112ZM209.651 267.829C210.391 268.166 210.957 268.623 211.347 269.202C211.751 269.768 211.953 270.434 211.953 271.202C211.953 272.063 211.711 272.817 211.226 273.463C210.755 274.11 210.082 274.608 209.207 274.958C208.332 275.294 207.315 275.463 206.157 275.463C204.999 275.463 203.983 275.294 203.108 274.958C202.246 274.608 201.58 274.11 201.108 273.463C200.637 272.817 200.402 272.063 200.402 271.202C200.402 270.434 200.597 269.768 200.987 269.202C201.378 268.623 201.936 268.166 202.663 267.829C202.098 267.519 201.66 267.115 201.351 266.617C201.055 266.106 200.907 265.52 200.907 264.86C200.907 264.066 201.122 263.373 201.553 262.78C201.997 262.188 202.616 261.73 203.411 261.407C204.205 261.084 205.121 260.922 206.157 260.922C207.207 260.922 208.13 261.084 208.924 261.407C209.718 261.73 210.338 262.188 210.782 262.78C211.226 263.373 211.448 264.066 211.448 264.86C211.448 265.52 211.293 266.099 210.984 266.597C210.674 267.095 210.23 267.506 209.651 267.829ZM206.157 262.982C205.336 262.982 204.683 263.157 204.198 263.507C203.727 263.857 203.491 264.349 203.491 264.982C203.491 265.587 203.727 266.072 204.198 266.436C204.683 266.786 205.336 266.961 206.157 266.961C206.992 266.961 207.652 266.786 208.136 266.436C208.621 266.072 208.863 265.587 208.863 264.982C208.863 264.349 208.614 263.857 208.116 263.507C207.631 263.157 206.978 262.982 206.157 262.982ZM206.157 273.403C207.127 273.403 207.894 273.201 208.459 272.797C209.025 272.393 209.308 271.834 209.308 271.121C209.308 270.421 209.025 269.869 208.459 269.465C207.894 269.061 207.127 268.859 206.157 268.859C205.188 268.859 204.427 269.061 203.875 269.465C203.323 269.869 203.047 270.421 203.047 271.121C203.047 271.834 203.323 272.393 203.875 272.797C204.427 273.201 205.188 273.403 206.157 273.403ZM216.61 268.738C215.6 268.738 214.785 268.381 214.166 267.667C213.547 266.954 213.237 266.018 213.237 264.86C213.237 263.703 213.547 262.767 214.166 262.053C214.785 261.34 215.6 260.983 216.61 260.983C217.619 260.983 218.434 261.34 219.053 262.053C219.686 262.753 220.002 263.689 220.002 264.86C220.002 266.032 219.686 266.974 219.053 267.688C218.434 268.388 217.619 268.738 216.61 268.738ZM225.092 261.124H227.071L217.417 275.261H215.438L225.092 261.124ZM216.61 267.324C217.162 267.324 217.586 267.109 217.882 266.678C218.192 266.247 218.346 265.641 218.346 264.86C218.346 264.079 218.192 263.474 217.882 263.043C217.586 262.612 217.162 262.397 216.61 262.397C216.085 262.397 215.66 262.619 215.337 263.063C215.028 263.494 214.873 264.093 214.873 264.86C214.873 265.628 215.028 266.234 215.337 266.678C215.66 267.109 216.085 267.324 216.61 267.324ZM225.879 275.402C224.869 275.402 224.055 275.045 223.436 274.332C222.816 273.618 222.507 272.683 222.507 271.525C222.507 270.367 222.816 269.431 223.436 268.718C224.055 268.004 224.869 267.647 225.879 267.647C226.889 267.647 227.703 268.004 228.323 268.718C228.955 269.431 229.272 270.367 229.272 271.525C229.272 272.683 228.955 273.618 228.323 274.332C227.703 275.045 226.889 275.402 225.879 275.402ZM225.879 273.988C226.418 273.988 226.842 273.773 227.151 273.342C227.461 272.898 227.616 272.292 227.616 271.525C227.616 270.757 227.461 270.158 227.151 269.727C226.842 269.283 226.418 269.061 225.879 269.061C225.341 269.061 224.916 269.276 224.607 269.707C224.297 270.138 224.142 270.744 224.142 271.525C224.142 272.306 224.297 272.911 224.607 273.342C224.916 273.773 225.341 273.988 225.879 273.988Z" fill="black"/>
    <path d="M335.63 266.597C337.623 266.597 339.097 266.988 340.053 267.768C341.009 268.536 341.487 269.586 341.487 270.919C341.487 271.767 341.278 272.534 340.861 273.221C340.443 273.908 339.817 274.453 338.982 274.857C338.148 275.261 337.118 275.463 335.893 275.463C334.883 275.463 333.907 275.321 332.964 275.039C332.022 274.742 331.228 274.339 330.581 273.827L331.692 271.787C332.217 272.218 332.843 272.561 333.57 272.817C334.311 273.059 335.071 273.181 335.852 273.181C336.781 273.181 337.508 272.992 338.033 272.615C338.572 272.225 338.841 271.693 338.841 271.02C338.841 270.293 338.552 269.748 337.973 269.384C337.407 269.007 336.431 268.819 335.044 268.819H331.632L332.359 261.124H340.659V263.326H334.58L334.277 266.597H335.63ZM352.169 267.829C352.91 268.166 353.475 268.623 353.866 269.202C354.27 269.768 354.472 270.434 354.472 271.202C354.472 272.063 354.229 272.817 353.745 273.463C353.273 274.11 352.6 274.608 351.725 274.958C350.85 275.294 349.834 275.463 348.676 275.463C347.518 275.463 346.501 275.294 345.626 274.958C344.765 274.608 344.098 274.11 343.627 273.463C343.156 272.817 342.92 272.063 342.92 271.202C342.92 270.434 343.115 269.768 343.506 269.202C343.896 268.623 344.455 268.166 345.182 267.829C344.617 267.519 344.179 267.115 343.869 266.617C343.573 266.106 343.425 265.52 343.425 264.86C343.425 264.066 343.64 263.373 344.071 262.78C344.516 262.188 345.135 261.73 345.929 261.407C346.724 261.084 347.639 260.922 348.676 260.922C349.726 260.922 350.648 261.084 351.442 261.407C352.237 261.73 352.856 262.188 353.3 262.78C353.745 263.373 353.967 264.066 353.967 264.86C353.967 265.52 353.812 266.099 353.502 266.597C353.193 267.095 352.748 267.506 352.169 267.829ZM348.676 262.982C347.854 262.982 347.202 263.157 346.717 263.507C346.246 263.857 346.01 264.349 346.01 264.982C346.01 265.587 346.246 266.072 346.717 266.436C347.202 266.786 347.854 266.961 348.676 266.961C349.51 266.961 350.17 266.786 350.655 266.436C351.14 266.072 351.382 265.587 351.382 264.982C351.382 264.349 351.133 263.857 350.635 263.507C350.15 263.157 349.497 262.982 348.676 262.982ZM348.676 273.403C349.645 273.403 350.413 273.201 350.978 272.797C351.543 272.393 351.826 271.834 351.826 271.121C351.826 270.421 351.543 269.869 350.978 269.465C350.413 269.061 349.645 268.859 348.676 268.859C347.706 268.859 346.946 269.061 346.394 269.465C345.842 269.869 345.566 270.421 345.566 271.121C345.566 271.834 345.842 272.393 346.394 272.797C346.946 273.201 347.706 273.403 348.676 273.403ZM359.128 268.738C358.118 268.738 357.304 268.381 356.685 267.667C356.065 266.954 355.756 266.018 355.756 264.86C355.756 263.703 356.065 262.767 356.685 262.053C357.304 261.34 358.118 260.983 359.128 260.983C360.138 260.983 360.952 261.34 361.572 262.053C362.205 262.753 362.521 263.689 362.521 264.86C362.521 266.032 362.205 266.974 361.572 267.688C360.952 268.388 360.138 268.738 359.128 268.738ZM367.61 261.124H369.589L359.936 275.261H357.957L367.61 261.124ZM359.128 267.324C359.68 267.324 360.104 267.109 360.4 266.678C360.71 266.247 360.865 265.641 360.865 264.86C360.865 264.079 360.71 263.474 360.4 263.043C360.104 262.612 359.68 262.397 359.128 262.397C358.603 262.397 358.179 262.619 357.856 263.063C357.546 263.494 357.391 264.093 357.391 264.86C357.391 265.628 357.546 266.234 357.856 266.678C358.179 267.109 358.603 267.324 359.128 267.324ZM368.398 275.402C367.388 275.402 366.573 275.045 365.954 274.332C365.335 273.618 365.025 272.683 365.025 271.525C365.025 270.367 365.335 269.431 365.954 268.718C366.573 268.004 367.388 267.647 368.398 267.647C369.407 267.647 370.222 268.004 370.841 268.718C371.474 269.431 371.79 270.367 371.79 271.525C371.79 272.683 371.474 273.618 370.841 274.332C370.222 275.045 369.407 275.402 368.398 275.402ZM368.398 273.988C368.936 273.988 369.36 273.773 369.67 273.342C369.98 272.898 370.134 272.292 370.134 271.525C370.134 270.757 369.98 270.158 369.67 269.727C369.36 269.283 368.936 269.061 368.398 269.061C367.859 269.061 367.435 269.276 367.125 269.707C366.816 270.138 366.661 270.744 366.661 271.525C366.661 272.306 366.816 272.911 367.125 273.342C367.435 273.773 367.859 273.988 368.398 273.988Z" fill="black"/>
    <path d="M620.651 266.021C622.643 266.021 624.117 266.411 625.073 267.192C626.029 267.96 626.507 269.01 626.507 270.343C626.507 271.191 626.298 271.958 625.881 272.645C625.464 273.332 624.838 273.877 624.003 274.281C623.168 274.685 622.138 274.887 620.913 274.887C619.903 274.887 618.927 274.745 617.985 274.462C617.042 274.166 616.248 273.762 615.602 273.251L616.713 271.211C617.238 271.642 617.864 271.985 618.591 272.241C619.331 272.483 620.092 272.604 620.873 272.604C621.802 272.604 622.529 272.416 623.054 272.039C623.592 271.649 623.862 271.117 623.862 270.444C623.862 269.717 623.572 269.171 622.993 268.808C622.428 268.431 621.452 268.242 620.065 268.242H616.652L617.379 260.548H625.679V262.749H619.6L619.297 266.021H620.651ZM633.918 274.887C632.787 274.887 631.778 274.604 630.889 274.038C630 273.459 629.3 272.625 628.789 271.534C628.277 270.43 628.021 269.124 628.021 267.616C628.021 266.108 628.277 264.809 628.789 263.719C629.3 262.615 630 261.78 630.889 261.215C631.778 260.636 632.787 260.346 633.918 260.346C635.049 260.346 636.059 260.636 636.948 261.215C637.85 261.78 638.556 262.615 639.068 263.719C639.58 264.809 639.835 266.108 639.835 267.616C639.835 269.124 639.58 270.43 639.068 271.534C638.556 272.625 637.85 273.459 636.948 274.038C636.059 274.604 635.049 274.887 633.918 274.887ZM633.918 272.604C634.928 272.604 635.722 272.187 636.301 271.352C636.894 270.518 637.19 269.272 637.19 267.616C637.19 265.96 636.894 264.715 636.301 263.88C635.722 263.046 634.928 262.628 633.918 262.628C632.922 262.628 632.128 263.046 631.535 263.88C630.956 264.715 630.667 265.96 630.667 267.616C630.667 269.272 630.956 270.518 631.535 271.352C632.128 272.187 632.922 272.604 633.918 272.604ZM644.76 268.162C643.75 268.162 642.936 267.805 642.316 267.091C641.697 266.378 641.387 265.442 641.387 264.284C641.387 263.126 641.697 262.191 642.316 261.477C642.936 260.764 643.75 260.407 644.76 260.407C645.77 260.407 646.584 260.764 647.204 261.477C647.836 262.177 648.153 263.113 648.153 264.284C648.153 265.455 647.836 266.398 647.204 267.111C646.584 267.812 645.77 268.162 644.76 268.162ZM653.242 260.548H655.221L645.568 274.685H643.589L653.242 260.548ZM644.76 266.748C645.312 266.748 645.736 266.533 646.032 266.102C646.342 265.671 646.497 265.065 646.497 264.284C646.497 263.503 646.342 262.897 646.032 262.467C645.736 262.036 645.312 261.82 644.76 261.82C644.235 261.82 643.811 262.043 643.488 262.487C643.178 262.918 643.023 263.517 643.023 264.284C643.023 265.052 643.178 265.657 643.488 266.102C643.811 266.533 644.235 266.748 644.76 266.748ZM654.029 274.826C653.02 274.826 652.205 274.469 651.586 273.756C650.967 273.042 650.657 272.106 650.657 270.949C650.657 269.791 650.967 268.855 651.586 268.141C652.205 267.428 653.02 267.071 654.029 267.071C655.039 267.071 655.854 267.428 656.473 268.141C657.106 268.855 657.422 269.791 657.422 270.949C657.422 272.106 657.106 273.042 656.473 273.756C655.854 274.469 655.039 274.826 654.029 274.826ZM654.029 273.412C654.568 273.412 654.992 273.197 655.302 272.766C655.611 272.322 655.766 271.716 655.766 270.949C655.766 270.181 655.611 269.582 655.302 269.151C654.992 268.707 654.568 268.485 654.029 268.485C653.491 268.485 653.067 268.7 652.757 269.131C652.448 269.562 652.293 270.168 652.293 270.949C652.293 271.729 652.448 272.335 652.757 272.766C653.067 273.197 653.491 273.412 654.029 273.412Z" fill="black"/>
    <path d="M478.132 264.867C480.125 264.867 481.599 265.257 482.555 266.038C483.511 266.805 483.989 267.855 483.989 269.188C483.989 270.037 483.78 270.804 483.362 271.491C482.945 272.177 482.319 272.722 481.484 273.126C480.65 273.53 479.62 273.732 478.395 273.732C477.385 273.732 476.409 273.591 475.466 273.308C474.524 273.012 473.729 272.608 473.083 272.096L474.194 270.057C474.719 270.488 475.345 270.831 476.072 271.087C476.813 271.329 477.573 271.45 478.354 271.45C479.283 271.45 480.01 271.262 480.535 270.885C481.074 270.494 481.343 269.963 481.343 269.289C481.343 268.562 481.054 268.017 480.475 267.654C479.909 267.277 478.933 267.088 477.546 267.088H474.133L474.86 259.394H483.161V261.595H477.082L476.779 264.867H478.132ZM491.4 273.732C490.269 273.732 489.259 273.449 488.371 272.884C487.482 272.305 486.782 271.47 486.27 270.38C485.759 269.276 485.503 267.97 485.503 266.462C485.503 264.954 485.759 263.655 486.27 262.564C486.782 261.46 487.482 260.626 488.371 260.06C489.259 259.481 490.269 259.192 491.4 259.192C492.531 259.192 493.54 259.481 494.429 260.06C495.331 260.626 496.038 261.46 496.549 262.564C497.061 263.655 497.317 264.954 497.317 266.462C497.317 267.97 497.061 269.276 496.549 270.38C496.038 271.47 495.331 272.305 494.429 272.884C493.54 273.449 492.531 273.732 491.4 273.732ZM491.4 271.45C492.409 271.45 493.204 271.033 493.783 270.198C494.375 269.363 494.671 268.118 494.671 266.462C494.671 264.806 494.375 263.561 493.783 262.726C493.204 261.891 492.409 261.474 491.4 261.474C490.403 261.474 489.609 261.891 489.017 262.726C488.438 263.561 488.148 264.806 488.148 266.462C488.148 268.118 488.438 269.363 489.017 270.198C489.609 271.033 490.403 271.45 491.4 271.45ZM502.241 267.007C501.232 267.007 500.417 266.651 499.798 265.937C499.179 265.223 498.869 264.288 498.869 263.13C498.869 261.972 499.179 261.036 499.798 260.323C500.417 259.609 501.232 259.252 502.241 259.252C503.251 259.252 504.066 259.609 504.685 260.323C505.318 261.023 505.634 261.959 505.634 263.13C505.634 264.301 505.318 265.244 504.685 265.957C504.066 266.657 503.251 267.007 502.241 267.007ZM510.723 259.394H512.702L503.049 273.53H501.07L510.723 259.394ZM502.241 265.594C502.793 265.594 503.218 265.378 503.514 264.947C503.823 264.517 503.978 263.911 503.978 263.13C503.978 262.349 503.823 261.743 503.514 261.312C503.218 260.882 502.793 260.666 502.241 260.666C501.716 260.666 501.292 260.888 500.969 261.333C500.659 261.763 500.505 262.362 500.505 263.13C500.505 263.897 500.659 264.503 500.969 264.947C501.292 265.378 501.716 265.594 502.241 265.594ZM511.511 273.672C510.501 273.672 509.687 273.315 509.067 272.601C508.448 271.888 508.138 270.952 508.138 269.794C508.138 268.636 508.448 267.701 509.067 266.987C509.687 266.274 510.501 265.917 511.511 265.917C512.521 265.917 513.335 266.274 513.954 266.987C514.587 267.701 514.904 268.636 514.904 269.794C514.904 270.952 514.587 271.888 513.954 272.601C513.335 273.315 512.521 273.672 511.511 273.672ZM511.511 272.258C512.049 272.258 512.474 272.043 512.783 271.612C513.093 271.167 513.248 270.562 513.248 269.794C513.248 269.027 513.093 268.428 512.783 267.997C512.474 267.553 512.049 267.33 511.511 267.33C510.972 267.33 510.548 267.546 510.239 267.977C509.929 268.407 509.774 269.013 509.774 269.794C509.774 270.575 509.929 271.181 510.239 271.612C510.548 272.043 510.972 272.258 511.511 272.258Z" fill="black"/>
    <path d="M59.0426 300.91C58.4752 300.035 58.0376 299.02 57.7299 297.866C57.4318 296.712 57.2827 295.476 57.2827 294.159C57.2827 292.841 57.4318 291.606 57.7299 290.452C58.0376 289.288 58.4752 288.274 59.0426 287.408H60.7591C60.1725 288.447 59.7398 289.519 59.4609 290.625C59.1916 291.721 59.057 292.899 59.057 294.159C59.057 295.419 59.1916 296.602 59.4609 297.707C59.7398 298.804 60.1725 299.871 60.7591 300.91H59.0426ZM65.3383 288.014V298.111H63.463V289.586H61.3281V288.014H65.3383ZM70.8321 288.014V298.111H68.9569V289.586H66.822V288.014H70.8321ZM72.5178 300.91C73.1044 299.871 73.5372 298.799 73.8161 297.693C74.095 296.587 74.2344 295.409 74.2344 294.159C74.2344 292.909 74.095 291.731 73.8161 290.625C73.5372 289.519 73.1044 288.447 72.5178 287.408H74.2344C74.8018 288.264 75.2345 289.274 75.5326 290.437C75.8404 291.591 75.9942 292.832 75.9942 294.159C75.9942 295.486 75.8404 296.727 75.5326 297.881C75.2345 299.025 74.8018 300.035 74.2344 300.91H72.5178Z" fill="black"/>
    <path d="M198.117 302.063C197.55 301.188 197.112 300.173 196.805 299.019C196.506 297.865 196.357 296.63 196.357 295.312C196.357 293.995 196.506 292.759 196.805 291.605C197.112 290.441 197.55 289.427 198.117 288.561H199.834C199.247 289.6 198.814 290.672 198.536 291.778C198.266 292.874 198.132 294.052 198.132 295.312C198.132 296.572 198.266 297.755 198.536 298.861C198.814 299.957 199.247 301.024 199.834 302.063H198.117ZM205.08 293.336C206.013 293.451 206.724 293.769 207.215 294.288C207.705 294.807 207.95 295.456 207.95 296.235C207.95 296.822 207.801 297.356 207.503 297.837C207.205 298.317 206.753 298.702 206.147 298.991C205.551 299.269 204.82 299.409 203.955 299.409C203.233 299.409 202.536 299.308 201.863 299.106C201.2 298.894 200.632 298.606 200.161 298.24L200.969 296.784C201.334 297.091 201.777 297.337 202.296 297.519C202.825 297.692 203.368 297.779 203.926 297.779C204.589 297.779 205.109 297.644 205.484 297.375C205.868 297.096 206.061 296.721 206.061 296.25C206.061 295.779 205.878 295.413 205.513 295.154C205.157 294.884 204.609 294.75 203.868 294.75H202.945V293.466L205.239 290.74H200.651V289.167H207.532V290.422L205.08 293.336ZM213.764 293.033C214.428 293.033 215.024 293.163 215.553 293.423C216.082 293.673 216.495 294.033 216.793 294.504C217.091 294.976 217.241 295.519 217.241 296.134C217.241 296.788 217.077 297.365 216.75 297.865C216.423 298.356 215.981 298.736 215.423 299.005C214.865 299.274 214.24 299.409 213.548 299.409C212.163 299.409 211.086 298.976 210.317 298.111C209.557 297.245 209.177 296.005 209.177 294.389C209.177 293.254 209.384 292.288 209.797 291.49C210.211 290.682 210.788 290.071 211.528 289.658C212.278 289.234 213.144 289.023 214.125 289.023C214.644 289.023 215.13 289.081 215.582 289.196C216.043 289.302 216.442 289.46 216.779 289.672L216.087 291.086C215.586 290.759 214.947 290.595 214.168 290.595C213.197 290.595 212.437 290.893 211.889 291.49C211.341 292.086 211.067 292.947 211.067 294.072V294.086C211.365 293.74 211.745 293.48 212.206 293.307C212.668 293.124 213.187 293.033 213.764 293.033ZM213.447 297.938C214.033 297.938 214.509 297.784 214.875 297.476C215.24 297.159 215.423 296.74 215.423 296.221C215.423 295.692 215.24 295.274 214.875 294.966C214.509 294.658 214.019 294.504 213.404 294.504C212.798 294.504 212.302 294.668 211.918 294.995C211.543 295.322 211.355 295.735 211.355 296.235C211.355 296.726 211.538 297.135 211.903 297.462C212.278 297.779 212.793 297.938 213.447 297.938ZM217.903 302.063C218.49 301.024 218.923 299.952 219.202 298.846C219.481 297.74 219.62 296.562 219.62 295.312C219.62 294.062 219.481 292.884 219.202 291.778C218.923 290.672 218.49 289.6 217.903 288.561H219.62C220.187 289.417 220.62 290.427 220.918 291.591C221.226 292.745 221.38 293.985 221.38 295.312C221.38 296.639 221.226 297.88 220.918 299.034C220.62 300.178 220.187 301.188 219.62 302.063H217.903Z" fill="black"/>
    <path d="M340.741 302.063C340.173 301.188 339.736 300.173 339.428 299.019C339.13 297.865 338.981 296.63 338.981 295.312C338.981 293.995 339.13 292.759 339.428 291.605C339.736 290.441 340.173 289.427 340.741 288.561H342.457C341.871 289.6 341.438 290.672 341.159 291.778C340.89 292.874 340.755 294.052 340.755 295.312C340.755 296.572 340.89 297.755 341.159 298.861C341.438 299.957 341.871 301.024 342.457 302.063H340.741ZM347.703 293.336C348.636 293.451 349.348 293.769 349.838 294.288C350.329 294.807 350.574 295.456 350.574 296.235C350.574 296.822 350.425 297.356 350.127 297.837C349.829 298.317 349.377 298.702 348.771 298.991C348.175 299.269 347.444 299.409 346.578 299.409C345.857 299.409 345.16 299.308 344.487 299.106C343.823 298.894 343.256 298.606 342.784 298.24L343.592 296.784C343.958 297.091 344.4 297.337 344.919 297.519C345.448 297.692 345.992 297.779 346.549 297.779C347.213 297.779 347.732 297.644 348.107 297.375C348.492 297.096 348.684 296.721 348.684 296.25C348.684 295.779 348.501 295.413 348.136 295.154C347.78 294.884 347.232 294.75 346.492 294.75H345.568V293.466L347.862 290.74H343.275V289.167H350.156V290.422L347.703 293.336ZM358.349 293.956C358.878 294.197 359.282 294.524 359.561 294.937C359.85 295.341 359.994 295.817 359.994 296.365C359.994 296.981 359.821 297.519 359.475 297.981C359.138 298.442 358.657 298.798 358.032 299.048C357.407 299.289 356.681 299.409 355.854 299.409C355.027 299.409 354.301 299.289 353.676 299.048C353.06 298.798 352.584 298.442 352.248 297.981C351.911 297.519 351.743 296.981 351.743 296.365C351.743 295.817 351.882 295.341 352.161 294.937C352.44 294.524 352.839 294.197 353.358 293.956C352.954 293.735 352.642 293.447 352.421 293.091C352.209 292.725 352.103 292.307 352.103 291.836C352.103 291.268 352.257 290.773 352.565 290.35C352.882 289.927 353.325 289.6 353.892 289.369C354.459 289.138 355.113 289.023 355.854 289.023C356.604 289.023 357.263 289.138 357.83 289.369C358.397 289.6 358.84 289.927 359.157 290.35C359.475 290.773 359.633 291.268 359.633 291.836C359.633 292.307 359.523 292.721 359.301 293.076C359.08 293.432 358.763 293.725 358.349 293.956ZM355.854 290.494C355.267 290.494 354.801 290.619 354.455 290.869C354.118 291.119 353.95 291.47 353.95 291.922C353.95 292.355 354.118 292.701 354.455 292.961C354.801 293.211 355.267 293.336 355.854 293.336C356.45 293.336 356.921 293.211 357.267 292.961C357.614 292.701 357.787 292.355 357.787 291.922C357.787 291.47 357.609 291.119 357.253 290.869C356.907 290.619 356.44 290.494 355.854 290.494ZM355.854 297.938C356.546 297.938 357.094 297.793 357.498 297.505C357.902 297.216 358.104 296.817 358.104 296.308C358.104 295.807 357.902 295.413 357.498 295.125C357.094 294.836 356.546 294.692 355.854 294.692C355.161 294.692 354.618 294.836 354.224 295.125C353.83 295.413 353.632 295.807 353.632 296.308C353.632 296.817 353.83 297.216 354.224 297.505C354.618 297.793 355.161 297.938 355.854 297.938ZM360.893 302.063C361.48 301.024 361.912 299.952 362.191 298.846C362.47 297.74 362.61 296.562 362.61 295.312C362.61 294.062 362.47 292.884 362.191 291.778C361.912 290.672 361.48 289.6 360.893 288.561H362.61C363.177 289.417 363.61 290.427 363.908 291.591C364.216 292.745 364.37 293.985 364.37 295.312C364.37 296.639 364.216 297.88 363.908 299.034C363.61 300.178 363.177 301.188 362.61 302.063H360.893Z" fill="black"/>
    <path d="M624.616 301.487C624.049 300.612 623.611 299.597 623.303 298.443C623.005 297.289 622.856 296.054 622.856 294.736C622.856 293.419 623.005 292.183 623.303 291.029C623.611 289.865 624.049 288.851 624.616 287.985H626.333C625.746 289.024 625.313 290.096 625.034 291.202C624.765 292.298 624.631 293.476 624.631 294.736C624.631 295.996 624.765 297.179 625.034 298.285C625.313 299.381 625.746 300.448 626.333 301.487H624.616ZM630.912 288.591V298.688H629.037V290.163H626.902V288.591H630.912ZM636.074 292.5C637.497 292.5 638.55 292.779 639.233 293.337C639.916 293.885 640.257 294.635 640.257 295.587C640.257 296.193 640.108 296.741 639.81 297.232C639.512 297.722 639.065 298.111 638.468 298.4C637.872 298.688 637.137 298.833 636.261 298.833C635.54 298.833 634.843 298.732 634.17 298.53C633.497 298.318 632.929 298.03 632.468 297.664L633.261 296.207C633.636 296.515 634.083 296.76 634.603 296.943C635.131 297.116 635.675 297.203 636.233 297.203C636.896 297.203 637.415 297.068 637.79 296.799C638.175 296.52 638.367 296.14 638.367 295.659C638.367 295.14 638.161 294.75 637.747 294.491C637.343 294.222 636.646 294.087 635.656 294.087H633.218L633.737 288.591H639.666V290.163H635.324L635.107 292.5H636.074ZM644.83 288.591V298.688H642.954V290.163H640.819V288.591H644.83ZM646.515 301.487C647.102 300.448 647.535 299.376 647.814 298.27C648.092 297.164 648.232 295.986 648.232 294.736C648.232 293.486 648.092 292.308 647.814 291.202C647.535 290.096 647.102 289.024 646.515 287.985H648.232C648.799 288.841 649.232 289.851 649.53 291.014C649.838 292.168 649.992 293.409 649.992 294.736C649.992 296.063 649.838 297.304 649.53 298.458C649.232 299.602 648.799 300.612 648.232 301.487H646.515Z" fill="black"/>
    <path d="M480.273 300.91C479.706 300.035 479.268 299.02 478.96 297.866C478.662 296.712 478.513 295.476 478.513 294.159C478.513 292.841 478.662 291.606 478.96 290.452C479.268 289.288 479.706 288.274 480.273 287.408H481.99C481.403 288.447 480.97 289.519 480.691 290.625C480.422 291.721 480.287 292.899 480.287 294.159C480.287 295.419 480.422 296.602 480.691 297.707C480.97 298.804 481.403 299.871 481.99 300.91H480.273ZM486.569 288.014V298.111H484.693V289.586H482.559V288.014H486.569ZM497.573 295.818H495.784V298.111H493.967V295.818H488.428V294.52L493.404 288.014H495.409L490.721 294.231H494.024V292.197H495.784V294.231H497.573V295.818ZM505.633 296.525V298.111H498.19V296.856L502.2 293.048C502.652 292.615 502.955 292.24 503.109 291.923C503.272 291.596 503.354 291.274 503.354 290.957C503.354 290.485 503.196 290.125 502.878 289.875C502.561 289.625 502.094 289.5 501.479 289.5C500.45 289.5 499.661 289.851 499.113 290.553L497.801 289.543C498.195 289.014 498.724 288.605 499.387 288.317C500.06 288.019 500.811 287.87 501.638 287.87C502.734 287.87 503.609 288.129 504.263 288.649C504.917 289.168 505.244 289.875 505.244 290.769C505.244 291.317 505.128 291.832 504.898 292.312C504.667 292.793 504.224 293.341 503.571 293.957L500.873 296.525H505.633ZM506.398 300.91C506.985 299.871 507.418 298.799 507.697 297.693C507.975 296.587 508.115 295.409 508.115 294.159C508.115 292.909 507.975 291.731 507.697 290.625C507.418 289.519 506.985 288.447 506.398 287.408H508.115C508.682 288.264 509.115 289.274 509.413 290.437C509.721 291.591 509.875 292.832 509.875 294.159C509.875 295.486 509.721 296.727 509.413 297.881C509.115 299.025 508.682 300.035 508.115 300.91H506.398Z" fill="black"/>
    <circle cx="37.216" cy="267.09" r="3.17349" fill="black"/>
    <circle cx="179.735" cy="267.667" r="3.17349" fill="black"/>
    <circle cx="322.254" cy="267.667" r="3.17349" fill="black"/>
    <circle cx="464.771" cy="265.936" r="3.17349" fill="black"/>
    <circle cx="608.444" cy="268.244" r="3.17349" fill="black"/>
    <g clip-path="url(#clip0)" filter="url(#filter0_d)">
        <rect x="164" y="21" width="375.778" height="192.472" rx="5.41988" fill="#191E2C"/>
        <path d="M208.978 58.6536C210.518 59.1412 211.724 59.9624 212.597 61.1172C213.469 62.2464 213.905 63.645 213.905 65.3131C213.905 67.6741 212.982 69.4962 211.134 70.7793C209.312 72.0368 206.643 72.6655 203.127 72.6655H189.192V45.7195H202.357C205.642 45.7195 208.157 46.3482 209.902 47.6057C211.673 48.8632 212.558 50.5698 212.558 52.7254C212.558 54.0343 212.237 55.2019 211.596 56.2284C210.98 57.255 210.107 58.0633 208.978 58.6536ZM195.39 50.4158V56.7674H201.587C203.127 56.7674 204.295 56.4979 205.09 55.959C205.886 55.4201 206.284 54.6245 206.284 53.5723C206.284 52.5201 205.886 51.7374 205.09 51.2242C204.295 50.6852 203.127 50.4158 201.587 50.4158H195.39ZM202.665 67.9692C204.308 67.9692 205.539 67.6998 206.361 67.1608C207.207 66.6219 207.631 65.7879 207.631 64.6587C207.631 62.426 205.976 61.3097 202.665 61.3097H195.39V67.9692H202.665ZM223.063 50.8007H214.44V45.7195H237.921V50.8007H229.299V72.6655H223.063V50.8007ZM253.027 73.1275C250.281 73.1275 247.791 72.5372 245.559 71.3567C243.352 70.1506 241.607 68.4953 240.323 66.3909C239.066 64.2609 238.437 61.8614 238.437 59.1925C238.437 56.5236 239.066 54.1369 240.323 52.0326C241.607 49.9025 243.352 48.2473 245.559 47.0668C247.791 45.8606 250.293 45.2575 253.065 45.2575C255.4 45.2575 257.505 45.6682 259.378 46.4894C261.277 47.3106 262.868 48.4911 264.151 50.0308L260.148 53.7263C258.326 51.6219 256.068 50.5698 253.373 50.5698C251.705 50.5698 250.216 50.9419 248.908 51.6861C247.599 52.4047 246.572 53.4183 245.828 54.7272C245.11 56.036 244.75 57.5244 244.75 59.1925C244.75 60.8606 245.11 62.349 245.828 63.6578C246.572 64.9667 247.599 65.9932 248.908 66.7374C250.216 67.456 251.705 67.8152 253.373 67.8152C256.068 67.8152 258.326 66.7502 260.148 64.6202L264.151 68.3157C262.868 69.8811 261.277 71.0744 259.378 71.8956C257.479 72.7169 255.362 73.1275 253.027 73.1275ZM279.339 73.1275C275.49 73.1275 272.487 72.0624 270.331 69.9324C268.201 67.8024 267.136 64.7614 267.136 60.8093V45.7195H273.372V60.5783C273.372 65.4029 275.374 67.8152 279.377 67.8152C281.328 67.8152 282.816 67.2378 283.843 66.083C284.869 64.9025 285.383 63.0676 285.383 60.5783V45.7195H291.542V60.8093C291.542 64.7614 290.464 67.8024 288.308 69.9324C286.178 72.0624 283.188 73.1275 279.339 73.1275ZM305.788 73.1275C303.658 73.1275 301.592 72.8452 299.59 72.2806C297.614 71.6903 296.023 70.9333 294.817 70.0094L296.934 65.3131C298.089 66.16 299.462 66.84 301.053 67.3533C302.644 67.8666 304.235 68.1232 305.826 68.1232C307.597 68.1232 308.906 67.8666 309.753 67.3533C310.6 66.8144 311.023 66.1087 311.023 65.2361C311.023 64.5945 310.767 64.0685 310.253 63.6578C309.766 63.2216 309.124 62.8751 308.329 62.6185C307.559 62.3619 306.506 62.0796 305.172 61.7716C303.119 61.284 301.438 60.7964 300.129 60.3088C298.82 59.8212 297.691 59.0385 296.742 57.9607C295.818 56.8828 295.356 55.4457 295.356 53.6493C295.356 52.0839 295.779 50.6724 296.626 49.4149C297.473 48.1318 298.743 47.1181 300.437 46.3739C302.157 45.6297 304.248 45.2575 306.712 45.2575C308.431 45.2575 310.112 45.4628 311.755 45.8735C313.397 46.2841 314.834 46.8743 316.066 47.6442L314.141 52.379C311.652 50.9675 309.163 50.2618 306.673 50.2618C304.928 50.2618 303.632 50.5441 302.785 51.1087C301.964 51.6733 301.554 52.4175 301.554 53.3414C301.554 54.2652 302.028 54.9581 302.978 55.4201C303.953 55.8563 305.429 56.2926 307.405 56.7289C309.458 57.2165 311.139 57.7041 312.447 58.1916C313.756 58.6792 314.873 59.4491 315.796 60.5013C316.746 61.5535 317.221 62.9778 317.221 64.7742C317.221 66.314 316.784 67.7254 315.912 69.0086C315.065 70.266 313.782 71.2669 312.062 72.0111C310.343 72.7553 308.252 73.1275 305.788 73.1275ZM320.712 45.7195H332.953C335.879 45.7195 338.458 46.2841 340.691 47.4132C342.949 48.5167 344.694 50.0822 345.926 52.1095C347.183 54.1369 347.812 56.4979 347.812 59.1925C347.812 61.8871 347.183 64.2481 345.926 66.2755C344.694 68.3028 342.949 69.8811 340.691 71.0103C338.458 72.1138 335.879 72.6655 332.953 72.6655H320.712V45.7195ZM332.645 67.5458C335.34 67.5458 337.483 66.8016 339.074 65.3131C340.691 63.799 341.499 61.7588 341.499 59.1925C341.499 56.6262 340.691 54.5988 339.074 53.1104C337.483 51.5963 335.34 50.8392 332.645 50.8392H326.948V67.5458H332.645Z" fill="white"/>
        <path d="M534.279 207.581C534.279 208.593 533.458 209.414 532.446 209.414L478.562 209.414C477.55 209.414 476.729 208.593 476.729 207.581C476.729 206.568 477.55 205.747 478.562 205.747L532.446 205.747C533.458 205.747 534.279 206.568 534.279 207.581Z" fill="#D5CE41"/>
        <path d="M472.466 207.581C472.466 208.593 471.646 209.414 470.633 209.414L416.75 209.414C415.737 209.414 414.917 208.593 414.917 207.581C414.917 206.568 415.737 205.747 416.75 205.747L470.633 205.747C471.646 205.747 472.466 206.568 472.466 207.581Z" fill="#D5CE41"/>
        <rect x="410.653" y="209.414" width="57.5497" height="3.66612" rx="1.83306" transform="rotate(180 410.653 209.414)" fill="#D5CE41"/>
        <rect x="348.84" y="209.414" width="57.5497" height="3.66612" rx="1.83306" transform="rotate(180 348.84 209.414)" fill="#D5CE41"/>
        <rect x="287.028" y="209.414" width="57.5497" height="3.66612" rx="1.83306" transform="rotate(180 287.028 209.414)" fill="#D64730"/>
        <path d="M225.216 207.581C225.216 208.593 224.395 209.414 223.383 209.414L169.499 209.414C168.487 209.414 167.666 208.593 167.666 207.581C167.666 206.568 168.487 205.747 169.499 205.747L223.383 205.747C224.395 205.747 225.216 206.568 225.216 207.581Z" fill="#D64730"/>
        <rect x="465.894" y="61.3291" width="7.10313" height="9.16532" rx="3.55156" fill="white"/>
        <rect x="478.323" y="57.665" width="7.10313" height="12.8315" rx="3.55156" fill="white"/>
        <rect x="490.754" y="53.9966" width="7.10313" height="16.4976" rx="3.55156" fill="white"/>
        <rect x="503.185" y="50.3281" width="7.10313" height="20.1637" rx="3.55156" fill="white"/>
        <rect x="515.615" y="46.6641" width="7.10313" height="23.8298" rx="3.55156" fill="white"/>
        <path opacity="0.5" d="M228.425 173.699V187.813H225.804V175.897H222.82V173.699H228.425ZM236.105 173.699V187.813H233.483V175.897H230.499V173.699H236.105ZM240.477 180.272C240.02 180.272 239.63 180.118 239.308 179.808C238.985 179.486 238.824 179.083 238.824 178.599C238.824 178.101 238.978 177.698 239.288 177.389C239.61 177.08 240.007 176.925 240.477 176.925C240.948 176.925 241.338 177.08 241.647 177.389C241.969 177.698 242.131 178.101 242.131 178.599C242.131 179.083 241.969 179.486 241.647 179.808C241.324 180.118 240.934 180.272 240.477 180.272ZM240.477 187.955C240.02 187.955 239.63 187.8 239.308 187.491C238.985 187.168 238.824 186.765 238.824 186.281C238.824 185.784 238.978 185.38 239.288 185.071C239.61 184.762 240.007 184.607 240.477 184.607C240.948 184.607 241.338 184.762 241.647 185.071C241.969 185.38 242.131 185.784 242.131 186.281C242.131 186.765 241.969 187.168 241.647 187.491C241.324 187.8 240.934 187.955 240.477 187.955ZM248.243 179.163C250.233 179.163 251.705 179.553 252.659 180.333C253.613 181.099 254.091 182.147 254.091 183.478C254.091 184.325 253.882 185.091 253.466 185.777C253.049 186.463 252.424 187.007 251.59 187.41C250.757 187.813 249.729 188.015 248.505 188.015C247.497 188.015 246.522 187.874 245.582 187.592C244.641 187.296 243.847 186.893 243.202 186.382L244.311 184.345C244.835 184.775 245.461 185.118 246.186 185.374C246.926 185.616 247.685 185.737 248.465 185.737C249.392 185.737 250.118 185.548 250.643 185.172C251.18 184.782 251.449 184.251 251.449 183.579C251.449 182.853 251.16 182.309 250.582 181.946C250.018 181.569 249.043 181.381 247.658 181.381H244.251L244.977 173.699H253.264V175.897H247.195L246.892 179.163H248.243ZM261.513 179.526C262.817 179.688 263.812 180.131 264.497 180.857C265.183 181.583 265.525 182.49 265.525 183.579C265.525 184.399 265.317 185.145 264.9 185.817C264.484 186.489 263.852 187.027 263.005 187.43C262.172 187.82 261.15 188.015 259.94 188.015C258.932 188.015 257.957 187.874 257.016 187.592C256.089 187.296 255.296 186.893 254.637 186.382L255.766 184.345C256.277 184.775 256.895 185.118 257.621 185.374C258.361 185.616 259.12 185.737 259.9 185.737C260.827 185.737 261.553 185.548 262.077 185.172C262.615 184.782 262.884 184.258 262.884 183.599C262.884 182.941 262.629 182.43 262.118 182.067C261.62 181.69 260.854 181.502 259.819 181.502H258.529V179.708L261.735 175.897H255.323V173.699H264.941V175.453L261.513 179.526Z" fill="white"/>
        <g opacity="0.5">
            <path fill-rule="evenodd" clip-rule="evenodd" d="M200.655 168.896C194.331 168.896 189.21 174.028 189.21 180.352C189.21 186.676 194.331 191.809 200.655 191.809C206.991 191.809 212.123 186.676 212.123 180.352C212.123 174.028 206.991 168.896 200.655 168.896ZM200.667 189.519C195.603 189.519 191.501 185.417 191.501 180.353C191.501 175.29 195.603 171.188 200.667 171.188C205.73 171.188 209.832 175.29 209.832 180.353C209.832 185.417 205.73 189.519 200.667 189.519ZM199.521 174.626H201.24V180.641L206.395 183.7L205.536 185.109L199.521 181.5V174.626Z" fill="white"/>
        </g>
        <path opacity="0.5" d="M343.445 179.165C345.434 179.165 346.906 179.555 347.861 180.334C348.815 181.1 349.292 182.149 349.292 183.48C349.292 184.327 349.084 185.093 348.667 185.778C348.25 186.464 347.625 187.008 346.792 187.412C345.958 187.815 344.93 188.017 343.707 188.017C342.699 188.017 341.724 187.875 340.783 187.593C339.842 187.297 339.049 186.894 338.404 186.383L339.513 184.347C340.037 184.777 340.662 185.12 341.388 185.375C342.127 185.617 342.887 185.738 343.666 185.738C344.594 185.738 345.32 185.55 345.844 185.173C346.382 184.784 346.651 184.253 346.651 183.581C346.651 182.855 346.362 182.31 345.784 181.947C345.219 181.571 344.244 181.383 342.86 181.383H339.452L340.178 173.7H348.465V175.898H342.396L342.094 179.165H343.445ZM370.733 176.927C372.091 176.927 373.166 177.323 373.959 178.116C374.753 178.896 375.149 180.072 375.149 181.645V187.815H372.629V181.967C372.629 181.026 372.42 180.321 372.004 179.85C371.587 179.366 370.989 179.124 370.209 179.124C369.362 179.124 368.683 179.407 368.172 179.971C367.662 180.522 367.406 181.316 367.406 182.351V187.815H364.886V181.967C364.886 181.026 364.677 180.321 364.261 179.85C363.844 179.366 363.246 179.124 362.466 179.124C361.606 179.124 360.92 179.4 360.409 179.951C359.912 180.502 359.663 181.302 359.663 182.351V187.815H357.143V177.048H359.542V178.419C359.946 177.935 360.45 177.565 361.055 177.31C361.66 177.054 362.332 176.927 363.071 176.927C363.878 176.927 364.59 177.081 365.208 177.39C365.84 177.686 366.338 178.13 366.701 178.721C367.144 178.157 367.715 177.72 368.414 177.41C369.113 177.088 369.886 176.927 370.733 176.927ZM378.37 177.048H380.89V187.815H378.37V177.048ZM379.64 175.273C379.183 175.273 378.8 175.132 378.491 174.85C378.182 174.554 378.027 174.191 378.027 173.761C378.027 173.331 378.182 172.974 378.491 172.692C378.8 172.396 379.183 172.249 379.64 172.249C380.097 172.249 380.48 172.39 380.79 172.672C381.099 172.941 381.253 173.284 381.253 173.7C381.253 174.144 381.099 174.52 380.79 174.83C380.494 175.125 380.111 175.273 379.64 175.273ZM390.308 176.927C391.666 176.927 392.755 177.323 393.575 178.116C394.395 178.909 394.805 180.086 394.805 181.645V187.815H392.284V181.967C392.284 181.026 392.062 180.321 391.619 179.85C391.175 179.366 390.543 179.124 389.723 179.124C388.796 179.124 388.063 179.407 387.526 179.971C386.988 180.522 386.719 181.322 386.719 182.371V187.815H384.199V177.048H386.598V178.439C387.015 177.941 387.539 177.565 388.171 177.31C388.803 177.054 389.515 176.927 390.308 176.927Z" fill="white"/>
        <g opacity="0.5">
            <path fill-rule="evenodd" clip-rule="evenodd" d="M317.707 188.73C317.631 188.73 317.552 188.727 317.473 188.719C316.464 188.619 315.674 187.908 315.456 186.905L312.382 172.708L309.217 180.02C309.035 180.439 308.621 180.711 308.165 180.711H304.728C304.095 180.711 303.583 180.198 303.583 179.565C303.583 178.932 304.095 178.419 304.728 178.419H307.414L310.285 171.787C310.691 170.852 311.587 170.308 312.606 170.41C313.614 170.51 314.404 171.221 314.622 172.224L317.696 186.421L320.861 179.109C321.044 178.69 321.456 178.419 321.913 178.419H325.35C325.984 178.419 326.496 178.932 326.496 179.565C326.496 180.198 325.984 180.711 325.35 180.711H322.665L319.794 187.342C319.419 188.205 318.616 188.73 317.707 188.73Z" fill="#F2F2F2"/>
        </g>
        <g opacity="0.5">
            <path fill-rule="evenodd" clip-rule="evenodd" d="M452.896 180.347L447.626 185.617L449.23 187.221L456.104 180.347L449.23 173.473L447.626 175.077L452.896 180.347ZM436.399 180.348L441.669 185.618L440.065 187.222L433.191 180.348L440.065 173.474L441.669 175.078L436.399 180.348Z" fill="white"/>
        </g>
        <path opacity="0.5" d="M474.159 173.699C475.382 173.699 476.444 173.901 477.345 174.304C478.259 174.707 478.958 175.285 479.442 176.038C479.926 176.791 480.168 177.685 480.168 178.72C480.168 179.741 479.926 180.635 479.442 181.401C478.958 182.154 478.259 182.732 477.345 183.135C476.444 183.539 475.382 183.74 474.159 183.74H470.973V187.813H468.352V173.699H474.159ZM474.038 181.522C475.181 181.522 476.048 181.28 476.639 180.797C477.231 180.313 477.526 179.62 477.526 178.72C477.526 177.819 477.231 177.127 476.639 176.643C476.048 176.159 475.181 175.917 474.038 175.917H470.973V181.522H474.038ZM487.358 188.015C486.269 188.015 485.214 187.861 484.192 187.551C483.184 187.242 482.384 186.832 481.793 186.321L482.7 184.285C483.278 184.742 483.984 185.118 484.817 185.414C485.664 185.696 486.511 185.837 487.358 185.837C488.406 185.837 489.186 185.669 489.697 185.333C490.221 184.997 490.483 184.554 490.483 184.003C490.483 183.599 490.335 183.27 490.04 183.015C489.757 182.746 489.394 182.537 488.951 182.389C488.507 182.242 487.902 182.074 487.136 181.885C486.061 181.63 485.187 181.375 484.515 181.119C483.856 180.864 483.285 180.467 482.801 179.929C482.33 179.378 482.095 178.639 482.095 177.711C482.095 176.932 482.304 176.226 482.72 175.594C483.15 174.949 483.789 174.438 484.636 174.062C485.496 173.685 486.545 173.497 487.781 173.497C488.642 173.497 489.489 173.605 490.322 173.82C491.155 174.035 491.875 174.344 492.48 174.747L491.653 176.784C491.034 176.421 490.389 176.145 489.717 175.957C489.045 175.769 488.393 175.675 487.761 175.675C486.726 175.675 485.953 175.85 485.442 176.199C484.945 176.549 484.696 177.012 484.696 177.59C484.696 177.994 484.837 178.323 485.12 178.578C485.416 178.834 485.785 179.036 486.229 179.183C486.672 179.331 487.277 179.499 488.044 179.688C489.092 179.929 489.952 180.185 490.624 180.454C491.297 180.709 491.868 181.106 492.338 181.643C492.822 182.181 493.064 182.907 493.064 183.821C493.064 184.601 492.849 185.306 492.419 185.938C492.002 186.57 491.364 187.074 490.504 187.451C489.643 187.827 488.595 188.015 487.358 188.015ZM504.818 184.547H497.761L496.369 187.813H493.667L500.019 173.699H502.6L508.972 187.813H506.229L504.818 184.547ZM503.951 182.49L501.289 176.32L498.648 182.49H503.951ZM520.002 187.813L517.118 183.68C516.997 183.693 516.816 183.7 516.574 183.7H513.388V187.813H510.767V173.699H516.574C517.797 173.699 518.859 173.901 519.76 174.304C520.674 174.707 521.373 175.285 521.857 176.038C522.341 176.791 522.583 177.685 522.583 178.72C522.583 179.782 522.32 180.696 521.796 181.462C521.285 182.228 520.546 182.799 519.578 183.176L522.825 187.813H520.002ZM519.941 178.72C519.941 177.819 519.645 177.127 519.054 176.643C518.462 176.159 517.595 175.917 516.453 175.917H513.388V181.543H516.453C517.595 181.543 518.462 181.301 519.054 180.817C519.645 180.319 519.941 179.62 519.941 178.72Z" fill="white"/>
        <path d="M425.92 135.641C423.688 135.641 421.524 135.345 419.427 134.753C417.357 134.135 415.69 133.342 414.427 132.374L416.645 127.454C417.854 128.341 419.293 129.054 420.96 129.592C422.626 130.129 424.293 130.398 425.96 130.398C427.815 130.398 429.186 130.129 430.074 129.592C430.961 129.027 431.404 128.288 431.404 127.374C431.404 126.701 431.136 126.15 430.598 125.72C430.087 125.263 429.415 124.9 428.581 124.631C427.775 124.362 426.673 124.067 425.275 123.744C423.124 123.233 421.363 122.722 419.992 122.212C418.621 121.701 417.438 120.881 416.443 119.752C415.475 118.622 414.991 117.117 414.991 115.235C414.991 113.595 415.435 112.116 416.322 110.799C417.209 109.455 418.54 108.393 420.314 107.613C422.116 106.833 424.307 106.444 426.888 106.444C428.689 106.444 430.45 106.659 432.171 107.089C433.891 107.519 435.397 108.137 436.687 108.944L434.671 113.904C432.063 112.426 429.455 111.686 426.847 111.686C425.019 111.686 423.662 111.982 422.774 112.573C421.914 113.165 421.484 113.945 421.484 114.912C421.484 115.88 421.981 116.606 422.976 117.09C423.998 117.547 425.543 118.004 427.614 118.461C429.764 118.972 431.525 119.483 432.896 119.994C434.268 120.504 435.437 121.311 436.405 122.413C437.4 123.516 437.897 125.008 437.897 126.89C437.897 128.503 437.44 129.981 436.526 131.326C435.639 132.643 434.295 133.692 432.493 134.471C430.692 135.251 428.501 135.641 425.92 135.641ZM464.219 129.914V135.157H442.361V106.928H463.694V112.17H448.854V118.3H461.96V123.381H448.854V129.914H464.219ZM469.417 106.928H475.95V129.834H490.105V135.157H469.417V106.928ZM493.755 106.928H500.288V129.834H514.443V135.157H493.755V106.928Z" fill="#FF665A"/>
        <rect x="189.663" y="83.3267" width="164.976" height="31.1621" rx="5.0835" fill="#D64730" fill-opacity="0.37"/>
        <path fill-rule="evenodd" clip-rule="evenodd" d="M207.457 90.6602H222.217C222.694 90.6602 223.085 91.0515 223.085 91.529V91.6243C223.085 92.1019 222.694 92.4932 222.217 92.4932H207.457C206.979 92.4932 206.588 92.1019 206.588 91.6243V91.529C206.588 91.0515 206.979 90.6602 207.457 90.6602ZM215.524 96.3071L215.524 103.537C215.524 104.014 215.132 104.406 214.655 104.406H214.559C214.082 104.406 213.691 104.014 213.691 103.537L213.691 96.3071L212.506 97.4922C212.147 97.8506 211.568 97.8506 211.21 97.4922C211.031 97.3135 210.941 97.0788 210.941 96.8442C210.941 96.6096 211.031 96.3758 211.21 96.1962L213.959 93.4466C214.318 93.0892 214.897 93.0892 215.255 93.4466L218.005 96.1962C218.363 96.5546 218.363 97.1347 218.005 97.4922C217.646 97.8506 217.067 97.8506 216.709 97.4922L215.524 96.3071Z" fill="white"/>
        <path d="M242.746 97.7175C244.095 97.9375 245.129 98.4434 245.847 99.2353C246.566 100.013 246.925 100.98 246.925 102.139C246.925 103.033 246.69 103.862 246.221 104.625C245.752 105.372 245.033 105.974 244.065 106.428C243.112 106.883 241.939 107.11 240.546 107.11C239.461 107.11 238.39 106.971 237.334 106.692C236.293 106.399 235.406 105.988 234.673 105.46L236.059 102.733C236.645 103.173 237.32 103.517 238.082 103.767C238.86 104.001 239.651 104.119 240.458 104.119C241.353 104.119 242.056 103.95 242.57 103.613C243.083 103.261 243.34 102.769 243.34 102.139C243.34 100.878 242.379 100.247 240.458 100.247H238.83V97.8935L241.998 94.308H235.443V91.4484H246.221V93.7581L242.746 97.7175ZM253.635 97.2336C255.805 97.2336 257.404 97.6662 258.43 98.5314C259.471 99.3966 259.992 100.555 259.992 102.007C259.992 102.945 259.757 103.803 259.288 104.581C258.819 105.343 258.1 105.959 257.132 106.428C256.179 106.883 254.999 107.11 253.591 107.11C252.506 107.11 251.435 106.971 250.379 106.692C249.338 106.399 248.451 105.988 247.718 105.46L249.125 102.733C249.712 103.173 250.387 103.517 251.149 103.767C251.912 104.001 252.696 104.119 253.503 104.119C254.397 104.119 255.101 103.943 255.614 103.591C256.128 103.239 256.384 102.747 256.384 102.117C256.384 101.457 256.113 100.958 255.57 100.621C255.043 100.284 254.119 100.115 252.799 100.115H248.861L249.653 91.4484H259.046V94.308H252.623L252.381 97.2336H253.635ZM272.834 103.943V106.846H261.198V104.537L267.137 98.9274C267.768 98.3261 268.193 97.8128 268.413 97.3876C268.633 96.9476 268.743 96.515 268.743 96.0898C268.743 95.4739 268.53 95.0046 268.105 94.682C267.695 94.3447 267.086 94.176 266.279 94.176C265.605 94.176 264.996 94.308 264.454 94.572C263.911 94.8213 263.457 95.2026 263.09 95.7158L260.494 94.0441C261.096 93.1495 261.924 92.453 262.98 91.9544C264.036 91.4411 265.246 91.1845 266.609 91.1845C267.753 91.1845 268.75 91.3751 269.601 91.7564C270.466 92.123 271.133 92.6509 271.603 93.3402C272.087 94.0147 272.329 94.814 272.329 95.7378C272.329 96.5737 272.153 97.3582 271.801 98.0915C271.449 98.8247 270.767 99.6606 269.755 100.599L266.213 103.943H272.834ZM279.716 91.1845C281.872 91.1845 283.558 91.8444 284.775 93.1642C285.992 94.4693 286.601 96.3537 286.601 98.8174C286.601 100.562 286.271 102.058 285.611 103.305C284.966 104.551 284.049 105.497 282.862 106.142C281.674 106.788 280.303 107.11 278.748 107.11C277.927 107.11 277.142 107.022 276.395 106.846C275.647 106.656 275.009 106.392 274.481 106.054L275.801 103.437C276.549 103.95 277.509 104.207 278.682 104.207C279.987 104.207 281.021 103.825 281.784 103.063C282.546 102.286 282.957 101.171 283.016 99.7192C282.092 100.643 280.816 101.105 279.188 101.105C278.206 101.105 277.311 100.907 276.505 100.511C275.698 100.115 275.06 99.5579 274.591 98.8394C274.122 98.1061 273.887 97.2629 273.887 96.3097C273.887 95.2832 274.144 94.3813 274.657 93.6041C275.17 92.8269 275.867 92.233 276.746 91.8224C277.641 91.3971 278.631 91.1845 279.716 91.1845ZM279.98 98.4434C280.757 98.4434 281.388 98.2308 281.872 97.8055C282.37 97.3656 282.62 96.8083 282.62 96.1338C282.62 95.4592 282.378 94.9093 281.894 94.484C281.424 94.0587 280.772 93.8461 279.936 93.8461C279.173 93.8461 278.55 94.0514 278.066 94.462C277.597 94.8726 277.362 95.4299 277.362 96.1338C277.362 96.8377 277.597 97.4022 278.066 97.8275C278.55 98.2381 279.188 98.4434 279.98 98.4434ZM298.847 98.7514C299.61 99.1327 300.189 99.6312 300.585 100.247C300.995 100.863 301.201 101.574 301.201 102.381C301.201 103.334 300.929 104.17 300.387 104.888C299.844 105.592 299.082 106.142 298.099 106.538C297.117 106.92 295.98 107.11 294.69 107.11C293.399 107.11 292.263 106.92 291.28 106.538C290.312 106.142 289.557 105.592 289.014 104.888C288.487 104.17 288.223 103.334 288.223 102.381C288.223 101.574 288.421 100.863 288.817 100.247C289.227 99.6312 289.806 99.1327 290.554 98.7514C289.982 98.3994 289.542 97.9595 289.234 97.4316C288.927 96.889 288.773 96.2731 288.773 95.5838C288.773 94.6893 289.022 93.9121 289.52 93.2522C290.019 92.5923 290.716 92.0864 291.61 91.7344C292.505 91.3678 293.531 91.1845 294.69 91.1845C295.863 91.1845 296.897 91.3678 297.791 91.7344C298.7 92.0864 299.404 92.5923 299.903 93.2522C300.401 93.9121 300.651 94.6893 300.651 95.5838C300.651 96.2731 300.497 96.889 300.189 97.4316C299.881 97.9595 299.434 98.3994 298.847 98.7514ZM294.69 93.8021C293.971 93.8021 293.392 93.9781 292.952 94.33C292.527 94.6673 292.314 95.1366 292.314 95.7378C292.314 96.3244 292.527 96.7863 292.952 97.1236C293.377 97.4609 293.956 97.6295 294.69 97.6295C295.423 97.6295 296.009 97.4609 296.449 97.1236C296.889 96.7863 297.109 96.3244 297.109 95.7378C297.109 95.1366 296.889 94.6673 296.449 94.33C296.009 93.9781 295.423 93.8021 294.69 93.8021ZM294.69 104.493C295.584 104.493 296.288 104.295 296.801 103.899C297.329 103.488 297.593 102.945 297.593 102.271C297.593 101.596 297.329 101.061 296.801 100.665C296.288 100.269 295.584 100.071 294.69 100.071C293.81 100.071 293.113 100.269 292.6 100.665C292.087 101.061 291.83 101.596 291.83 102.271C291.83 102.96 292.087 103.503 292.6 103.899C293.113 104.295 293.81 104.493 294.69 104.493ZM305.07 107.022C304.469 107.022 303.963 106.817 303.553 106.406C303.142 105.996 302.937 105.482 302.937 104.866C302.937 104.236 303.142 103.73 303.553 103.349C303.963 102.953 304.469 102.755 305.07 102.755C305.672 102.755 306.178 102.953 306.588 103.349C306.999 103.73 307.204 104.236 307.204 104.866C307.204 105.482 306.999 105.996 306.588 106.406C306.178 106.817 305.672 107.022 305.07 107.022ZM315.123 107.11C313.848 107.11 312.711 106.795 311.714 106.164C310.717 105.534 309.932 104.625 309.36 103.437C308.803 102.234 308.524 100.804 308.524 99.1473C308.524 97.4902 308.803 96.0678 309.36 94.8799C309.932 93.6775 310.717 92.7609 311.714 92.1303C312.711 91.4998 313.848 91.1845 315.123 91.1845C316.399 91.1845 317.536 91.4998 318.533 92.1303C319.53 92.7609 320.307 93.6775 320.865 94.8799C321.437 96.0678 321.723 97.4902 321.723 99.1473C321.723 100.804 321.437 102.234 320.865 103.437C320.307 104.625 319.53 105.534 318.533 106.164C317.536 106.795 316.399 107.11 315.123 107.11ZM315.123 104.097C316.062 104.097 316.795 103.693 317.323 102.887C317.866 102.08 318.137 100.834 318.137 99.1473C318.137 97.4609 317.866 96.2144 317.323 95.4079C316.795 94.6013 316.062 94.198 315.123 94.198C314.2 94.198 313.466 94.6013 312.924 95.4079C312.396 96.2144 312.132 97.4609 312.132 99.1473C312.132 100.834 312.396 102.08 312.924 102.887C313.466 103.693 314.2 104.097 315.123 104.097Z" fill="white"/>
        <rect x="189.663" y="121.82" width="164.976" height="31.1621" rx="5.0835" fill="#1BC53C" fill-opacity="0.57"/>
        <path fill-rule="evenodd" clip-rule="evenodd" d="M207.457 145.648H222.217C222.694 145.648 223.085 145.257 223.085 144.779V144.684C223.085 144.206 222.694 143.815 222.217 143.815H207.457C206.979 143.815 206.588 144.206 206.588 144.684V144.779C206.588 145.257 206.979 145.648 207.457 145.648ZM215.524 140.003L215.524 132.773C215.524 132.296 215.132 131.904 214.655 131.904H214.559C214.082 131.904 213.691 132.296 213.691 132.773L213.691 140.003L212.506 138.818C212.147 138.459 211.568 138.459 211.21 138.818C211.031 138.996 210.941 139.231 210.941 139.466C210.941 139.7 211.031 139.934 211.21 140.114L213.959 142.863C214.318 143.221 214.897 143.221 215.255 142.863L218.005 140.114C218.363 139.755 218.363 139.175 218.005 138.818C217.646 138.459 217.067 138.459 216.709 138.818L215.524 140.003Z" fill="white"/>
        <path d="M242.746 136.211C244.095 136.431 245.129 136.937 245.847 137.728C246.566 138.506 246.925 139.474 246.925 140.632C246.925 141.527 246.69 142.355 246.221 143.118C245.752 143.866 245.033 144.467 244.065 144.921C243.112 145.376 241.939 145.603 240.546 145.603C239.461 145.603 238.39 145.464 237.334 145.185C236.293 144.892 235.406 144.481 234.673 143.954L236.059 141.226C236.645 141.666 237.32 142.011 238.082 142.26C238.86 142.494 239.651 142.612 240.458 142.612C241.353 142.612 242.056 142.443 242.57 142.106C243.083 141.754 243.34 141.263 243.34 140.632C243.34 139.371 242.379 138.74 240.458 138.74H238.83V136.387L241.998 132.801H235.443V129.942H246.221V132.251L242.746 136.211ZM255.983 135.683C256.966 135.683 257.86 135.881 258.667 136.277C259.473 136.673 260.111 137.237 260.581 137.97C261.05 138.689 261.284 139.525 261.284 140.478C261.284 141.505 261.028 142.406 260.515 143.184C260.001 143.961 259.297 144.562 258.403 144.987C257.523 145.398 256.54 145.603 255.455 145.603C253.3 145.603 251.613 144.943 250.396 143.624C249.179 142.304 248.57 140.419 248.57 137.97C248.57 136.225 248.9 134.73 249.56 133.483C250.22 132.237 251.137 131.291 252.31 130.646C253.498 130 254.869 129.678 256.423 129.678C257.244 129.678 258.029 129.773 258.777 129.964C259.539 130.14 260.185 130.396 260.713 130.733L259.393 133.351C258.63 132.838 257.67 132.581 256.511 132.581C255.206 132.581 254.172 132.963 253.41 133.725C252.647 134.488 252.236 135.595 252.178 137.047C253.087 136.137 254.355 135.683 255.983 135.683ZM255.257 142.942C256.02 142.942 256.636 142.736 257.105 142.326C257.589 141.915 257.831 141.358 257.831 140.654C257.831 139.95 257.589 139.393 257.105 138.982C256.636 138.557 256.005 138.344 255.213 138.344C254.436 138.344 253.798 138.564 253.3 139.004C252.801 139.43 252.552 139.979 252.552 140.654C252.552 141.329 252.794 141.879 253.278 142.304C253.762 142.729 254.421 142.942 255.257 142.942ZM267.987 129.678C270.143 129.678 271.829 130.338 273.047 131.657C274.264 132.963 274.872 134.847 274.872 137.311C274.872 139.056 274.542 140.551 273.882 141.798C273.237 143.044 272.321 143.99 271.133 144.635C269.945 145.281 268.574 145.603 267.019 145.603C266.198 145.603 265.414 145.515 264.666 145.339C263.918 145.149 263.28 144.885 262.752 144.547L264.072 141.93C264.82 142.443 265.78 142.7 266.953 142.7C268.259 142.7 269.292 142.318 270.055 141.556C270.818 140.779 271.228 139.664 271.287 138.212C270.363 139.136 269.087 139.598 267.459 139.598C266.477 139.598 265.582 139.4 264.776 139.004C263.969 138.608 263.331 138.051 262.862 137.333C262.393 136.599 262.158 135.756 262.158 134.803C262.158 133.776 262.415 132.875 262.928 132.097C263.441 131.32 264.138 130.726 265.018 130.316C265.912 129.89 266.902 129.678 267.987 129.678ZM268.251 136.937C269.028 136.937 269.659 136.724 270.143 136.299C270.642 135.859 270.891 135.301 270.891 134.627C270.891 133.952 270.649 133.402 270.165 132.977C269.696 132.552 269.043 132.339 268.207 132.339C267.445 132.339 266.821 132.545 266.338 132.955C265.868 133.366 265.634 133.923 265.634 134.627C265.634 135.331 265.868 135.895 266.338 136.321C266.821 136.731 267.459 136.937 268.251 136.937ZM287.118 137.245C287.881 137.626 288.46 138.124 288.856 138.74C289.267 139.356 289.472 140.067 289.472 140.874C289.472 141.827 289.201 142.663 288.658 143.382C288.115 144.086 287.353 144.635 286.37 145.031C285.388 145.413 284.251 145.603 282.961 145.603C281.67 145.603 280.534 145.413 279.551 145.031C278.584 144.635 277.828 144.086 277.286 143.382C276.758 142.663 276.494 141.827 276.494 140.874C276.494 140.067 276.692 139.356 277.088 138.74C277.498 138.124 278.078 137.626 278.826 137.245C278.254 136.893 277.814 136.453 277.506 135.925C277.198 135.382 277.044 134.766 277.044 134.077C277.044 133.182 277.293 132.405 277.792 131.745C278.29 131.085 278.987 130.58 279.881 130.228C280.776 129.861 281.802 129.678 282.961 129.678C284.134 129.678 285.168 129.861 286.062 130.228C286.972 130.58 287.676 131.085 288.174 131.745C288.673 132.405 288.922 133.182 288.922 134.077C288.922 134.766 288.768 135.382 288.46 135.925C288.152 136.453 287.705 136.893 287.118 137.245ZM282.961 132.295C282.242 132.295 281.663 132.471 281.223 132.823C280.798 133.16 280.585 133.63 280.585 134.231C280.585 134.818 280.798 135.279 281.223 135.617C281.648 135.954 282.228 136.123 282.961 136.123C283.694 136.123 284.281 135.954 284.721 135.617C285.161 135.279 285.381 134.818 285.381 134.231C285.381 133.63 285.161 133.16 284.721 132.823C284.281 132.471 283.694 132.295 282.961 132.295ZM282.961 142.986C283.855 142.986 284.559 142.788 285.073 142.392C285.601 141.981 285.864 141.439 285.864 140.764C285.864 140.089 285.601 139.554 285.073 139.158C284.559 138.762 283.855 138.564 282.961 138.564C282.081 138.564 281.384 138.762 280.871 139.158C280.358 139.554 280.101 140.089 280.101 140.764C280.101 141.453 280.358 141.996 280.871 142.392C281.384 142.788 282.081 142.986 282.961 142.986ZM303.157 129.942V132.251L297.438 145.339H293.567L299.088 132.845H293.985V135.353H290.817V129.942H303.157ZM305.693 145.515C305.092 145.515 304.586 145.31 304.176 144.899C303.765 144.489 303.56 143.976 303.56 143.36C303.56 142.729 303.765 142.223 304.176 141.842C304.586 141.446 305.092 141.248 305.693 141.248C306.295 141.248 306.801 141.446 307.211 141.842C307.622 142.223 307.827 142.729 307.827 143.36C307.827 143.976 307.622 144.489 307.211 144.899C306.801 145.31 306.295 145.515 305.693 145.515ZM315.022 129.942V145.339H311.459V132.801H308.379V129.942H315.022Z" fill="white"/>
        <g filter="url(#filter1_d)">
            <path d="M358.305 50.3255C358.305 47.2915 360.765 44.832 363.799 44.832H385.801V72.328H363.799C360.765 72.328 358.305 69.8685 358.305 66.8345V50.3255Z" fill="#C4C4C4" fill-opacity="0.12"/>
            <path fill-rule="evenodd" clip-rule="evenodd" d="M373.29 62.8521C373.255 62.8521 373.218 62.8505 373.181 62.8467C372.71 62.8002 372.341 62.4682 372.24 62.0004L370.805 55.3751L369.328 58.7872C369.243 58.9828 369.05 59.1095 368.837 59.1095H367.233C366.938 59.1095 366.699 58.87 366.699 58.5749C366.699 58.2792 366.938 58.0403 367.233 58.0403H368.487L369.826 54.9452C370.016 54.5089 370.434 54.255 370.91 54.3026C371.38 54.3491 371.749 54.6811 371.851 55.1489L373.285 61.7742L374.762 58.3621C374.847 58.1664 375.04 58.0403 375.253 58.0403H376.857C377.153 58.0403 377.392 58.2792 377.392 58.5749C377.392 58.87 377.153 59.1095 376.857 59.1095H375.604L374.264 62.2041C374.089 62.6067 373.714 62.8521 373.29 62.8521Z" fill="white"/>
        </g>
        <g filter="url(#filter2_d)">
            <path d="M387.603 44.8335H409.606C412.639 44.8335 415.099 47.293 415.099 50.327V66.836C415.099 69.87 412.639 72.3295 409.606 72.3295H387.603V44.8335Z" fill="#C4C4C4" fill-opacity="0.12"/>
            <path fill-rule="evenodd" clip-rule="evenodd" d="M397.525 62.0435C397.793 61.9161 397.906 61.5974 397.777 61.3309C396.998 59.6985 397.334 57.7417 398.614 56.4623C400.281 54.7948 402.995 54.7944 404.663 56.4623C405.942 57.7417 406.278 59.6985 405.499 61.3309C405.371 61.597 405.484 61.9161 405.75 62.0435C406.016 62.1705 406.336 62.0582 406.463 61.7913C407.438 59.751 407.018 57.3058 405.419 55.7062C403.334 53.6217 399.942 53.6217 397.858 55.7062C396.258 57.3058 395.838 59.7506 396.813 61.7917C396.94 62.0579 397.259 62.1709 397.525 62.0435ZM401.64 60.9966L403.882 63.238C402.558 64.2289 400.723 64.2293 399.399 63.238L401.64 60.9966ZM405.043 63.6467C405.252 63.438 405.252 63.0997 405.043 62.8906L402.019 59.8662C401.81 59.6571 401.471 59.6575 401.263 59.8662L398.238 62.8906C398.03 63.0993 398.029 63.4376 398.238 63.6467C400.115 65.523 403.167 65.5226 405.043 63.6467Z" fill="white"/>
        </g>
    </g>
    <defs>
        <filter id="filter0_d" x="137.452" y="-0.238269" width="428.874" height="245.567" filterUnits="userSpaceOnUse" color-interpolation-filters="sRGB">
            <feFlood flood-opacity="0" result="BackgroundImageFix"/>
            <feColorMatrix in="SourceAlpha" type="matrix" values="0 0 0 0 0 0 0 0 0 0 0 0 0 0 0 0 0 0 127 0" result="hardAlpha"/>
            <feOffset dy="5.30957"/>
            <feGaussianBlur stdDeviation="13.2739"/>
            <feColorMatrix type="matrix" values="0 0 0 0 0.0352941 0 0 0 0 0.733333 0 0 0 0 0.756863 0 0 0 0.2 0"/>
            <feBlend mode="normal" in2="BackgroundImageFix" result="effect1_dropShadow"/>
            <feBlend mode="normal" in="SourceGraphic" in2="effect1_dropShadow" result="shape"/>
        </filter>
        <filter id="filter1_d" x="321.682" y="15.5335" width="100.742" height="100.742" filterUnits="userSpaceOnUse" color-interpolation-filters="sRGB">
            <feFlood flood-opacity="0" result="BackgroundImageFix"/>
            <feColorMatrix in="SourceAlpha" type="matrix" values="0 0 0 0 0 0 0 0 0 0 0 0 0 0 0 0 0 0 127 0" result="hardAlpha"/>
            <feOffset dy="7.32463"/>
            <feGaussianBlur stdDeviation="18.3116"/>
            <feColorMatrix type="matrix" values="0 0 0 0 0 0 0 0 0 0 0 0 0 0 0 0 0 0 0.25 0"/>
            <feBlend mode="normal" in2="BackgroundImageFix" result="effect1_dropShadow"/>
            <feBlend mode="normal" in="SourceGraphic" in2="effect1_dropShadow" result="shape"/>
        </filter>
        <filter id="filter2_d" x="350.98" y="15.535" width="100.742" height="100.742" filterUnits="userSpaceOnUse" color-interpolation-filters="sRGB">
            <feFlood flood-opacity="0" result="BackgroundImageFix"/>
            <feColorMatrix in="SourceAlpha" type="matrix" values="0 0 0 0 0 0 0 0 0 0 0 0 0 0 0 0 0 0 127 0" result="hardAlpha"/>
            <feOffset dy="7.32463"/>
            <feGaussianBlur stdDeviation="18.3116"/>
            <feColorMatrix type="matrix" values="0 0 0 0 0 0 0 0 0 0 0 0 0 0 0 0 0 0 0.25 0"/>
            <feBlend mode="normal" in2="BackgroundImageFix" result="effect1_dropShadow"/>
            <feBlend mode="normal" in="SourceGraphic" in2="effect1_dropShadow" result="shape"/>
        </filter>
        <clipPath id="clip0">
            <rect width="375.778" height="192.472" fill="white" transform="translate(164 21)"/>
        </clipPath>
    </defs>
</svg>
