<svg xmlns="http://www.w3.org/2000/svg" display="none">

    <symbol id="fb" viewBox="0 0 18 18">
        <g>
            <path d="M16.5 0H1.5C0.67125 0 0 0.67125 0 1.5V16.5C0 17.3288 0.67125 18 1.5 18H9.75V11.25H7.5V8.25H9.75V6.30975C9.75 3.98475 11.1698 2.71875 13.2443 2.71875C14.238 2.71875 15.0915 2.793 15.3405 2.826V5.256L13.902 5.25675C12.774 5.25675 12.5557 5.793 12.5557 6.579V8.25H15.8857L15.1357 11.25H12.5557V18H16.5C17.3288 18 18 17.3288 18 16.5V1.5C18 0.67125 17.3288 0 16.5 0Z"
                  fill="#988FF2"/>
        </g>
    </symbol>

    <symbol id="fb2" viewBox="0 0 18 18">
        <g>
            <path d="M16.5 0H1.5C0.67125 0 0 0.67125 0 1.5V16.5C0 17.3288 0.67125 18 1.5 18H9.75V11.25H7.5V8.25H9.75V6.30975C9.75 3.98475 11.1698 2.71875 13.2443 2.71875C14.238 2.71875 15.0915 2.793 15.3405 2.826V5.256L13.902 5.25675C12.774 5.25675 12.5557 5.793 12.5557 6.579V8.25H15.8857L15.1357 11.25H12.5557V18H16.5C17.3288 18 18 17.3288 18 16.5V1.5C18 0.67125 17.3288 0 16.5 0Z"
                  fill="#fff"/>
        </g>
    </symbol>

    <symbol id="fb3" viewBox="0 0 18 18">
        <g>
            <path d="M16.5 0H1.5C0.67125 0 0 0.67125 0 1.5V16.5C0 17.3288 0.67125 18 1.5 18H9.75V11.25H7.5V8.25H9.75V6.30975C9.75 3.98475 11.1698 2.71875 13.2443 2.71875C14.238 2.71875 15.0915 2.793 15.3405 2.826V5.256L13.902 5.25675C12.774 5.25675 12.5557 5.793 12.5557 6.579V8.25H15.8857L15.1357 11.25H12.5557V18H16.5C17.3288 18 18 17.3288 18 16.5V1.5C18 0.67125 17.3288 0 16.5 0Z"
                  fill="#1AA3E0"/>
        </g>
    </symbol>


    <symbol id="twitter" viewBox="0 0 18 18">
        <g>
            <path d="M18 3.44961C17.325 3.74961 16.65 3.97461 15.9 4.04961C16.65 3.59961 17.25 2.84961 17.55 2.02461C16.8 2.47461 16.05 2.77461 15.225 2.92461C14.55 2.17461 13.575 1.72461 12.525 1.72461C10.5 1.72461 8.85 3.37461 8.85 5.39961C8.85 5.69961 8.85 5.99961 8.925 6.22461C5.775 6.07461 3.075 4.57461 1.275 2.32461C0.9 2.92461 0.75 3.52461 0.75 4.19961C0.75 5.47461 1.425 6.59961 2.4 7.27461C1.8 7.27461 1.2 7.12461 0.75 6.82461C0.75 6.82461 0.75 6.82461 0.75 6.89961C0.75 8.69961 2.025 10.1996 3.675 10.4996C3.375 10.5746 3.075 10.6496 2.7 10.6496C2.475 10.6496 2.25 10.6496 2.025 10.5746C2.475 12.0746 3.825 13.1246 5.475 13.1246C4.2 14.0996 2.625 14.6996 0.9 14.6996C0.6 14.6996 0.3 14.6996 0 14.6246C1.65 15.6746 3.6 16.2746 5.625 16.2746C12.45 16.2746 16.125 10.6496 16.125 5.77461C16.125 5.62461 16.125 5.47461 16.125 5.32461C16.875 4.79961 17.475 4.12461 18 3.44961Z"
                  fill="#988FF2"/>
        </g>
    </symbol>

    <symbol id="twitter2" viewBox="0 0 18 18">
        <g>
            <path d="M18 3.44961C17.325 3.74961 16.65 3.97461 15.9 4.04961C16.65 3.59961 17.25 2.84961 17.55 2.02461C16.8 2.47461 16.05 2.77461 15.225 2.92461C14.55 2.17461 13.575 1.72461 12.525 1.72461C10.5 1.72461 8.85 3.37461 8.85 5.39961C8.85 5.69961 8.85 5.99961 8.925 6.22461C5.775 6.07461 3.075 4.57461 1.275 2.32461C0.9 2.92461 0.75 3.52461 0.75 4.19961C0.75 5.47461 1.425 6.59961 2.4 7.27461C1.8 7.27461 1.2 7.12461 0.75 6.82461C0.75 6.82461 0.75 6.82461 0.75 6.89961C0.75 8.69961 2.025 10.1996 3.675 10.4996C3.375 10.5746 3.075 10.6496 2.7 10.6496C2.475 10.6496 2.25 10.6496 2.025 10.5746C2.475 12.0746 3.825 13.1246 5.475 13.1246C4.2 14.0996 2.625 14.6996 0.9 14.6996C0.6 14.6996 0.3 14.6996 0 14.6246C1.65 15.6746 3.6 16.2746 5.625 16.2746C12.45 16.2746 16.125 10.6496 16.125 5.77461C16.125 5.62461 16.125 5.47461 16.125 5.32461C16.875 4.79961 17.475 4.12461 18 3.44961Z"
                  fill="#1AA3E0"/>
        </g>
    </symbol>

    <symbol id="youtube" viewBox="0 0 18 18">
        <g>
            <path d="M17.85 5.39922C17.85 5.39922 17.7 4.12422 17.1 3.59922C16.425 2.84922 15.675 2.84922 15.3 2.84922C12.75 2.69922 9 2.69922 9 2.69922C9 2.69922 5.25 2.69922 2.7 2.84922C2.325 2.92422 1.575 2.92422 0.9 3.59922C0.375 4.12422 0.15 5.39922 0.15 5.39922C0.15 5.39922 0 6.82422 0 8.32422V9.67422C0 11.0992 0.15 12.5992 0.15 12.5992C0.15 12.5992 0.3 13.8742 0.9 14.3992C1.575 15.1492 2.475 15.0742 2.85 15.1492C4.275 15.2992 9 15.2992 9 15.2992C9 15.2992 12.75 15.2992 15.3 15.0742C15.675 14.9992 16.425 14.9992 17.1 14.3242C17.625 13.7992 17.85 12.5242 17.85 12.5242C17.85 12.5242 18 11.0992 18 9.59922V8.24922C18 6.82422 17.85 5.39922 17.85 5.39922ZM7.125 11.3242V6.29922L12 8.84922L7.125 11.3242Z"
                  fill="#988FF2"/>
        </g>
    </symbol>

    <symbol id="youtube2" viewBox="0 0 18 18">
        <g>
            <path d="M17.85 5.39922C17.85 5.39922 17.7 4.12422 17.1 3.59922C16.425 2.84922 15.675 2.84922 15.3 2.84922C12.75 2.69922 9 2.69922 9 2.69922C9 2.69922 5.25 2.69922 2.7 2.84922C2.325 2.92422 1.575 2.92422 0.9 3.59922C0.375 4.12422 0.15 5.39922 0.15 5.39922C0.15 5.39922 0 6.82422 0 8.32422V9.67422C0 11.0992 0.15 12.5992 0.15 12.5992C0.15 12.5992 0.3 13.8742 0.9 14.3992C1.575 15.1492 2.475 15.0742 2.85 15.1492C4.275 15.2992 9 15.2992 9 15.2992C9 15.2992 12.75 15.2992 15.3 15.0742C15.675 14.9992 16.425 14.9992 17.1 14.3242C17.625 13.7992 17.85 12.5242 17.85 12.5242C17.85 12.5242 18 11.0992 18 9.59922V8.24922C18 6.82422 17.85 5.39922 17.85 5.39922ZM7.125 11.3242V6.29922L12 8.84922L7.125 11.3242Z"
                  fill="#1AA3E0"/>
        </g>
    </symbol>

    <symbol id="arrow-scroll" viewBox="0 0 8 28">
        <g>
            <path d="M3.64645 27.3536C3.84171 27.5488 4.15829 27.5488 4.35355 27.3536L7.53553 24.1716C7.7308 23.9763 7.7308 23.6597 7.53553 23.4645C7.34027 23.2692 7.02369 23.2692 6.82843 23.4645L4 26.2929L1.17157 23.4645C0.976311 23.2692 0.659728 23.2692 0.464466 23.4645C0.269204 23.6597 0.269204 23.9763 0.464466 24.1716L3.64645 27.3536ZM3.5 0V27H4.5V0H3.5Z"
                  fill="white"/>

        </g>
    </symbol>

    <symbol id="edit" viewBox="0 0 64 64">
        <g>
            <path d="M2 32H32" stroke="white" stroke-width="2" stroke-miterlimit="10" stroke-linecap="round"
                  stroke-linejoin="round"/>
            <path d="M24 24L32 32L24 40" stroke="white" stroke-width="2" stroke-miterlimit="10" stroke-linecap="round"
                  stroke-linejoin="round"/>
            <path d="M12 40V56C12 57.5913 12.6321 59.1174 13.7574 60.2426C14.8826 61.3679 16.4087 62 18 62H46C47.5913 62 49.1174 61.3679 50.2426 60.2426C51.3679 59.1174 52 57.5913 52 56V8C52 6.4087 51.3679 4.88258 50.2426 3.75736C49.1174 2.63214 47.5913 2 46 2H18C16.4087 2 14.8826 2.63214 13.7574 3.75736C12.6321 4.88258 12 6.4087 12 8V24"
                  stroke="white" stroke-width="2" stroke-miterlimit="10" stroke-linecap="round"
                  stroke-linejoin="round"/>
        </g>
    </symbol>

    <symbol id="check-list" viewBox="0 0 64 64">
        <g>
            <path d="M34 16H60" stroke="white" stroke-width="2" stroke-miterlimit="10" stroke-linecap="round"
                  stroke-linejoin="round"/>
            <path d="M24 6H4V26H24V6Z" stroke="white" stroke-width="2" stroke-miterlimit="10" stroke-linecap="round"
                  stroke-linejoin="round"/>
            <path d="M34 48H60" stroke="white" stroke-width="2" stroke-miterlimit="10" stroke-linecap="round"
                  stroke-linejoin="round"/>
            <path d="M4 48L10 54L24 38" stroke="white" stroke-width="2" stroke-miterlimit="10" stroke-linecap="round"
                  stroke-linejoin="round"/>

        </g>
    </symbol>
    <symbol id="reading" viewBox="0 0 64 64">
        <g>
            <path d="M46 60L31.888 62L18 60V38L31.888 40L46 38V60Z" stroke="white" stroke-width="2"
                  stroke-miterlimit="10" stroke-linecap="round" stroke-linejoin="round"/>
            <path d="M31.8867 22C29.2346 22 26.691 20.9464 24.8157 19.0711C22.9403 17.1957 21.8867 14.6522 21.8867 12V12C21.8867 9.34784 22.9403 6.8043 24.8157 4.92893C26.691 3.05357 29.2346 2 31.8867 2V2C33.1999 2 34.5003 2.25866 35.7136 2.7612C36.9268 3.26375 38.0292 4.00035 38.9578 4.92893C39.8864 5.85752 40.623 6.95991 41.1255 8.17317C41.6281 9.38642 41.8867 10.6868 41.8867 12V12C41.8867 14.6522 40.8332 17.1957 38.9578 19.0711C37.0824 20.9464 34.5389 22 31.8867 22V22Z"
                  stroke="white" stroke-width="2" stroke-miterlimit="10" stroke-linecap="round"
                  stroke-linejoin="round"/>
            <path d="M25.9992 50L6.04924 54.988C5.68319 55.0795 5.29874 55.0655 4.94028 54.9478C4.58183 54.83 4.26399 54.6133 4.02348 54.3226C3.78297 54.0318 3.62959 53.679 3.58106 53.3049C3.53254 52.9307 3.59084 52.5504 3.74924 52.208L12.9272 32.324C13.2474 31.6302 13.7596 31.0426 14.4033 30.6307C15.0469 30.2189 15.7951 30 16.5592 30H47.4292C48.1957 29.9999 48.9461 30.22 49.591 30.6341C50.236 31.0483 50.7484 31.639 51.0672 32.336L60.1572 52.214C60.3141 52.5567 60.3709 52.9367 60.3212 53.3102C60.2714 53.6838 60.1172 54.0357 59.8762 54.3254C59.6352 54.6151 59.3172 54.8308 58.959 54.9477C58.6007 55.0646 58.2167 55.0778 57.8512 54.986L37.9992 50"
                  stroke="white" stroke-width="2" stroke-miterlimit="10" stroke-linecap="round"
                  stroke-linejoin="round"/>

        </g>
    </symbol>

    <symbol id="user" viewBox="0 0 40 40">
        <g>
            <circle cx="20" cy="20" r="20" fill="#81C728" fill-opacity="0.2"/>
            <path fill-rule="evenodd" clip-rule="evenodd"
                  d="M23 20C25.21 20 27 18.21 27 16C27 13.79 25.21 12 23 12C20.79 12 19 13.79 19 16C19 18.21 20.79 20 23 20ZM23 14C24.1 14 25 14.9 25 16C25 17.1 24.1 18 23 18C21.9 18 21 17.1 21 16C21 14.9 21.9 14 23 14ZM15 26C15 23.34 20.33 22 23 22C25.67 22 31 23.34 31 26V28H15V26ZM17 26C17.22 25.28 20.31 24 23 24C25.7 24 28.8 25.29 29 26H17ZM14 20V23H12V20H9V18H12V15H14V18H17V20H14Z"
                  fill="#81C728"/>

        </g>
    </symbol>

    <symbol id="google" viewBox="0 0 24 25">
        <g>
            <path d="M22.7872 10.4547H12.0487V15.0567H18.135C17.16 18.125 14.76 19.148 12 19.148C10.9307 19.1494 9.87678 18.8929 8.92776 18.4001C7.97874 17.9074 7.16259 17.193 6.54855 16.3175C5.93451 15.4421 5.54071 14.4314 5.40056 13.3713C5.2604 12.3113 5.37803 11.233 5.74347 10.2281C6.10891 9.22313 6.71136 8.32117 7.49972 7.59873C8.28808 6.87628 9.23908 6.35467 10.272 6.07814C11.305 5.80161 12.3894 5.77834 13.4332 6.01028C14.4771 6.24223 15.4496 6.72255 16.2682 7.4105L19.6125 4.22525C18.2658 2.98481 16.6366 2.09182 14.8665 1.62378C13.0964 1.15574 11.2389 1.12681 9.45505 1.53949C7.67123 1.95217 6.0151 2.79399 4.63041 3.99188C3.24571 5.18976 2.17432 6.70751 1.50922 8.41337C0.844124 10.1192 0.605429 11.9616 0.813856 13.7807C1.02228 15.5997 1.67153 17.3404 2.70525 18.8516C3.73896 20.3628 5.12589 21.5988 6.74565 22.4525C8.36541 23.3061 10.169 23.7515 12 23.75C18.2032 23.75 23.8102 19.6587 22.7872 10.4547Z"
                  fill="white"/>

        </g>
    </symbol>

    <symbol id="login" viewBox="0 0 40 40">
        <g>
            <circle cx="20" cy="20" r="20" fill="#81C728" fill-opacity="0.2"/>
            <path fill-rule="evenodd" clip-rule="evenodd"
                  d="M24 27H30V23H32V17H21.32C20.17 14.58 17.72 13 15 13C11.14 13 8 16.14 8 20C8 23.86 11.14 27 15 27C17.72 27 20.18 25.42 21.32 23H24V27ZM28 25H26V21H19.94L19.71 21.67C19.01 23.66 17.11 25 15 25C12.24 25 10 22.76 10 20C10 17.24 12.24 15 15 15C17.11 15 19.01 16.34 19.71 18.33L19.94 19H30V21H28V25ZM15 23C13.35 23 12 21.65 12 20C12 18.35 13.35 17 15 17C16.65 17 18 18.35 18 20C18 21.65 16.65 23 15 23ZM14 20C14 19.45 14.45 19 15 19C15.55 19 16 19.45 16 20C16 20.55 15.55 21 15 21C14.45 21 14 20.55 14 20Z"
                  fill="#81C728"/>

        </g>
    </symbol>

    <symbol id="password" viewBox="0 0 40 40">
        <g>
            <circle cx="20" cy="20" r="20" fill="#81C728" fill-opacity="0.2"/>
            <path fill-rule="evenodd" clip-rule="evenodd"
                  d="M25 16.5H26C27.1 16.5 28 17.4 28 18.5V28.5C28 29.6 27.1 30.5 26 30.5H14C12.9 30.5 12 29.6 12 28.5V18.5C12 17.4 12.9 16.5 14 16.5H15V14.5C15 11.74 17.24 9.5 20 9.5C22.76 9.5 25 11.74 25 14.5V16.5ZM20 11.5C18.34 11.5 17 12.84 17 14.5V16.5H23V14.5C23 12.84 21.66 11.5 20 11.5ZM14 28.5V18.5H26V28.5H14ZM22 23.5C22 24.6 21.1 25.5 20 25.5C18.9 25.5 18 24.6 18 23.5C18 22.4 18.9 21.5 20 21.5C21.1 21.5 22 22.4 22 23.5Z"
                  fill="#81C728"/>

        </g>
    </symbol>

    <symbol id="view" viewBox="0 0 24 16">
        <g>
            <path d="M2 8C2 8 6 1 12 1C18 1 22 8 22 8C22 8 18 15 12 15C6 15 2 8 2 8Z" stroke="#22283C" stroke-width="2"
                  fill="none"
                  stroke-miterlimit="10" stroke-linecap="square"/>
            <path d="M12 11C13.6569 11 15 9.65685 15 8C15 6.34315 13.6569 5 12 5C10.3431 5 9 6.34315 9 8C9 9.65685 10.3431 11 12 11Z"
                  stroke="#22283C" stroke-width="2" fill="none" stroke-miterlimit="10" stroke-linecap="square"/>

        </g>
    </symbol>

    <symbol id="about1" viewBox="0 0 60 60">
        <g>
            <path d="M7.49316 28.7151C7.49316 31.1748 9.49414 33.1758 11.9538 33.1758C14.4134 33.1758 16.4144 31.1748 16.4144 28.7151C16.4144 26.2555 14.4134 24.2544 11.9538 24.2544C9.49414 24.2544 7.49316 26.2555 7.49316 28.7151ZM14.0707 28.7151C14.0707 29.8823 13.121 30.832 11.9538 30.832C10.7866 30.832 9.83691 29.8823 9.83691 28.7151C9.83691 27.5478 10.7866 26.5983 11.9538 26.5983C13.121 26.5983 14.0707 27.5478 14.0707 28.7151Z"
                  fill="#1AA3E0"/>
            <path d="M23.9062 37.2656V33.9887C23.9062 33.3415 23.3815 32.8168 22.7344 32.8168C22.0873 32.8168 21.5625 33.3415 21.5625 33.9887V37.2656C21.5625 37.9118 21.0368 38.4375 20.3906 38.4375H3.51562C2.86945 38.4375 2.34375 37.9118 2.34375 37.2656V19.2188H21.5625V23.4418C21.5625 24.0891 22.0873 24.6137 22.7344 24.6137C23.3815 24.6137 23.9062 24.0891 23.9062 23.4418V3.51562C23.9062 1.57711 22.3291 0 20.3906 0H3.51562C1.57711 0 0 1.57711 0 3.51562V37.2656C0 39.2041 1.57711 40.7812 3.51562 40.7812H20.3906C22.3291 40.7812 23.9062 39.2041 23.9062 37.2656ZM21.5625 11.25H2.34375V7.96875H21.5625V11.25ZM2.34375 16.875V13.5938H21.5625V16.875H2.34375ZM3.51562 2.34375H20.3906C21.0368 2.34375 21.5625 2.86945 21.5625 3.51562V5.625H2.34375V3.51562C2.34375 2.86945 2.86945 2.34375 3.51562 2.34375Z"
                  fill="#1AA3E0"/>
            <path d="M48.0475 43.4731C45.5879 43.4731 43.5869 45.4742 43.5869 47.9338C43.5869 50.3933 45.5879 52.3944 48.0475 52.3944C50.5072 52.3944 52.5082 50.3934 52.5082 47.9338C52.5082 45.4741 50.5072 43.4731 48.0475 43.4731ZM48.0475 50.0508C46.8802 50.0508 45.9307 49.1011 45.9307 47.9339C45.9307 46.7666 46.8804 45.817 48.0475 45.817C49.2147 45.817 50.1644 46.7667 50.1644 47.9339C50.1644 49.1011 49.2148 50.0508 48.0475 50.0508Z"
                  fill="#1AA3E0"/>
            <path d="M56.4844 19.2188H39.6094C37.6709 19.2188 36.0938 20.7959 36.0938 22.7344V56.4844C36.0938 58.4229 37.6709 60 39.6094 60H56.4844C58.4229 60 60 58.4229 60 56.4844V22.7344C60 20.7959 58.4229 19.2188 56.4844 19.2188ZM57.6562 30.4688H38.4375V27.1875H57.6562V30.4688ZM38.4375 32.8125H57.6562V36.0938H38.4375V32.8125ZM39.6094 21.5625H56.4844C57.1305 21.5625 57.6562 22.0882 57.6562 22.7344V24.8438H38.4375V22.7344C38.4375 22.0882 38.9632 21.5625 39.6094 21.5625ZM56.4844 57.6562H39.6094C38.9632 57.6562 38.4375 57.1305 38.4375 56.4844V38.4375H57.6562V56.4844C57.6562 57.1305 57.1305 57.6562 56.4844 57.6562Z"
                  fill="#1AA3E0"/>
            <path d="M28.3594 7.03125H46.875V11.9364L46.6935 11.7548C46.2358 11.2972 45.4941 11.2972 45.0361 11.7548C44.5785 12.2125 44.5785 12.9545 45.0361 13.4121L47.2181 15.5943C47.438 15.814 47.736 15.9375 48.0467 15.9375C48.3575 15.9375 48.6555 15.814 48.8754 15.5943L51.0574 13.4121C51.515 12.9545 51.515 12.2125 51.0574 11.7548C50.5997 11.2972 49.8579 11.2972 49.4 11.7548L49.2187 11.9364V5.85938C49.2187 5.21215 48.694 4.6875 48.0469 4.6875H28.3594C27.7123 4.6875 27.1875 5.21215 27.1875 5.85938C27.1875 6.5066 27.7123 7.03125 28.3594 7.03125Z"
                  fill="#1AA3E0"/>
            <path d="M31.641 52.9688H13.1254V48.0636L13.3069 48.2452C13.5358 48.474 13.8356 48.5884 14.1355 48.5884C14.4354 48.5884 14.7353 48.4739 14.9642 48.2452C15.4218 47.7875 15.4218 47.0455 14.9642 46.5879L12.7821 44.4057C12.5623 44.186 12.2643 44.0625 11.9535 44.0625C11.6427 44.0625 11.3447 44.186 11.1249 44.4057L8.94282 46.5879C8.48521 47.0455 8.48521 47.7875 8.94282 48.2452C9.40056 48.7028 10.1424 48.7028 10.6002 48.2452L10.7816 48.0636V54.1406C10.7816 54.7879 11.3064 55.3125 11.9535 55.3125H31.641C32.2881 55.3125 32.8129 54.7879 32.8129 54.1406C32.8129 53.4934 32.2881 52.9688 31.641 52.9688Z"
                  fill="#1AA3E0"/>
            <path d="M22.7344 27.5439C22.4262 27.5439 22.1238 27.6682 21.9059 27.8873C21.6879 28.1053 21.5625 28.4064 21.5625 28.7158C21.5625 29.024 21.6878 29.3264 21.9059 29.5443C22.1239 29.7623 22.4262 29.8877 22.7344 29.8877C23.0426 29.8877 23.3449 29.7623 23.5628 29.5443C23.7807 29.3264 23.9062 29.024 23.9062 28.7158C23.9062 28.4064 23.7809 28.1053 23.5628 27.8873C23.3449 27.6682 23.0426 27.5439 22.7344 27.5439Z"
                  fill="#1AA3E0"/>

        </g>
    </symbol>
    <symbol id="about2" viewBox="0 0 60 60">
        <g>
            <g clip-path="url(#clip0)">
                <path d="M56.4844 32.5781H52.0696V26.25C52.0696 24.5388 50.8404 23.11 49.2188 22.7982V10.5487C49.2188 8.22152 47.3254 6.32812 44.998 6.32812H29.8828C29.2357 6.32812 28.7109 6.85277 28.7109 7.5C28.7109 8.14723 29.2357 8.67188 29.8828 8.67188H44.998C46.033 8.67188 46.875 9.51387 46.875 10.5487V22.7344H31.6796C29.7411 22.7344 28.164 24.3115 28.164 26.25V33.6595H2.34375V10.5487C2.34375 9.51387 3.18574 8.67188 4.22074 8.67188H19.3359C19.983 8.67188 20.5078 8.14723 20.5078 7.5C20.5078 6.85277 19.983 6.32812 19.3359 6.32812H4.22074C1.8934 6.32812 0 8.22152 0 10.5487V37.4161C0 39.7433 1.8934 41.6368 4.22074 41.6368H18.6735V45.863C18.6735 48.1702 17.5071 50.2802 15.5535 51.5077C15.1112 51.7855 14.9062 52.3225 15.0507 52.8243C15.1952 53.3262 15.6545 53.6718 16.1768 53.6718H56.4844C58.4229 53.6718 60 52.0946 60 50.1561V36.0938C60 34.1552 58.4229 32.5781 56.4844 32.5781ZM31.6796 25.0781H48.5539C49.2001 25.0781 49.7258 25.6038 49.7258 26.25V32.5781H48.0469C46.1084 32.5781 44.5312 34.1552 44.5312 36.0938V50.1562C44.5312 50.5671 44.6027 50.9613 44.7328 51.3281H31.6796C31.0335 51.3281 30.5078 50.8024 30.5078 50.1562V26.25C30.5078 25.6038 31.0335 25.0781 31.6796 25.0781ZM2.34375 37.4161V36.0032H28.164V39.293H19.8454H4.22074C3.18574 39.2931 2.34375 38.4511 2.34375 37.4161ZM21.0172 45.863V41.6368H28.164V50.1562C28.164 50.5671 28.2355 50.9613 28.3656 51.3281H19.1779C20.358 49.7849 21.0172 47.8797 21.0172 45.863ZM57.6562 50.1562C57.6562 50.8024 57.1305 51.3281 56.4844 51.3281H48.0469C47.4007 51.3281 46.875 50.8024 46.875 50.1562V36.0938C46.875 35.4476 47.4007 34.9219 48.0469 34.9219H56.4844C57.1305 34.9219 57.6562 35.4476 57.6562 36.0938V50.1562Z"
                      fill="#1AA3E0"/>
                <path d="M6.79688 13.4316C6.14977 13.4316 5.625 13.9563 5.625 14.6035V27.7285C5.625 28.3757 6.14977 28.9004 6.79688 28.9004H17.1094C17.7565 28.9004 18.2812 28.3757 18.2812 27.7285V14.6035C18.2812 13.9563 17.7565 13.4316 17.1094 13.4316H6.79688ZM15.9375 26.5566H7.96875V15.7754H15.9375V26.5566Z"
                      fill="#1AA3E0"/>
                <path d="M22.7344 15.7754H34.5703C35.2174 15.7754 35.7422 15.2507 35.7422 14.6035C35.7422 13.9563 35.2174 13.4316 34.5703 13.4316H22.7344C22.0873 13.4316 21.5625 13.9563 21.5625 14.6035C21.5625 15.2507 22.0873 15.7754 22.7344 15.7754Z"
                      fill="#1AA3E0"/>
                <path d="M22.7344 27.0249C23.0426 27.0249 23.3449 26.9007 23.5628 26.6827C23.7807 26.4636 23.9062 26.1624 23.9062 25.853C23.9062 25.5448 23.7809 25.2425 23.5628 25.0245C23.3449 24.8065 23.0426 24.6812 22.7344 24.6812C22.4262 24.6812 22.1238 24.8065 21.9059 25.0245C21.6879 25.2425 21.5625 25.5448 21.5625 25.853C21.5625 26.1612 21.6878 26.4636 21.9059 26.6827C22.1238 26.9007 22.4262 27.0249 22.7344 27.0249Z"
                      fill="#1AA3E0"/>
                <path d="M22.7344 21.4004H27.1289C27.776 21.4004 28.3008 20.8757 28.3008 20.2285C28.3008 19.5813 27.776 19.0566 27.1289 19.0566H22.7344C22.0873 19.0566 21.5625 19.5813 21.5625 20.2285C21.5625 20.8757 22.0873 21.4004 22.7344 21.4004Z"
                      fill="#1AA3E0"/>
                <path d="M52.2656 46.6406C51.9574 46.6406 51.6551 46.7659 51.4371 46.984C51.2191 47.2021 51.0938 47.5043 51.0938 47.8125C51.0938 48.1207 51.219 48.423 51.4371 48.6409C51.6551 48.8589 51.9574 48.9844 52.2656 48.9844C52.5738 48.9844 52.8762 48.859 53.094 48.6409C53.3121 48.423 53.4375 48.1207 53.4375 47.8125C53.4375 47.5043 53.3121 47.202 53.094 46.984C52.8762 46.7659 52.5738 46.6406 52.2656 46.6406Z"
                      fill="#1AA3E0"/>
                <path d="M40.1172 48.9844C40.4254 48.9844 40.7277 48.859 40.9456 48.6409C41.1636 48.423 41.2891 48.1207 41.2891 47.8125C41.2891 47.5043 41.1637 47.202 40.9456 46.984C40.7277 46.766 40.4254 46.6406 40.1172 46.6406C39.809 46.6406 39.5066 46.7659 39.2887 46.984C39.0707 47.2021 38.9453 47.5043 38.9453 47.8125C38.9453 48.1207 39.0706 48.423 39.2887 48.6409C39.5066 48.859 39.809 48.9844 40.1172 48.9844Z"
                      fill="#1AA3E0"/>
                <path d="M24.6094 8.67188C24.9176 8.67188 25.2199 8.54648 25.4378 8.32852C25.6559 8.11055 25.7812 7.8082 25.7812 7.5C25.7812 7.1918 25.6559 6.88945 25.4378 6.67148C25.2199 6.45352 24.9176 6.32812 24.6094 6.32812C24.3012 6.32812 23.9988 6.45352 23.7809 6.67148C23.5629 6.88945 23.4375 7.1918 23.4375 7.5C23.4375 7.8082 23.5628 8.11055 23.7809 8.32852C23.9989 8.54648 24.3012 8.67188 24.6094 8.67188Z"
                      fill="#1AA3E0"/>
            </g>
            <defs>
                <clipPath id="clip0">
                    <rect width="60" height="60" fill="white"/>
                </clipPath>
            </defs>
        </g>
    </symbol>

    <symbol id="about3" viewBox="0 0 60 60">
        <g>
            <g clip-path="url(#clip0)">
                <path d="M59.3657 16.5411C59.3657 10.9645 54.8288 6.4275 49.2521 6.4275C48.7746 6.4275 48.3054 6.46313 47.8452 6.52746C42.8606 2.31434 36.5464 0 30.0003 0C23.4541 0 17.14 2.31434 12.1554 6.52758C11.6952 6.46324 11.2261 6.4275 10.7484 6.4275C5.17168 6.4275 0.634766 10.9644 0.634766 16.5411C0.634766 18.883 1.43703 21.0397 2.77824 22.7559C2.4909 24.3648 2.34406 26.0104 2.34406 27.6562C2.34406 30.6898 2.83227 33.6718 3.79531 36.5196C3.96043 37.0083 4.41652 37.3165 4.90531 37.3165C5.02977 37.3165 5.15645 37.2964 5.28078 37.2544C5.89379 37.0471 6.22285 36.382 6.01555 35.7689C5.13453 33.1635 4.68781 30.4341 4.68781 27.6562C4.68781 26.6849 4.74488 25.714 4.85469 24.7522C6.35234 25.8304 8.15445 26.5092 10.1061 26.6323C10.0887 26.9735 10.0784 27.3154 10.0784 27.6562C10.0784 35.1837 14.3002 42.0125 20.9387 45.4021C20.2667 46.7545 19.8868 48.2766 19.8868 49.8864C19.8868 50.2235 19.9041 50.5568 19.9366 50.8855C16.5581 49.4187 13.5157 47.2192 11.0523 44.4403C10.6229 43.9561 9.88215 43.9113 9.39793 44.3408C8.91359 44.7702 8.86906 45.5108 9.29832 45.995C12.3785 49.4695 16.2867 52.119 20.6291 53.6832C22.1337 57.3834 25.7662 60 30.0003 60C34.2341 60 37.8663 57.3839 39.3712 53.6843C50.3318 49.7418 57.6566 39.3523 57.6566 27.6562C57.6566 26.0104 57.5097 24.3648 57.2223 22.7559C58.5635 21.0398 59.3657 18.8831 59.3657 16.5411ZM35.4918 41.4002C36.1099 39.5747 36.5935 37.4229 36.9221 35.0781H45.9376C44.2746 38.6512 41.4271 41.6225 37.7734 43.4243C37.1204 42.6402 36.3505 41.9577 35.4918 41.4002ZM26.6299 40.3523C26.1307 38.811 25.7311 37.0227 25.4441 35.0781H34.557C34.2702 37.023 33.8702 38.8106 33.3706 40.3523C32.3157 39.9783 31.1818 39.7727 30.0003 39.7727C28.8187 39.7727 27.6848 39.9783 26.6299 40.3523ZM9.10789 15.5682C9.10789 14.6636 9.84383 13.9276 10.7485 13.9276C11.6532 13.9276 12.3891 14.6636 12.3891 15.5682C12.3891 16.4729 11.6532 17.2089 10.7485 17.2089C9.84383 17.2089 9.10789 16.4728 9.10789 15.5682ZM10.7485 19.5526C12.8225 19.5526 14.7031 20.7945 15.5465 22.6459C14.2243 23.6873 12.5584 24.3111 10.7485 24.3111C8.93867 24.3111 7.27273 23.6873 5.95051 22.6459C6.79367 20.794 8.67313 19.5526 10.7485 19.5526ZM20.2358 13.0378C22.0174 11.8432 23.9754 10.9972 26.0388 10.5239C25.4933 11.407 24.9611 12.5514 24.4692 14.0273C23.8644 15.8416 23.3947 17.947 23.0745 20.2342H20.1608C20.6116 19.0893 20.862 17.8443 20.862 16.541C20.8621 15.3101 20.6403 14.13 20.2358 13.0378ZM39.8398 20.2343H36.9261C36.6061 17.947 36.1362 15.8416 35.5314 14.0275C35.0395 12.5515 34.5073 11.4071 33.9618 10.5241C36.0252 10.9975 37.9832 11.8433 39.7648 13.0379C39.3603 14.13 39.1385 15.3102 39.1385 16.5412C39.1385 17.8444 39.389 19.0894 39.8398 20.2343ZM33.308 14.7686C33.8411 16.3679 34.2623 18.2186 34.56 20.2343H25.4408C25.7384 18.2186 26.1596 16.3679 26.6927 14.7686C27.8466 11.3065 29.1957 10.0781 30.0003 10.0781C30.8049 10.0781 32.154 11.3065 33.308 14.7686ZM12.4222 27.6562C12.4222 27.2734 12.4359 26.8894 12.4605 26.507C15.0671 26.0605 17.337 24.6155 18.8577 22.578H22.805C22.6558 24.2145 22.5785 25.9185 22.5785 27.6562C22.5785 29.3876 22.6571 31.0938 22.8078 32.7343H13.1693C12.6812 31.1139 12.4222 29.4064 12.4222 27.6562ZM24.9222 27.6562C24.9222 25.9112 25.0029 24.2059 25.158 22.578H34.8426C34.9978 24.2059 35.0784 25.9112 35.0784 27.6562C35.0784 29.3966 34.9965 31.1038 34.8405 32.7343H25.1606C25.0043 31.1029 24.9222 29.3954 24.9222 27.6562ZM47.5784 27.6562C47.5784 29.4066 47.3195 31.1139 46.8314 32.7343H37.193C37.3436 31.0947 37.4223 29.3888 37.4223 27.6562C37.4223 25.9186 37.345 24.2145 37.1957 22.578H41.143C42.6636 24.6155 44.9335 26.0604 47.5401 26.507C47.5647 26.8894 47.5784 27.2734 47.5784 27.6562ZM49.2521 24.3111C47.4423 24.3111 45.7763 23.6873 44.4541 22.6459C45.2974 20.794 47.1767 19.5526 49.2521 19.5526C51.326 19.5526 53.2067 20.7945 54.0501 22.6459C52.7279 23.6873 51.0621 24.3111 49.2521 24.3111ZM47.6115 15.5682C47.6115 14.6636 48.3474 13.9276 49.2521 13.9276C50.1568 13.9276 50.8927 14.6636 50.8927 15.5682C50.8927 16.4729 50.1568 17.2089 49.2521 17.2089C48.3474 17.2089 47.6115 16.4728 47.6115 15.5682ZM57.022 16.5411C57.022 18.1246 56.5448 19.5982 55.7282 20.8277C54.9422 19.5623 53.7986 18.5546 52.4604 17.9275C52.9477 17.2665 53.2365 16.4505 53.2365 15.5682C53.2365 13.3712 51.4491 11.5839 49.2521 11.5839C47.0551 11.5839 45.2677 13.3712 45.2677 15.5682C45.2677 16.4504 45.5564 17.2662 46.0436 17.9271C44.7052 18.5542 43.562 19.5618 42.7759 20.8276C41.9594 19.5981 41.4822 18.1246 41.4822 16.5412C41.4822 12.2569 44.9677 8.77137 49.2521 8.77137C53.5365 8.77137 57.022 12.2569 57.022 16.5411ZM30.0003 2.34375C35.4581 2.34375 40.739 4.10215 45.0848 7.32973C43.3552 8.11535 41.8838 9.37207 40.8378 10.9376C37.6125 8.83828 33.8925 7.73438 30.0003 7.73438C26.1075 7.73438 22.388 8.83828 19.1628 10.9377C18.1168 9.37207 16.6454 8.11535 14.9158 7.32973C19.2616 4.10215 24.5425 2.34375 30.0003 2.34375ZM10.7485 8.77137C15.0329 8.77137 18.5184 12.2569 18.5184 16.5412C18.5184 18.1247 18.0412 19.5983 17.2246 20.8279C16.4386 19.5625 15.295 18.5548 13.9568 17.9276C14.4441 17.2666 14.7329 16.4507 14.7329 15.5684C14.7329 13.3713 12.9455 11.584 10.7485 11.584C8.55148 11.584 6.76414 13.3713 6.76414 15.5684C6.76414 16.4505 7.05277 17.2663 7.54004 17.9272C6.20164 18.5543 5.05836 19.5619 4.27227 20.8277C3.45582 19.5982 2.97863 18.1247 2.97863 16.5414C2.97863 12.2569 6.46414 8.77137 10.7485 8.77137ZM14.063 35.0781H23.0789C23.4075 37.4229 23.8912 39.5754 24.5089 41.4001C23.6503 41.9576 22.8804 42.6401 22.2274 43.4242C18.5735 41.6225 15.7261 38.6512 14.063 35.0781ZM25.2023 55.991C26.0456 54.1391 27.9249 52.8977 30.0003 52.8977C32.0742 52.8977 33.9549 54.1396 34.7983 55.991C33.4761 57.0325 31.8102 57.6562 30.0003 57.6562C28.1905 57.6562 26.5245 57.0325 25.2023 55.991ZM28.3597 48.9134C28.3597 48.0087 29.0956 47.2727 30.0003 47.2727C30.905 47.2727 31.6409 48.0087 31.6409 48.9134C31.6409 49.818 30.905 50.554 30.0003 50.554C29.0956 50.554 28.3597 49.818 28.3597 48.9134ZM36.4764 54.173C35.6903 52.9076 34.5468 51.8999 33.2086 51.2727C33.6959 50.6118 33.9847 49.7958 33.9847 48.9135C33.9847 46.7164 32.1973 44.9291 30.0003 44.9291C27.8033 44.9291 26.0159 46.7164 26.0159 48.9135C26.0159 49.7957 26.3046 50.6114 26.7918 51.2723C25.4534 51.8994 24.3102 52.907 23.5241 54.1729C22.7076 52.9433 22.2304 51.4698 22.2304 49.8865C22.2304 45.6021 25.7159 42.1166 30.0003 42.1166C34.2847 42.1166 37.7702 45.6021 37.7702 49.8865C37.7702 51.4698 37.293 52.9433 36.4764 54.173ZM40.0638 50.8904C40.0965 50.5601 40.1139 50.2253 40.1139 49.8864C40.1139 48.2766 39.734 46.7545 39.0621 45.4022C45.7004 42.0125 49.9222 35.1838 49.9222 27.6562C49.9222 27.3154 49.9119 26.9735 49.8946 26.6323C51.8463 26.5092 53.6484 25.8302 55.1461 24.7522C55.2557 25.714 55.3128 26.6849 55.3128 27.6562C55.3128 37.8236 49.2655 46.9113 40.0638 50.8904Z"
                      fill="#1AA3E0"/>
                <path d="M7.08691 39.772C6.77871 39.772 6.47637 39.8974 6.2584 40.1153C6.04055 40.3333 5.91504 40.6356 5.91504 40.9438C5.91504 41.2532 6.04043 41.5544 6.2584 41.7735C6.47637 41.9915 6.77871 42.1157 7.08691 42.1157C7.39512 42.1157 7.69746 41.9915 7.91543 41.7735C8.13328 41.5544 8.25879 41.2521 8.25879 40.9438C8.25879 40.6356 8.1334 40.3345 7.91543 40.1153C7.69746 39.8974 7.39512 39.772 7.08691 39.772Z"
                      fill="#1AA3E0"/>
            </g>
            <defs>
                <clipPath id="clip0">
                    <rect width="60" height="60" fill="white"/>
                </clipPath>
            </defs>

        </g>
    </symbol>

    <symbol id="about4" viewBox="0 0 60 60">
        <g>
            <g clip-path="url(#clip0)">
                <path d="M41.2007 42.188H31.3965C30.7494 42.188 30.2246 42.7126 30.2246 43.3598C30.2246 44.0071 30.7494 44.5317 31.3965 44.5317H41.2007C41.8478 44.5317 42.3725 44.0071 42.3725 43.3598C42.3725 42.7126 41.8479 42.188 41.2007 42.188Z"
                      fill="#1AA3E0"/>
                <path d="M47.3086 42.188C47.0003 42.188 46.698 42.3122 46.4801 42.5314C46.2621 42.7481 46.1367 43.0505 46.1367 43.3599C46.1367 43.6681 46.262 43.9704 46.4801 44.1884C46.698 44.4063 47.0003 44.5317 47.3086 44.5317C47.6168 44.5317 47.9191 44.4063 48.137 44.1884C48.355 43.9692 48.4805 43.6681 48.4805 43.3599C48.4805 43.0505 48.3551 42.7493 48.137 42.5314C47.9191 42.3122 47.6167 42.188 47.3086 42.188Z"
                      fill="#1AA3E0"/>
                <path d="M53.4473 42.188C53.1391 42.188 52.8367 42.3122 52.6187 42.5302C52.4008 42.7493 52.2754 43.0517 52.2754 43.3599C52.2754 43.6681 52.4007 43.9704 52.6187 44.1884C52.8367 44.4063 53.1391 44.5317 53.4473 44.5317C53.7555 44.5317 54.0578 44.4063 54.2757 44.1884C54.4948 43.9692 54.6191 43.6681 54.6191 43.3599C54.6191 43.0517 54.4948 42.7493 54.2757 42.5302C54.0578 42.3122 53.7555 42.188 53.4473 42.188Z"
                      fill="#1AA3E0"/>
                <path d="M59.9995 30.2352C59.9995 28.2967 58.4224 26.7196 56.4839 26.7196H47.6948C47.0477 26.7196 46.523 27.2443 46.523 27.8915C46.523 28.5387 47.0477 29.0633 47.6948 29.0633H56.4839C57.1301 29.0633 57.6558 29.589 57.6558 30.2352V35.86C57.6558 36.5062 57.1301 37.0319 56.4839 37.0319H28.3596C27.7135 37.0319 27.1878 36.5062 27.1878 35.86V30.2352C27.1878 29.589 27.7135 29.0633 28.3596 29.0633H37.1486C37.7957 29.0633 38.3204 28.5387 38.3204 27.8915C38.3204 27.2443 37.7957 26.7196 37.1486 26.7196H31.7792V16.7009C31.7792 13.2286 30.8014 9.84013 28.9515 6.90161C27.1018 3.96309 24.469 1.61647 21.3379 0.115222C21.0178 -0.0384072 20.6449 -0.0384072 20.3248 0.115222C17.1937 1.61647 14.561 3.96309 12.7112 6.90161C10.8613 9.84013 9.8835 13.2286 9.8835 16.7009V25.3142L6.15047 26.8958C2.41486 28.4782 0.000976562 32.1222 0.000976562 36.1792V38.2036C0.000976562 38.8508 0.525729 39.3754 1.17282 39.3754H13.3543C13.6721 44.1656 16.1695 48.56 20.1724 51.2817C20.3713 51.417 20.6013 51.4845 20.8313 51.4845C21.0614 51.4845 21.2914 51.4168 21.4903 51.2817C22.9277 50.3044 24.18 49.1036 25.2097 47.7308C25.7853 48.8893 26.9807 49.6877 28.3596 49.6877H41.2499V52.2075C39.9938 52.5948 39.0009 53.5877 38.6136 54.8438H26.0159C25.3688 54.8438 24.8441 55.3684 24.8441 56.0156C24.8441 56.6628 25.3688 57.1875 26.0159 57.1875H38.6136C39.1152 58.8142 40.6325 59.9999 42.4218 59.9999C44.2111 59.9999 45.7284 58.8142 46.2299 57.1875H58.8276C59.4747 57.1875 59.9995 56.6628 59.9995 56.0156C59.9995 55.3684 59.4747 54.8438 58.8276 54.8438H46.2299C45.8426 53.5877 44.8497 52.5948 43.5936 52.2075V49.6877H56.4839C58.4224 49.6877 59.9995 48.1106 59.9995 46.1721V40.5473C59.9995 39.6475 59.6594 38.8261 59.1014 38.2036C59.6593 37.5811 59.9995 36.7596 59.9995 35.8599V30.2352ZM42.4218 57.6563C41.5171 57.6563 40.7812 56.9204 40.7812 56.0158C40.7812 55.1111 41.5171 54.3752 42.4218 54.3752C43.3264 54.3752 44.0624 55.1111 44.0624 56.0158C44.0624 56.9204 43.3264 57.6563 42.4218 57.6563ZM20.8313 2.48282C23.5928 3.93098 25.8306 6.14718 27.3316 8.78887H14.3311C15.8321 6.14718 18.0699 3.93087 20.8313 2.48282ZM2.34467 36.1792C2.34467 33.0653 4.19735 30.2684 7.06451 29.0538L9.8835 27.8596V37.0317H2.34467V36.1792ZM12.2272 33.7507H20.0981C20.7452 33.7507 21.27 33.2261 21.27 32.5788C21.27 31.9316 20.7452 31.407 20.0981 31.407H12.2272V16.7009C12.2272 14.7729 12.582 12.8908 13.2378 11.1326H28.425C29.0807 12.8908 29.4356 14.7729 29.4356 16.7009V26.7196H28.3598C26.4213 26.7196 24.8442 28.2967 24.8442 30.2352V35.86C24.8442 36.2709 24.9157 36.6651 25.0458 37.0319H12.2272V33.7507ZM20.8313 48.8659C17.8545 46.5653 15.9956 43.119 15.7031 39.3755H25.0457C24.9156 39.7423 24.8441 40.1365 24.8441 40.5474V43.7566C23.9454 45.7716 22.5707 47.5216 20.8313 48.8659ZM57.6558 46.1723C57.6558 46.8184 57.1301 47.3441 56.4839 47.3441H28.3596C27.7135 47.3441 27.1878 46.8184 27.1878 46.1723V40.5474C27.1878 39.9012 27.7135 39.3755 28.3596 39.3755H56.4839C57.1301 39.3755 57.6558 39.9012 57.6558 40.5474V46.1723Z"
                      fill="#1AA3E0"/>
                <path d="M30.2246 33.0478C30.2246 33.695 30.7494 34.2197 31.3965 34.2197H41.2007C41.8478 34.2197 42.3725 33.695 42.3725 33.0478C42.3725 32.4006 41.8478 31.876 41.2007 31.876H31.3965C30.7494 31.876 30.2246 32.4006 30.2246 33.0478Z"
                      fill="#1AA3E0"/>
                <path d="M47.3086 34.2197C47.6168 34.2197 47.9191 34.0943 48.137 33.8764C48.355 33.6572 48.4805 33.3561 48.4805 33.0479C48.4805 32.7385 48.3551 32.4373 48.137 32.2193C47.9191 32.0002 47.6168 31.876 47.3086 31.876C47.0003 31.876 46.698 32.0002 46.4801 32.2193C46.2621 32.4373 46.1367 32.7385 46.1367 33.0479C46.1367 33.3561 46.262 33.6584 46.4801 33.8764C46.698 34.0943 47.0003 34.2197 47.3086 34.2197Z"
                      fill="#1AA3E0"/>
                <path d="M54.2757 33.8764C54.4948 33.6572 54.6191 33.3561 54.6191 33.0479C54.6191 32.7396 54.4948 32.4373 54.2757 32.2193C54.0578 32.0002 53.7555 31.876 53.4473 31.876C53.1391 31.876 52.8367 32.0002 52.6187 32.2193C52.4008 32.4373 52.2754 32.7385 52.2754 33.0479C52.2754 33.3561 52.4007 33.6572 52.6187 33.8764C52.8367 34.0943 53.1391 34.2197 53.4473 34.2197C53.7555 34.2197 54.0577 34.0943 54.2757 33.8764Z"
                      fill="#1AA3E0"/>
                <path d="M10.2744 46.5903C9.62729 46.5903 9.10254 47.115 9.10254 47.7622V52.4984C9.10254 53.1456 9.62729 53.6703 10.2744 53.6703C10.9215 53.6703 11.4462 53.1456 11.4462 52.4984V47.7622C11.4462 47.115 10.9216 46.5903 10.2744 46.5903Z"
                      fill="#1AA3E0"/>
                <path d="M16.8359 52.4756C16.1888 52.4756 15.6641 53.0002 15.6641 53.6474V58.8265C15.6641 59.4737 16.1888 59.9984 16.8359 59.9984C17.483 59.9984 18.0078 59.4737 18.0078 58.8265V53.6474C18.0078 53.0002 17.4831 52.4756 16.8359 52.4756Z"
                      fill="#1AA3E0"/>
                <path d="M25.9528 21.2596C25.9528 18.4353 23.6551 16.1377 20.8309 16.1377C18.0066 16.1377 15.709 18.4353 15.709 21.2596C15.709 24.0839 18.0066 26.3815 20.8309 26.3815C23.6551 26.3815 25.9528 24.0839 25.9528 21.2596ZM20.8309 24.0379C19.299 24.0379 18.0527 22.7915 18.0527 21.2597C18.0527 19.7279 19.299 18.4815 20.8309 18.4815C22.3627 18.4815 23.6091 19.7278 23.6091 21.2597C23.6091 22.7917 22.3627 24.0379 20.8309 24.0379Z"
                      fill="#1AA3E0"/>
                <path d="M42.4219 29.064C42.7301 29.064 43.0324 28.9386 43.2503 28.7206C43.4682 28.5015 43.5938 28.2003 43.5938 27.8921C43.5938 27.5827 43.4684 27.2815 43.2503 27.0636C43.0324 26.8444 42.7301 26.7202 42.4219 26.7202C42.1137 26.7202 41.8113 26.8444 41.5934 27.0636C41.3754 27.2815 41.25 27.5827 41.25 27.8921C41.25 28.2003 41.3753 28.5015 41.5934 28.7206C41.8113 28.9386 42.1137 29.064 42.4219 29.064Z"
                      fill="#1AA3E0"/>
            </g>
            <defs>
                <clipPath id="clip0">
                    <rect width="60" height="60" fill="white"/>
                </clipPath>
            </defs>

        </g>
    </symbol>

    <symbol id="about5" viewBox="0 0 60 60">
        <g>
            <path d="M16.9564 23.478H11.739C11.019 23.478 10.4346 24.0624 10.4346 24.7824V35.2172C10.4346 35.9372 11.019 36.5215 11.739 36.5215C12.459 36.5215 13.0433 35.9372 13.0433 35.2172V26.0867H16.9564C17.6764 26.0867 18.2608 25.5023 18.2608 24.7823C18.2608 24.0623 17.6764 23.478 16.9564 23.478Z"
                  fill="#1AA3E0"/>
            <path d="M14.3476 28.6958H11.739C11.019 28.6958 10.4346 29.2802 10.4346 30.0002C10.4346 30.7202 11.019 31.3045 11.739 31.3045H14.3476C15.0676 31.3045 15.652 30.7201 15.652 30.0001C15.652 29.2801 15.0676 28.6958 14.3476 28.6958Z"
                  fill="#1AA3E0"/>
            <path d="M29.9999 0C13.4583 0 0 13.4583 0 29.9999C0 46.5416 13.4583 59.9999 29.9999 59.9999C46.5416 59.9999 59.9999 46.5416 59.9999 29.9999C59.9999 13.4583 46.5417 0 29.9999 0ZM29.9999 57.3912C14.8956 57.3912 2.60865 45.1043 2.60865 29.9999C2.60865 14.8956 14.8956 2.60865 29.9999 2.60865C45.1043 2.60865 57.3912 14.8956 57.3912 29.9999C57.3912 45.1043 45.1043 57.3912 29.9999 57.3912Z"
                  fill="#1AA3E0"/>
            <path d="M47.2929 16.14C43.0538 10.8574 36.7512 7.82617 29.9999 7.82617C23.2485 7.82617 16.9459 10.8574 12.7068 16.14C12.2554 16.7009 12.3442 17.5227 12.9077 17.9739C13.4686 18.4253 14.2903 18.3365 14.739 17.773C18.4824 13.1087 24.0442 10.4347 29.9999 10.4347C35.9555 10.4347 41.5173 13.1087 45.2581 17.773C45.5164 18.0939 45.8946 18.2608 46.2755 18.2608C46.5651 18.2608 46.8521 18.1669 47.092 17.9738C47.6555 17.5227 47.7443 16.7009 47.2929 16.14Z"
                  fill="#1AA3E0"/>
            <path d="M46.027 43.4006C45.5105 42.9076 44.681 42.9285 44.1853 43.4501C40.4419 47.3919 35.4045 49.5649 29.9992 49.5649C24.594 49.5649 19.5567 47.3918 15.8158 43.4501C15.3228 42.9232 14.4932 42.9076 13.9741 43.4006C13.4472 43.8962 13.4288 44.7232 13.9246 45.245C18.1638 49.7137 23.8715 52.1736 29.9994 52.1736C36.1272 52.1736 41.835 49.7137 46.0767 45.245C46.5723 44.7232 46.5514 43.8962 46.027 43.4006Z"
                  fill="#1AA3E0"/>
            <path d="M25.2883 31.2702C27.2083 31.0224 28.6952 29.3763 28.6952 27.3911C28.6952 25.2336 26.9396 23.478 24.7822 23.478H22.1735C21.4535 23.478 20.8691 24.0624 20.8691 24.7824V29.9893C20.8691 29.9946 20.8691 30.0024 20.8691 30.0075V35.2172C20.8691 35.9372 21.4535 36.5215 22.1735 36.5215C22.8935 36.5215 23.4779 35.9372 23.4779 35.2172V33.1485L26.4675 36.1406C26.7232 36.3936 27.057 36.5215 27.391 36.5215C27.7249 36.5215 28.0587 36.3938 28.3119 36.1381C28.8206 35.6294 28.8206 34.8024 28.3119 34.2937L25.2883 31.2702ZM23.4779 28.6955V26.0868H24.7823C25.4997 26.0868 26.0867 26.6712 26.0867 27.3912C26.0867 28.1112 25.4997 28.6956 24.7823 28.6956H23.4779V28.6955Z"
                  fill="#1AA3E0"/>
            <path d="M37.8255 33.9128H33.9125V26.0867H37.8255C38.5455 26.0867 39.1299 25.5023 39.1299 24.7823C39.1299 24.0623 38.5455 23.478 37.8255 23.478H32.6081C31.8881 23.478 31.3037 24.0624 31.3037 24.7824V35.2172C31.3037 35.9372 31.8881 36.5215 32.6081 36.5215H37.8255C38.5455 36.5215 39.1299 35.9372 39.1299 35.2172C39.1299 34.4972 38.5455 33.9128 37.8255 33.9128Z"
                  fill="#1AA3E0"/>
            <path d="M35.2177 28.6958H32.6091C31.8891 28.6958 31.3047 29.2802 31.3047 30.0002C31.3047 30.7202 31.8891 31.3045 32.6091 31.3045H35.2177C35.9377 31.3045 36.5221 30.7201 36.5221 30.0001C36.5221 29.2801 35.9377 28.6958 35.2177 28.6958Z"
                  fill="#1AA3E0"/>
            <path d="M48.2611 33.9128H44.348V26.0867H48.2611C48.9811 26.0867 49.5655 25.5023 49.5655 24.7823C49.5655 24.0623 48.9811 23.478 48.2611 23.478H43.0436C42.3236 23.478 41.7393 24.0624 41.7393 24.7824V35.2172C41.7393 35.9372 42.3236 36.5215 43.0436 36.5215H48.2611C48.9811 36.5215 49.5655 35.9372 49.5655 35.2172C49.5655 34.4972 48.9811 33.9128 48.2611 33.9128Z"
                  fill="#1AA3E0"/>
            <path d="M45.6523 28.6958H43.0436C42.3236 28.6958 41.7393 29.2802 41.7393 30.0002C41.7393 30.7202 42.3236 31.3045 43.0436 31.3045H45.6523C46.3723 31.3045 46.9567 30.7201 46.9567 30.0001C46.9567 29.2801 46.3723 28.6958 45.6523 28.6958Z"
                  fill="#1AA3E0"/>

        </g>
    </symbol>

    <symbol id="check" viewBox="0 0 24 18">
        <g>
            <path d="M0 8.5L2.4 6L8 10.5L21.6 0L24 2.5L8 17.5L0 8.5Z" fill="#27AE60"/>

        </g>
    </symbol>


    <symbol id="dots" viewBox="0 0 4 16">
        <g>
            <path d="M2 12C2.53043 12 3.03914 12.2107 3.41421 12.5858C3.78929 12.9609 4 13.4696 4 14C4 14.5304 3.78929 15.0391 3.41421 15.4142C3.03914 15.7893 2.53043 16 2 16C1.46957 16 0.96086 15.7893 0.585787 15.4142C0.210714 15.0391 0 14.5304 0 14C0 13.4696 0.210714 12.9609 0.585787 12.5858C0.96086 12.2107 1.46957 12 2 12ZM2 6C2.53043 6 3.03914 6.21071 3.41421 6.58579C3.78929 6.96086 4 7.46957 4 8C4 8.53043 3.78929 9.03914 3.41421 9.41421C3.03914 9.78929 2.53043 10 2 10C1.46957 10 0.96086 9.78929 0.585787 9.41421C0.210714 9.03914 0 8.53043 0 8C0 7.46957 0.210714 6.96086 0.585787 6.58579C0.96086 6.21071 1.46957 6 2 6ZM2 0C2.53043 0 3.03914 0.210714 3.41421 0.585786C3.78929 0.960859 4 1.46957 4 2C4 2.53043 3.78929 3.03914 3.41421 3.41421C3.03914 3.78929 2.53043 4 2 4C1.46957 4 0.96086 3.78929 0.585787 3.41421C0.210714 3.03914 0 2.53043 0 2C0 1.46957 0.210714 0.960859 0.585787 0.585786C0.96086 0.210714 1.46957 0 2 0Z"
                  fill="#1AA3E0"/>
        </g>
    </symbol>



    <symbol id="error" viewBox="0 0 80 80">
        <g>
            <path d="M63.3334 21.366L58.6334 16.666L40.0001 35.2994L21.3667 16.666L16.6667 21.366L35.3001 39.9994L16.6667 58.6327L21.3667 63.3327L40.0001 44.6994L58.6334 63.3327L63.3334 58.6327L44.7001 39.9994L63.3334 21.366Z"
                  fill="#FC8B8C"/>


        </g>
    </symbol>

    <symbol id="star" viewBox="0 0 22 21">
        <g>
                <path d="M13.75 7.38344L11.4751 0.448328C11.3246 -0.0105469 10.6754 -0.0105456 10.5249 0.44833L8.25 7.38344H1.46463C0.987777 7.38344 0.781573 7.98746 1.15888 8.27906L6.61467 12.4955L4.36678 19.5269C4.21906 19.989 4.74976 20.3695 5.14002 20.0814L11 15.7548L16.86 20.0814C17.2502 20.3695 17.7809 19.989 17.6332 19.5269L15.3853 12.4955L20.8411 8.27906C21.2184 7.98746 21.0122 7.38344 20.5354 7.38344H13.75Z" fill="#FFD706"/>

        </g>
    </symbol>


    <symbol id="sale" viewBox="0 0 65 22">
        <g>
                <path d="M63.4064 2.59703e-07L11 0C10.605 0 10.2236 0.157385 9.94373 0.437296L0.437296 9.94373C-0.145765 10.5268 -0.145765 11.4732 0.437296 12.0563L9.94373 21.5627C10.2236 21.8426 10.6039 22.0011 11 22H63.4064C63.8194 22.0011 64.1923 21.8331 64.4627 21.5627C64.7331 21.2923 64.9 20.9184 64.9 20.5064V1.49357C64.9011 0.668618 64.2324 2.59703e-07 63.4064 2.59703e-07ZM14.1688 13.1125C13.0016 14.2797 11.1109 14.2797 9.94373 13.1125C8.77655 11.9454 8.77655 10.0546 9.94373 8.88746C11.1109 7.72028 13.0016 7.72028 14.1688 8.88746C15.336 10.0546 15.336 11.9454 14.1688 13.1125Z" fill="#FF1315"/>
                <path d="M24.6204 16.6848C23.7683 16.6848 22.9418 16.5718 22.141 16.346C21.3505 16.1098 20.714 15.807 20.2314 15.4374L21.0784 13.5586C21.5404 13.8974 22.0897 14.1694 22.7262 14.3748C23.3628 14.5801 23.9993 14.6828 24.6358 14.6828C25.3442 14.6828 25.8678 14.5801 26.2066 14.3748C26.5454 14.1592 26.7148 13.8768 26.7148 13.5278C26.7148 13.2711 26.6122 13.0606 26.4068 12.8964C26.2118 12.7218 25.9551 12.5832 25.6368 12.4806C25.3288 12.3779 24.9079 12.265 24.374 12.1418C23.5527 11.9467 22.8802 11.7516 22.3566 11.5566C21.833 11.3615 21.3813 11.0484 21.0014 10.6172C20.6318 10.186 20.447 9.61102 20.447 8.89236C20.447 8.26609 20.6164 7.70142 20.9552 7.19836C21.294 6.68502 21.8022 6.27949 22.4798 5.98176C23.1677 5.68402 24.0044 5.53516 24.99 5.53516C25.6779 5.53516 26.3504 5.61729 27.0074 5.78156C27.6645 5.94582 28.2394 6.18196 28.7322 6.48996L27.9622 8.38416C26.9664 7.81949 25.9705 7.53716 24.9746 7.53716C24.2765 7.53716 23.758 7.65009 23.4192 7.87596C23.0907 8.10182 22.9264 8.39956 22.9264 8.76916C22.9264 9.13876 23.1164 9.41596 23.4962 9.60076C23.8864 9.77529 24.4767 9.94982 25.2672 10.1244C26.0886 10.3194 26.761 10.5145 27.2846 10.7096C27.8082 10.9046 28.2548 11.2126 28.6244 11.6336C29.0043 12.0545 29.1942 12.6243 29.1942 13.343C29.1942 13.959 29.0197 14.5236 28.6706 15.037C28.3318 15.54 27.8185 15.9404 27.1306 16.2382C26.4428 16.5359 25.606 16.6848 24.6204 16.6848Z" fill="white"/>
                <path d="M37.8444 14.19H32.8394L31.8846 16.5H29.3282L34.133 5.71996H36.597L41.4172 16.5H38.7992L37.8444 14.19ZM37.059 12.2958L35.3496 8.16856L33.6402 12.2958H37.059Z" fill="white"/>
                <path d="M42.3816 5.71996H44.8764V14.4672H50.2818V16.5H42.3816V5.71996Z" fill="white"/>
                <path d="M59.8685 14.498V16.5H51.5217V5.71996H59.6683V7.72196H54.0011V10.0628H59.0061V12.0032H54.0011V14.498H59.8685Z" fill="white"/>

        </g>
    </symbol>

    <symbol id="user2" viewBox="0 0 22 24">
        <g>
            <path d="M13 19H16" stroke="white" stroke-width="2" stroke-miterlimit="10" stroke-linecap="square"/>
            <path d="M7.796 13.9062L1.971 17.4163C1.369 17.7783 1 18.4293 1 19.1313V22.9993H21V19.1313C21 18.4283 20.631 17.7773 20.029 17.4163L14.204 13.9062"
                  stroke="white" stroke-width="2" stroke-miterlimit="10"/>
            <path d="M5.00391 6.796C5.63391 6.982 6.29591 7.106 6.98591 7.106C8.94591 7.106 10.7149 6.298 11.9859 5C13.2569 6.298 15.0399 7.106 16.9999 7.106"
                  stroke="white" stroke-width="2" stroke-miterlimit="10"/>
            <path d="M5 7C5 3.686 7.686 1 11 1C14.314 1 17 3.686 17 7C17 12 14.314 15 11 15C7.686 15 5 12 5 7Z"
                  stroke="white" stroke-width="2" stroke-miterlimit="10" stroke-linecap="square"/>

        </g>
    </symbol>

    <symbol id="check-red" viewBox="0 0 14 12">
        <g>
            <path d="M2 7L5 10L12 2" stroke="#FC8B8C" stroke-width="2" stroke-miterlimit="10" stroke-linecap="square"/>
        </g>
    </symbol>

    <symbol id="credit-cards" viewBox="0 0 82 82">
        <g>
            <path d="M76.875 20.498H5.125C2.30113 20.498 0 22.7992 0 25.623V71.748C0 74.577 2.30113 76.873 5.125 76.873H76.875C79.704 76.873 82 74.577 82 71.748V25.623C82 22.7992 79.704 20.498 76.875 20.498Z"
                  fill="#2196F3"/>
            <path d="M82 30.748H0V46.123H82V30.748Z" fill="#455A64"/>
            <path d="M23.0625 61.4981H12.8125C11.398 61.4981 10.25 60.3501 10.25 58.9356C10.25 57.521 11.398 56.373 12.8125 56.373H23.0625C24.477 56.373 25.625 57.521 25.625 58.9356C25.625 60.3501 24.477 61.4981 23.0625 61.4981Z"
                  fill="#FAFAFA"/>
            <path d="M82 45.8463V25.623C82 22.7992 79.704 20.498 76.875 20.498H35.875V25.623C35.875 41.6746 41.984 51.4479 57.687 60.4884C58.8452 61.1496 60.1675 61.4981 61.5 61.4981C62.8325 61.4981 64.1547 61.1496 65.3284 60.4782C73.0979 56.0143 78.5099 51.3557 82 45.8463Z"
                  fill="#4E5363"/>
            <path d="M80.4471 13.022L62.5096 5.33452C61.8587 5.05777 61.1361 5.05777 60.4853 5.33452L42.5478 13.022C41.6099 13.4218 41 14.3494 41 15.3744V25.6244C41 39.7233 46.2121 47.9643 60.2239 56.0361C60.6185 56.2616 61.0592 56.3744 61.5 56.3744C61.9408 56.3744 62.3815 56.2616 62.7761 56.0361C76.7879 47.9848 82 39.7438 82 25.6244V15.3744C82 14.3494 81.3901 13.4218 80.4471 13.022Z"
                  fill="#009688"/>
            <path d="M58.939 38.4359C58.9031 38.4359 58.8621 38.4359 58.8314 38.4359C58.0165 38.4001 57.2631 37.9798 56.807 37.2982L51.682 29.6107C50.8979 28.4319 51.2156 26.8432 52.3944 26.0591C53.5629 25.2801 55.1567 25.5876 55.946 26.7714L59.1286 31.5428L67.1851 21.4671C68.0718 20.3652 69.6861 20.1909 70.788 21.0673C71.895 21.9539 72.0693 23.5632 71.1878 24.6702L60.9377 37.4827C60.4509 38.0823 59.7129 38.4359 58.939 38.4359Z"
                  fill="#FAFAFA"/>

        </g>
    </symbol>

    <symbol id="btc" viewBox="0 0 82 82">
        <g>
            <path d="M80.7694 50.9228C75.2967 72.8849 53.046 86.2517 31.0774 80.7708C9.10882 75.2899 -4.25185 53.0503 1.22944 31.0862C6.71073 9.12207 28.9503 -4.2509 50.914 1.2308C72.8777 6.7125 86.2507 28.9534 80.7694 50.9228Z"
                  fill="#F7931A"/>
            <path d="M59.081 35.1583C59.8961 29.7024 55.742 26.7692 50.061 24.8127L51.906 17.4225L47.4059 16.3015L45.6084 23.4974C44.4268 23.2031 43.2124 22.9234 42.0053 22.6496L43.8093 15.4061L39.3137 14.2852L37.474 21.6725L28.3999 19.4249L27.2027 24.2305C27.2027 24.2305 30.5409 24.9956 30.4704 25.0431C32.2925 25.4982 32.6229 26.7036 32.5672 27.6598L27.5184 47.9056C27.2954 48.4591 26.7304 49.2889 25.457 48.9716C25.5021 49.0372 22.1868 48.1516 22.1868 48.1516L19.9531 53.309L29.0141 55.5968L27.1519 63.0731L31.6455 64.1941L33.4905 56.7981C34.7205 57.131 35.9095 57.4385 37.0747 57.7279L35.2371 65.0895L39.7364 66.2104L41.5986 58.7484C49.2709 60.1998 55.0405 59.6144 57.4656 52.6804C59.4221 47.0942 57.3697 43.8716 53.3328 41.7691C56.2725 41.0885 58.4865 39.1558 59.0773 35.1611L59.081 35.1583ZM48.7982 49.5735C47.4042 55.1597 38.0009 52.1409 34.9497 51.3824L37.4203 41.4788C40.4699 42.2398 50.2488 43.7469 48.7999 49.5726L48.7982 49.5735ZM50.1939 35.0791C48.9253 40.1631 41.0956 37.5801 38.5544 36.9463L40.7913 27.9615C43.3333 28.5962 51.5132 29.7778 50.1906 35.0787"
                  fill="white"/>

        </g>
    </symbol>

    <symbol id="payeer" viewBox="0 0 188 27">
        <g>
            <g clip-path="url(#clip0)">
                <path d="M9.30664 27.456V-0.189453H18.3676C21.8194 -0.189453 24.0384 -0.0671255 25.0863 0.238686C26.6889 0.666823 28.045 1.58426 29.0929 2.92983C30.1407 4.33656 30.6955 6.11028 30.6955 8.31212C30.6955 10.0247 30.3873 11.4314 29.7709 12.5935C29.1545 13.7556 28.3532 14.673 27.4286 15.3458C26.4424 16.0186 25.5178 16.4467 24.5316 16.6302C23.1755 16.8749 21.2647 16.9972 18.6758 16.9972H14.9775V27.456H9.30664ZM14.9775 4.45889V12.2877H18.0594C20.2784 12.2877 21.7578 12.1654 22.4975 11.8595C23.2371 11.5537 23.8535 11.1256 24.285 10.514C24.7165 9.90235 24.9014 9.1684 24.9014 8.37329C24.9014 7.39469 24.5932 6.53841 23.9768 5.86563C23.3604 5.19284 22.6207 4.82586 21.6961 4.64238C21.0181 4.52005 19.662 4.45889 17.628 4.45889H14.9775Z"
                      fill="black"/>
                <path d="M57.5702 27.456H51.4679L49.0023 21.1562H37.8456L35.565 27.456H29.5859L40.4345 -0.189453H46.4135L57.5702 27.456ZM47.2148 16.5079L43.3932 6.2326L39.6332 16.5079H47.2148Z"
                      fill="black"/>
                <path d="M64.3513 27.456V15.8351L54.1191 -0.189453H60.7145L67.2483 10.7586L73.6588 -0.189453H80.1309L69.8988 15.8963V27.5171H64.3513V27.456Z"
                      fill="black"/>
                <path d="M82.9648 27.456V-0.189453H103.614V4.52005H88.574V10.6363H102.566V15.2846H88.574V22.8076H104.169V27.456H82.9648Z"
                      fill="#64B3DF"/>
                <path d="M108.916 27.456V-0.189453H129.565V4.52005H114.525V10.6363H128.517V15.2846H114.525V22.8076H130.12V27.456H108.916Z"
                      fill="#64B3DF"/>
                <path d="M134.926 27.456V-0.189453H146.761C149.719 -0.189453 151.877 0.0551993 153.233 0.544499C154.589 1.0338 155.637 1.95124 156.5 3.17448C157.301 4.45889 157.732 5.92679 157.732 7.51701C157.732 9.59653 157.116 11.3091 155.883 12.6547C154.65 14.0002 152.801 14.8565 150.397 15.2235C151.63 15.9574 152.616 16.6914 153.418 17.5476C154.219 18.4039 155.267 19.8718 156.623 22.0125L160.013 27.3948H153.294L149.226 21.4009C147.808 19.2602 146.822 17.9146 146.267 17.3642C145.713 16.8137 145.158 16.4467 144.603 16.2021C144.048 15.9574 143.062 15.8963 141.768 15.8963H140.535V27.456H134.926ZM140.535 11.4926H144.726C147.439 11.4926 149.103 11.3702 149.781 11.1256C150.459 10.8809 150.952 10.514 151.383 9.9635C151.753 9.41304 151.938 8.74026 151.938 7.88399C151.938 6.96655 151.692 6.17144 151.199 5.62098C150.705 5.07052 149.966 4.70354 149.103 4.52005C148.671 4.45889 147.254 4.39773 144.973 4.39773H140.535V11.4926Z"
                      fill="#64B3DF"/>
                <path d="M175.918 19.6889C175.918 21.8296 175.178 23.6645 173.637 25.1324C172.096 26.6614 170.309 27.3954 168.151 27.3954C165.994 27.3954 164.206 26.6614 162.665 25.1324C161.186 23.6033 160.385 21.8296 160.385 19.6889C160.385 17.5482 161.124 15.7745 162.665 14.2454C164.145 12.7775 165.994 11.9824 168.151 11.9824C170.309 11.9824 172.158 12.7164 173.637 14.2454C175.178 15.7745 175.918 17.6094 175.918 19.6889ZM168.151 13.0833C166.302 13.0833 164.761 13.7561 163.467 15.0405C162.172 16.325 161.494 17.9152 161.494 19.7501C161.494 21.5849 162.111 23.1752 163.405 24.4596C164.7 25.744 166.302 26.4168 168.151 26.4168C170.001 26.4168 171.603 25.744 172.898 24.4596C174.192 23.1752 174.87 21.5849 174.87 19.7501C174.87 17.9152 174.254 16.3861 172.898 15.0405C171.541 13.7561 170.001 13.0833 168.151 13.0833ZM168.028 15.4687C169.076 15.4687 169.877 15.591 170.37 15.7745C171.233 16.1415 171.665 16.8754 171.665 17.9152C171.665 18.6491 171.357 19.1996 170.863 19.5666C170.555 19.7501 170.185 19.8724 169.631 19.9947C170.309 20.117 170.802 20.3617 171.11 20.851C171.418 21.2791 171.603 21.7073 171.603 22.1354V22.747C171.603 22.9305 171.603 23.1752 171.603 23.3586C171.603 23.6033 171.665 23.7256 171.665 23.7868L171.726 23.9091H170.309V23.8479C170.309 23.8479 170.309 23.7868 170.309 23.7256L170.247 23.481V22.8082C170.247 21.8296 170.001 21.218 169.446 20.851C169.138 20.6675 168.583 20.6063 167.781 20.6063H166.61V23.9091H165.131V15.4687H168.028ZM170.185 18.0375C170.185 17.4259 170.001 16.9977 169.631 16.8143C169.261 16.6308 168.644 16.5084 167.843 16.5084H166.549V19.5666H167.905C168.521 19.5666 169.014 19.5054 169.322 19.3831C169.877 19.1384 170.185 18.7103 170.185 18.0375Z"
                      fill="black"/>
            </g>
            <defs>
                <clipPath id="clip0">
                    <rect width="188" height="27" fill="white"/>
                </clipPath>
            </defs>
        </g>
    </symbol>

    <symbol id="adv" viewBox="0 0 98 82">
        <g>
            <path d="M84.9528 49.3574H58.5042L63.178 60.0317H76.9639L84.9528 49.3574ZM97.7152 29.3262H49.7363L54.4101 40.0004H89.7353L97.7152 29.3262Z"
                  fill="#009A61"/>
            <path d="M49.61 0L12.3555 81.6784H26.5399L49.5919 28.9976L72.68 81.7602H86.8735L49.61 0Z" fill="#00384F"/>
            <path d="M0 29.3262L7.79872 40.0004H54.4099L49.7361 29.3262H0ZM14.1844 49.3574L21.9922 60.0317H63.1777L58.504 49.3574H14.1844Z"
                  fill="#009A61"/>

        </g>
    </symbol>

    <symbol id="visa" viewBox="0 0 50 40">
        <g>
            <path d="M40.8094 17.8563C40.8094 17.8563 41.4688 21.0859 41.6172 21.7625H38.7188L40.1078 17.9859C40.0906 18.0125 40.3937 17.1953 40.5672 16.6922L40.8094 17.8563ZM50.0016 4.72188V35.2781C50.0011 36.3832 49.562 37.4429 48.7806 38.2243C47.9992 39.0057 46.9395 39.4449 45.8344 39.4453H4.16719C3.06211 39.4449 2.00241 39.0057 1.221 38.2243C0.439589 37.4429 0.00041412 36.3832 0 35.2781V4.72188C0.00041412 3.6168 0.439589 2.5571 1.221 1.77569C2.00241 0.994276 3.06211 0.555102 4.16719 0.554688H45.8344C46.9395 0.555102 47.9992 0.994276 48.7806 1.77569C49.562 2.5571 50.0011 3.6168 50.0016 4.72188ZM13.2391 26.5281L18.725 13.0562H15.0359L11.625 22.2578L11.2516 20.3922L10.0359 14.1938C9.83594 13.3344 9.22031 13.0906 8.45625 13.0562H2.84063L2.77969 13.325C4.06574 13.6405 5.29936 14.1405 6.44219 14.8094L9.55 26.5281H13.2391ZM21.4344 26.5453L23.6219 13.0562H20.1328L17.9547 26.5453H21.4344ZM33.5781 22.1359C33.5953 20.6 32.6578 19.4281 30.6531 18.4641C29.4297 17.8469 28.6828 17.4312 28.6828 16.7969C28.7 16.2234 29.3172 15.6328 30.6875 15.6328C31.58 15.6076 32.4669 15.7828 33.2828 16.1453L33.5953 16.2922L34.0734 13.375C33.0759 12.9931 32.0165 12.7987 30.9484 12.8016C27.5016 12.8016 25.0797 14.6422 25.0625 17.2625C25.0359 19.1984 26.7984 20.275 28.1187 20.925C29.4641 21.5844 29.925 22.0187 29.925 22.6C29.9078 23.5031 28.8312 23.9187 27.8328 23.9187C26.4438 23.9187 25.6969 23.7016 24.5594 23.1984L24.1 22.9813L23.6141 26.0109C24.4297 26.3844 25.9406 26.7141 27.5031 26.7313C31.1656 26.7391 33.5531 24.925 33.5797 22.1313L33.5781 22.1359ZM45.8344 26.5453L43.0219 13.0562H40.3219C39.4891 13.0562 38.8547 13.3 38.4984 14.1766L33.3156 26.5469H36.9781C36.9781 26.5469 37.5766 24.8797 37.7078 24.525H42.1875C42.2922 25.0031 42.6047 26.5469 42.6047 26.5469L45.8344 26.5453Z"
                  fill="#98A4C4"/>
        </g>
    </symbol>

    <symbol id="mastercard" viewBox="0 0 50 40">
        <g>
            <path d="M41.9203 33.3941C41.9203 33.9848 41.5219 34.4098 40.9484 34.4098C40.3578 34.4098 39.9766 33.9582 39.9766 33.3941C39.9766 32.8301 40.3578 32.3785 40.9484 32.3785C41.5219 32.3785 41.9203 32.8301 41.9203 33.3941ZM14.9406 32.3785C14.3234 32.3785 13.9688 32.8301 13.9688 33.3941C13.9688 33.9582 14.325 34.4098 14.9406 34.4098C15.5047 34.4098 15.8859 33.9848 15.8859 33.3941C15.8766 32.8301 15.5047 32.3785 14.9406 32.3785ZM25.1406 32.3535C24.6719 32.3535 24.3844 32.6566 24.3156 33.1082H25.9734C25.8953 32.6129 25.5922 32.3535 25.1406 32.3535ZM34.4984 32.3785C33.9078 32.3785 33.5531 32.8301 33.5531 33.3941C33.5531 33.9582 33.9094 34.4098 34.4984 34.4098C35.0891 34.4098 35.4703 33.9848 35.4703 33.3941C35.4703 32.8301 35.0875 32.3785 34.4984 32.3785ZM43.6906 34.6441C43.6906 34.6707 43.7172 34.6879 43.7172 34.7395C43.7172 34.766 43.6906 34.7832 43.6906 34.8348C43.6641 34.8613 43.6641 34.8785 43.6469 34.9035C43.6203 34.9301 43.6031 34.9473 43.5516 34.9473C43.525 34.9738 43.5078 34.9738 43.4562 34.9738C43.4297 34.9738 43.4125 34.9738 43.3609 34.9473C43.3344 34.9473 43.3172 34.9207 43.2922 34.9035C43.2656 34.877 43.2484 34.8598 43.2484 34.8348C43.2219 34.791 43.2219 34.766 43.2219 34.7395C43.2219 34.6957 43.2219 34.6707 43.2484 34.6441C43.2484 34.6004 43.275 34.5754 43.2922 34.5488C43.3187 34.5223 43.3359 34.5223 43.3609 34.5051C43.4047 34.4785 43.4297 34.4785 43.4562 34.4785C43.5 34.4785 43.525 34.4785 43.5516 34.5051C43.5953 34.5301 43.6203 34.5301 43.6469 34.5488C43.6734 34.5676 43.6641 34.6004 43.6906 34.6441ZM43.5 34.766C43.5438 34.766 43.5437 34.7395 43.5687 34.7395C43.5953 34.7129 43.5953 34.6957 43.5953 34.6707C43.5953 34.6457 43.5953 34.627 43.5687 34.602C43.5437 34.602 43.525 34.5754 43.4734 34.5754H43.3344V34.8785H43.4031V34.7566H43.4297L43.525 34.8785H43.5938L43.5 34.766ZM50.0016 4.80977V35.366C50.0011 36.4711 49.562 37.5308 48.7806 38.3122C47.9992 39.0936 46.9395 39.5328 45.8344 39.5332H4.16719C3.06211 39.5328 2.00241 39.0936 1.221 38.3122C0.439589 37.5308 0.00041412 36.4711 0 35.366V4.80977C0.00041412 3.70469 0.439589 2.64499 1.221 1.86358C2.00241 1.08217 3.06211 0.642992 4.16719 0.642578H45.8344C46.9395 0.642992 47.9992 1.08217 48.7806 1.86358C49.562 2.64499 50.0011 3.70469 50.0016 4.80977ZM5.55781 16.927C5.55781 23.5676 10.9484 28.9488 17.5797 28.9488C19.9413 28.9421 22.2495 28.2453 24.2203 26.9441C17.8922 21.7973 17.9359 12.0832 24.2203 6.93477C22.2514 5.6295 19.942 4.93233 17.5797 4.93008C10.9484 4.92227 5.55781 10.3113 5.55781 16.927ZM25.0016 26.3723C31.1219 21.5973 31.0953 12.2926 25.0016 7.49258C18.9078 12.2926 18.8812 21.6066 25.0016 26.3723ZM12.6484 32.9957C12.6484 32.241 12.1531 31.7457 11.3719 31.7191C10.9719 31.7191 10.5469 31.841 10.2609 32.2832C10.0531 31.927 9.69687 31.7191 9.20156 31.7191C9.02158 31.7164 8.84365 31.7576 8.68325 31.8393C8.52286 31.921 8.38485 32.0407 8.28125 32.1879V31.8066H7.57031V34.9926H8.28125C8.28125 33.352 8.06406 32.3707 9.0625 32.3707C9.94844 32.3707 9.775 33.2566 9.775 34.9926H10.4609C10.4609 33.4035 10.2437 32.3707 11.2422 32.3707C12.1281 32.3707 11.9531 33.2395 11.9531 34.9926H12.6656V32.9957H12.6484ZM16.5469 31.8066H15.8609V32.1879C15.7395 32.0364 15.5846 31.9153 15.4083 31.8339C15.2321 31.7526 15.0393 31.7133 14.8453 31.7191C13.9516 31.7191 13.2656 32.4316 13.2656 33.3941C13.2656 34.366 13.9516 35.0691 14.8453 35.0691C15.2969 35.0691 15.6266 34.9035 15.8609 34.6004V35.0004H16.5469V31.8066ZM20.0625 34.0285C20.0625 32.727 18.075 33.316 18.075 32.7082C18.075 32.2129 19.1078 32.2926 19.6813 32.6129L19.9672 32.0488C19.1516 31.5191 17.3453 31.5285 17.3453 32.7613C17.3453 34.002 19.3328 33.4816 19.3328 34.0629C19.3328 34.6098 18.1609 34.566 17.5359 34.1316L17.2328 34.6785C18.2047 35.3379 20.0625 35.1988 20.0625 34.027V34.0285ZM23.1359 34.8348L22.9453 34.2441C22.6156 34.4254 21.8859 34.6254 21.8859 33.8879V32.4473H23.0234V31.8051H21.8859V30.8332H21.1734V31.8051H20.5141V32.4395H21.1734V33.8895C21.1734 35.4176 22.675 35.1395 23.1359 34.8348ZM24.2891 33.6723H26.6766C26.6766 32.266 26.0344 31.7098 25.1656 31.7098C24.2453 31.7098 23.5859 32.3957 23.5859 33.3848C23.5859 35.1645 25.5484 35.4598 26.5203 34.6176L26.1906 34.0973C25.5141 34.6535 24.4891 34.6004 24.2891 33.6723ZM29.4203 31.8066C29.0219 31.6332 28.4141 31.6504 28.1016 32.1879V31.8066H27.3891V34.9926H28.1016V33.1957C28.1016 32.1879 28.9266 32.3191 29.2125 32.466L29.4203 31.8066ZM30.3406 33.3941C30.3406 32.4035 31.3484 32.0832 32.1375 32.6645L32.4672 32.1004C31.4594 31.3113 29.6281 31.7441 29.6281 33.402C29.6281 35.1207 31.5719 35.4676 32.4672 34.7035L32.1375 34.1395C31.3391 34.7035 30.3406 34.366 30.3406 33.3926V33.3941ZM36.1297 31.8066H35.4172V32.1879C34.6969 31.2332 32.8219 31.7723 32.8219 33.3941C32.8219 35.0613 34.7656 35.5379 35.4172 34.6004V35.0004H36.1297V31.8066ZM39.0547 31.8066C38.8469 31.702 38.1 31.5551 37.7359 32.1879V31.8066H37.05V34.9926H37.7359V33.1957C37.7359 32.241 38.5172 32.302 38.8469 32.466L39.0547 31.8066ZM42.5531 30.5129H41.8672V32.1879C41.1547 31.2426 39.2719 31.7457 39.2719 33.3941C39.2719 35.0785 41.225 35.5285 41.8672 34.6004V35.0004H42.5531V30.5129ZM43.2141 23.9941V24.3941H43.2828V23.9941H43.4469V23.9254H43.0469V23.9941H43.2141ZM43.7859 34.7395C43.7859 34.6957 43.7859 34.6441 43.7609 34.6004C43.7344 34.5738 43.7172 34.5316 43.6922 34.5051C43.6672 34.4785 43.6234 34.4613 43.5969 34.4363C43.5531 34.4363 43.5016 34.4098 43.4578 34.4098C43.4312 34.4098 43.3891 34.4363 43.3359 34.4363C43.3017 34.4556 43.2697 34.4786 43.2406 34.5051C43.1969 34.5301 43.1719 34.5738 43.1719 34.6004C43.1453 34.6441 43.1453 34.6957 43.1453 34.7395C43.1453 34.766 43.1453 34.8082 43.1719 34.8613C43.1719 34.8879 43.1984 34.9301 43.2406 34.9566C43.267 34.9862 43.2995 35.0097 43.3359 35.0254C43.3797 35.0504 43.4312 35.0504 43.4578 35.0504C43.5016 35.0504 43.5531 35.0504 43.5969 35.0254C43.6234 34.9988 43.6656 34.9816 43.6922 34.9566C43.7188 34.9316 43.7359 34.8879 43.7609 34.8613C43.7859 34.8098 43.7859 34.766 43.7859 34.7395ZM44.0641 23.916H43.9422L43.8031 24.2191L43.6641 23.916H43.5422V24.3848H43.6109V24.0285L43.75 24.3316H43.8453L43.9672 24.0285V24.3848H44.0625L44.0641 23.916ZM44.4453 16.927C44.4453 10.3113 39.0547 4.92227 32.4234 4.92227C30.0617 4.92819 27.7533 5.62505 25.7828 6.92695C32.0422 12.0754 32.1375 21.8145 25.7828 26.9363C27.7528 28.2393 30.0615 28.9363 32.4234 28.941C39.0547 28.9504 44.4453 23.5676 44.4453 16.927Z"
                  fill="#98A4C4"/>

        </g>
    </symbol>

    <symbol id="apple" viewBox="0 0 32 32">
        <g>
            <path d="M21.9974 0C20.2914 0.117999 18.2974 1.20999 17.1354 2.63198C16.0754 3.92198 15.2034 5.83797 15.5434 7.69996C17.4074 7.75796 19.3334 6.63996 20.4494 5.19397C21.4934 3.84798 22.2834 1.94399 21.9974 0Z"
                  fill="#988FF2"/>
            <path d="M28.7411 10.7362C27.1031 8.68223 24.8011 7.49023 22.6271 7.49023C19.7571 7.49023 18.5431 8.86423 16.5492 8.86423C14.4932 8.86423 12.9312 7.49423 10.4492 7.49423C8.0112 7.49423 5.41522 8.98423 3.76923 11.5322C1.45524 15.1202 1.85124 21.8662 5.60122 27.6121C6.94321 29.6681 8.7352 31.9801 11.0792 32.0001C13.1652 32.0201 13.7532 30.6621 16.5792 30.6481C19.4051 30.6321 19.9411 32.0181 22.0231 31.9961C24.3691 31.9781 26.2591 29.4161 27.6011 27.3601C28.5631 25.8861 28.9211 25.1441 29.6671 23.4801C24.2411 21.4142 23.3711 13.6982 28.7411 10.7362Z"
                  fill="#988FF2"/>

        </g>
    </symbol>

    <symbol id="windows" viewBox="0 0 32 32">
        <g>
            <path d="M14 15V3.25L0 5V15H14Z" fill="#988FF2"/>
            <path d="M16 15H32V1L16 3V15Z" fill="#988FF2"/>
            <path d="M16 17V29L32 31V17H16Z" fill="#988FF2"/>
            <path d="M14 17H0V27L14 28.75V17Z" fill="#988FF2"/>

        </g>
    </symbol>

    <symbol id="arrow" viewBox="0 0 12 8">
        <g>
            <path d="M1.41 0.294922L6 4.87492L10.59 0.294922L12 1.70492L6 7.70492L0 1.70492L1.41 0.294922Z"
                  fill="#98A4C4"/>

        </g>
    </symbol>

    <symbol id="question" viewBox="0 0 20 20">
        <g>
            <path fill-rule="evenodd" clip-rule="evenodd"
                  d="M10 0C4.48 0 0 4.48 0 10C0 15.52 4.48 20 10 20C15.52 20 20 15.52 20 10C20 4.48 15.52 0 10 0ZM9 17V15H11V17H9ZM12.17 10.17L13.07 9.25C13.64 8.68 14 7.88 14 7C14 4.79 12.21 3 10 3C7.79 3 6 4.79 6 7H8C8 5.9 8.9 5 10 5C11.1 5 12 5.9 12 7C12 7.55 11.78 8.05 11.41 8.41L10.17 9.67C9.45 10.4 9 11.4 9 12.5V13H11C11 11.5 11.45 10.9 12.17 10.17Z"
                  fill="#FC8B8C"/>

        </g>
    </symbol>

    <symbol id="copy" viewBox="0 0 16 16">
        <g>
                <rect x="1" y="1" width="9" height="9" stroke="white" stroke-width="2"/>
                <path d="M10.5 6H15V15H6V10" stroke="white" stroke-width="2"/>
        </g>
    </symbol>

    <symbol id="subscribe" viewBox="0 0 108 125">
        <g>
                <g opacity="0.3">
                    <path d="M53.9598 79.1664H57.2059C57.2635 79.1664 57.3105 79.1205 57.3105 79.0639V74.2178C57.3105 73.2072 58.1445 72.3879 59.1732 72.3879C60.2019 72.3879 61.036 73.2072 61.036 74.2178V79.0639C61.036 81.1385 59.3178 82.8261 57.2059 82.8261H53.9598C51.4801 82.8261 49.4626 84.808 49.4626 87.2439V103.872C49.4626 104.358 49.6178 104.821 49.9116 105.212L57.1493 114.84C57.386 115.155 57.5136 115.536 57.5136 115.927V123.17C57.5136 124.181 56.6796 125 55.6509 125C54.6222 125 53.7881 124.181 53.7881 123.17V116.529L46.9149 107.386C46.1444 106.361 45.7374 105.146 45.7374 103.872V87.2439C45.7371 82.7903 49.4258 79.1664 53.9598 79.1664Z" fill="#81C728"/>
                    <path d="M61.036 66.4196C61.036 67.4302 60.2019 68.2495 59.1732 68.2495C58.1445 68.2495 57.3105 67.4302 57.3105 66.4196V48.7647C57.3105 44.5758 60.7796 41.1679 65.0436 41.1679C69.3075 41.1679 72.7767 44.5758 72.7767 48.7647V65.2836C73.7004 64.8218 74.744 64.5595 75.8495 64.5595H77.7197C79.9192 64.5595 81.8771 65.5918 83.1204 67.1884C84.3166 66.1605 85.88 65.5354 87.5903 65.5354H89.4605C91.8666 65.5354 93.9835 66.7709 95.1918 68.6291C96.3392 67.761 97.7743 67.2433 99.331 67.2433H101.201C104.95 67.2433 108 70.2391 108 73.9213V89.6876C108 90.6981 107.165 91.5174 106.137 91.5174C105.108 91.5174 104.274 90.6981 104.274 89.6876V73.9213C104.274 72.2571 102.896 70.903 101.201 70.903H99.331C97.6367 70.903 96.2582 72.2571 96.2582 73.9213V74.398C96.2582 75.4086 95.4242 76.2279 94.3955 76.2279C93.3668 76.2279 92.5328 75.4086 92.5328 74.398V72.2134C92.5328 70.5492 91.1543 69.1951 89.4602 69.1951H87.59C85.8957 69.1951 84.5172 70.5492 84.5172 72.2134V74.398C84.5172 75.4086 83.6832 76.2279 82.6545 76.2279C81.6258 76.2279 80.7917 75.4086 80.7917 74.398V72.2134C80.7917 71.9963 80.8032 71.7818 80.824 71.5698C80.8039 71.462 80.7917 71.3512 80.7917 71.2375C80.7917 69.5733 79.4133 68.2192 77.7192 68.2192H75.849C74.1549 68.2192 72.7765 69.5733 72.7765 71.2375V74.398C72.7765 75.4086 71.9425 76.2279 70.9137 76.2279C69.885 76.2279 69.051 75.4086 69.051 74.398V48.7647C69.051 46.5937 67.2531 44.8276 65.0433 44.8276C62.8336 44.8276 61.0357 46.5937 61.0357 48.7647V66.4196H61.036Z" fill="#81C728"/>
                    <path d="M103.167 107.765C103.881 106.871 104.275 105.753 104.275 104.617V97.4856C104.275 96.475 105.109 95.6557 106.137 95.6557C107.166 95.6557 108 96.475 108 97.4856V104.617C108 106.568 107.325 108.489 106.099 110.024L103.345 113.473V123.17C103.345 124.181 102.511 125 101.482 125C100.453 125 99.6194 124.181 99.6194 123.17V112.841C99.6194 112.432 99.7592 112.034 100.017 111.712L103.167 107.765Z" fill="#81C728"/>
                    <path d="M20.0608 21.3995L29.7602 18.1731L35.614 12.4222C36.3414 11.7076 37.5209 11.7073 38.2481 12.4222C38.9758 13.1368 38.9758 14.2952 38.2484 15.0099L33.404 19.769L43.5803 29.7656C44.3077 30.4802 44.3077 31.6389 43.5803 32.3532C43.2164 32.7104 42.7396 32.8893 42.263 32.8893C41.7863 32.8893 41.3095 32.7107 40.9456 32.3532L30.2706 21.8667L21.2554 24.8655C20.6524 25.066 20.475 25.5596 20.4269 25.7623C20.3787 25.9651 20.3151 26.4848 20.7651 26.9271L50.7027 56.3365C51.0241 56.6523 51.3899 56.7059 51.6437 56.6962C52.6653 56.6508 53.5398 57.4376 53.5832 58.4475C53.6267 59.4571 52.8284 60.3103 51.8005 60.3527C51.7274 60.3559 51.6547 60.3573 51.5821 60.3573C50.2541 60.3573 49.0135 59.8533 48.0683 58.9247L39.4008 50.41C37.8001 51.8051 35.7625 52.569 33.6044 52.569C31.2678 52.569 29.071 51.675 27.4191 50.0523L27.1633 49.8013C23.8794 46.5751 23.7589 41.4015 26.7989 38.0307L18.1312 29.516C16.902 28.3083 16.4041 26.5941 16.7997 24.9311C17.1949 23.2674 18.4141 21.9475 20.0608 21.3995ZM29.7972 47.2126L30.053 47.4637C31.0015 48.3957 32.2627 48.9088 33.6044 48.9088C34.7424 48.9088 35.8228 48.5394 36.7033 47.8587L29.3959 40.6803C27.8498 42.6151 27.9839 45.4313 29.7972 47.2126Z" fill="#81C728"/>
                    <path d="M73.8969 13.4995C77.8061 21.2547 76.4841 30.9288 69.9195 37.3775L69.8636 37.4326C69.4998 37.7908 69.0224 37.9701 68.5451 37.9701C68.0689 37.9701 67.5931 37.792 67.2295 37.4355C66.5013 36.7216 66.4998 35.5632 67.2265 34.8479L67.2839 34.7915C74.0623 28.1328 74.0623 17.2986 67.2839 10.6398C64.1852 7.5957 60.0691 5.82513 55.6939 5.65386C51.3442 5.48356 47.121 6.90206 43.8053 9.64782C43.0187 10.2992 41.8437 10.2012 41.1806 9.42799C40.5174 8.65531 40.6175 7.50103 41.4041 6.84961C45.4329 3.51366 50.5631 1.79042 55.8421 1.99707C58.8436 2.11443 61.7441 2.85223 64.3785 4.13752L66.621 1.93461C69.2469 -0.644993 73.5196 -0.644749 76.1456 1.93461C77.4177 3.18428 78.1181 4.84579 78.1181 6.61294C78.1181 8.3801 77.4177 10.0416 76.1456 11.291L73.8969 13.4995ZM73.5109 4.52227C72.3376 3.36971 70.4282 3.36971 69.2549 4.52227L67.638 6.11059C68.4385 6.70005 69.201 7.34733 69.918 8.0517C70.6405 8.76144 71.296 9.51241 71.8918 10.2934L73.5109 8.70264C74.0794 8.14441 74.3923 7.40198 74.3923 6.61246C74.3923 5.82294 74.0794 5.08075 73.5109 4.52227Z" fill="#81C728"/>
                    <path d="M49.1015 35.1897L50.1975 36.2664C50.925 36.981 50.925 38.1397 50.1975 38.8541C49.8337 39.2113 49.3568 39.3901 48.8802 39.3901C48.4036 39.3901 47.9267 39.2115 47.5628 38.8541L46.4668 37.7774C45.7393 37.0628 45.7393 35.9041 46.4668 35.1897C47.1945 34.4751 48.3738 34.4751 49.1015 35.1897Z" fill="#81C728"/>
                    <path d="M89.338 38.7826C88.852 38.7826 88.3662 38.5967 88.0011 38.2268C87.2848 37.5015 87.3024 36.3431 88.0411 35.6394C90.1566 33.6232 91.3215 30.9262 91.3215 28.0455C91.3215 25.1649 90.1564 22.4676 88.0408 20.4514C87.3024 19.7477 87.2848 18.5893 88.0011 17.864C88.7174 17.1384 89.8966 17.1213 90.635 17.8249C93.48 20.5363 95.047 24.166 95.047 28.0455C95.047 31.9251 93.48 35.5548 90.635 38.2661C90.2731 38.6109 89.8054 38.7826 89.338 38.7826Z" fill="#81C728"/>
                    <path d="M85.0612 33.364C84.7127 33.6497 84.2892 33.7893 83.868 33.7893C83.335 33.7893 82.8057 33.5656 82.4372 33.1325C81.7778 32.3566 81.8833 31.2029 82.6729 30.5551C83.4339 29.9307 83.8702 29.0161 83.8702 28.0455C83.8702 27.0749 83.4339 26.16 82.6729 25.5357C81.8833 24.8879 81.7778 23.7339 82.4372 22.9583C83.0968 22.1824 84.2716 22.079 85.0609 22.7267C86.6718 24.0484 87.5957 25.987 87.5957 28.0453C87.596 30.104 86.6721 32.0424 85.0612 33.364Z" fill="#81C728"/>
                    <path d="M4.41222 17.8244C5.15111 17.1205 6.33035 17.1383 7.04614 17.8634C7.76268 18.5888 7.7448 19.7472 7.00641 20.4508C4.89082 22.4673 3.72574 25.1643 3.72574 28.045C3.72574 30.9259 4.89082 33.6226 7.00641 35.6389C7.7448 36.3425 7.76268 37.5009 7.04614 38.2263C6.68079 38.5962 6.19524 38.7818 5.70894 38.7818C5.24176 38.7818 4.77385 38.6101 4.41198 38.2653C1.56694 35.5537 0 31.924 0 28.0447C0 24.1654 1.56694 20.5362 4.41222 17.8244Z" fill="#81C728"/>
                    <path d="M9.98605 22.7266C10.7754 22.0791 11.9501 22.1823 12.6095 22.9582C13.2689 23.7338 13.1636 24.8878 12.3741 25.5356C11.6133 26.1599 11.1767 27.0748 11.1767 28.0454C11.1767 29.016 11.6133 29.9306 12.3741 30.5547C13.1639 31.2025 13.2694 32.3565 12.61 33.1322C12.2417 33.5657 11.7124 33.7892 11.1792 33.7892C10.7582 33.7892 10.3348 33.6499 9.9863 33.3639C8.37514 32.0423 7.45097 30.1039 7.45097 28.0452C7.45122 25.9869 8.37514 24.0483 9.98605 22.7266Z" fill="#81C728"/>
                </g>

        </g>
    </symbol>

    <symbol id="alert" viewBox="0 0 40 40">
        <g>
                <circle cx="20" cy="20" r="20" fill="#81C728" fill-opacity="0.2"/>
                <path fill-rule="evenodd" clip-rule="evenodd" d="M26 23.75V18.75C26 15.68 24.37 13.11 21.5 12.43V11.75C21.5 10.92 20.83 10.25 20 10.25C19.17 10.25 18.5 10.92 18.5 11.75V12.43C15.64 13.11 14 15.67 14 18.75V23.75L12 25.75V26.75H28V25.75L26 23.75ZM20 29.75C21.1 29.75 22 28.85 22 27.75H18C18 28.85 18.9 29.75 20 29.75ZM16 24.75H24V18.75C24 16.27 22.49 14.25 20 14.25C17.51 14.25 16 16.27 16 18.75V24.75Z" fill="#81C728"/>

        </g>
    </symbol>

    <symbol id="user-form" viewBox="0 0 40 40">
        <g>
                <circle cx="20" cy="20" r="20" fill="#81C728" fill-opacity="0.2"/>
                <path fill-rule="evenodd" clip-rule="evenodd" d="M20 12C17.79 12 16 13.79 16 16C16 18.21 17.79 20 20 20C22.21 20 24 18.21 24 16C24 13.79 22.21 12 20 12ZM22.1 16C22.1 14.84 21.16 13.9 20 13.9C18.84 13.9 17.9 14.84 17.9 16C17.9 17.16 18.84 18.1 20 18.1C21.16 18.1 22.1 17.16 22.1 16ZM26.1 25C26.1 24.36 22.97 22.9 20 22.9C17.03 22.9 13.9 24.36 13.9 25V26.1H26.1V25ZM12 25C12 22.34 17.33 21 20 21C22.67 21 28 22.34 28 25V28H12V25Z" fill="#81C728"/>

        </g>
    </symbol>

    <symbol id="apple2" viewBox="0 0 32 32">
        <g>
            <path d="M21.9974 0C20.2914 0.117999 18.2974 1.20999 17.1354 2.63198C16.0754 3.92198 15.2034 5.83797 15.5434 7.69996C17.4074 7.75796 19.3334 6.63996 20.4494 5.19397C21.4934 3.84798 22.2834 1.94399 21.9974 0Z"
                  fill="white"/>
            <path d="M28.7411 10.7356C27.1031 8.68159 24.8011 7.48959 22.6271 7.48959C19.7571 7.48959 18.5431 8.86359 16.5492 8.86359C14.4932 8.86359 12.9312 7.49359 10.4492 7.49359C8.0112 7.49359 5.41522 8.98358 3.76923 11.5316C1.45524 15.1195 1.85124 21.8655 5.60122 27.6115C6.94321 29.6675 8.7352 31.9795 11.0792 31.9995C13.1652 32.0195 13.7532 30.6615 16.5792 30.6475C19.4051 30.6315 19.9411 32.0175 22.0231 31.9955C24.3691 31.9775 26.2591 29.4155 27.6011 27.3595C28.5631 25.8855 28.9211 25.1435 29.6671 23.4795C24.2411 21.4135 23.3711 13.6976 28.7411 10.7356Z"
                  fill="white"/>

        </g>
    </symbol>

    <symbol id="windows2" viewBox="0 0 32 32">
        <g>
            <path d="M14 15V3.25L0 5V15H14Z" fill="white"/>
            <path d="M16 15H32V1L16 3V15Z" fill="white"/>
            <path d="M16 17V29L32 31V17H16Z" fill="white"/>
            <path d="M14 17H0V27L14 28.75V17Z" fill="white"/>
        </g>
    </symbol>
</svg>
