<svg xmlns="http://www.w3.org/2000/svg" display="none">

    <symbol id="fb" viewBox="0 0 18 18">
        <g>
            <path d="M16.5 0H1.5C0.67125 0 0 0.67125 0 1.5V16.5C0 17.3288 0.67125 18 1.5 18H9.75V11.25H7.5V8.25H9.75V6.30975C9.75 3.98475 11.1698 2.71875 13.2443 2.71875C14.238 2.71875 15.0915 2.793 15.3405 2.826V5.256L13.902 5.25675C12.774 5.25675 12.5557 5.793 12.5557 6.579V8.25H15.8857L15.1357 11.25H12.5557V18H16.5C17.3288 18 18 17.3288 18 16.5V1.5C18 0.67125 17.3288 0 16.5 0Z"
                  fill="#988FF2"/>
        </g>
    </symbol>

    <symbol id="fb2" viewBox="0 0 18 18">
        <g>
            <path d="M16.5 0H1.5C0.67125 0 0 0.67125 0 1.5V16.5C0 17.3288 0.67125 18 1.5 18H9.75V11.25H7.5V8.25H9.75V6.30975C9.75 3.98475 11.1698 2.71875 13.2443 2.71875C14.238 2.71875 15.0915 2.793 15.3405 2.826V5.256L13.902 5.25675C12.774 5.25675 12.5557 5.793 12.5557 6.579V8.25H15.8857L15.1357 11.25H12.5557V18H16.5C17.3288 18 18 17.3288 18 16.5V1.5C18 0.67125 17.3288 0 16.5 0Z"
                  fill="#fff"/>
        </g>
    </symbol>

    <symbol id="twitter" viewBox="0 0 18 18">
        <g>
            <path d="M18 3.44961C17.325 3.74961 16.65 3.97461 15.9 4.04961C16.65 3.59961 17.25 2.84961 17.55 2.02461C16.8 2.47461 16.05 2.77461 15.225 2.92461C14.55 2.17461 13.575 1.72461 12.525 1.72461C10.5 1.72461 8.85 3.37461 8.85 5.39961C8.85 5.69961 8.85 5.99961 8.925 6.22461C5.775 6.07461 3.075 4.57461 1.275 2.32461C0.9 2.92461 0.75 3.52461 0.75 4.19961C0.75 5.47461 1.425 6.59961 2.4 7.27461C1.8 7.27461 1.2 7.12461 0.75 6.82461C0.75 6.82461 0.75 6.82461 0.75 6.89961C0.75 8.69961 2.025 10.1996 3.675 10.4996C3.375 10.5746 3.075 10.6496 2.7 10.6496C2.475 10.6496 2.25 10.6496 2.025 10.5746C2.475 12.0746 3.825 13.1246 5.475 13.1246C4.2 14.0996 2.625 14.6996 0.9 14.6996C0.6 14.6996 0.3 14.6996 0 14.6246C1.65 15.6746 3.6 16.2746 5.625 16.2746C12.45 16.2746 16.125 10.6496 16.125 5.77461C16.125 5.62461 16.125 5.47461 16.125 5.32461C16.875 4.79961 17.475 4.12461 18 3.44961Z"
                  fill="#988FF2"/>
        </g>
    </symbol>

    <symbol id="youtube" viewBox="0 0 18 18">
        <g>
            <path d="M17.85 5.39922C17.85 5.39922 17.7 4.12422 17.1 3.59922C16.425 2.84922 15.675 2.84922 15.3 2.84922C12.75 2.69922 9 2.69922 9 2.69922C9 2.69922 5.25 2.69922 2.7 2.84922C2.325 2.92422 1.575 2.92422 0.9 3.59922C0.375 4.12422 0.15 5.39922 0.15 5.39922C0.15 5.39922 0 6.82422 0 8.32422V9.67422C0 11.0992 0.15 12.5992 0.15 12.5992C0.15 12.5992 0.3 13.8742 0.9 14.3992C1.575 15.1492 2.475 15.0742 2.85 15.1492C4.275 15.2992 9 15.2992 9 15.2992C9 15.2992 12.75 15.2992 15.3 15.0742C15.675 14.9992 16.425 14.9992 17.1 14.3242C17.625 13.7992 17.85 12.5242 17.85 12.5242C17.85 12.5242 18 11.0992 18 9.59922V8.24922C18 6.82422 17.85 5.39922 17.85 5.39922ZM7.125 11.3242V6.29922L12 8.84922L7.125 11.3242Z"
                  fill="#988FF2"/>
        </g>
    </symbol>

    <symbol id="user" viewBox="0 0 40 40">
        <g>
            <circle cx="20" cy="20" r="20" fill="#81C728" fill-opacity="0.2"/>
            <path fill-rule="evenodd" clip-rule="evenodd"
                  d="M23 20C25.21 20 27 18.21 27 16C27 13.79 25.21 12 23 12C20.79 12 19 13.79 19 16C19 18.21 20.79 20 23 20ZM23 14C24.1 14 25 14.9 25 16C25 17.1 24.1 18 23 18C21.9 18 21 17.1 21 16C21 14.9 21.9 14 23 14ZM15 26C15 23.34 20.33 22 23 22C25.67 22 31 23.34 31 26V28H15V26ZM17 26C17.22 25.28 20.31 24 23 24C25.7 24 28.8 25.29 29 26H17ZM14 20V23H12V20H9V18H12V15H14V18H17V20H14Z"
                  fill="#81C728"/>

        </g>
    </symbol>

    <symbol id="google" viewBox="0 0 24 25">
        <g>
            <path d="M22.7872 10.4547H12.0487V15.0567H18.135C17.16 18.125 14.76 19.148 12 19.148C10.9307 19.1494 9.87678 18.8929 8.92776 18.4001C7.97874 17.9074 7.16259 17.193 6.54855 16.3175C5.93451 15.4421 5.54071 14.4314 5.40056 13.3713C5.2604 12.3113 5.37803 11.233 5.74347 10.2281C6.10891 9.22313 6.71136 8.32117 7.49972 7.59873C8.28808 6.87628 9.23908 6.35467 10.272 6.07814C11.305 5.80161 12.3894 5.77834 13.4332 6.01028C14.4771 6.24223 15.4496 6.72255 16.2682 7.4105L19.6125 4.22525C18.2658 2.98481 16.6366 2.09182 14.8665 1.62378C13.0964 1.15574 11.2389 1.12681 9.45505 1.53949C7.67123 1.95217 6.0151 2.79399 4.63041 3.99188C3.24571 5.18976 2.17432 6.70751 1.50922 8.41337C0.844124 10.1192 0.605429 11.9616 0.813856 13.7807C1.02228 15.5997 1.67153 17.3404 2.70525 18.8516C3.73896 20.3628 5.12589 21.5988 6.74565 22.4525C8.36541 23.3061 10.169 23.7515 12 23.75C18.2032 23.75 23.8102 19.6587 22.7872 10.4547Z"
                  fill="white"/>

        </g>
    </symbol>

    <symbol id="login" viewBox="0 0 40 40">
        <g>
            <circle cx="20" cy="20" r="20" fill="#81C728" fill-opacity="0.2"/>
            <path fill-rule="evenodd" clip-rule="evenodd"
                  d="M24 27H30V23H32V17H21.32C20.17 14.58 17.72 13 15 13C11.14 13 8 16.14 8 20C8 23.86 11.14 27 15 27C17.72 27 20.18 25.42 21.32 23H24V27ZM28 25H26V21H19.94L19.71 21.67C19.01 23.66 17.11 25 15 25C12.24 25 10 22.76 10 20C10 17.24 12.24 15 15 15C17.11 15 19.01 16.34 19.71 18.33L19.94 19H30V21H28V25ZM15 23C13.35 23 12 21.65 12 20C12 18.35 13.35 17 15 17C16.65 17 18 18.35 18 20C18 21.65 16.65 23 15 23ZM14 20C14 19.45 14.45 19 15 19C15.55 19 16 19.45 16 20C16 20.55 15.55 21 15 21C14.45 21 14 20.55 14 20Z"
                  fill="#81C728"/>

        </g>
    </symbol>

    <symbol id="password" viewBox="0 0 40 40">
        <g>
            <circle cx="20" cy="20" r="20" fill="#81C728" fill-opacity="0.2"/>
            <path fill-rule="evenodd" clip-rule="evenodd"
                  d="M25 16.5H26C27.1 16.5 28 17.4 28 18.5V28.5C28 29.6 27.1 30.5 26 30.5H14C12.9 30.5 12 29.6 12 28.5V18.5C12 17.4 12.9 16.5 14 16.5H15V14.5C15 11.74 17.24 9.5 20 9.5C22.76 9.5 25 11.74 25 14.5V16.5ZM20 11.5C18.34 11.5 17 12.84 17 14.5V16.5H23V14.5C23 12.84 21.66 11.5 20 11.5ZM14 28.5V18.5H26V28.5H14ZM22 23.5C22 24.6 21.1 25.5 20 25.5C18.9 25.5 18 24.6 18 23.5C18 22.4 18.9 21.5 20 21.5C21.1 21.5 22 22.4 22 23.5Z"
                  fill="#81C728"/>

        </g>
    </symbol>

    <symbol id="view" viewBox="0 0 24 16">
        <g>
            <path d="M2 8C2 8 6 1 12 1C18 1 22 8 22 8C22 8 18 15 12 15C6 15 2 8 2 8Z" stroke="#22283C" stroke-width="2"
                  fill="none"
                  stroke-miterlimit="10" stroke-linecap="square"/>
            <path d="M12 11C13.6569 11 15 9.65685 15 8C15 6.34315 13.6569 5 12 5C10.3431 5 9 6.34315 9 8C9 9.65685 10.3431 11 12 11Z"
                  stroke="#22283C" stroke-width="2" fill="none" stroke-miterlimit="10" stroke-linecap="square"/>

        </g>
    </symbol>

    <symbol id="check" viewBox="0 0 80 80">
        <g>
            <path d="M29.3168 52.9171L15.4168 39.0171L10.6835 43.7171L29.3168 62.3504L69.3168 22.3504L64.6168 17.6504L29.3168 52.9171Z"
                  fill="#81C728"/>

        </g>
    </symbol>

    <symbol id="error" viewBox="0 0 80 80">
        <g>
                <path d="M63.3334 21.366L58.6334 16.666L40.0001 35.2994L21.3667 16.666L16.6667 21.366L35.3001 39.9994L16.6667 58.6327L21.3667 63.3327L40.0001 44.6994L58.6334 63.3327L63.3334 58.6327L44.7001 39.9994L63.3334 21.366Z" fill="#FC8B8C"/>


        </g>
    </symbol>
</svg>
