<svg xmlns="http://www.w3.org/2000/svg" display="none">

    <symbol id="fb" viewBox="0 0 18 18">
        <g>
            <path d="M16.5 0H1.5C0.67125 0 0 0.67125 0 1.5V16.5C0 17.3288 0.67125 18 1.5 18H9.75V11.25H7.5V8.25H9.75V6.30975C9.75 3.98475 11.1698 2.71875 13.2443 2.71875C14.238 2.71875 15.0915 2.793 15.3405 2.826V5.256L13.902 5.25675C12.774 5.25675 12.5557 5.793 12.5557 6.579V8.25H15.8857L15.1357 11.25H12.5557V18H16.5C17.3288 18 18 17.3288 18 16.5V1.5C18 0.67125 17.3288 0 16.5 0Z"
                  fill="#988FF2"/>
        </g>
    </symbol>

    <symbol id="fb2" viewBox="0 0 18 18">
        <g>
            <path d="M16.5 0H1.5C0.67125 0 0 0.67125 0 1.5V16.5C0 17.3288 0.67125 18 1.5 18H9.75V11.25H7.5V8.25H9.75V6.30975C9.75 3.98475 11.1698 2.71875 13.2443 2.71875C14.238 2.71875 15.0915 2.793 15.3405 2.826V5.256L13.902 5.25675C12.774 5.25675 12.5557 5.793 12.5557 6.579V8.25H15.8857L15.1357 11.25H12.5557V18H16.5C17.3288 18 18 17.3288 18 16.5V1.5C18 0.67125 17.3288 0 16.5 0Z"
                  fill="#fff"/>
        </g>
    </symbol>

    <symbol id="twitter" viewBox="0 0 18 18">
        <g>
            <path d="M18 3.44961C17.325 3.74961 16.65 3.97461 15.9 4.04961C16.65 3.59961 17.25 2.84961 17.55 2.02461C16.8 2.47461 16.05 2.77461 15.225 2.92461C14.55 2.17461 13.575 1.72461 12.525 1.72461C10.5 1.72461 8.85 3.37461 8.85 5.39961C8.85 5.69961 8.85 5.99961 8.925 6.22461C5.775 6.07461 3.075 4.57461 1.275 2.32461C0.9 2.92461 0.75 3.52461 0.75 4.19961C0.75 5.47461 1.425 6.59961 2.4 7.27461C1.8 7.27461 1.2 7.12461 0.75 6.82461C0.75 6.82461 0.75 6.82461 0.75 6.89961C0.75 8.69961 2.025 10.1996 3.675 10.4996C3.375 10.5746 3.075 10.6496 2.7 10.6496C2.475 10.6496 2.25 10.6496 2.025 10.5746C2.475 12.0746 3.825 13.1246 5.475 13.1246C4.2 14.0996 2.625 14.6996 0.9 14.6996C0.6 14.6996 0.3 14.6996 0 14.6246C1.65 15.6746 3.6 16.2746 5.625 16.2746C12.45 16.2746 16.125 10.6496 16.125 5.77461C16.125 5.62461 16.125 5.47461 16.125 5.32461C16.875 4.79961 17.475 4.12461 18 3.44961Z"
                  fill="#988FF2"/>
        </g>
    </symbol>

    <symbol id="youtube" viewBox="0 0 18 18">
        <g>
            <path d="M17.85 5.39922C17.85 5.39922 17.7 4.12422 17.1 3.59922C16.425 2.84922 15.675 2.84922 15.3 2.84922C12.75 2.69922 9 2.69922 9 2.69922C9 2.69922 5.25 2.69922 2.7 2.84922C2.325 2.92422 1.575 2.92422 0.9 3.59922C0.375 4.12422 0.15 5.39922 0.15 5.39922C0.15 5.39922 0 6.82422 0 8.32422V9.67422C0 11.0992 0.15 12.5992 0.15 12.5992C0.15 12.5992 0.3 13.8742 0.9 14.3992C1.575 15.1492 2.475 15.0742 2.85 15.1492C4.275 15.2992 9 15.2992 9 15.2992C9 15.2992 12.75 15.2992 15.3 15.0742C15.675 14.9992 16.425 14.9992 17.1 14.3242C17.625 13.7992 17.85 12.5242 17.85 12.5242C17.85 12.5242 18 11.0992 18 9.59922V8.24922C18 6.82422 17.85 5.39922 17.85 5.39922ZM7.125 11.3242V6.29922L12 8.84922L7.125 11.3242Z"
                  fill="#988FF2"/>
        </g>
    </symbol>

    <symbol id="user" viewBox="0 0 40 40">
        <g>
            <circle cx="20" cy="20" r="20" fill="#81C728" fill-opacity="0.2"/>
            <path fill-rule="evenodd" clip-rule="evenodd"
                  d="M23 20C25.21 20 27 18.21 27 16C27 13.79 25.21 12 23 12C20.79 12 19 13.79 19 16C19 18.21 20.79 20 23 20ZM23 14C24.1 14 25 14.9 25 16C25 17.1 24.1 18 23 18C21.9 18 21 17.1 21 16C21 14.9 21.9 14 23 14ZM15 26C15 23.34 20.33 22 23 22C25.67 22 31 23.34 31 26V28H15V26ZM17 26C17.22 25.28 20.31 24 23 24C25.7 24 28.8 25.29 29 26H17ZM14 20V23H12V20H9V18H12V15H14V18H17V20H14Z"
                  fill="#81C728"/>

        </g>
    </symbol>

    <symbol id="google" viewBox="0 0 24 25">
        <g>
            <path d="M22.7872 10.4547H12.0487V15.0567H18.135C17.16 18.125 14.76 19.148 12 19.148C10.9307 19.1494 9.87678 18.8929 8.92776 18.4001C7.97874 17.9074 7.16259 17.193 6.54855 16.3175C5.93451 15.4421 5.54071 14.4314 5.40056 13.3713C5.2604 12.3113 5.37803 11.233 5.74347 10.2281C6.10891 9.22313 6.71136 8.32117 7.49972 7.59873C8.28808 6.87628 9.23908 6.35467 10.272 6.07814C11.305 5.80161 12.3894 5.77834 13.4332 6.01028C14.4771 6.24223 15.4496 6.72255 16.2682 7.4105L19.6125 4.22525C18.2658 2.98481 16.6366 2.09182 14.8665 1.62378C13.0964 1.15574 11.2389 1.12681 9.45505 1.53949C7.67123 1.95217 6.0151 2.79399 4.63041 3.99188C3.24571 5.18976 2.17432 6.70751 1.50922 8.41337C0.844124 10.1192 0.605429 11.9616 0.813856 13.7807C1.02228 15.5997 1.67153 17.3404 2.70525 18.8516C3.73896 20.3628 5.12589 21.5988 6.74565 22.4525C8.36541 23.3061 10.169 23.7515 12 23.75C18.2032 23.75 23.8102 19.6587 22.7872 10.4547Z"
                  fill="white"/>

        </g>
    </symbol>

    <symbol id="login" viewBox="0 0 40 40">
        <g>
            <circle cx="20" cy="20" r="20" fill="#81C728" fill-opacity="0.2"/>
            <path fill-rule="evenodd" clip-rule="evenodd"
                  d="M24 27H30V23H32V17H21.32C20.17 14.58 17.72 13 15 13C11.14 13 8 16.14 8 20C8 23.86 11.14 27 15 27C17.72 27 20.18 25.42 21.32 23H24V27ZM28 25H26V21H19.94L19.71 21.67C19.01 23.66 17.11 25 15 25C12.24 25 10 22.76 10 20C10 17.24 12.24 15 15 15C17.11 15 19.01 16.34 19.71 18.33L19.94 19H30V21H28V25ZM15 23C13.35 23 12 21.65 12 20C12 18.35 13.35 17 15 17C16.65 17 18 18.35 18 20C18 21.65 16.65 23 15 23ZM14 20C14 19.45 14.45 19 15 19C15.55 19 16 19.45 16 20C16 20.55 15.55 21 15 21C14.45 21 14 20.55 14 20Z"
                  fill="#81C728"/>

        </g>
    </symbol>

    <symbol id="password" viewBox="0 0 40 40">
        <g>
            <circle cx="20" cy="20" r="20" fill="#81C728" fill-opacity="0.2"/>
            <path fill-rule="evenodd" clip-rule="evenodd"
                  d="M25 16.5H26C27.1 16.5 28 17.4 28 18.5V28.5C28 29.6 27.1 30.5 26 30.5H14C12.9 30.5 12 29.6 12 28.5V18.5C12 17.4 12.9 16.5 14 16.5H15V14.5C15 11.74 17.24 9.5 20 9.5C22.76 9.5 25 11.74 25 14.5V16.5ZM20 11.5C18.34 11.5 17 12.84 17 14.5V16.5H23V14.5C23 12.84 21.66 11.5 20 11.5ZM14 28.5V18.5H26V28.5H14ZM22 23.5C22 24.6 21.1 25.5 20 25.5C18.9 25.5 18 24.6 18 23.5C18 22.4 18.9 21.5 20 21.5C21.1 21.5 22 22.4 22 23.5Z"
                  fill="#81C728"/>

        </g>
    </symbol>

    <symbol id="view" viewBox="0 0 24 16">
        <g>
            <path d="M2 8C2 8 6 1 12 1C18 1 22 8 22 8C22 8 18 15 12 15C6 15 2 8 2 8Z" stroke="#22283C" stroke-width="2"
                  fill="none"
                  stroke-miterlimit="10" stroke-linecap="square"/>
            <path d="M12 11C13.6569 11 15 9.65685 15 8C15 6.34315 13.6569 5 12 5C10.3431 5 9 6.34315 9 8C9 9.65685 10.3431 11 12 11Z"
                  stroke="#22283C" stroke-width="2" fill="none" stroke-miterlimit="10" stroke-linecap="square"/>

        </g>
    </symbol>

    <symbol id="check" viewBox="0 0 80 80">
        <g>
            <path d="M29.3168 52.9171L15.4168 39.0171L10.6835 43.7171L29.3168 62.3504L69.3168 22.3504L64.6168 17.6504L29.3168 52.9171Z"
                  fill="#81C728"/>

        </g>
    </symbol>

    <symbol id="error" viewBox="0 0 80 80">
        <g>
            <path d="M63.3334 21.366L58.6334 16.666L40.0001 35.2994L21.3667 16.666L16.6667 21.366L35.3001 39.9994L16.6667 58.6327L21.3667 63.3327L40.0001 44.6994L58.6334 63.3327L63.3334 58.6327L44.7001 39.9994L63.3334 21.366Z"
                  fill="#FC8B8C"/>


        </g>
    </symbol>

    <symbol id="user2" viewBox="0 0 22 24">
        <g>
            <path d="M13 19H16" stroke="white" stroke-width="2" stroke-miterlimit="10" stroke-linecap="square"/>
            <path d="M7.796 13.9062L1.971 17.4163C1.369 17.7783 1 18.4293 1 19.1313V22.9993H21V19.1313C21 18.4283 20.631 17.7773 20.029 17.4163L14.204 13.9062"
                  stroke="white" stroke-width="2" stroke-miterlimit="10"/>
            <path d="M5.00391 6.796C5.63391 6.982 6.29591 7.106 6.98591 7.106C8.94591 7.106 10.7149 6.298 11.9859 5C13.2569 6.298 15.0399 7.106 16.9999 7.106"
                  stroke="white" stroke-width="2" stroke-miterlimit="10"/>
            <path d="M5 7C5 3.686 7.686 1 11 1C14.314 1 17 3.686 17 7C17 12 14.314 15 11 15C7.686 15 5 12 5 7Z"
                  stroke="white" stroke-width="2" stroke-miterlimit="10" stroke-linecap="square"/>

        </g>
    </symbol>

    <symbol id="check-red" viewBox="0 0 14 12">
        <g>
            <path d="M2 7L5 10L12 2" stroke="#FC8B8C" stroke-width="2" stroke-miterlimit="10" stroke-linecap="square"/>
        </g>
    </symbol>

    <symbol id="credit-cards" viewBox="0 0 82 82">
        <g>
            <path d="M76.875 20.498H5.125C2.30113 20.498 0 22.7992 0 25.623V71.748C0 74.577 2.30113 76.873 5.125 76.873H76.875C79.704 76.873 82 74.577 82 71.748V25.623C82 22.7992 79.704 20.498 76.875 20.498Z"
                  fill="#2196F3"/>
            <path d="M82 30.748H0V46.123H82V30.748Z" fill="#455A64"/>
            <path d="M23.0625 61.4981H12.8125C11.398 61.4981 10.25 60.3501 10.25 58.9356C10.25 57.521 11.398 56.373 12.8125 56.373H23.0625C24.477 56.373 25.625 57.521 25.625 58.9356C25.625 60.3501 24.477 61.4981 23.0625 61.4981Z"
                  fill="#FAFAFA"/>
            <path d="M82 45.8463V25.623C82 22.7992 79.704 20.498 76.875 20.498H35.875V25.623C35.875 41.6746 41.984 51.4479 57.687 60.4884C58.8452 61.1496 60.1675 61.4981 61.5 61.4981C62.8325 61.4981 64.1547 61.1496 65.3284 60.4782C73.0979 56.0143 78.5099 51.3557 82 45.8463Z"
                  fill="#4E5363"/>
            <path d="M80.4471 13.022L62.5096 5.33452C61.8587 5.05777 61.1361 5.05777 60.4853 5.33452L42.5478 13.022C41.6099 13.4218 41 14.3494 41 15.3744V25.6244C41 39.7233 46.2121 47.9643 60.2239 56.0361C60.6185 56.2616 61.0592 56.3744 61.5 56.3744C61.9408 56.3744 62.3815 56.2616 62.7761 56.0361C76.7879 47.9848 82 39.7438 82 25.6244V15.3744C82 14.3494 81.3901 13.4218 80.4471 13.022Z"
                  fill="#009688"/>
            <path d="M58.939 38.4359C58.9031 38.4359 58.8621 38.4359 58.8314 38.4359C58.0165 38.4001 57.2631 37.9798 56.807 37.2982L51.682 29.6107C50.8979 28.4319 51.2156 26.8432 52.3944 26.0591C53.5629 25.2801 55.1567 25.5876 55.946 26.7714L59.1286 31.5428L67.1851 21.4671C68.0718 20.3652 69.6861 20.1909 70.788 21.0673C71.895 21.9539 72.0693 23.5632 71.1878 24.6702L60.9377 37.4827C60.4509 38.0823 59.7129 38.4359 58.939 38.4359Z"
                  fill="#FAFAFA"/>

        </g>
    </symbol>

    <symbol id="btc" viewBox="0 0 82 82">
        <g>
            <path d="M80.7694 50.9228C75.2967 72.8849 53.046 86.2517 31.0774 80.7708C9.10882 75.2899 -4.25185 53.0503 1.22944 31.0862C6.71073 9.12207 28.9503 -4.2509 50.914 1.2308C72.8777 6.7125 86.2507 28.9534 80.7694 50.9228Z"
                  fill="#F7931A"/>
            <path d="M59.081 35.1583C59.8961 29.7024 55.742 26.7692 50.061 24.8127L51.906 17.4225L47.4059 16.3015L45.6084 23.4974C44.4268 23.2031 43.2124 22.9234 42.0053 22.6496L43.8093 15.4061L39.3137 14.2852L37.474 21.6725L28.3999 19.4249L27.2027 24.2305C27.2027 24.2305 30.5409 24.9956 30.4704 25.0431C32.2925 25.4982 32.6229 26.7036 32.5672 27.6598L27.5184 47.9056C27.2954 48.4591 26.7304 49.2889 25.457 48.9716C25.5021 49.0372 22.1868 48.1516 22.1868 48.1516L19.9531 53.309L29.0141 55.5968L27.1519 63.0731L31.6455 64.1941L33.4905 56.7981C34.7205 57.131 35.9095 57.4385 37.0747 57.7279L35.2371 65.0895L39.7364 66.2104L41.5986 58.7484C49.2709 60.1998 55.0405 59.6144 57.4656 52.6804C59.4221 47.0942 57.3697 43.8716 53.3328 41.7691C56.2725 41.0885 58.4865 39.1558 59.0773 35.1611L59.081 35.1583ZM48.7982 49.5735C47.4042 55.1597 38.0009 52.1409 34.9497 51.3824L37.4203 41.4788C40.4699 42.2398 50.2488 43.7469 48.7999 49.5726L48.7982 49.5735ZM50.1939 35.0791C48.9253 40.1631 41.0956 37.5801 38.5544 36.9463L40.7913 27.9615C43.3333 28.5962 51.5132 29.7778 50.1906 35.0787"
                  fill="white"/>

        </g>
    </symbol>

    <symbol id="payeer" viewBox="0 0 188 27">
        <g>
            <g clip-path="url(#clip0)">
                <path d="M9.30664 27.456V-0.189453H18.3676C21.8194 -0.189453 24.0384 -0.0671255 25.0863 0.238686C26.6889 0.666823 28.045 1.58426 29.0929 2.92983C30.1407 4.33656 30.6955 6.11028 30.6955 8.31212C30.6955 10.0247 30.3873 11.4314 29.7709 12.5935C29.1545 13.7556 28.3532 14.673 27.4286 15.3458C26.4424 16.0186 25.5178 16.4467 24.5316 16.6302C23.1755 16.8749 21.2647 16.9972 18.6758 16.9972H14.9775V27.456H9.30664ZM14.9775 4.45889V12.2877H18.0594C20.2784 12.2877 21.7578 12.1654 22.4975 11.8595C23.2371 11.5537 23.8535 11.1256 24.285 10.514C24.7165 9.90235 24.9014 9.1684 24.9014 8.37329C24.9014 7.39469 24.5932 6.53841 23.9768 5.86563C23.3604 5.19284 22.6207 4.82586 21.6961 4.64238C21.0181 4.52005 19.662 4.45889 17.628 4.45889H14.9775Z"
                      fill="black"/>
                <path d="M57.5702 27.456H51.4679L49.0023 21.1562H37.8456L35.565 27.456H29.5859L40.4345 -0.189453H46.4135L57.5702 27.456ZM47.2148 16.5079L43.3932 6.2326L39.6332 16.5079H47.2148Z"
                      fill="black"/>
                <path d="M64.3513 27.456V15.8351L54.1191 -0.189453H60.7145L67.2483 10.7586L73.6588 -0.189453H80.1309L69.8988 15.8963V27.5171H64.3513V27.456Z"
                      fill="black"/>
                <path d="M82.9648 27.456V-0.189453H103.614V4.52005H88.574V10.6363H102.566V15.2846H88.574V22.8076H104.169V27.456H82.9648Z"
                      fill="#64B3DF"/>
                <path d="M108.916 27.456V-0.189453H129.565V4.52005H114.525V10.6363H128.517V15.2846H114.525V22.8076H130.12V27.456H108.916Z"
                      fill="#64B3DF"/>
                <path d="M134.926 27.456V-0.189453H146.761C149.719 -0.189453 151.877 0.0551993 153.233 0.544499C154.589 1.0338 155.637 1.95124 156.5 3.17448C157.301 4.45889 157.732 5.92679 157.732 7.51701C157.732 9.59653 157.116 11.3091 155.883 12.6547C154.65 14.0002 152.801 14.8565 150.397 15.2235C151.63 15.9574 152.616 16.6914 153.418 17.5476C154.219 18.4039 155.267 19.8718 156.623 22.0125L160.013 27.3948H153.294L149.226 21.4009C147.808 19.2602 146.822 17.9146 146.267 17.3642C145.713 16.8137 145.158 16.4467 144.603 16.2021C144.048 15.9574 143.062 15.8963 141.768 15.8963H140.535V27.456H134.926ZM140.535 11.4926H144.726C147.439 11.4926 149.103 11.3702 149.781 11.1256C150.459 10.8809 150.952 10.514 151.383 9.9635C151.753 9.41304 151.938 8.74026 151.938 7.88399C151.938 6.96655 151.692 6.17144 151.199 5.62098C150.705 5.07052 149.966 4.70354 149.103 4.52005C148.671 4.45889 147.254 4.39773 144.973 4.39773H140.535V11.4926Z"
                      fill="#64B3DF"/>
                <path d="M175.918 19.6889C175.918 21.8296 175.178 23.6645 173.637 25.1324C172.096 26.6614 170.309 27.3954 168.151 27.3954C165.994 27.3954 164.206 26.6614 162.665 25.1324C161.186 23.6033 160.385 21.8296 160.385 19.6889C160.385 17.5482 161.124 15.7745 162.665 14.2454C164.145 12.7775 165.994 11.9824 168.151 11.9824C170.309 11.9824 172.158 12.7164 173.637 14.2454C175.178 15.7745 175.918 17.6094 175.918 19.6889ZM168.151 13.0833C166.302 13.0833 164.761 13.7561 163.467 15.0405C162.172 16.325 161.494 17.9152 161.494 19.7501C161.494 21.5849 162.111 23.1752 163.405 24.4596C164.7 25.744 166.302 26.4168 168.151 26.4168C170.001 26.4168 171.603 25.744 172.898 24.4596C174.192 23.1752 174.87 21.5849 174.87 19.7501C174.87 17.9152 174.254 16.3861 172.898 15.0405C171.541 13.7561 170.001 13.0833 168.151 13.0833ZM168.028 15.4687C169.076 15.4687 169.877 15.591 170.37 15.7745C171.233 16.1415 171.665 16.8754 171.665 17.9152C171.665 18.6491 171.357 19.1996 170.863 19.5666C170.555 19.7501 170.185 19.8724 169.631 19.9947C170.309 20.117 170.802 20.3617 171.11 20.851C171.418 21.2791 171.603 21.7073 171.603 22.1354V22.747C171.603 22.9305 171.603 23.1752 171.603 23.3586C171.603 23.6033 171.665 23.7256 171.665 23.7868L171.726 23.9091H170.309V23.8479C170.309 23.8479 170.309 23.7868 170.309 23.7256L170.247 23.481V22.8082C170.247 21.8296 170.001 21.218 169.446 20.851C169.138 20.6675 168.583 20.6063 167.781 20.6063H166.61V23.9091H165.131V15.4687H168.028ZM170.185 18.0375C170.185 17.4259 170.001 16.9977 169.631 16.8143C169.261 16.6308 168.644 16.5084 167.843 16.5084H166.549V19.5666H167.905C168.521 19.5666 169.014 19.5054 169.322 19.3831C169.877 19.1384 170.185 18.7103 170.185 18.0375Z"
                      fill="black"/>
            </g>
            <defs>
                <clipPath id="clip0">
                    <rect width="188" height="27" fill="white"/>
                </clipPath>
            </defs>
        </g>
    </symbol>

    <symbol id="adv" viewBox="0 0 98 82">
        <g>
            <path d="M84.9528 49.3574H58.5042L63.178 60.0317H76.9639L84.9528 49.3574ZM97.7152 29.3262H49.7363L54.4101 40.0004H89.7353L97.7152 29.3262Z"
                  fill="#009A61"/>
            <path d="M49.61 0L12.3555 81.6784H26.5399L49.5919 28.9976L72.68 81.7602H86.8735L49.61 0Z" fill="#00384F"/>
            <path d="M0 29.3262L7.79872 40.0004H54.4099L49.7361 29.3262H0ZM14.1844 49.3574L21.9922 60.0317H63.1777L58.504 49.3574H14.1844Z"
                  fill="#009A61"/>

        </g>
    </symbol>

    <symbol id="visa" viewBox="0 0 50 40">
        <g>
            <path d="M40.8094 17.8563C40.8094 17.8563 41.4688 21.0859 41.6172 21.7625H38.7188L40.1078 17.9859C40.0906 18.0125 40.3937 17.1953 40.5672 16.6922L40.8094 17.8563ZM50.0016 4.72188V35.2781C50.0011 36.3832 49.562 37.4429 48.7806 38.2243C47.9992 39.0057 46.9395 39.4449 45.8344 39.4453H4.16719C3.06211 39.4449 2.00241 39.0057 1.221 38.2243C0.439589 37.4429 0.00041412 36.3832 0 35.2781V4.72188C0.00041412 3.6168 0.439589 2.5571 1.221 1.77569C2.00241 0.994276 3.06211 0.555102 4.16719 0.554688H45.8344C46.9395 0.555102 47.9992 0.994276 48.7806 1.77569C49.562 2.5571 50.0011 3.6168 50.0016 4.72188ZM13.2391 26.5281L18.725 13.0562H15.0359L11.625 22.2578L11.2516 20.3922L10.0359 14.1938C9.83594 13.3344 9.22031 13.0906 8.45625 13.0562H2.84063L2.77969 13.325C4.06574 13.6405 5.29936 14.1405 6.44219 14.8094L9.55 26.5281H13.2391ZM21.4344 26.5453L23.6219 13.0562H20.1328L17.9547 26.5453H21.4344ZM33.5781 22.1359C33.5953 20.6 32.6578 19.4281 30.6531 18.4641C29.4297 17.8469 28.6828 17.4312 28.6828 16.7969C28.7 16.2234 29.3172 15.6328 30.6875 15.6328C31.58 15.6076 32.4669 15.7828 33.2828 16.1453L33.5953 16.2922L34.0734 13.375C33.0759 12.9931 32.0165 12.7987 30.9484 12.8016C27.5016 12.8016 25.0797 14.6422 25.0625 17.2625C25.0359 19.1984 26.7984 20.275 28.1187 20.925C29.4641 21.5844 29.925 22.0187 29.925 22.6C29.9078 23.5031 28.8312 23.9187 27.8328 23.9187C26.4438 23.9187 25.6969 23.7016 24.5594 23.1984L24.1 22.9813L23.6141 26.0109C24.4297 26.3844 25.9406 26.7141 27.5031 26.7313C31.1656 26.7391 33.5531 24.925 33.5797 22.1313L33.5781 22.1359ZM45.8344 26.5453L43.0219 13.0562H40.3219C39.4891 13.0562 38.8547 13.3 38.4984 14.1766L33.3156 26.5469H36.9781C36.9781 26.5469 37.5766 24.8797 37.7078 24.525H42.1875C42.2922 25.0031 42.6047 26.5469 42.6047 26.5469L45.8344 26.5453Z"
                  fill="#98A4C4"/>
        </g>
    </symbol>

    <symbol id="mastercard" viewBox="0 0 50 40">
        <g>
            <path d="M41.9203 33.3941C41.9203 33.9848 41.5219 34.4098 40.9484 34.4098C40.3578 34.4098 39.9766 33.9582 39.9766 33.3941C39.9766 32.8301 40.3578 32.3785 40.9484 32.3785C41.5219 32.3785 41.9203 32.8301 41.9203 33.3941ZM14.9406 32.3785C14.3234 32.3785 13.9688 32.8301 13.9688 33.3941C13.9688 33.9582 14.325 34.4098 14.9406 34.4098C15.5047 34.4098 15.8859 33.9848 15.8859 33.3941C15.8766 32.8301 15.5047 32.3785 14.9406 32.3785ZM25.1406 32.3535C24.6719 32.3535 24.3844 32.6566 24.3156 33.1082H25.9734C25.8953 32.6129 25.5922 32.3535 25.1406 32.3535ZM34.4984 32.3785C33.9078 32.3785 33.5531 32.8301 33.5531 33.3941C33.5531 33.9582 33.9094 34.4098 34.4984 34.4098C35.0891 34.4098 35.4703 33.9848 35.4703 33.3941C35.4703 32.8301 35.0875 32.3785 34.4984 32.3785ZM43.6906 34.6441C43.6906 34.6707 43.7172 34.6879 43.7172 34.7395C43.7172 34.766 43.6906 34.7832 43.6906 34.8348C43.6641 34.8613 43.6641 34.8785 43.6469 34.9035C43.6203 34.9301 43.6031 34.9473 43.5516 34.9473C43.525 34.9738 43.5078 34.9738 43.4562 34.9738C43.4297 34.9738 43.4125 34.9738 43.3609 34.9473C43.3344 34.9473 43.3172 34.9207 43.2922 34.9035C43.2656 34.877 43.2484 34.8598 43.2484 34.8348C43.2219 34.791 43.2219 34.766 43.2219 34.7395C43.2219 34.6957 43.2219 34.6707 43.2484 34.6441C43.2484 34.6004 43.275 34.5754 43.2922 34.5488C43.3187 34.5223 43.3359 34.5223 43.3609 34.5051C43.4047 34.4785 43.4297 34.4785 43.4562 34.4785C43.5 34.4785 43.525 34.4785 43.5516 34.5051C43.5953 34.5301 43.6203 34.5301 43.6469 34.5488C43.6734 34.5676 43.6641 34.6004 43.6906 34.6441ZM43.5 34.766C43.5438 34.766 43.5437 34.7395 43.5687 34.7395C43.5953 34.7129 43.5953 34.6957 43.5953 34.6707C43.5953 34.6457 43.5953 34.627 43.5687 34.602C43.5437 34.602 43.525 34.5754 43.4734 34.5754H43.3344V34.8785H43.4031V34.7566H43.4297L43.525 34.8785H43.5938L43.5 34.766ZM50.0016 4.80977V35.366C50.0011 36.4711 49.562 37.5308 48.7806 38.3122C47.9992 39.0936 46.9395 39.5328 45.8344 39.5332H4.16719C3.06211 39.5328 2.00241 39.0936 1.221 38.3122C0.439589 37.5308 0.00041412 36.4711 0 35.366V4.80977C0.00041412 3.70469 0.439589 2.64499 1.221 1.86358C2.00241 1.08217 3.06211 0.642992 4.16719 0.642578H45.8344C46.9395 0.642992 47.9992 1.08217 48.7806 1.86358C49.562 2.64499 50.0011 3.70469 50.0016 4.80977ZM5.55781 16.927C5.55781 23.5676 10.9484 28.9488 17.5797 28.9488C19.9413 28.9421 22.2495 28.2453 24.2203 26.9441C17.8922 21.7973 17.9359 12.0832 24.2203 6.93477C22.2514 5.6295 19.942 4.93233 17.5797 4.93008C10.9484 4.92227 5.55781 10.3113 5.55781 16.927ZM25.0016 26.3723C31.1219 21.5973 31.0953 12.2926 25.0016 7.49258C18.9078 12.2926 18.8812 21.6066 25.0016 26.3723ZM12.6484 32.9957C12.6484 32.241 12.1531 31.7457 11.3719 31.7191C10.9719 31.7191 10.5469 31.841 10.2609 32.2832C10.0531 31.927 9.69687 31.7191 9.20156 31.7191C9.02158 31.7164 8.84365 31.7576 8.68325 31.8393C8.52286 31.921 8.38485 32.0407 8.28125 32.1879V31.8066H7.57031V34.9926H8.28125C8.28125 33.352 8.06406 32.3707 9.0625 32.3707C9.94844 32.3707 9.775 33.2566 9.775 34.9926H10.4609C10.4609 33.4035 10.2437 32.3707 11.2422 32.3707C12.1281 32.3707 11.9531 33.2395 11.9531 34.9926H12.6656V32.9957H12.6484ZM16.5469 31.8066H15.8609V32.1879C15.7395 32.0364 15.5846 31.9153 15.4083 31.8339C15.2321 31.7526 15.0393 31.7133 14.8453 31.7191C13.9516 31.7191 13.2656 32.4316 13.2656 33.3941C13.2656 34.366 13.9516 35.0691 14.8453 35.0691C15.2969 35.0691 15.6266 34.9035 15.8609 34.6004V35.0004H16.5469V31.8066ZM20.0625 34.0285C20.0625 32.727 18.075 33.316 18.075 32.7082C18.075 32.2129 19.1078 32.2926 19.6813 32.6129L19.9672 32.0488C19.1516 31.5191 17.3453 31.5285 17.3453 32.7613C17.3453 34.002 19.3328 33.4816 19.3328 34.0629C19.3328 34.6098 18.1609 34.566 17.5359 34.1316L17.2328 34.6785C18.2047 35.3379 20.0625 35.1988 20.0625 34.027V34.0285ZM23.1359 34.8348L22.9453 34.2441C22.6156 34.4254 21.8859 34.6254 21.8859 33.8879V32.4473H23.0234V31.8051H21.8859V30.8332H21.1734V31.8051H20.5141V32.4395H21.1734V33.8895C21.1734 35.4176 22.675 35.1395 23.1359 34.8348ZM24.2891 33.6723H26.6766C26.6766 32.266 26.0344 31.7098 25.1656 31.7098C24.2453 31.7098 23.5859 32.3957 23.5859 33.3848C23.5859 35.1645 25.5484 35.4598 26.5203 34.6176L26.1906 34.0973C25.5141 34.6535 24.4891 34.6004 24.2891 33.6723ZM29.4203 31.8066C29.0219 31.6332 28.4141 31.6504 28.1016 32.1879V31.8066H27.3891V34.9926H28.1016V33.1957C28.1016 32.1879 28.9266 32.3191 29.2125 32.466L29.4203 31.8066ZM30.3406 33.3941C30.3406 32.4035 31.3484 32.0832 32.1375 32.6645L32.4672 32.1004C31.4594 31.3113 29.6281 31.7441 29.6281 33.402C29.6281 35.1207 31.5719 35.4676 32.4672 34.7035L32.1375 34.1395C31.3391 34.7035 30.3406 34.366 30.3406 33.3926V33.3941ZM36.1297 31.8066H35.4172V32.1879C34.6969 31.2332 32.8219 31.7723 32.8219 33.3941C32.8219 35.0613 34.7656 35.5379 35.4172 34.6004V35.0004H36.1297V31.8066ZM39.0547 31.8066C38.8469 31.702 38.1 31.5551 37.7359 32.1879V31.8066H37.05V34.9926H37.7359V33.1957C37.7359 32.241 38.5172 32.302 38.8469 32.466L39.0547 31.8066ZM42.5531 30.5129H41.8672V32.1879C41.1547 31.2426 39.2719 31.7457 39.2719 33.3941C39.2719 35.0785 41.225 35.5285 41.8672 34.6004V35.0004H42.5531V30.5129ZM43.2141 23.9941V24.3941H43.2828V23.9941H43.4469V23.9254H43.0469V23.9941H43.2141ZM43.7859 34.7395C43.7859 34.6957 43.7859 34.6441 43.7609 34.6004C43.7344 34.5738 43.7172 34.5316 43.6922 34.5051C43.6672 34.4785 43.6234 34.4613 43.5969 34.4363C43.5531 34.4363 43.5016 34.4098 43.4578 34.4098C43.4312 34.4098 43.3891 34.4363 43.3359 34.4363C43.3017 34.4556 43.2697 34.4786 43.2406 34.5051C43.1969 34.5301 43.1719 34.5738 43.1719 34.6004C43.1453 34.6441 43.1453 34.6957 43.1453 34.7395C43.1453 34.766 43.1453 34.8082 43.1719 34.8613C43.1719 34.8879 43.1984 34.9301 43.2406 34.9566C43.267 34.9862 43.2995 35.0097 43.3359 35.0254C43.3797 35.0504 43.4312 35.0504 43.4578 35.0504C43.5016 35.0504 43.5531 35.0504 43.5969 35.0254C43.6234 34.9988 43.6656 34.9816 43.6922 34.9566C43.7188 34.9316 43.7359 34.8879 43.7609 34.8613C43.7859 34.8098 43.7859 34.766 43.7859 34.7395ZM44.0641 23.916H43.9422L43.8031 24.2191L43.6641 23.916H43.5422V24.3848H43.6109V24.0285L43.75 24.3316H43.8453L43.9672 24.0285V24.3848H44.0625L44.0641 23.916ZM44.4453 16.927C44.4453 10.3113 39.0547 4.92227 32.4234 4.92227C30.0617 4.92819 27.7533 5.62505 25.7828 6.92695C32.0422 12.0754 32.1375 21.8145 25.7828 26.9363C27.7528 28.2393 30.0615 28.9363 32.4234 28.941C39.0547 28.9504 44.4453 23.5676 44.4453 16.927Z"
                  fill="#98A4C4"/>

        </g>
    </symbol>

    <symbol id="apple" viewBox="0 0 32 32">
        <g>
            <path d="M21.9974 0C20.2914 0.117999 18.2974 1.20999 17.1354 2.63198C16.0754 3.92198 15.2034 5.83797 15.5434 7.69996C17.4074 7.75796 19.3334 6.63996 20.4494 5.19397C21.4934 3.84798 22.2834 1.94399 21.9974 0Z"
                  fill="#988FF2"/>
            <path d="M28.7411 10.7362C27.1031 8.68223 24.8011 7.49023 22.6271 7.49023C19.7571 7.49023 18.5431 8.86423 16.5492 8.86423C14.4932 8.86423 12.9312 7.49423 10.4492 7.49423C8.0112 7.49423 5.41522 8.98423 3.76923 11.5322C1.45524 15.1202 1.85124 21.8662 5.60122 27.6121C6.94321 29.6681 8.7352 31.9801 11.0792 32.0001C13.1652 32.0201 13.7532 30.6621 16.5792 30.6481C19.4051 30.6321 19.9411 32.0181 22.0231 31.9961C24.3691 31.9781 26.2591 29.4161 27.6011 27.3601C28.5631 25.8861 28.9211 25.1441 29.6671 23.4801C24.2411 21.4142 23.3711 13.6982 28.7411 10.7362Z"
                  fill="#988FF2"/>

        </g>
    </symbol>

    <symbol id="windows" viewBox="0 0 32 32">
        <g>
            <path d="M14 15V3.25L0 5V15H14Z" fill="#988FF2"/>
            <path d="M16 15H32V1L16 3V15Z" fill="#988FF2"/>
            <path d="M16 17V29L32 31V17H16Z" fill="#988FF2"/>
            <path d="M14 17H0V27L14 28.75V17Z" fill="#988FF2"/>

        </g>
    </symbol>

    <symbol id="arrow" viewBox="0 0 12 8">
        <g>
            <path d="M1.41 0.294922L6 4.87492L10.59 0.294922L12 1.70492L6 7.70492L0 1.70492L1.41 0.294922Z"
                  fill="#98A4C4"/>

        </g>
    </symbol>

    <symbol id="question" viewBox="0 0 20 20">
        <g>
            <path fill-rule="evenodd" clip-rule="evenodd"
                  d="M10 0C4.48 0 0 4.48 0 10C0 15.52 4.48 20 10 20C15.52 20 20 15.52 20 10C20 4.48 15.52 0 10 0ZM9 17V15H11V17H9ZM12.17 10.17L13.07 9.25C13.64 8.68 14 7.88 14 7C14 4.79 12.21 3 10 3C7.79 3 6 4.79 6 7H8C8 5.9 8.9 5 10 5C11.1 5 12 5.9 12 7C12 7.55 11.78 8.05 11.41 8.41L10.17 9.67C9.45 10.4 9 11.4 9 12.5V13H11C11 11.5 11.45 10.9 12.17 10.17Z"
                  fill="#FC8B8C"/>

        </g>
    </symbol>

    <symbol id="copy" viewBox="0 0 16 16">
        <g>
                <rect x="1" y="1" width="9" height="9" stroke="white" stroke-width="2"/>
                <path d="M10.5 6H15V15H6V10" stroke="white" stroke-width="2"/>
        </g>
    </symbol>

    <symbol id="subscribe" viewBox="0 0 108 125">
        <g>
                <g opacity="0.3">
                    <path d="M53.9598 79.1664H57.2059C57.2635 79.1664 57.3105 79.1205 57.3105 79.0639V74.2178C57.3105 73.2072 58.1445 72.3879 59.1732 72.3879C60.2019 72.3879 61.036 73.2072 61.036 74.2178V79.0639C61.036 81.1385 59.3178 82.8261 57.2059 82.8261H53.9598C51.4801 82.8261 49.4626 84.808 49.4626 87.2439V103.872C49.4626 104.358 49.6178 104.821 49.9116 105.212L57.1493 114.84C57.386 115.155 57.5136 115.536 57.5136 115.927V123.17C57.5136 124.181 56.6796 125 55.6509 125C54.6222 125 53.7881 124.181 53.7881 123.17V116.529L46.9149 107.386C46.1444 106.361 45.7374 105.146 45.7374 103.872V87.2439C45.7371 82.7903 49.4258 79.1664 53.9598 79.1664Z" fill="#81C728"/>
                    <path d="M61.036 66.4196C61.036 67.4302 60.2019 68.2495 59.1732 68.2495C58.1445 68.2495 57.3105 67.4302 57.3105 66.4196V48.7647C57.3105 44.5758 60.7796 41.1679 65.0436 41.1679C69.3075 41.1679 72.7767 44.5758 72.7767 48.7647V65.2836C73.7004 64.8218 74.744 64.5595 75.8495 64.5595H77.7197C79.9192 64.5595 81.8771 65.5918 83.1204 67.1884C84.3166 66.1605 85.88 65.5354 87.5903 65.5354H89.4605C91.8666 65.5354 93.9835 66.7709 95.1918 68.6291C96.3392 67.761 97.7743 67.2433 99.331 67.2433H101.201C104.95 67.2433 108 70.2391 108 73.9213V89.6876C108 90.6981 107.165 91.5174 106.137 91.5174C105.108 91.5174 104.274 90.6981 104.274 89.6876V73.9213C104.274 72.2571 102.896 70.903 101.201 70.903H99.331C97.6367 70.903 96.2582 72.2571 96.2582 73.9213V74.398C96.2582 75.4086 95.4242 76.2279 94.3955 76.2279C93.3668 76.2279 92.5328 75.4086 92.5328 74.398V72.2134C92.5328 70.5492 91.1543 69.1951 89.4602 69.1951H87.59C85.8957 69.1951 84.5172 70.5492 84.5172 72.2134V74.398C84.5172 75.4086 83.6832 76.2279 82.6545 76.2279C81.6258 76.2279 80.7917 75.4086 80.7917 74.398V72.2134C80.7917 71.9963 80.8032 71.7818 80.824 71.5698C80.8039 71.462 80.7917 71.3512 80.7917 71.2375C80.7917 69.5733 79.4133 68.2192 77.7192 68.2192H75.849C74.1549 68.2192 72.7765 69.5733 72.7765 71.2375V74.398C72.7765 75.4086 71.9425 76.2279 70.9137 76.2279C69.885 76.2279 69.051 75.4086 69.051 74.398V48.7647C69.051 46.5937 67.2531 44.8276 65.0433 44.8276C62.8336 44.8276 61.0357 46.5937 61.0357 48.7647V66.4196H61.036Z" fill="#81C728"/>
                    <path d="M103.167 107.765C103.881 106.871 104.275 105.753 104.275 104.617V97.4856C104.275 96.475 105.109 95.6557 106.137 95.6557C107.166 95.6557 108 96.475 108 97.4856V104.617C108 106.568 107.325 108.489 106.099 110.024L103.345 113.473V123.17C103.345 124.181 102.511 125 101.482 125C100.453 125 99.6194 124.181 99.6194 123.17V112.841C99.6194 112.432 99.7592 112.034 100.017 111.712L103.167 107.765Z" fill="#81C728"/>
                    <path d="M20.0608 21.3995L29.7602 18.1731L35.614 12.4222C36.3414 11.7076 37.5209 11.7073 38.2481 12.4222C38.9758 13.1368 38.9758 14.2952 38.2484 15.0099L33.404 19.769L43.5803 29.7656C44.3077 30.4802 44.3077 31.6389 43.5803 32.3532C43.2164 32.7104 42.7396 32.8893 42.263 32.8893C41.7863 32.8893 41.3095 32.7107 40.9456 32.3532L30.2706 21.8667L21.2554 24.8655C20.6524 25.066 20.475 25.5596 20.4269 25.7623C20.3787 25.9651 20.3151 26.4848 20.7651 26.9271L50.7027 56.3365C51.0241 56.6523 51.3899 56.7059 51.6437 56.6962C52.6653 56.6508 53.5398 57.4376 53.5832 58.4475C53.6267 59.4571 52.8284 60.3103 51.8005 60.3527C51.7274 60.3559 51.6547 60.3573 51.5821 60.3573C50.2541 60.3573 49.0135 59.8533 48.0683 58.9247L39.4008 50.41C37.8001 51.8051 35.7625 52.569 33.6044 52.569C31.2678 52.569 29.071 51.675 27.4191 50.0523L27.1633 49.8013C23.8794 46.5751 23.7589 41.4015 26.7989 38.0307L18.1312 29.516C16.902 28.3083 16.4041 26.5941 16.7997 24.9311C17.1949 23.2674 18.4141 21.9475 20.0608 21.3995ZM29.7972 47.2126L30.053 47.4637C31.0015 48.3957 32.2627 48.9088 33.6044 48.9088C34.7424 48.9088 35.8228 48.5394 36.7033 47.8587L29.3959 40.6803C27.8498 42.6151 27.9839 45.4313 29.7972 47.2126Z" fill="#81C728"/>
                    <path d="M73.8969 13.4995C77.8061 21.2547 76.4841 30.9288 69.9195 37.3775L69.8636 37.4326C69.4998 37.7908 69.0224 37.9701 68.5451 37.9701C68.0689 37.9701 67.5931 37.792 67.2295 37.4355C66.5013 36.7216 66.4998 35.5632 67.2265 34.8479L67.2839 34.7915C74.0623 28.1328 74.0623 17.2986 67.2839 10.6398C64.1852 7.5957 60.0691 5.82513 55.6939 5.65386C51.3442 5.48356 47.121 6.90206 43.8053 9.64782C43.0187 10.2992 41.8437 10.2012 41.1806 9.42799C40.5174 8.65531 40.6175 7.50103 41.4041 6.84961C45.4329 3.51366 50.5631 1.79042 55.8421 1.99707C58.8436 2.11443 61.7441 2.85223 64.3785 4.13752L66.621 1.93461C69.2469 -0.644993 73.5196 -0.644749 76.1456 1.93461C77.4177 3.18428 78.1181 4.84579 78.1181 6.61294C78.1181 8.3801 77.4177 10.0416 76.1456 11.291L73.8969 13.4995ZM73.5109 4.52227C72.3376 3.36971 70.4282 3.36971 69.2549 4.52227L67.638 6.11059C68.4385 6.70005 69.201 7.34733 69.918 8.0517C70.6405 8.76144 71.296 9.51241 71.8918 10.2934L73.5109 8.70264C74.0794 8.14441 74.3923 7.40198 74.3923 6.61246C74.3923 5.82294 74.0794 5.08075 73.5109 4.52227Z" fill="#81C728"/>
                    <path d="M49.1015 35.1897L50.1975 36.2664C50.925 36.981 50.925 38.1397 50.1975 38.8541C49.8337 39.2113 49.3568 39.3901 48.8802 39.3901C48.4036 39.3901 47.9267 39.2115 47.5628 38.8541L46.4668 37.7774C45.7393 37.0628 45.7393 35.9041 46.4668 35.1897C47.1945 34.4751 48.3738 34.4751 49.1015 35.1897Z" fill="#81C728"/>
                    <path d="M89.338 38.7826C88.852 38.7826 88.3662 38.5967 88.0011 38.2268C87.2848 37.5015 87.3024 36.3431 88.0411 35.6394C90.1566 33.6232 91.3215 30.9262 91.3215 28.0455C91.3215 25.1649 90.1564 22.4676 88.0408 20.4514C87.3024 19.7477 87.2848 18.5893 88.0011 17.864C88.7174 17.1384 89.8966 17.1213 90.635 17.8249C93.48 20.5363 95.047 24.166 95.047 28.0455C95.047 31.9251 93.48 35.5548 90.635 38.2661C90.2731 38.6109 89.8054 38.7826 89.338 38.7826Z" fill="#81C728"/>
                    <path d="M85.0612 33.364C84.7127 33.6497 84.2892 33.7893 83.868 33.7893C83.335 33.7893 82.8057 33.5656 82.4372 33.1325C81.7778 32.3566 81.8833 31.2029 82.6729 30.5551C83.4339 29.9307 83.8702 29.0161 83.8702 28.0455C83.8702 27.0749 83.4339 26.16 82.6729 25.5357C81.8833 24.8879 81.7778 23.7339 82.4372 22.9583C83.0968 22.1824 84.2716 22.079 85.0609 22.7267C86.6718 24.0484 87.5957 25.987 87.5957 28.0453C87.596 30.104 86.6721 32.0424 85.0612 33.364Z" fill="#81C728"/>
                    <path d="M4.41222 17.8244C5.15111 17.1205 6.33035 17.1383 7.04614 17.8634C7.76268 18.5888 7.7448 19.7472 7.00641 20.4508C4.89082 22.4673 3.72574 25.1643 3.72574 28.045C3.72574 30.9259 4.89082 33.6226 7.00641 35.6389C7.7448 36.3425 7.76268 37.5009 7.04614 38.2263C6.68079 38.5962 6.19524 38.7818 5.70894 38.7818C5.24176 38.7818 4.77385 38.6101 4.41198 38.2653C1.56694 35.5537 0 31.924 0 28.0447C0 24.1654 1.56694 20.5362 4.41222 17.8244Z" fill="#81C728"/>
                    <path d="M9.98605 22.7266C10.7754 22.0791 11.9501 22.1823 12.6095 22.9582C13.2689 23.7338 13.1636 24.8878 12.3741 25.5356C11.6133 26.1599 11.1767 27.0748 11.1767 28.0454C11.1767 29.016 11.6133 29.9306 12.3741 30.5547C13.1639 31.2025 13.2694 32.3565 12.61 33.1322C12.2417 33.5657 11.7124 33.7892 11.1792 33.7892C10.7582 33.7892 10.3348 33.6499 9.9863 33.3639C8.37514 32.0423 7.45097 30.1039 7.45097 28.0452C7.45122 25.9869 8.37514 24.0483 9.98605 22.7266Z" fill="#81C728"/>
                </g>

        </g>
    </symbol>

    <symbol id="alert" viewBox="0 0 40 40">
        <g>
                <circle cx="20" cy="20" r="20" fill="#81C728" fill-opacity="0.2"/>
                <path fill-rule="evenodd" clip-rule="evenodd" d="M26 23.75V18.75C26 15.68 24.37 13.11 21.5 12.43V11.75C21.5 10.92 20.83 10.25 20 10.25C19.17 10.25 18.5 10.92 18.5 11.75V12.43C15.64 13.11 14 15.67 14 18.75V23.75L12 25.75V26.75H28V25.75L26 23.75ZM20 29.75C21.1 29.75 22 28.85 22 27.75H18C18 28.85 18.9 29.75 20 29.75ZM16 24.75H24V18.75C24 16.27 22.49 14.25 20 14.25C17.51 14.25 16 16.27 16 18.75V24.75Z" fill="#81C728"/>

        </g>
    </symbol>

    <symbol id="user-form" viewBox="0 0 40 40">
        <g>
                <circle cx="20" cy="20" r="20" fill="#81C728" fill-opacity="0.2"/>
                <path fill-rule="evenodd" clip-rule="evenodd" d="M20 12C17.79 12 16 13.79 16 16C16 18.21 17.79 20 20 20C22.21 20 24 18.21 24 16C24 13.79 22.21 12 20 12ZM22.1 16C22.1 14.84 21.16 13.9 20 13.9C18.84 13.9 17.9 14.84 17.9 16C17.9 17.16 18.84 18.1 20 18.1C21.16 18.1 22.1 17.16 22.1 16ZM26.1 25C26.1 24.36 22.97 22.9 20 22.9C17.03 22.9 13.9 24.36 13.9 25V26.1H26.1V25ZM12 25C12 22.34 17.33 21 20 21C22.67 21 28 22.34 28 25V28H12V25Z" fill="#81C728"/>

        </g>
    </symbol>
</svg>
