<svg width="32" height="29" viewBox="0 0 32 29" fill="none" xmlns="http://www.w3.org/2000/svg">
    <path d="M15.0489 0.927174C15.3483 0.00586367 16.6517 0.005862 16.9511 0.927173L19.8167 9.74683C19.9506 10.1589 20.3346 10.4378 20.7678 10.4378H30.0413C31.0101 10.4378 31.4128 11.6774 30.6291 12.2468L23.1267 17.6977C22.7762 17.9523 22.6295 18.4037 22.7634 18.8157L25.6291 27.6354C25.9284 28.5567 24.874 29.3228 24.0902 28.7534L16.5878 23.3026C16.2373 23.0479 15.7627 23.0479 15.4122 23.3026L7.90976 28.7534C7.12605 29.3228 6.07157 28.5567 6.37092 27.6354L9.2366 18.8157C9.37048 18.4037 9.22382 17.9523 8.87333 17.6977L1.37088 12.2468C0.587169 11.6774 0.989944 10.4378 1.95867 10.4378H11.2322C11.6654 10.4378 12.0494 10.1589 12.1833 9.74683L15.0489 0.927174Z" fill="#FFF500"/>
    <path d="M15.5245 1.08168C15.6741 0.621024 16.3259 0.62103 16.4755 1.08168L19.3412 9.90134C19.542 10.5194 20.118 10.9378 20.7678 10.9378H30.0413C30.5257 10.9378 30.7271 11.5576 30.3352 11.8423L22.8328 17.2932C22.307 17.6751 22.0871 18.3522 22.2879 18.9702L25.1535 27.7899C25.3032 28.2505 24.776 28.6336 24.3841 28.3489L16.8817 22.8981C16.3559 22.5161 15.6441 22.5161 15.1183 22.8981L7.61587 28.3489C7.22401 28.6336 6.69678 28.2505 6.84645 27.7899L9.71213 18.9702C9.91294 18.3522 9.69296 17.6751 9.16722 17.2932L1.66477 11.8423C1.27292 11.5576 1.47431 10.9378 1.95867 10.9378H11.2322C11.882 10.9378 12.458 10.5194 12.6588 9.90134L15.5245 1.08168Z" stroke="black" stroke-opacity="0.2"/>
</svg>
