<svg width="32" height="29" viewBox="0 0 32 29" fill="none" xmlns="http://www.w3.org/2000/svg">
    <path d="M15.0489 0.927052C15.3483 0.0057416 16.6517 0.00573993 16.9511 0.927051L19.8167 9.74671C19.9506 10.1587 20.3346 10.4377 20.7678 10.4377H30.0413C31.0101 10.4377 31.4128 11.6773 30.6291 12.2467L23.1267 17.6976C22.7762 17.9522 22.6295 18.4036 22.7634 18.8156L25.6291 27.6353C25.9284 28.5566 24.874 29.3227 24.0902 28.7533L16.5878 23.3024C16.2373 23.0478 15.7627 23.0478 15.4122 23.3024L7.90976 28.7533C7.12605 29.3227 6.07157 28.5566 6.37092 27.6353L9.2366 18.8156C9.37048 18.4036 9.22382 17.9522 8.87333 17.6976L1.37088 12.2467C0.587169 11.6773 0.989944 10.4377 1.95867 10.4377H11.2322C11.6654 10.4377 12.0494 10.1587 12.1833 9.74671L15.0489 0.927052Z" fill="url(#paint0_linear)"/>
    <path d="M15.2867 1.00431C15.5112 0.313322 16.4888 0.313324 16.7133 1.0043L19.579 9.82397C19.7463 10.339 20.2263 10.6877 20.7678 10.6877H30.0413C30.7679 10.6877 31.07 11.6174 30.4822 12.0445L22.9797 17.4953C22.5416 17.8136 22.3583 18.3778 22.5256 18.8928L25.3913 27.7125C25.6158 28.4035 24.825 28.9781 24.2372 28.551L16.7347 23.1002C16.2966 22.7819 15.7034 22.7819 15.2653 23.1002L7.76282 28.551C7.17503 28.9781 6.38417 28.4035 6.60869 27.7125L9.47437 18.8928C9.64171 18.3778 9.45839 17.8136 9.02028 17.4953L1.51783 12.0445C0.930043 11.6174 1.23212 10.6877 1.95867 10.6877H11.2322C11.7737 10.6877 12.2537 10.339 12.421 9.82397L15.2867 1.00431Z" stroke="black" stroke-opacity="0.2" stroke-width="0.5"/>
    <defs>
        <linearGradient id="paint0_linear" x1="-3.5" y1="14.5" x2="32" y2="14.5" gradientUnits="userSpaceOnUse">
            <stop offset="0.538919" stop-color="#FFF500"/>
            <stop offset="0.566385" stop-color="white"/>
        </linearGradient>
    </defs>
</svg>
