<svg width="181" height="130" viewBox="0 0 181 130" fill="none" xmlns="http://www.w3.org/2000/svg">
    <path d="M0 54.8C0 47.7308 5.14873 42 11.5 42C17.8513 42 23 47.7308 23 54.8V61.2C23 68.2692 17.8513 74 11.5 74C5.14873 74 0 68.2692 0 61.2V54.8Z" fill="#FDE370"/>
    <path d="M37 44.7143C37 38.2447 42.1487 33 48.5 33C54.8513 33 60 38.2447 60 44.7143V62.2857C60 68.7553 54.8513 74 48.5 74C42.1487 74 37 68.7553 37 62.2857V44.7143Z" fill="#FDE370"/>
    <path d="M79 34.3333C79 28.0741 84.1487 23 90.5 23C96.8513 23 102 28.0741 102 34.3333V62.6667C102 68.9259 96.8513 74 90.5 74C84.1487 74 79 68.9259 79 62.6667V34.3333Z" fill="#FDE370"/>
    <path fill-rule="evenodd" clip-rule="evenodd" d="M139 62.1818V20.8182C139 14.6286 135.002 10 130.5 10C125.998 10 122 14.6286 122 20.8182V62.1818C122 68.3714 125.998 73 130.5 73C135.002 73 139 68.3714 139 62.1818ZM130.5 9C125.253 9 121 14.2912 121 20.8182V62.1818C121 68.7088 125.253 74 130.5 74C135.747 74 140 68.7088 140 62.1818V20.8182C140 14.2912 135.747 9 130.5 9Z" fill="white"/>
    <path fill-rule="evenodd" clip-rule="evenodd" d="M180 62.6154V11.3846C180 5.65883 175.309 1 169.5 1C163.691 1 159 5.65883 159 11.3846V62.6154C159 68.3412 163.691 73 169.5 73C175.309 73 180 68.3412 180 62.6154ZM169.5 0C163.149 0 158 5.09707 158 11.3846V62.6154C158 68.9029 163.149 74 169.5 74C175.851 74 181 68.9029 181 62.6154V11.3846C181 5.09707 175.851 0 169.5 0Z" fill="white"/>
    <path d="M36.8603 116.04C38.2403 116.04 39.4803 116.31 40.5803 116.85C41.6803 117.37 42.5403 118.12 43.1603 119.1C43.7803 120.08 44.0903 121.21 44.0903 122.49C44.0903 123.85 43.7503 125.05 43.0703 126.09C42.3903 127.11 41.4703 127.9 40.3103 128.46C39.1503 129.02 37.8503 129.3 36.4103 129.3C33.5303 129.3 31.2903 128.4 29.6903 126.6C28.1103 124.8 27.3203 122.22 27.3203 118.86C27.3203 116.5 27.7503 114.49 28.6103 112.83C29.4703 111.15 30.6703 109.88 32.2103 109.02C33.7703 108.14 35.5703 107.7 37.6103 107.7C38.6903 107.7 39.7003 107.82 40.6403 108.06C41.6003 108.28 42.4303 108.61 43.1303 109.05L41.6903 111.99C40.6503 111.31 39.3203 110.97 37.7003 110.97C35.6803 110.97 34.1003 111.59 32.9603 112.83C31.8203 114.07 31.2503 115.86 31.2503 118.2V118.23C31.8703 117.51 32.6603 116.97 33.6203 116.61C34.5803 116.23 35.6603 116.04 36.8603 116.04ZM36.2003 126.24C37.4203 126.24 38.4103 125.92 39.1703 125.28C39.9303 124.62 40.3103 123.75 40.3103 122.67C40.3103 121.57 39.9303 120.7 39.1703 120.06C38.4103 119.42 37.3903 119.1 36.1103 119.1C34.8503 119.1 33.8203 119.44 33.0203 120.12C32.2403 120.8 31.8503 121.66 31.8503 122.7C31.8503 123.72 32.2303 124.57 32.9903 125.25C33.7703 125.91 34.8403 126.24 36.2003 126.24Z" fill="white"/>
    <path d="M54.8889 129.3C53.2089 129.3 51.7089 128.88 50.3889 128.04C49.0689 127.18 48.0289 125.94 47.2689 124.32C46.5089 122.68 46.1289 120.74 46.1289 118.5C46.1289 116.26 46.5089 114.33 47.2689 112.71C48.0289 111.07 49.0689 109.83 50.3889 108.99C51.7089 108.13 53.2089 107.7 54.8889 107.7C56.5689 107.7 58.0689 108.13 59.3889 108.99C60.7289 109.83 61.7789 111.07 62.5389 112.71C63.2989 114.33 63.6789 116.26 63.6789 118.5C63.6789 120.74 63.2989 122.68 62.5389 124.32C61.7789 125.94 60.7289 127.18 59.3889 128.04C58.0689 128.88 56.5689 129.3 54.8889 129.3ZM54.8889 125.91C56.3889 125.91 57.5689 125.29 58.4289 124.05C59.3089 122.81 59.7489 120.96 59.7489 118.5C59.7489 116.04 59.3089 114.19 58.4289 112.95C57.5689 111.71 56.3889 111.09 54.8889 111.09C53.4089 111.09 52.2289 111.71 51.3489 112.95C50.4889 114.19 50.0589 116.04 50.0589 118.5C50.0589 120.96 50.4889 122.81 51.3489 124.05C52.2289 125.29 53.4089 125.91 54.8889 125.91Z" fill="white"/>
    <path d="M74.9355 119.1H83.1855V122.22H74.9355V119.1Z" fill="white"/>
    <path d="M103.979 116.04C105.359 116.04 106.599 116.31 107.699 116.85C108.799 117.37 109.659 118.12 110.279 119.1C110.899 120.08 111.209 121.21 111.209 122.49C111.209 123.85 110.869 125.05 110.189 126.09C109.509 127.11 108.589 127.9 107.429 128.46C106.269 129.02 104.969 129.3 103.529 129.3C100.649 129.3 98.4095 128.4 96.8095 126.6C95.2295 124.8 94.4395 122.22 94.4395 118.86C94.4395 116.5 94.8695 114.49 95.7295 112.83C96.5895 111.15 97.7895 109.88 99.3295 109.02C100.889 108.14 102.689 107.7 104.729 107.7C105.809 107.7 106.819 107.82 107.759 108.06C108.719 108.28 109.549 108.61 110.249 109.05L108.809 111.99C107.769 111.31 106.439 110.97 104.819 110.97C102.799 110.97 101.219 111.59 100.079 112.83C98.9395 114.07 98.3695 115.86 98.3695 118.2V118.23C98.9895 117.51 99.7795 116.97 100.739 116.61C101.699 116.23 102.779 116.04 103.979 116.04ZM103.319 126.24C104.539 126.24 105.529 125.92 106.289 125.28C107.049 124.62 107.429 123.75 107.429 122.67C107.429 121.57 107.049 120.7 106.289 120.06C105.529 119.42 104.509 119.1 103.229 119.1C101.969 119.1 100.939 119.44 100.139 120.12C99.3595 120.8 98.9695 121.66 98.9695 122.7C98.9695 123.72 99.3494 124.57 100.109 125.25C100.889 125.91 101.959 126.24 103.319 126.24Z" fill="white"/>
    <path d="M119.818 116.13C122.778 116.13 124.968 116.71 126.388 117.87C127.808 119.01 128.518 120.57 128.518 122.55C128.518 123.81 128.208 124.95 127.588 125.97C126.968 126.99 126.038 127.8 124.798 128.4C123.558 129 122.028 129.3 120.208 129.3C118.708 129.3 117.258 129.09 115.858 128.67C114.458 128.23 113.278 127.63 112.318 126.87L113.968 123.84C114.748 124.48 115.678 124.99 116.758 125.37C117.858 125.73 118.988 125.91 120.148 125.91C121.528 125.91 122.608 125.63 123.388 125.07C124.188 124.49 124.588 123.7 124.588 122.7C124.588 121.62 124.158 120.81 123.298 120.27C122.458 119.71 121.008 119.43 118.948 119.43H113.878L114.958 108H127.288V111.27H118.258L117.808 116.13H119.818Z" fill="white"/>
    <path d="M135.155 119.31C133.655 119.31 132.445 118.78 131.525 117.72C130.605 116.66 130.145 115.27 130.145 113.55C130.145 111.83 130.605 110.44 131.525 109.38C132.445 108.32 133.655 107.79 135.155 107.79C136.655 107.79 137.865 108.32 138.785 109.38C139.725 110.42 140.195 111.81 140.195 113.55C140.195 115.29 139.725 116.69 138.785 117.75C137.865 118.79 136.655 119.31 135.155 119.31ZM147.755 108H150.695L136.355 129H133.415L147.755 108ZM135.155 117.21C135.975 117.21 136.605 116.89 137.045 116.25C137.505 115.61 137.735 114.71 137.735 113.55C137.735 112.39 137.505 111.49 137.045 110.85C136.605 110.21 135.975 109.89 135.155 109.89C134.375 109.89 133.745 110.22 133.265 110.88C132.805 111.52 132.575 112.41 132.575 113.55C132.575 114.69 132.805 115.59 133.265 116.25C133.745 116.89 134.375 117.21 135.155 117.21ZM148.925 129.21C147.425 129.21 146.215 128.68 145.295 127.62C144.375 126.56 143.915 125.17 143.915 123.45C143.915 121.73 144.375 120.34 145.295 119.28C146.215 118.22 147.425 117.69 148.925 117.69C150.425 117.69 151.635 118.22 152.555 119.28C153.495 120.34 153.965 121.73 153.965 123.45C153.965 125.17 153.495 126.56 152.555 127.62C151.635 128.68 150.425 129.21 148.925 129.21ZM148.925 127.11C149.725 127.11 150.355 126.79 150.815 126.15C151.275 125.49 151.505 124.59 151.505 123.45C151.505 122.31 151.275 121.42 150.815 120.78C150.355 120.12 149.725 119.79 148.925 119.79C148.125 119.79 147.495 120.11 147.035 120.75C146.575 121.39 146.345 122.29 146.345 123.45C146.345 124.61 146.575 125.51 147.035 126.15C147.495 126.79 148.125 127.11 148.925 127.11Z" fill="white"/>
</svg>
