<svg width="149" height="61" viewBox="0 0 149 61" fill="none" xmlns="http://www.w3.org/2000/svg">
    <path d="M0.0022583 45.1081C0.0022583 39.2891 4.24039 34.5719 9.46838 34.5719C14.6964 34.5719 18.9345 39.2891 18.9345 45.1081V50.3762C18.9345 56.1952 14.6964 60.9124 9.46838 60.9124C4.24039 60.9124 0.0022583 56.1952 0.0022583 50.3762V45.1081Z" fill="white"/>
    <path fill-rule="evenodd" clip-rule="evenodd" d="M48.5676 51.2699V36.8061C48.5676 31.9209 44.6837 27.9868 39.9246 27.9868C35.1655 27.9868 31.2816 31.9209 31.2816 36.8061V51.2699C31.2816 56.1551 35.1655 60.0893 39.9246 60.0893C44.6837 60.0893 48.5676 56.1551 48.5676 51.2699ZM39.9246 27.1636C34.6966 27.1636 30.4585 31.4807 30.4585 36.8061V51.2699C30.4585 56.5953 34.6966 60.9124 39.9246 60.9124C45.1526 60.9124 49.3907 56.5953 49.3907 51.2699V36.8061C49.3907 31.4807 45.1526 27.1636 39.9246 27.1636Z" fill="white"/>
    <path fill-rule="evenodd" clip-rule="evenodd" d="M83.1395 51.5835V28.2612C83.1395 23.5749 79.2813 19.7554 74.4965 19.7554C69.7118 19.7554 65.8535 23.5749 65.8535 28.2612V51.5835C65.8535 56.2698 69.7118 60.0893 74.4965 60.0893C79.2813 60.0893 83.1395 56.2698 83.1395 51.5835ZM74.4965 18.9323C69.2685 18.9323 65.0304 23.109 65.0304 28.2612V51.5835C65.0304 56.7357 69.2685 60.9124 74.4965 60.9124C79.7245 60.9124 83.9626 56.7357 83.9626 51.5835V28.2612C83.9626 23.109 79.7245 18.9323 74.4965 18.9323Z" fill="white"/>
    <path fill-rule="evenodd" clip-rule="evenodd" d="M114.419 51.1845V17.1364C114.419 12.0414 111.128 8.23147 107.422 8.23147C103.717 8.23147 100.425 12.0414 100.425 17.1364V51.1845C100.425 56.2794 103.717 60.0894 107.422 60.0894C111.128 60.0894 114.419 56.2794 114.419 51.1845ZM107.422 7.40833C103.103 7.40833 99.6023 11.7637 99.6023 17.1364V51.1845C99.6023 56.5571 103.103 60.9125 107.422 60.9125C111.741 60.9125 115.242 56.5571 115.242 51.1845V17.1364C115.242 11.7637 111.741 7.40833 107.422 7.40833Z" fill="white"/>
    <path fill-rule="evenodd" clip-rule="evenodd" d="M148.168 51.5413V9.37114C148.168 4.65802 144.306 0.823141 139.525 0.823141C134.743 0.823141 130.882 4.65802 130.882 9.37114V51.5413C130.882 56.2544 134.743 60.0893 139.525 60.0893C144.306 60.0893 148.168 56.2544 148.168 51.5413ZM139.525 0C134.297 0 130.059 4.1956 130.059 9.37114V51.5413C130.059 56.7168 134.297 60.9124 139.525 60.9124C144.753 60.9124 148.991 56.7168 148.991 51.5413V9.37114C148.991 4.1956 144.753 0 139.525 0Z" fill="white"/>
</svg>
