<svg width="201" height="97" viewBox="0 0 201 97" fill="none" xmlns="http://www.w3.org/2000/svg">
    <path d="M92.29 21.0002L92.26 7.08025L85.36 18.6002H83.62L76.72 7.26024V21.0002H73V0.000244141H76.21L84.55 13.9202L92.74 0.000244141H95.95L95.98 21.0002H92.29Z" fill="white"/>
    <path d="M106.722 8.13025C109.682 8.13025 111.872 8.71025 113.292 9.87024C114.712 11.0102 115.422 12.5702 115.422 14.5502C115.422 15.8102 115.112 16.9502 114.492 17.9702C113.872 18.9902 112.942 19.8002 111.702 20.4002C110.462 21.0002 108.932 21.3002 107.112 21.3002C105.612 21.3002 104.162 21.0902 102.762 20.6702C101.362 20.2302 100.182 19.6302 99.2223 18.8702L100.872 15.8402C101.652 16.4802 102.582 16.9902 103.662 17.3702C104.762 17.7302 105.892 17.9102 107.052 17.9102C108.432 17.9102 109.512 17.6302 110.292 17.0702C111.092 16.4902 111.492 15.7002 111.492 14.7002C111.492 13.6202 111.062 12.8102 110.202 12.2702C109.362 11.7102 107.912 11.4302 105.852 11.4302H100.782L101.862 0.000244141H114.192V3.27025H105.162L104.712 8.13025H106.722Z" fill="white"/>
    <path d="M200.461 51.058C200.461 55.2814 197.671 58.705 194.23 58.705L7.15509 58.705C3.71384 58.705 0.924133 55.2814 0.924132 51.0581C0.924132 46.8348 3.71384 43.4111 7.15509 43.4111L194.23 43.4111C197.671 43.4111 200.461 46.8347 200.461 51.058Z" fill="#F08D6A"/>
    <path d="M65.6272 87.42C67.6005 87.42 69.0605 87.8067 70.0072 88.58C70.9539 89.34 71.4272 90.38 71.4272 91.7C71.4272 92.54 71.2205 93.3 70.8072 93.98C70.3939 94.66 69.7739 95.2 68.9472 95.6C68.1205 96 67.1005 96.2 65.8872 96.2C64.8872 96.2 63.9205 96.06 62.9872 95.78C62.0539 95.4867 61.2672 95.0867 60.6272 94.58L61.7272 92.56C62.2472 92.9867 62.8672 93.3267 63.5872 93.58C64.3205 93.82 65.0739 93.94 65.8472 93.94C66.7672 93.94 67.4872 93.7533 68.0072 93.38C68.5405 92.9933 68.8072 92.4667 68.8072 91.8C68.8072 91.08 68.5205 90.54 67.9472 90.18C67.3872 89.8067 66.4205 89.62 65.0472 89.62H61.6672L62.3872 82H70.6072V84.18H64.5872L64.2872 87.42H65.6272ZM77.7669 82V96H75.1669V84.18H72.2069V82H77.7669ZM80.7641 89.4H86.2641V91.48H80.7641V89.4ZM92.6194 87.42C94.5927 87.42 96.0527 87.8067 96.9994 88.58C97.946 89.34 98.4194 90.38 98.4194 91.7C98.4194 92.54 98.2127 93.3 97.7994 93.98C97.386 94.66 96.766 95.2 95.9394 95.6C95.1127 96 94.0927 96.2 92.8794 96.2C91.8794 96.2 90.9127 96.06 89.9794 95.78C89.046 95.4867 88.2594 95.0867 87.6194 94.58L88.7194 92.56C89.2394 92.9867 89.8594 93.3267 90.5794 93.58C91.3127 93.82 92.066 93.94 92.8394 93.94C93.7594 93.94 94.4794 93.7533 94.9994 93.38C95.5327 92.9933 95.7994 92.4667 95.7994 91.8C95.7994 91.08 95.5127 90.54 94.9394 90.18C94.3794 89.8067 93.4127 89.62 92.0394 89.62H88.6594L89.3794 82H97.5994V84.18H91.5794L91.2794 87.42H92.6194ZM104.201 87.42C106.175 87.42 107.635 87.8067 108.581 88.58C109.528 89.34 110.001 90.38 110.001 91.7C110.001 92.54 109.795 93.3 109.381 93.98C108.968 94.66 108.348 95.2 107.521 95.6C106.695 96 105.675 96.2 104.461 96.2C103.461 96.2 102.495 96.06 101.561 95.78C100.628 95.4867 99.8414 95.0867 99.2014 94.58L100.301 92.56C100.821 92.9867 101.441 93.3267 102.161 93.58C102.895 93.82 103.648 93.94 104.421 93.94C105.341 93.94 106.061 93.7533 106.581 93.38C107.115 92.9933 107.381 92.4667 107.381 91.8C107.381 91.08 107.095 90.54 106.521 90.18C105.961 89.8067 104.995 89.62 103.621 89.62H100.241L100.961 82H109.181V84.18H103.161L102.861 87.42H104.201ZM114.426 89.54C113.426 89.54 112.619 89.1867 112.006 88.48C111.392 87.7733 111.086 86.8467 111.086 85.7C111.086 84.5533 111.392 83.6267 112.006 82.92C112.619 82.2133 113.426 81.86 114.426 81.86C115.426 81.86 116.232 82.2133 116.846 82.92C117.472 83.6133 117.786 84.54 117.786 85.7C117.786 86.86 117.472 87.7933 116.846 88.5C116.232 89.1933 115.426 89.54 114.426 89.54ZM122.826 82H124.786L115.226 96H113.266L122.826 82ZM114.426 88.14C114.972 88.14 115.392 87.9267 115.686 87.5C115.992 87.0733 116.146 86.4733 116.146 85.7C116.146 84.9267 115.992 84.3267 115.686 83.9C115.392 83.4733 114.972 83.26 114.426 83.26C113.906 83.26 113.486 83.48 113.166 83.92C112.859 84.3467 112.706 84.94 112.706 85.7C112.706 86.46 112.859 87.06 113.166 87.5C113.486 87.9267 113.906 88.14 114.426 88.14ZM123.606 96.14C122.606 96.14 121.799 95.7867 121.186 95.08C120.572 94.3733 120.266 93.4467 120.266 92.3C120.266 91.1533 120.572 90.2267 121.186 89.52C121.799 88.8133 122.606 88.46 123.606 88.46C124.606 88.46 125.412 88.8133 126.026 89.52C126.652 90.2267 126.966 91.1533 126.966 92.3C126.966 93.4467 126.652 94.3733 126.026 95.08C125.412 95.7867 124.606 96.14 123.606 96.14ZM123.606 94.74C124.139 94.74 124.559 94.5267 124.866 94.1C125.172 93.66 125.326 93.06 125.326 92.3C125.326 91.54 125.172 90.9467 124.866 90.52C124.559 90.08 124.139 89.86 123.606 89.86C123.072 89.86 122.652 90.0733 122.346 90.5C122.039 90.9267 121.886 91.5267 121.886 92.3C121.886 93.0733 122.039 93.6733 122.346 94.1C122.652 94.5267 123.072 94.74 123.606 94.74Z" fill="white"/>
</svg>
