<svg width="201" height="95" viewBox="0 0 201 95" fill="none" xmlns="http://www.w3.org/2000/svg">
    <path d="M84.12 79.8003C86.04 79.8003 87.5267 80.4003 88.58 81.6003C89.6467 82.8003 90.18 84.5203 90.18 86.7603C90.18 88.3336 89.8933 89.6803 89.32 90.8003C88.7467 91.907 87.94 92.7536 86.9 93.3403C85.8733 93.9136 84.68 94.2003 83.32 94.2003C82.6 94.2003 81.92 94.127 81.28 93.9803C80.6533 93.8203 80.1067 93.5936 79.64 93.3003L80.6 91.3403C81.2933 91.7936 82.18 92.0203 83.26 92.0203C84.6067 92.0203 85.66 91.607 86.42 90.7803C87.18 89.9536 87.56 88.7603 87.56 87.2003V87.1803C87.1467 87.6603 86.62 88.027 85.98 88.2803C85.34 88.5203 84.62 88.6403 83.82 88.6403C82.9 88.6403 82.0733 88.467 81.34 88.1203C80.6067 87.7603 80.0333 87.2536 79.62 86.6003C79.2067 85.947 79 85.1936 79 84.3403C79 83.4336 79.2267 82.6403 79.68 81.9603C80.1333 81.267 80.7467 80.7336 81.52 80.3603C82.2933 79.987 83.16 79.8003 84.12 79.8003ZM84.32 86.6003C85.16 86.6003 85.84 86.3736 86.36 85.9203C86.8933 85.467 87.16 84.8936 87.16 84.2003C87.16 83.5203 86.9 82.9603 86.38 82.5203C85.8733 82.067 85.1667 81.8403 84.26 81.8403C83.4467 81.8403 82.7867 82.0603 82.28 82.5003C81.7733 82.927 81.52 83.5003 81.52 84.2203C81.52 84.9536 81.7733 85.5336 82.28 85.9603C82.7867 86.387 83.4667 86.6003 84.32 86.6003Z" fill="white"/>
    <path d="M97.7791 94.2003C96.6591 94.2003 95.6591 93.9203 94.7791 93.3603C93.8991 92.787 93.2057 91.9603 92.6991 90.8803C92.1924 89.787 91.9391 88.4936 91.9391 87.0003C91.9391 85.507 92.1924 84.2203 92.6991 83.1403C93.2057 82.047 93.8991 81.2203 94.7791 80.6603C95.6591 80.087 96.6591 79.8003 97.7791 79.8003C98.8991 79.8003 99.8991 80.087 100.779 80.6603C101.672 81.2203 102.372 82.047 102.879 83.1403C103.386 84.2203 103.639 85.507 103.639 87.0003C103.639 88.4936 103.386 89.787 102.879 90.8803C102.372 91.9603 101.672 92.787 100.779 93.3603C99.8991 93.9203 98.8991 94.2003 97.7791 94.2003ZM97.7791 91.9403C98.7791 91.9403 99.5657 91.527 100.139 90.7003C100.726 89.8736 101.019 88.6403 101.019 87.0003C101.019 85.3603 100.726 84.127 100.139 83.3003C99.5657 82.4736 98.7791 82.0603 97.7791 82.0603C96.7924 82.0603 96.0057 82.4736 95.4191 83.3003C94.8457 84.127 94.5591 85.3603 94.5591 87.0003C94.5591 88.6403 94.8457 89.8736 95.4191 90.7003C96.0057 91.527 96.7924 91.9403 97.7791 91.9403Z" fill="white"/>
    <path d="M108.516 87.5403C107.516 87.5403 106.709 87.187 106.096 86.4803C105.483 85.7736 105.176 84.847 105.176 83.7003C105.176 82.5536 105.483 81.627 106.096 80.9203C106.709 80.2136 107.516 79.8603 108.516 79.8603C109.516 79.8603 110.323 80.2136 110.936 80.9203C111.563 81.6136 111.876 82.5403 111.876 83.7003C111.876 84.8603 111.563 85.7936 110.936 86.5003C110.323 87.1936 109.516 87.5403 108.516 87.5403ZM116.916 80.0003H118.876L109.316 94.0003H107.356L116.916 80.0003ZM108.516 86.1403C109.063 86.1403 109.483 85.927 109.776 85.5003C110.083 85.0736 110.236 84.4736 110.236 83.7003C110.236 82.927 110.083 82.327 109.776 81.9003C109.483 81.4736 109.063 81.2603 108.516 81.2603C107.996 81.2603 107.576 81.4803 107.256 81.9203C106.949 82.347 106.796 82.9403 106.796 83.7003C106.796 84.4603 106.949 85.0603 107.256 85.5003C107.576 85.927 107.996 86.1403 108.516 86.1403ZM117.696 94.1403C116.696 94.1403 115.889 93.787 115.276 93.0803C114.663 92.3736 114.356 91.447 114.356 90.3003C114.356 89.1536 114.663 88.227 115.276 87.5203C115.889 86.8136 116.696 86.4603 117.696 86.4603C118.696 86.4603 119.503 86.8136 120.116 87.5203C120.743 88.227 121.056 89.1536 121.056 90.3003C121.056 91.447 120.743 92.3736 120.116 93.0803C119.503 93.787 118.696 94.1403 117.696 94.1403ZM117.696 92.7403C118.229 92.7403 118.649 92.527 118.956 92.1003C119.263 91.6603 119.416 91.0603 119.416 90.3003C119.416 89.5403 119.263 88.947 118.956 88.5203C118.649 88.0803 118.229 87.8603 117.696 87.8603C117.163 87.8603 116.743 88.0736 116.436 88.5003C116.129 88.927 115.976 89.527 115.976 90.3003C115.976 91.0736 116.129 91.6736 116.436 92.1003C116.743 92.527 117.163 92.7403 117.696 92.7403Z" fill="white"/>
    <path d="M200.117 51.0581C200.117 55.2814 197.327 58.7051 193.886 58.7051L6.81128 58.7051C3.37001 58.7051 0.580322 55.2814 0.580321 51.0581C0.580321 46.8348 3.37001 43.4112 6.81128 43.4112L193.886 43.4111C197.327 43.4111 200.117 46.8348 200.117 51.0581Z" fill="#B9F46F"/>
    <path d="M103.66 0.000244141V21.0002H99.76V12.0002H88.9V21.0002H85V0.000244141H88.9V8.67025H99.76V0.000244141H103.66Z" fill="white"/>
    <path d="M115.047 0.000244141V21.0002H111.147V3.27025H106.707V0.000244141H115.047Z" fill="white"/>
</svg>
