<svg width="201" height="97" viewBox="0 0 201 97" fill="none" xmlns="http://www.w3.org/2000/svg">
    <path d="M103.66 0.000244141V21.0002H99.76V12.0002H88.9V21.0002H85V0.000244141H88.9V8.67025H99.76V0.000244141H103.66Z" fill="white"/>
    <path d="M115.047 0.000244141V21.0002H111.147V3.27025H106.707V0.000244141H115.047Z" fill="white"/>
    <path d="M200.117 51.058C200.117 55.2814 197.328 58.705 193.886 58.705L6.81134 58.705C3.37007 58.705 0.580383 55.2814 0.580382 51.0581C0.580382 46.8348 3.37007 43.4111 6.81134 43.4111L193.886 43.4111C197.328 43.4111 200.117 46.8347 200.117 51.058Z" fill="#B9F46F"/>
    <path d="M70.6599 87.36C71.5799 87.36 72.4066 87.54 73.1399 87.9C73.8733 88.2467 74.4466 88.7467 74.8599 89.4C75.2733 90.0533 75.4799 90.8067 75.4799 91.66C75.4799 92.5667 75.2533 93.3667 74.7999 94.06C74.3466 94.74 73.7333 95.2667 72.9599 95.64C72.1866 96.0133 71.3199 96.2 70.3599 96.2C68.4399 96.2 66.9466 95.6 65.8799 94.4C64.8266 93.2 64.2999 91.48 64.2999 89.24C64.2999 87.6667 64.5866 86.3267 65.1599 85.22C65.7333 84.1 66.5333 83.2533 67.5599 82.68C68.5999 82.0933 69.7999 81.8 71.1599 81.8C71.8799 81.8 72.5533 81.88 73.1799 82.04C73.8199 82.1867 74.3733 82.4067 74.8399 82.7L73.8799 84.66C73.1866 84.2067 72.2999 83.98 71.2199 83.98C69.8733 83.98 68.8199 84.3933 68.0599 85.22C67.2999 86.0467 66.9199 87.24 66.9199 88.8V88.82C67.3333 88.34 67.8599 87.98 68.4999 87.74C69.1399 87.4867 69.8599 87.36 70.6599 87.36ZM70.2199 94.16C71.0333 94.16 71.6933 93.9467 72.1999 93.52C72.7066 93.08 72.9599 92.5 72.9599 91.78C72.9599 91.0467 72.7066 90.4667 72.1999 90.04C71.6933 89.6133 71.0133 89.4 70.1599 89.4C69.3199 89.4 68.6333 89.6267 68.0999 90.08C67.5799 90.5333 67.3199 91.1067 67.3199 91.8C67.3199 92.48 67.5733 93.0467 68.0799 93.5C68.5999 93.94 69.3133 94.16 70.2199 94.16ZM81.219 87.42C83.1923 87.42 84.6523 87.8067 85.599 88.58C86.5457 89.34 87.019 90.38 87.019 91.7C87.019 92.54 86.8123 93.3 86.399 93.98C85.9857 94.66 85.3657 95.2 84.539 95.6C83.7123 96 82.6923 96.2 81.479 96.2C80.479 96.2 79.5123 96.06 78.579 95.78C77.6457 95.4867 76.859 95.0867 76.219 94.58L77.319 92.56C77.839 92.9867 78.459 93.3267 79.179 93.58C79.9123 93.82 80.6657 93.94 81.439 93.94C82.359 93.94 83.079 93.7533 83.599 93.38C84.1323 92.9933 84.399 92.4667 84.399 91.8C84.399 91.08 84.1123 90.54 83.539 90.18C82.979 89.8067 82.0123 89.62 80.639 89.62H77.259L77.979 82H86.199V84.18H80.179L79.879 87.42H81.219ZM88.7387 89.4H94.2387V91.48H88.7387V89.4ZM106.579 82V83.74L101.139 96H98.3587L103.619 84.2H98.1187V86.58H95.6987V82H106.579ZM113.636 96.2C112.516 96.2 111.516 95.92 110.636 95.36C109.756 94.7867 109.063 93.96 108.556 92.88C108.049 91.7867 107.796 90.4933 107.796 89C107.796 87.5067 108.049 86.22 108.556 85.14C109.063 84.0467 109.756 83.22 110.636 82.66C111.516 82.0867 112.516 81.8 113.636 81.8C114.756 81.8 115.756 82.0867 116.636 82.66C117.529 83.22 118.229 84.0467 118.736 85.14C119.243 86.22 119.496 87.5067 119.496 89C119.496 90.4933 119.243 91.7867 118.736 92.88C118.229 93.96 117.529 94.7867 116.636 95.36C115.756 95.92 114.756 96.2 113.636 96.2ZM113.636 93.94C114.636 93.94 115.423 93.5267 115.996 92.7C116.583 91.8733 116.876 90.64 116.876 89C116.876 87.36 116.583 86.1267 115.996 85.3C115.423 84.4733 114.636 84.06 113.636 84.06C112.649 84.06 111.863 84.4733 111.276 85.3C110.703 86.1267 110.416 87.36 110.416 89C110.416 90.64 110.703 91.8733 111.276 92.7C111.863 93.5267 112.649 93.94 113.636 93.94ZM124.373 89.54C123.373 89.54 122.566 89.1867 121.953 88.48C121.34 87.7733 121.033 86.8467 121.033 85.7C121.033 84.5533 121.34 83.6267 121.953 82.92C122.566 82.2133 123.373 81.86 124.373 81.86C125.373 81.86 126.18 82.2133 126.793 82.92C127.42 83.6133 127.733 84.54 127.733 85.7C127.733 86.86 127.42 87.7933 126.793 88.5C126.18 89.1933 125.373 89.54 124.373 89.54ZM132.773 82H134.733L125.173 96H123.213L132.773 82ZM124.373 88.14C124.92 88.14 125.34 87.9267 125.633 87.5C125.94 87.0733 126.093 86.4733 126.093 85.7C126.093 84.9267 125.94 84.3267 125.633 83.9C125.34 83.4733 124.92 83.26 124.373 83.26C123.853 83.26 123.433 83.48 123.113 83.92C122.806 84.3467 122.653 84.94 122.653 85.7C122.653 86.46 122.806 87.06 123.113 87.5C123.433 87.9267 123.853 88.14 124.373 88.14ZM133.553 96.14C132.553 96.14 131.746 95.7867 131.133 95.08C130.52 94.3733 130.213 93.4467 130.213 92.3C130.213 91.1533 130.52 90.2267 131.133 89.52C131.746 88.8133 132.553 88.46 133.553 88.46C134.553 88.46 135.36 88.8133 135.973 89.52C136.6 90.2267 136.913 91.1533 136.913 92.3C136.913 93.4467 136.6 94.3733 135.973 95.08C135.36 95.7867 134.553 96.14 133.553 96.14ZM133.553 94.74C134.086 94.74 134.506 94.5267 134.813 94.1C135.12 93.66 135.273 93.06 135.273 92.3C135.273 91.54 135.12 90.9467 134.813 90.52C134.506 90.08 134.086 89.86 133.553 89.86C133.02 89.86 132.6 90.0733 132.293 90.5C131.986 90.9267 131.833 91.5267 131.833 92.3C131.833 93.0733 131.986 93.6733 132.293 94.1C132.6 94.5267 133.02 94.74 133.553 94.74Z" fill="white"/>
</svg>
