<svg width="117" height="48" viewBox="0 0 117 48" fill="none" xmlns="http://www.w3.org/2000/svg">
    <path d="M0.982422 35.3987C0.982422 30.894 4.26333 27.2422 8.31053 27.2422C12.3577 27.2422 15.6386 30.894 15.6386 35.3987V39.4769C15.6386 43.9817 12.3577 47.6335 8.31053 47.6335C4.26333 47.6335 0.982422 43.9817 0.982422 39.4769V35.3987Z" fill="#00FCFC"/>
    <path d="M24.5596 28.9717C24.5596 24.8491 27.8405 21.5071 31.8877 21.5071C35.9349 21.5071 39.2158 24.8491 39.2158 28.9717V40.1687C39.2158 44.2913 35.9349 47.6334 31.8877 47.6334C27.8405 47.6334 24.5596 44.2913 24.5596 40.1687V28.9717Z" fill="#00FCFC"/>
    <path fill-rule="evenodd" clip-rule="evenodd" d="M65.3427 40.4114V22.3567C65.3427 18.7288 62.3559 15.772 58.6518 15.772C54.9478 15.772 51.961 18.7288 51.961 22.3567V40.4114C51.961 44.0393 54.9478 46.9961 58.6518 46.9961C62.3559 46.9961 65.3427 44.0393 65.3427 40.4114ZM58.6518 15.1348C54.6046 15.1348 51.3237 18.3681 51.3237 22.3567V40.4114C51.3237 44.4 54.6046 47.6333 58.6518 47.6333C62.699 47.6333 65.98 44.4 65.98 40.4114V22.3567C65.98 18.3681 62.699 15.1348 58.6518 15.1348Z" fill="#00FCFC"/>
    <path fill-rule="evenodd" clip-rule="evenodd" d="M89.5565 40.1023V13.7442C89.5565 9.80006 87.0086 6.85061 84.1401 6.85061C81.2715 6.85061 78.7237 9.80006 78.7237 13.7442V40.1023C78.7237 44.0465 81.2715 46.9959 84.1401 46.9959C87.0086 46.9959 89.5565 44.0465 89.5565 40.1023ZM84.1401 6.21338C80.7967 6.21338 78.0864 9.58506 78.0864 13.7442V40.1023C78.0864 44.2615 80.7967 47.6331 84.1401 47.6331C87.4834 47.6331 90.1937 44.2615 90.1937 40.1023V13.7442C90.1937 9.58506 87.4834 6.21338 84.1401 6.21338Z" fill="#00FCFC"/>
    <path fill-rule="evenodd" clip-rule="evenodd" d="M115.684 40.3785V7.73286C115.684 4.08423 112.694 1.1155 108.993 1.1155C105.291 1.1155 102.302 4.08423 102.302 7.73286V40.3785C102.302 44.0271 105.291 46.9958 108.993 46.9958C112.694 46.9958 115.684 44.0271 115.684 40.3785ZM108.993 0.478271C104.945 0.478271 101.665 3.72626 101.665 7.73286V40.3785C101.665 44.3851 104.945 47.6331 108.993 47.6331C113.04 47.6331 116.321 44.3851 116.321 40.3785V7.73286C116.321 3.72626 113.04 0.478271 108.993 0.478271Z" fill="#00FCFC"/>
</svg>
