<svg width="113" height="331" viewBox="0 0 113 331" fill="none" xmlns="http://www.w3.org/2000/svg">
    <path d="M6.7303 6.49806L19.7464 6.4981L6.73023 19.9793L6.7303 6.49806Z" fill="#00FCFC" fill-opacity="0.7"/>
    <path d="M10.4492 96.2122V24.1479L21.0594 13.8284L23.0046 11.9365L24.7245 10.2166H63.4226L61.1867 13.8284H21.6287H21.0594L10.4492 24.1479V96.2122L20.7687 102.92V147.466L10.4492 139.038V96.2122Z" fill="#00FCFC" fill-opacity="0.7"/>
    <path d="M10.4492 96.2122V24.1479L21.0594 13.8284M10.4492 96.2122L20.7687 102.92V147.466L10.4492 139.038V96.2122ZM21.0594 13.8284L23.0046 11.9365L24.7245 10.2166H63.4225L61.1867 13.8284H21.6287H21.0594Z" stroke="#00FCFC" stroke-width="0.687965" stroke-linecap="round" stroke-linejoin="round"/>
    <path d="M94.5229 321.583L87.6432 328.634H62.5325L67.3483 321.583H94.5229Z" fill="#00FCFC" fill-opacity="0.7"/>
    <path d="M12.311 167.479V328.634H62.5325M111.789 328.634H87.6432M87.6432 328.634L94.5229 321.583H67.3483L62.5325 328.634M87.6432 328.634H62.5325" stroke="#00FCFC" stroke-width="0.687965" stroke-linecap="round" stroke-linejoin="round"/>
    <circle cx="12.7874" cy="327.731" r="3.26784" fill="#00FCFC" fill-opacity="0.7"/>
    <rect x="11.1069" y="220.452" width="2.40788" height="2.40788" fill="#00FCFC" fill-opacity="0.7"/>
    <path d="M15.0628 252.786L15.4068 277.381H16.7828V282.541L14.5469 285.293V277.381H15.4068L15.0628 252.786V247.799L20.5666 243.327V248.315L15.0628 252.786Z" fill="#00FCFC" fill-opacity="0.7"/>
    <path d="M15.4068 277.381L15.0628 252.786M15.4068 277.381H14.5469V285.293L16.7828 282.541V277.381H15.4068ZM15.0628 252.786L20.5666 248.315V243.327L15.0628 247.799V252.786Z" stroke="#00FCFC" stroke-width="0.687965" stroke-linecap="round" stroke-linejoin="round"/>
    <path d="M15.4072 297.16V320.378L21.7709 327.43H63.0488" stroke="#00FCFC" stroke-width="0.687965" stroke-linecap="round" stroke-linejoin="round"/>
</svg>
