<svg width="116" height="48" viewBox="0 0 116 48" fill="none" xmlns="http://www.w3.org/2000/svg">
    <path d="M0.648438 35.3987C0.648438 30.894 3.92934 27.2422 7.97655 27.2422C12.0238 27.2422 15.3047 30.894 15.3047 35.3987V39.4769C15.3047 43.9817 12.0238 47.6335 7.97655 47.6335C3.92934 47.6335 0.648438 43.9817 0.648438 39.4769V35.3987Z" fill="#00FCFC"/>
    <path d="M24.2256 28.9717C24.2256 24.8491 27.5065 21.5071 31.5537 21.5071C35.6009 21.5071 38.8818 24.8491 38.8818 28.9717V40.1687C38.8818 44.2913 35.6009 47.6334 31.5537 47.6334C27.5065 47.6334 24.2256 44.2913 24.2256 40.1687V28.9717Z" fill="#00FCFC"/>
    <path d="M50.9897 22.3567C50.9897 18.3681 54.2707 15.1348 58.3179 15.1348C62.3651 15.1348 65.646 18.3681 65.646 22.3567V40.4114C65.646 44.4 62.3651 47.6333 58.3179 47.6333C54.2707 47.6333 50.9897 44.4 50.9897 40.4114V22.3567Z" fill="#00FCFC"/>
    <path fill-rule="evenodd" clip-rule="evenodd" d="M89.2225 40.1023V13.7442C89.2225 9.80006 86.6747 6.85061 83.8061 6.85061C80.9375 6.85061 78.3897 9.80006 78.3897 13.7442V40.1023C78.3897 44.0465 80.9375 46.9959 83.8061 46.9959C86.6747 46.9959 89.2225 44.0465 89.2225 40.1023ZM83.8061 6.21338C80.4628 6.21338 77.7524 9.58506 77.7524 13.7442V40.1023C77.7524 44.2615 80.4628 47.6331 83.8061 47.6331C87.1494 47.6331 89.8598 44.2615 89.8598 40.1023V13.7442C89.8598 9.58506 87.1494 6.21338 83.8061 6.21338Z" fill="#00FCFC"/>
    <path fill-rule="evenodd" clip-rule="evenodd" d="M115.35 40.3785V7.73286C115.35 4.08423 112.36 1.1155 108.659 1.1155C104.957 1.1155 101.968 4.08423 101.968 7.73286V40.3785C101.968 44.0271 104.957 46.9958 108.659 46.9958C112.36 46.9958 115.35 44.0271 115.35 40.3785ZM108.659 0.478271C104.611 0.478271 101.331 3.72626 101.331 7.73286V40.3785C101.331 44.3851 104.611 47.6331 108.659 47.6331C112.706 47.6331 115.987 44.3851 115.987 40.3785V7.73286C115.987 3.72626 112.706 0.478271 108.659 0.478271Z" fill="#00FCFC"/>
</svg>
