<svg width="200" height="97" viewBox="0 0 200 97" fill="none" xmlns="http://www.w3.org/2000/svg">
    <path d="M102.29 21L102.26 7.08L95.36 18.6H93.62L86.72 7.26V21H83V0H86.21L94.55 13.92L102.74 0H105.95L105.98 21H102.29Z" fill="white"/>
    <path d="M117.412 0V21H113.512V3.27H109.072V0H117.412Z" fill="white"/>
    <path d="M199.57 51.058C199.57 55.2814 196.781 58.705 193.339 58.705L6.26447 58.705C2.82321 58.705 0.0335079 55.2814 0.0335075 51.0581C0.033507 46.8348 2.82319 43.4111 6.26445 43.4111L193.339 43.4111C196.781 43.4111 199.57 46.8347 199.57 51.058Z" fill="#D64730"/>
    <path d="M86.8696 86.42L79.9696 89L86.8696 91.58V93.66L77.6496 90.08V87.92L86.8696 84.34V86.42ZM93.4065 87.42C95.3798 87.42 96.8398 87.8067 97.7865 88.58C98.7332 89.34 99.2065 90.38 99.2065 91.7C99.2065 92.54 98.9998 93.3 98.5865 93.98C98.1732 94.66 97.5532 95.2 96.7265 95.6C95.8998 96 94.8798 96.2 93.6665 96.2C92.6665 96.2 91.6998 96.06 90.7665 95.78C89.8332 95.4867 89.0465 95.0867 88.4065 94.58L89.5065 92.56C90.0265 92.9867 90.6465 93.3267 91.3665 93.58C92.0998 93.82 92.8532 93.94 93.6265 93.94C94.5465 93.94 95.2665 93.7533 95.7865 93.38C96.3198 92.9933 96.5865 92.4667 96.5865 91.8C96.5865 91.08 96.2998 90.54 95.7265 90.18C95.1665 89.8067 94.1998 89.62 92.8265 89.62H89.4465L90.1665 82H98.3865V84.18H92.3665L92.0665 87.42H93.4065ZM105.546 82V96H102.946V84.18H99.9862V82H105.546ZM111.443 89.54C110.443 89.54 109.637 89.1867 109.023 88.48C108.41 87.7733 108.103 86.8467 108.103 85.7C108.103 84.5533 108.41 83.6267 109.023 82.92C109.637 82.2133 110.443 81.86 111.443 81.86C112.443 81.86 113.25 82.2133 113.863 82.92C114.49 83.6133 114.803 84.54 114.803 85.7C114.803 86.86 114.49 87.7933 113.863 88.5C113.25 89.1933 112.443 89.54 111.443 89.54ZM119.843 82H121.803L112.243 96H110.283L119.843 82ZM111.443 88.14C111.99 88.14 112.41 87.9267 112.703 87.5C113.01 87.0733 113.163 86.4733 113.163 85.7C113.163 84.9267 113.01 84.3267 112.703 83.9C112.41 83.4733 111.99 83.26 111.443 83.26C110.923 83.26 110.503 83.48 110.183 83.92C109.877 84.3467 109.723 84.94 109.723 85.7C109.723 86.46 109.877 87.06 110.183 87.5C110.503 87.9267 110.923 88.14 111.443 88.14ZM120.623 96.14C119.623 96.14 118.817 95.7867 118.203 95.08C117.59 94.3733 117.283 93.4467 117.283 92.3C117.283 91.1533 117.59 90.2267 118.203 89.52C118.817 88.8133 119.623 88.46 120.623 88.46C121.623 88.46 122.43 88.8133 123.043 89.52C123.67 90.2267 123.983 91.1533 123.983 92.3C123.983 93.4467 123.67 94.3733 123.043 95.08C122.43 95.7867 121.623 96.14 120.623 96.14ZM120.623 94.74C121.157 94.74 121.577 94.5267 121.883 94.1C122.19 93.66 122.343 93.06 122.343 92.3C122.343 91.54 122.19 90.9467 121.883 90.52C121.577 90.08 121.157 89.86 120.623 89.86C120.09 89.86 119.67 90.0733 119.363 90.5C119.057 90.9267 118.903 91.5267 118.903 92.3C118.903 93.0733 119.057 93.6733 119.363 94.1C119.67 94.5267 120.09 94.74 120.623 94.74Z" fill="white"/>
</svg>
