<svg width="149" height="61" viewBox="0 0 149 61" fill="none" xmlns="http://www.w3.org/2000/svg">
    <path d="M0.00463867 45.1081C0.00463867 39.2891 4.24277 34.5719 9.47076 34.5719C14.6988 34.5719 18.9369 39.2891 18.9369 45.1081V50.3762C18.9369 56.1952 14.6988 60.9124 9.47076 60.9124C4.24277 60.9124 0.00463867 56.1952 0.00463867 50.3762V45.1081Z" fill="white"/>
    <path d="M30.4609 36.8061C30.4609 31.4807 34.699 27.1636 39.927 27.1636C45.155 27.1636 49.3931 31.4807 49.3931 36.8061V51.2699C49.3931 56.5953 45.155 60.9124 39.927 60.9124C34.699 60.9124 30.4609 56.5953 30.4609 51.2699V36.8061Z" fill="white"/>
    <path fill-rule="evenodd" clip-rule="evenodd" d="M83.1419 51.5835V28.2612C83.1419 23.5749 79.2837 19.7554 74.4989 19.7554C69.7142 19.7554 65.8559 23.5749 65.8559 28.2612V51.5835C65.8559 56.2698 69.7142 60.0893 74.4989 60.0893C79.2837 60.0893 83.1419 56.2698 83.1419 51.5835ZM74.4989 18.9323C69.2709 18.9323 65.0328 23.109 65.0328 28.2612V51.5835C65.0328 56.7357 69.2709 60.9124 74.4989 60.9124C79.7269 60.9124 83.965 56.7357 83.965 51.5835V28.2612C83.965 23.109 79.7269 18.9323 74.4989 18.9323Z" fill="white"/>
    <path fill-rule="evenodd" clip-rule="evenodd" d="M114.421 51.1845V17.1364C114.421 12.0414 111.13 8.23147 107.425 8.23147C103.719 8.23147 100.428 12.0414 100.428 17.1364V51.1845C100.428 56.2794 103.719 60.0894 107.425 60.0894C111.13 60.0894 114.421 56.2794 114.421 51.1845ZM107.425 7.40833C103.106 7.40833 99.6047 11.7637 99.6047 17.1364V51.1845C99.6047 56.5571 103.106 60.9125 107.425 60.9125C111.743 60.9125 115.244 56.5571 115.244 51.1845V17.1364C115.244 11.7637 111.743 7.40833 107.425 7.40833Z" fill="white"/>
    <path fill-rule="evenodd" clip-rule="evenodd" d="M148.17 51.5413V9.37114C148.17 4.65802 144.308 0.823141 139.527 0.823141C134.746 0.823141 130.884 4.65802 130.884 9.37114V51.5413C130.884 56.2544 134.746 60.0893 139.527 60.0893C144.308 60.0893 148.17 56.2544 148.17 51.5413ZM139.527 0C134.299 0 130.061 4.1956 130.061 9.37114V51.5413C130.061 56.7168 134.299 60.9124 139.527 60.9124C144.755 60.9124 148.993 56.7168 148.993 51.5413V9.37114C148.993 4.1956 144.755 0 139.527 0Z" fill="white"/>
</svg>
