<svg width="116" height="48" viewBox="0 0 116 48" fill="none" xmlns="http://www.w3.org/2000/svg">
    <path d="M0.123047 35.3987C0.123047 30.894 3.40395 27.2422 7.45116 27.2422C11.4984 27.2422 14.7793 30.894 14.7793 35.3987V39.4769C14.7793 43.9817 11.4984 47.6335 7.45116 47.6335C3.40395 47.6335 0.123047 43.9817 0.123047 39.4769V35.3987Z" fill="#00FCFC"/>
    <path fill-rule="evenodd" clip-rule="evenodd" d="M37.7192 40.1687V28.9717C37.7192 25.1899 34.7125 22.1443 31.0283 22.1443C27.3441 22.1443 24.3374 25.1899 24.3374 28.9717V40.1687C24.3374 43.9506 27.3441 46.9962 31.0283 46.9962C34.7125 46.9962 37.7192 43.9506 37.7192 40.1687ZM31.0283 21.5071C26.9811 21.5071 23.7002 24.8491 23.7002 28.9717V40.1687C23.7002 44.2913 26.9811 47.6334 31.0283 47.6334C35.0755 47.6334 38.3564 44.2913 38.3564 40.1687V28.9717C38.3564 24.8491 35.0755 21.5071 31.0283 21.5071Z" fill="#00FCFC"/>
    <path fill-rule="evenodd" clip-rule="evenodd" d="M64.4833 40.4114V22.3567C64.4833 18.7288 61.4965 15.772 57.7925 15.772C54.0884 15.772 51.1016 18.7288 51.1016 22.3567V40.4114C51.1016 44.0393 54.0884 46.9961 57.7925 46.9961C61.4965 46.9961 64.4833 44.0393 64.4833 40.4114ZM57.7925 15.1348C53.7453 15.1348 50.4644 18.3681 50.4644 22.3567V40.4114C50.4644 44.4 53.7453 47.6333 57.7925 47.6333C61.8397 47.6333 65.1206 44.4 65.1206 40.4114V22.3567C65.1206 18.3681 61.8397 15.1348 57.7925 15.1348Z" fill="#00FCFC"/>
    <path fill-rule="evenodd" clip-rule="evenodd" d="M88.6971 40.1023V13.7442C88.6971 9.80006 86.1493 6.85061 83.2807 6.85061C80.4121 6.85061 77.8643 9.80006 77.8643 13.7442V40.1023C77.8643 44.0465 80.4121 46.9959 83.2807 46.9959C86.1493 46.9959 88.6971 44.0465 88.6971 40.1023ZM83.2807 6.21338C79.9374 6.21338 77.2271 9.58506 77.2271 13.7442V40.1023C77.2271 44.2615 79.9374 47.6331 83.2807 47.6331C86.624 47.6331 89.3344 44.2615 89.3344 40.1023V13.7442C89.3344 9.58506 86.624 6.21338 83.2807 6.21338Z" fill="#00FCFC"/>
    <path fill-rule="evenodd" clip-rule="evenodd" d="M114.824 40.3785V7.73286C114.824 4.08423 111.835 1.1155 108.133 1.1155C104.432 1.1155 101.442 4.08423 101.442 7.73286V40.3785C101.442 44.0271 104.432 46.9958 108.133 46.9958C111.835 46.9958 114.824 44.0271 114.824 40.3785ZM108.133 0.478271C104.086 0.478271 100.805 3.72626 100.805 7.73286V40.3785C100.805 44.3851 104.086 47.6331 108.133 47.6331C112.18 47.6331 115.461 44.3851 115.461 40.3785V7.73286C115.461 3.72626 112.18 0.478271 108.133 0.478271Z" fill="#00FCFC"/>
</svg>
