<svg width="201" height="96" viewBox="0 0 201 96" fill="none" xmlns="http://www.w3.org/2000/svg">
    <path d="M88.16 87.6403C88.8933 87.9736 89.4533 88.427 89.84 89.0003C90.24 89.5603 90.44 90.2203 90.44 90.9803C90.44 91.8336 90.2 92.5803 89.72 93.2203C89.2533 93.8603 88.5867 94.3536 87.72 94.7003C86.8533 95.0336 85.8467 95.2003 84.7 95.2003C83.5533 95.2003 82.5467 95.0336 81.68 94.7003C80.8267 94.3536 80.1667 93.8603 79.7 93.2203C79.2333 92.5803 79 91.8336 79 90.9803C79 90.2203 79.1933 89.5603 79.58 89.0003C79.9667 88.427 80.52 87.9736 81.24 87.6403C80.68 87.3336 80.2467 86.9336 79.94 86.4403C79.6467 85.9336 79.5 85.3536 79.5 84.7003C79.5 83.9136 79.7133 83.227 80.14 82.6403C80.58 82.0536 81.1933 81.6003 81.98 81.2803C82.7667 80.9603 83.6733 80.8003 84.7 80.8003C85.74 80.8003 86.6533 80.9603 87.44 81.2803C88.2267 81.6003 88.84 82.0536 89.28 82.6403C89.72 83.227 89.94 83.9136 89.94 84.7003C89.94 85.3536 89.7867 85.927 89.48 86.4203C89.1733 86.9136 88.7333 87.3203 88.16 87.6403ZM84.7 82.8403C83.8867 82.8403 83.24 83.0136 82.76 83.3603C82.2933 83.707 82.06 84.1936 82.06 84.8203C82.06 85.4203 82.2933 85.9003 82.76 86.2603C83.24 86.607 83.8867 86.7803 84.7 86.7803C85.5267 86.7803 86.18 86.607 86.66 86.2603C87.14 85.9003 87.38 85.4203 87.38 84.8203C87.38 84.1936 87.1333 83.707 86.64 83.3603C86.16 83.0136 85.5133 82.8403 84.7 82.8403ZM84.7 93.1603C85.66 93.1603 86.42 92.9603 86.98 92.5603C87.54 92.1603 87.82 91.607 87.82 90.9003C87.82 90.207 87.54 89.6603 86.98 89.2603C86.42 88.8603 85.66 88.6603 84.7 88.6603C83.74 88.6603 82.9867 88.8603 82.44 89.2603C81.8933 89.6603 81.62 90.207 81.62 90.9003C81.62 91.607 81.8933 92.1603 82.44 92.5603C82.9867 92.9603 83.74 93.1603 84.7 93.1603Z" fill="white"/>
    <path d="M97.9669 95.2003C96.8469 95.2003 95.8469 94.9203 94.9669 94.3603C94.0869 93.787 93.3935 92.9603 92.8869 91.8803C92.3802 90.787 92.1269 89.4936 92.1269 88.0003C92.1269 86.507 92.3802 85.2203 92.8869 84.1403C93.3935 83.047 94.0869 82.2203 94.9669 81.6603C95.8469 81.087 96.8469 80.8003 97.9669 80.8003C99.0869 80.8003 100.087 81.087 100.967 81.6603C101.86 82.2203 102.56 83.047 103.067 84.1403C103.574 85.2203 103.827 86.507 103.827 88.0003C103.827 89.4936 103.574 90.787 103.067 91.8803C102.56 92.9603 101.86 93.787 100.967 94.3603C100.087 94.9203 99.0869 95.2003 97.9669 95.2003ZM97.9669 92.9403C98.9669 92.9403 99.7535 92.527 100.327 91.7003C100.914 90.8736 101.207 89.6403 101.207 88.0003C101.207 86.3603 100.914 85.127 100.327 84.3003C99.7535 83.4736 98.9669 83.0603 97.9669 83.0603C96.9802 83.0603 96.1935 83.4736 95.6069 84.3003C95.0335 85.127 94.7469 86.3603 94.7469 88.0003C94.7469 89.6403 95.0335 90.8736 95.6069 91.7003C96.1935 92.527 96.9802 92.9403 97.9669 92.9403Z" fill="white"/>
    <path d="M108.704 88.5403C107.704 88.5403 106.897 88.187 106.284 87.4803C105.671 86.7736 105.364 85.847 105.364 84.7003C105.364 83.5536 105.671 82.627 106.284 81.9203C106.897 81.2136 107.704 80.8603 108.704 80.8603C109.704 80.8603 110.511 81.2136 111.124 81.9203C111.751 82.6136 112.064 83.5403 112.064 84.7003C112.064 85.8603 111.751 86.7936 111.124 87.5003C110.511 88.1936 109.704 88.5403 108.704 88.5403ZM117.104 81.0003H119.064L109.504 95.0003H107.544L117.104 81.0003ZM108.704 87.1403C109.251 87.1403 109.671 86.927 109.964 86.5003C110.271 86.0736 110.424 85.4736 110.424 84.7003C110.424 83.927 110.271 83.327 109.964 82.9003C109.671 82.4736 109.251 82.2603 108.704 82.2603C108.184 82.2603 107.764 82.4803 107.444 82.9203C107.137 83.347 106.984 83.9403 106.984 84.7003C106.984 85.4603 107.137 86.0603 107.444 86.5003C107.764 86.927 108.184 87.1403 108.704 87.1403ZM117.884 95.1403C116.884 95.1403 116.077 94.787 115.464 94.0803C114.851 93.3736 114.544 92.447 114.544 91.3003C114.544 90.1536 114.851 89.227 115.464 88.5203C116.077 87.8136 116.884 87.4603 117.884 87.4603C118.884 87.4603 119.691 87.8136 120.304 88.5203C120.931 89.227 121.244 90.1536 121.244 91.3003C121.244 92.447 120.931 93.3736 120.304 94.0803C119.691 94.787 118.884 95.1403 117.884 95.1403ZM117.884 93.7403C118.417 93.7403 118.837 93.527 119.144 93.1003C119.451 92.6603 119.604 92.0603 119.604 91.3003C119.604 90.5403 119.451 89.947 119.144 89.5203C118.837 89.0803 118.417 88.8603 117.884 88.8603C117.351 88.8603 116.931 89.0736 116.624 89.5003C116.317 89.927 116.164 90.527 116.164 91.3003C116.164 92.0736 116.317 92.6736 116.624 93.1003C116.931 93.527 117.351 93.7403 117.884 93.7403Z" fill="white"/>
    <path d="M200.23 52.0581C200.23 56.2814 197.441 59.7051 194 59.7051L6.92456 59.7051C3.48329 59.7051 0.693603 56.2814 0.693603 52.0581C0.693602 47.8348 3.48329 44.4112 6.92456 44.4112L194 44.4111C197.441 44.4111 200.23 47.8348 200.23 52.0581Z" fill="#DEF55B"/>
    <path d="M88.29 22.0002L88.26 8.0802L81.36 19.6002H79.62L72.72 8.2602V22.0002H69V1.0002H72.21L80.55 14.9202L88.74 1.0002H91.95L91.98 22.0002H88.29Z" fill="white"/>
    <path d="M105.092 9.6702C107.032 9.9102 108.512 10.5702 109.532 11.6502C110.552 12.7302 111.062 14.0802 111.062 15.7002C111.062 16.9202 110.752 18.0302 110.132 19.0302C109.512 20.0302 108.572 20.8302 107.312 21.4302C106.072 22.0102 104.552 22.3002 102.752 22.3002C101.252 22.3002 99.8023 22.0902 98.4023 21.6702C97.0223 21.2302 95.8423 20.6302 94.8623 19.8702L96.5423 16.8402C97.3023 17.4802 98.2223 17.9902 99.3023 18.3702C100.402 18.7302 101.532 18.9102 102.692 18.9102C104.072 18.9102 105.152 18.6302 105.932 18.0702C106.732 17.4902 107.132 16.7102 107.132 15.7302C107.132 14.7502 106.752 13.9902 105.992 13.4502C105.252 12.8902 104.112 12.6102 102.572 12.6102H100.652V9.9402L105.422 4.2702H95.8823V1.0002H110.192V3.6102L105.092 9.6702Z" fill="white"/>
    <path d="M122.373 22.3002C120.693 22.3002 119.193 21.8802 117.873 21.0402C116.553 20.1802 115.513 18.9402 114.753 17.3202C113.993 15.6802 113.613 13.7402 113.613 11.5002C113.613 9.2602 113.993 7.3302 114.753 5.7102C115.513 4.0702 116.553 2.8302 117.873 1.99019C119.193 1.13019 120.693 0.700195 122.373 0.700195C124.053 0.700195 125.553 1.13019 126.873 1.99019C128.213 2.8302 129.263 4.0702 130.023 5.7102C130.783 7.3302 131.163 9.2602 131.163 11.5002C131.163 13.7402 130.783 15.6802 130.023 17.3202C129.263 18.9402 128.213 20.1802 126.873 21.0402C125.553 21.8802 124.053 22.3002 122.373 22.3002ZM122.373 18.9102C123.873 18.9102 125.053 18.2902 125.913 17.0502C126.793 15.8102 127.233 13.9602 127.233 11.5002C127.233 9.0402 126.793 7.1902 125.913 5.9502C125.053 4.7102 123.873 4.0902 122.373 4.0902C120.893 4.0902 119.713 4.7102 118.833 5.9502C117.973 7.1902 117.543 9.0402 117.543 11.5002C117.543 13.9602 117.973 15.8102 118.833 17.0502C119.713 18.2902 120.893 18.9102 122.373 18.9102Z" fill="white"/>
</svg>
