<svg width="201" height="97" viewBox="0 0 201 97" fill="none" xmlns="http://www.w3.org/2000/svg">
    <path d="M94.29 21L94.26 7.08L87.36 18.6H85.62L78.72 7.26V21H75V0H78.21L86.55 13.92L94.74 0H97.95L97.98 21H94.29Z" fill="white"/>
    <path d="M109.412 0V21H105.512V3.27H101.072V0H109.412Z" fill="white"/>
    <path d="M120.148 8.13C123.108 8.13 125.298 8.71 126.718 9.87C128.138 11.01 128.848 12.57 128.848 14.55C128.848 15.81 128.538 16.95 127.918 17.97C127.298 18.99 126.368 19.8 125.128 20.4C123.888 21 122.358 21.3 120.538 21.3C119.038 21.3 117.588 21.09 116.188 20.67C114.788 20.23 113.608 19.63 112.648 18.87L114.298 15.84C115.078 16.48 116.008 16.99 117.088 17.37C118.188 17.73 119.318 17.91 120.478 17.91C121.858 17.91 122.938 17.63 123.718 17.07C124.518 16.49 124.918 15.7 124.918 14.7C124.918 13.62 124.488 12.81 123.628 12.27C122.788 11.71 121.338 11.43 119.278 11.43H114.208L115.288 0H127.618V3.27H118.588L118.138 8.13H120.148Z" fill="white"/>
    <path d="M200.348 51.058C200.348 55.2814 197.558 58.705 194.117 58.705L7.04187 58.705C3.60062 58.705 0.810913 55.2814 0.810912 51.0581C0.810912 46.8348 3.60061 43.4111 7.04187 43.4111L194.117 43.4111C197.558 43.4111 200.348 46.8347 200.348 51.058Z" fill="#FDE370"/>
    <path d="M69.6311 87.42C71.6044 87.42 73.0644 87.8067 74.0111 88.58C74.9578 89.34 75.4311 90.38 75.4311 91.7C75.4311 92.54 75.2244 93.3 74.8111 93.98C74.3978 94.66 73.7778 95.2 72.9511 95.6C72.1244 96 71.1044 96.2 69.8911 96.2C68.8911 96.2 67.9244 96.06 66.9911 95.78C66.0578 95.4867 65.2711 95.0867 64.6311 94.58L65.7311 92.56C66.2511 92.9867 66.8711 93.3267 67.5911 93.58C68.3244 93.82 69.0778 93.94 69.8511 93.94C70.7711 93.94 71.4911 93.7533 72.0111 93.38C72.5444 92.9933 72.8111 92.4667 72.8111 91.8C72.8111 91.08 72.5244 90.54 71.9511 90.18C71.3911 89.8067 70.4244 89.62 69.0511 89.62H65.6711L66.3911 82H74.6111V84.18H68.5911L68.2911 87.42H69.6311ZM81.2131 87.42C83.1865 87.42 84.6465 87.8067 85.5931 88.58C86.5398 89.34 87.0131 90.38 87.0131 91.7C87.0131 92.54 86.8065 93.3 86.3931 93.98C85.9798 94.66 85.3598 95.2 84.5331 95.6C83.7065 96 82.6865 96.2 81.4731 96.2C80.4731 96.2 79.5065 96.06 78.5731 95.78C77.6398 95.4867 76.8531 95.0867 76.2131 94.58L77.3131 92.56C77.8331 92.9867 78.4531 93.3267 79.1731 93.58C79.9065 93.82 80.6598 93.94 81.4331 93.94C82.3531 93.94 83.0731 93.7533 83.5931 93.38C84.1265 92.9933 84.3931 92.4667 84.3931 91.8C84.3931 91.08 84.1065 90.54 83.5331 90.18C82.9731 89.8067 82.0065 89.62 80.6331 89.62H77.2531L77.9731 82H86.1931V84.18H80.1731L79.8731 87.42H81.2131ZM88.7328 89.4H94.2328V91.48H88.7328V89.4ZM102.666 87.36C103.586 87.36 104.412 87.54 105.146 87.9C105.879 88.2467 106.452 88.7467 106.866 89.4C107.279 90.0533 107.486 90.8067 107.486 91.66C107.486 92.5667 107.259 93.3667 106.806 94.06C106.352 94.74 105.739 95.2667 104.966 95.64C104.192 96.0133 103.326 96.2 102.366 96.2C100.446 96.2 98.9524 95.6 97.8858 94.4C96.8324 93.2 96.3058 91.48 96.3058 89.24C96.3058 87.6667 96.5924 86.3267 97.1658 85.22C97.7391 84.1 98.5391 83.2533 99.5658 82.68C100.606 82.0933 101.806 81.8 103.166 81.8C103.886 81.8 104.559 81.88 105.186 82.04C105.826 82.1867 106.379 82.4067 106.846 82.7L105.886 84.66C105.192 84.2067 104.306 83.98 103.226 83.98C101.879 83.98 100.826 84.3933 100.066 85.22C99.3058 86.0467 98.9258 87.24 98.9258 88.8V88.82C99.3391 88.34 99.8658 87.98 100.506 87.74C101.146 87.4867 101.866 87.36 102.666 87.36ZM102.226 94.16C103.039 94.16 103.699 93.9467 104.206 93.52C104.712 93.08 104.966 92.5 104.966 91.78C104.966 91.0467 104.712 90.4667 104.206 90.04C103.699 89.6133 103.019 89.4 102.166 89.4C101.326 89.4 100.639 89.6267 100.106 90.08C99.5858 90.5333 99.3258 91.1067 99.3258 91.8C99.3258 92.48 99.5791 93.0467 100.086 93.5C100.606 93.94 101.319 94.16 102.226 94.16ZM114.685 96.2C113.565 96.2 112.565 95.92 111.685 95.36C110.805 94.7867 110.112 93.96 109.605 92.88C109.098 91.7867 108.845 90.4933 108.845 89C108.845 87.5067 109.098 86.22 109.605 85.14C110.112 84.0467 110.805 83.22 111.685 82.66C112.565 82.0867 113.565 81.8 114.685 81.8C115.805 81.8 116.805 82.0867 117.685 82.66C118.578 83.22 119.278 84.0467 119.785 85.14C120.292 86.22 120.545 87.5067 120.545 89C120.545 90.4933 120.292 91.7867 119.785 92.88C119.278 93.96 118.578 94.7867 117.685 95.36C116.805 95.92 115.805 96.2 114.685 96.2ZM114.685 93.94C115.685 93.94 116.472 93.5267 117.045 92.7C117.632 91.8733 117.925 90.64 117.925 89C117.925 87.36 117.632 86.1267 117.045 85.3C116.472 84.4733 115.685 84.06 114.685 84.06C113.698 84.06 112.912 84.4733 112.325 85.3C111.752 86.1267 111.465 87.36 111.465 89C111.465 90.64 111.752 91.8733 112.325 92.7C112.912 93.5267 113.698 93.94 114.685 93.94ZM125.422 89.54C124.422 89.54 123.615 89.1867 123.002 88.48C122.389 87.7733 122.082 86.8467 122.082 85.7C122.082 84.5533 122.389 83.6267 123.002 82.92C123.615 82.2133 124.422 81.86 125.422 81.86C126.422 81.86 127.229 82.2133 127.842 82.92C128.469 83.6133 128.782 84.54 128.782 85.7C128.782 86.86 128.469 87.7933 127.842 88.5C127.229 89.1933 126.422 89.54 125.422 89.54ZM133.822 82H135.782L126.222 96H124.262L133.822 82ZM125.422 88.14C125.969 88.14 126.389 87.9267 126.682 87.5C126.989 87.0733 127.142 86.4733 127.142 85.7C127.142 84.9267 126.989 84.3267 126.682 83.9C126.389 83.4733 125.969 83.26 125.422 83.26C124.902 83.26 124.482 83.48 124.162 83.92C123.855 84.3467 123.702 84.94 123.702 85.7C123.702 86.46 123.855 87.06 124.162 87.5C124.482 87.9267 124.902 88.14 125.422 88.14ZM134.602 96.14C133.602 96.14 132.795 95.7867 132.182 95.08C131.569 94.3733 131.262 93.4467 131.262 92.3C131.262 91.1533 131.569 90.2267 132.182 89.52C132.795 88.8133 133.602 88.46 134.602 88.46C135.602 88.46 136.409 88.8133 137.022 89.52C137.649 90.2267 137.962 91.1533 137.962 92.3C137.962 93.4467 137.649 94.3733 137.022 95.08C136.409 95.7867 135.602 96.14 134.602 96.14ZM134.602 94.74C135.135 94.74 135.555 94.5267 135.862 94.1C136.169 93.66 136.322 93.06 136.322 92.3C136.322 91.54 136.169 90.9467 135.862 90.52C135.555 90.08 135.135 89.86 134.602 89.86C134.069 89.86 133.649 90.0733 133.342 90.5C133.035 90.9267 132.882 91.5267 132.882 92.3C132.882 93.0733 133.035 93.6733 133.342 94.1C133.649 94.5267 134.069 94.74 134.602 94.74Z" fill="white"/>
</svg>
