<svg width="201" height="98" viewBox="0 0 201 98" fill="none" xmlns="http://www.w3.org/2000/svg">
    <path d="M88.29 22.0002L88.26 8.0802L81.36 19.6002H79.62L72.72 8.2602V22.0002H69V1.0002H72.21L80.55 14.9202L88.74 1.0002H91.95L91.98 22.0002H88.29Z" fill="white"/>
    <path d="M105.092 9.6702C107.032 9.9102 108.512 10.5702 109.532 11.6502C110.552 12.7302 111.062 14.0802 111.062 15.7002C111.062 16.9202 110.752 18.0302 110.132 19.0302C109.512 20.0302 108.572 20.8302 107.312 21.4302C106.072 22.0102 104.552 22.3002 102.752 22.3002C101.252 22.3002 99.8023 22.0902 98.4023 21.6702C97.0223 21.2302 95.8423 20.6302 94.8623 19.8702L96.5423 16.8402C97.3023 17.4802 98.2223 17.9902 99.3023 18.3702C100.402 18.7302 101.532 18.9102 102.692 18.9102C104.072 18.9102 105.152 18.6302 105.932 18.0702C106.732 17.4902 107.132 16.7102 107.132 15.7302C107.132 14.7502 106.752 13.9902 105.992 13.4502C105.252 12.8902 104.112 12.6102 102.572 12.6102H100.652V9.9402L105.422 4.2702H95.8823V1.0002H110.192V3.6102L105.092 9.6702Z" fill="white"/>
    <path d="M122.373 22.3002C120.693 22.3002 119.193 21.8802 117.873 21.0402C116.553 20.1802 115.513 18.9402 114.753 17.3202C113.993 15.6802 113.613 13.7402 113.613 11.5002C113.613 9.2602 113.993 7.3302 114.753 5.7102C115.513 4.0702 116.553 2.8302 117.873 1.99019C119.193 1.13019 120.693 0.700195 122.373 0.700195C124.053 0.700195 125.553 1.13019 126.873 1.99019C128.213 2.8302 129.263 4.0702 130.023 5.7102C130.783 7.3302 131.163 9.2602 131.163 11.5002C131.163 13.7402 130.783 15.6802 130.023 17.3202C129.263 18.9402 128.213 20.1802 126.873 21.0402C125.553 21.8802 124.053 22.3002 122.373 22.3002ZM122.373 18.9102C123.873 18.9102 125.053 18.2902 125.913 17.0502C126.793 15.8102 127.233 13.9602 127.233 11.5002C127.233 9.0402 126.793 7.1902 125.913 5.9502C125.053 4.7102 123.873 4.0902 122.373 4.0902C120.893 4.0902 119.713 4.7102 118.833 5.9502C117.973 7.1902 117.543 9.0402 117.543 11.5002C117.543 13.9602 117.973 15.8102 118.833 17.0502C119.713 18.2902 120.893 18.9102 122.373 18.9102Z" fill="white"/>
    <path d="M200.23 52.058C200.23 56.2814 197.441 59.705 194 59.705L6.92456 59.705C3.48329 59.705 0.693603 56.2814 0.693603 52.0581C0.693602 47.8348 3.48329 44.4111 6.92456 44.4111L194 44.4111C197.441 44.4111 200.23 47.8347 200.23 52.058Z" fill="#DEF55B"/>
    <path d="M69.6814 88.36C70.6014 88.36 71.4281 88.54 72.1614 88.9C72.8947 89.2467 73.4681 89.7467 73.8814 90.4C74.2947 91.0533 74.5014 91.8067 74.5014 92.66C74.5014 93.5667 74.2747 94.3667 73.8214 95.06C73.3681 95.74 72.7547 96.2667 71.9814 96.64C71.2081 97.0133 70.3414 97.2 69.3814 97.2C67.4614 97.2 65.9681 96.6 64.9014 95.4C63.8481 94.2 63.3214 92.48 63.3214 90.24C63.3214 88.6667 63.6081 87.3267 64.1814 86.22C64.7547 85.1 65.5547 84.2533 66.5814 83.68C67.6214 83.0933 68.8214 82.8 70.1814 82.8C70.9014 82.8 71.5747 82.88 72.2014 83.04C72.8414 83.1867 73.3947 83.4067 73.8614 83.7L72.9014 85.66C72.2081 85.2067 71.3214 84.98 70.2414 84.98C68.8947 84.98 67.8414 85.3933 67.0814 86.22C66.3214 87.0467 65.9414 88.24 65.9414 89.8V89.82C66.3547 89.34 66.8814 88.98 67.5214 88.74C68.1614 88.4867 68.8814 88.36 69.6814 88.36ZM69.2414 95.16C70.0547 95.16 70.7147 94.9467 71.2214 94.52C71.7281 94.08 71.9814 93.5 71.9814 92.78C71.9814 92.0467 71.7281 91.4667 71.2214 91.04C70.7147 90.6133 70.0347 90.4 69.1814 90.4C68.3414 90.4 67.6547 90.6267 67.1214 91.08C66.6014 91.5333 66.3414 92.1067 66.3414 92.8C66.3414 93.48 66.5947 94.0467 67.1014 94.5C67.6214 94.94 68.3347 95.16 69.2414 95.16ZM81.7005 97.2C80.5805 97.2 79.5805 96.92 78.7005 96.36C77.8205 95.7867 77.1271 94.96 76.6205 93.88C76.1138 92.7867 75.8605 91.4933 75.8605 90C75.8605 88.5067 76.1138 87.22 76.6205 86.14C77.1271 85.0467 77.8205 84.22 78.7005 83.66C79.5805 83.0867 80.5805 82.8 81.7005 82.8C82.8205 82.8 83.8205 83.0867 84.7005 83.66C85.5938 84.22 86.2938 85.0467 86.8005 86.14C87.3071 87.22 87.5605 88.5067 87.5605 90C87.5605 91.4933 87.3071 92.7867 86.8005 93.88C86.2938 94.96 85.5938 95.7867 84.7005 96.36C83.8205 96.92 82.8205 97.2 81.7005 97.2ZM81.7005 94.94C82.7005 94.94 83.4871 94.5267 84.0605 93.7C84.6471 92.8733 84.9405 91.64 84.9405 90C84.9405 88.36 84.6471 87.1267 84.0605 86.3C83.4871 85.4733 82.7005 85.06 81.7005 85.06C80.7138 85.06 79.9271 85.4733 79.3405 86.3C78.7671 87.1267 78.4805 88.36 78.4805 90C78.4805 91.64 78.7671 92.8733 79.3405 93.7C79.9271 94.5267 80.7138 94.94 81.7005 94.94ZM89.6352 90.4H95.1352V92.48H89.6352V90.4ZM103.568 88.36C104.488 88.36 105.315 88.54 106.048 88.9C106.781 89.2467 107.355 89.7467 107.768 90.4C108.181 91.0533 108.388 91.8067 108.388 92.66C108.388 93.5667 108.161 94.3667 107.708 95.06C107.255 95.74 106.641 96.2667 105.868 96.64C105.095 97.0133 104.228 97.2 103.268 97.2C101.348 97.2 99.8548 96.6 98.7881 95.4C97.7348 94.2 97.2081 92.48 97.2081 90.24C97.2081 88.6667 97.4948 87.3267 98.0681 86.22C98.6415 85.1 99.4415 84.2533 100.468 83.68C101.508 83.0933 102.708 82.8 104.068 82.8C104.788 82.8 105.461 82.88 106.088 83.04C106.728 83.1867 107.281 83.4067 107.748 83.7L106.788 85.66C106.095 85.2067 105.208 84.98 104.128 84.98C102.781 84.98 101.728 85.3933 100.968 86.22C100.208 87.0467 99.8281 88.24 99.8281 89.8V89.82C100.241 89.34 100.768 88.98 101.408 88.74C102.048 88.4867 102.768 88.36 103.568 88.36ZM103.128 95.16C103.941 95.16 104.601 94.9467 105.108 94.52C105.615 94.08 105.868 93.5 105.868 92.78C105.868 92.0467 105.615 91.4667 105.108 91.04C104.601 90.6133 103.921 90.4 103.068 90.4C102.228 90.4 101.541 90.6267 101.008 91.08C100.488 91.5333 100.228 92.1067 100.228 92.8C100.228 93.48 100.481 94.0467 100.988 94.5C101.508 94.94 102.221 95.16 103.128 95.16ZM114.127 88.42C116.101 88.42 117.561 88.8067 118.507 89.58C119.454 90.34 119.927 91.38 119.927 92.7C119.927 93.54 119.721 94.3 119.307 94.98C118.894 95.66 118.274 96.2 117.447 96.6C116.621 97 115.601 97.2 114.387 97.2C113.387 97.2 112.421 97.06 111.487 96.78C110.554 96.4867 109.767 96.0867 109.127 95.58L110.227 93.56C110.747 93.9867 111.367 94.3267 112.087 94.58C112.821 94.82 113.574 94.94 114.347 94.94C115.267 94.94 115.987 94.7533 116.507 94.38C117.041 93.9933 117.307 93.4667 117.307 92.8C117.307 92.08 117.021 91.54 116.447 91.18C115.887 90.8067 114.921 90.62 113.547 90.62H110.167L110.887 83H119.107V85.18H113.087L112.787 88.42H114.127ZM124.352 90.54C123.352 90.54 122.545 90.1867 121.932 89.48C121.318 88.7733 121.012 87.8467 121.012 86.7C121.012 85.5533 121.318 84.6267 121.932 83.92C122.545 83.2133 123.352 82.86 124.352 82.86C125.352 82.86 126.158 83.2133 126.772 83.92C127.398 84.6133 127.712 85.54 127.712 86.7C127.712 87.86 127.398 88.7933 126.772 89.5C126.158 90.1933 125.352 90.54 124.352 90.54ZM132.752 83H134.712L125.152 97H123.192L132.752 83ZM124.352 89.14C124.898 89.14 125.318 88.9267 125.612 88.5C125.918 88.0733 126.072 87.4733 126.072 86.7C126.072 85.9267 125.918 85.3267 125.612 84.9C125.318 84.4733 124.898 84.26 124.352 84.26C123.832 84.26 123.412 84.48 123.092 84.92C122.785 85.3467 122.632 85.94 122.632 86.7C122.632 87.46 122.785 88.06 123.092 88.5C123.412 88.9267 123.832 89.14 124.352 89.14ZM133.532 97.14C132.532 97.14 131.725 96.7867 131.112 96.08C130.498 95.3733 130.192 94.4467 130.192 93.3C130.192 92.1533 130.498 91.2267 131.112 90.52C131.725 89.8133 132.532 89.46 133.532 89.46C134.532 89.46 135.338 89.8133 135.952 90.52C136.578 91.2267 136.892 92.1533 136.892 93.3C136.892 94.4467 136.578 95.3733 135.952 96.08C135.338 96.7867 134.532 97.14 133.532 97.14ZM133.532 95.74C134.065 95.74 134.485 95.5267 134.792 95.1C135.098 94.66 135.252 94.06 135.252 93.3C135.252 92.54 135.098 91.9467 134.792 91.52C134.485 91.08 134.065 90.86 133.532 90.86C132.998 90.86 132.578 91.0733 132.272 91.5C131.965 91.9267 131.812 92.5267 131.812 93.3C131.812 94.0733 131.965 94.6733 132.272 95.1C132.578 95.5267 132.998 95.74 133.532 95.74Z" fill="white"/>
</svg>
