<svg width="200" height="95" viewBox="0 0 200 95" fill="none" xmlns="http://www.w3.org/2000/svg">
    <path d="M72 85.42C73.9733 85.42 75.4333 85.8067 76.38 86.58C77.3267 87.34 77.8 88.38 77.8 89.7C77.8 90.54 77.5933 91.3 77.18 91.98C76.7667 92.66 76.1467 93.2001 75.32 93.6C74.4933 94 73.4733 94.2001 72.26 94.2001C71.26 94.2001 70.2933 94.0601 69.36 93.7801C68.4267 93.4867 67.64 93.0867 67 92.58L68.1 90.56C68.62 90.9867 69.24 91.3267 69.96 91.58C70.6933 91.82 71.4467 91.9401 72.22 91.9401C73.14 91.9401 73.86 91.7534 74.38 91.38C74.9133 90.9934 75.18 90.4667 75.18 89.8C75.18 89.08 74.8933 88.5401 74.32 88.18C73.76 87.8067 72.7933 87.62 71.42 87.62H68.04L68.76 80H76.98V82.18H70.96L70.66 85.42H72Z" fill="white"/>
    <path d="M89.342 91.8V94H79.022V92.26L84.582 86.98C85.2087 86.38 85.6287 85.86 85.842 85.42C86.0687 84.9667 86.182 84.52 86.182 84.08C86.182 83.4267 85.962 82.9267 85.522 82.58C85.082 82.2334 84.4354 82.06 83.582 82.06C82.1554 82.06 81.062 82.5467 80.302 83.52L78.482 82.12C79.0287 81.3867 79.762 80.82 80.682 80.42C81.6154 80.0067 82.6554 79.8 83.802 79.8C85.322 79.8 86.5354 80.16 87.442 80.88C88.3487 81.6 88.802 82.58 88.802 83.82C88.802 84.58 88.642 85.2934 88.322 85.96C88.002 86.6267 87.3887 87.3867 86.482 88.24L82.742 91.8H89.342Z" fill="white"/>
    <path d="M94.158 87.54C93.158 87.54 92.3513 87.1867 91.738 86.48C91.1246 85.7734 90.818 84.8467 90.818 83.7C90.818 82.5534 91.1246 81.6267 91.738 80.92C92.3513 80.2134 93.158 79.86 94.158 79.86C95.158 79.86 95.9646 80.2134 96.578 80.92C97.2046 81.6134 97.518 82.54 97.518 83.7C97.518 84.86 97.2046 85.7934 96.578 86.5C95.9646 87.1934 95.158 87.54 94.158 87.54ZM102.558 80H104.518L94.958 94H92.998L102.558 80ZM94.158 86.14C94.7046 86.14 95.1246 85.9267 95.418 85.5C95.7246 85.0734 95.878 84.4734 95.878 83.7C95.878 82.9267 95.7246 82.3267 95.418 81.9C95.1246 81.4734 94.7046 81.26 94.158 81.26C93.638 81.26 93.218 81.48 92.898 81.92C92.5913 82.3467 92.438 82.94 92.438 83.7C92.438 84.46 92.5913 85.06 92.898 85.5C93.218 85.9267 93.638 86.14 94.158 86.14ZM103.338 94.14C102.338 94.14 101.531 93.7867 100.918 93.08C100.305 92.3734 99.998 91.4467 99.998 90.3C99.998 89.1534 100.305 88.2267 100.918 87.5201C101.531 86.8134 102.338 86.46 103.338 86.46C104.338 86.46 105.145 86.8134 105.758 87.5201C106.385 88.2267 106.698 89.1534 106.698 90.3C106.698 91.4467 106.385 92.3734 105.758 93.08C105.145 93.7867 104.338 94.14 103.338 94.14ZM103.338 92.74C103.871 92.74 104.291 92.5267 104.598 92.1C104.905 91.6601 105.058 91.0601 105.058 90.3C105.058 89.54 104.905 88.9467 104.598 88.52C104.291 88.08 103.871 87.86 103.338 87.86C102.805 87.86 102.385 88.0734 102.078 88.5C101.771 88.9267 101.618 89.5267 101.618 90.3C101.618 91.0734 101.771 91.6734 102.078 92.1C102.385 92.5267 102.805 92.74 103.338 92.74Z" fill="white"/>
    <path d="M199.57 51.0581C199.57 55.2814 196.781 58.7051 193.339 58.7051L6.26447 58.7051C2.82321 58.7051 0.0335079 55.2814 0.0335075 51.0581C0.033507 46.8348 2.82319 43.4112 6.26445 43.4112L193.339 43.4111C196.781 43.4111 199.57 46.8348 199.57 51.0581Z" fill="#D64730"/>
    <path d="M88.8486 21L88.8186 7.08L81.9186 18.6H80.1786L73.2786 7.26V21H69.5586V0H72.7686L81.1086 13.92L89.2986 0H92.5086L92.5386 21H88.8486Z" fill="white"/>
    <path d="M103.971 0V21H100.071V3.27H95.6309V0H103.971Z" fill="white"/>
</svg>
