<svg width="200" height="97" viewBox="0 0 200 97" fill="none" xmlns="http://www.w3.org/2000/svg">
    <path d="M98.66 0.000244141V21.0002H94.76V12.0002H83.9V21.0002H80V0.000244141H83.9V8.67025H94.76V0.000244141H98.66Z" fill="white"/>
    <path d="M121.507 16.2302H117.787V21.0002H114.007V16.2302H102.487V13.5302L112.837 0.000244141H117.007L107.257 12.9302H114.127V8.70024H117.787V12.9302H121.507V16.2302Z" fill="white"/>
    <path d="M200 51.058C200 55.2814 197.21 58.705 193.769 58.705L6.69409 58.705C3.25282 58.705 0.463134 55.2814 0.463134 51.0581C0.463133 46.8348 3.25281 43.4111 6.69407 43.4111L193.769 43.4111C197.21 43.4111 200 46.8347 200 51.058Z" fill="#94EC4F"/>
    <path d="M84.8209 82V83.74L79.3809 96H76.6009L81.8609 84.2H76.3609V86.58H73.9409V82H84.8209ZM91.8782 96.2C90.7582 96.2 89.7582 95.92 88.8782 95.36C87.9982 94.7867 87.3049 93.96 86.7982 92.88C86.2915 91.7867 86.0382 90.4933 86.0382 89C86.0382 87.5067 86.2915 86.22 86.7982 85.14C87.3049 84.0467 87.9982 83.22 88.8782 82.66C89.7582 82.0867 90.7582 81.8 91.8782 81.8C92.9982 81.8 93.9982 82.0867 94.8782 82.66C95.7715 83.22 96.4715 84.0467 96.9782 85.14C97.4849 86.22 97.7382 87.5067 97.7382 89C97.7382 90.4933 97.4849 91.7867 96.9782 92.88C96.4715 93.96 95.7715 94.7867 94.8782 95.36C93.9982 95.92 92.9982 96.2 91.8782 96.2ZM91.8782 93.94C92.8782 93.94 93.6649 93.5267 94.2382 92.7C94.8249 91.8733 95.1182 90.64 95.1182 89C95.1182 87.36 94.8249 86.1267 94.2382 85.3C93.6649 84.4733 92.8782 84.06 91.8782 84.06C90.8915 84.06 90.1049 84.4733 89.5182 85.3C88.9449 86.1267 88.6582 87.36 88.6582 89C88.6582 90.64 88.9449 91.8733 89.5182 92.7C90.1049 93.5267 90.8915 93.94 91.8782 93.94ZM102.615 89.54C101.615 89.54 100.809 89.1867 100.195 88.48C99.5819 87.7733 99.2752 86.8467 99.2752 85.7C99.2752 84.5533 99.5819 83.6267 100.195 82.92C100.809 82.2133 101.615 81.86 102.615 81.86C103.615 81.86 104.422 82.2133 105.035 82.92C105.662 83.6133 105.975 84.54 105.975 85.7C105.975 86.86 105.662 87.7933 105.035 88.5C104.422 89.1933 103.615 89.54 102.615 89.54ZM111.015 82H112.975L103.415 96H101.455L111.015 82ZM102.615 88.14C103.162 88.14 103.582 87.9267 103.875 87.5C104.182 87.0733 104.335 86.4733 104.335 85.7C104.335 84.9267 104.182 84.3267 103.875 83.9C103.582 83.4733 103.162 83.26 102.615 83.26C102.095 83.26 101.675 83.48 101.355 83.92C101.049 84.3467 100.895 84.94 100.895 85.7C100.895 86.46 101.049 87.06 101.355 87.5C101.675 87.9267 102.095 88.14 102.615 88.14ZM111.795 96.14C110.795 96.14 109.989 95.7867 109.375 95.08C108.762 94.3733 108.455 93.4467 108.455 92.3C108.455 91.1533 108.762 90.2267 109.375 89.52C109.989 88.8133 110.795 88.46 111.795 88.46C112.795 88.46 113.602 88.8133 114.215 89.52C114.842 90.2267 115.155 91.1533 115.155 92.3C115.155 93.4467 114.842 94.3733 114.215 95.08C113.602 95.7867 112.795 96.14 111.795 96.14ZM111.795 94.74C112.329 94.74 112.749 94.5267 113.055 94.1C113.362 93.66 113.515 93.06 113.515 92.3C113.515 91.54 113.362 90.9467 113.055 90.52C112.749 90.08 112.329 89.86 111.795 89.86C111.262 89.86 110.842 90.0733 110.535 90.5C110.229 90.9267 110.075 91.5267 110.075 92.3C110.075 93.0733 110.229 93.6733 110.535 94.1C110.842 94.5267 111.262 94.74 111.795 94.74ZM126.342 86.42L119.442 89L126.342 91.58V93.66L117.122 90.08V87.92L126.342 84.34V86.42Z" fill="white"/>
</svg>
