<svg width="201" height="95" viewBox="0 0 201 95" fill="none" xmlns="http://www.w3.org/2000/svg">
    <path d="M80.36 85.3603C81.28 85.3603 82.1067 85.5403 82.84 85.9003C83.5733 86.247 84.1467 86.747 84.56 87.4003C84.9733 88.0536 85.18 88.807 85.18 89.6603C85.18 90.567 84.9533 91.367 84.5 92.0603C84.0467 92.7403 83.4333 93.267 82.66 93.6403C81.8867 94.0136 81.02 94.2003 80.06 94.2003C78.14 94.2003 76.6467 93.6003 75.58 92.4003C74.5267 91.2003 74 89.4803 74 87.2403C74 85.667 74.2867 84.327 74.86 83.2203C75.4333 82.1003 76.2333 81.2536 77.26 80.6803C78.3 80.0936 79.5 79.8003 80.86 79.8003C81.58 79.8003 82.2533 79.8803 82.88 80.0403C83.52 80.187 84.0733 80.407 84.54 80.7003L83.58 82.6603C82.8867 82.207 82 81.9803 80.92 81.9803C79.5733 81.9803 78.52 82.3936 77.76 83.2203C77 84.047 76.62 85.2403 76.62 86.8003V86.8203C77.0333 86.3403 77.56 85.9803 78.2 85.7403C78.84 85.487 79.56 85.3603 80.36 85.3603ZM79.92 92.1603C80.7333 92.1603 81.3933 91.947 81.9 91.5203C82.4067 91.0803 82.66 90.5003 82.66 89.7803C82.66 89.047 82.4067 88.467 81.9 88.0403C81.3933 87.6136 80.7133 87.4003 79.86 87.4003C79.02 87.4003 78.3333 87.627 77.8 88.0803C77.28 88.5336 77.02 89.107 77.02 89.8003C77.02 90.4803 77.2733 91.047 77.78 91.5003C78.3 91.9403 79.0133 92.1603 79.92 92.1603Z" fill="white"/>
    <path d="M91.2591 79.8003C93.1791 79.8003 94.6657 80.4003 95.7191 81.6003C96.7857 82.8003 97.3191 84.5203 97.3191 86.7603C97.3191 88.3336 97.0324 89.6803 96.4591 90.8003C95.8857 91.907 95.0791 92.7536 94.0391 93.3403C93.0124 93.9136 91.8191 94.2003 90.4591 94.2003C89.7391 94.2003 89.0591 94.127 88.4191 93.9803C87.7924 93.8203 87.2457 93.5936 86.7791 93.3003L87.7391 91.3403C88.4324 91.7936 89.3191 92.0203 90.3991 92.0203C91.7457 92.0203 92.7991 91.607 93.5591 90.7803C94.3191 89.9536 94.6991 88.7603 94.6991 87.2003V87.1803C94.2857 87.6603 93.7591 88.027 93.1191 88.2803C92.4791 88.5203 91.7591 88.6403 90.9591 88.6403C90.0391 88.6403 89.2124 88.467 88.4791 88.1203C87.7457 87.7603 87.1724 87.2536 86.7591 86.6003C86.3457 85.947 86.1391 85.1936 86.1391 84.3403C86.1391 83.4336 86.3657 82.6403 86.8191 81.9603C87.2724 81.267 87.8857 80.7336 88.6591 80.3603C89.4324 79.987 90.2991 79.8003 91.2591 79.8003ZM91.4591 86.6003C92.2991 86.6003 92.9791 86.3736 93.4991 85.9203C94.0324 85.467 94.2991 84.8936 94.2991 84.2003C94.2991 83.5203 94.0391 82.9603 93.5191 82.5203C93.0124 82.067 92.3057 81.8403 91.3991 81.8403C90.5857 81.8403 89.9257 82.0603 89.4191 82.5003C88.9124 82.927 88.6591 83.5003 88.6591 84.2203C88.6591 84.9536 88.9124 85.5336 89.4191 85.9603C89.9257 86.387 90.6057 86.6003 91.4591 86.6003Z" fill="white"/>
    <path d="M102.198 87.5403C101.198 87.5403 100.391 87.187 99.7781 86.4803C99.1648 85.7736 98.8581 84.847 98.8581 83.7003C98.8581 82.5536 99.1648 81.627 99.7781 80.9203C100.391 80.2136 101.198 79.8603 102.198 79.8603C103.198 79.8603 104.005 80.2136 104.618 80.9203C105.245 81.6136 105.558 82.5403 105.558 83.7003C105.558 84.8603 105.245 85.7936 104.618 86.5003C104.005 87.1936 103.198 87.5403 102.198 87.5403ZM110.598 80.0003H112.558L102.998 94.0003H101.038L110.598 80.0003ZM102.198 86.1403C102.745 86.1403 103.165 85.927 103.458 85.5003C103.765 85.0736 103.918 84.4736 103.918 83.7003C103.918 82.927 103.765 82.327 103.458 81.9003C103.165 81.4736 102.745 81.2603 102.198 81.2603C101.678 81.2603 101.258 81.4803 100.938 81.9203C100.631 82.347 100.478 82.9403 100.478 83.7003C100.478 84.4603 100.631 85.0603 100.938 85.5003C101.258 85.927 101.678 86.1403 102.198 86.1403ZM111.378 94.1403C110.378 94.1403 109.571 93.787 108.958 93.0803C108.345 92.3736 108.038 91.447 108.038 90.3003C108.038 89.1536 108.345 88.227 108.958 87.5203C109.571 86.8136 110.378 86.4603 111.378 86.4603C112.378 86.4603 113.185 86.8136 113.798 87.5203C114.425 88.227 114.738 89.1536 114.738 90.3003C114.738 91.447 114.425 92.3736 113.798 93.0803C113.185 93.787 112.378 94.1403 111.378 94.1403ZM111.378 92.7403C111.911 92.7403 112.331 92.527 112.638 92.1003C112.945 91.6603 113.098 91.0603 113.098 90.3003C113.098 89.5403 112.945 88.947 112.638 88.5203C112.331 88.0803 111.911 87.8603 111.378 87.8603C110.845 87.8603 110.425 88.0736 110.118 88.5003C109.811 88.927 109.658 89.527 109.658 90.3003C109.658 91.0736 109.811 91.6736 110.118 92.1003C110.425 92.527 110.845 92.7403 111.378 92.7403Z" fill="white"/>
    <path d="M200.461 51.0581C200.461 55.2814 197.671 58.7051 194.23 58.7051L7.15509 58.7051C3.71384 58.7051 0.924133 55.2814 0.924132 51.0581C0.924132 46.8348 3.71384 43.4112 7.15509 43.4112L194.23 43.4111C197.671 43.4111 200.461 46.8348 200.461 51.0581Z" fill="#F08D6A"/>
    <path d="M92.29 21.0002L92.26 7.08025L85.36 18.6002H83.62L76.72 7.26024V21.0002H73V0.000244141H76.21L84.55 13.9202L92.74 0.000244141H95.95L95.98 21.0002H92.29Z" fill="white"/>
    <path d="M106.722 8.13025C109.682 8.13025 111.872 8.71025 113.292 9.87024C114.712 11.0102 115.422 12.5702 115.422 14.5502C115.422 15.8102 115.112 16.9502 114.492 17.9702C113.872 18.9902 112.942 19.8002 111.702 20.4002C110.462 21.0002 108.932 21.3002 107.112 21.3002C105.612 21.3002 104.162 21.0902 102.762 20.6702C101.362 20.2302 100.182 19.6302 99.2223 18.8702L100.872 15.8402C101.652 16.4802 102.582 16.9902 103.662 17.3702C104.762 17.7302 105.892 17.9102 107.052 17.9102C108.432 17.9102 109.512 17.6302 110.292 17.0702C111.092 16.4902 111.492 15.7002 111.492 14.7002C111.492 13.6202 111.062 12.8102 110.202 12.2702C109.362 11.7102 107.912 11.4302 105.852 11.4302H100.782L101.862 0.000244141H114.192V3.27025H105.162L104.712 8.13025H106.722Z" fill="white"/>
</svg>
