<svg width="113" height="331" viewBox="0 0 113 331" fill="none" xmlns="http://www.w3.org/2000/svg">
    <path d="M106.059 6.49806L93.0427 6.4981L106.059 19.9793L106.059 6.49806Z" fill="#00FCFC" fill-opacity="0.7"/>
    <path d="M102.34 96.2122V24.1479L91.7297 13.8284L89.7845 11.9365L88.0646 10.2166H49.3665L51.6024 13.8284H91.1604H91.7297L102.34 24.1479V96.2122L92.0204 102.92V147.466L102.34 139.038V96.2122Z" fill="#00FCFC" fill-opacity="0.7"/>
    <path d="M102.34 96.2122V24.1479L91.7297 13.8284M102.34 96.2122L92.0204 102.92V147.466L102.34 139.038V96.2122ZM91.7297 13.8284L89.7845 11.9365L88.0646 10.2166H49.3665L51.6024 13.8284H91.1604H91.7297Z" stroke="#00FCFC" stroke-width="0.687965" stroke-linecap="round" stroke-linejoin="round"/>
    <path d="M18.2662 321.583L25.1458 328.634H50.2566L45.4408 321.583H18.2662Z" fill="#00FCFC" fill-opacity="0.7"/>
    <path d="M100.478 167.479V328.634H50.2566M0.999854 328.634H25.1458M25.1458 328.634L18.2662 321.583H45.4408L50.2566 328.634M25.1458 328.634H50.2566" stroke="#00FCFC" stroke-width="0.687965" stroke-linecap="round" stroke-linejoin="round"/>
    <circle r="3.26784" transform="matrix(-1 0 0 1 100.002 327.731)" fill="#00FCFC" fill-opacity="0.7"/>
    <rect width="2.40788" height="2.40788" transform="matrix(-1 0 0 1 101.682 220.452)" fill="#00FCFC" fill-opacity="0.7"/>
    <path d="M97.7262 252.786L97.3822 277.381H96.0063V282.541L98.2422 285.293V277.381H97.3822L97.7262 252.786V247.799L92.2225 243.327V248.315L97.7262 252.786Z" fill="#00FCFC" fill-opacity="0.7"/>
    <path d="M97.3822 277.381L97.7262 252.786M97.3822 277.381H98.2422V285.293L96.0063 282.541V277.381H97.3822ZM97.7262 252.786L92.2225 248.315V243.327L97.7262 247.799V252.786Z" stroke="#00FCFC" stroke-width="0.687965" stroke-linecap="round" stroke-linejoin="round"/>
    <path d="M97.3818 297.16V320.378L91.0182 327.43H49.7402" stroke="#00FCFC" stroke-width="0.687965" stroke-linecap="round" stroke-linejoin="round"/>
</svg>
