<svg width="156" height="76" viewBox="0 0 156 76" fill="none" xmlns="http://www.w3.org/2000/svg">
    <path d="M73.0743 16.599L73.0511 5.82296L67.7095 14.7411H66.3625L61.0209 5.9623V16.599H58.1411V0.342041H60.6261L67.0824 11.1181L73.4227 0.342041H75.9076L75.9309 16.599H73.0743Z" fill="#00FCFC"/>
    <path d="M84.7811 0.342041V16.599H81.762V2.87348H78.3248V0.342041H84.7811Z" fill="#00FCFC"/>
    <path d="M93.0921 6.63581C95.3836 6.63581 97.0789 7.08481 98.1782 7.98281C99.2775 8.86533 99.8271 10.073 99.8271 11.6058C99.8271 12.5812 99.5872 13.4637 99.1072 14.2534C98.6272 15.043 97.9073 15.67 96.9473 16.1345C95.9874 16.599 94.803 16.8312 93.394 16.8312C92.2328 16.8312 91.1103 16.6687 90.0265 16.3435C88.9427 16.0029 88.0292 15.5384 87.2861 14.9501L88.5634 12.6044C89.1672 13.0999 89.8872 13.4947 90.7232 13.7889C91.5748 14.0676 92.4496 14.2069 93.3476 14.2069C94.4159 14.2069 95.252 13.9901 95.8558 13.5566C96.4751 13.1076 96.7848 12.4961 96.7848 11.7219C96.7848 10.8858 96.4519 10.2588 95.7861 9.84075C95.1358 9.40723 94.0133 9.19047 92.4186 9.19047H88.4937L89.3298 0.342041H98.8749V2.87348H91.8845L91.5361 6.63581H93.0921Z" fill="#00FCFC"/>
    <path d="M155.178 39.8683C155.178 43.1377 153.018 45.7881 150.354 45.7881L5.53185 45.7881C2.86783 45.7881 0.708206 43.1377 0.708206 39.8683C0.708205 36.5988 2.86783 33.9484 5.53184 33.9484L150.354 33.9484C153.018 33.9484 155.178 36.5988 155.178 39.8683Z" fill="#FDE370"/>
    <path d="M53.9847 68.3088C55.5124 68.3088 56.6426 68.6081 57.3755 69.2068C58.1083 69.7952 58.4748 70.6003 58.4748 71.6221C58.4748 72.2724 58.3148 72.8607 57.9948 73.3872C57.6748 73.9136 57.1949 74.3316 56.5549 74.6413C55.9149 74.9509 55.1253 75.1058 54.186 75.1058C53.4119 75.1058 52.6635 74.9974 51.941 74.7806C51.2185 74.5535 50.6095 74.2439 50.114 73.8516L50.9656 72.2879C51.3682 72.6182 51.8481 72.8814 52.4055 73.0775C52.9732 73.2633 53.5564 73.3562 54.1551 73.3562C54.8673 73.3562 55.4247 73.2117 55.8272 72.9227C56.2401 72.6233 56.4465 72.2156 56.4465 71.6995C56.4465 71.1422 56.2246 70.7241 55.7808 70.4454C55.3472 70.1564 54.5989 70.0119 53.5357 70.0119H50.9192L51.4765 64.113H57.84V65.8006H53.1796L52.9474 68.3088H53.9847ZM62.9509 68.3088C64.4785 68.3088 65.6088 68.6081 66.3416 69.2068C67.0745 69.7952 67.4409 70.6003 67.4409 71.6221C67.4409 72.2724 67.2809 72.8607 66.9609 73.3872C66.6409 73.9136 66.161 74.3316 65.521 74.6413C64.8811 74.9509 64.0914 75.1058 63.1521 75.1058C62.378 75.1058 61.6297 74.9974 60.9071 74.7806C60.1846 74.5535 59.5756 74.2439 59.0802 73.8516L59.9317 72.2879C60.3343 72.6182 60.8142 72.8814 61.3716 73.0775C61.9393 73.2633 62.5225 73.3562 63.1212 73.3562C63.8334 73.3562 64.3908 73.2117 64.7933 72.9227C65.2062 72.6233 65.4126 72.2156 65.4126 71.6995C65.4126 71.1422 65.1907 70.7241 64.7469 70.4454C64.3134 70.1564 63.565 70.0119 62.5019 70.0119H59.8853L60.4427 64.113H66.8061V65.8006H62.1458L61.9135 68.3088H62.9509ZM68.7722 69.8416H73.0299V71.4518H68.7722V69.8416ZM79.5582 68.2624C80.2705 68.2624 80.9104 68.4017 81.4781 68.6804C82.0458 68.9488 82.4897 69.3358 82.8096 69.8416C83.1296 70.3474 83.2896 70.9306 83.2896 71.5912C83.2896 72.293 83.1141 72.9124 82.7632 73.4491C82.4122 73.9755 81.9374 74.3832 81.3388 74.6722C80.7401 74.9612 80.0692 75.1058 79.326 75.1058C77.8397 75.1058 76.6836 74.6413 75.8579 73.7123C75.0424 72.7833 74.6347 71.4518 74.6347 69.7177C74.6347 68.4998 74.8566 67.4624 75.3005 66.6057C75.7443 65.7387 76.3636 65.0832 77.1584 64.6394C77.9635 64.1852 78.8925 63.9581 79.9453 63.9581C80.5027 63.9581 81.024 64.0201 81.5091 64.1439C82.0045 64.2575 82.4329 64.4278 82.7942 64.6549L82.051 66.1722C81.5142 65.8212 80.8278 65.6458 79.9918 65.6458C78.9493 65.6458 78.1338 65.9657 77.5455 66.6057C76.9571 67.2456 76.663 68.1695 76.663 69.3771V69.3926C76.9829 69.021 77.3907 68.7423 77.8861 68.5565C78.3816 68.3604 78.9389 68.2624 79.5582 68.2624ZM79.2176 73.5265C79.8473 73.5265 80.3582 73.3614 80.7504 73.0311C81.1427 72.6904 81.3388 72.2414 81.3388 71.6841C81.3388 71.1164 81.1427 70.6673 80.7504 70.337C80.3582 70.0067 79.8318 69.8416 79.1712 69.8416C78.5209 69.8416 77.9893 70.0171 77.5764 70.368C77.1739 70.719 76.9726 71.1628 76.9726 71.6995C76.9726 72.226 77.1687 72.6646 77.561 73.0156C77.9635 73.3562 78.5157 73.5265 79.2176 73.5265ZM88.8627 75.1058C87.9957 75.1058 87.2215 74.889 86.5403 74.4555C85.859 74.0116 85.3223 73.3717 84.9301 72.5356C84.5378 71.6892 84.3417 70.688 84.3417 69.5319C84.3417 68.3759 84.5378 67.3798 84.9301 66.5438C85.3223 65.6974 85.859 65.0574 86.5403 64.6239C87.2215 64.18 87.9957 63.9581 88.8627 63.9581C89.7297 63.9581 90.5039 64.18 91.1851 64.6239C91.8767 65.0574 92.4186 65.6974 92.8108 66.5438C93.203 67.3798 93.3992 68.3759 93.3992 69.5319C93.3992 70.688 93.203 71.6892 92.8108 72.5356C92.4186 73.3717 91.8767 74.0116 91.1851 74.4555C90.5039 74.889 89.7297 75.1058 88.8627 75.1058ZM88.8627 73.3562C89.6368 73.3562 90.2458 73.0362 90.6897 72.3963C91.1438 71.7563 91.3709 70.8015 91.3709 69.5319C91.3709 68.2624 91.1438 67.3076 90.6897 66.6676C90.2458 66.0277 89.6368 65.7077 88.8627 65.7077C88.0989 65.7077 87.4899 66.0277 87.0357 66.6676C86.5919 67.3076 86.37 68.2624 86.37 69.5319C86.37 70.8015 86.5919 71.7563 87.0357 72.3963C87.4899 73.0362 88.0989 73.3562 88.8627 73.3562ZM97.1747 69.95C96.4005 69.95 95.7761 69.6764 95.3012 69.1294C94.8264 68.5823 94.589 67.865 94.589 66.9773C94.589 66.0896 94.8264 65.3722 95.3012 64.8252C95.7761 64.2781 96.4005 64.0046 97.1747 64.0046C97.9488 64.0046 98.5733 64.2781 99.0481 64.8252C99.5332 65.3619 99.7758 66.0793 99.7758 66.9773C99.7758 67.8753 99.5332 68.5978 99.0481 69.1449C98.5733 69.6816 97.9488 69.95 97.1747 69.95ZM103.677 64.113H105.195L97.794 74.9509H96.2767L103.677 64.113ZM97.1747 68.8662C97.5979 68.8662 97.923 68.701 98.1501 68.3707C98.3875 68.0404 98.5062 67.5759 98.5062 66.9773C98.5062 66.3786 98.3875 65.9141 98.1501 65.5838C97.923 65.2535 97.5979 65.0884 97.1747 65.0884C96.7721 65.0884 96.447 65.2587 96.1992 65.5993C95.9618 65.9296 95.8431 66.3889 95.8431 66.9773C95.8431 67.5656 95.9618 68.0301 96.1992 68.3707C96.447 68.701 96.7721 68.8662 97.1747 68.8662ZM104.281 75.0593C103.507 75.0593 102.883 74.7858 102.408 74.2387C101.933 73.6917 101.696 72.9743 101.696 72.0866C101.696 71.1989 101.933 70.4816 102.408 69.9345C102.883 69.3874 103.507 69.1139 104.281 69.1139C105.055 69.1139 105.68 69.3874 106.155 69.9345C106.64 70.4816 106.882 71.1989 106.882 72.0866C106.882 72.9743 106.64 73.6917 106.155 74.2387C105.68 74.7858 105.055 75.0593 104.281 75.0593ZM104.281 73.9755C104.694 73.9755 105.019 73.8104 105.257 73.4801C105.494 73.1394 105.613 72.675 105.613 72.0866C105.613 71.4983 105.494 71.0389 105.257 70.7086C105.019 70.368 104.694 70.1977 104.281 70.1977C103.868 70.1977 103.543 70.3629 103.306 70.6932C103.068 71.0235 102.95 71.4879 102.95 72.0866C102.95 72.6853 103.068 73.1498 103.306 73.4801C103.543 73.8104 103.868 73.9755 104.281 73.9755Z" fill="#00FCFC"/>
</svg>
