<svg width="149" height="61" viewBox="0 0 149 61" fill="none" xmlns="http://www.w3.org/2000/svg">
    <path d="M0.00927734 45.1081C0.00927734 39.2891 4.2474 34.5719 9.4754 34.5719C14.7034 34.5719 18.9415 39.2891 18.9415 45.1081V50.3762C18.9415 56.1952 14.7034 60.9124 9.4754 60.9124C4.2474 60.9124 0.00927734 56.1952 0.00927734 50.3762V45.1081Z" fill="white"/>
    <path d="M30.4655 36.8061C30.4655 31.4807 34.7036 27.1636 39.9316 27.1636C45.1596 27.1636 49.3977 31.4807 49.3977 36.8061V51.2699C49.3977 56.5953 45.1596 60.9124 39.9316 60.9124C34.7036 60.9124 30.4655 56.5953 30.4655 51.2699V36.8061Z" fill="white"/>
    <path d="M65.0374 28.2612C65.0374 23.109 69.2755 18.9323 74.5035 18.9323C79.7315 18.9323 83.9697 23.109 83.9697 28.2612V51.5835C83.9697 56.7357 79.7315 60.9124 74.5035 60.9124C69.2755 60.9124 65.0374 56.7357 65.0374 51.5835V28.2612Z" fill="white"/>
    <path d="M99.6093 17.1364C99.6093 11.7637 103.11 7.40833 107.429 7.40833C111.748 7.40833 115.249 11.7637 115.249 17.1364V51.1845C115.249 56.5571 111.748 60.9125 107.429 60.9125C103.11 60.9125 99.6093 56.5571 99.6093 51.1845V17.1364Z" fill="white"/>
    <path fill-rule="evenodd" clip-rule="evenodd" d="M148.175 51.5413V9.37114C148.175 4.65802 144.313 0.823141 139.532 0.823141C134.75 0.823141 130.889 4.65802 130.889 9.37114V51.5413C130.889 56.2544 134.75 60.0893 139.532 60.0893C144.313 60.0893 148.175 56.2544 148.175 51.5413ZM139.532 0C134.304 0 130.066 4.1956 130.066 9.37114V51.5413C130.066 56.7168 134.304 60.9124 139.532 60.9124C144.76 60.9124 148.998 56.7168 148.998 51.5413V9.37114C148.998 4.1956 144.76 0 139.532 0Z" fill="white"/>
</svg>
