<svg width="181" height="130" viewBox="0 0 181 130" fill="none" xmlns="http://www.w3.org/2000/svg">
    <path d="M0 54.8C0 47.7308 5.14873 42 11.5 42C17.8513 42 23 47.7308 23 54.8V61.2C23 68.2692 17.8513 74 11.5 74C5.14873 74 0 68.2692 0 61.2V54.8Z" fill="#EB453B"/>
    <path fill-rule="evenodd" clip-rule="evenodd" d="M59 62.2857V44.7143C59 38.7795 54.2817 34 48.5 34C42.7183 34 38 38.7795 38 44.7143V62.2857C38 68.2205 42.7183 73 48.5 73C54.2817 73 59 68.2205 59 62.2857ZM48.5 33C42.1487 33 37 38.2447 37 44.7143V62.2857C37 68.7553 42.1487 74 48.5 74C54.8513 74 60 68.7553 60 62.2857V44.7143C60 38.2447 54.8513 33 48.5 33Z" fill="white"/>
    <path fill-rule="evenodd" clip-rule="evenodd" d="M101 62.6667V34.3333C101 28.6401 96.3128 24 90.5 24C84.6872 24 80 28.6401 80 34.3333V62.6667C80 68.3599 84.6872 73 90.5 73C96.3128 73 101 68.3599 101 62.6667ZM90.5 23C84.1487 23 79 28.0741 79 34.3333V62.6667C79 68.9259 84.1487 74 90.5 74C96.8513 74 102 68.9259 102 62.6667V34.3333C102 28.0741 96.8513 23 90.5 23Z" fill="white"/>
    <path fill-rule="evenodd" clip-rule="evenodd" d="M139 62.1818V20.8182C139 14.6286 135.002 10 130.5 10C125.998 10 122 14.6286 122 20.8182V62.1818C122 68.3714 125.998 73 130.5 73C135.002 73 139 68.3714 139 62.1818ZM130.5 9C125.253 9 121 14.2912 121 20.8182V62.1818C121 68.7088 125.253 74 130.5 74C135.747 74 140 68.7088 140 62.1818V20.8182C140 14.2912 135.747 9 130.5 9Z" fill="white"/>
    <path fill-rule="evenodd" clip-rule="evenodd" d="M180 62.6154V11.3846C180 5.65883 175.309 1 169.5 1C163.691 1 159 5.65883 159 11.3846V62.6154C159 68.3412 163.691 73 169.5 73C175.309 73 180 68.3412 180 62.6154ZM169.5 0C163.149 0 158 5.09707 158 11.3846V62.6154C158 68.9029 163.149 74 169.5 74C175.851 74 181 68.9029 181 62.6154V11.3846C181 5.09707 175.851 0 169.5 0Z" fill="white"/>
    <path d="M69.7792 114.63L59.4292 118.5L69.7792 122.37V125.49L55.9492 120.12V116.88L69.7792 111.51V114.63Z" fill="white"/>
    <path d="M79.5845 116.13C82.5445 116.13 84.7345 116.71 86.1545 117.87C87.5745 119.01 88.2845 120.57 88.2845 122.55C88.2845 123.81 87.9745 124.95 87.3545 125.97C86.7345 126.99 85.8045 127.8 84.5645 128.4C83.3245 129 81.7945 129.3 79.9745 129.3C78.4745 129.3 77.0245 129.09 75.6245 128.67C74.2245 128.23 73.0445 127.63 72.0845 126.87L73.7345 123.84C74.5145 124.48 75.4445 124.99 76.5245 125.37C77.6245 125.73 78.7545 125.91 79.9145 125.91C81.2945 125.91 82.3745 125.63 83.1545 125.07C83.9545 124.49 84.3545 123.7 84.3545 122.7C84.3545 121.62 83.9245 120.81 83.0645 120.27C82.2245 119.71 80.7745 119.43 78.7145 119.43H73.6445L74.7245 108H87.0545V111.27H78.0245L77.5745 116.13H79.5845Z" fill="white"/>
    <path d="M97.7941 108V129H93.8941V111.27H89.4541V108H97.7941Z" fill="white"/>
    <path d="M106.64 119.31C105.14 119.31 103.93 118.78 103.01 117.72C102.09 116.66 101.63 115.27 101.63 113.55C101.63 111.83 102.09 110.44 103.01 109.38C103.93 108.32 105.14 107.79 106.64 107.79C108.14 107.79 109.35 108.32 110.27 109.38C111.21 110.42 111.68 111.81 111.68 113.55C111.68 115.29 111.21 116.69 110.27 117.75C109.35 118.79 108.14 119.31 106.64 119.31ZM119.24 108H122.18L107.84 129H104.9L119.24 108ZM106.64 117.21C107.46 117.21 108.09 116.89 108.53 116.25C108.99 115.61 109.22 114.71 109.22 113.55C109.22 112.39 108.99 111.49 108.53 110.85C108.09 110.21 107.46 109.89 106.64 109.89C105.86 109.89 105.23 110.22 104.75 110.88C104.29 111.52 104.06 112.41 104.06 113.55C104.06 114.69 104.29 115.59 104.75 116.25C105.23 116.89 105.86 117.21 106.64 117.21ZM120.41 129.21C118.91 129.21 117.7 128.68 116.78 127.62C115.86 126.56 115.4 125.17 115.4 123.45C115.4 121.73 115.86 120.34 116.78 119.28C117.7 118.22 118.91 117.69 120.41 117.69C121.91 117.69 123.12 118.22 124.04 119.28C124.98 120.34 125.45 121.73 125.45 123.45C125.45 125.17 124.98 126.56 124.04 127.62C123.12 128.68 121.91 129.21 120.41 129.21ZM120.41 127.11C121.21 127.11 121.84 126.79 122.3 126.15C122.76 125.49 122.99 124.59 122.99 123.45C122.99 122.31 122.76 121.42 122.3 120.78C121.84 120.12 121.21 119.79 120.41 119.79C119.61 119.79 118.98 120.11 118.52 120.75C118.06 121.39 117.83 122.29 117.83 123.45C117.83 124.61 118.06 125.51 118.52 126.15C118.98 126.79 119.61 127.11 120.41 127.11Z" fill="white"/>
</svg>
