<svg width="116" height="48" viewBox="0 0 116 48" fill="none" xmlns="http://www.w3.org/2000/svg">
    <path d="M0.0888672 35.3987C0.0888672 30.894 3.36977 27.2422 7.41698 27.2422C11.4642 27.2422 14.7451 30.894 14.7451 35.3987V39.4769C14.7451 43.9817 11.4642 47.6335 7.41698 47.6335C3.36977 47.6335 0.0888672 43.9817 0.0888672 39.4769V35.3987Z" fill="#00FCFC"/>
    <path d="M23.666 28.9717C23.666 24.8491 26.9469 21.5071 30.9941 21.5071C35.0413 21.5071 38.3222 24.8491 38.3222 28.9717V40.1687C38.3222 44.2913 35.0413 47.6334 30.9941 47.6334C26.9469 47.6334 23.666 44.2913 23.666 40.1687V28.9717Z" fill="#00FCFC"/>
    <path d="M50.4302 22.3567C50.4302 18.3681 53.7111 15.1348 57.7583 15.1348C61.8055 15.1348 65.0864 18.3681 65.0864 22.3567V40.4114C65.0864 44.4 61.8055 47.6333 57.7583 47.6333C53.7111 47.6333 50.4302 44.4 50.4302 40.4114V22.3567Z" fill="#00FCFC"/>
    <path d="M77.1929 13.7442C77.1929 9.58506 79.9032 6.21338 83.2465 6.21338C86.5899 6.21338 89.3002 9.58506 89.3002 13.7442V40.1023C89.3002 44.2615 86.5899 47.6331 83.2465 47.6331C79.9032 47.6331 77.1929 44.2615 77.1929 40.1023V13.7442Z" fill="#00FCFC"/>
    <path fill-rule="evenodd" clip-rule="evenodd" d="M114.79 40.3785V7.73286C114.79 4.08423 111.8 1.1155 108.099 1.1155C104.398 1.1155 101.408 4.08423 101.408 7.73286V40.3785C101.408 44.0271 104.398 46.9958 108.099 46.9958C111.8 46.9958 114.79 44.0271 114.79 40.3785ZM108.099 0.478271C104.052 0.478271 100.771 3.72626 100.771 7.73286V40.3785C100.771 44.3851 104.052 47.6331 108.099 47.6331C112.146 47.6331 115.427 44.3851 115.427 40.3785V7.73286C115.427 3.72626 112.146 0.478271 108.099 0.478271Z" fill="#00FCFC"/>
</svg>
