<svg width="181" height="130" viewBox="0 0 181 130" fill="none" xmlns="http://www.w3.org/2000/svg">
    <path d="M0 54.8C0 47.7308 5.14873 42 11.5 42C17.8513 42 23 47.7308 23 54.8V61.2C23 68.2692 17.8513 74 11.5 74C5.14873 74 0 68.2692 0 61.2V54.8Z" fill="#E7F55C"/>
    <path d="M37 44.7143C37 38.2447 42.1487 33 48.5 33C54.8513 33 60 38.2447 60 44.7143V62.2857C60 68.7553 54.8513 74 48.5 74C42.1487 74 37 68.7553 37 62.2857V44.7143Z" fill="#E7F55C"/>
    <path d="M79 34.3333C79 28.0741 84.1487 23 90.5 23C96.8513 23 102 28.0741 102 34.3333V62.6667C102 68.9259 96.8513 74 90.5 74C84.1487 74 79 68.9259 79 62.6667V34.3333Z" fill="#E7F55C"/>
    <path d="M121 20.8182C121 14.2912 125.253 9 130.5 9C135.747 9 140 14.2912 140 20.8182V62.1818C140 68.7088 135.747 74 130.5 74C125.253 74 121 68.7088 121 62.1818V20.8182Z" fill="#E7F55C"/>
    <path fill-rule="evenodd" clip-rule="evenodd" d="M180 62.6154V11.3846C180 5.65883 175.309 1 169.5 1C163.691 1 159 5.65883 159 11.3846V62.6154C159 68.3412 163.691 73 169.5 73C175.309 73 180 68.3412 180 62.6154ZM169.5 0C163.149 0 158 5.09707 158 11.3846V62.6154C158 68.9029 163.149 74 169.5 74C175.851 74 181 68.9029 181 62.6154V11.3846C181 5.09707 175.851 0 169.5 0Z" fill="white"/>
    <path d="M47.8603 116.04C49.2403 116.04 50.4803 116.31 51.5803 116.85C52.6803 117.37 53.5403 118.12 54.1603 119.1C54.7803 120.08 55.0903 121.21 55.0903 122.49C55.0903 123.85 54.7503 125.05 54.0703 126.09C53.3903 127.11 52.4703 127.9 51.3103 128.46C50.1503 129.02 48.8503 129.3 47.4103 129.3C44.5303 129.3 42.2903 128.4 40.6903 126.6C39.1103 124.8 38.3203 122.22 38.3203 118.86C38.3203 116.5 38.7503 114.49 39.6103 112.83C40.4703 111.15 41.6703 109.88 43.2103 109.02C44.7703 108.14 46.5703 107.7 48.6103 107.7C49.6903 107.7 50.7003 107.82 51.6403 108.06C52.6003 108.28 53.4303 108.61 54.1303 109.05L52.6903 111.99C51.6503 111.31 50.3203 110.97 48.7003 110.97C46.6803 110.97 45.1003 111.59 43.9603 112.83C42.8203 114.07 42.2503 115.86 42.2503 118.2V118.23C42.8703 117.51 43.6603 116.97 44.6203 116.61C45.5803 116.23 46.6603 116.04 47.8603 116.04ZM47.2003 126.24C48.4203 126.24 49.4103 125.92 50.1703 125.28C50.9303 124.62 51.3103 123.75 51.3103 122.67C51.3103 121.57 50.9303 120.7 50.1703 120.06C49.4103 119.42 48.3903 119.1 47.1103 119.1C45.8503 119.1 44.8203 119.44 44.0203 120.12C43.2403 120.8 42.8503 121.66 42.8503 122.7C42.8503 123.72 43.2303 124.57 43.9903 125.25C44.7703 125.91 45.8403 126.24 47.2003 126.24Z" fill="white"/>
    <path d="M63.6989 116.13C66.6589 116.13 68.8489 116.71 70.2689 117.87C71.6889 119.01 72.3989 120.57 72.3989 122.55C72.3989 123.81 72.0889 124.95 71.4689 125.97C70.8489 126.99 69.9189 127.8 68.6789 128.4C67.4389 129 65.9089 129.3 64.0889 129.3C62.5889 129.3 61.1389 129.09 59.7389 128.67C58.3389 128.23 57.1589 127.63 56.1989 126.87L57.8489 123.84C58.6289 124.48 59.5589 124.99 60.6389 125.37C61.7389 125.73 62.8689 125.91 64.0289 125.91C65.4089 125.91 66.4889 125.63 67.2689 125.07C68.0689 124.49 68.4689 123.7 68.4689 122.7C68.4689 121.62 68.0389 120.81 67.1789 120.27C66.3389 119.71 64.8889 119.43 62.8289 119.43H57.7589L58.8389 108H71.1689V111.27H62.1389L61.6889 116.13H63.6989Z" fill="white"/>
    <path d="M83.2695 119.1H91.5195V122.22H83.2695V119.1Z" fill="white"/>
    <path d="M118.613 108V110.61L110.453 129H106.283L114.173 111.3H105.923V114.87H102.293V108H118.613Z" fill="white"/>
    <path d="M129.199 129.3C127.519 129.3 126.019 128.88 124.699 128.04C123.379 127.18 122.339 125.94 121.579 124.32C120.819 122.68 120.439 120.74 120.439 118.5C120.439 116.26 120.819 114.33 121.579 112.71C122.339 111.07 123.379 109.83 124.699 108.99C126.019 108.13 127.519 107.7 129.199 107.7C130.879 107.7 132.379 108.13 133.699 108.99C135.039 109.83 136.089 111.07 136.849 112.71C137.609 114.33 137.989 116.26 137.989 118.5C137.989 120.74 137.609 122.68 136.849 124.32C136.089 125.94 135.039 127.18 133.699 128.04C132.379 128.88 130.879 129.3 129.199 129.3ZM129.199 125.91C130.699 125.91 131.879 125.29 132.739 124.05C133.619 122.81 134.059 120.96 134.059 118.5C134.059 116.04 133.619 114.19 132.739 112.95C131.879 111.71 130.699 111.09 129.199 111.09C127.719 111.09 126.539 111.71 125.659 112.95C124.799 114.19 124.369 116.04 124.369 118.5C124.369 120.96 124.799 122.81 125.659 124.05C126.539 125.29 127.719 125.91 129.199 125.91Z" fill="white"/>
    <path d="M145.305 119.31C143.805 119.31 142.595 118.78 141.675 117.72C140.755 116.66 140.295 115.27 140.295 113.55C140.295 111.83 140.755 110.44 141.675 109.38C142.595 108.32 143.805 107.79 145.305 107.79C146.805 107.79 148.015 108.32 148.935 109.38C149.875 110.42 150.345 111.81 150.345 113.55C150.345 115.29 149.875 116.69 148.935 117.75C148.015 118.79 146.805 119.31 145.305 119.31ZM157.905 108H160.845L146.505 129H143.565L157.905 108ZM145.305 117.21C146.125 117.21 146.755 116.89 147.195 116.25C147.655 115.61 147.885 114.71 147.885 113.55C147.885 112.39 147.655 111.49 147.195 110.85C146.755 110.21 146.125 109.89 145.305 109.89C144.525 109.89 143.895 110.22 143.415 110.88C142.955 111.52 142.725 112.41 142.725 113.55C142.725 114.69 142.955 115.59 143.415 116.25C143.895 116.89 144.525 117.21 145.305 117.21ZM159.075 129.21C157.575 129.21 156.365 128.68 155.445 127.62C154.525 126.56 154.065 125.17 154.065 123.45C154.065 121.73 154.525 120.34 155.445 119.28C156.365 118.22 157.575 117.69 159.075 117.69C160.575 117.69 161.785 118.22 162.705 119.28C163.645 120.34 164.115 121.73 164.115 123.45C164.115 125.17 163.645 126.56 162.705 127.62C161.785 128.68 160.575 129.21 159.075 129.21ZM159.075 127.11C159.875 127.11 160.505 126.79 160.965 126.15C161.425 125.49 161.655 124.59 161.655 123.45C161.655 122.31 161.425 121.42 160.965 120.78C160.505 120.12 159.875 119.79 159.075 119.79C158.275 119.79 157.645 120.11 157.185 120.75C156.725 121.39 156.495 122.29 156.495 123.45C156.495 124.61 156.725 125.51 157.185 126.15C157.645 126.79 158.275 127.11 159.075 127.11Z" fill="white"/>
</svg>
