<svg width="116" height="48" viewBox="0 0 116 48" fill="none" xmlns="http://www.w3.org/2000/svg">
    <path d="M0.528809 35.3987C0.528809 30.894 3.80972 27.2422 7.85692 27.2422C11.9041 27.2422 15.185 30.894 15.185 35.3987V39.4769C15.185 43.9817 11.9041 47.6335 7.85692 47.6335C3.80972 47.6335 0.528809 43.9817 0.528809 39.4769V35.3987Z" fill="#00FCFC"/>
    <path d="M24.106 28.9717C24.106 24.8491 27.3869 21.5071 31.4341 21.5071C35.4813 21.5071 38.7622 24.8491 38.7622 28.9717V40.1687C38.7622 44.2913 35.4813 47.6334 31.4341 47.6334C27.3869 47.6334 24.106 44.2913 24.106 40.1687V28.9717Z" fill="#00FCFC"/>
    <path d="M50.8701 22.3567C50.8701 18.3681 54.151 15.1348 58.1982 15.1348C62.2454 15.1348 65.5263 18.3681 65.5263 22.3567V40.4114C65.5263 44.4 62.2454 47.6333 58.1982 47.6333C54.151 47.6333 50.8701 44.4 50.8701 40.4114V22.3567Z" fill="#00FCFC"/>
    <path d="M77.6328 13.7442C77.6328 9.58506 80.3431 6.21338 83.6865 6.21338C87.0298 6.21338 89.7401 9.58506 89.7401 13.7442V40.1023C89.7401 44.2615 87.0298 47.6331 83.6865 47.6331C80.3431 47.6331 77.6328 44.2615 77.6328 40.1023V13.7442Z" fill="#00FCFC"/>
    <path d="M101.211 7.73286C101.211 3.72626 104.492 0.478271 108.539 0.478271C112.586 0.478271 115.867 3.72626 115.867 7.73286V40.3785C115.867 44.3851 112.586 47.6331 108.539 47.6331C104.492 47.6331 101.211 44.3851 101.211 40.3785V7.73286Z" fill="#00FCFC"/>
</svg>
