<svg width="116" height="48" viewBox="0 0 116 48" fill="none" xmlns="http://www.w3.org/2000/svg">
    <path d="M0.489121 35.3987C0.489121 31.0677 3.63468 27.6293 7.43016 27.6293C11.2256 27.6293 14.3712 31.0677 14.3712 35.3987V39.4769C14.3712 43.8079 11.2256 47.2464 7.43016 47.2464C3.63468 47.2464 0.489121 43.8079 0.489121 39.4769V35.3987Z" stroke="#00FCFC" stroke-width="0.774141"/>
    <path fill-rule="evenodd" clip-rule="evenodd" d="M37.6982 40.1687V28.9717C37.6982 25.1899 34.6915 22.1443 31.0073 22.1443C27.3231 22.1443 24.3164 25.1899 24.3164 28.9717V40.1687C24.3164 43.9506 27.3231 46.9962 31.0073 46.9962C34.6915 46.9962 37.6982 43.9506 37.6982 40.1687ZM31.0073 21.5071C26.9601 21.5071 23.6792 24.8491 23.6792 28.9717V40.1687C23.6792 44.2913 26.9601 47.6334 31.0073 47.6334C35.0545 47.6334 38.3354 44.2913 38.3354 40.1687V28.9717C38.3354 24.8491 35.0545 21.5071 31.0073 21.5071Z" fill="#00FCFC"/>
    <path fill-rule="evenodd" clip-rule="evenodd" d="M64.4624 40.4114V22.3567C64.4624 18.7288 61.4755 15.772 57.7715 15.772C54.0674 15.772 51.0806 18.7288 51.0806 22.3567V40.4114C51.0806 44.0393 54.0674 46.9961 57.7715 46.9961C61.4755 46.9961 64.4624 44.0393 64.4624 40.4114ZM57.7715 15.1348C53.7243 15.1348 50.4434 18.3681 50.4434 22.3567V40.4114C50.4434 44.4 53.7243 47.6333 57.7715 47.6333C61.8187 47.6333 65.0996 44.4 65.0996 40.4114V22.3567C65.0996 18.3681 61.8187 15.1348 57.7715 15.1348Z" fill="#00FCFC"/>
    <path fill-rule="evenodd" clip-rule="evenodd" d="M88.6761 40.1023V13.7442C88.6761 9.80006 86.1283 6.85061 83.2597 6.85061C80.3912 6.85061 77.8433 9.80006 77.8433 13.7442V40.1023C77.8433 44.0465 80.3912 46.9959 83.2597 46.9959C86.1283 46.9959 88.6761 44.0465 88.6761 40.1023ZM83.2597 6.21338C79.9164 6.21338 77.2061 9.58506 77.2061 13.7442V40.1023C77.2061 44.2615 79.9164 47.6331 83.2597 47.6331C86.6031 47.6331 89.3134 44.2615 89.3134 40.1023V13.7442C89.3134 9.58506 86.6031 6.21338 83.2597 6.21338Z" fill="#00FCFC"/>
    <path fill-rule="evenodd" clip-rule="evenodd" d="M114.803 40.3785V7.73286C114.803 4.08423 111.814 1.1155 108.112 1.1155C104.411 1.1155 101.421 4.08423 101.421 7.73286V40.3785C101.421 44.0271 104.411 46.9958 108.112 46.9958C111.814 46.9958 114.803 44.0271 114.803 40.3785ZM108.112 0.478271C104.065 0.478271 100.784 3.72626 100.784 7.73286V40.3785C100.784 44.3851 104.065 47.6331 108.112 47.6331C112.159 47.6331 115.44 44.3851 115.44 40.3785V7.73286C115.44 3.72626 112.159 0.478271 108.112 0.478271Z" fill="#00FCFC"/>
</svg>
