<svg width="181" height="130" viewBox="0 0 181 130" fill="none" xmlns="http://www.w3.org/2000/svg">
    <path d="M0 54.8C0 47.7308 5.14873 42 11.5 42C17.8513 42 23 47.7308 23 54.8V61.2C23 68.2692 17.8513 74 11.5 74C5.14873 74 0 68.2692 0 61.2V54.8Z" fill="#F08D6A"/>
    <path d="M37 44.7143C37 38.2447 42.1487 33 48.5 33C54.8513 33 60 38.2447 60 44.7143V62.2857C60 68.7553 54.8513 74 48.5 74C42.1487 74 37 68.7553 37 62.2857V44.7143Z" fill="#F08D6A"/>
    <path fill-rule="evenodd" clip-rule="evenodd" d="M101 62.6667V34.3333C101 28.6401 96.3128 24 90.5 24C84.6872 24 80 28.6401 80 34.3333V62.6667C80 68.3599 84.6872 73 90.5 73C96.3128 73 101 68.3599 101 62.6667ZM90.5 23C84.1487 23 79 28.0741 79 34.3333V62.6667C79 68.9259 84.1487 74 90.5 74C96.8513 74 102 68.9259 102 62.6667V34.3333C102 28.0741 96.8513 23 90.5 23Z" fill="white"/>
    <path fill-rule="evenodd" clip-rule="evenodd" d="M139 62.1818V20.8182C139 14.6286 135.002 10 130.5 10C125.998 10 122 14.6286 122 20.8182V62.1818C122 68.3714 125.998 73 130.5 73C135.002 73 139 68.3714 139 62.1818ZM130.5 9C125.253 9 121 14.2912 121 20.8182V62.1818C121 68.7088 125.253 74 130.5 74C135.747 74 140 68.7088 140 62.1818V20.8182C140 14.2912 135.747 9 130.5 9Z" fill="white"/>
    <path fill-rule="evenodd" clip-rule="evenodd" d="M180 62.6154V11.3846C180 5.65883 175.309 1 169.5 1C163.691 1 159 5.65883 159 11.3846V62.6154C159 68.3412 163.691 73 169.5 73C175.309 73 180 68.3412 180 62.6154ZM169.5 0C163.149 0 158 5.09707 158 11.3846V62.6154C158 68.9029 163.149 74 169.5 74C175.851 74 181 68.9029 181 62.6154V11.3846C181 5.09707 175.851 0 169.5 0Z" fill="white"/>
    <path d="M43.8906 116.13C46.8506 116.13 49.0406 116.71 50.4606 117.87C51.8806 119.01 52.5906 120.57 52.5906 122.55C52.5906 123.81 52.2806 124.95 51.6606 125.97C51.0406 126.99 50.1106 127.8 48.8706 128.4C47.6306 129 46.1006 129.3 44.2806 129.3C42.7806 129.3 41.3306 129.09 39.9306 128.67C38.5306 128.23 37.3506 127.63 36.3906 126.87L38.0406 123.84C38.8206 124.48 39.7506 124.99 40.8306 125.37C41.9306 125.73 43.0606 125.91 44.2206 125.91C45.6006 125.91 46.6806 125.63 47.4606 125.07C48.2606 124.49 48.6606 123.7 48.6606 122.7C48.6606 121.62 48.2306 120.81 47.3706 120.27C46.5306 119.71 45.0806 119.43 43.0206 119.43H37.9506L39.0306 108H51.3606V111.27H42.3306L41.8806 116.13H43.8906Z" fill="white"/>
    <path d="M63.6002 129.3C61.9202 129.3 60.4202 128.88 59.1002 128.04C57.7802 127.18 56.7402 125.94 55.9802 124.32C55.2202 122.68 54.8402 120.74 54.8402 118.5C54.8402 116.26 55.2202 114.33 55.9802 112.71C56.7402 111.07 57.7802 109.83 59.1002 108.99C60.4202 108.13 61.9202 107.7 63.6002 107.7C65.2802 107.7 66.7802 108.13 68.1002 108.99C69.4402 109.83 70.4902 111.07 71.2502 112.71C72.0102 114.33 72.3902 116.26 72.3902 118.5C72.3902 120.74 72.0102 122.68 71.2502 124.32C70.4902 125.94 69.4402 127.18 68.1002 128.04C66.7802 128.88 65.2802 129.3 63.6002 129.3ZM63.6002 125.91C65.1002 125.91 66.2802 125.29 67.1402 124.05C68.0202 122.81 68.4602 120.96 68.4602 118.5C68.4602 116.04 68.0202 114.19 67.1402 112.95C66.2802 111.71 65.1002 111.09 63.6002 111.09C62.1202 111.09 60.9402 111.71 60.0602 112.95C59.2002 114.19 58.7702 116.04 58.7702 118.5C58.7702 120.96 59.2002 122.81 60.0602 124.05C60.9402 125.29 62.1202 125.91 63.6002 125.91Z" fill="white"/>
    <path d="M83.6467 119.1H91.8967V122.22H83.6467V119.1Z" fill="white"/>
    <path d="M112.691 116.04C114.071 116.04 115.311 116.31 116.411 116.85C117.511 117.37 118.371 118.12 118.991 119.1C119.611 120.08 119.921 121.21 119.921 122.49C119.921 123.85 119.581 125.05 118.901 126.09C118.221 127.11 117.301 127.9 116.141 128.46C114.981 129.02 113.681 129.3 112.241 129.3C109.361 129.3 107.121 128.4 105.521 126.6C103.941 124.8 103.151 122.22 103.151 118.86C103.151 116.5 103.581 114.49 104.441 112.83C105.301 111.15 106.501 109.88 108.041 109.02C109.601 108.14 111.401 107.7 113.441 107.7C114.521 107.7 115.531 107.82 116.471 108.06C117.431 108.28 118.261 108.61 118.961 109.05L117.521 111.99C116.481 111.31 115.151 110.97 113.531 110.97C111.511 110.97 109.931 111.59 108.791 112.83C107.651 114.07 107.081 115.86 107.081 118.2V118.23C107.701 117.51 108.491 116.97 109.451 116.61C110.411 116.23 111.491 116.04 112.691 116.04ZM112.031 126.24C113.251 126.24 114.241 125.92 115.001 125.28C115.761 124.62 116.141 123.75 116.141 122.67C116.141 121.57 115.761 120.7 115.001 120.06C114.241 119.42 113.221 119.1 111.941 119.1C110.681 119.1 109.651 119.44 108.851 120.12C108.071 120.8 107.681 121.66 107.681 122.7C107.681 123.72 108.061 124.57 108.821 125.25C109.601 125.91 110.671 126.24 112.031 126.24Z" fill="white"/>
    <path d="M130.719 129.3C129.039 129.3 127.539 128.88 126.219 128.04C124.899 127.18 123.859 125.94 123.099 124.32C122.339 122.68 121.959 120.74 121.959 118.5C121.959 116.26 122.339 114.33 123.099 112.71C123.859 111.07 124.899 109.83 126.219 108.99C127.539 108.13 129.039 107.7 130.719 107.7C132.399 107.7 133.899 108.13 135.219 108.99C136.559 109.83 137.609 111.07 138.369 112.71C139.129 114.33 139.509 116.26 139.509 118.5C139.509 120.74 139.129 122.68 138.369 124.32C137.609 125.94 136.559 127.18 135.219 128.04C133.899 128.88 132.399 129.3 130.719 129.3ZM130.719 125.91C132.219 125.91 133.399 125.29 134.259 124.05C135.139 122.81 135.579 120.96 135.579 118.5C135.579 116.04 135.139 114.19 134.259 112.95C133.399 111.71 132.219 111.09 130.719 111.09C129.239 111.09 128.059 111.71 127.179 112.95C126.319 114.19 125.889 116.04 125.889 118.5C125.889 120.96 126.319 122.81 127.179 124.05C128.059 125.29 129.239 125.91 130.719 125.91Z" fill="white"/>
    <path d="M146.825 119.31C145.325 119.31 144.115 118.78 143.195 117.72C142.275 116.66 141.815 115.27 141.815 113.55C141.815 111.83 142.275 110.44 143.195 109.38C144.115 108.32 145.325 107.79 146.825 107.79C148.325 107.79 149.535 108.32 150.455 109.38C151.395 110.42 151.865 111.81 151.865 113.55C151.865 115.29 151.395 116.69 150.455 117.75C149.535 118.79 148.325 119.31 146.825 119.31ZM159.425 108H162.365L148.025 129H145.085L159.425 108ZM146.825 117.21C147.645 117.21 148.275 116.89 148.715 116.25C149.175 115.61 149.405 114.71 149.405 113.55C149.405 112.39 149.175 111.49 148.715 110.85C148.275 110.21 147.645 109.89 146.825 109.89C146.045 109.89 145.415 110.22 144.935 110.88C144.475 111.52 144.245 112.41 144.245 113.55C144.245 114.69 144.475 115.59 144.935 116.25C145.415 116.89 146.045 117.21 146.825 117.21ZM160.595 129.21C159.095 129.21 157.885 128.68 156.965 127.62C156.045 126.56 155.585 125.17 155.585 123.45C155.585 121.73 156.045 120.34 156.965 119.28C157.885 118.22 159.095 117.69 160.595 117.69C162.095 117.69 163.305 118.22 164.225 119.28C165.165 120.34 165.635 121.73 165.635 123.45C165.635 125.17 165.165 126.56 164.225 127.62C163.305 128.68 162.095 129.21 160.595 129.21ZM160.595 127.11C161.395 127.11 162.025 126.79 162.485 126.15C162.945 125.49 163.175 124.59 163.175 123.45C163.175 122.31 162.945 121.42 162.485 120.78C162.025 120.12 161.395 119.79 160.595 119.79C159.795 119.79 159.165 120.11 158.705 120.75C158.245 121.39 158.015 122.29 158.015 123.45C158.015 124.61 158.245 125.51 158.705 126.15C159.165 126.79 159.795 127.11 160.595 127.11Z" fill="white"/>
</svg>
