<svg width="200" height="95" viewBox="0 0 200 95" fill="none" xmlns="http://www.w3.org/2000/svg">
    <path d="M80.56 80.0003V94.0003H77.96V82.1803H75V80.0003H80.56Z" fill="white"/>
    <path d="M89.1772 94.2003C88.0572 94.2003 87.0572 93.9203 86.1772 93.3603C85.2972 92.787 84.6039 91.9603 84.0972 90.8803C83.5905 89.787 83.3372 88.4936 83.3372 87.0003C83.3372 85.507 83.5905 84.2203 84.0972 83.1403C84.6039 82.047 85.2972 81.2203 86.1772 80.6603C87.0572 80.087 88.0572 79.8003 89.1772 79.8003C90.2972 79.8003 91.2972 80.087 92.1772 80.6603C93.0705 81.2203 93.7705 82.047 94.2772 83.1403C94.7839 84.2203 95.0372 85.507 95.0372 87.0003C95.0372 88.4936 94.7839 89.787 94.2772 90.8803C93.7705 91.9603 93.0705 92.787 92.1772 93.3603C91.2972 93.9203 90.2972 94.2003 89.1772 94.2003ZM89.1772 91.9403C90.1772 91.9403 90.9639 91.527 91.5372 90.7003C92.1239 89.8736 92.4172 88.6403 92.4172 87.0003C92.4172 85.3603 92.1239 84.127 91.5372 83.3003C90.9639 82.4736 90.1772 82.0603 89.1772 82.0603C88.1905 82.0603 87.4039 82.4736 86.8172 83.3003C86.2439 84.127 85.9572 85.3603 85.9572 87.0003C85.9572 88.6403 86.2439 89.8736 86.8172 90.7003C87.4039 91.527 88.1905 91.9403 89.1772 91.9403Z" fill="white"/>
    <path d="M102.634 94.2003C101.514 94.2003 100.514 93.9203 99.6342 93.3603C98.7542 92.787 98.0609 91.9603 97.5542 90.8803C97.0476 89.787 96.7942 88.4936 96.7942 87.0003C96.7942 85.507 97.0476 84.2203 97.5542 83.1403C98.0609 82.047 98.7542 81.2203 99.6342 80.6603C100.514 80.087 101.514 79.8003 102.634 79.8003C103.754 79.8003 104.754 80.087 105.634 80.6603C106.528 81.2203 107.228 82.047 107.734 83.1403C108.241 84.2203 108.494 85.507 108.494 87.0003C108.494 88.4936 108.241 89.787 107.734 90.8803C107.228 91.9603 106.528 92.787 105.634 93.3603C104.754 93.9203 103.754 94.2003 102.634 94.2003ZM102.634 91.9403C103.634 91.9403 104.421 91.527 104.994 90.7003C105.581 89.8736 105.874 88.6403 105.874 87.0003C105.874 85.3603 105.581 84.127 104.994 83.3003C104.421 82.4736 103.634 82.0603 102.634 82.0603C101.648 82.0603 100.861 82.4736 100.274 83.3003C99.7009 84.127 99.4142 85.3603 99.4142 87.0003C99.4142 88.6403 99.7009 89.8736 100.274 90.7003C100.861 91.527 101.648 91.9403 102.634 91.9403Z" fill="white"/>
    <path d="M113.371 87.5403C112.371 87.5403 111.565 87.187 110.951 86.4803C110.338 85.7736 110.031 84.847 110.031 83.7003C110.031 82.5536 110.338 81.627 110.951 80.9203C111.565 80.2136 112.371 79.8603 113.371 79.8603C114.371 79.8603 115.178 80.2136 115.791 80.9203C116.418 81.6136 116.731 82.5403 116.731 83.7003C116.731 84.8603 116.418 85.7936 115.791 86.5003C115.178 87.1936 114.371 87.5403 113.371 87.5403ZM121.771 80.0003H123.731L114.171 94.0003H112.211L121.771 80.0003ZM113.371 86.1403C113.918 86.1403 114.338 85.927 114.631 85.5003C114.938 85.0736 115.091 84.4736 115.091 83.7003C115.091 82.927 114.938 82.327 114.631 81.9003C114.338 81.4736 113.918 81.2603 113.371 81.2603C112.851 81.2603 112.431 81.4803 112.111 81.9203C111.805 82.347 111.651 82.9403 111.651 83.7003C111.651 84.4603 111.805 85.0603 112.111 85.5003C112.431 85.927 112.851 86.1403 113.371 86.1403ZM122.551 94.1403C121.551 94.1403 120.745 93.787 120.131 93.0803C119.518 92.3736 119.211 91.447 119.211 90.3003C119.211 89.1536 119.518 88.227 120.131 87.5203C120.745 86.8136 121.551 86.4603 122.551 86.4603C123.551 86.4603 124.358 86.8136 124.971 87.5203C125.598 88.227 125.911 89.1536 125.911 90.3003C125.911 91.447 125.598 92.3736 124.971 93.0803C124.358 93.787 123.551 94.1403 122.551 94.1403ZM122.551 92.7403C123.085 92.7403 123.505 92.527 123.811 92.1003C124.118 91.6603 124.271 91.0603 124.271 90.3003C124.271 89.5403 124.118 88.947 123.811 88.5203C123.505 88.0803 123.085 87.8603 122.551 87.8603C122.018 87.8603 121.598 88.0736 121.291 88.5003C120.985 88.927 120.831 89.527 120.831 90.3003C120.831 91.0736 120.985 91.6736 121.291 92.1003C121.598 92.527 122.018 92.7403 122.551 92.7403Z" fill="white"/>
    <path d="M200 51.0581C200 55.2814 197.21 58.7051 193.769 58.7051L6.69403 58.7051C3.25276 58.7051 0.463073 55.2814 0.463073 51.0581C0.463072 46.8348 3.25274 43.4112 6.69401 43.4112L193.769 43.4111C197.21 43.4111 200 46.8348 200 51.0581Z" fill="#94EC4F"/>
    <path d="M98.66 0.000244141V21.0002H94.76V12.0002H83.9V21.0002H80V0.000244141H83.9V8.67025H94.76V0.000244141H98.66Z" fill="white"/>
    <path d="M121.507 16.2302H117.787V21.0002H114.007V16.2302H102.487V13.5302L112.837 0.000244141H117.007L107.257 12.9302H114.127V8.70024H117.787V12.9302H121.507V16.2302Z" fill="white"/>
</svg>
