<svg width="149" height="61" viewBox="0 0 149 61" fill="none" xmlns="http://www.w3.org/2000/svg">
    <path d="M0.00689697 45.1081C0.00689697 39.2891 4.24502 34.5719 9.47302 34.5719C14.701 34.5719 18.9391 39.2891 18.9391 45.1081V50.3762C18.9391 56.1952 14.701 60.9124 9.47302 60.9124C4.24502 60.9124 0.00689697 56.1952 0.00689697 50.3762V45.1081Z" fill="white"/>
    <path d="M30.4631 36.8061C30.4631 31.4807 34.7012 27.1636 39.9292 27.1636C45.1572 27.1636 49.3953 31.4807 49.3953 36.8061V51.2699C49.3953 56.5953 45.1572 60.9124 39.9292 60.9124C34.7012 60.9124 30.4631 56.5953 30.4631 51.2699V36.8061Z" fill="white"/>
    <path d="M65.035 28.2612C65.035 23.109 69.2732 18.9323 74.5012 18.9323C79.7292 18.9323 83.9673 23.109 83.9673 28.2612V51.5835C83.9673 56.7357 79.7292 60.9124 74.5012 60.9124C69.2732 60.9124 65.035 56.7357 65.035 51.5835V28.2612Z" fill="white"/>
    <path fill-rule="evenodd" clip-rule="evenodd" d="M114.424 51.1845V17.1364C114.424 12.0414 111.132 8.23147 107.427 8.23147C103.721 8.23147 100.43 12.0414 100.43 17.1364V51.1845C100.43 56.2794 103.721 60.0894 107.427 60.0894C111.132 60.0894 114.424 56.2794 114.424 51.1845ZM107.427 7.40833C103.108 7.40833 99.607 11.7637 99.607 17.1364V51.1845C99.607 56.5571 103.108 60.9125 107.427 60.9125C111.746 60.9125 115.247 56.5571 115.247 51.1845V17.1364C115.247 11.7637 111.746 7.40833 107.427 7.40833Z" fill="white"/>
    <path fill-rule="evenodd" clip-rule="evenodd" d="M148.172 51.5413V9.37114C148.172 4.65802 144.311 0.823141 139.529 0.823141C134.748 0.823141 130.886 4.65802 130.886 9.37114V51.5413C130.886 56.2544 134.748 60.0893 139.529 60.0893C144.311 60.0893 148.172 56.2544 148.172 51.5413ZM139.529 0C134.301 0 130.063 4.1956 130.063 9.37114V51.5413C130.063 56.7168 134.301 60.9124 139.529 60.9124C144.757 60.9124 148.995 56.7168 148.995 51.5413V9.37114C148.995 4.1956 144.757 0 139.529 0Z" fill="white"/>
</svg>
