<svg width="149" height="61" viewBox="0 0 149 61" fill="none" xmlns="http://www.w3.org/2000/svg">
    <path d="M0.0114746 45.1081C0.0114746 39.2891 4.2496 34.5719 9.4776 34.5719C14.7056 34.5719 18.9437 39.2891 18.9437 45.1081V50.3762C18.9437 56.1952 14.7056 60.9124 9.4776 60.9124C4.2496 60.9124 0.0114746 56.1952 0.0114746 50.3762V45.1081Z" fill="white"/>
    <path d="M30.4677 36.8061C30.4677 31.4807 34.7058 27.1636 39.9338 27.1636C45.1618 27.1636 49.4 31.4807 49.4 36.8061V51.2699C49.4 56.5953 45.1618 60.9124 39.9338 60.9124C34.7058 60.9124 30.4677 56.5953 30.4677 51.2699V36.8061Z" fill="white"/>
    <path d="M65.0396 28.2612C65.0396 23.109 69.2777 18.9323 74.5057 18.9323C79.7337 18.9323 83.9719 23.109 83.9719 28.2612V51.5835C83.9719 56.7357 79.7337 60.9124 74.5057 60.9124C69.2777 60.9124 65.0396 56.7357 65.0396 51.5835V28.2612Z" fill="white"/>
    <path d="M99.6115 17.1364C99.6115 11.7637 103.113 7.40833 107.431 7.40833C111.75 7.40833 115.251 11.7637 115.251 17.1364V51.1845C115.251 56.5571 111.75 60.9125 107.431 60.9125C103.113 60.9125 99.6115 56.5571 99.6115 51.1845V17.1364Z" fill="white"/>
    <path d="M130.068 9.37114C130.068 4.1956 134.306 0 139.534 0C144.762 0 149 4.1956 149 9.37114V51.5413C149 56.7168 144.762 60.9124 139.534 60.9124C134.306 60.9124 130.068 56.7168 130.068 51.5413V9.37114Z" fill="white"/>
</svg>
