<svg width="155" height="76" viewBox="0 0 155 76" fill="none" xmlns="http://www.w3.org/2000/svg">
    <path d="M80.2087 0.342041V16.599H77.1895V9.63173H68.7823V16.599H65.7632V0.342041H68.7823V7.05384H77.1895V0.342041H80.2087Z" fill="#00FCFC"/>
    <path d="M89.0239 0.342041V16.599H86.0047V2.87348H82.5675V0.342041H89.0239Z" fill="#00FCFC"/>
    <path d="M154.88 39.8683C154.88 43.1377 152.72 45.7881 150.056 45.7881L5.2339 45.7881C2.56987 45.7881 0.410263 43.1377 0.410262 39.8683C0.410262 36.5988 2.56987 33.9484 5.2339 33.9484L150.056 33.9484C152.72 33.9484 154.88 36.5988 154.88 39.8683Z" fill="#B9F46F"/>
    <path d="M54.6618 68.2624C55.374 68.2624 56.014 68.4017 56.5817 68.6804C57.1494 68.9488 57.5932 69.3358 57.9132 69.8416C58.2332 70.3474 58.3932 70.9306 58.3932 71.5912C58.3932 72.293 58.2177 72.9124 57.8667 73.4491C57.5158 73.9755 57.041 74.3832 56.4423 74.6722C55.8436 74.9612 55.1727 75.1058 54.4296 75.1058C52.9432 75.1058 51.7872 74.6413 50.9614 73.7123C50.146 72.7833 49.7383 71.4518 49.7383 69.7177C49.7383 68.4998 49.9602 67.4624 50.404 66.6057C50.8479 65.7387 51.4672 65.0832 52.262 64.6394C53.0671 64.1852 53.996 63.9581 55.0489 63.9581C55.6062 63.9581 56.1275 64.0201 56.6126 64.1439C57.1081 64.2575 57.5364 64.4278 57.8977 64.6549L57.1545 66.1722C56.6178 65.8212 55.9314 65.6458 55.0953 65.6458C54.0528 65.6458 53.2374 65.9657 52.649 66.6057C52.0607 67.2456 51.7665 68.1695 51.7665 69.3771V69.3926C52.0865 69.021 52.4942 68.7423 52.9896 68.5565C53.4851 68.3604 54.0425 68.2624 54.6618 68.2624ZM54.3212 73.5265C54.9508 73.5265 55.4617 73.3614 55.854 73.0311C56.2462 72.6904 56.4423 72.2414 56.4423 71.6841C56.4423 71.1164 56.2462 70.6673 55.854 70.337C55.4617 70.0067 54.9353 69.8416 54.2747 69.8416C53.6244 69.8416 53.0929 70.0171 52.68 70.368C52.2774 70.719 52.0762 71.1628 52.0762 71.6995C52.0762 72.226 52.2723 72.6646 52.6645 73.0156C53.0671 73.3562 53.6193 73.5265 54.3212 73.5265ZM62.836 68.3088C64.3636 68.3088 65.4939 68.6081 66.2267 69.2068C66.9596 69.7952 67.326 70.6003 67.326 71.6221C67.326 72.2724 67.166 72.8607 66.846 73.3872C66.5261 73.9136 66.0461 74.3316 65.4061 74.6413C64.7662 74.9509 63.9766 75.1058 63.0373 75.1058C62.2631 75.1058 61.5148 74.9974 60.7923 74.7806C60.0697 74.5535 59.4607 74.2439 58.9653 73.8516L59.8168 72.2879C60.2194 72.6182 60.6994 72.8814 61.2567 73.0775C61.8244 73.2633 62.4076 73.3562 63.0063 73.3562C63.7185 73.3562 64.2759 73.2117 64.6784 72.9227C65.0913 72.6233 65.2978 72.2156 65.2978 71.6995C65.2978 71.1422 65.0758 70.7241 64.632 70.4454C64.1985 70.1564 63.4501 70.0119 62.387 70.0119H59.7704L60.3278 64.113H66.6912V65.8006H62.0309L61.7986 68.3088H62.836ZM68.6573 69.8416H72.9151V71.4518H68.6573V69.8416ZM82.468 64.113V65.46L78.2566 74.9509H76.1045L80.1765 65.8161H75.9187V67.6585H74.0453V64.113H82.468ZM87.9313 75.1058C87.0643 75.1058 86.2902 74.889 85.6089 74.4555C84.9277 74.0116 84.3909 73.3717 83.9987 72.5356C83.6065 71.6892 83.4104 70.688 83.4104 69.5319C83.4104 68.3759 83.6065 67.3798 83.9987 66.5438C84.3909 65.6974 84.9277 65.0574 85.6089 64.6239C86.2902 64.18 87.0643 63.9581 87.9313 63.9581C88.7984 63.9581 89.5725 64.18 90.2538 64.6239C90.9453 65.0574 91.4872 65.6974 91.8795 66.5438C92.2717 67.3798 92.4678 68.3759 92.4678 69.5319C92.4678 70.688 92.2717 71.6892 91.8795 72.5356C91.4872 73.3717 90.9453 74.0116 90.2538 74.4555C89.5725 74.889 88.7984 75.1058 87.9313 75.1058ZM87.9313 73.3562C88.7055 73.3562 89.3145 73.0362 89.7583 72.3963C90.2125 71.7563 90.4396 70.8015 90.4396 69.5319C90.4396 68.2624 90.2125 67.3076 89.7583 66.6676C89.3145 66.0277 88.7055 65.7077 87.9313 65.7077C87.1675 65.7077 86.5585 66.0277 86.1044 66.6676C85.6605 67.3076 85.4386 68.2624 85.4386 69.5319C85.4386 70.8015 85.6605 71.7563 86.1044 72.3963C86.5585 73.0362 87.1675 73.3562 87.9313 73.3562ZM96.2433 69.95C95.4692 69.95 94.8447 69.6764 94.3699 69.1294C93.8951 68.5823 93.6577 67.865 93.6577 66.9773C93.6577 66.0896 93.8951 65.3722 94.3699 64.8252C94.8447 64.2781 95.4692 64.0046 96.2433 64.0046C97.0175 64.0046 97.6419 64.2781 98.1167 64.8252C98.6019 65.3619 98.8444 66.0793 98.8444 66.9773C98.8444 67.8753 98.6019 68.5978 98.1167 69.1449C97.6419 69.6816 97.0175 69.95 96.2433 69.95ZM102.746 64.113H104.263L96.8626 74.9509H95.3453L102.746 64.113ZM96.2433 68.8662C96.6665 68.8662 96.9916 68.701 97.2187 68.3707C97.4561 68.0404 97.5748 67.5759 97.5748 66.9773C97.5748 66.3786 97.4561 65.9141 97.2187 65.5838C96.9916 65.2535 96.6665 65.0884 96.2433 65.0884C95.8408 65.0884 95.5156 65.2587 95.2679 65.5993C95.0305 65.9296 94.9118 66.3889 94.9118 66.9773C94.9118 67.5656 95.0305 68.0301 95.2679 68.3707C95.5156 68.701 95.8408 68.8662 96.2433 68.8662ZM103.35 75.0593C102.576 75.0593 101.951 74.7858 101.477 74.2387C101.002 73.6917 100.764 72.9743 100.764 72.0866C100.764 71.1989 101.002 70.4816 101.477 69.9345C101.951 69.3874 102.576 69.1139 103.35 69.1139C104.124 69.1139 104.749 69.3874 105.223 69.9345C105.708 70.4816 105.951 71.1989 105.951 72.0866C105.951 72.9743 105.708 73.6917 105.223 74.2387C104.749 74.7858 104.124 75.0593 103.35 75.0593ZM103.35 73.9755C103.763 73.9755 104.088 73.8104 104.325 73.4801C104.563 73.1394 104.681 72.675 104.681 72.0866C104.681 71.4983 104.563 71.0389 104.325 70.7086C104.088 70.368 103.763 70.1977 103.35 70.1977C102.937 70.1977 102.612 70.3629 102.375 70.6932C102.137 71.0235 102.018 71.4879 102.018 72.0866C102.018 72.6853 102.137 73.1498 102.375 73.4801C102.612 73.8104 102.937 73.9755 103.35 73.9755Z" fill="#00FCFC"/>
</svg>
