<svg width="181" height="130" viewBox="0 0 181 130" fill="none" xmlns="http://www.w3.org/2000/svg">
    <path d="M0 54.8C0 47.7308 5.14873 42 11.5 42C17.8513 42 23 47.7308 23 54.8V61.2C23 68.2692 17.8513 74 11.5 74C5.14873 74 0 68.2692 0 61.2V54.8Z" fill="#96ED4F"/>
    <path d="M37 44.7143C37 38.2447 42.1487 33 48.5 33C54.8513 33 60 38.2447 60 44.7143V62.2857C60 68.7553 54.8513 74 48.5 74C42.1487 74 37 68.7553 37 62.2857V44.7143Z" fill="#96ED4F"/>
    <path d="M79 34.3333C79 28.0741 84.1487 23 90.5 23C96.8513 23 102 28.0741 102 34.3333V62.6667C102 68.9259 96.8513 74 90.5 74C84.1487 74 79 68.9259 79 62.6667V34.3333Z" fill="#96ED4F"/>
    <path d="M121 20.8182C121 14.2912 125.253 9 130.5 9C135.747 9 140 14.2912 140 20.8182V62.1818C140 68.7088 135.747 74 130.5 74C125.253 74 121 68.7088 121 62.1818V20.8182Z" fill="#96ED4F"/>
    <path d="M158 11.3846C158 5.09706 163.149 0 169.5 0C175.851 0 181 5.09707 181 11.3846V62.6154C181 68.9029 175.851 74 169.5 74C163.149 74 158 68.9029 158 62.6154V11.3846Z" fill="#96ED4F"/>
    <path d="M67.1598 108V110.61L58.9998 129H54.8298L62.7198 111.3H54.4698V114.87H50.8398V108H67.1598Z" fill="white"/>
    <path d="M77.7459 129.3C76.0659 129.3 74.5659 128.88 73.2459 128.04C71.9259 127.18 70.8859 125.94 70.1259 124.32C69.3659 122.68 68.9859 120.74 68.9859 118.5C68.9859 116.26 69.3659 114.33 70.1259 112.71C70.8859 111.07 71.9259 109.83 73.2459 108.99C74.5659 108.13 76.0659 107.7 77.7459 107.7C79.4259 107.7 80.9259 108.13 82.2459 108.99C83.5859 109.83 84.6359 111.07 85.3959 112.71C86.1559 114.33 86.5359 116.26 86.5359 118.5C86.5359 120.74 86.1559 122.68 85.3959 124.32C84.6359 125.94 83.5859 127.18 82.2459 128.04C80.9259 128.88 79.4259 129.3 77.7459 129.3ZM77.7459 125.91C79.2459 125.91 80.4259 125.29 81.2859 124.05C82.1659 122.81 82.6059 120.96 82.6059 118.5C82.6059 116.04 82.1659 114.19 81.2859 112.95C80.4259 111.71 79.2459 111.09 77.7459 111.09C76.2659 111.09 75.0859 111.71 74.2059 112.95C73.3459 114.19 72.9159 116.04 72.9159 118.5C72.9159 120.96 73.3459 122.81 74.2059 124.05C75.0859 125.29 76.2659 125.91 77.7459 125.91Z" fill="white"/>
    <path d="M93.8514 119.31C92.3514 119.31 91.1414 118.78 90.2214 117.72C89.3014 116.66 88.8414 115.27 88.8414 113.55C88.8414 111.83 89.3014 110.44 90.2214 109.38C91.1414 108.32 92.3514 107.79 93.8514 107.79C95.3514 107.79 96.5614 108.32 97.4814 109.38C98.4214 110.42 98.8914 111.81 98.8914 113.55C98.8914 115.29 98.4214 116.69 97.4814 117.75C96.5614 118.79 95.3514 119.31 93.8514 119.31ZM106.451 108H109.391L95.0514 129H92.1114L106.451 108ZM93.8514 117.21C94.6714 117.21 95.3014 116.89 95.7414 116.25C96.2014 115.61 96.4314 114.71 96.4314 113.55C96.4314 112.39 96.2014 111.49 95.7414 110.85C95.3014 110.21 94.6714 109.89 93.8514 109.89C93.0714 109.89 92.4414 110.22 91.9614 110.88C91.5014 111.52 91.2714 112.41 91.2714 113.55C91.2714 114.69 91.5014 115.59 91.9614 116.25C92.4414 116.89 93.0714 117.21 93.8514 117.21ZM107.621 129.21C106.121 129.21 104.911 128.68 103.991 127.62C103.071 126.56 102.611 125.17 102.611 123.45C102.611 121.73 103.071 120.34 103.991 119.28C104.911 118.22 106.121 117.69 107.621 117.69C109.121 117.69 110.331 118.22 111.251 119.28C112.191 120.34 112.661 121.73 112.661 123.45C112.661 125.17 112.191 126.56 111.251 127.62C110.331 128.68 109.121 129.21 107.621 129.21ZM107.621 127.11C108.421 127.11 109.051 126.79 109.511 126.15C109.971 125.49 110.201 124.59 110.201 123.45C110.201 122.31 109.971 121.42 109.511 120.78C109.051 120.12 108.421 119.79 107.621 119.79C106.821 119.79 106.191 120.11 105.731 120.75C105.271 121.39 105.041 122.29 105.041 123.45C105.041 124.61 105.271 125.51 105.731 126.15C106.191 126.79 106.821 127.11 107.621 127.11Z" fill="white"/>
    <path d="M129.442 114.63L119.092 118.5L129.442 122.37V125.49L115.612 120.12V116.88L129.442 111.51V114.63Z" fill="white"/>
</svg>
