<svg width="149" height="61" viewBox="0 0 149 61" fill="none" xmlns="http://www.w3.org/2000/svg">
    <path d="M0.5 45.1081C0.5 39.5135 4.56329 35.0719 9.46612 35.0719C14.369 35.0719 18.4322 39.5135 18.4322 45.1081V50.3762C18.4322 55.9708 14.369 60.4124 9.46612 60.4124C4.56329 60.4124 0.5 55.9708 0.5 50.3762V45.1081Z" stroke="white"/>
    <path fill-rule="evenodd" clip-rule="evenodd" d="M48.5653 51.2699V36.8061C48.5653 31.9209 44.6815 27.9868 39.9224 27.9868C35.1632 27.9868 31.2794 31.9209 31.2794 36.8061V51.2699C31.2794 56.1551 35.1632 60.0893 39.9224 60.0893C44.6815 60.0893 48.5653 56.1551 48.5653 51.2699ZM39.9224 27.1636C34.6944 27.1636 30.4562 31.4807 30.4562 36.8061V51.2699C30.4562 56.5953 34.6944 60.9124 39.9224 60.9124C45.1504 60.9124 49.3885 56.5953 49.3885 51.2699V36.8061C49.3885 31.4807 45.1504 27.1636 39.9224 27.1636Z" fill="white"/>
    <path fill-rule="evenodd" clip-rule="evenodd" d="M83.1372 51.5835V28.2612C83.1372 23.5749 79.279 19.7554 74.4943 19.7554C69.7095 19.7554 65.8513 23.5749 65.8513 28.2612V51.5835C65.8513 56.2698 69.7095 60.0893 74.4943 60.0893C79.279 60.0893 83.1372 56.2698 83.1372 51.5835ZM74.4943 18.9323C69.2663 18.9323 65.0281 23.109 65.0281 28.2612V51.5835C65.0281 56.7357 69.2663 60.9124 74.4943 60.9124C79.7223 60.9124 83.9604 56.7357 83.9604 51.5835V28.2612C83.9604 23.109 79.7223 18.9323 74.4943 18.9323Z" fill="white"/>
    <path fill-rule="evenodd" clip-rule="evenodd" d="M114.417 51.1845V17.1364C114.417 12.0414 111.125 8.23147 107.42 8.23147C103.714 8.23147 100.423 12.0414 100.423 17.1364V51.1845C100.423 56.2794 103.714 60.0894 107.42 60.0894C111.125 60.0894 114.417 56.2794 114.417 51.1845ZM107.42 7.40833C103.101 7.40833 99.6 11.7637 99.6 17.1364V51.1845C99.6 56.5571 103.101 60.9125 107.42 60.9125C111.739 60.9125 115.24 56.5571 115.24 51.1845V17.1364C115.24 11.7637 111.739 7.40833 107.42 7.40833Z" fill="white"/>
    <path fill-rule="evenodd" clip-rule="evenodd" d="M148.165 51.5413V9.37114C148.165 4.65802 144.304 0.823141 139.522 0.823141C134.741 0.823141 130.879 4.65802 130.879 9.37114V51.5413C130.879 56.2544 134.741 60.0893 139.522 60.0893C144.304 60.0893 148.165 56.2544 148.165 51.5413ZM139.522 0C134.294 0 130.056 4.1956 130.056 9.37114V51.5413C130.056 56.7168 134.294 60.9124 139.522 60.9124C144.75 60.9124 148.988 56.7168 148.988 51.5413V9.37114C148.988 4.1956 144.75 0 139.522 0Z" fill="white"/>
</svg>
