<svg width="155" height="76" viewBox="0 0 155 76" fill="none" xmlns="http://www.w3.org/2000/svg">
    <path d="M79.1612 16.599L79.138 5.82296L73.7964 14.7411H72.4494L67.1078 5.9623V16.599H64.228V0.342041H66.713L73.1694 11.1181L79.5096 0.342041H81.9946L82.0178 16.599H79.1612Z" fill="#00FCFC"/>
    <path d="M90.868 0.342041V16.599H87.8489V2.87348H84.4117V0.342041H90.868Z" fill="#00FCFC"/>
    <path d="M154.47 39.8683C154.47 43.1377 152.31 45.7881 149.646 45.7881L4.82379 45.7881C2.15977 45.7881 0.000152303 43.1377 0.000151952 39.8683C0.000151601 36.5988 2.15976 33.9484 4.82377 33.9484L149.646 33.9484C152.31 33.9484 154.47 36.5988 154.47 39.8683Z" fill="#D64730"/>
    <path d="M67.2237 67.5347L61.8821 69.5319L67.2237 71.5292V73.1394L60.0861 70.368V68.6959L67.2237 65.9244V67.5347ZM72.2842 68.3088C73.8118 68.3088 74.942 68.6081 75.6749 69.2068C76.4077 69.7952 76.7742 70.6003 76.7742 71.6221C76.7742 72.2724 76.6142 72.8607 76.2942 73.3872C75.9742 73.9136 75.4943 74.3316 74.8543 74.6413C74.2143 74.9509 73.4247 75.1058 72.4854 75.1058C71.7113 75.1058 70.963 74.9974 70.2404 74.7806C69.5179 74.5535 68.9089 74.2439 68.4134 73.8516L69.265 72.2879C69.6676 72.6182 70.1475 72.8814 70.7049 73.0775C71.2726 73.2633 71.8558 73.3562 72.4545 73.3562C73.1667 73.3562 73.7241 73.2117 74.1266 72.9227C74.5395 72.6233 74.7459 72.2156 74.7459 71.6995C74.7459 71.1422 74.524 70.7241 74.0802 70.4454C73.6466 70.1564 72.8983 70.0119 71.8351 70.0119H69.2186L69.7759 64.113H76.1394V65.8006H71.479L71.2468 68.3088H72.2842ZM81.682 64.113V74.9509H79.6692V65.8006H77.3778V64.113H81.682ZM86.2472 69.95C85.4731 69.95 84.8486 69.6764 84.3738 69.1294C83.899 68.5823 83.6616 67.865 83.6616 66.9773C83.6616 66.0896 83.899 65.3722 84.3738 64.8252C84.8486 64.2781 85.4731 64.0046 86.2472 64.0046C87.0214 64.0046 87.6458 64.2781 88.1207 64.8252C88.6058 65.3619 88.8483 66.0793 88.8483 66.9773C88.8483 67.8753 88.6058 68.5978 88.1207 69.1449C87.6458 69.6816 87.0214 69.95 86.2472 69.95ZM92.75 64.113H94.2673L86.8665 74.9509H85.3492L92.75 64.113ZM86.2472 68.8662C86.6704 68.8662 86.9956 68.701 87.2226 68.3707C87.4601 68.0404 87.5788 67.5759 87.5788 66.9773C87.5788 66.3786 87.4601 65.9141 87.2226 65.5838C86.9956 65.2535 86.6704 65.0884 86.2472 65.0884C85.8447 65.0884 85.5195 65.2587 85.2718 65.5993C85.0344 65.9296 84.9157 66.3889 84.9157 66.9773C84.9157 67.5656 85.0344 68.0301 85.2718 68.3707C85.5195 68.701 85.8447 68.8662 86.2472 68.8662ZM93.3538 75.0593C92.5797 75.0593 91.9552 74.7858 91.4804 74.2387C91.0056 73.6917 90.7682 72.9743 90.7682 72.0866C90.7682 71.1989 91.0056 70.4816 91.4804 69.9345C91.9552 69.3874 92.5797 69.1139 93.3538 69.1139C94.128 69.1139 94.7525 69.3874 95.2273 69.9345C95.7124 70.4816 95.955 71.1989 95.955 72.0866C95.955 72.9743 95.7124 73.6917 95.2273 74.2387C94.7525 74.7858 94.128 75.0593 93.3538 75.0593ZM93.3538 73.9755C93.7667 73.9755 94.0919 73.8104 94.3293 73.4801C94.5667 73.1394 94.6854 72.675 94.6854 72.0866C94.6854 71.4983 94.5667 71.0389 94.3293 70.7086C94.0919 70.368 93.7667 70.1977 93.3538 70.1977C92.941 70.1977 92.6158 70.3629 92.3784 70.6932C92.141 71.0235 92.0223 71.4879 92.0223 72.0866C92.0223 72.6853 92.141 73.1498 92.3784 73.4801C92.6158 73.8104 92.941 73.9755 93.3538 73.9755Z" fill="#00FCFC"/>
</svg>
