<svg width="155" height="76" viewBox="0 0 155 76" fill="none" xmlns="http://www.w3.org/2000/svg">
    <path d="M71.0855 16.599L71.0623 5.82296L65.7207 14.7411H64.3737L59.0321 5.9623V16.599H56.1523V0.342041H58.6373L65.0937 11.1181L71.4339 0.342041H73.9189L73.9421 16.599H71.0855Z" fill="#00FCFC"/>
    <path d="M82.2582 6.63581C84.5496 6.63581 86.245 7.08481 87.3443 7.98281C88.4436 8.86533 88.9932 10.073 88.9932 11.6058C88.9932 12.5812 88.7532 13.4637 88.2733 14.2534C87.7933 15.043 87.0733 15.67 86.1134 16.1345C85.1535 16.599 83.969 16.8312 82.5601 16.8312C81.3989 16.8312 80.2764 16.6687 79.1926 16.3435C78.1088 16.0029 77.1953 15.5384 76.4521 14.9501L77.7295 12.6044C78.3333 13.0999 79.0532 13.4947 79.8893 13.7889C80.7409 14.0676 81.6157 14.2069 82.5137 14.2069C83.582 14.2069 84.418 13.9901 85.0219 13.5566C85.6412 13.1076 85.9508 12.4961 85.9508 11.7219C85.9508 10.8858 85.618 10.2588 84.9522 9.84075C84.3019 9.40723 83.1794 9.19047 81.5847 9.19047H77.6598L78.4959 0.342041H88.041V2.87348H81.0505L80.7022 6.63581H82.2582Z" fill="#00FCFC"/>
    <path d="M154.825 39.8683C154.825 43.1377 152.666 45.7881 150.002 45.7881L5.17926 45.7881C2.51524 45.7881 0.355621 43.1377 0.355621 39.8683C0.35562 36.5988 2.51524 33.9484 5.17926 33.9484L150.002 33.9484C152.666 33.9484 154.825 36.5988 154.825 39.8683Z" fill="#F08D6A"/>
    <path d="M50.4451 68.3088C51.9727 68.3088 53.103 68.6081 53.8358 69.2068C54.5687 69.7952 54.9351 70.6003 54.9351 71.6221C54.9351 72.2724 54.7751 72.8607 54.4552 73.3872C54.1352 73.9136 53.6552 74.3316 53.0152 74.6413C52.3753 74.9509 51.5857 75.1058 50.6464 75.1058C49.8722 75.1058 49.1239 74.9974 48.4014 74.7806C47.6788 74.5535 47.0698 74.2439 46.5744 73.8516L47.426 72.2879C47.8285 72.6182 48.3085 72.8814 48.8659 73.0775C49.4336 73.2633 50.0167 73.3562 50.6154 73.3562C51.3276 73.3562 51.885 73.2117 52.2876 72.9227C52.7004 72.6233 52.9069 72.2156 52.9069 71.6995C52.9069 71.1422 52.6849 70.7241 52.2411 70.4454C51.8076 70.1564 51.0593 70.0119 49.9961 70.0119H47.3795L47.9369 64.113H54.3003V65.8006H49.64L49.4078 68.3088H50.4451ZM59.8429 64.113V74.9509H57.8302V65.8006H55.5387V64.113H59.8429ZM62.1632 69.8416H66.4209V71.4518H62.1632V69.8416ZM71.3409 68.3088C72.8685 68.3088 73.9987 68.6081 74.7316 69.2068C75.4644 69.7952 75.8309 70.6003 75.8309 71.6221C75.8309 72.2724 75.6709 72.8607 75.3509 73.3872C75.0309 73.9136 74.551 74.3316 73.911 74.6413C73.271 74.9509 72.4814 75.1058 71.5421 75.1058C70.768 75.1058 70.0197 74.9974 69.2971 74.7806C68.5746 74.5535 67.9656 74.2439 67.4701 73.8516L68.3217 72.2879C68.7243 72.6182 69.2042 72.8814 69.7616 73.0775C70.3293 73.2633 70.9125 73.3562 71.5112 73.3562C72.2234 73.3562 72.7808 73.2117 73.1833 72.9227C73.5962 72.6233 73.8026 72.2156 73.8026 71.6995C73.8026 71.1422 73.5807 70.7241 73.1369 70.4454C72.7033 70.1564 71.955 70.0119 70.8919 70.0119H68.2753L68.8326 64.113H75.1961V65.8006H70.5357L70.3035 68.3088H71.3409ZM80.307 68.3088C81.8346 68.3088 82.9649 68.6081 83.6977 69.2068C84.4306 69.7952 84.797 70.6003 84.797 71.6221C84.797 72.2724 84.637 72.8607 84.317 73.3872C83.997 73.9136 83.5171 74.3316 82.8771 74.6413C82.2372 74.9509 81.4475 75.1058 80.5083 75.1058C79.7341 75.1058 78.9858 74.9974 78.2632 74.7806C77.5407 74.5535 76.9317 74.2439 76.4363 73.8516L77.2878 72.2879C77.6904 72.6182 78.1703 72.8814 78.7277 73.0775C79.2954 73.2633 79.8786 73.3562 80.4773 73.3562C81.1895 73.3562 81.7469 73.2117 82.1494 72.9227C82.5623 72.6233 82.7687 72.2156 82.7687 71.6995C82.7687 71.1422 82.5468 70.7241 82.103 70.4454C81.6695 70.1564 80.9211 70.0119 79.858 70.0119H77.2414L77.7988 64.113H84.1622V65.8006H79.5019L79.2696 68.3088H80.307ZM88.2221 69.95C87.4479 69.95 86.8235 69.6764 86.3487 69.1294C85.8739 68.5823 85.6365 67.865 85.6365 66.9773C85.6365 66.0896 85.8739 65.3722 86.3487 64.8252C86.8235 64.2781 87.4479 64.0046 88.2221 64.0046C88.9962 64.0046 89.6207 64.2781 90.0955 64.8252C90.5806 65.3619 90.8232 66.0793 90.8232 66.9773C90.8232 67.8753 90.5806 68.5978 90.0955 69.1449C89.6207 69.6816 88.9962 69.95 88.2221 69.95ZM94.7249 64.113H96.2422L88.8414 74.9509H87.3241L94.7249 64.113ZM88.2221 68.8662C88.6453 68.8662 88.9704 68.701 89.1975 68.3707C89.4349 68.0404 89.5536 67.5759 89.5536 66.9773C89.5536 66.3786 89.4349 65.9141 89.1975 65.5838C88.9704 65.2535 88.6453 65.0884 88.2221 65.0884C87.8195 65.0884 87.4944 65.2587 87.2467 65.5993C87.0093 65.9296 86.8906 66.3889 86.8906 66.9773C86.8906 67.5656 87.0093 68.0301 87.2467 68.3707C87.4944 68.701 87.8195 68.8662 88.2221 68.8662ZM95.3287 75.0593C94.5546 75.0593 93.9301 74.7858 93.4553 74.2387C92.9805 73.6917 92.7431 72.9743 92.7431 72.0866C92.7431 71.1989 92.9805 70.4816 93.4553 69.9345C93.9301 69.3874 94.5546 69.1139 95.3287 69.1139C96.1028 69.1139 96.7273 69.3874 97.2021 69.9345C97.6872 70.4816 97.9298 71.1989 97.9298 72.0866C97.9298 72.9743 97.6872 73.6917 97.2021 74.2387C96.7273 74.7858 96.1028 75.0593 95.3287 75.0593ZM95.3287 73.9755C95.7416 73.9755 96.0667 73.8104 96.3041 73.4801C96.5415 73.1394 96.6602 72.675 96.6602 72.0866C96.6602 71.4983 96.5415 71.0389 96.3041 70.7086C96.0667 70.368 95.7416 70.1977 95.3287 70.1977C94.9158 70.1977 94.5907 70.3629 94.3533 70.6932C94.1159 71.0235 93.9972 71.4879 93.9972 72.0866C93.9972 72.6853 94.1159 73.1498 94.3533 73.4801C94.5907 73.8104 94.9158 73.9755 95.3287 73.9755Z" fill="#00FCFC"/>
</svg>
