<svg width="155" height="76" viewBox="0 0 155 76" fill="none" xmlns="http://www.w3.org/2000/svg">
    <path d="M67.8697 16.5991L67.8465 5.82302L62.5049 14.7411H61.1579L55.8163 5.96237V16.5991H52.9365V0.342105H55.4215L61.8778 11.1181L68.2181 0.342105H70.7031L70.7263 16.5991H67.8697Z" fill="#00FCFC"/>
    <path d="M80.8771 7.05391C82.3789 7.2397 83.5246 7.75063 84.3143 8.58671C85.1039 9.42278 85.4987 10.4679 85.4987 11.722C85.4987 12.6664 85.2587 13.5257 84.7787 14.2999C84.2988 15.074 83.5711 15.6933 82.5957 16.1578C81.6357 16.6068 80.459 16.8313 79.0656 16.8313C77.9044 16.8313 76.7819 16.6687 75.6981 16.3436C74.6298 16.003 73.7163 15.5385 72.9576 14.9501L74.2582 12.6045C74.8465 13.0999 75.5587 13.4948 76.3948 13.7889C77.2464 14.0676 78.1211 14.207 79.0191 14.207C80.0875 14.207 80.9235 13.9902 81.5274 13.5567C82.1467 13.1077 82.4563 12.5039 82.4563 11.7452C82.4563 10.9865 82.1621 10.3982 81.5738 9.98016C81.0009 9.54664 80.1184 9.32988 78.9262 9.32988H77.4399V7.26293L81.1325 2.87355H73.7472V0.342105H84.8252V2.36261L80.8771 7.05391Z" fill="#00FCFC"/>
    <path d="M94.255 16.8313C92.9544 16.8313 91.7932 16.5062 90.7713 15.8559C89.7495 15.1901 88.9443 14.2302 88.356 12.9761C87.7677 11.7065 87.4735 10.2047 87.4735 8.47058C87.4735 6.73651 87.7677 5.24242 88.356 3.98831C88.9443 2.71872 89.7495 1.75878 90.7713 1.1085C91.7932 0.442743 92.9544 0.109863 94.255 0.109863C95.5555 0.109863 96.7167 0.442743 97.7386 1.1085C98.7759 1.75878 99.5888 2.71872 100.177 3.98831C100.765 5.24242 101.06 6.73651 101.06 8.47058C101.06 10.2047 100.765 11.7065 100.177 12.9761C99.5888 14.2302 98.7759 15.1901 97.7386 15.8559C96.7167 16.5062 95.5555 16.8313 94.255 16.8313ZM94.255 14.207C95.4162 14.207 96.3297 13.727 96.9954 12.7671C97.6767 11.8071 98.0173 10.375 98.0173 8.47058C98.0173 6.5662 97.6767 5.13404 96.9954 4.1741C96.3297 3.21417 95.4162 2.7342 94.255 2.7342C93.1092 2.7342 92.1957 3.21417 91.5145 4.1741C90.8487 5.13404 90.5159 6.5662 90.5159 8.47058C90.5159 10.375 90.8487 11.8071 91.5145 12.7671C92.1957 13.727 93.1092 14.207 94.255 14.207Z" fill="#00FCFC"/>
    <path d="M154.527 39.8683C154.527 43.1377 152.368 45.7881 149.704 45.7881L4.88136 45.7881C2.21733 45.7881 0.0577237 43.1377 0.0577234 39.8683C0.057723 36.5988 2.21733 33.9484 4.88136 33.9484L149.704 33.9484C152.368 33.9484 154.527 36.5988 154.527 39.8683Z" fill="#DEF55B"/>
    <path d="M53.4641 68.2624C54.1763 68.2624 54.8162 68.4017 55.3839 68.6804C55.9516 68.9488 56.3955 69.3358 56.7155 69.8416C57.0354 70.3474 57.1954 70.9306 57.1954 71.5912C57.1954 72.293 57.02 72.9124 56.669 73.4491C56.3181 73.9755 55.8433 74.3832 55.2446 74.6722C54.6459 74.9612 53.975 75.1058 53.2318 75.1058C51.7455 75.1058 50.5894 74.6413 49.7637 73.7123C48.9482 72.7833 48.5405 71.4518 48.5405 69.7177C48.5405 68.4998 48.7625 67.4624 49.2063 66.6057C49.6501 65.7387 50.2694 65.0832 51.0642 64.6394C51.8693 64.1852 52.7983 63.9581 53.8511 63.9581C54.4085 63.9581 54.9298 64.0201 55.4149 64.1439C55.9104 64.2575 56.3387 64.4278 56.7 64.6549L55.9568 66.1722C55.4201 65.8212 54.7337 65.6458 53.8976 65.6458C52.8551 65.6458 52.0396 65.9657 51.4513 66.6057C50.863 67.2456 50.5688 68.1695 50.5688 69.3771V69.3926C50.8888 69.021 51.2965 68.7423 51.7919 68.5565C52.2874 68.3604 52.8448 68.2624 53.4641 68.2624ZM53.1234 73.5265C53.7531 73.5265 54.264 73.3614 54.6562 73.0311C55.0485 72.6904 55.2446 72.2414 55.2446 71.6841C55.2446 71.1164 55.0485 70.6673 54.6562 70.337C54.264 70.0067 53.7376 69.8416 53.077 69.8416C52.4267 69.8416 51.8951 70.0171 51.4823 70.368C51.0797 70.719 50.8784 71.1628 50.8784 71.6995C50.8784 72.226 51.0746 72.6646 51.4668 73.0156C51.8693 73.3562 52.4216 73.5265 53.1234 73.5265ZM62.7685 75.1058C61.9015 75.1058 61.1273 74.889 60.4461 74.4555C59.7648 74.0116 59.2281 73.3717 58.8359 72.5356C58.4436 71.6892 58.2475 70.688 58.2475 69.5319C58.2475 68.3759 58.4436 67.3798 58.8359 66.5438C59.2281 65.6974 59.7648 65.0574 60.4461 64.6239C61.1273 64.18 61.9015 63.9581 62.7685 63.9581C63.6356 63.9581 64.4097 64.18 65.0909 64.6239C65.7825 65.0574 66.3244 65.6974 66.7166 66.5438C67.1089 67.3798 67.305 68.3759 67.305 69.5319C67.305 70.688 67.1089 71.6892 66.7166 72.5356C66.3244 73.3717 65.7825 74.0116 65.0909 74.4555C64.4097 74.889 63.6356 75.1058 62.7685 75.1058ZM62.7685 73.3562C63.5427 73.3562 64.1516 73.0362 64.5955 72.3963C65.0496 71.7563 65.2767 70.8015 65.2767 69.5319C65.2767 68.2624 65.0496 67.3076 64.5955 66.6676C64.1516 66.0277 63.5427 65.7077 62.7685 65.7077C62.0047 65.7077 61.3957 66.0277 60.9415 66.6676C60.4977 67.3076 60.2758 68.2624 60.2758 69.5319C60.2758 70.8015 60.4977 71.7563 60.9415 72.3963C61.3957 73.0362 62.0047 73.3562 62.7685 73.3562ZM68.9111 69.8416H73.1689V71.4518H68.9111V69.8416ZM79.6972 68.2624C80.4094 68.2624 81.0493 68.4017 81.617 68.6804C82.1847 68.9488 82.6286 69.3358 82.9485 69.8416C83.2685 70.3474 83.4285 70.9306 83.4285 71.5912C83.4285 72.293 83.253 72.9124 82.9021 73.4491C82.5512 73.9755 82.0764 74.3832 81.4777 74.6722C80.879 74.9612 80.2081 75.1058 79.4649 75.1058C77.9786 75.1058 76.8225 74.6413 75.9968 73.7123C75.1813 72.7833 74.7736 71.4518 74.7736 69.7177C74.7736 68.4998 74.9955 67.4624 75.4394 66.6057C75.8832 65.7387 76.5025 65.0832 77.2973 64.6394C78.1024 64.1852 79.0314 63.9581 80.0842 63.9581C80.6416 63.9581 81.1629 64.0201 81.648 64.1439C82.1434 64.2575 82.5718 64.4278 82.9331 64.6549L82.1899 66.1722C81.6532 65.8212 80.9667 65.6458 80.1307 65.6458C79.0882 65.6458 78.2727 65.9657 77.6844 66.6057C77.096 67.2456 76.8019 68.1695 76.8019 69.3771V69.3926C77.1218 69.021 77.5296 68.7423 78.025 68.5565C78.5205 68.3604 79.0778 68.2624 79.6972 68.2624ZM79.3565 73.5265C79.9862 73.5265 80.4971 73.3614 80.8893 73.0311C81.2816 72.6904 81.4777 72.2414 81.4777 71.6841C81.4777 71.1164 81.2816 70.6673 80.8893 70.337C80.4971 70.0067 79.9707 69.8416 79.3101 69.8416C78.6598 69.8416 78.1282 70.0171 77.7154 70.368C77.3128 70.719 77.1115 71.1628 77.1115 71.6995C77.1115 72.226 77.3076 72.6646 77.6999 73.0156C78.1024 73.3562 78.6546 73.5265 79.3565 73.5265ZM87.8714 68.3088C89.399 68.3088 90.5292 68.6081 91.2621 69.2068C91.9949 69.7952 92.3614 70.6003 92.3614 71.6221C92.3614 72.2724 92.2014 72.8607 91.8814 73.3872C91.5614 73.9136 91.0815 74.3316 90.4415 74.6413C89.8015 74.9509 89.0119 75.1058 88.0726 75.1058C87.2985 75.1058 86.5502 74.9974 85.8276 74.7806C85.1051 74.5535 84.4961 74.2439 84.0007 73.8516L84.8522 72.2879C85.2548 72.6182 85.7347 72.8814 86.2921 73.0775C86.8598 73.2633 87.443 73.3562 88.0417 73.3562C88.7539 73.3562 89.3113 73.2117 89.7138 72.9227C90.1267 72.6233 90.3331 72.2156 90.3331 71.6995C90.3331 71.1422 90.1112 70.7241 89.6674 70.4454C89.2338 70.1564 88.4855 70.0119 87.4224 70.0119H84.8058L85.3631 64.113H91.7266V65.8006H87.0663L86.834 68.3088H87.8714ZM95.7865 69.95C95.0123 69.95 94.3879 69.6764 93.913 69.1294C93.4382 68.5823 93.2008 67.865 93.2008 66.9773C93.2008 66.0896 93.4382 65.3722 93.913 64.8252C94.3879 64.2781 95.0123 64.0046 95.7865 64.0046C96.5606 64.0046 97.1851 64.2781 97.6599 64.8252C98.145 65.3619 98.3876 66.0793 98.3876 66.9773C98.3876 67.8753 98.145 68.5978 97.6599 69.1449C97.1851 69.6816 96.5606 69.95 95.7865 69.95ZM102.289 64.113H103.807L96.4058 74.9509H94.8885L102.289 64.113ZM95.7865 68.8662C96.2097 68.8662 96.5348 68.701 96.7619 68.3707C96.9993 68.0404 97.118 67.5759 97.118 66.9773C97.118 66.3786 96.9993 65.9141 96.7619 65.5838C96.5348 65.2535 96.2097 65.0884 95.7865 65.0884C95.3839 65.0884 95.0588 65.2587 94.811 65.5993C94.5736 65.9296 94.4549 66.3889 94.4549 66.9773C94.4549 67.5656 94.5736 68.0301 94.811 68.3707C95.0588 68.701 95.3839 68.8662 95.7865 68.8662ZM102.893 75.0593C102.119 75.0593 101.494 74.7858 101.02 74.2387C100.545 73.6917 100.307 72.9743 100.307 72.0866C100.307 71.1989 100.545 70.4816 101.02 69.9345C101.494 69.3874 102.119 69.1139 102.893 69.1139C103.667 69.1139 104.292 69.3874 104.766 69.9345C105.252 70.4816 105.494 71.1989 105.494 72.0866C105.494 72.9743 105.252 73.6917 104.766 74.2387C104.292 74.7858 103.667 75.0593 102.893 75.0593ZM102.893 73.9755C103.306 73.9755 103.631 73.8104 103.868 73.4801C104.106 73.1394 104.225 72.675 104.225 72.0866C104.225 71.4983 104.106 71.0389 103.868 70.7086C103.631 70.368 103.306 70.1977 102.893 70.1977C102.48 70.1977 102.155 70.3629 101.918 70.6932C101.68 71.0235 101.562 71.4879 101.562 72.0866C101.562 72.6853 101.68 73.1498 101.918 73.4801C102.155 73.8104 102.48 73.9755 102.893 73.9755Z" fill="#00FCFC"/>
</svg>
