<svg width="201" height="95" viewBox="0 0 201 95" fill="none" xmlns="http://www.w3.org/2000/svg">
    <path d="M200.348 51.0581C200.348 55.2814 197.558 58.7051 194.117 58.7051L7.04187 58.7051C3.60062 58.7051 0.810913 55.2814 0.810912 51.0581C0.810912 46.8348 3.60061 43.4112 7.04187 43.4112L194.117 43.4111C197.558 43.4111 200.348 46.8348 200.348 51.0581Z" fill="#FDE370"/>
    <path d="M93.29 21L93.26 7.08L86.36 18.6H84.62L77.72 7.26V21H74V0H77.21L85.55 13.92L93.74 0H96.95L96.98 21H93.29Z" fill="white"/>
    <path d="M108.412 0V21H104.512V3.27H100.072V0H108.412Z" fill="white"/>
    <path d="M119.148 8.13C122.108 8.13 124.298 8.71 125.718 9.87C127.138 11.01 127.848 12.57 127.848 14.55C127.848 15.81 127.538 16.95 126.918 17.97C126.298 18.99 125.368 19.8 124.128 20.4C122.888 21 121.358 21.3 119.538 21.3C118.038 21.3 116.588 21.09 115.188 20.67C113.788 20.23 112.608 19.63 111.648 18.87L113.298 15.84C114.078 16.48 115.008 16.99 116.088 17.37C117.188 17.73 118.318 17.91 119.478 17.91C120.858 17.91 121.938 17.63 122.718 17.07C123.518 16.49 123.918 15.7 123.918 14.7C123.918 13.62 123.488 12.81 122.628 12.27C121.788 11.71 120.338 11.43 118.278 11.43H113.208L114.288 0H126.618V3.27H117.588L117.138 8.13H119.148Z" fill="white"/>
    <path d="M90.88 80V81.74L85.44 94H82.66L87.92 82.2H82.42V84.58H80V80H90.88Z" fill="white"/>
    <path d="M97.9373 94.2001C96.8173 94.2001 95.8173 93.9201 94.9373 93.3601C94.0573 92.7867 93.364 91.96 92.8573 90.88C92.3507 89.7867 92.0973 88.4934 92.0973 87C92.0973 85.5067 92.3507 84.22 92.8573 83.14C93.364 82.0467 94.0573 81.22 94.9373 80.66C95.8173 80.0867 96.8173 79.8 97.9373 79.8C99.0573 79.8 100.057 80.0867 100.937 80.66C101.831 81.22 102.531 82.0467 103.037 83.14C103.544 84.22 103.797 85.5067 103.797 87C103.797 88.4934 103.544 89.7867 103.037 90.88C102.531 91.96 101.831 92.7867 100.937 93.3601C100.057 93.9201 99.0573 94.2001 97.9373 94.2001ZM97.9373 91.9401C98.9373 91.9401 99.724 91.5267 100.297 90.7C100.884 89.8734 101.177 88.64 101.177 87C101.177 85.36 100.884 84.1267 100.297 83.3C99.724 82.4734 98.9373 82.06 97.9373 82.06C96.9507 82.06 96.164 82.4734 95.5773 83.3C95.004 84.1267 94.7173 85.36 94.7173 87C94.7173 88.64 95.004 89.8734 95.5773 90.7C96.164 91.5267 96.9507 91.9401 97.9373 91.9401Z" fill="white"/>
    <path d="M108.674 87.54C107.674 87.54 106.868 87.1867 106.254 86.48C105.641 85.7734 105.334 84.8467 105.334 83.7C105.334 82.5534 105.641 81.6267 106.254 80.92C106.868 80.2134 107.674 79.86 108.674 79.86C109.674 79.86 110.481 80.2134 111.094 80.92C111.721 81.6134 112.034 82.54 112.034 83.7C112.034 84.86 111.721 85.7934 111.094 86.5C110.481 87.1934 109.674 87.54 108.674 87.54ZM117.074 80H119.034L109.474 94H107.514L117.074 80ZM108.674 86.14C109.221 86.14 109.641 85.9267 109.934 85.5C110.241 85.0734 110.394 84.4734 110.394 83.7C110.394 82.9267 110.241 82.3267 109.934 81.9C109.641 81.4734 109.221 81.26 108.674 81.26C108.154 81.26 107.734 81.48 107.414 81.92C107.108 82.3467 106.954 82.94 106.954 83.7C106.954 84.46 107.108 85.06 107.414 85.5C107.734 85.9267 108.154 86.14 108.674 86.14ZM117.854 94.14C116.854 94.14 116.048 93.7867 115.434 93.08C114.821 92.3734 114.514 91.4467 114.514 90.3C114.514 89.1534 114.821 88.2267 115.434 87.5201C116.048 86.8134 116.854 86.46 117.854 86.46C118.854 86.46 119.661 86.8134 120.274 87.5201C120.901 88.2267 121.214 89.1534 121.214 90.3C121.214 91.4467 120.901 92.3734 120.274 93.08C119.661 93.7867 118.854 94.14 117.854 94.14ZM117.854 92.74C118.388 92.74 118.808 92.5267 119.114 92.1C119.421 91.6601 119.574 91.0601 119.574 90.3C119.574 89.54 119.421 88.9467 119.114 88.52C118.808 88.08 118.388 87.86 117.854 87.86C117.321 87.86 116.901 88.0734 116.594 88.5C116.288 88.9267 116.134 89.5267 116.134 90.3C116.134 91.0734 116.288 91.6734 116.594 92.1C116.901 92.5267 117.321 92.74 117.854 92.74Z" fill="white"/>
</svg>
