<svg width="156" height="76" viewBox="0 0 156 76" fill="none" xmlns="http://www.w3.org/2000/svg">
    <path d="M76.778 0.342041V16.599H73.7588V9.63173H65.3517V16.599H62.3325V0.342041H65.3517V7.05384H73.7588V0.342041H76.778Z" fill="#00FCFC"/>
    <path d="M94.4649 12.9063H91.5851V16.599H88.6588V12.9063H79.7407V10.8162L87.7531 0.342041H90.9812L83.4334 10.3517H88.7517V7.07707H91.5851V10.3517H94.4649V12.9063Z" fill="#00FCFC"/>
    <path d="M155.229 39.8683C155.229 43.1377 153.07 45.7881 150.406 45.7881L5.58347 45.7881C2.91943 45.7881 0.759826 43.1377 0.759826 39.8683C0.759826 36.5988 2.91942 33.9484 5.58345 33.9484L150.406 33.9484C153.07 33.9484 155.229 36.5988 155.229 39.8683Z" fill="#94EC4F"/>
    <path d="M66.0646 64.113V65.46L61.8533 74.9509H59.7011L63.7731 65.8161H59.5154V67.6585H57.6419V64.113H66.0646ZM71.528 75.1058C70.6609 75.1058 69.8868 74.889 69.2055 74.4555C68.5243 74.0116 67.9876 73.3717 67.5953 72.5356C67.2031 71.6892 67.007 70.688 67.007 69.5319C67.007 68.3759 67.2031 67.3798 67.5953 66.5438C67.9876 65.6974 68.5243 65.0574 69.2055 64.6239C69.8868 64.18 70.6609 63.9581 71.528 63.9581C72.395 63.9581 73.1691 64.18 73.8504 64.6239C74.5419 65.0574 75.0838 65.6974 75.4761 66.5438C75.8683 67.3798 76.0644 68.3759 76.0644 69.5319C76.0644 70.688 75.8683 71.6892 75.4761 72.5356C75.0838 73.3717 74.5419 74.0116 73.8504 74.4555C73.1691 74.889 72.395 75.1058 71.528 75.1058ZM71.528 73.3562C72.3021 73.3562 72.9111 73.0362 73.3549 72.3963C73.8091 71.7563 74.0362 70.8015 74.0362 69.5319C74.0362 68.2624 73.8091 67.3076 73.3549 66.6676C72.9111 66.0277 72.3021 65.7077 71.528 65.7077C70.7641 65.7077 70.1552 66.0277 69.701 66.6676C69.2571 67.3076 69.0352 68.2624 69.0352 69.5319C69.0352 70.8015 69.2571 71.7563 69.701 72.3963C70.1552 73.0362 70.7641 73.3562 71.528 73.3562ZM79.8399 69.95C79.0658 69.95 78.4413 69.6764 77.9665 69.1294C77.4917 68.5823 77.2543 67.865 77.2543 66.9773C77.2543 66.0896 77.4917 65.3722 77.9665 64.8252C78.4413 64.2781 79.0658 64.0046 79.8399 64.0046C80.6141 64.0046 81.2385 64.2781 81.7134 64.8252C82.1985 65.3619 82.441 66.0793 82.441 66.9773C82.441 67.8753 82.1985 68.5978 81.7134 69.1449C81.2385 69.6816 80.6141 69.95 79.8399 69.95ZM86.3427 64.113H87.86L80.4592 74.9509H78.9419L86.3427 64.113ZM79.8399 68.8662C80.2631 68.8662 80.5883 68.701 80.8154 68.3707C81.0528 68.0404 81.1715 67.5759 81.1715 66.9773C81.1715 66.3786 81.0528 65.9141 80.8154 65.5838C80.5883 65.2535 80.2631 65.0884 79.8399 65.0884C79.4374 65.0884 79.1122 65.2587 78.8645 65.5993C78.6271 65.9296 78.5084 66.3889 78.5084 66.9773C78.5084 67.5656 78.6271 68.0301 78.8645 68.3707C79.1122 68.701 79.4374 68.8662 79.8399 68.8662ZM86.9465 75.0593C86.1724 75.0593 85.5479 74.7858 85.0731 74.2387C84.5983 73.6917 84.3609 72.9743 84.3609 72.0866C84.3609 71.1989 84.5983 70.4816 85.0731 69.9345C85.5479 69.3874 86.1724 69.1139 86.9465 69.1139C87.7207 69.1139 88.3452 69.3874 88.82 69.9345C89.3051 70.4816 89.5477 71.1989 89.5477 72.0866C89.5477 72.9743 89.3051 73.6917 88.82 74.2387C88.3452 74.7858 87.7207 75.0593 86.9465 75.0593ZM86.9465 73.9755C87.3594 73.9755 87.6846 73.8104 87.922 73.4801C88.1594 73.1394 88.2781 72.675 88.2781 72.0866C88.2781 71.4983 88.1594 71.0389 87.922 70.7086C87.6846 70.368 87.3594 70.1977 86.9465 70.1977C86.5337 70.1977 86.2085 70.3629 85.9711 70.6932C85.7337 71.0235 85.615 71.4879 85.615 72.0866C85.615 72.6853 85.7337 73.1498 85.9711 73.4801C86.2085 73.8104 86.5337 73.9755 86.9465 73.9755ZM98.208 67.5347L92.8664 69.5319L98.208 71.5292V73.1394L91.0704 70.368V68.6959L98.208 65.9244V67.5347Z" fill="#00FCFC"/>
</svg>
