<svg width="744" height="962" viewBox="0 0 744 962" fill="none" xmlns="http://www.w3.org/2000/svg">
    <path d="M488.114 498.398C497.851 494.418 502.52 483.298 498.541 473.563C494.563 463.827 483.445 459.162 473.708 463.143C463.971 467.124 459.303 478.243 463.281 487.978C467.259 497.714 478.378 502.379 488.114 498.398Z" stroke="url(#paint0_linear)" stroke-opacity="0.8" stroke-linecap="round" stroke-linejoin="round" stroke-dasharray="1 2"/>
    <path d="M479.866 511.039C463.745 510.484 450.757 495.486 450.685 479.791C450.578 463.07 466.908 450.102 481.943 450.602C496.977 451.103 512.345 465.154 511.123 481.851C509.958 497.461 495.897 511.656 479.866 511.039Z" stroke="url(#paint1_linear)" stroke-opacity="0.8" stroke-linecap="round" stroke-linejoin="round" stroke-dasharray="1 2"/>
    <path d="M475.734 521.969C498.454 524.835 519.202 508.741 522.075 486.021C524.948 463.301 508.859 442.558 486.139 439.692C463.419 436.825 442.671 452.919 439.798 475.639C436.925 498.36 453.014 519.102 475.734 521.969Z" stroke="url(#paint2_linear)" stroke-opacity="0.8" stroke-linecap="round" stroke-linejoin="round" stroke-dasharray="1 2"/>
    <path d="M507.636 526.293C532.768 511.518 541.169 479.17 526.4 454.043C511.631 428.916 479.285 420.524 454.153 435.3C429.021 450.075 420.62 482.423 435.389 507.55C450.158 532.677 482.504 541.069 507.636 526.293Z" stroke="url(#paint3_linear)" stroke-opacity="0.8" stroke-linecap="round" stroke-linejoin="round" stroke-dasharray="1 2"/>
    <path d="M478.693 544.76C444.338 543.63 416.607 512.586 416.964 478.628C417.406 443.432 449.787 415.717 483.116 416.882C516.444 418.048 546.917 447.902 544.845 483.015C542.857 516.89 513.048 545.891 478.693 544.76Z" stroke="url(#paint4_linear)" stroke-opacity="0.8" stroke-linecap="round" stroke-linejoin="round" stroke-dasharray="1 2"/>
    <path d="M478.293 556.052C438.021 554.709 403.808 518.716 405.735 478.321C407.544 438.531 443.457 404.369 483.488 405.744C523.367 407.089 557.041 443.839 556.046 483.474C555.054 523.895 518.565 557.395 478.293 556.052Z" stroke="url(#paint5_linear)" stroke-opacity="0.8" stroke-linecap="round" stroke-linejoin="round" stroke-dasharray="1 2"/>
    <path d="M477.831 567.252C430.976 565.096 392.85 525.047 394.383 477.833C395.978 430.709 436.703 392.782 483.828 394.363C531.104 395.974 568.089 437.446 567.215 483.691C566.523 530.207 525.231 569.435 477.831 567.252Z" stroke="url(#paint6_linear)" stroke-opacity="0.8" stroke-linecap="round" stroke-linejoin="round" stroke-dasharray="1 2"/>
    <path d="M477.251 578.665C424.296 576.026 381.379 531.201 383.155 477.527C384.993 424.335 430.947 381.311 484.2 383.225C539.024 385.131 575.762 431.887 577.844 484.275C579.992 537.93 530.599 581.303 477.251 578.665Z" stroke="url(#paint7_linear)" stroke-opacity="0.8" stroke-linecap="round" stroke-linejoin="round" stroke-dasharray="1 2"/>
    <path d="M477.03 589.833C418.548 586.587 370.715 536.021 372.104 477.097C373.431 417.69 426.728 369.982 484.751 371.963C545.974 374.019 584.038 426.835 587.956 484.677C589.834 512.406 586.525 534.577 564.883 554.272C542.189 574.937 507.916 591.463 477.03 589.833Z" stroke="url(#paint8_linear)" stroke-opacity="0.8" stroke-linecap="round" stroke-linejoin="round" stroke-dasharray="1 2"/>
    <path d="M476.749 600.912C412.744 597.843 359.269 541.239 360.814 476.699C362.292 410.892 420.971 358.51 485.152 360.672C555.1 363.018 587.369 422.623 597.405 484.873C602.315 515.545 603.196 536.337 577.915 559.007C551.792 582.376 511.922 602.672 476.749 600.912Z" stroke="url(#paint9_linear)" stroke-opacity="0.8" stroke-linecap="round" stroke-linejoin="round" stroke-dasharray="1 2"/>
    <path d="M476.347 612.202C405.554 609.77 346.559 547.307 349.522 476.301C352.429 405.99 414.061 346.108 485.462 349.442C518.491 350.941 553.17 363.661 573.038 391.212C592.54 418.221 597.595 454.175 606.912 484.766C617.208 518.37 621.431 537.304 591.668 563.256C560.491 590.422 518.642 613.626 476.347 612.202Z" stroke="url(#paint10_linear)" stroke-opacity="0.8" stroke-linecap="round" stroke-linejoin="round" stroke-dasharray="1 2"/>
    <path d="M476.038 623.432C399.086 620.819 335.237 553.097 338.383 475.933C341.473 399.464 409.214 335.598 485.925 338.243C520.582 339.432 560.189 353.817 580.399 383.631C600.851 413.805 602.023 451.981 616.752 484.567C622.789 497.819 634.657 512.128 633.882 527.344C633.083 543.888 617.329 557.517 605.904 567.443C570.848 597.616 523.465 625.072 476.038 623.432Z" stroke="url(#paint11_linear)" stroke-opacity="0.8" stroke-linecap="round" stroke-linejoin="round" stroke-dasharray="1 2"/>
    <path d="M475.575 634.632C391.771 631.78 324.157 559.247 327.092 475.535C329.966 391.732 402.975 324.581 486.234 327.012C523.336 328.129 566.932 343.371 587.939 375.927C609.007 408.573 607.601 450.715 626.529 484.278C633.468 496.528 647.81 510.614 650.29 524.819C653.639 544.21 633.218 560.458 620.259 571.417C581.021 604.538 528.678 636.516 475.575 634.632Z" stroke="url(#paint12_linear)" stroke-opacity="0.8" stroke-linecap="round" stroke-linejoin="round" stroke-dasharray="1 2"/>
    <path d="M475.174 645.922C385.301 642.829 312.743 565.098 315.801 475.137C318.919 385.266 397.217 313.109 486.635 315.721C525.699 316.829 574.218 332.952 595.479 368.223C616.862 403.675 613.628 448.754 636.459 484.018C644.758 496.926 664.418 512.284 667.088 528.328C670.347 547.781 647.303 564.615 634.554 575.301C590.894 611.794 533.982 647.899 475.174 645.922Z" stroke="url(#paint13_linear)" stroke-opacity="0.8" stroke-linecap="round" stroke-linejoin="round" stroke-dasharray="1 2"/>
    <path d="M474.865 657.153C378.833 653.878 301.271 570.86 304.662 474.77C307.963 378.74 391.006 301.157 487.098 304.522C528.608 305.95 581.536 322.383 603.474 360.609C625.595 399.106 620.41 446.549 646.481 484.091C656.265 498.229 676.521 511.743 682.212 528.376C689.28 549.199 661.872 568.71 648.52 579.671C600.376 619.053 539.197 659.344 474.865 657.153Z" stroke="url(#paint14_linear)" stroke-opacity="0.8" stroke-linecap="round" stroke-linejoin="round" stroke-dasharray="1 2"/>
    <path d="M474.403 668.353C372.213 664.897 289.736 576.53 293.371 474.372C296.855 372.184 385.248 289.685 487.408 293.292C530.789 294.771 589.246 312.204 611.648 352.872C634.569 394.504 627.643 444.038 656.292 484.435C666.561 498.903 693.019 515.586 697.475 532.92C703.007 554.383 675.203 573.112 661.129 584.559C609.376 626.766 543.717 670.731 474.403 668.353Z" stroke="url(#paint15_linear)" stroke-opacity="0.8" stroke-linecap="round" stroke-linejoin="round" stroke-dasharray="1 2"/>
    <path d="M474.002 679.643C365.593 675.916 278.323 582.381 282.081 473.974C285.838 365.568 379.4 278.274 487.809 282.002C533.455 283.53 596.445 302.239 620.216 345.134C631.173 364.911 632.368 388.508 636.754 410.219C642.19 436.995 650.728 462.338 666.377 484.99C677.984 501.836 700.443 515.309 709.37 533.436C720.583 556.32 687.693 578.212 672.716 590.268C617.203 635.27 548.388 682.148 474.002 679.643Z" stroke="url(#paint16_linear)" stroke-opacity="0.8" stroke-linecap="round" stroke-linejoin="round" stroke-dasharray="1 2"/>
    <path d="M473.691 690.872C359.755 686.538 266.939 588.079 270.85 473.666C274.761 359.252 373.703 266.892 488.119 270.771C535.938 272.41 603.613 292.423 628.843 337.485C639.829 357.111 641.08 379.621 644.952 401.153C650.312 431.129 660.225 460.268 676.703 485.904C688.559 504.288 711.051 518.395 720.737 537.454C732.921 561.39 698.135 584.559 682.497 597.192C624.156 644.23 551.519 693.813 473.691 690.872Z" stroke="url(#paint17_linear)" stroke-opacity="0.8" stroke-linecap="round" stroke-linejoin="round" stroke-dasharray="1 2"/>
    <path d="M473.231 702.074C353.29 697.98 256.217 592.812 259.561 473.27C263.051 352.58 368.914 255.689 488.431 259.543C540.235 261.253 608.882 282.711 637.231 329.87C650.067 351.268 653.075 375.218 656.898 399.407C661.689 430.291 671.755 459.852 687.304 487.032C698.746 507.138 718.734 521.619 729.782 541.336C744.298 566.981 705.841 592.885 689.332 606.366C628.977 655.286 553.684 704.821 473.231 702.074Z" stroke="url(#paint18_linear)" stroke-opacity="0.8" stroke-linecap="round" stroke-linejoin="round" stroke-dasharray="1 2"/>
    <path d="M472.919 713.302C346.819 709.027 244.832 598.51 248.359 472.81C252.032 345.962 363.455 243.882 488.921 248.19C544.831 250.151 613.787 273.238 646.52 322.035C661.2 344.028 667.321 368.899 670.881 394.839C675.255 427.054 684.517 458.731 698.717 488C709.109 509.47 728.957 526.276 738.501 547.268C751.156 575.216 713.488 601.9 695.234 616.689C633.015 667.126 555.244 716.1 472.919 713.302Z" stroke="url(#paint19_linear)" stroke-opacity="0.8" stroke-linecap="round" stroke-linejoin="round" stroke-dasharray="1 2"/>
    <path d="M472.519 724.594C340.11 720.108 233.481 604.452 237.13 472.503C240.864 339.316 357.881 232.682 489.293 237.052C549.731 239.112 618.245 264.464 655.782 314.355C693.471 364.276 689.194 431.967 710.646 489.151C719.295 512.32 738.194 532.782 745.302 555.808C754.527 586.067 719.633 612.194 699.576 628.591C636.395 679.939 556.021 727.386 472.519 724.594Z" stroke="url(#paint20_linear)" stroke-opacity="0.8" stroke-linecap="round" stroke-linejoin="round" stroke-dasharray="1 2"/>
    <path d="M472.058 735.795C334.338 731.606 221.158 609.342 225.93 472.045C230.611 334.809 351.697 220.187 489.694 225.762C555.267 228.431 622.371 255.782 665.405 306.431C710.261 359.395 706.858 426.63 723.628 489.722C730.262 514.379 745.133 538.605 750.199 563.662C756.84 596.711 725.449 622.972 702.714 641.434C638.511 693.602 556.767 738.43 472.058 735.795Z" stroke="url(#paint21_linear)" stroke-opacity="0.8" stroke-linecap="round" stroke-linejoin="round" stroke-dasharray="1 2"/>
    <path d="M471.746 747.023C327.442 742.021 209.235 616.19 214.699 471.736C220.195 327.916 346.063 209.679 490.064 214.621C559.922 217.027 626.801 247.941 674.816 298.777C697.11 322.332 715.729 347.445 722.186 379.83C729.478 416.377 727.477 453.934 736.638 490.14C743.032 515.221 750.529 543.889 753.726 569.68C758.332 606.33 731.172 633.809 704.918 655.035C640.293 707.356 556.788 749.959 471.746 747.023Z" stroke="url(#paint22_linear)" stroke-opacity="0.8" stroke-linecap="round" stroke-linejoin="round" stroke-dasharray="1 2"/>
    <path d="M471.345 758.313C320.883 753.131 197.823 622.041 203.408 471.339C209.087 321.36 340.215 198.268 490.465 203.331C565.304 205.924 630.777 239.621 684.198 290.884C708.907 314.518 733.925 339.78 741.268 374.455C749.23 412.387 741.021 452.027 749.165 490.23C755.089 518.121 757.352 550.707 757.122 579.594C756.966 617.746 735.393 645.922 706.733 669.031C642.108 721.352 555.934 761.161 471.345 758.313Z" stroke="url(#paint23_linear)" stroke-opacity="0.8" stroke-linecap="round" stroke-linejoin="round" stroke-dasharray="1 2"/>
    <path d="M470.884 769.514C314.263 764.15 186.199 627.773 192.118 470.941C197.98 314.805 334.458 186.797 490.776 192.102C570.445 194.852 634.876 231.483 693.309 283.174C720.191 306.918 752.484 332.265 760.833 369.018C764.838 386.656 761.239 404.693 759.448 422.298C757.079 445.279 756.729 467.556 760.908 490.324C766.544 521.295 762.424 550.834 760.183 581.994C757.117 624.206 741.599 656.306 708.429 683.24C644.287 735.498 554.537 772.336 470.884 769.514Z" stroke="url(#paint24_linear)" stroke-opacity="0.8" stroke-linecap="round" stroke-linejoin="round" stroke-dasharray="1 2"/>
    <path d="M470.573 780.744C307.884 775.138 174.815 633.472 180.978 470.573C187.023 308.279 328.791 175.264 491.238 180.901C575.586 183.78 639.305 223.251 702.268 275.433C731.022 299.229 771.435 324.748 780.127 363.763C784.533 383.36 777.743 403.284 774.088 422.408C769.786 445.247 768.107 467.501 771.775 490.482C775.133 511.836 777.18 530.268 771.27 551.304C767.826 563.726 765.013 575.723 763.05 588.591C756.488 631.845 745.912 668.75 710.517 697.446C646.402 749.161 553.049 783.572 470.573 780.744Z" stroke="url(#paint25_linear)" stroke-opacity="0.8" stroke-linecap="round" stroke-linejoin="round" stroke-dasharray="1 2"/>
    <path d="M470.172 792.034C300.631 786.19 163.857 639.803 169.687 470.175C175.578 300.637 322.523 164.398 491.639 169.61C532.937 170.918 574.365 180.798 611.874 198.302C649.836 215.895 678.601 242.045 710.835 267.694C739.948 290.854 788.482 316.545 798.201 355.917C803.644 377.834 793.063 400.311 787.423 421.165C781.191 444.256 778.035 466.848 781.465 490.646C784.336 511.277 787.923 529.853 780.893 550.2C775.979 564.531 769.215 577.09 766.054 592.077C756.362 637.308 750.673 680.106 712.693 711.198C649.482 762.697 551.41 794.777 470.172 792.034Z" stroke="url(#paint26_linear)" stroke-opacity="0.8" stroke-linecap="round" stroke-linejoin="round" stroke-dasharray="1 2"/>
    <path d="M469.711 803.235C294.011 797.209 152.322 645.474 158.397 469.778C164.471 294.081 316.249 152.356 491.949 158.381C534.938 159.862 577.514 169.887 616.626 188.017C655.949 206.268 685.475 233.741 719.07 260.048C750.151 284.376 810.312 311.549 816.492 355.798C819.331 375.796 807.327 397.526 800.8 415.698C791.919 440.31 786.596 464.362 790.188 490.544C793.061 511.567 796.773 531.108 788.597 551.703C782.539 566.673 773.809 578.457 769.597 594.414C757.375 640.956 756.126 691.127 715.8 723.8C682.54 750.795 640.531 765.579 600.816 780.26C558.449 796.071 515.115 804.794 469.711 803.235Z" stroke="url(#paint27_linear)" stroke-opacity="0.8" stroke-linecap="round" stroke-linejoin="round" stroke-dasharray="1 2"/>
    <path d="M469.4 814.464C287.542 808.258 140.939 651.174 147.257 469.409C153.514 287.555 310.643 140.913 492.411 147.181C536.034 148.628 579.304 158.71 618.989 176.717C660.821 195.77 691.41 224.627 727.064 252.433C759.085 277.571 823.286 303.729 831.069 348.604C834.976 371.162 819.751 394.93 811.391 414.861C801.001 439.572 793.961 464.386 798.128 490.837C801.237 510.652 805.647 531.034 797.617 550.481C790.512 567.6 778.314 579.884 772.935 598.201C758.966 645.657 761.698 701.543 720.019 735.521C686.43 763.001 642.726 776.826 602.469 791.873C559.771 807.776 515.197 816.022 469.4 814.464Z" stroke="url(#paint28_linear)" stroke-opacity="0.8" stroke-linecap="round" stroke-linejoin="round" stroke-dasharray="1 2"/>
    <path d="M468.999 825.755C281.073 819.306 129.526 657.025 135.966 469.012C142.467 281.089 304.885 129.441 492.812 135.89C539.695 137.503 586.139 148.595 628.55 168.702C669.509 188.212 700.096 216.677 734.726 244.911C766.842 271.164 837.444 297.472 844.57 344.101C848.118 367.294 832.225 390.07 822.505 409.736C809.886 435.423 800.772 462.029 805.734 490.83C809.239 511.428 817.149 531.552 806.677 551.463C798.597 566.745 785.607 577.463 779.224 594.095C760.375 643.658 770.755 708.561 726.101 745.331C692.272 773.234 646.936 786.585 606.591 802.085C562.66 819.081 515.973 827.307 468.999 825.755Z" stroke="url(#paint29_linear)" stroke-opacity="0.8" stroke-linecap="round" stroke-linejoin="round" stroke-dasharray="1 2"/>
    <path d="M468.628 836.894C274.543 830.264 118.082 662.634 124.766 468.553C131.51 274.562 299.128 117.97 493.122 124.66C541.485 126.326 589.501 137.803 633.273 158.568C675.593 178.735 707.329 207.737 742.662 237.598C776.387 266.047 847.158 289.879 855.084 339.643C858.971 364.314 842.232 387.002 831.37 407.701C817.725 433.423 806.026 462.426 813.613 491.033C818.71 509.903 829.308 530.315 818.832 549.442C808.536 568.448 791.222 577.617 783.262 599.116C764.868 649.159 777.372 716.437 734.021 754.559C700.351 784.061 651.753 796.854 610.624 812.75C565.399 830.356 516.991 838.56 468.628 836.894Z" stroke="url(#paint30_linear)" stroke-opacity="0.8" stroke-linecap="round" stroke-linejoin="round" stroke-dasharray="1 2"/>
    <path d="M468.226 848.183C268.073 841.311 106.607 668.393 113.534 468.244C120.462 268.095 293.429 106.587 493.583 113.459C542.579 115.091 591.048 126.657 635.573 147.176C680.522 167.934 713.504 198.591 750.564 230.042C786.2 260.353 858.045 281.494 863.848 335.705C869.876 392.782 801.726 433.439 822.968 490.895C829.447 508.31 843.184 528.707 832.798 547.773C822.651 566.415 801.137 574.609 791.69 594.486C766.79 647.337 788.806 722.115 742.519 764.839C709.126 795.728 655.903 806.914 614.474 823.143C568.165 841.478 518.068 849.902 468.226 848.183Z" stroke="url(#paint31_linear)" stroke-opacity="0.8" stroke-linecap="round" stroke-linejoin="round" stroke-dasharray="1 2"/>
    <path d="M467.826 859.475C261.514 852.421 95.1948 674.245 102.305 467.938C109.355 261.54 287.673 95.1159 493.984 102.169C546.242 103.967 598.035 116.573 645.258 139.342C689.394 160.648 721.891 190.975 758.559 222.428C794.469 253.342 860.158 268.264 870.365 321.609C882.301 383.758 804.463 431.073 834.107 490.872C843.612 510.053 861.036 531.247 844.953 552.182C830.971 570.39 808.993 576.142 798.408 597.835C771.794 652.234 798.509 731.456 751.811 776.686C734.983 793.007 713.106 801.052 691.224 807.92C665.574 816.013 641.197 825.217 616.189 834.847C569.093 852.794 518.301 861.161 467.826 859.475Z" stroke="url(#paint32_linear)" stroke-opacity="0.8" stroke-linecap="round" stroke-linejoin="round" stroke-dasharray="1 2"/>
    <path d="M467.454 870.614C254.984 863.379 83.6599 679.915 91.1045 467.479C98.398 255.013 281.915 83.6436 494.295 90.9391C547.185 92.7037 599.613 105.276 647.559 127.952C693.781 149.82 728.758 181.101 766.611 214.51C802.525 246.209 872.06 257.098 876.973 314.664C882.333 377.57 811.202 433.092 847.175 490.597C858.121 508.02 879.139 529.679 863.872 550.852C848.305 572.358 818.806 576.878 806.214 602.022C778.218 657.877 808.429 742.484 761.315 789.045C743.556 806.517 720.255 813.422 696.71 819.573C670.933 826.309 647.248 834.785 622.48 844.383C573.338 863.578 520.254 872.439 467.454 870.614Z" stroke="url(#paint33_linear)" stroke-opacity="0.8" stroke-linecap="round" stroke-linejoin="round" stroke-dasharray="1 2"/>
    <path d="M467.054 881.905C248.906 874.034 72.277 685.615 79.8143 467.082C87.3516 248.548 276.219 72.2627 494.757 79.7396C548.252 81.6219 601.252 94.0708 649.771 116.623C698.654 139.324 734.392 172.321 774.516 206.957C812.821 240.062 881.326 243.773 882.434 307.575C883.572 371.226 819.539 434.169 861.874 490.405C873.657 505.952 899.088 529.1 884.607 550.268C868.236 574.284 832.848 578.048 817.33 603.719C800.823 630.844 800.09 668.335 797.484 698.953C794.589 732.26 796.272 776.651 771.277 802.278C753.07 820.839 726.745 826.37 702.319 831.409C676.264 836.757 653.299 844.355 628.653 854.133C577.523 874.273 521.938 883.901 467.054 881.905Z" stroke="url(#paint34_linear)" stroke-opacity="0.8" stroke-linecap="round" stroke-linejoin="round" stroke-dasharray="1 2"/>
    <path d="M466.654 893.196C242.377 884.993 60.8651 691.467 68.5246 466.685C76.3351 241.932 270.311 60.7625 495.159 68.45C551.944 70.3465 608.391 84.0161 659.546 108.728C707.706 131.916 742.901 164.886 782.63 199.131C819.451 231.006 882.736 228.525 887.151 289.443C889.828 326.737 874.394 364.028 863.568 399.003C852.087 436.124 852.472 460.661 878.263 489.994C892.251 505.893 921.518 529.474 905.113 552.463C886.849 578.148 848.295 582.863 828.551 608.495C808.388 634.671 807.325 672.647 805.146 704.29C802.798 738.408 807.074 788.793 781.421 815.782C762.948 835.31 734.29 839.132 709.103 842.846C681.654 846.904 658.236 854.413 632.656 864.558C580.141 885.369 522.956 895.156 466.654 893.196Z" stroke="url(#paint35_linear)" stroke-opacity="0.8" stroke-linecap="round" stroke-linejoin="round" stroke-dasharray="1 2"/>
    <path d="M466.281 904.335C236.06 896.462 50.0794 696.107 57.323 466.226C64.5926 235.409 265.671 49.5863 495.468 57.2196C551.861 59.118 607.914 72.3971 659.185 96.1128C711.092 120.188 748.286 154.566 790.714 191.455C808.2 206.702 826.959 209.81 847.911 217.345C878.779 228.302 892.452 254.253 891.815 286.432C891.061 326.036 876.445 363.957 867.444 402.032C858.147 441.225 868.686 461.939 895.525 489.517C911.265 505.679 945.52 531.017 926.197 556.103C906.424 581.885 865.799 589.176 841.967 611.658C816.12 636.021 814.243 674.152 812.344 707.574C810.278 743.864 817.539 800.241 791.11 829.195C772.04 850.175 740.747 851.837 714.377 854.38C684.81 857.24 661.544 865.171 634.216 875.838C581.157 896.622 523.218 906.261 466.281 904.335Z" stroke="url(#paint36_linear)" stroke-opacity="0.8" stroke-linecap="round" stroke-linejoin="round" stroke-dasharray="1 2"/>
    <path d="M465.881 915.626C229.502 907.572 38.6673 701.958 46.0939 465.918C53.5759 228.792 259.975 38.2052 495.931 46.0197C555.674 48.0225 614.962 62.4027 668.93 88.369C719.691 112.691 757.309 147.309 799.01 183.899C818.497 200.948 837.507 199.558 860.454 207.716C886.395 217.007 896.138 241.8 896.651 268.087C897.411 315.2 879.204 359.869 871.87 405.874C865.473 445.868 885.903 464.512 914.18 489.547C933.153 506.418 970.584 533.159 947.618 560.436C924.262 588.107 880.471 595.957 852.655 618.76C822.585 643.476 821.07 681.755 819.608 718.164C818.11 753.546 826.809 813.809 801.498 843.06C783.273 864.126 750.313 864.287 725.054 865.557C693.369 867.22 669.524 874.097 640.479 885.527C585.162 907.438 525.082 917.601 465.881 915.626Z" stroke="url(#paint37_linear)" stroke-opacity="0.8" stroke-linecap="round" stroke-linejoin="round" stroke-dasharray="1 2"/>
    <path d="M465.48 926.916C222.552 919.075 27.1934 707.718 34.8638 465.611C42.5287 222.326 254.217 26.7334 496.241 34.79C555.683 36.7339 614.666 50.6627 668.631 75.8443C722.836 100.994 763.298 137.108 807.155 176.313C826.371 193.545 842.054 190.722 865.442 196.222C898.197 203.94 902.704 238.689 901.146 267.552C898.592 315.979 880.421 362.066 876.9 410.226C874.063 449.659 904.361 467.953 932.322 489.791C953.679 506.499 994.86 534.912 969.792 564.523C944.724 594.134 896.44 602.911 865.178 624.494C831.088 648.112 827.871 683.865 826.602 722.898C825.416 760.301 836.91 824.717 811.247 856.172C791.887 879.839 753.81 876.494 726.676 876.928C695.618 877.381 672.835 885.249 644.393 896.404C587.627 918.504 526.34 928.823 465.48 926.916Z" stroke="url(#paint38_linear)" stroke-opacity="0.8" stroke-linecap="round" stroke-linejoin="round" stroke-dasharray="1 2"/>
    <path d="M465.109 938.055C216.022 930.033 15.7489 713.327 23.6022 465.062C31.5109 215.709 248.759 14.9277 496.732 23.4383C622.438 27.7154 725.955 83.4121 815.51 168.455C834.155 186.202 847.813 182.906 871.339 185.689C902.99 189.428 907.946 223.481 907.133 250.137C905.506 303.449 885.005 354.649 883.348 407.719C882.063 450.042 919.786 468.059 950.1 489.885C973.631 506.703 1019.32 538.112 989.495 569.618C960.178 600.518 910.718 609.693 875.202 631.779C839.986 653.532 834.792 685.763 833.675 725.218C832.918 750.787 834.031 776.407 833.515 801.944C833.006 822.622 833.768 850.448 820.658 867.807C802.176 892.194 763.944 888.034 737.017 887.411C702.422 886.704 678.254 895.243 646.768 907.53C588.856 929.876 526.663 940.019 465.109 938.055Z" stroke="url(#paint39_linear)" stroke-opacity="0.8" stroke-linecap="round" stroke-linejoin="round" stroke-dasharray="1 2"/>
    <path d="M464.708 949.347C209.553 941.083 4.27589 719.089 12.373 464.755C20.4647 209.244 242.973 3.60792 497.104 12.2997C624.592 16.6889 733.664 72.8415 823.656 160.87C842.424 179.19 853.85 176.086 877.759 176.905C912.416 178.095 914.222 216.238 912.898 243.5C910.222 298.175 889.639 351.397 889.227 406.122C888.856 450.191 935.697 468.888 967.005 490.045C993.68 508.025 1039.83 541.484 1006.39 575.03C975.958 605.633 926.748 616.739 889.472 636.6C850.87 657.222 841.699 684.523 840.205 727.118C839.248 755.314 841.037 783.497 840.714 811.659C840.386 832.216 841.907 860.973 829.312 878.903C810.869 905.101 768.792 898.545 741.651 897.41C707.053 895.918 683.913 904.815 652.397 917.253C592.8 940.603 528.527 951.36 464.708 949.347Z" stroke="url(#paint40_linear)" stroke-opacity="0.8" stroke-linecap="round" stroke-linejoin="round" stroke-dasharray="1 2"/>
    <path d="M464.398 960.577C202.933 952.102 -6.98598 724.969 1.23332 464.387C9.38642 202.538 237.427 -7.74398 497.414 1.07019C626.713 5.42029 741.463 62.2093 831.891 153.224C851.936 173.44 862.21 169.405 888.229 169.46C922.7 169.594 922.114 212.758 920.238 238.031C915.937 293.801 890.019 355.078 896.253 411.098C900.758 452.276 953.725 470.521 983.456 490.116C1011.31 508.482 1054.6 542.559 1022.83 577.606C992.163 611.38 940.515 623.735 900.942 643.306C859.985 663.547 848.119 688.989 846.727 734.27C845.862 762.798 847.985 791.281 847.966 819.894C847.942 840.902 849.857 870.05 837.627 888.521C818.712 917.137 773.817 908.149 745.165 906.72C709.057 904.934 685.205 916.67 652.483 929.265C592.582 952.165 528.217 962.59 464.398 960.577Z" stroke="url(#paint41_linear)" stroke-opacity="0.8" stroke-linecap="round" stroke-linejoin="round" stroke-dasharray="1 2"/>
    <defs>
        <linearGradient id="paint0_linear" x1="824.216" y1="253.75" x2="686.491" y2="677.482" gradientUnits="userSpaceOnUse">
            <stop stop-color="#F9F7F7"/>
            <stop offset="0.53125" stop-color="#1F2539"/>
            <stop offset="1" stop-color="#F9F7F7"/>
        </linearGradient>
        <linearGradient id="paint1_linear" x1="824.216" y1="253.75" x2="686.491" y2="677.482" gradientUnits="userSpaceOnUse">
            <stop stop-color="#F9F7F7"/>
            <stop offset="0.53125" stop-color="#1F2539"/>
            <stop offset="1" stop-color="#F9F7F7"/>
        </linearGradient>
        <linearGradient id="paint2_linear" x1="824.216" y1="253.75" x2="686.491" y2="677.482" gradientUnits="userSpaceOnUse">
            <stop stop-color="#F9F7F7"/>
            <stop offset="0.53125" stop-color="#1F2539"/>
            <stop offset="1" stop-color="#F9F7F7"/>
        </linearGradient>
        <linearGradient id="paint3_linear" x1="824.216" y1="253.75" x2="686.491" y2="677.482" gradientUnits="userSpaceOnUse">
            <stop stop-color="#F9F7F7"/>
            <stop offset="0.53125" stop-color="#1F2539"/>
            <stop offset="1" stop-color="#F9F7F7"/>
        </linearGradient>
        <linearGradient id="paint4_linear" x1="824.216" y1="253.75" x2="686.491" y2="677.482" gradientUnits="userSpaceOnUse">
            <stop stop-color="#F9F7F7"/>
            <stop offset="0.53125" stop-color="#1F2539"/>
            <stop offset="1" stop-color="#F9F7F7"/>
        </linearGradient>
        <linearGradient id="paint5_linear" x1="824.216" y1="253.75" x2="686.491" y2="677.482" gradientUnits="userSpaceOnUse">
            <stop stop-color="#F9F7F7"/>
            <stop offset="0.53125" stop-color="#1F2539"/>
            <stop offset="1" stop-color="#F9F7F7"/>
        </linearGradient>
        <linearGradient id="paint6_linear" x1="824.216" y1="253.75" x2="686.491" y2="677.482" gradientUnits="userSpaceOnUse">
            <stop stop-color="#F9F7F7"/>
            <stop offset="0.53125" stop-color="#1F2539"/>
            <stop offset="1" stop-color="#F9F7F7"/>
        </linearGradient>
        <linearGradient id="paint7_linear" x1="824.216" y1="253.75" x2="686.491" y2="677.482" gradientUnits="userSpaceOnUse">
            <stop stop-color="#F9F7F7"/>
            <stop offset="0.53125" stop-color="#1F2539"/>
            <stop offset="1" stop-color="#F9F7F7"/>
        </linearGradient>
        <linearGradient id="paint8_linear" x1="824.216" y1="253.75" x2="686.491" y2="677.482" gradientUnits="userSpaceOnUse">
            <stop stop-color="#F9F7F7"/>
            <stop offset="0.53125" stop-color="#1F2539"/>
            <stop offset="1" stop-color="#F9F7F7"/>
        </linearGradient>
        <linearGradient id="paint9_linear" x1="824.216" y1="253.75" x2="686.491" y2="677.482" gradientUnits="userSpaceOnUse">
            <stop stop-color="#F9F7F7"/>
            <stop offset="0.53125" stop-color="#1F2539"/>
            <stop offset="1" stop-color="#F9F7F7"/>
        </linearGradient>
        <linearGradient id="paint10_linear" x1="824.216" y1="253.75" x2="686.491" y2="677.482" gradientUnits="userSpaceOnUse">
            <stop stop-color="#F9F7F7"/>
            <stop offset="0.53125" stop-color="#1F2539"/>
            <stop offset="1" stop-color="#F9F7F7"/>
        </linearGradient>
        <linearGradient id="paint11_linear" x1="824.216" y1="253.75" x2="686.491" y2="677.482" gradientUnits="userSpaceOnUse">
            <stop stop-color="#F9F7F7"/>
            <stop offset="0.53125" stop-color="#1F2539"/>
            <stop offset="1" stop-color="#F9F7F7"/>
        </linearGradient>
        <linearGradient id="paint12_linear" x1="824.216" y1="253.75" x2="686.491" y2="677.482" gradientUnits="userSpaceOnUse">
            <stop stop-color="#F9F7F7"/>
            <stop offset="0.53125" stop-color="#1F2539"/>
            <stop offset="1" stop-color="#F9F7F7"/>
        </linearGradient>
        <linearGradient id="paint13_linear" x1="824.216" y1="253.75" x2="686.491" y2="677.482" gradientUnits="userSpaceOnUse">
            <stop stop-color="#F9F7F7"/>
            <stop offset="0.53125" stop-color="#1F2539"/>
            <stop offset="1" stop-color="#F9F7F7"/>
        </linearGradient>
        <linearGradient id="paint14_linear" x1="824.216" y1="253.75" x2="686.491" y2="677.482" gradientUnits="userSpaceOnUse">
            <stop stop-color="#F9F7F7"/>
            <stop offset="0.53125" stop-color="#1F2539"/>
            <stop offset="1" stop-color="#F9F7F7"/>
        </linearGradient>
        <linearGradient id="paint15_linear" x1="824.216" y1="253.75" x2="686.491" y2="677.482" gradientUnits="userSpaceOnUse">
            <stop stop-color="#F9F7F7"/>
            <stop offset="0.53125" stop-color="#1F2539"/>
            <stop offset="1" stop-color="#F9F7F7"/>
        </linearGradient>
        <linearGradient id="paint16_linear" x1="824.216" y1="253.75" x2="686.491" y2="677.482" gradientUnits="userSpaceOnUse">
            <stop stop-color="#F9F7F7"/>
            <stop offset="0.53125" stop-color="#1F2539"/>
            <stop offset="1" stop-color="#F9F7F7"/>
        </linearGradient>
        <linearGradient id="paint17_linear" x1="824.216" y1="253.75" x2="686.491" y2="677.482" gradientUnits="userSpaceOnUse">
            <stop stop-color="#F9F7F7"/>
            <stop offset="0.53125" stop-color="#1F2539"/>
            <stop offset="1" stop-color="#F9F7F7"/>
        </linearGradient>
        <linearGradient id="paint18_linear" x1="824.216" y1="253.75" x2="686.491" y2="677.482" gradientUnits="userSpaceOnUse">
            <stop stop-color="#F9F7F7"/>
            <stop offset="0.53125" stop-color="#1F2539"/>
            <stop offset="1" stop-color="#F9F7F7"/>
        </linearGradient>
        <linearGradient id="paint19_linear" x1="824.216" y1="253.75" x2="686.491" y2="677.482" gradientUnits="userSpaceOnUse">
            <stop stop-color="#F9F7F7"/>
            <stop offset="0.53125" stop-color="#1F2539"/>
            <stop offset="1" stop-color="#F9F7F7"/>
        </linearGradient>
        <linearGradient id="paint20_linear" x1="824.216" y1="253.75" x2="686.491" y2="677.482" gradientUnits="userSpaceOnUse">
            <stop stop-color="#F9F7F7"/>
            <stop offset="0.53125" stop-color="#1F2539"/>
            <stop offset="1" stop-color="#F9F7F7"/>
        </linearGradient>
        <linearGradient id="paint21_linear" x1="824.216" y1="253.75" x2="686.491" y2="677.482" gradientUnits="userSpaceOnUse">
            <stop stop-color="#F9F7F7"/>
            <stop offset="0.53125" stop-color="#1F2539"/>
            <stop offset="1" stop-color="#F9F7F7"/>
        </linearGradient>
        <linearGradient id="paint22_linear" x1="824.216" y1="253.75" x2="686.491" y2="677.482" gradientUnits="userSpaceOnUse">
            <stop stop-color="#F9F7F7"/>
            <stop offset="0.53125" stop-color="#1F2539"/>
            <stop offset="1" stop-color="#F9F7F7"/>
        </linearGradient>
        <linearGradient id="paint23_linear" x1="824.216" y1="253.75" x2="686.491" y2="677.482" gradientUnits="userSpaceOnUse">
            <stop stop-color="#F9F7F7"/>
            <stop offset="0.53125" stop-color="#1F2539"/>
            <stop offset="1" stop-color="#F9F7F7"/>
        </linearGradient>
        <linearGradient id="paint24_linear" x1="824.216" y1="253.75" x2="686.491" y2="677.482" gradientUnits="userSpaceOnUse">
            <stop stop-color="#F9F7F7"/>
            <stop offset="0.53125" stop-color="#1F2539"/>
            <stop offset="1" stop-color="#F9F7F7"/>
        </linearGradient>
        <linearGradient id="paint25_linear" x1="824.216" y1="253.75" x2="686.491" y2="677.482" gradientUnits="userSpaceOnUse">
            <stop stop-color="#F9F7F7"/>
            <stop offset="0.53125" stop-color="#1F2539"/>
            <stop offset="1" stop-color="#F9F7F7"/>
        </linearGradient>
        <linearGradient id="paint26_linear" x1="824.216" y1="253.75" x2="686.491" y2="677.482" gradientUnits="userSpaceOnUse">
            <stop stop-color="#F9F7F7"/>
            <stop offset="0.53125" stop-color="#1F2539"/>
            <stop offset="1" stop-color="#F9F7F7"/>
        </linearGradient>
        <linearGradient id="paint27_linear" x1="824.216" y1="253.75" x2="686.491" y2="677.482" gradientUnits="userSpaceOnUse">
            <stop stop-color="#F9F7F7"/>
            <stop offset="0.53125" stop-color="#1F2539"/>
            <stop offset="1" stop-color="#F9F7F7"/>
        </linearGradient>
        <linearGradient id="paint28_linear" x1="824.216" y1="253.75" x2="686.491" y2="677.482" gradientUnits="userSpaceOnUse">
            <stop stop-color="#F9F7F7"/>
            <stop offset="0.53125" stop-color="#1F2539"/>
            <stop offset="1" stop-color="#F9F7F7"/>
        </linearGradient>
        <linearGradient id="paint29_linear" x1="824.216" y1="253.75" x2="686.491" y2="677.482" gradientUnits="userSpaceOnUse">
            <stop stop-color="#F9F7F7"/>
            <stop offset="0.53125" stop-color="#1F2539"/>
            <stop offset="1" stop-color="#F9F7F7"/>
        </linearGradient>
        <linearGradient id="paint30_linear" x1="824.216" y1="253.75" x2="686.491" y2="677.482" gradientUnits="userSpaceOnUse">
            <stop stop-color="#F9F7F7"/>
            <stop offset="0.53125" stop-color="#1F2539"/>
            <stop offset="1" stop-color="#F9F7F7"/>
        </linearGradient>
        <linearGradient id="paint31_linear" x1="824.216" y1="253.75" x2="686.491" y2="677.482" gradientUnits="userSpaceOnUse">
            <stop stop-color="#F9F7F7"/>
            <stop offset="0.53125" stop-color="#1F2539"/>
            <stop offset="1" stop-color="#F9F7F7"/>
        </linearGradient>
        <linearGradient id="paint32_linear" x1="824.216" y1="253.75" x2="686.491" y2="677.482" gradientUnits="userSpaceOnUse">
            <stop stop-color="#F9F7F7"/>
            <stop offset="0.53125" stop-color="#1F2539"/>
            <stop offset="1" stop-color="#F9F7F7"/>
        </linearGradient>
        <linearGradient id="paint33_linear" x1="824.216" y1="253.75" x2="686.491" y2="677.482" gradientUnits="userSpaceOnUse">
            <stop stop-color="#F9F7F7"/>
            <stop offset="0.53125" stop-color="#1F2539"/>
            <stop offset="1" stop-color="#F9F7F7"/>
        </linearGradient>
        <linearGradient id="paint34_linear" x1="824.216" y1="253.75" x2="686.491" y2="677.482" gradientUnits="userSpaceOnUse">
            <stop stop-color="#F9F7F7"/>
            <stop offset="0.53125" stop-color="#1F2539"/>
            <stop offset="1" stop-color="#F9F7F7"/>
        </linearGradient>
        <linearGradient id="paint35_linear" x1="824.216" y1="253.75" x2="686.491" y2="677.482" gradientUnits="userSpaceOnUse">
            <stop stop-color="#F9F7F7"/>
            <stop offset="0.53125" stop-color="#1F2539"/>
            <stop offset="1" stop-color="#F9F7F7"/>
        </linearGradient>
        <linearGradient id="paint36_linear" x1="824.216" y1="253.75" x2="686.491" y2="677.482" gradientUnits="userSpaceOnUse">
            <stop stop-color="#F9F7F7"/>
            <stop offset="0.53125" stop-color="#1F2539"/>
            <stop offset="1" stop-color="#F9F7F7"/>
        </linearGradient>
        <linearGradient id="paint37_linear" x1="824.216" y1="253.75" x2="686.491" y2="677.482" gradientUnits="userSpaceOnUse">
            <stop stop-color="#F9F7F7"/>
            <stop offset="0.53125" stop-color="#1F2539"/>
            <stop offset="1" stop-color="#F9F7F7"/>
        </linearGradient>
        <linearGradient id="paint38_linear" x1="824.216" y1="253.75" x2="686.491" y2="677.482" gradientUnits="userSpaceOnUse">
            <stop stop-color="#F9F7F7"/>
            <stop offset="0.53125" stop-color="#1F2539"/>
            <stop offset="1" stop-color="#F9F7F7"/>
        </linearGradient>
        <linearGradient id="paint39_linear" x1="824.216" y1="253.75" x2="686.491" y2="677.482" gradientUnits="userSpaceOnUse">
            <stop stop-color="#F9F7F7"/>
            <stop offset="0.53125" stop-color="#1F2539"/>
            <stop offset="1" stop-color="#F9F7F7"/>
        </linearGradient>
        <linearGradient id="paint40_linear" x1="824.216" y1="253.75" x2="686.491" y2="677.482" gradientUnits="userSpaceOnUse">
            <stop stop-color="#F9F7F7"/>
            <stop offset="0.53125" stop-color="#1F2539"/>
            <stop offset="1" stop-color="#F9F7F7"/>
        </linearGradient>
        <linearGradient id="paint41_linear" x1="824.216" y1="253.75" x2="686.491" y2="677.482" gradientUnits="userSpaceOnUse">
            <stop stop-color="#F9F7F7"/>
            <stop offset="0.53125" stop-color="#1F2539"/>
            <stop offset="1" stop-color="#F9F7F7"/>
        </linearGradient>
    </defs>
</svg>
