<svg width="22" height="21" viewBox="0 0 22 21" fill="none" xmlns="http://www.w3.org/2000/svg">
    <path d="M0.380155 10.263L5.76007 12.9443C5.96815 13.0469 6.21382 13.0396 6.41274 12.9232L11.2014 10.1393L8.3029 12.7078C8.15532 12.8389 8.07099 13.0259 8.07099 13.2229V19.4792C8.07099 20.1392 8.9134 20.4169 9.30849 19.8926L11.6341 16.8007L17.3852 20.0759C17.7886 20.3079 18.3056 20.075 18.3991 19.6139L21.986 1.73893C22.0932 1.20177 21.5588 0.763599 21.062 0.963432L0.436988 9.00718C-0.116679 9.22352 -0.152429 9.9981 0.380155 10.263ZM20.391 2.70143L17.2386 18.4104L11.789 15.3065C11.492 15.1369 11.1097 15.2121 10.8989 15.4908L9.44599 17.4222V13.5319L17.2844 6.58718C17.905 6.0381 17.1918 5.06185 16.4832 5.47802L6.0424 11.5482L2.38307 9.72493L20.391 2.70143Z" fill="white"/>
</svg>
