<svg width="314" height="314" viewBox="0 0 314 314" fill="none" xmlns="http://www.w3.org/2000/svg">
    <g clip-path="url(#clip0)">
        <path d="M156.914 313.829C243.576 313.829 313.829 243.576 313.829 156.914C313.829 70.2529 243.576 0 156.914 0C70.2529 0 0 70.2529 0 156.914C0 243.576 70.2529 313.829 156.914 313.829Z" fill="url(#paint0_linear)"/>
        <path d="M128.148 228.833C123.064 228.833 123.929 226.914 122.175 222.073L107.227 172.876L222.297 104.609" fill="#C8DAEA"/>
        <path d="M128.146 228.832C132.069 228.832 133.802 227.038 135.992 224.909L156.914 204.565L130.817 188.828" fill="#A9C9DD"/>
        <path d="M130.812 188.835L194.049 235.555C201.265 239.537 206.472 237.475 208.27 228.856L234.011 107.557C236.646 96.9919 229.983 92.1981 223.079 95.3325L71.9313 153.614C61.6142 157.753 61.6756 163.509 70.0509 166.073L108.839 178.181L198.637 121.528C202.876 118.957 206.768 120.338 203.575 123.173" fill="url(#paint1_linear)"/>
    </g>
    <defs>
        <linearGradient id="paint0_linear" x1="209.324" y1="52.4094" x2="130.867" y2="235.371" gradientUnits="userSpaceOnUse">
            <stop stop-color="#37AEE2"/>
            <stop offset="1" stop-color="#1E96C8"/>
        </linearGradient>
        <linearGradient id="paint1_linear" x1="176.584" y1="156.929" x2="201.072" y2="212.723" gradientUnits="userSpaceOnUse">
            <stop stop-color="#EFF7FC"/>
            <stop offset="1" stop-color="white"/>
        </linearGradient>
        <clipPath id="clip0">
            <rect width="313.829" height="313.829" fill="white"/>
        </clipPath>
    </defs>
</svg>
