<svg width="326" height="366" viewBox="0 0 326 366" fill="none" xmlns="http://www.w3.org/2000/svg">
    <path d="M61.7028 340.47L61.2771 340.224L61.1384 340.465L51.4067 322.804L66.603 298.334C66.839 298.561 67.1231 298.74 67.4378 298.853L52.5453 322.834L62.1334 340.233L61.7028 340.47Z" fill="url(#paint0_linear)"/>
    <path d="M51.9759 342.44L51.5502 342.194L51.4105 342.436L42.5293 326.469L73.3241 276.881C73.4204 277.341 73.5197 277.808 73.62 278.268L43.6698 326.496L52.4055 342.201L51.9759 342.44Z" fill="url(#paint1_linear)"/>
    <path d="M68.2292 298.99C67.951 298.99 67.6845 298.941 67.4377 298.853C67.1231 298.74 66.839 298.561 66.603 298.334C66.1615 297.907 65.8872 297.31 65.8872 296.647C65.8872 295.353 66.9353 294.305 68.2292 294.305C69.5231 294.305 70.5712 295.353 70.5712 296.647C70.5712 297.941 69.5231 298.99 68.2292 298.99Z" fill="url(#paint2_linear)"/>
    <path d="M82.3764 320.287C82.1257 320.287 81.8838 320.247 81.6577 320.174L82.8021 318.19L81.9507 317.699L80.8062 319.682C80.3323 319.254 80.0344 318.634 80.0344 317.944C80.0344 316.65 81.0835 315.602 82.3764 315.602C83.6703 315.602 84.7194 316.65 84.7194 317.944C84.7194 319.238 83.6703 320.287 82.3764 320.287Z" fill="url(#paint3_linear)"/>
    <path d="M24.7245 431.512H23.5889L24.633 429.703L88.3188 319.358C88.4978 319.708 88.6728 320.048 88.8547 320.397L25.4845 430.195L24.7245 431.512Z" fill="url(#paint4_linear)"/>
    <path d="M35.9223 399.418L35.0708 398.926L36.2153 396.941L80.8063 319.682L81.9508 317.699L82.8022 318.19L81.6578 320.174L37.0667 397.434L35.9223 399.418Z" fill="url(#paint5_linear)"/>
    <path d="M9.72545 431.512H8.58984L61.138 340.465L61.2766 340.224L61.7024 340.47L62.1281 340.715L9.72545 431.512Z" fill="url(#paint6_linear)"/>
    <path d="M1.1356 431.512H0L51.4106 342.436L51.5502 342.194L51.9759 342.44L52.4016 342.685L1.1356 431.512Z" fill="url(#paint7_linear)"/>
    <g filter="url(#filter0_di)">
        <path d="M278.461 173.999V173.507H196.078L154.745 245.124L196.078 316.741H278.745L320.079 245.124L278.744 173.507H278.461V173.999L278.036 174.245L318.944 245.124L278.177 315.757H196.646L155.88 245.124L196.646 174.491H278.461V173.999L278.036 174.245L278.461 173.999Z" fill="url(#paint8_linear)"/>
    </g>
    <g filter="url(#filter1_di)">
        <path d="M273.934 181.843V179.876H199.754L162.096 245.124L199.754 310.372H275.069L312.727 245.124L275.069 179.876H273.934V181.843L272.231 182.826L308.185 245.124L272.799 306.438H202.024L166.637 245.124L202.024 183.81H273.934V181.843L272.231 182.826L273.934 181.843Z" fill="url(#paint9_linear)"/>
    </g>
    <path d="M159.327 284.541L142.922 310.957L152.787 328.86L153.649 328.385L144.061 310.986L160.162 285.059L159.327 284.541Z" fill="url(#paint10_linear)"/>
    <path d="M161.12 271.022L134.045 314.621L143.063 330.831L143.921 330.353L135.185 314.648L161.956 271.541L161.12 271.022Z" fill="url(#paint11_linear)"/>
    <path d="M162.086 284.8C162.086 286.093 161.037 287.142 159.744 287.142C158.45 287.142 157.402 286.093 157.402 284.8C157.402 283.506 158.45 282.457 159.744 282.457C161.037 282.457 162.086 283.506 162.086 284.8Z" fill="url(#paint12_linear)"/>
    <path d="M163.88 271.281C163.88 272.576 162.831 273.624 161.538 273.624C160.245 273.624 159.196 272.576 159.196 271.281C159.196 269.988 160.245 268.939 161.538 268.939C162.831 268.939 163.88 269.988 163.88 271.281Z" fill="url(#paint13_linear)"/>
    <path d="M176.234 306.097C176.234 307.39 175.186 308.439 173.892 308.439C172.599 308.439 171.551 307.39 171.551 306.097C171.551 304.802 172.599 303.753 173.892 303.753C175.186 303.753 176.234 304.802 176.234 306.097Z" fill="url(#paint14_linear)"/>
    <path d="M115.854 420.331L186.004 298.787L185.152 298.295L115.003 419.839" fill="url(#paint15_linear)"/>
    <path d="M127.437 387.57L174.317 306.343L173.466 305.851L126.586 387.078" fill="url(#paint16_linear)"/>
    <path d="M83.494 450.411L153.643 328.868L152.792 328.376L82.6426 449.92" fill="url(#paint17_linear)"/>
    <path d="M73.7675 452.382L143.918 330.838L143.066 330.346L72.916 451.89" fill="url(#paint18_linear)"/>
    <path d="M242.257 332.22L227.615 358.997L207.756 359.208L207.767 360.191L228.201 359.975L243.12 332.692L242.257 332.22Z" fill="url(#paint19_linear)"/>
    <path d="M253.14 324.006L228.795 368.529L210.829 368.648L210.836 369.632L229.38 369.51L254.002 324.478L253.14 324.006Z" fill="url(#paint20_linear)"/>
    <path d="M241.536 330.415C240.41 331.052 240.013 332.481 240.65 333.608C241.286 334.734 242.715 335.131 243.841 334.494C244.968 333.857 245.365 332.428 244.728 331.303C244.092 330.176 242.663 329.778 241.536 330.415Z" fill="url(#paint21_linear)"/>
    <path d="M252.419 322.203C251.292 322.839 250.896 324.269 251.532 325.395C252.168 326.522 253.597 326.919 254.722 326.282C255.849 325.646 256.246 324.216 255.61 323.089C254.973 321.963 253.545 321.566 252.419 322.203Z" fill="url(#paint22_linear)"/>
    <path d="M216.042 328.572C214.915 329.209 214.519 330.638 215.154 331.765C215.791 332.891 217.22 333.288 218.345 332.651C219.472 332.014 219.868 330.585 219.233 329.46C218.596 328.333 217.167 327.935 216.042 328.572Z" fill="url(#paint23_linear)"/>
    <path d="M147.178 437.86L218.443 316.968L217.596 316.468L146.33 437.361" fill="url(#paint24_linear)"/>
    <path d="M169.991 411.654L217.617 330.862L216.77 330.363L169.143 411.154" fill="url(#paint25_linear)"/>
    <path d="M136.919 480.843L208.185 359.95L207.338 359.45L136.073 480.343" fill="url(#paint26_linear)"/>
    <path d="M315.543 205.742L331.947 179.326L322.082 161.423L321.22 161.898L330.809 179.297L314.707 205.224L315.543 205.742Z" fill="url(#paint27_linear)"/>
    <path d="M313.75 219.261L340.825 175.662L331.808 159.452L330.949 159.931L339.685 175.635L312.915 218.742L313.75 219.261Z" fill="url(#paint28_linear)"/>
    <path d="M312.782 205.483C312.782 204.189 313.832 203.141 315.124 203.141C316.418 203.141 317.467 204.189 317.467 205.483C317.467 206.777 316.418 207.826 315.124 207.826C313.832 207.826 312.782 206.777 312.782 205.483Z" fill="url(#paint29_linear)"/>
    <path d="M310.991 219.001C310.991 217.707 312.039 216.658 313.333 216.658C314.626 216.658 315.675 217.707 315.675 219.001C315.675 220.296 314.626 221.344 313.333 221.344C312.039 221.344 310.991 220.296 310.991 219.001Z" fill="url(#paint30_linear)"/>
    <path d="M298.634 184.186C298.634 182.893 299.683 181.843 300.976 181.843C302.271 181.843 303.319 182.893 303.319 184.186C303.319 185.48 302.271 186.53 300.976 186.53C299.683 186.53 298.634 185.48 298.634 184.186Z" fill="url(#paint31_linear)"/>
    <path d="M359.015 69.9504L288.866 191.495L289.718 191.987L359.866 70.4421" fill="url(#paint32_linear)"/>
    <path d="M347.432 102.712L300.551 183.94L301.402 184.432L348.283 103.204" fill="url(#paint33_linear)"/>
    <path d="M391.375 39.8709L321.225 161.415L322.077 161.907L392.226 40.3627" fill="url(#paint34_linear)"/>
    <path d="M232.611 158.063L247.254 131.284L267.113 131.074L267.103 130.091L246.668 130.307L231.749 157.591L232.611 158.063Z" fill="url(#paint35_linear)"/>
    <path d="M221.73 166.276L246.074 121.754L264.039 121.635L264.033 120.651L245.489 120.774L220.868 165.805L221.73 166.276Z" fill="url(#paint36_linear)"/>
    <path d="M233.333 159.867C234.459 159.23 234.856 157.801 234.22 156.675C233.583 155.549 232.154 155.152 231.028 155.788C229.902 156.424 229.505 157.853 230.142 158.981C230.779 160.107 232.207 160.504 233.333 159.867Z" fill="url(#paint37_linear)"/>
    <path d="M222.451 168.079C223.577 167.443 223.974 166.014 223.337 164.888C222.701 163.761 221.272 163.363 220.146 164.001C219.021 164.637 218.624 166.066 219.26 167.192C219.896 168.319 221.326 168.717 222.451 168.079Z" fill="url(#paint38_linear)"/>
    <path d="M169.975 205.18C171.102 204.543 171.498 203.113 170.861 201.987C170.226 200.861 168.797 200.464 167.67 201.1C166.545 201.736 166.147 203.166 166.783 204.292C167.42 205.42 168.849 205.816 169.975 205.18Z" fill="url(#paint39_linear)"/>
    <path d="M258.829 161.711C259.955 161.073 260.352 159.644 259.716 158.518C259.078 157.392 257.65 156.995 256.524 157.631C255.398 158.267 255.001 159.696 255.637 160.824C256.274 161.95 257.703 162.347 258.829 161.711Z" fill="url(#paint40_linear)"/>
    <path d="M327.693 52.4229L256.427 173.315L257.274 173.814L328.539 52.9225" fill="url(#paint41_linear)"/>
    <path d="M304.88 78.6283L257.253 159.421L258.1 159.921L305.726 79.1279" fill="url(#paint42_linear)"/>
    <path d="M337.95 9.44114L266.684 130.333L267.532 130.833L338.797 9.94079" fill="url(#paint43_linear)"/>
    <path d="M334.879 0.000114441L263.613 120.893L264.461 121.393L335.726 0.499763" fill="url(#paint44_linear)"/>
    <path d="M182.834 177.825L151.191 232.649L152.043 233.141L183.685 178.317" fill="url(#paint45_linear)"/>
    <path d="M307.839 286.839C308.965 286.202 309.362 284.773 308.725 283.647C308.09 282.519 306.661 282.123 305.535 282.759C304.409 283.397 304.012 284.826 304.648 285.951C305.284 287.078 306.712 287.475 307.839 286.839Z" fill="url(#paint46_linear)"/>
    <path d="M320.699 259.485L289.056 314.308L289.908 314.8L321.55 259.977" fill="url(#paint47_linear)"/>
    <path d="M325.726 290.258L375.143 198.741L358.904 157.041L428 37.9117L424.598 35.9368L354.552 156.705L370.818 198.473L322.266 288.388L325.726 290.258Z" fill="url(#paint48_linear)"/>
    <path d="M326.139 294.968H324.173C324.172 295.777 323.85 296.491 323.322 297.024C322.79 297.553 322.076 297.873 321.267 297.875C320.458 297.874 319.745 297.553 319.212 297.024C318.684 296.491 318.362 295.777 318.361 294.968C318.362 294.159 318.684 293.445 319.213 292.913C319.745 292.384 320.458 292.063 321.267 292.062C322.076 292.063 322.79 292.384 323.322 292.913C323.85 293.445 324.172 294.159 324.173 294.968H326.139H328.106C328.105 291.189 325.044 288.129 321.267 288.127C317.489 288.129 314.429 291.19 314.428 294.968C314.429 298.748 317.49 301.807 321.267 301.808C325.044 301.808 328.105 298.748 328.106 294.968H326.139Z" fill="url(#paint49_linear)"/>
    <path d="M150.415 200.026L100.996 291.541L117.236 333.241L48.1394 452.371L51.5413 454.345L121.587 333.578L105.321 291.81L153.875 201.895L150.415 200.026Z" fill="url(#paint50_linear)"/>
    <path d="M150.001 195.314H151.967C151.968 194.505 152.289 193.791 152.818 193.259C153.35 192.73 154.064 192.408 154.873 192.407C155.681 192.408 156.395 192.73 156.926 193.259C157.455 193.791 157.777 194.505 157.778 195.314C157.777 196.123 157.455 196.837 156.926 197.369C156.395 197.898 155.681 198.22 154.873 198.221C154.064 198.22 153.35 197.898 152.818 197.369C152.289 196.837 151.968 196.123 151.967 195.314H150.001H148.034C148.035 199.092 151.095 202.153 154.873 202.155C158.65 202.153 161.709 199.092 161.711 195.314C161.709 191.535 158.65 188.475 154.873 188.473C151.095 188.475 148.035 191.535 148.034 195.314H150.001Z" fill="url(#paint51_linear)"/>
    <path d="M176.234 167.187C171.925 167.187 168.429 163.69 168.429 159.378C168.429 155.066 171.925 151.57 176.234 151.57C180.545 151.57 184.041 155.066 184.041 159.378C184.041 163.69 180.545 167.187 176.234 167.187ZM185.463 159.378C185.463 159.274 185.458 159.171 185.455 159.067L186.521 158.955L186.385 157.652L185.32 157.764C185.283 157.559 185.241 157.356 185.193 157.155L186.209 156.825L185.804 155.579L184.788 155.909C184.708 155.717 184.626 155.527 184.535 155.341L185.46 154.807L184.805 153.672L183.88 154.207C183.763 154.035 183.64 153.868 183.513 153.705L184.308 152.988L183.432 152.014L182.636 152.731C182.486 152.588 182.333 152.448 182.174 152.314L182.804 151.449L181.744 150.678L181.115 151.544C180.939 151.434 180.761 151.33 180.577 151.232L181.012 150.256L179.816 149.723L179.38 150.698C179.187 150.628 178.989 150.566 178.789 150.508L179.012 149.461L177.73 149.189L177.507 150.236C177.304 150.208 177.097 150.187 176.89 150.172V149.1H175.579V150.172C175.372 150.187 175.165 150.208 174.962 150.236L174.74 149.189L173.457 149.461L173.681 150.508C173.481 150.566 173.281 150.628 173.088 150.698L172.654 149.723L171.458 150.256L171.892 151.232C171.709 151.33 171.529 151.434 171.354 151.544L170.726 150.678L169.666 151.449L170.294 152.314C170.136 152.448 169.983 152.588 169.834 152.731L169.038 152.014L168.161 152.988L168.957 153.705C168.83 153.868 168.706 154.035 168.59 154.207L167.663 153.672L167.009 154.807L167.934 155.341C167.843 155.527 167.761 155.717 167.682 155.909L166.666 155.579L166.261 156.825L167.277 157.155C167.228 157.356 167.186 157.559 167.149 157.764L166.085 157.652L165.948 158.955L167.014 159.067C167.011 159.171 167.007 159.274 167.007 159.378C167.007 159.482 167.011 159.586 167.014 159.689L165.948 159.801L166.085 161.104L167.149 160.992C167.186 161.198 167.228 161.4 167.277 161.601L166.261 161.932L166.666 163.178L167.682 162.847C167.761 163.04 167.843 163.23 167.935 163.416L167.009 163.95L167.663 165.085L168.59 164.55C168.706 164.722 168.83 164.888 168.957 165.051L168.161 165.768L169.038 166.742L169.834 166.025C169.983 166.169 170.136 166.308 170.294 166.442L169.666 167.309L170.726 168.079L171.354 167.212C171.529 167.322 171.709 167.427 171.892 167.524L171.458 168.501L172.654 169.034L173.088 168.059C173.282 168.13 173.481 168.192 173.681 168.249L173.457 169.295L174.74 169.568L174.962 168.52C175.165 168.549 175.372 168.569 175.579 168.584V169.656H176.89V168.584C177.097 168.569 177.304 168.549 177.507 168.52L177.73 169.568L179.012 169.295L178.789 168.249C178.989 168.192 179.187 168.13 179.38 168.059L179.816 169.034L181.012 168.501L180.577 167.525C180.761 167.427 180.939 167.322 181.115 167.212L181.744 168.079L182.804 167.309L182.174 166.442C182.333 166.308 182.486 166.169 182.636 166.025L183.432 166.742L184.308 165.768L183.513 165.051C183.64 164.888 183.763 164.722 183.88 164.55L184.805 165.085L185.46 163.95L184.535 163.416C184.626 163.23 184.708 163.04 184.788 162.847L185.804 163.178L186.209 161.932L185.193 161.601C185.241 161.4 185.283 161.198 185.32 160.992L186.385 161.104L186.521 159.801L185.455 159.689C185.458 159.586 185.463 159.482 185.463 159.378Z" fill="url(#paint52_linear)"/>
    <path d="M267.327 339.332C264.825 339.332 262.795 337.302 262.795 334.799C262.795 332.295 264.825 330.265 267.327 330.265C269.83 330.265 271.858 332.295 271.858 334.799C271.858 337.302 269.83 339.332 267.327 339.332ZM272.684 334.799L272.679 334.619L273.299 334.554L273.219 333.796L272.601 333.861C272.579 333.742 272.556 333.624 272.527 333.508L273.117 333.316L272.882 332.592L272.292 332.785C272.247 332.672 272.199 332.562 272.146 332.455L272.682 332.144L272.302 331.485L271.765 331.796C271.697 331.696 271.625 331.6 271.552 331.505L272.014 331.089L271.506 330.523L271.042 330.94C270.956 330.856 270.866 330.776 270.776 330.698L271.141 330.195L270.525 329.748L270.16 330.251C270.058 330.187 269.955 330.127 269.848 330.07L270.101 329.502L269.405 329.192L269.154 329.759C269.041 329.719 268.927 329.682 268.81 329.649L268.938 329.041L268.195 328.884L268.066 329.491C267.948 329.475 267.827 329.463 267.706 329.454V328.831H266.946V329.454C266.826 329.463 266.707 329.475 266.589 329.491L266.459 328.884L265.714 329.041L265.844 329.649C265.728 329.682 265.613 329.719 265.5 329.759L265.247 329.192L264.553 329.502L264.806 330.07C264.7 330.127 264.596 330.187 264.494 330.251L264.129 329.748L263.514 330.195L263.879 330.698C263.786 330.776 263.697 330.856 263.61 330.94L263.149 330.523L262.64 331.089L263.102 331.505C263.028 331.6 262.956 331.696 262.889 331.796L262.351 331.485L261.97 332.144L262.508 332.455C262.456 332.562 262.408 332.672 262.362 332.785L261.772 332.592L261.537 333.316L262.127 333.508C262.098 333.624 262.074 333.742 262.052 333.861L261.436 333.796L261.355 334.554L261.973 334.619L261.969 334.799L261.973 334.979L261.355 335.044L261.436 335.801L262.052 335.736C262.074 335.855 262.098 335.973 262.127 336.089L261.537 336.28L261.772 337.005L262.362 336.812C262.408 336.924 262.456 337.034 262.508 337.142L261.97 337.452L262.351 338.111L262.889 337.8C262.956 337.901 263.028 337.997 263.102 338.091L262.64 338.508L263.149 339.073L263.61 338.657C263.697 338.741 263.786 338.821 263.879 338.899L263.514 339.402L264.129 339.849L264.494 339.346C264.596 339.41 264.7 339.471 264.806 339.527L264.553 340.094L265.247 340.404L265.5 339.838C265.613 339.88 265.728 339.915 265.844 339.948L265.714 340.555L266.459 340.714L266.589 340.106C266.707 340.122 266.826 340.134 266.946 340.143V340.765H267.706V340.143C267.827 340.134 267.948 340.122 268.066 340.106L268.195 340.714L268.938 340.555L268.81 339.948C268.927 339.915 269.041 339.88 269.154 339.838L269.405 340.404L270.101 340.094L269.848 339.527C269.955 339.471 270.058 339.41 270.16 339.346L270.525 339.849L271.141 339.402L270.776 338.899C270.866 338.821 270.956 338.741 271.042 338.657L271.506 339.073L272.014 338.508L271.552 338.091C271.625 337.997 271.697 337.901 271.765 337.8L272.302 338.111L272.682 337.452L272.146 337.142C272.199 337.034 272.247 336.924 272.292 336.812L272.882 337.005L273.117 336.28L272.527 336.089C272.556 335.973 272.579 335.855 272.601 335.736L273.219 335.801L273.299 335.044L272.679 334.979L272.684 334.799Z" fill="url(#paint53_linear)"/>
    <path d="M255.02 105.634C252.78 105.634 250.963 103.818 250.963 101.576C250.963 99.3338 252.78 97.5172 255.02 97.5172C257.261 97.5172 259.078 99.3338 259.078 101.576C259.078 103.818 257.261 105.634 255.02 105.634ZM261.478 102.687L261.002 102.514C260.737 102.417 260.574 102.158 260.589 101.876C260.595 101.777 260.598 101.677 260.598 101.576C260.598 101.48 260.595 101.384 260.59 101.289L261.549 101.031C261.887 100.942 262.085 100.596 261.995 100.26L261.718 99.2265C261.629 98.8912 261.283 98.6905 260.946 98.781L260.456 98.9128C260.186 98.9846 259.903 98.8676 259.756 98.6296L259.691 98.5292C259.538 98.2942 259.55 97.9883 259.73 97.7729L260.057 97.3834C260.281 97.1168 260.247 96.7195 259.979 96.4962L259.16 95.8087C258.894 95.5845 258.495 95.6189 258.272 95.8864L257.947 96.274C257.768 96.4874 257.471 96.5562 257.216 96.4471C257.027 96.3654 256.833 96.2946 256.633 96.2346C256.367 96.154 256.185 95.911 256.185 95.6337V95.1262C256.185 94.778 255.903 94.4957 255.555 94.4957H254.486C254.138 94.4957 253.856 94.778 253.856 95.1262V95.6317C253.856 95.913 253.668 96.155 253.4 96.2366L253.285 96.272C253.018 96.3595 252.727 96.2681 252.566 96.0379L252.276 95.6238C252.076 95.3396 251.684 95.2698 251.399 95.4694L250.523 96.0832C250.238 96.2828 250.169 96.6762 250.368 96.9605L250.659 97.3765C250.821 97.6067 250.806 97.9125 250.633 98.1338L250.56 98.2273C250.392 98.4515 250.1 98.545 249.837 98.4486L249.36 98.2755C249.033 98.1555 248.671 98.3247 248.552 98.6522L248.187 99.6564C248.068 99.9839 248.237 100.346 248.564 100.465L249.039 100.638C249.305 100.734 249.468 100.994 249.451 101.275C249.446 101.375 249.443 101.475 249.443 101.576C249.443 101.672 249.445 101.767 249.45 101.862L248.491 102.12C248.155 102.21 247.956 102.556 248.045 102.891L248.322 103.925C248.412 104.261 248.758 104.461 249.094 104.37L249.584 104.24C249.854 104.167 250.136 104.284 250.286 104.522L250.349 104.622C250.502 104.857 250.49 105.163 250.309 105.379L249.984 105.767C249.761 106.035 249.795 106.432 250.062 106.656L250.881 107.343C251.147 107.567 251.544 107.533 251.768 107.265L252.095 106.877C252.273 106.664 252.569 106.595 252.824 106.704C253.013 106.786 253.208 106.857 253.407 106.917C253.673 106.998 253.856 107.24 253.856 107.519V108.025C253.856 108.373 254.138 108.656 254.486 108.656H255.555C255.903 108.656 256.185 108.373 256.185 108.025V107.52C256.185 107.238 256.372 106.997 256.641 106.915L256.755 106.879C257.022 106.792 257.314 106.883 257.474 107.114L257.764 107.527C257.964 107.812 258.357 107.882 258.642 107.682L259.517 107.069C259.802 106.869 259.872 106.475 259.672 106.19L259.381 105.775C259.221 105.545 259.234 105.239 259.408 105.019L259.48 104.923C259.649 104.7 259.94 104.608 260.204 104.703L260.68 104.876C261.008 104.996 261.369 104.827 261.488 104.499L261.853 103.495C261.972 103.168 261.805 102.806 261.478 102.687Z" fill="url(#paint54_linear)"/>
    <path d="M176.234 353.029C173.994 353.029 172.177 351.212 172.177 348.97C172.177 346.729 173.994 344.912 176.234 344.912C178.476 344.912 180.292 346.729 180.292 348.97C180.292 351.212 178.476 353.029 176.234 353.029ZM182.692 350.082L182.216 349.909C181.951 349.811 181.788 349.553 181.803 349.27C181.809 349.172 181.812 349.071 181.812 348.97C181.812 348.874 181.809 348.779 181.804 348.684L182.764 348.426C183.101 348.336 183.299 347.991 183.21 347.654L182.933 346.622C182.843 346.285 182.497 346.086 182.162 346.176L181.671 346.307C181.4 346.38 181.118 346.263 180.97 346.025L180.905 345.923C180.752 345.688 180.765 345.382 180.945 345.168L181.271 344.779C181.495 344.512 181.461 344.114 181.193 343.89L180.374 343.203C180.108 342.98 179.71 343.014 179.487 343.282L179.161 343.669C178.982 343.883 178.685 343.95 178.431 343.841C178.241 343.761 178.047 343.69 177.848 343.629C177.581 343.549 177.399 343.305 177.399 343.028V342.52C177.399 342.173 177.117 341.89 176.769 341.89H175.7C175.352 341.89 175.07 342.173 175.07 342.52V343.027C175.07 343.307 174.882 343.55 174.614 343.631L174.5 343.667C174.233 343.754 173.941 343.662 173.78 343.433L173.49 343.019C173.291 342.734 172.898 342.665 172.613 342.865L171.737 343.477C171.452 343.677 171.383 344.07 171.583 344.356L171.874 344.771C172.035 345.002 172.02 345.307 171.847 345.528L171.774 345.621C171.606 345.847 171.314 345.939 171.052 345.844L170.574 345.67C170.247 345.551 169.886 345.719 169.767 346.046L169.401 347.051C169.282 347.379 169.451 347.741 169.778 347.86L170.253 348.033C170.519 348.128 170.682 348.389 170.666 348.669C170.66 348.77 170.657 348.869 170.657 348.97C170.657 349.066 170.659 349.162 170.664 349.258L169.706 349.514C169.369 349.604 169.17 349.95 169.26 350.286L169.537 351.319C169.627 351.655 169.972 351.855 170.308 351.766L170.798 351.634C171.069 351.561 171.351 351.679 171.5 351.917L171.563 352.016C171.717 352.252 171.706 352.558 171.525 352.774L171.198 353.161C170.975 353.429 171.009 353.826 171.276 354.05L172.095 354.738C172.361 354.962 172.759 354.927 172.983 354.66L173.309 354.272C173.487 354.059 173.783 353.989 174.04 354.1C174.227 354.181 174.423 354.252 174.622 354.311C174.887 354.392 175.07 354.635 175.07 354.913V355.419C175.07 355.769 175.352 356.051 175.7 356.051H176.769C177.117 356.051 177.399 355.769 177.399 355.419V354.915C177.399 354.634 177.586 354.391 177.855 354.309L177.969 354.274C178.236 354.186 178.528 354.278 178.688 354.509L178.978 354.922C179.178 355.208 179.571 355.277 179.856 355.077L180.732 354.463C181.017 354.264 181.086 353.87 180.888 353.585L180.596 353.169C180.435 352.94 180.449 352.633 180.622 352.413L180.695 352.318C180.863 352.094 181.154 352.002 181.419 352.097L181.894 352.271C182.222 352.39 182.584 352.221 182.703 351.893L183.067 350.889C183.187 350.563 183.019 350.201 182.692 350.082Z" fill="url(#paint55_linear)"/>
    <path d="M295.969 326.399C294.582 326.399 293.458 325.275 293.458 323.887C293.458 322.5 294.582 321.375 295.969 321.375C297.355 321.375 298.479 322.5 298.479 323.887C298.479 325.275 297.355 326.399 295.969 326.399ZM299.964 324.574L299.67 324.468C299.506 324.407 299.405 324.247 299.414 324.073L299.42 323.887L299.415 323.71L300.009 323.551C300.217 323.495 300.34 323.281 300.284 323.073L300.113 322.433C300.058 322.225 299.844 322.102 299.635 322.158L299.333 322.239C299.165 322.284 298.99 322.211 298.899 322.064L298.859 322.002C298.764 321.856 298.772 321.667 298.883 321.533L299.085 321.293C299.223 321.128 299.203 320.881 299.038 320.744L298.53 320.318C298.365 320.179 298.119 320.202 297.981 320.367L297.779 320.607C297.669 320.739 297.486 320.781 297.327 320.713C297.21 320.662 297.09 320.62 296.967 320.581C296.802 320.532 296.69 320.381 296.69 320.211V319.896C296.69 319.68 296.515 319.506 296.299 319.506H295.638C295.422 319.506 295.247 319.68 295.247 319.896V320.21C295.247 320.383 295.132 320.533 294.965 320.582L294.895 320.605C294.73 320.659 294.549 320.603 294.45 320.46L294.27 320.205C294.147 320.028 293.903 319.984 293.727 320.108L293.186 320.488C293.01 320.612 292.966 320.855 293.09 321.031L293.269 321.288C293.369 321.431 293.361 321.62 293.253 321.757L293.208 321.815C293.104 321.954 292.924 322.011 292.761 321.952L292.466 321.845C292.263 321.77 292.039 321.876 291.965 322.077L291.74 322.7C291.667 322.902 291.77 323.126 291.972 323.199L292.267 323.307C292.431 323.366 292.532 323.527 292.523 323.701L292.517 323.887L292.522 324.064L291.928 324.224C291.72 324.279 291.596 324.494 291.653 324.701L291.824 325.341C291.879 325.548 292.093 325.672 292.301 325.617L292.605 325.535C292.773 325.491 292.946 325.563 293.038 325.71L293.077 325.772C293.173 325.918 293.165 326.108 293.054 326.241L292.852 326.481C292.714 326.646 292.735 326.892 292.899 327.03L293.407 327.456C293.571 327.594 293.818 327.573 293.956 327.408L294.158 327.168C294.268 327.036 294.452 326.993 294.61 327.061C294.727 327.111 294.847 327.155 294.97 327.193C295.135 327.242 295.247 327.392 295.247 327.564V327.878C295.247 328.094 295.422 328.269 295.638 328.269H296.299C296.515 328.269 296.69 328.094 296.69 327.878V327.565C296.69 327.391 296.805 327.242 296.972 327.191L297.042 327.169C297.207 327.115 297.388 327.172 297.487 327.314L297.666 327.57C297.79 327.747 298.033 327.79 298.21 327.667L298.753 327.286C298.928 327.163 298.971 326.919 298.847 326.743L298.668 326.486C298.568 326.344 298.577 326.154 298.684 326.017L298.729 325.958C298.833 325.821 299.013 325.763 299.176 325.823L299.471 325.93C299.674 326.004 299.898 325.899 299.972 325.697L300.197 325.075C300.272 324.873 300.166 324.648 299.964 324.574Z" fill="url(#paint56_linear)"/>
    <path d="M221.39 245.438H221.504L225.108 236.587H228.979V237.194L222.292 252.371H220.579L213.822 237.19V236.583H217.696L221.39 245.438Z" fill="white"/>
    <path d="M239.929 247.132V252.192H235.83V236.587H245.651V240.156H239.929V243.566H244.998V247.132H239.929Z" fill="white"/>
    <path d="M258.762 247.288L255.878 252.191H251.53V251.584L256.622 243.917L252.071 237.184V236.578H256.267L258.762 240.646H258.874L261.395 236.588H265.564V237.195L261.02 243.922L266.133 251.589V252.196H261.786L258.903 247.293L258.762 247.288Z" fill="white"/>
    <path d="M235.781 210C217.705 210 203 224.555 203 242.442C203 255.416 210.737 266.633 221.884 271.819C217.312 268.945 213.548 264.977 210.939 260.281C208.329 255.584 206.96 250.312 206.958 244.953C206.958 227.398 221.39 213.116 239.131 213.116C247.046 213.11 254.683 216.002 260.571 221.237C257.498 217.71 253.693 214.88 249.415 212.941C245.137 211.002 240.487 209.999 235.781 210Z" fill="#A2C037"/>
    <path d="M255.642 210.802C266.317 217.387 273.438 229.108 273.438 242.445C273.438 262.99 256.547 279.705 235.783 279.705C226.412 279.714 217.376 276.25 210.456 269.996C214.04 274.027 218.452 277.256 223.396 279.468C228.341 281.679 233.705 282.822 239.132 282.821C260.229 282.821 277.395 265.83 277.395 244.957C277.395 229.926 268.499 216.912 255.642 210.802Z" fill="#C20D19"/>
    <defs>
        <filter id="filter0_di" x="139.745" y="158.507" width="195.334" height="173.233" filterUnits="userSpaceOnUse" color-interpolation-filters="sRGB">
            <feFlood flood-opacity="0" result="BackgroundImageFix"/>
            <feColorMatrix in="SourceAlpha" type="matrix" values="0 0 0 0 0 0 0 0 0 0 0 0 0 0 0 0 0 0 127 0"/>
            <feOffset/>
            <feGaussianBlur stdDeviation="7.5"/>
            <feColorMatrix type="matrix" values="0 0 0 0 0.509804 0 0 0 0 0.843137 0 0 0 0 0.968627 0 0 0 1 0"/>
            <feBlend mode="normal" in2="BackgroundImageFix" result="effect1_dropShadow"/>
            <feBlend mode="normal" in="SourceGraphic" in2="effect1_dropShadow" result="shape"/>
            <feColorMatrix in="SourceAlpha" type="matrix" values="0 0 0 0 0 0 0 0 0 0 0 0 0 0 0 0 0 0 127 0" result="hardAlpha"/>
            <feOffset dy="4"/>
            <feGaussianBlur stdDeviation="5"/>
            <feComposite in2="hardAlpha" operator="arithmetic" k2="-1" k3="1"/>
            <feColorMatrix type="matrix" values="0 0 0 0 0.509804 0 0 0 0 0.843137 0 0 0 0 0.968627 0 0 0 0.5 0"/>
            <feBlend mode="normal" in2="shape" result="effect2_innerShadow"/>
        </filter>
        <filter id="filter1_di" x="147.096" y="164.876" width="180.63" height="160.496" filterUnits="userSpaceOnUse" color-interpolation-filters="sRGB">
            <feFlood flood-opacity="0" result="BackgroundImageFix"/>
            <feColorMatrix in="SourceAlpha" type="matrix" values="0 0 0 0 0 0 0 0 0 0 0 0 0 0 0 0 0 0 127 0"/>
            <feOffset/>
            <feGaussianBlur stdDeviation="7.5"/>
            <feColorMatrix type="matrix" values="0 0 0 0 0.509804 0 0 0 0 0.843137 0 0 0 0 0.968627 0 0 0 1 0"/>
            <feBlend mode="normal" in2="BackgroundImageFix" result="effect1_dropShadow"/>
            <feBlend mode="normal" in="SourceGraphic" in2="effect1_dropShadow" result="shape"/>
            <feColorMatrix in="SourceAlpha" type="matrix" values="0 0 0 0 0 0 0 0 0 0 0 0 0 0 0 0 0 0 127 0" result="hardAlpha"/>
            <feOffset dy="4"/>
            <feGaussianBlur stdDeviation="5"/>
            <feComposite in2="hardAlpha" operator="arithmetic" k2="-1" k3="1"/>
            <feColorMatrix type="matrix" values="0 0 0 0 0.509804 0 0 0 0 0.843137 0 0 0 0 0.968627 0 0 0 0.5 0"/>
            <feBlend mode="normal" in2="shape" result="effect2_innerShadow"/>
        </filter>
        <linearGradient id="paint0_linear" x1="-258.771" y1="-78.441" x2="86.6067" y2="209.627" gradientUnits="userSpaceOnUse">
            <stop stop-color="#2C50AA"/>
            <stop offset="0.334905" stop-color="#274188"/>
            <stop offset="0.707645" stop-color="#1F2B56"/>
            <stop offset="1" stop-color="#1B2548"/>
        </linearGradient>
        <linearGradient id="paint1_linear" x1="-258.772" y1="-78.4414" x2="86.6064" y2="209.627" gradientUnits="userSpaceOnUse">
            <stop stop-color="#2C50AA"/>
            <stop offset="0.334905" stop-color="#274188"/>
            <stop offset="0.707645" stop-color="#1F2B56"/>
            <stop offset="1" stop-color="#1B2548"/>
        </linearGradient>
        <linearGradient id="paint2_linear" x1="-258.775" y1="-78.4433" x2="86.6052" y2="209.628" gradientUnits="userSpaceOnUse">
            <stop stop-color="#2C50AA"/>
            <stop offset="0.334905" stop-color="#274188"/>
            <stop offset="0.707645" stop-color="#1F2B56"/>
            <stop offset="1" stop-color="#1B2548"/>
        </linearGradient>
        <linearGradient id="paint3_linear" x1="-258.774" y1="-78.4445" x2="86.6069" y2="209.625" gradientUnits="userSpaceOnUse">
            <stop stop-color="#2C50AA"/>
            <stop offset="0.334905" stop-color="#274188"/>
            <stop offset="0.707645" stop-color="#1F2B56"/>
            <stop offset="1" stop-color="#1B2548"/>
        </linearGradient>
        <linearGradient id="paint4_linear" x1="-258.773" y1="-78.4413" x2="86.606" y2="209.627" gradientUnits="userSpaceOnUse">
            <stop stop-color="#2C50AA"/>
            <stop offset="0.334905" stop-color="#274188"/>
            <stop offset="0.707645" stop-color="#1F2B56"/>
            <stop offset="1" stop-color="#1B2548"/>
        </linearGradient>
        <linearGradient id="paint5_linear" x1="-258.772" y1="-78.4413" x2="86.6061" y2="209.627" gradientUnits="userSpaceOnUse">
            <stop stop-color="#2C50AA"/>
            <stop offset="0.334905" stop-color="#274188"/>
            <stop offset="0.707645" stop-color="#1F2B56"/>
            <stop offset="1" stop-color="#1B2548"/>
        </linearGradient>
        <linearGradient id="paint6_linear" x1="-258.773" y1="-78.4413" x2="86.6055" y2="209.628" gradientUnits="userSpaceOnUse">
            <stop stop-color="#2C50AA"/>
            <stop offset="0.334905" stop-color="#274188"/>
            <stop offset="0.707645" stop-color="#1F2B56"/>
            <stop offset="1" stop-color="#1B2548"/>
        </linearGradient>
        <linearGradient id="paint7_linear" x1="-258.772" y1="-78.4412" x2="86.606" y2="209.628" gradientUnits="userSpaceOnUse">
            <stop stop-color="#2C50AA"/>
            <stop offset="0.334905" stop-color="#274188"/>
            <stop offset="0.707645" stop-color="#1F2B56"/>
            <stop offset="1" stop-color="#1B2548"/>
        </linearGradient>
        <linearGradient id="paint8_linear" x1="237.412" y1="316.741" x2="237.412" y2="173.507" gradientUnits="userSpaceOnUse">
            <stop stop-color="#5DFFFF"/>
            <stop offset="1" stop-color="#00FFFF" stop-opacity="0.32"/>
        </linearGradient>
        <linearGradient id="paint9_linear" x1="237.412" y1="310.372" x2="237.412" y2="179.876" gradientUnits="userSpaceOnUse">
            <stop stop-color="#5DFFFF"/>
            <stop offset="1" stop-color="#00FFFF" stop-opacity="0.32"/>
        </linearGradient>
        <linearGradient id="paint10_linear" x1="151.542" y1="328.86" x2="151.542" y2="284.541" gradientUnits="userSpaceOnUse">
            <stop stop-color="white"/>
            <stop offset="1" stop-color="#CBDDFF" stop-opacity="0.32"/>
        </linearGradient>
        <linearGradient id="paint11_linear" x1="148" y1="330.831" x2="148" y2="271.022" gradientUnits="userSpaceOnUse">
            <stop stop-color="white"/>
            <stop offset="1" stop-color="#CBDDFF" stop-opacity="0.32"/>
        </linearGradient>
        <linearGradient id="paint12_linear" x1="159.744" y1="287.142" x2="159.744" y2="282.457" gradientUnits="userSpaceOnUse">
            <stop stop-color="white"/>
            <stop offset="1" stop-color="#CBDDFF" stop-opacity="0.32"/>
        </linearGradient>
        <linearGradient id="paint13_linear" x1="161.538" y1="273.624" x2="161.538" y2="268.939" gradientUnits="userSpaceOnUse">
            <stop stop-color="white"/>
            <stop offset="1" stop-color="#CBDDFF" stop-opacity="0.32"/>
        </linearGradient>
        <linearGradient id="paint14_linear" x1="173.892" y1="308.439" x2="173.892" y2="303.753" gradientUnits="userSpaceOnUse">
            <stop stop-color="white"/>
            <stop offset="1" stop-color="#CBDDFF" stop-opacity="0.32"/>
        </linearGradient>
        <linearGradient id="paint15_linear" x1="150.503" y1="420.331" x2="150.503" y2="298.295" gradientUnits="userSpaceOnUse">
            <stop stop-color="white"/>
            <stop offset="1" stop-color="#CBDDFF" stop-opacity="0.32"/>
        </linearGradient>
        <linearGradient id="paint16_linear" x1="150.452" y1="387.57" x2="150.452" y2="305.851" gradientUnits="userSpaceOnUse">
            <stop stop-color="white"/>
            <stop offset="1" stop-color="#CBDDFF" stop-opacity="0.32"/>
        </linearGradient>
        <linearGradient id="paint17_linear" x1="118.143" y1="450.411" x2="118.143" y2="328.376" gradientUnits="userSpaceOnUse">
            <stop stop-color="white"/>
            <stop offset="1" stop-color="#CBDDFF" stop-opacity="0.32"/>
        </linearGradient>
        <linearGradient id="paint18_linear" x1="108.417" y1="452.382" x2="108.417" y2="330.346" gradientUnits="userSpaceOnUse">
            <stop stop-color="white"/>
            <stop offset="1" stop-color="#CBDDFF" stop-opacity="0.32"/>
        </linearGradient>
        <linearGradient id="paint19_linear" x1="225.438" y1="360.191" x2="225.438" y2="332.22" gradientUnits="userSpaceOnUse">
            <stop stop-color="white"/>
            <stop offset="1" stop-color="#CBDDFF" stop-opacity="0.32"/>
        </linearGradient>
        <linearGradient id="paint20_linear" x1="232.415" y1="369.632" x2="232.415" y2="324.006" gradientUnits="userSpaceOnUse">
            <stop stop-color="white"/>
            <stop offset="1" stop-color="#CBDDFF" stop-opacity="0.32"/>
        </linearGradient>
        <linearGradient id="paint21_linear" x1="242.689" y1="334.798" x2="242.689" y2="330.111" gradientUnits="userSpaceOnUse">
            <stop stop-color="white"/>
            <stop offset="1" stop-color="#CBDDFF" stop-opacity="0.32"/>
        </linearGradient>
        <linearGradient id="paint22_linear" x1="253.571" y1="326.586" x2="253.571" y2="321.899" gradientUnits="userSpaceOnUse">
            <stop stop-color="white"/>
            <stop offset="1" stop-color="#CBDDFF" stop-opacity="0.32"/>
        </linearGradient>
        <linearGradient id="paint23_linear" x1="217.193" y1="332.955" x2="217.193" y2="328.268" gradientUnits="userSpaceOnUse">
            <stop stop-color="white"/>
            <stop offset="1" stop-color="#CBDDFF" stop-opacity="0.32"/>
        </linearGradient>
        <linearGradient id="paint24_linear" x1="182.386" y1="437.86" x2="182.386" y2="316.468" gradientUnits="userSpaceOnUse">
            <stop stop-color="white"/>
            <stop offset="1" stop-color="#CBDDFF" stop-opacity="0.32"/>
        </linearGradient>
        <linearGradient id="paint25_linear" x1="193.38" y1="411.654" x2="193.38" y2="330.363" gradientUnits="userSpaceOnUse">
            <stop stop-color="white"/>
            <stop offset="1" stop-color="#CBDDFF" stop-opacity="0.32"/>
        </linearGradient>
        <linearGradient id="paint26_linear" x1="172.129" y1="480.843" x2="172.129" y2="359.45" gradientUnits="userSpaceOnUse">
            <stop stop-color="white"/>
            <stop offset="1" stop-color="#CBDDFF" stop-opacity="0.32"/>
        </linearGradient>
        <linearGradient id="paint27_linear" x1="323.327" y1="205.742" x2="323.327" y2="161.423" gradientUnits="userSpaceOnUse">
            <stop stop-color="white"/>
            <stop offset="1" stop-color="#CBDDFF" stop-opacity="0.32"/>
        </linearGradient>
        <linearGradient id="paint28_linear" x1="326.87" y1="219.261" x2="326.87" y2="159.452" gradientUnits="userSpaceOnUse">
            <stop stop-color="white"/>
            <stop offset="1" stop-color="#CBDDFF" stop-opacity="0.32"/>
        </linearGradient>
        <linearGradient id="paint29_linear" x1="315.125" y1="207.826" x2="315.125" y2="203.141" gradientUnits="userSpaceOnUse">
            <stop stop-color="white"/>
            <stop offset="1" stop-color="#CBDDFF" stop-opacity="0.32"/>
        </linearGradient>
        <linearGradient id="paint30_linear" x1="313.333" y1="221.344" x2="313.333" y2="216.658" gradientUnits="userSpaceOnUse">
            <stop stop-color="white"/>
            <stop offset="1" stop-color="#CBDDFF" stop-opacity="0.32"/>
        </linearGradient>
        <linearGradient id="paint31_linear" x1="300.977" y1="186.53" x2="300.977" y2="181.843" gradientUnits="userSpaceOnUse">
            <stop stop-color="white"/>
            <stop offset="1" stop-color="#CBDDFF" stop-opacity="0.32"/>
        </linearGradient>
        <linearGradient id="paint32_linear" x1="324.366" y1="191.987" x2="324.366" y2="69.9504" gradientUnits="userSpaceOnUse">
            <stop stop-color="white"/>
            <stop offset="1" stop-color="#CBDDFF" stop-opacity="0.32"/>
        </linearGradient>
        <linearGradient id="paint33_linear" x1="324.417" y1="184.432" x2="324.417" y2="102.712" gradientUnits="userSpaceOnUse">
            <stop stop-color="white"/>
            <stop offset="1" stop-color="#CBDDFF" stop-opacity="0.32"/>
        </linearGradient>
        <linearGradient id="paint34_linear" x1="356.726" y1="161.907" x2="356.726" y2="39.8709" gradientUnits="userSpaceOnUse">
            <stop stop-color="white"/>
            <stop offset="1" stop-color="#CBDDFF" stop-opacity="0.32"/>
        </linearGradient>
        <linearGradient id="paint35_linear" x1="249.431" y1="158.063" x2="249.431" y2="130.091" gradientUnits="userSpaceOnUse">
            <stop stop-color="white"/>
            <stop offset="1" stop-color="#CBDDFF" stop-opacity="0.32"/>
        </linearGradient>
        <linearGradient id="paint36_linear" x1="242.454" y1="166.276" x2="242.454" y2="120.651" gradientUnits="userSpaceOnUse">
            <stop stop-color="white"/>
            <stop offset="1" stop-color="#CBDDFF" stop-opacity="0.32"/>
        </linearGradient>
        <linearGradient id="paint37_linear" x1="232.181" y1="160.171" x2="232.181" y2="155.485" gradientUnits="userSpaceOnUse">
            <stop stop-color="white"/>
            <stop offset="1" stop-color="#CBDDFF" stop-opacity="0.32"/>
        </linearGradient>
        <linearGradient id="paint38_linear" x1="221.299" y1="168.383" x2="221.299" y2="163.697" gradientUnits="userSpaceOnUse">
            <stop stop-color="white"/>
            <stop offset="1" stop-color="#CBDDFF" stop-opacity="0.32"/>
        </linearGradient>
        <linearGradient id="paint39_linear" x1="168.823" y1="205.483" x2="168.823" y2="200.797" gradientUnits="userSpaceOnUse">
            <stop stop-color="white"/>
            <stop offset="1" stop-color="#CBDDFF" stop-opacity="0.32"/>
        </linearGradient>
        <linearGradient id="paint40_linear" x1="257.677" y1="162.014" x2="257.677" y2="157.328" gradientUnits="userSpaceOnUse">
            <stop stop-color="white"/>
            <stop offset="1" stop-color="#CBDDFF" stop-opacity="0.32"/>
        </linearGradient>
        <linearGradient id="paint41_linear" x1="292.483" y1="173.814" x2="292.483" y2="52.4229" gradientUnits="userSpaceOnUse">
            <stop stop-color="white"/>
            <stop offset="1" stop-color="#CBDDFF" stop-opacity="0.32"/>
        </linearGradient>
        <linearGradient id="paint42_linear" x1="281.49" y1="159.921" x2="281.49" y2="78.6283" gradientUnits="userSpaceOnUse">
            <stop stop-color="white"/>
            <stop offset="1" stop-color="#CBDDFF" stop-opacity="0.32"/>
        </linearGradient>
        <linearGradient id="paint43_linear" x1="302.741" y1="130.833" x2="302.741" y2="9.44114" gradientUnits="userSpaceOnUse">
            <stop stop-color="white"/>
            <stop offset="1" stop-color="#CBDDFF" stop-opacity="0.32"/>
        </linearGradient>
        <linearGradient id="paint44_linear" x1="299.669" y1="121.393" x2="299.669" y2="0.000114441" gradientUnits="userSpaceOnUse">
            <stop stop-color="white"/>
            <stop offset="1" stop-color="#CBDDFF" stop-opacity="0.32"/>
        </linearGradient>
        <linearGradient id="paint45_linear" x1="167.438" y1="233.141" x2="167.438" y2="177.825" gradientUnits="userSpaceOnUse">
            <stop stop-color="white"/>
            <stop offset="1" stop-color="#CBDDFF" stop-opacity="0.32"/>
        </linearGradient>
        <linearGradient id="paint46_linear" x1="306.687" y1="287.142" x2="306.687" y2="282.456" gradientUnits="userSpaceOnUse">
            <stop stop-color="white"/>
            <stop offset="1" stop-color="#CBDDFF" stop-opacity="0.32"/>
        </linearGradient>
        <linearGradient id="paint47_linear" x1="305.303" y1="314.8" x2="305.303" y2="259.485" gradientUnits="userSpaceOnUse">
            <stop stop-color="white"/>
            <stop offset="1" stop-color="#CBDDFF" stop-opacity="0.32"/>
        </linearGradient>
        <linearGradient id="paint48_linear" x1="375.133" y1="290.258" x2="375.133" y2="35.9367" gradientUnits="userSpaceOnUse">
            <stop stop-color="white"/>
            <stop offset="1" stop-color="#CBDDFF" stop-opacity="0.32"/>
        </linearGradient>
        <linearGradient id="paint49_linear" x1="321.267" y1="301.808" x2="321.267" y2="288.127" gradientUnits="userSpaceOnUse">
            <stop stop-color="white"/>
            <stop offset="1" stop-color="#CBDDFF" stop-opacity="0.32"/>
        </linearGradient>
        <linearGradient id="paint50_linear" x1="101.007" y1="454.345" x2="101.007" y2="200.026" gradientUnits="userSpaceOnUse">
            <stop stop-color="white"/>
            <stop offset="1" stop-color="#CBDDFF" stop-opacity="0.32"/>
        </linearGradient>
        <linearGradient id="paint51_linear" x1="154.873" y1="202.155" x2="154.873" y2="188.473" gradientUnits="userSpaceOnUse">
            <stop stop-color="white"/>
            <stop offset="1" stop-color="#CBDDFF" stop-opacity="0.32"/>
        </linearGradient>
        <linearGradient id="paint52_linear" x1="176.235" y1="169.656" x2="176.235" y2="149.1" gradientUnits="userSpaceOnUse">
            <stop stop-color="white"/>
            <stop offset="1" stop-color="#CBDDFF" stop-opacity="0.32"/>
        </linearGradient>
        <linearGradient id="paint53_linear" x1="267.327" y1="340.765" x2="267.327" y2="328.831" gradientUnits="userSpaceOnUse">
            <stop stop-color="white"/>
            <stop offset="1" stop-color="#CBDDFF" stop-opacity="0.32"/>
        </linearGradient>
        <linearGradient id="paint54_linear" x1="255.02" y1="108.656" x2="255.02" y2="94.4957" gradientUnits="userSpaceOnUse">
            <stop stop-color="white"/>
            <stop offset="1" stop-color="#CBDDFF" stop-opacity="0.32"/>
        </linearGradient>
        <linearGradient id="paint55_linear" x1="176.235" y1="356.051" x2="176.235" y2="341.89" gradientUnits="userSpaceOnUse">
            <stop stop-color="white"/>
            <stop offset="1" stop-color="#CBDDFF" stop-opacity="0.32"/>
        </linearGradient>
        <linearGradient id="paint56_linear" x1="295.968" y1="328.269" x2="295.968" y2="319.506" gradientUnits="userSpaceOnUse">
            <stop stop-color="white"/>
            <stop offset="1" stop-color="#CBDDFF" stop-opacity="0.32"/>
        </linearGradient>
    </defs>
</svg>
